<svg xmlns="http://www.w3.org/2000/svg" viewBox="-180 272 250 250"><path d="M26.9 409.7c-7.9.1-14.8 1.9-20.6 4.8-2.1-4.2-4.2-7.9-4.6-10.7-.4-3.2-.9-5.2-.4-8.9.5-3.8 2.7-9.2 2.7-9.7-.1-.4-.5-2.3-5-2.4-4.6-.1-8.5.9-8.9 2.1s-1.3 4-1.9 6.8c-.8 4.2-9.1 18.9-13.9 26.7-1.5-3-2.9-5.7-3.2-7.8-.4-3.2-.9-5.2-.4-8.9.5-3.8 2.7-9.2 2.7-9.7-.1-.4-.5-2.3-5-2.4-4.6-.1-8.5.9-8.9 2.1-.4 1.2-.9 4-1.9 6.8-.9 2.8-12 27.4-14.9 33.8-1.5 3.3-2.8 5.9-3.7 7.7-.9 1.8-.1.1-.1.3-.8 1.5-1.3 2.3-1.3 2.3v.1c-.6 1.1-1.3 2.2-1.6 2.2-.2 0-.7-3 .1-7 1.7-8.5 5.6-21.9 5.6-22.4 0-.2.7-2.6-2.6-3.8-3.2-1.2-4.4.8-4.6.8s-.5.7-.5.7 3.6-15-6.9-15c-6.6 0-15.6 7.2-20.1 13.6-2.8 1.5-8.9 4.8-15.2 8.3-2.5 1.3-5 2.8-7.4 4l-.5-.5c-12.7-13.5-36.2-23.1-35.2-41.3.3-6.6 2.6-24 45-45.2 34.7-17.3 62.5-12.6 67.4-2 6.9 15.1-14.8 43.1-50.9 47.2-13.8 1.5-21-3.8-22.8-5.8-1.9-2.1-2.2-2.2-2.9-1.8-1.1.6-.5 2.5 0 3.6 1.1 2.8 5.5 7.8 13 10.3 6.6 2.2 22.8 3.4 42.3-4.2 21.9-8.5 38.9-32 33.9-51.7-5.1-20-38.3-26.6-69.6-15.4-18.7 6.6-38.9 17-53.5 30.7-17.3 16.2-20.1 30.3-18.9 36.1 4 20.9 32.9 34.5 44.4 44.6-.6.3-1.1.6-1.6.9-5.8 2.8-27.8 14.3-33.3 26.5-6.2 13.8 1 23.6 5.8 25 14.8 4.1 30-3.3 38.2-15.5 8.1-12.2 7.2-28 3.4-35.2l-.1-.3 4.5-2.6c2.9-1.7 5.8-3.3 8.3-4.7-1.4 3.8-2.5 8.4-3 15.1-.6 7.8 2.6 18 6.8 21.9 1.9 1.7 4.1 1.8 5.4 1.8 4.9 0 7.1-4 9.5-8.9 3-5.9 5.7-12.7 5.7-12.7s-3.3 18.5 5.8 18.5c3.3 0 6.6-4.3 8.1-6.5v.1s.1-.1.3-.5c.2-.3.3-.5.5-.9v-.1c1.3-2.3 4.3-7.6 8.7-16.3 5.7-11.3 11.2-25.4 11.2-25.4s.5 3.4 2.2 9.1c1 3.4 3.1 7 4.8 10.7-1.3 1.9-2.1 2.9-2.1 2.9l.1.1c-1.1 1.4-2.3 2.9-3.5 4.4-4.5 5.4-9.9 11.6-10.7 13.4-.9 2.1-.7 3.6 1 4.9 1.2.9 3.3 1.1 5.6.9 4.1-.3 6.9-1.3 8.3-1.9 2.2-.8 4.8-2 7.2-3.8 4.4-3.3 7.2-7.9 6.9-14.2-.1-3.4-1.3-6.8-2.6-10 .4-.6.8-1.1 1.2-1.8 7-10.3 12.5-21.5 12.5-21.5s.5 3.4 2.2 9.1c.9 2.9 2.5 6 4 9.1-6.6 5.4-10.7 11.6-12.1 15.6-2.6 7.6-.6 10.9 3.3 11.7 1.7.3 4.2-.5 6.1-1.3 2.3-.7 5.1-2.1 7.7-4 4.4-3.3 8.7-7.9 8.5-14-.1-2.8-.9-5.6-1.9-8.3 5.6-2.3 12.9-3.6 22-2.5 19.7 2.3 23.6 14.6 22.9 19.8-.7 5.2-4.9 8-6.2 8.9-1.4.9-1.8 1.1-1.7 1.8.2.9.8.9 2 .7 1.7-.3 10.4-4.2 10.7-13.7.3-12.1-11.2-25.4-31.8-25.3zM-125.3 461c-6.5 7.2-15.7 9.9-19.6 7.6-4.2-2.5-2.6-13 5.4-20.5 4.9-4.6 11.2-8.9 15.4-11.5.9-.6 2.3-1.4 4-2.5.3-.2.5-.3.5-.3.3-.2.7-.4 1-.6 3 10.8.2 20.3-6.7 27.8zm47.7-32.4c-2.3 5.6-7 19.8-9.9 19-2.5-.7-4-11.5-.5-22.1 1.8-5.4 5.6-11.7 7.8-14.2 3.6-4 7.5-5.3 8.5-3.7 1 2.1-4.5 17.5-5.9 21zm39.3 18.8c-1 .5-1.9.9-2.3.6-.3-.2.4-.9.4-.9s4.9-5.3 6.9-7.8c1.1-1.4 2.5-3 3.8-4.9v.5c.1 6.5-6 10.8-8.8 12.5zm30.4-6.9c-.7-.5-.6-2.2 1.8-7.4.9-2.1 3-5.4 6.8-8.7.5 1.3.7 2.6.7 3.8-.2 8.1-5.9 11-9.3 12.3z" fill="#cf649a"/></svg>