<svg version="1.1" id="Layer_1" xmlns="http://www.w3.org/2000/svg" x="0" y="0" viewBox="0 0 500 500" xml:space="preserve"><style>.st1{fill:#fdc5ce}.st2{fill:#232020}</style><path fill="#fff" d="M0 0h500v500H0z"/><g id="XMLID_3064_"><g id="XMLID_3113_"><g id="XMLID_3132_"><path id="XMLID_3133_" class="st1" d="M304.5 172.7c.1-5.4-.9-10.8-2.9-15.8-2.1-4.9-4.8-9.4-8.2-12.9.4-1.9.3-5.1-2.1-8.1-3.2-4.2-7.8-8.7-13.1-11.6-5.2-3-11-4-15-2.9-1.5-1-3.2-1.7-4.8-2.1-1.6-.3-3.1-.3-4.1 0-1.5.3-3 .7-4.6 1.1-1.1.2-2.2.4-3.2.6h-.5c-2.6 0-5.2-.1-7.8 0-1.3.1-2.5.1-3.9.3-1.6.2-3.1.6-4.5 1h.3c-.7.1-1.3.1-2 .2-3.3.5-6.6 1.3-9.6 2.5-6.7 3.4-14 7.7-17.3 12.6-1.9 3.3-3.8 6.1-5.4 8.8-.1.1-.1.2-.2.3-.4.4-.8.8-1.1 1.2-.4.5-.8 1.1-1 1.7.4-.6.7-1.2 1.1-1.7l.4.3c-.3.7-.7 1.3-.9 2-2.5 3.4-4.4 8.3-6 9.4 1.1 2.1 1.9-1.2 2.8-4.1-.5 1.5-.8 3.2-1.2 4.9-.3 1.7-.6 3.5-.9 5.1 0 .2-.1.4-.1.6-.1-1.5-.5-2.6.6-4-.4-.9-.8-.7-1.4.3-.5 3.3-1.7 9.6-.4 9.9-.2.7-.5 1.3-.8 1.9l1.1 1.6c-.1.2-.2.5-.2.7.2-.2.3-.4.4-.6.4 4.3 1 8.9 3 11.6.4.2.8.4 1.1.5-.2 1.3-.8-.4-1.5-.7.8 2.9 1.8 5 3.1 5.4-.5-1.6-1-3.1-1.3-4.7.4.1.7.1 1 .1 1.2 1.3 2.2 2.3 2.2 2.9.5 2 .8 3.8 1.1 5.6.2 1.4.5 2.8.7 4.1-.1 0-.3-.1-.4-.1-.9-1.9-2.3-4.4-2.6-5.5.1 1.3.2 2.5.5 3.8l1.2.7c.2.5.2.8.1 1l-.1.1c-.1.1-.2.2-.3.2 0 .1.1.1.2.2 0 .1-.1.3-.1.5l.4-.1c.4.4.7.8 1.1 1.2.1 0 .2-.1.2-.2.1 1.9.1 3.8 2.1 6.6h.2c.8 1.6 1.8 3.3 3.2 4.9.2.4 1.7 1 3.2 1.5.1.1.2.2.3.2 1.1.3 1.8.3 2.2.2.5 0 .9 0 1-.1-.2-1.4-1.5-3.5-2.9-5.7.2.1.3.3.4.4l-.2-.3c-.1 0-.2-.1-.3-.1-1.1-1.8-2.2-3.5-2.7-5 .2-1.4.2-2.1.2-3.4.1-2 2.8.2 3.6.5 0-1.9-.7-4-1.6-6.2 1.7 2.2 3.5 4.3 5.6 6.1l-.7.6c2 1.4 1.5 2.8 4 4.2h.1c.2-1.4-.9-2.4-1.8-3.6 5.9 4.7 13.1 7.9 21 8.8l12 1.4c2 .2 3.9.3 5.9.2-2 1-4 1.8-6.2 2.2.3 2.1.5 4.3 2 6.3s4.3 3.7 9.7 3.7c1.6 0 3.2-.3 4.9-.7 2.4.1 5.1 0 7.9-.5.6-.5 1.3-1.1 2.1-1.6.7-.6 1.5-1.2 2.3-1.8 1.7-1.2 3.4-2.5 5.1-3.9l1.8-1.5 1.2-.3c.6-.9 1.7-2 2.7-3.2 1-1 2-2 2.8-2.9 5.8-4.8 10.1-11 12.7-17.6.6-1.7 1.1-3.4 1.6-5 .5-1.7.7-3.4 1-5.1.3-1.7.3-3.4.5-5.2.1-1.5 0-2.3 0-3.9zm-107.3 28.8h.2c0 .2 0 .4.1.6-.2-.2-.3-.4-.3-.6z"/></g><g id="XMLID_3130_"><path id="XMLID_3131_" class="st1" d="M243.9 228.2c-.9 0-2.4-.3-1.9-1l-1.4.6 4.2.6c-.7-.8-2-1.4-1.8-2.4l-1.8-.4c1.6.9 2 1.8 2.7 2.6z"/></g><g id="XMLID_3128_"><path id="XMLID_3129_" class="st1" d="M244.6 226.5c.8-.7-.3-1.2-1.8-1.5-1.6.4 2.3-.1 1 1.1.4.1.7.1.8.4z"/></g><g id="XMLID_3126_"><path id="XMLID_3127_" class="st1" d="M243.9 226.2c-.3 0-.6-.1-.9-.2v.1l.9.1c-.1 0-.1 0 0 0z"/></g><g id="XMLID_3124_"><path id="XMLID_3125_" class="st1" d="M233.9 225.5c0 .2.2.5.7.8 0-.2-.3-.5-.7-.8z"/></g><g id="XMLID_3122_"><path id="XMLID_3123_" class="st1" d="M232.5 222.8c1.1.6 1.7 1.1 1.3 1.7l-.9-.3c-.2.4.5.8 1 1.3-.2-.9 1.7-1.4-1.4-2.7z"/></g><g id="XMLID_3120_"><path id="XMLID_3121_" class="st1" d="M238.1 221.8l-.7.2 4.1 2.1c-.1-1.7-1.9-.7-3.4-2.3z"/></g><g id="XMLID_3118_"><path id="XMLID_3119_" class="st1" d="M191.5 197.4l.2-.4-.4-.4c0 .3.1.5.2.8z"/></g><g id="XMLID_3116_"><path id="XMLID_3117_" class="st1" d="M190 192.2c.1 1.3.2 2.6.5 3.9.3.2.5.4.7.6-.8-2.4.3-2-1.2-4.5z"/></g><g id="XMLID_3114_"><path id="XMLID_3115_" class="st1" d="M191.6 197c1.1 1.2 1.5 2.3 1.9 3.6.4 1.3.9 2.8 2.6 4.5-1.3-3.3-2.9-6.3-4.2-8.8l-.3.7z"/></g></g><g id="XMLID_3092_"><g id="XMLID_3110_"><path id="XMLID_3111_" class="st2" d="M67 334.1v-84.3h20.5v84.3H67z"/></g><g id="XMLID_3107_"><path id="XMLID_3108_" class="st2" d="M108.7 325.6c-6.2-6.2-9.3-14.6-9.3-25s3.1-18.7 9.3-24.9c6.2-6.2 14.2-9.3 24.1-9.3 8.2 0 15.1 2 20.8 6.1 5.7 4 9.4 9.8 11.3 17.3h-22.2c-1.9-4-5.1-6-9.4-6-4.4 0-7.6 1.5-9.7 4.6-2.1 3.1-3.2 7.1-3.2 12.2 0 5 1.1 9.1 3.2 12.2 2.1 3.1 5.2 4.6 9.3 4.6 2.6 0 4.6-.4 6-1.3 1.4-.9 2.7-2.4 3.8-4.7h22.2c-1.8 7.2-5.6 12.9-11.4 17.2-5.8 4.2-12.6 6.4-20.6 6.4-10 0-18-3.2-24.2-9.4z"/></g><g id="XMLID_3103_"><path id="XMLID_3104_" class="st2" d="M180.5 325.5c-6.8-6.3-10.1-14.6-10.1-25 0-10.3 3.4-18.6 10.1-24.8 6.7-6.2 15-9.3 25-9.3 9.9 0 18.2 3.1 24.9 9.3 6.7 6.2 10 14.5 10 24.8s-3.3 18.6-10 25c-6.6 6.3-14.9 9.5-24.8 9.5-10 0-18.3-3.2-25.1-9.5zm34.9-12.4c2.7-2.9 4.1-7 4.1-12.5 0-5.4-1.4-9.6-4.2-12.4-2.8-2.8-6.1-4.3-10-4.3-3.8 0-7.1 1.4-9.9 4.3-2.8 2.8-4.1 7-4.1 12.4s1.4 9.6 4.3 12.5c2.8 2.9 6.2 4.3 10 4.3s7-1.4 9.8-4.3z"/></g><g id="XMLID_3100_"><path id="XMLID_3101_" class="st2" d="M272.9 267.1v9.8c4.2-7 11-10.6 20.3-10.6 7.7 0 13.9 2.6 18.7 7.7 4.8 5.1 7.1 12.1 7.1 20.9V334h-20.4v-36.4c0-4.3-1.1-7.7-3.4-10-2.3-2.4-5.4-3.5-9.4-3.5s-7.1 1.2-9.4 3.5c-2.3 2.4-3.4 5.7-3.4 10V334h-20.5v-67h20.4z"/></g><g id="XMLID_3096_"><path id="XMLID_3097_" class="st2" d="M353.9 259.6c-2.3 2.3-5.2 3.5-8.5 3.5-3.4 0-6.2-1.2-8.5-3.5s-3.5-5.2-3.5-8.6c0-3.4 1.2-6.3 3.5-8.6s5.2-3.5 8.5-3.5c3.4 0 6.2 1.2 8.5 3.5s3.5 5.2 3.5 8.6c0 3.4-1.2 6.3-3.5 8.6zm-18.7 74.5v-67h20.5v67h-20.5z"/></g><g id="XMLID_3093_"><path id="XMLID_3094_" class="st2" d="M376.9 325.6c-6.2-6.2-9.3-14.6-9.3-25s3.1-18.7 9.3-24.9c6.2-6.2 14.2-9.3 24.1-9.3 8.2 0 15.1 2 20.8 6.1 5.7 4 9.4 9.8 11.3 17.3h-22.2c-1.9-4-5.1-6-9.4-6-4.4 0-7.6 1.5-9.7 4.6-2.1 3.1-3.2 7.1-3.2 12.2 0 5 1.1 9.1 3.2 12.2 2.1 3.1 5.2 4.6 9.3 4.6 2.6 0 4.6-.4 6-1.3 1.4-.9 2.7-2.4 3.8-4.7H433c-1.8 7.2-5.6 12.9-11.4 17.2-5.8 4.2-12.6 6.4-20.6 6.4-9.9 0-17.9-3.2-24.1-9.4z"/></g></g><g id="XMLID_3065_"><g id="XMLID_3089_"><path id="XMLID_3090_" class="st2" d="M153.4 363.8v17.1h-4.2v-9.6l-4 9.6h-3.1l-4-9.6v9.6h-4.2v-17.1h4.8l4.9 11.8 4.9-11.8h4.9z"/></g><g id="XMLID_3086_"><path id="XMLID_3087_" class="st2" d="M178.5 363.7v3.2h-6.2v3.7h5.4v3.2h-5.4v4h6.2v3.2h-10.3v-17.1h10.3z"/></g><g id="XMLID_3083_"><path id="XMLID_3084_" class="st2" d="M204.3 363.7h4.2v17.1h-4.2l-6.9-10.8v10.8h-4.2v-17.1h4.2l6.9 10.8v-10.8z"/></g><g id="XMLID_3080_"><path id="XMLID_3081_" class="st2" d="M229 366.8c-.5 0-.9.1-1.3.4-.3.3-.5.7-.5 1.2s.2.9.5 1.3c.3.3.7.6 1.2.7.5.2 1 .3 1.7.5.6.2 1.2.3 1.8.6.6.2 1.1.5 1.6.8.5.3.9.8 1.2 1.4.3.6.5 1.3.5 2.1 0 1.4-.6 2.7-1.8 3.7-1.2 1-2.7 1.5-4.6 1.5-1.9 0-3.5-.5-4.6-1.4-1.2-.9-1.8-2.2-1.8-3.9h4.4c.1 1.4.8 2 2.1 2 .6 0 1.1-.2 1.4-.5.3-.3.5-.7.5-1.2s-.2-.9-.5-1.2c-.3-.3-.7-.6-1.2-.7-.5-.2-1-.3-1.7-.5-.6-.2-1.2-.3-1.8-.6-.6-.2-1.1-.5-1.6-.8-.5-.3-.9-.8-1.2-1.4-.3-.6-.5-1.3-.5-2.1 0-1.6.6-2.9 1.8-3.8 1.2-1 2.7-1.4 4.5-1.4 1.8 0 3.3.4 4.5 1.3 1.1.8 1.7 2.2 1.8 3.9h-4.5c-.1-.6-.3-1.1-.6-1.4-.4-.3-.8-.5-1.3-.5z"/></g><g id="XMLID_3077_"><path id="XMLID_3078_" class="st2" d="M269 363.8h4.5l-4.8 17.1h-4.8l-3-10.8-3 10.8h-4.8l-4.8-17.1h4.4l3 12.3 3-12.3h4.7l2.9 12.1 2.7-12.1z"/></g><g id="XMLID_3074_"><path id="XMLID_3075_" class="st2" d="M296.9 363.7v3.2h-6.2v3.7h5.4v3.2h-5.4v4h6.2v3.2h-10.3v-17.1h10.3z"/></g><g id="XMLID_3070_"><path id="XMLID_3071_" class="st2" d="M322.4 380.8l-.9-2.9h-6.1l-.9 2.9H310l5.9-17.1h5.1l5.9 17.1h-4.5zm-6-6h4l-2-6.1-2 6.1z"/></g><g id="XMLID_3066_"><path id="XMLID_3067_" class="st2" d="M344.2 374.2v6.6H340v-17.1h6.7c2 0 3.5.5 4.6 1.5 1.1 1 1.7 2.3 1.7 3.7 0 1-.3 2-.9 2.9-.6.9-1.6 1.6-2.9 2l4.2 6.9h-4.9l-3.8-6.6h-.5zm0-7.3v4.1h2.6c.6 0 1.1-.2 1.5-.6.4-.4.5-.9.5-1.5s-.2-1.1-.6-1.5c-.4-.4-.9-.6-1.5-.6h-2.5z"/></g></g></g></svg>