<svg version="1.1" id="Capa_1" xmlns="http://www.w3.org/2000/svg" x="0" y="0" viewBox="0 0 512 512" xml:space="preserve"><style>.st0{fill:#5596e6}</style><path class="st0" d="M483.7 282c18.5-29.3 28.3-63.1 28.3-98C512 82.5 429.5 0 328 0c-34 0-67.2 9.3-96 27-4.7 2.9-6.2 9-3.3 13.8 2.9 4.7 9 6.2 13.8 3.3C268.1 28.3 297.7 20 328 20c90.4 0 164 73.6 164 164 0 32.8-9.6 64.4-27.9 91.5-2.4 3.6-2.2 8.2.3 11.6l11 40.9-44-11.8c-2.9-.8-6-.2-8.4 1.5-27.8 19.8-60.7 30.3-95 30.3-19.5 0-38.6-3.4-56.8-10.1-12.8-47.1-50-84.3-97.1-97.1-6.7-18.2-10.1-37.3-10.1-56.8 0-30.6 8.5-60.5 24.6-86.4 2.9-4.7 1.5-10.9-3.2-13.8-4.7-2.9-10.9-1.5-13.8 3.2-18 29.1-27.6 62.6-27.6 96.9 0 18 2.6 35.6 7.7 52.7-4.5-.4-9.1-.7-13.7-.7C61.9 236 0 297.9 0 374c0 27.3 7.9 53.5 22.9 76.1L12.2 490c-.9 3.5.1 7.1 2.6 9.7 2.5 2.5 6.2 3.5 9.7 2.6l40.9-11C87.2 504.9 112.2 512 138 512c26.3 0 51.9-7.4 73.9-21.5 4.7-3 6-9.1 3.1-13.8-3-4.7-9.1-6-13.8-3.1-18.9 12-40.7 18.3-63.2 18.3-23.4 0-46-6.8-65.4-19.8-2.4-1.6-5.4-2.1-8.1-1.3L36 478.5l7.4-27.7c.8-2.9.2-6-1.5-8.4C27.6 422.4 20 398.7 20 374c0-65.1 52.9-118 118-118s118 52.9 118 118c0 13.9-2.4 27.5-7.1 40.4-1.9 5.2.8 10.9 6 12.8 5.2 1.9 10.9-.8 12.8-6 5.5-15.1 8.3-31 8.3-47.3 0-4.6-.2-9.2-.7-13.7 17 5.1 34.7 7.7 52.7 7.7 36.9 0 72.3-10.8 102.6-31.3l56.2 15.1c3.5.9 7.1-.1 9.7-2.6 2.5-2.5 3.5-6.2 2.6-9.7L483.7 282z"/><path class="st0" d="M379.5 205.3H277.7c-5.5 0-10 4.5-10 10 0 33.6 27.3 60.9 60.9 60.9s60.9-27.3 60.9-60.9c0-5.5-4.4-10-10-10zm-50.9 50.9c-19.1 0-35.2-13.2-39.7-30.9h79.4c-4.5 17.7-20.6 30.9-39.7 30.9zm77.9-106.4c-2.9-4.7-9.1-6.2-13.8-3.3l-1.3.8c-4.7 2.9-6.2 9.1-3.3 13.8 1.9 3.1 5.2 4.7 8.5 4.7 1.8 0 3.6-.5 5.2-1.5l1.3-.8c4.8-2.8 6.3-9 3.4-13.7zm-137.4 0c-2.9-4.7-9.1-6.2-13.8-3.3l-1.3.8c-4.7 2.9-6.2 9.1-3.3 13.8 1.9 3.1 5.2 4.7 8.5 4.7 1.8 0 3.6-.5 5.2-1.5l1.3-.8c4.8-2.8 6.3-9 3.4-13.7zm-179 217.1c-1.9-1.9-4.4-2.9-7.1-2.9s-5.2 1.1-7.1 2.9c-1.9 1.9-2.9 4.4-2.9 7.1s1.1 5.2 2.9 7.1 4.4 2.9 7.1 2.9 5.2-1.1 7.1-2.9 2.9-4.4 2.9-7.1-1.1-5.2-2.9-7.1zm55 0c-1.9-1.9-4.4-2.9-7.1-2.9s-5.2 1.1-7.1 2.9c-1.9 1.9-2.9 4.4-2.9 7.1s1.1 5.2 2.9 7.1 4.4 2.9 7.1 2.9 5.2-1.1 7.1-2.9 2.9-4.4 2.9-7.1c0-2.6-1.1-5.2-2.9-7.1zm55 0c-1.9-1.9-4.4-2.9-7.1-2.9s-5.2 1.1-7.1 2.9c-1.9 1.9-2.9 4.4-2.9 7.1s1.1 5.2 2.9 7.1 4.4 2.9 7.1 2.9 5.2-1.1 7.1-2.9 2.9-4.4 2.9-7.1-1.1-5.2-2.9-7.1zm44.7 80.2c-1.9-1.9-4.4-2.9-7.1-2.9-2.6 0-5.2 1.1-7.1 2.9s-2.9 4.4-2.9 7.1 1.1 5.2 2.9 7.1 4.4 2.9 7.1 2.9c2.6 0 5.2-1.1 7.1-2.9s2.9-4.4 2.9-7.1-1-5.2-2.9-7.1zM212.4 53.6c-1.9-1.9-4.4-2.9-7.1-2.9-2.6 0-5.2 1.1-7.1 2.9-1.9 1.9-2.9 4.4-2.9 7.1 0 2.6 1.1 5.2 2.9 7.1 1.9 1.9 4.4 2.9 7.1 2.9 2.6 0 5.2-1.1 7.1-2.9s2.9-4.4 2.9-7.1c0-2.7-1.1-5.3-2.9-7.1z"/></svg>