<svg xmlns="http://www.w3.org/2000/svg" viewBox="0 0 456 330"><path d="M32.2 307c-6.8 0-12.3-5.5-12.3-12.3V39.3c0-6.8 5.5-12.3 12.3-12.3h391.6c6.8 0 12.3 5.5 12.3 12.3v255.4c0 6.8-5.5 12.3-12.3 12.3H32.2z" fill="#fff"/><path d="M423.8 28c6.2 0 11.3 5.1 11.3 11.3v255.4c0 6.2-5.1 11.3-11.3 11.3H32.2c-6.2 0-11.3-5.1-11.3-11.3V39.3C20.9 33.1 26 28 32.2 28h391.6" fill="none" stroke="#3d70b2" stroke-width="4" stroke-miterlimit="10"/><g stroke="#3d70b2" stroke-width="4" stroke-linecap="round" stroke-miterlimit="10"><circle cx="91.5" cy="93.3" r="25" fill="#fff"/><path d="M133.5 81.3h131M134 93.9h90m-90 12.8h104M66.5 170.3h131M67 182.9h90m-90 12.8h104m87.5-25.4h131M259 182.9h90m-90 12.8h104M66.5 236.3h131M67 248.9h90m-90 12.8h104m87.5-25.4h131M259 248.9h90m-90 12.8h104" fill="none"/></g></svg>