<svg version="1.1" id="Layer_1" xmlns="http://www.w3.org/2000/svg" x="0" y="0" viewBox="0 0 456 330" xml:space="preserve"><style>.st1,.st2{fill:none;stroke:#3d70b2;stroke-width:4;stroke-linecap:round;stroke-miterlimit:10}.st2{fill:#fff}</style><path d="M32.2 307c-6.8 0-12.3-5.5-12.3-12.3V39.3c0-6.8 5.5-12.3 12.3-12.3h391.6c6.8 0 12.3 5.5 12.3 12.3v255.4c0 6.8-5.5 12.3-12.3 12.3H32.2z" fill="#fff"/><path class="st1" d="M423.8 28c6.2 0 11.3 5.1 11.3 11.3v255.4c0 6.2-5.1 11.3-11.3 11.3H32.2c-6.2 0-11.3-5.1-11.3-11.3V39.3C20.9 33.1 26 28 32.2 28h391.6"/><circle class="st2" cx="416.1" cy="46" r="9"/><circle class="st2" cx="43.1" cy="46" r="9"/><circle class="st2" cx="109.6" cy="108.5" r="25"/><path class="st1" d="M151.6 96.5h131m-130.5 12.6h90m-90 12.8h104M84.6 185.5h131M85.1 198.1h90m-90 12.8h104m87.5-25.4h131m-130.5 12.6h90m-90 12.8h104M84.6 251.5h131M85.1 264.1h90m-90 12.8h104m87.5-25.4h131m-130.5 12.6h90m-90 12.8h104M21.5 64.7h412.3M62.1 46h50"/></svg>