<svg xmlns="http://www.w3.org/2000/svg" viewBox="0 0 512 512"><path d="M508.2 354.3l-212-107.4v-12.7c0-10.5-7.1-19.6-17.2-22.2v-21.4c0-.9.6-1.7 1.5-2l2.1-.7c25.3-8.3 39-35.5 30.7-60.7-6.5-19.8-24.9-33.1-45.7-33.1h-29.8c-20.4 0-38.5 12.8-45.3 32l-8.1 22.6c-1.3 3.6.6 7.6 4.2 8.9l30.1 10.7c3.6 1.3 7.6-.6 8.9-4.2l8.1-22.6c.3-.8 1.1-1.4 2-1.4h29.8c1.2 0 2.1.9 2.1 2.1 0 .9-.6 1.7-1.5 2l-2.1.7c-19.8 6.4-33.2 24.9-33.2 45.7V212c-10.1 2.6-17.2 11.8-17.3 22.2v12.7L3.8 354.3c-2.4 1.2-3.8 3.6-3.8 6.2v50.4c0 3.9 3.2 7 7 7h498c3.9 0 7-3.1 7-7v-50.4c0-2.6-1.5-5-3.8-6.2zM247 190.6c0-14.8 9.5-27.9 23.5-32.4l2.1-.7c8.5-2.8 13.1-11.9 10.3-20.3-2.2-6.6-8.4-11.1-15.3-11.1h-29.8c-6.8 0-12.9 4.3-15.2 10.7l-5.7 16-17-6 5.7-16c4.9-13.6 17.7-22.7 32.1-22.7h29.8c18.8 0 34.1 15.3 34.1 34.1 0 14.8-9.5 27.8-23.5 32.4l-2.1.7c-6.6 2.2-11.1 8.3-11.1 15.3v20.6h-18l.1-20.6zm-64.3 213.3v-26h146.7v26H182.7zm153.6-40H104.1L256 290.7l151.9 73.2h-71.6zm161.7 40H343.3v-26h95.3c3.9 0 7-3.1 7-7 0-2.7-1.5-5.1-4-6.3l-182.6-88c-1.9-.9-4.2-.9-6.1 0l-182.6 88c-3.5 1.7-4.9 5.9-3.3 9.3 1.2 2.4 3.6 4 6.3 4h95.3v26H14v-39.1l211.9-107.4c2.4-1.2 3.8-3.6 3.8-6.2v-17c0-5 4-9 9-9h34.5c5 0 9 4 9 9v17c0 2.6 1.5 5 3.8 6.2l212 107.4v39.1z" fill="#fff"/></svg>