<svg height="512" viewBox="0 0 128 128" width="512" xmlns="http://www.w3.org/2000/svg" data-name="Layer 2"><path d="M127.041 88.573L74.062 61.722v-3.169a5.755 5.755 0 00-4.312-5.561v-5.344a.526.526 0 01.363-.5l.517-.169a12.031 12.031 0 00-3.744-23.464h-7.455a12.053 12.053 0 00-11.334 8l-2.014 5.659a1.75 1.75 0 001.062 2.226l7.537 2.682a1.747 1.747 0 002.235-1.061l2.015-5.66a.535.535 0 01.5-.351h7.455a.53.53 0 01.169 1.033l-.516.169a12 12 0 00-8.29 11.436v5.344a5.756 5.756 0 00-4.313 5.561v3.169L.959 88.573A1.752 1.752 0 000 90.134v12.6a1.753 1.753 0 001.8 1.747h124.45a1.751 1.751 0 001.75-1.746v-12.6a1.752 1.752 0 00-.959-1.562zM61.75 47.648a8.512 8.512 0 015.876-8.107l.517-.169a4.03 4.03 0 00-1.257-7.86h-7.455a4.036 4.036 0 00-3.8 2.678l-1.424 4.01-4.24-1.51 1.433-4.008a8.544 8.544 0 018.036-5.67h7.455a8.53 8.53 0 012.655 16.637l-.517.169a4.022 4.022 0 00-2.774 3.83V52.8h-4.5zm-16.083 53.337v-6.5h36.666v6.5zm38.416-10h-58.07L64 72.672l37.987 18.311zm40.417 10H85.833v-6.5h23.814a1.75 1.75 0 00.76-3.326l-45.647-22a1.747 1.747 0 00-1.52 0l-45.647 22a1.75 1.75 0 00.76 3.326h23.814v6.5H3.5v-9.776l52.979-26.851a1.75 1.75 0 00.958-1.561v-4.244a2.253 2.253 0 012.25-2.25h8.625a2.253 2.253 0 012.25 2.25V62.8a1.753 1.753 0 00.959 1.561L124.5 91.209z"/></svg>