<svg version="1.1" id="Layer_1" xmlns="http://www.w3.org/2000/svg" x="0" y="0" viewBox="0 0 512 512" xml:space="preserve"><style>.st0{fill:#fff}</style><path class="st0" d="M470.9 274.8h-31.3V23c0-12.7-10.3-23-23-23h-35.1c-12.1 0-22.2 9.5-23 21.6l-4.3 69.3c-3.5-2.2-7-4.3-10.7-6.3L317.2 4.8c-.9-2.9-3.6-4.8-6.6-4.8H201.4c-3 0-5.7 1.9-6.6 4.8l-26.4 79.8c-3.6 2-7.2 4.1-10.7 6.3l-4.3-69.3C152.6 9.5 142.6 0 130.5 0H95.3c-12.7 0-23 10.3-23 23v251.8H41.1c-17.1 0-31 13.9-31 31V430c0 17.1 13.9 31 31 31h31.3v16c0 19.3 15.7 35 35 35h297.3c19.3 0 35-15.7 35-35v-16H471c17.1 0 31-13.9 31-31V305.8c-.1-17.1-14-31-31.1-31zm0 14c9.4 0 17 7.6 17 17v19.5h-48.3v-36.5h31.3zm17 64.9h-48.3v-14.3h48.3v14.3zM372.6 22.4c.3-4.7 4.2-8.4 9-8.4h35.1c5 0 9 4 9 9v152.7c-12.4-29.8-32.4-55.8-58-75.5l4.9-77.8zm-87.5 42.3c-20.5-3.3-41.4-3.1-61.8.6l6.4-19.3h52.8l6.4 19.3c-1.4-.3-2.6-.4-3.8-.6zm-117.6 36.6c54.8-33.6 124-33.3 178.5.9l-16.3 110.2c-1 6.4-6.4 11.1-12.9 11.1H195.3c-6.4 0-11.9-4.7-12.9-11.1l-16.3-110.2c.4-.3.9-.6 1.4-.9zm18.4-25.1L206.5 14h99l20.6 62.2c-7-2.9-14.1-5.3-21.4-7.3l-10.6-32.1c-.9-2.9-3.6-4.8-6.6-4.8h-62.9c-3 0-5.7 1.9-6.6 4.8l-10.6 32.1c-7.4 2-14.5 4.4-21.5 7.3zM86.3 23c0-5 4-9 9-9h35.1c4.7 0 8.7 3.7 9 8.4l4.9 77.8c-25.6 19.7-45.5 45.7-58 75.5V23zM24.1 339.3h48.3v14.3H24.1v-14.3zm17-50.5h31.3v36.5H24.1v-19.5c0-9.4 7.6-17 17-17zm0 158.2c-9.4 0-17-7.6-17-17v-62.3h48.3V447H41.1zm384.6 30c0 11.6-9.4 21-21 21H107.3c-11.6 0-21-9.4-21-21V246c.3-52.9 25-102.7 66.9-134.9l15.3 103.3c2 13.2 13.3 23 26.7 23h121.5c13.4-.1 24.7-9.8 26.7-23l15.3-103.3c41.9 32.2 66.6 82 66.9 134.9v231h.1zm45.2-30h-31.3v-79.3h48.3V430c0 9.4-7.6 17-17 17z"/><path class="st0" d="M365.9 280.2H146.1c-12.7 0-23 10.3-23 23V438c0 12.7 10.3 23 23 23h219.8c12.7 0 23-10.3 23-23V303.2c0-12.7-10.3-23-23-23zm-228.8 23c0-5 4-9 9-9h219.8c5 0 9 4 9 9v50.5H137.1v-50.5zM312 367.7h18.8V405H312v-37.3zm53.9 79.3H146.1c-5 0-9-4-9-9v-70.3H298V412c0 3.9 3.1 7 7 7h32.8c3.9 0 7-3.1 7-7v-44.3h30.1V438c0 5-4 9-9 9zM242.7 189h26.7c21.4 0 38.7-17.3 38.7-38.7s-17.3-38.7-38.7-38.7h-26.7c-21.4 0-38.7 17.3-38.7 38.7s17.3 38.7 38.7 38.7zm0-63.3h26.7c13.6 0 24.7 11 24.7 24.7 0 13.6-11 24.7-24.7 24.7h-26.7c-13.6 0-24.7-11-24.7-24.7s11-24.7 24.7-24.7z"/></svg>