<svg xmlns="http://www.w3.org/2000/svg" data-name="Layer 2" viewBox="0 0 128 128" width="512" height="512"><path d="M107.125 64a43.051 43.051 0 00-15.649-33.212l-6.77-29.431A1.752 1.752 0 0083 0H45a1.752 1.752 0 00-1.706 1.357l-6.77 29.431a43.068 43.068 0 000 66.424l6.77 29.431A1.752 1.752 0 0045 128h38a1.752 1.752 0 001.706-1.357l6.77-29.431A43.051 43.051 0 00107.125 64zM40.842 27.63L46.393 3.5h35.214l5.551 24.13a43.116 43.116 0 00-46.316 0zm46.316 72.74l-5.551 24.13H46.393l-5.551-24.13a43.074 43.074 0 0046.316 0zm-17.108 2.793a39.276 39.276 0 01-6.05.462 40.032 40.032 0 01-37.286-26.206A39.576 39.576 0 0124.375 64a40.031 40.031 0 0125.336-36.96A39.6 39.6 0 0164 24.375a40.032 40.032 0 0137.286 26.206 39.634 39.634 0 01-31.236 52.582z"/><path d="M87.55 40.732a1.866 1.866 0 00-.127-.155 1.843 1.843 0 00-.156-.127 33.057 33.057 0 00-46.534 0 1.843 1.843 0 00-.156.127 1.866 1.866 0 00-.127.155 33.059 33.059 0 000 46.536 1.866 1.866 0 00.127.155 1.7 1.7 0 00.156.127 33.057 33.057 0 0046.534 0 1.7 1.7 0 00.156-.127 1.866 1.866 0 00.127-.155 33.059 33.059 0 000-46.536zm2.825 25.018h3.194a29.494 29.494 0 01-7.434 17.91l-2.248-2.247a1.75 1.75 0 00-2.474 2.475l2.247 2.247a29.5 29.5 0 01-17.91 7.434v-3.194a1.75 1.75 0 00-3.5 0v3.194a29.5 29.5 0 01-17.91-7.434l2.247-2.247a1.75 1.75 0 10-2.474-2.475l-2.248 2.247a29.494 29.494 0 01-7.434-17.91h3.194a1.75 1.75 0 000-3.5h-3.194a29.494 29.494 0 017.434-17.91l2.248 2.247a1.75 1.75 0 102.474-2.475l-2.247-2.247a29.5 29.5 0 0117.91-7.434v3.194a1.75 1.75 0 003.5 0v-3.194a29.5 29.5 0 0117.91 7.434l-2.247 2.247a1.75 1.75 0 102.474 2.475l2.248-2.247a29.494 29.494 0 017.434 17.91h-3.194a1.75 1.75 0 000 3.5z"/><path d="M70.477 68a7.6 7.6 0 00-4.727-11.414V45.75a1.75 1.75 0 00-3.5 0v10.836A7.619 7.619 0 1068 70.478l4.447 4.447a1.75 1.75 0 002.475-2.475zm-10.6-4a4.125 4.125 0 117.042 2.913A4.122 4.122 0 0159.875 64zM56.5 13.75h15a1.75 1.75 0 000-3.5h-15a1.75 1.75 0 000 3.5zm15 100.5h-15a1.75 1.75 0 000 3.5h15a1.75 1.75 0 000-3.5z"/></svg>