<svg version="1.1" id="Layer_1" xmlns="http://www.w3.org/2000/svg" x="0" y="0" viewBox="0 0 512 512" xml:space="preserve"><style>.st0{fill:#fff}</style><path class="st0" d="M428.5 256c0-51.4-22.9-100.1-62.6-132.8L338.8 5.4c-.7-3.1-3.5-5.4-6.8-5.4H180c-3.3 0-6.1 2.3-6.8 5.4l-27.1 117.7c-73.4 60.6-83.7 169.2-23.2 242.5 7 8.4 14.7 16.2 23.2 23.2l27.1 117.7c.7 3.2 3.6 5.4 6.8 5.4h152c3.3 0 6.1-2.3 6.8-5.4l27.1-117.7c39.7-32.7 62.6-81.4 62.6-132.8zM163.4 110.5L185.6 14h140.9l22.2 96.5c-56.6-36-128.8-36-185.3 0zm185.2 291L326.4 498H185.6l-22.2-96.5c56.5 36 128.7 36 185.2 0zm-68.4 11.2c-8 1.2-16.1 1.9-24.2 1.8-66.7-.5-126.1-42.2-149.1-104.8-6.2-17.2-9.4-35.4-9.4-53.7.5-65.3 40.6-123.9 101.3-147.8 18.2-7 37.6-10.7 57.2-10.7 66.7.5 126.1 42.2 149.1 104.8 29.6 82.4-13.1 173.2-95.5 202.8-9.5 3.5-19.4 6-29.4 7.6z"/><path class="st0" d="M350.2 162.9c-.2-.2-.3-.4-.5-.6-.2-.2-.4-.4-.6-.5-51.5-51.1-134.6-51.1-186.1 0-.2.2-.4.3-.6.5-.2.2-.3.4-.5.6-51.1 51.5-51.1 134.6 0 186.1.2.2.3.4.5.6.2.2.4.4.6.5 51.5 51.1 134.6 51.1 186.1 0 .2-.2.4-.3.6-.5.2-.2.3-.4.5-.6 51.1-51.5 51.1-134.5 0-186.1zM361.5 263h12.8c-1.6 26.5-12 51.8-29.7 71.6l-9-9c-2.8-2.7-7.2-2.6-9.9.2-2.6 2.7-2.6 7 0 9.7l9 9c-19.8 17.7-45.1 28.2-71.6 29.7v-12.8c0-3.9-3.1-7-7-7s-7 3.1-7 7v12.8c-26.5-1.6-51.8-12-71.6-29.7l9-9c2.8-2.7 2.9-7.1.2-9.9-2.7-2.8-7.1-2.9-9.9-.2l-.2.2-9 9c-17.7-19.8-28.2-45.1-29.7-71.6h12.8c3.9 0 7-3.1 7-7s-3.1-7-7-7h-12.8c1.6-26.5 12-51.8 29.7-71.6l9 9c2.7 2.8 7.1 2.9 9.9.2 2.8-2.7 2.9-7.1.2-9.9l-.2-.2-9-9c19.8-17.7 45.1-28.2 71.6-29.7v12.8c0 3.9 3.1 7 7 7s7-3.1 7-7v-12.8c26.5 1.6 51.8 12 71.6 29.7l-9 9c-2.8 2.7-2.9 7.1-.2 9.9 2.7 2.8 7.1 2.9 9.9.2l.2-.2 9-9c17.7 19.8 28.2 45.1 29.7 71.6h-12.8c-3.9 0-7 3.1-7 7s3.1 7 7 7z"/><path class="st0" d="M281.9 272c8.9-14.3 4.5-33-9.8-41.9-2.8-1.8-5.9-3-9.1-3.8V183c0-3.9-3.1-7-7-7s-7 3.1-7 7v43.3c-16.4 3.8-26.6 20.2-22.8 36.6s20.2 26.6 36.6 22.8c3.2-.8 6.3-2 9.2-3.8l17.8 17.8c2.7 2.7 7.2 2.7 9.9 0s2.7-7.2 0-9.9L281.9 272zm-42.4-16c0-9.1 7.4-16.5 16.5-16.5s16.5 7.4 16.5 16.5c0 4.4-1.7 8.6-4.8 11.7-6.4 6.5-16.9 6.5-23.3.1-3.2-3.2-4.9-7.4-4.9-11.8zM226 55h60c3.9 0 7-3.1 7-7s-3.1-7-7-7h-60c-3.9 0-7 3.1-7 7s3.1 7 7 7zm60 402h-60c-3.9 0-7 3.1-7 7s3.1 7 7 7h60c3.9 0 7-3.1 7-7s-3.1-7-7-7z"/></svg>