<svg xmlns="http://www.w3.org/2000/svg" viewBox="0 0 512 512"><path d="M507.8 311.4L401 265.2v-35.7c-.1-55.9-45.4-101.3-101.3-101.3h-87.3c-55.9.1-101.3 45.4-101.3 101.3v35.7L4.2 311.4c-3.5 1.5-5.2 5.7-3.6 9.2.5 1.2 1.4 2.3 2.5 3 57.8 39.3 126.1 60.3 196 60.2h113.8c69.9.1 138.2-20.9 196-60.2 3.2-2.2 4-6.5 1.9-9.7-.8-1.1-1.8-2-3-2.5zM342.9 270c-5.9 12.2-20.5 17.4-32.8 11.6L277 265.5v-3.6h24.2c3.9 0 7-3.1 7-7s-3.1-7-7-7H277v-3.6l33.1-16.1c7.6-3.7 16.5-3.2 23.6 1.3 11.2 7 11.5 18.6 11.5 30.3 0 3.4-.8 6.9-2.3 10.2zm-79.9.6c0 3.9-3.1 7-7 7s-7-3.1-7-7v-31.5c0-3.9 3.1-7 7-7s7 3.1 7 7v31.5zm-63.9 12.1c-13 4.2-26.9-2.9-31.1-15.8-.8-2.4-1.2-4.8-1.2-7.3v-9.5c.2-13.6 11.4-24.5 25.1-24.3 3.5.1 6.9.8 10 2.3l33.1 16.1v3.6h-24.3c-3.9 0-7 3.1-7 7s3.1 7 7 7H235v3.6l-33.1 16.1c-.9.5-1.9.9-2.8 1.2zM125 246.8h27.9c-.5 5.3-.5 10.7 0 16H125v-16zm234.3 12.8c0-4.2.2-8.6-.1-12.8H387v16h-27.9c.1-1 .2-2.1.2-3.2zm-147-117.4h87.3c48.2.1 87.3 39.1 87.3 87.3v3.3h-31.8c-9.4-18.8-32.2-26.6-51.1-17.3l-29.2 14.2c-5.2-10.4-17.8-14.6-28.1-9.5-4.1 2-7.4 5.4-9.5 9.5L208 215.5c-18.9-9.2-41.7-1.5-51.1 17.3H125v-3.3c.1-48.2 39.1-87.3 87.3-87.3zm100.6 227.6H199.1c-62.7.1-124.2-17.5-177.4-50.7l97.7-42.3h37.4c9.6 18.6 32.2 26.3 51.1 17.3l29.2-14.2c5.2 10.4 17.8 14.6 28.1 9.5 4.1-2 7.4-5.4 9.5-9.5l29.2 14.2c18.9 9 41.6 1.3 51.1-17.3h37.4l97.7 42.3c-53 33.2-114.5 50.8-177.2 50.7z" fill="#fff"/></svg>