<svg height="512" viewBox="0 0 128 128" width="512" xmlns="http://www.w3.org/2000/svg" data-name="Layer 2"><path d="M126.945 77.852L100.25 66.308v-8.933a25.362 25.362 0 00-25.333-25.333H53.083A25.362 25.362 0 0027.75 57.375v8.933L1.055 77.852a1.75 1.75 0 00-.287 3.054A86.992 86.992 0 0049.78 95.958h28.44a86.992 86.992 0 0049.012-15.052 1.75 1.75 0 00-.287-3.054zM85.729 67.5a6.181 6.181 0 01-8.192 2.9l-8.287-4.037v-.905h6.062a1.75 1.75 0 000-3.5H69.25v-.905l8.287-4.032a6.079 6.079 0 015.912.313c2.806 1.756 2.868 4.638 2.868 7.57a6.247 6.247 0 01-.588 2.596zm-19.979.143a1.75 1.75 0 11-3.5 0v-7.872a1.75 1.75 0 013.5 0zM49.772 70.68a6.177 6.177 0 01-8.089-5.78v-2.387a6.17 6.17 0 018.78-5.492l8.287 4.032v.905h-6.063a1.75 1.75 0 000 3.5h6.063v.905L50.463 70.4a5.943 5.943 0 01-.691.28zM31.25 61.708h6.968a23.435 23.435 0 000 4H31.25zm58.567 3.2c0-1.06.057-2.139-.035-3.2h6.968v4h-6.968c.024-.268.035-.536.035-.808zM53.083 35.542h21.834A21.857 21.857 0 0196.75 57.375v.833h-7.961a9.585 9.585 0 00-12.783-4.334L68.7 57.429a5.249 5.249 0 00-9.4 0l-7.308-3.555a9.585 9.585 0 00-12.783 4.334H31.25v-.833a21.857 21.857 0 0121.833-21.833zM78.22 92.458H49.78A83.486 83.486 0 015.437 79.771l24.425-10.563h9.346a9.706 9.706 0 0012.786 4.335l7.306-3.556a5.248 5.248 0 009.4 0l7.308 3.556a9.707 9.707 0 0012.786-4.335h9.346l24.424 10.563A83.48 83.48 0 0178.22 92.458z"/></svg>