<svg version="1.1" id="Layer_1" xmlns="http://www.w3.org/2000/svg" x="0" y="0" viewBox="0 0 512 512" xml:space="preserve"><style>.st0{fill:#fff}</style><path class="st0" d="M504.2 345.2L448.5 85.6c-.5-2.1-1.9-3.9-3.9-4.9l-84.5-39.5L321 2.1C319.6.8 317.8 0 315.9 0H196.1c-1.9 0-3.7.7-5.1 2.1l-39.2 39.1-84.5 39.5c-1.9 1-3.3 2.8-3.9 4.9L7.8 345.2c-.6 3 .8 6.1 3.5 7.6l92 50.3V465c0 2.9 1.8 5.5 4.5 6.5l105.6 40c3.4 1.3 7.1-.2 8.7-3.4l33.8-67.5 33.8 67.5c1.6 3.2 5.4 4.7 8.7 3.4l105.6-40c2.7-1 4.5-3.6 4.5-6.5v-61.8l92-50.3c2.9-1.6 4.3-4.7 3.7-7.7zm-109.5 30.3c-10.3.2-32.4-.1-50.7-.4v-10.8h50.7v11.2zM348.2 49L320 142c-.6 1.9-.3 3.9.7 5.6l14.3 23.9-65.7 83.2 46.9-215.6 3.9-18.1 13.1 13.1 15 14.9zM256 249.9L211.3 44.6h89.4L256 249.9zM192 142l-28.2-93 14.9-14.9L191.8 21l3.9 18.1 46.9 215.6-65.6-83.2 14.3-23.9c1-1.7 1.3-3.7.7-5.6zM303.7 30.6h-95.5L204.6 14h102.7l-3.6 16.6zM117.3 364.3H168v10.8c-18.2.3-40.4.6-50.7.4v-11.2zM22.6 343l48-224.2 32.7 138v130.4L22.6 343zm189.9 153.2l-95.2-36.1v-70.6c2.9.1 6.5.1 11.3.1 10 0 24.7-.2 46.5-.7 3.8-.1 6.9-3.2 6.9-7v-24.7c0-3.9-3.1-7-7-7h-57.7V256c0-.5-.1-1.1-.2-1.6L78.4 91l73.1-34.2 26.2 86.3-15.2 25.3c-1.5 2.5-1.3 5.7.5 7.9l86 108.8v138.1l-36.5 73zm182.2-36l-95.2 36.1-36.5-73V285.2l86-108.8c1.8-2.3 2-5.5.5-7.9l-15.2-25.3 26.2-86.3L433.6 91l-38.7 163.4c-.1.5-.2 1.1-.2 1.6v94.3H337c-3.9 0-7 3.1-7 7V382c0 3.8 3 6.9 6.9 7 21.8.4 36.5.7 46.5.7 4.7 0 8.4-.1 11.3-.1v70.6zm14-73V256.8l32.7-138 48 224.2-80.7 44.2z"/><path class="st0" d="M297.9 312.3c-12 0-21.7 9.7-21.6 21.7 0 12 9.7 21.7 21.7 21.6 12 0 21.6-9.7 21.6-21.7 0-11.9-9.7-21.6-21.7-21.6zm0 29.4c-4.2 0-7.7-3.5-7.6-7.7 0-4.2 3.5-7.7 7.7-7.6 4.2 0 7.6 3.4 7.6 7.7 0 4.1-3.4 7.6-7.7 7.6z"/></svg>