<svg height="512" viewBox="0 0 128 128" width="512" xmlns="http://www.w3.org/2000/svg" data-name="Layer 2"><path d="M126.25 37.25a15.658 15.658 0 00-14.083 8.905l-.523 1.1H88.431A11.364 11.364 0 0077.15 37.25h-5.344a1.748 1.748 0 00-1.151.432l-5.67 4.951a72.44 72.44 0 01-6.5 5.523 69.971 69.971 0 01-14.821 8.886 70.3 70.3 0 01-13.773 4.487l-4.634.992A36.757 36.757 0 007.94 71.529L.559 78.385A1.8 1.8 0 000 79.667V83a7.759 7.759 0 007.75 7.75h112.5A7.759 7.759 0 00128 83V39a1.75 1.75 0 00-1.75-1.75zM68.353 50L49.8 61.463l-2.57-2.206a83.44 83.44 0 0018.611-12.726zM10.322 74.094a33.264 33.264 0 0115.669-8.151l4.634-.992a73.743 73.743 0 0013.075-4.11l4.78 4.111a1.75 1.75 0 002.06.162l21.25-13.125a1.748 1.748 0 00.5-2.515l-3.8-5.254 3.974-3.47h4.686A7.857 7.857 0 0185 48.936a1.75 1.75 0 001.749 1.822h26a1.75 1.75 0 001.581-1l1-2.1a12.155 12.155 0 019.171-6.776v37.035H110.48l7.768-9.832a1.75 1.75 0 00-1.373-2.835h-40.25a1.749 1.749 0 00-1.373.665l-9.482 12H6.206zm95.7 3.823H70.23l7.243-9.167h35.789zM124.5 83a4.255 4.255 0 01-4.25 4.25H7.75A4.255 4.255 0 013.5 83v-1.583h121z"/></svg>