<svg xmlns="http://www.w3.org/2000/svg" viewBox="0 0 512 512"><path d="M505 149c-24.1.1-46 13.9-56.3 35.6l-2.1 4.4h-92.9c-2.8-22.8-22.1-40-45.1-40h-21.4c-1.7 0-3.3.6-4.6 1.7l-22.7 19.8c-8.2 7.9-16.9 15.2-26 22.1-18.2 14.3-38.1 26.2-59.3 35.5-17.7 7.9-36.2 13.9-55.1 17.9l-18.5 4c-25.9 5.5-49.8 18-69.3 36L2.2 313.5c-1.4 1.3-2.2 3.2-2.2 5.1V332c0 17.1 13.9 31 31 31h450c17.1 0 31-13.9 31-31V156c0-3.9-3.1-7-7-7zm-231.6 51l-74.2 45.9-10.3-8.8c27-13.5 52-30.6 74.4-50.9l10.1 13.8zM41.3 296.4c17.6-16.3 39.2-27.6 62.7-32.6l18.5-4c17.9-3.8 35.4-9.3 52.3-16.4l19.1 16.4c2.3 2 5.6 2.2 8.2.6l85-52.5c3.3-2 4.3-6.3 2.3-9.6-.1-.2-.2-.3-.3-.4l-15.2-21 15.9-13.9h18.7c17.4 0 31.4 14.1 31.4 31.4v1.3c-.2 3.9 2.8 7.1 6.7 7.3h104.3c2.7 0 5.2-1.6 6.3-4l4-8.4c7-14.6 20.7-24.7 36.7-27.1v148.1h-56.1l31.1-39.3c2.4-3 1.9-7.4-1.2-9.8-1.2-1-2.8-1.5-4.3-1.5h-161c-2.1 0-4.2 1-5.5 2.7l-37.9 48H24.8l16.5-15.3zm382.8 15.3H280.9l29-36.7H453l-28.9 36.7zM498 332c0 9.4-7.6 17-17 17H31c-9.4 0-17-7.6-17-17v-6.3h484v6.3z" fill="#fff"/></svg>