<svg xmlns="http://www.w3.org/2000/svg" viewBox="0 0 512 512"><path d="M457.2 447.6L377.3 46V7c0-3.9-3.1-7-7-7H141.7c-3.9 0-7 3.1-7 7v39L61.2 415.4l-6.4 32.2c-.5 2.7.6 5.5 2.9 7.1C61 457 140.8 512 258 512c7.3 0 14.5-.2 21.5-.6 3.5-.2 7-.4 10.4-.7 99-8.5 161.8-53.9 164.7-56 2-1.8 3.1-4.5 2.6-7.1zM406.8 429l-51.9-259.9c-.7-3.8-4.4-6.3-8.2-5.6-3.8.7-6.3 4.4-5.6 8.2v.1l52.5 262.9c-17.4 7.2-35.3 12.9-53.6 17.3l-18-159.3c-.4-3.8-3.9-6.6-7.7-6.2s-6.6 3.9-6.2 7.7L326.3 455c-20.9 4.1-42 6.3-63.3 6.6V275.8c0-3.9-3.1-7-7-7s-7 3.1-7 7v185.7c-21.2-.6-42.4-3-63.2-7.2l18.2-160c.4-3.8-2.3-7.3-6.2-7.7-3.8-.4-7.3 2.3-7.7 6.2l-18 158.5c-18.2-4.4-36.1-10.2-53.6-17.3l52.4-262.1c.8-3.8-1.6-7.5-5.4-8.3-3.8-.8-7.5 1.6-8.3 5.4v.1l-51.8 259.2c-10.1-4.5-19.9-9.6-29.5-15.1l71.6-359.6h217.1l71.6 359.8c-9.5 5.8-19.3 11-29.4 15.6zM148.7 14h214.6v25.7H148.7V14zM69.4 445.7l3.6-17.9c11.1 6.2 22.5 11.7 34.2 16.7.4.2.7.4 1.1.5 21 8.8 42.6 15.8 64.8 21 1.1 1.1 2.5 1.8 4.1 2h.8c.8 0 1.6-.1 2.3-.4 24.8 5.3 50.1 8 75.4 8.2h2.3c25.3 0 50.6-2.6 75.4-7.9.2 0 .4.1.6.1h.8c1-.1 1.9-.4 2.8-1 35.6-7.8 69.8-20.9 101.5-38.8l1.2 6 2.3 11.8c-55.4 34.1-119.4 52.1-184.6 52-66.4-.3-131.5-18.3-188.6-52.3z" fill="#fff"/></svg>