<svg xmlns="http://www.w3.org/2000/svg" height="61.979" width="52.242"><path d="M1.781 18.734l.222 25.168 5.654 6.985 16.964 8.98 20.844-10.2 4.324-10.311-.444-33.372-15.743-.444-16.41 2.66-14.966 8.65z" fill-rule="evenodd" fill="#301506"/><path d="M26.069.547C16.188.547 7.569 2.46.45 6.232v30.16c0 6.346 2.384 11.653 6.894 15.35 4.188 3.435 17.138 9.096 18.725 9.783 1.505-.655 14.61-6.403 18.73-9.783 4.508-3.695 6.893-9.003 6.893-15.35V6.232C44.572 2.46 35.953.546 26.068.546zM40.7 6.387c2.947.038 5.84.22 8.637.48v29.525c0 5.674-2.06 10.257-6.032 13.529-3.548 2.923-14.25 7.717-17.236 9.033-3.026-1.334-13.754-6.189-17.239-9.032-3.948-3.216-6.027-7.908-6.027-13.529V19.141C14.151 8.734 27.931 6.221 40.699 6.387zM26.737 20.135c-2.431 0-4.393.543-6.008 1.585v29.05h4.46v-9.385c.444.13 1.09.254 2.005.254 4.946 0 7.79-4.46 7.79-10.97 0-6.497-2.928-10.534-8.247-10.534zm15.236 0c-2.933.085-6 2.209-5.98 5.81.007 2.371.664 4.145 4.34 6.3 1.96 1.152 2.75 1.91 2.785 3.31.037 1.554-1.037 2.492-2.672 2.486-1.423-.012-3.123-.801-4.262-1.815v4.104c1.396.832 3.138 1.383 4.898 1.383 4.405 0 6.372-3.112 6.457-5.963.084-2.6-.634-4.566-4.36-6.754-1.662-.975-2.974-1.616-2.93-3.239.043-1.583 1.358-2.14 2.62-2.128 1.558.013 3.065.876 3.995 1.83v-3.875c-.784-.604-2.444-1.525-4.891-1.45zm-36.893.45v14.013c0 4.724 2.234 7.115 6.644 7.115 2.73 0 5.015-.632 6.717-1.79V20.587h-4.449v16.8c-.485.333-1.204.546-2.11.546-2.042 0-2.347-1.873-2.347-3.137v-14.21H5.08zm21.687 3.14c2.586 0 3.658 2.064 3.658 7.058 0 4.873-1.226 7.227-3.79 7.227-.605 0-1.13-.15-1.448-.27V24.047c.361-.18.975-.322 1.58-.322z" fill="#fab80a"/></svg>