<svg version="1.1" id="Calque_1" xmlns="http://www.w3.org/2000/svg" x="0" y="0" viewBox="0 0 422 422" xml:space="preserve"><style>.st1{fill:#41d6c3}.st2{fill:#5596e6}</style><path d="M53.8 210.3c0-47.1 19-91.8 53-126 22.1-21.9 49.5-37.6 79.5-45.7v-6.3c-46.5 1.5-89.2 19.9-121.8 52-34.1 34.2-53.1 78.9-53.1 126 0 98.2 81.1 178.1 180.8 178.1 7.1 0 14.2-.4 21.2-1.2-89.7-10.4-159.6-85.7-159.6-176.9z" opacity=".1" fill="#d4e1f4"/><path class="st1" d="M336.9 53.1c-20.8-.1-37.8 16.7-37.9 37.5s16.7 37.8 37.5 37.9 37.8-16.7 37.9-37.5v-.2c0-20.7-16.8-37.6-37.5-37.7zm0 61.5c-13.1.1-23.8-10.4-23.9-23.5s10.4-23.8 23.5-23.9c13.1-.1 23.8 10.4 23.9 23.5v.2c0 13-10.5 23.6-23.5 23.7z"/><path class="st2" d="M168 117.9l-4.1 13.4c65.9 20.3 117.4 72.1 137.3 138.2l13.4-4C293.3 195 238.4 139.7 168 117.9zm-37.5 19a221.7 221.7 0 00-12 132.2l13.7-3c-9-41.4-5-84.6 11.3-123.8l-13-5.4z"/><path class="st2" d="M382.8 167.2l-1.7-6.8-13.6 3.4 1.7 6.8c14.7 59.5-2.5 122.4-45.5 166.1.1-2.5.1-5.1.1-7.6 0-7.4-.4-14.9-1.1-22.3l-13.9 1.4c.7 6.9 1 13.9 1 20.9 0 6.3-.3 14.7-.9 21-27.6 22.5-61.4 36-97 38.9-29.9-21.9-53.3-51.3-67.9-85.3l-12.9 5.5c13.4 30.8 33.5 58.2 58.9 80.1-93.6-4.2-168.4-81.6-168.4-176.2 0-28.4 6.8-56.3 20-81.5 19.9-6.2 40.7-9.4 61.6-9.3 7.4 0 14.9.4 22.2 1.2l1.5-13.9c-7.9-.8-15.8-1.3-23.7-1.3-17.6.1-35 2.5-52 7.1C83.9 66.3 139 36.7 198 36.7c5.1 0 10.3.2 15.4.7-25 16.4-46.5 37.7-63.1 62.6l11.7 7.8c17.7-26.6 44.7-51.1 72.4-67l-.5-.3c16 3.3 31.6 8.9 46.1 16.5l6.2 3.3 6.5-12.4-6.2-3.3C194.5-3.7 80.8 30.7 31 121.8l-1.8 3.3c-14.3 27.2-21.7 57.4-21.7 88.1 0 105 85.4 190.4 190.4 190.4 3.4 0 6.7-.1 10-.3.2.1.4.3.6.4l2-.6c.1 0 .1 0 .2.1l.1-.1c99-6.6 177.6-89.3 177.6-190 0-15.5-1.9-30.9-5.6-45.9z"/><path class="st1" d="M390.9 40.3c-30-29.3-78-29.3-108 0-13.8 13.5-22.1 31.6-23.4 50.9-.7 10.5.9 21.1 4.6 31 3.9 10.3 9.9 19.6 17.6 27.5l50.1 52.3c2.7 2.8 7.1 2.9 9.9.2l.2-.2 50.1-52.3c7.7-7.9 13.7-17.2 17.6-27.5 3.7-9.9 5.3-20.4 4.6-31-1.2-19.2-9.6-37.3-23.3-50.9zm5.6 77c-3.3 8.5-8.3 16.2-14.6 22.7l-45 47-45-47c-6.4-6.5-11.4-14.2-14.6-22.7-3-8-4.3-16.6-3.8-25.1 1.1-15.8 7.9-30.7 19.3-41.8 24.6-23.9 63.8-23.9 88.4 0 11.3 11.1 18.2 26 19.3 41.8.4 8.5-.9 17.1-4 25.1zM312.8 260c-15.1 0-27.4 12.2-27.4 27.4 0 15.1 12.3 27.3 27.4 27.4 1.3 0 2.7-.1 4-.3 14.9-2.2 25.3-16.1 23.1-31.1-2-13.5-13.5-23.4-27.1-23.4zm1.9 40.5c-.6.1-1.3.1-1.9.1-7.4 0-13.4-6-13.4-13.4 0-6.1 4.2-11.5 10.2-13 1-.3 2.1-.4 3.2-.4 7.4 0 13.4 6 13.4 13.4 0 6.8-4.9 12.4-11.5 13.3zm-184.1-40.6c-15.1 0-27.4 12.2-27.4 27.4 0 15.1 12.2 27.4 27.4 27.4s27.4-12.3 27.4-27.4c-.1-15.1-12.3-27.4-27.4-27.4zm4.6 39.9c-6.9 2.6-14.6-1-17.2-7.9s1-14.6 7.9-17.2 14.6 1 17.2 7.9c.5 1.5.8 3.1.8 4.6.1 5.6-3.4 10.7-8.7 12.6zM145.9 94c-15.1 0-27.4 12.2-27.4 27.4 0 15.1 12.2 27.4 27.4 27.4 15.1 0 27.4-12.2 27.4-27.4 0-9.7-5.1-18.7-13.5-23.6-4.3-2.5-9.1-3.8-13.9-3.8zm13.2 29.5c-1.2 7.3-8.1 12.2-15.3 11-7.3-1.2-12.2-8.1-11-15.3 1.2-7.3 8.1-12.2 15.3-11 6.5 1.1 11.2 6.6 11.2 13.2-.1.7-.1 1.4-.2 2.1z"/></svg>