<svg version="1.1" id="OBJECTS" xmlns="http://www.w3.org/2000/svg" xmlns:xlink="http://www.w3.org/1999/xlink" x="0" y="0" viewBox="0 0 500 441" xml:space="preserve"><style>.st0{fill:#f3928e}.st0,.st1,.st11,.st4,.st6,.st7,.st9{fill-rule:evenodd;clip-rule:evenodd}.st1{fill:#3d70b2}.st4{fill:#0c476b}.st6{fill:#105e99}.st7{fill:#113f4b}.st9{fill:#8bbddb}.st11{fill:#6097b2}.st12{fill:#41d6c3}.st12,.st13,.st14,.st20,.st30,.st32{fill-rule:evenodd;clip-rule:evenodd}.st13{fill:#31bca4}.st14{fill:#f4b3aa}.st20{fill:#dd7b71}.st30{fill:#f7bbb1}.st32{fill:#21687b}</style><g id="Capa1"><path class="st0" d="M149.3 138.2c.1-1.7.4-3.5.9-5.3 3.1-12.3 12.8-20.6 21.7-18.5 8.3 2 13 12.6 10.9 24.1.7-1.4.9-1.6 1.9-1.5 1.5.1 1.3 2.6 1.1 4-.6 3.1-2.3 6.9-4.2 6-.6-.2-.8-.8-.9-1.4-4.2 9.5-12.4 15.3-20 13.5-5.3-1.3-9.1-6-10.6-12.2-.3.4-.7.6-1.3.5-1.6-.4-2.3-2.4-2.6-4.2 0 0-1.6-3.7-.2-5.3.2-.8.2-1.2 1.1-1.2 1 0 1.7.6 2.2 1.5z"/><path class="st1" d="M181.9 140.9c-2.6 8.4-12.8 19.9-18.1 19.9-6-.1-13.8-11.5-14.7-18.7-.7-6.2 1.5-15.5 1.5-15.5s-4.7-1.9-2.8-6.1c1.1-2.4 5.2-.6 7.1 1.2 0 0-4.5-7.2-2.7-10.4 1.8-3.2 7 .3 9 3.8 0 0-2.1-4.1-.2-6.2 1.9-2.1 8.6-.5 11.9 4.6 0 0-1.5-2.9-.4-3.9 1.1-1.1 10.8 3.2 8 10.1 0 0 5.3-2.7 1.5 2.5 0 0 3.3-.7 4.1 2.4s-2.2 4.3-2.2 4.3-.9 8.7-2 12z"/><path d="M128.8 158.5c.6 2.1 1.6 4.2 3.1 4.8 3.3 1.4 6.6-.7 15.7-1.9s36.7-13.4 39.7-10.9 4.9 5.4-4.3 11.6c-9.2 6.1-37.6 25.5-37.6 25.5-6.8 10.5-7 32.2-7 32.2 16.5 32.9 3 109.1 3.5 118.3s-2.3 44.5-3 51.9c-.7 7.5.9 20.4.9 20.4 0 4.3-8.6 2.4-8.6 2.4-4.3-.3-.1-7-.1-7 2-8.2-5.2-31.6-5.2-31.6-4.8-19.6.5-37.3.5-37.3l-6-21.3-2.2 15.7c-2.4 6.3-3.2 7.5-15.2 21.6S77.8 378.5 73.7 389c-4.1 10.5-1.6 15.3 2.4 18.1 4 2.8.1 3.7.1 3.7-3.6 1.3-12.4-1.1-12.4-1.1-4.4-2.2-1.6-13.5-1.6-13.5-2.6-5.1-4.2-6.1 2.2-11.1s9.2-11.1 9.2-11.1c14.5-36.9 24.6-42.8 24.6-42.8 2.5-12.8-10.6-62.7-10.6-62.7-11.3-31.1 20.3-51.7 20.3-51.7-1.6-16.3-13-34.9-13-34.9-11.8-9.9-25.8-27.5-25.8-27.5-9.6-15.6-13.6-46.8-13.6-46.8-1.8-10.6 4.1-4.3 4.1-4.3 3.4 17.5 19.8 41 19.8 41 9.3 12 27 22.5 33.7 21.8 2.1-.2 2.5-6.4 2.5-9.7-4.9-3.6-8.7-10.1-9.7-18-1.7-12.6 4.3-23.7 13.4-24.9 9.1-1.1 17.7 8.2 19.4 20.7 1.8 11.3-2.7 21.3-9.9 24.3z" fill-rule="evenodd" clip-rule="evenodd" fill="#f7bcb1"/><defs><path id="SVGID_1_" d="M128.8 158.5c.6 2.1 1.6 4.2 3.1 4.8 3.3 1.4 6.6-.7 15.7-1.9s36.7-13.4 39.7-10.9 4.9 5.4-4.3 11.6c-9.2 6.1-37.6 25.5-37.6 25.5-6.8 10.5-7 32.2-7 32.2 16.5 32.9 3 109.1 3.5 118.3s-2.3 44.5-3 51.9c-.7 7.5.9 20.4.9 20.4 0 4.3-8.6 2.4-8.6 2.4-4.3-.3-.1-7-.1-7 2-8.2-5.2-31.6-5.2-31.6-4.8-19.6.5-37.3.5-37.3l-6-21.3-2.2 15.7c-2.4 6.3-3.2 7.5-15.2 21.6S77.8 378.5 73.7 389c-4.1 10.5-1.6 15.3 2.4 18.1 4 2.8.1 3.7.1 3.7-3.6 1.3-12.4-1.1-12.4-1.1-4.4-2.2-1.6-13.5-1.6-13.5-2.6-5.1-4.2-6.1 2.2-11.1s9.2-11.1 9.2-11.1c14.5-36.9 24.6-42.8 24.6-42.8 2.5-12.8-10.6-62.7-10.6-62.7-11.3-31.1 20.3-51.7 20.3-51.7-1.6-16.3-13-34.9-13-34.9-11.8-9.9-25.8-27.5-25.8-27.5-9.6-15.6-13.6-46.8-13.6-46.8-1.8-10.6 4.1-4.3 4.1-4.3 3.4 17.5 19.8 41 19.8 41 9.3 12 27 22.5 33.7 21.8 2.1-.2 2.5-6.4 2.5-9.7-4.9-3.6-8.7-10.1-9.7-18-1.7-12.6 4.3-23.7 13.4-24.9 9.1-1.1 17.7 8.2 19.4 20.7 1.8 11.3-2.7 21.3-9.9 24.3z"/></defs><clipPath id="SVGID_2_"><use xlink:href="#SVGID_1_" overflow="visible"/></clipPath><g clip-path="url(#SVGID_2_)"><path class="st0" d="M121.1 322.4s-13-35-30.5-38.9c-2.8-.6-10.1-7.7-6.2-6.5 23.5 7.1 58.6 3.6 64.1 1.4l.9-.3c1.6-.6 3.1-1.1 3.1-1.1 1-.1 1.9.1 2.8.4 0 0-.6 2.3-2.7 3.3-1.1.5-2.7 1.3-2.7 1.3-11.2 4.5-21.1 7.4-35.3 8.2 2.9 14.3 4.1 17.1 6.5 27.5.6 2.7 1 6.3 0 4.7z"/><path class="st4" d="M109.8 223.5c.8-1.1 1.2-1.7 1.2-1.7 12.5-8.2 18.3-8.4 30.3 3.8 10.6 10.8 10.9 50.5 10.9 50.5s-17.9 9.9-36.4 9.4c-21.1-.6-31.3-6.9-31.3-6.9S73.1 243.6 98 222c.3.5 6 .7 11.8 1.5z"/><defs><path id="SVGID_3_" d="M109.8 223.5c.8-1.1 1.2-1.7 1.2-1.7 12.5-8.2 18.3-8.4 30.3 3.8 10.6 10.8 10.9 50.5 10.9 50.5s-17.9 9.9-36.4 9.4c-21.1-.6-31.3-6.9-31.3-6.9S73.1 243.6 98 222c.3.5 6 .7 11.8 1.5z"/></defs><clipPath id="SVGID_4_"><use xlink:href="#SVGID_3_" overflow="visible"/></clipPath><g clip-path="url(#SVGID_4_)"><path class="st6" d="M132.6 225.8l.2.5.2.5.2.5.1.4v.1l.1.5.1.5.1.5.1.5.1.5.1.5.1.5.1.5.1.5.1.5.1.5.1.3v.2l.1.5.1.5.1.5.1.5.1.5.1.5.1.5.1.5.1.5.1.5.1.5.1.5.1.5v.2l.1.3.2 1 .2 1 .2 1 .2 1 .2 1 .2 1 .2 1 .2 1 .2 1 .2 1 .2 1 .2 1 .2 1 .2 1 .2 1 .2 1 .1.7v.3l.1 1 .1 1 .1 1 .1 1 .1 1 .1 1 .1 1 .1 1 .1 1 .1 1 .1 1 .1 1 .1 1 .1 1 .1 1 .1 1 .1.8v.3l.1 1 .1 1 .1 1 .1 1 .1 1 .1 1 .1.8v.2l.1 1 .1 1 .1 1 .1 1 .1 1 .1.9v2.1l-.2.3v-.2l-.1-1-.1-1v-.1l-.1-.9-.1-1-.1-1-.1-1-.1-1-.1-1v-.2l-.1-.8-.1-1-.1-1-.1-1-.1-1-.1-1-.1-1v-.3l-.1-.7-.1-1-.1-1-.1-1-.1-1-.1-1-.1-1-.1-1-.1-1-.1-1-.1-1-.1-1-.1-1-.1-1-.1-1-.1-1-.1-1v-.3l-.1-.7-.1-1-.1-1-.2-1-.2-1-.2-1-.2-1-.2-1-.2-1-.2-1-.2-1-.2-1-.2-1-.2-1-.2-1-.2-1-.2-1-.1-.3v-.2l-.1-.5-.1-.5-.1-.5-.1-.5-.1-.5-.1-.5-.1-.5-.1-.5-.1-.5-.1-.5-.1-.5-.1-.5-.1-.5v-.2l-.1-.3-.1-.5-.1-.5-.1-.5-.1-.5-.1-.5-.1-.5-.1-.5-.1-.5-.1-.5-.1-.5-.1-.5v-.1l-.1-.4-.1-.5-.1-.5-.1-.5.1-.1-.2-.1zM96.8 244l-.1.1h.3v-.1h.1v2l.1.2.1.2.1.2.1.3.1.3.1.3.1.3.1.3.1.2v.1l.1.3.1.3.1.3.1.3.1.3.1.3.1.3.1.3.1.3.1.3.1.3.1.3.1.3.1.3.1.3.1.3.1.3.1.3.1.3.1.3.1.3.1.3.1.3.1.3.1.3.1.3.1.3.1.3.1.3.1.3.1.3.1.3.1.3.1.3.1.2v.1l.1.3.1.3.1.3.1.3.1.2.1.2.1.2.1.2.1.2.1.2v.1l.1.2.1.2.1.2.1.2.1.2.1.2.1.2.1.2.1.2.1.2.1.2.1.2.1.2.1.2.1.2.1.2.1.2.1.2.1.2.2.2.1.2v.1l.2.2.2.2.2.2.2.2.2.2.2.2.2.2.2.2v.3h-.3l-.2-.2-.2-.2-.2-.2-.2-.2-.2-.2-.2-.2-.2-.2-.2-.2v-.1l-.1-.2-.2-.2-.2-.2-.2-.2-.2-.2-.2-.2-.2-.2-.1-.2-.2-.2-.2-.2-.2-.2-.2-.2-.1-.2-.1-.2-.1-.2-.1-.2-.1-.2-.1-.2-.1-.2-.1-.2-.1-.2v-.1l-.1-.2-.1-.3-.1-.3-.1-.3-.1-.3-.1-.3-.1-.3-.1-.3-.1-.3-.1-.3v-.1l-.1-.2-.1-.3-.1-.3-.1-.3-.1-.3-.1-.3-.1-.3-.1-.3-.1-.3-.1-.3-.1-.3-.1-.3-.1-.3-.1-.3-.1-.3-.1-.3-.1-.3-.1-.3-.1-.3-.1-.3-.1-.3-.1-.3-.1-.3-.1-.3-.1-.3-.1-.3-.1-.3-.1-.3-.1-.3-.1-.3-.1-.3-.1-.3-.1-.4-.1-.4-.1-.4v-.3l-.1-.4-.1-.4-.1-.4-.1-.4-.1-.4V243h.1l.4 1zm-3.9 16.6l.1.1-.1-.1.1.1.1.1.1.1.1.1.1.1.1.1.1.1.1.1.1.1.1.1.1.4.1.1.1.1.1.1.2.2.2.2.2.2.1.1.1.1.1.1v.1l.2.3.2.3.2.3.2.3.2.3.2.3.2.3.2.2.2.3.2.3.2.3.2.2.2.2.2.2.2.2.2.2.2.2.1.1.1.1.1.1.1.1.1.1.1.1.1.1.1.1.1.1.1.1.1.1.1.1.1.1.1.1.1.1.1.1.1.1.1.1.1.1.1.1.1.1.1.1.1.1.1.1.1.1.1.1.1.1.1.1.1.1.1.1.1.1.1.3h-.3l-.1-.1-.1-.1-.1-.1-.1-.1-.1-.1-.1-.1-.1-.1-.1-.1-.1-.1-.1-.1-.1-.1-.1-.1-.1-.1-.1-.1-.1-.1-.1-.1-.1-.1-.1-.1-.1-.1-.1-.1-.1-.1-.1-.1-.1-.1-.1-.1-.1-.1-.1-.1-.1-.1-.1-.1-.1-.1-.1-.1-.1-.1-.2-.2-.2-.2-.2-.2-.2-.3-.2-.3-.2-.3-.2-.3-.2-.3-.2-.3-.2-.2-.2-.3-.2-.3-.2-.3-.2-.3-.2-.3-.2-.3-.2-.3v-.1l-.1-.1-.1-.2-.2-.2-.2-.2-.2-.2-.1-.1-.1-.1-.1-.1-.1-.1-.1-.1-.1-.1-.1-.1-.1-.1-.1-.1-.1-.1-.1-.1-.1-.1-.1-.1v-.4z"/><path class="st6" d="M145.5 237.3l-.1.1-.1.1-.1.1-.1.1-.1.1-.1.1-.1.1-.1.1-.1.1-.1.1-.1.1-.1.3-.1.3-.1.3-.1.3-.1.1-.1.1-.2.3-.2.3-.2.2-.2.2v.1l-.1.2-.2.2-.2.2-.2.2-.2.2-.2.2-.1.1-.1.1-.2.2-.2.2-.2.2-.2.2-.2.2-.2.2-.2.2-.2.2-.2.2-.2.2h-.1l-.1.1-.1.1-.1.1-.1.1-.1.1-.2.2-.2.2h-.1l-.2.1-.3.2-.3.2-.3.2-.2.2-.1.1-.1.1-.1.1-.1.1-.1.1h-.7l-.2-.1-.1-.1v-.4l.1-.1.1-.1.1-.1.1-.1.1-.1.1-.1.1-.1.1-.1.2-.2.3-.2.3-.2.3-.2.2-.1h.1l.2-.2.2-.1.1-.1.1-.1h.2l.2-.2.2-.2.2-.2.2-.2.2-.2.2-.2.2-.2.2-.2.2-.2.2-.2.1-.1.1-.1.2-.2.2-.2.2-.2.2-.2.2-.2.1-.2v-.1l.2-.2.2-.2.2-.2.2-.2.1-.1.1-.1.2-.2.2-.2.2-.2.2-.2.1-.1.1-.1.1-.1.1-.1.1-.1.1-.1.1-.1.1-.1.1-.1.1-.1.1-.1.1-.1.3-.1.1.3v-.2zm-.1 4l-.1.2-.1.2-.2.3-.1.2-.1.2-.1.2-.2.2-.2.2-.2.2-.1.1-.1.1-.2.2-.2.2-.2.2-.1.1-.1.1-.2.2-.2.2-.2.2-.2.2-.1.1-.1.1-.2.2-.2.2-.2.2-.2.2-.2.2-.2.1-.2.2-.2.2-.2.2-.2.2-.2.2-.2.2-.2.2h-.1l-.1.1-.1.1-.1.1-.1.1-.1.1-.1.1-.1.1-.1.1-.1.1-.1.1-.1.1-.1.1h-.3v-.2l.1-.2h.1l.1-.1h.1l.1-.1.1-.1.1-.1.1-.1.1-.1.1-.1.1-.1.1-.1.1-.1.1-.1.1-.1.1-.1.1-.1.2-.2.2-.2.2-.2.2-.2.2-.2.2-.2.2-.2.2-.1.2-.2.2-.2.2-.2.2-.2.2-.2.1-.1.1-.1.2-.2.2-.2.2-.2.2-.2.1-.1.1-.1.2-.2.2-.2.2-.2.1-.1.1-.1.2-.2.2-.2.2-.2.2-.2.2-.2.2-.3.2-.1.2-.2.2-.2.2-.1-.8.6z"/></g><path class="st7" d="M68.1 109c-.7-1.1-12.6 5.8-14.9 9-.2.3 7.1 27.1 10.8 36.5 3.2 8 28.2 29.4 31.6 37.4 7.7 18.1 2.3 29.4 2.3 29.4s.5 5.7 10 9.8c16.6 7.1 36.3.1 36.7-5.5 0 0-1.3-31.7 2.9-37.7 4.8-6.7 48.2-21.8 47.6-34.2-.9-17.2-37.6 3.9-57.1 3.5-3.6-.1-5.9 11.4-11.5 12.7-6 1.4-10.1.4-15.3-6.7-1.2-1.6-30-23.4-32-30.8L68.1 109z"/></g><path class="st1" d="M101.6 142.5c-.5-10.1 2.6-16.9 2.6-16.9 7.2-15.4 17.1-13.5 17.1-13.5 20.5 1.9 21.5 22.8 19.2 32.8-.1.3-.1.5-.2.8 0 8.1.1 15.5 4 20.1 1.7 1.9-.4 1.5-.4 1.5-3.1-2.1-4.5-6.1-5.1-9.9-.2 10.1 3.6 12.5 3.6 12.5l-1.4 3.9c-1.6.1-6.1-4.2-6.1-4.2 1.9 2.6 5.1 5.6 5.1 5.6-1.7 5.9-7.2 8.7-7.2 8.7-2.3-2.7-4.9-12.4-4.9-12.4-.5 3.8 3.1 12.9 3.1 12.9-3 1.8-8.5 1.9-8.5 1.9V179l-1.6 6.9-4.5-.5c2.6-5.4 2.8-14 2.8-14-.9 6.3-5.2 13.1-5.2 13.1-4 .6-9.4-3.9-9.4-3.9 5.9-4.7 7.1-12.8 7.1-12.8-2.3 7.1-8.8 11.1-8.8 11.1-5.5-3.4-9.6-12-9.6-12 3.3-1.2 6.5-6.2 7.8-12.8-.9 2.2-2 4.3-3.5 6.3-1.3 1.7-2.9 3.1-4.6 4.3l-1.4.4.7-1.1c.1-.1.3-.2.4-.3.8-.7 1.6-1.6 2.3-2.4 4.6-5.4 5.9-12.3 6.6-18.8z"/><path class="st0" d="M111.7 230.3s-6 8-2.1 15.7c5.7 11.3 34.2 7.1 46.3-11 0 0 18.5 29.8 19.6 37.3 1 7.5-9.1 56.4-10.7 73.8-1.7 17.4 12.2 82 12.2 82s-3.1 5.7-11 7.5c0 0-5.5.1-6.3 3.3-.9 3.1 25.4 0 29.1-3.3 0 0 4.8-2.2-2.9-13.6 0 0 1.4-53.5.1-70.8l12.2-47.7s-2 37.4-1.6 51.9 5.3 72.8 5.3 72.8-5.1 9.4-2.3 10.7 14.6 2.6 13.8-3.6-3.9-12.3-3.5-19.2c.4-6.9 6.6-50.9 8.1-63.2 1.6-12.3 6.9-73.8 0-90.9-7-17.1-18.8-45.6-18.8-45.6s37.6-9.9 48.9-17.5c0 0 22.4-29.7 20.7-38.3-1.1-5.7-4.8-10.5-7.5-12.4-2.4-1.7-7.7-3.5-8.6 1 0 0 6.1 3.6 6.8 12.2L238.7 186s-36.7-2.1-49.8-3.5c0 0-10.1 6.4-20.9 13.4-2.1 1.4-4.3 2.8-6.4 4.2-5.6 3.8-10.9 7.4-14.3 10 0 0-12.1 20.9-27.7 27.5 0 0-5.2-.2-7.9-7.3z" transform="matrix(1.09346 0 0 .99944 -16.652 -25.351)"/><g transform="matrix(1.09346 0 0 .99944 -16.652 -25.351)"><defs><path id="SVGID_5_" d="M111.7 230.3s-6 8-2.1 15.7c5.7 11.3 34.2 7.1 46.3-11 0 0 18.5 29.8 19.6 37.3 1 7.5-9.1 56.4-10.7 73.8-1.7 17.4 12.2 82 12.2 82s-3.1 5.7-11 7.5c0 0-5.5.1-6.3 3.3-.9 3.1 25.4 0 29.1-3.3 0 0 4.8-2.2-2.9-13.6 0 0 1.4-53.5.1-70.8l12.2-47.7s-2 37.4-1.6 51.9 5.3 72.8 5.3 72.8-5.1 9.4-2.3 10.7 14.6 2.6 13.8-3.6-3.9-12.3-3.5-19.2c.4-6.9 6.6-50.9 8.1-63.2 1.6-12.3 6.9-73.8 0-90.9-7-17.1-18.8-45.6-18.8-45.6s37.6-9.9 48.9-17.5c0 0 22.4-29.7 20.7-38.3-1.1-5.7-4.8-10.5-7.5-12.4-2.4-1.7-7.7-3.5-8.6 1 0 0 6.1 3.6 6.8 12.2L238.7 186s-36.7-2.1-49.8-3.5c0 0-10.1 6.4-20.9 13.4-2.1 1.4-4.3 2.8-6.4 4.2-5.6 3.8-10.9 7.4-14.3 10 0 0-12.1 20.9-27.7 27.5 0 0-5.2-.2-7.9-7.3z"/></defs><clipPath id="SVGID_6_"><use xlink:href="#SVGID_5_" overflow="visible"/></clipPath><g clip-path="url(#SVGID_6_)"><path class="st9" d="M174.3 399.3l13.1-5.2v-69.8l12.4-43.8s-5.6 67.7 1.1 113.9l14.3-1.5s21.9-132 5.5-158.7l-46.4 12.1s-11.2 70.3-12.1 75.1c-2 11.5 12.1 77.9 12.1 77.9z" transform="matrix(.91453 0 0 1.00056 15.229 25.365)"/><g transform="matrix(.91453 0 0 1.00056 15.229 25.365)"><defs><path id="SVGID_7_" d="M174.3 399.3l13.1-5.2v-69.8l12.4-43.8s-5.6 67.7 1.1 113.9l14.3-1.5s21.9-132 5.5-158.7l-46.4 12.1s-11.2 70.3-12.1 75.1c-2 11.5 12.1 77.9 12.1 77.9z"/></defs><clipPath id="SVGID_8_"><use xlink:href="#SVGID_7_" overflow="visible"/></clipPath><g clip-path="url(#SVGID_8_)"><path class="st11" d="M218.4 268.3l-.2.3-.2.2-.2.2-.3.1-.3.1-.3.1-.3.1-.3.1-.2.1-.3.1-.2.1-.2.1-.2.1-.2.1-.2.1-.5.1-.5.1-.5.1-.5.1-.4.1-.4.1-.4.1-.8.2-.4.1-.4.1-.4.1-.4.1-.4.1-.4.1h-1.9l-.2.1-.1.1-.1.1-.1.1-.1.1-.1.1-.1.1-.1.1-.1.1-.1.1-.1.1-.1.1-.1.1-.1.1-.1.1-.1.1-.1.1-.1.1-.1.1-.1.1-.1.1-.1.1-.1.1-.1.1-.1.1-.1.1-.1.1-.1.1-.1.1-.1.1-.4-.7-.1.1-.1.1-.1.1-.1.1-.1.1-.1.1-.1.1-.1.1-.1.1-.1.1-.1.1-.1.1-.1.1-.1.1-.1.1-.1.1-.1.1-.1.2-.1.2-.1.2-.1.2-.1.2-.1.2-.1.2-.1.2-.1.2-.1.2.7.3-.1.2-.1.2v.2l-.1.2-.1.2v2l-.1.1-.3.2-.1.1-.1-.1-.2-.3-.1-.1v-3.2l.1-.2.1-.2.1-.2.1-.2.1-.2.1-.2.1-.2.1-.2.1-.2.1-.2.1-.2.1-.2.1-.2.1-.2.1-.2.1-.1.1-.2.1-.1.1-.1.1-.1.1-.1.1-.1.1-.1.1-.1.1-.1.1-.1.1-.1.1-.1.1-.1.1-.1.1-.1.1-.1.1-.1.1-.1.1-.1.1-.1.1-.1.1-.1.1-.1.1-.1.1-.1.1-.1.1-.1.1-.1.1-.1.1-.1.1-.1.1-.1.1-.1.1-.1.1-.1.1-.1.2-.1.2-.1.2-.1.2-.1.2-.1.2-.1.2-.1.2-.1.2-.1.2-.1h1.4l.4-.1.4-.1.4-.1.4-.1.4-.1.4-.1.8-.2.4-.1.4-.1.4-.1.4-.1.5-.1.5-.1.5-.1.2-.1.2-.1.2-.1.2-.1.3-.1.3-.1.2-.1.3-.1.3-.1.3-.1.3-.1.3-.1h.6l.1 1.1z"/><path class="st11" d="M203.6 273.3v-.1.1-.1.1-.1.1l.1-.1-.1.1.1-.1v-.3h.5v15.9l-.1 1-.1 1v3.1l-.1 1-.1 1-.1 1-.1 1v1l-.1 1-.1 1-.1 2.1-.1 2.1-.1 2.1v.2l-.1 1.8-.1 2.1-.2 4.1-.1 1.8-.1 1.7-.1 1.8-.1.9-.1.9v39.8l.1 1.6.1 1.6.1 1.6.1 1.6.1 1.6.1 1.6.2 3.2.2 3.2.1 1.6.1 1.6.1 1.6.1 1.6.1 1.6.1 1.6v6.4l-.2.2.4.5-.1-.8-.1-.8-.1-.8-.1-.7v-1.7l-.1-.8-.1-.8-.1-1.6-.1-1.6-.1-1.6-.1-1.6-.1-1.6-.1-1.6-.2-3.2-.2-3.2-.1-1.6-.1-1.6-.1-1.6-.1-1.6-.1-1.6-.1-1.6-.1-.8-.1-.8V325l.1-.9.1-.9.1-.9.1-.9.1-1.8.1-1.7.1-1.8.3-4.1.1-2 .1-1.8v-.2l.1-2 .1-2 .1-2.1.1-1 .1-1v-1l.1-1 .1-1 .1-1 .1-1 .1-1 .1-1v-19.7l-.3.1zm4.4-30.1v1.4l.1.2.1.2.1.2v.2l.1.2.1.2.1.2.1.2.1.2.1.4.1.4v.1l.1.3.1.4.1.4.1.4v.1l.1.3.1.4.2.9v.2l.2.7.2.9.1.4.1.4.1.4.1.4.1.4.1.4.1.4.1.4.1.4v10.2l-.1.2-.1.2-.1.2-.1.2-.1.2-.1.2-.1.2-.1.2-.1.2-.1.2-.1.2-.1.2-.1.2-.1.2v.1l-.1.1-.4.2-.1-.4v-.3l.1-.2.1-.2.1-.2.1-.2.1-.2.1-.2.1-.2.1-.2.1-.2.1-.2.1-.2.1-.2v-10.6l-.1-.4-.1-.4-.1-.4-.1-.4-.1-.4-.1-.4-.1-.4-.1-.4-.1-.4-.2-.9-.2-.7v-.2l-.2-.9-.1-.4-.1-.3v-.1l-.1-.4-.1-.4-.1-.4-.1-.3v-4.1l.1-.1-.3.4zm-8.8 9.1v.6l.1.1.1.1v1.7l.1.5v6.3l-.1.1-.1.1-.1.1-.1.1v1.1l-.1.1-.1.1-.1.1-.1.1-.1.1-.1.1-.1.1-.1.1-.1.1-.1.1-.1.1-.1.1-.1.1-.1.1-.1.1-.1.1h-2l-.1.1-.1.1-.2.1-.2.1-.2.1h-8.3l-.1-.1-.1-.1-.1-.1-.1-.1h-1v-10.5h6.8l1-.1.5-.1h.5l.5-.1.5-.1h1.4l.2-.1.2-.1h1l.1.1-.1.1h-.3l-.2.1-.2.1h-1.4l-.5.1-.5.1-.5.1-.5.1-1 .1h-6.7v9.2l.1.1h6.8l.1-.1.1-.1.1-.1.1-.1.1-.1h2.5V255l-.1-.5v-2.4h.3l3.3.2zm22.7-9.5h.1-.1.1l.1-.1.1.1v.1h-.4l-.1.1-.1.1-.1.1-.1.1-.1.1-.1.1-.1.1-.1.1-.1.1-.1.1-.1.1-.1.1-.3.2-.3.2h-.1l-.2.2-.3.2-.3.2-.3.2-.3.2-.3.2-.3.2-.3.2-.3.2-.2.1-.2.1-.2.1-.2.1-.4.2-.1.1-.3.1-.2.1-.2.1-.2.1-.1.1-.1.1-.1.1-.1.1-.1.1-.1.1h-.2v.1l.1.1.1.1.1.1.1.1v.4l.1.2.1.2.1.1.1.2.1.2.1.2.1.2.1.2.1.2.1.2.1.3.1.3.2.5.1.3.1.3v.4l.1.2.1.2.1.3v.2l.1.1.1.1.1.1.1.1.1.1.1.1.1.1v.8h6l.1-.1.1-.1.1-.1.1-.1.1-.1.1-.1.1-.1.1-.1v-.1l.1-.1v-10l-.1-.5-.1-.5-.1-.2-.1-.2-.1-.2-.1-.2-.1-.2-.1-.2-.1-.2-.1-.2-.1-.2-.1-.2-.1-.2-.1-.2v-.8h-.5l.1-.2v-.1l.1-.1v-.1.4l.1.2v.2l.1.2.1.2.1.2.1.2.1.2.1.2.1.2.1.2.1.2.1.2.1.2.1.2.1.5.1.5v9.4l-.1.1-.1.1-.1.1-.1.1-.1.1-.1.1-.1.1-.1.1-.1.1-.1.1-.1.1-.1.1-.1.1-.1.1-.1.1-.1.1-.1.1-.1.1-.1.1-.1.1-.1.1-.1.1-.1.1-.1.1-.1.1-.1.1h-7.1l-.1-.1-.1-.1-.1-.1-.1-.1v-1.5l-.1-.1-.1-.1-.1-.1-.1-.1-.1-.1-.1-.1-.1-.1v-.2l-.1-.3-.1-.2-.1-.2v-.4l-.1-.3-.1-.3-.2-.5-.1-.3-.1-.3v-.2l-.1-.2-.1-.2-.1-.2-.1-.2-.1-.2-.1-.2-.1-.1-.1-.2-.1-.2v-.5l-.1-.1-.1-.1-.1-.1v-1.7h.2l.1-.1.1-.1.1-.1.1-.1.1-.1h.2l.2-.1.2-.1.2-.1.2-.1.1-.1.4-.2.2-.1.2-.1.2-.1.2-.1.3-.2.3-.2.3-.2.3-.2.3-.2.3-.2.3-.2.3-.2.2-.2h.1l.3-.2.3-.2.1-.1.1-.1.1-.1.1-.1.1-.1.1-.1.1-.1.1-.1.1-.1.1-.1.1-.1.1-.1h.4l2.9 2zm1.3-.3zm0 0zm0 0zm0 0zm-43.9 4.6l.1.2v9.4l-.1.6-.1.6-.1.6-.1.6-.1.6-.1.6-.1.6-.1.6v.2l-.1.5-.1.6-.2 1.2-.2 1.2-.1.4v.2l-.1.6-.2 1-.2 1-.2 1-.2 1-.2 1-.2 1-.2 1-.2 1-.2 1-.2 1-.2 1-.2 1-.2 1-.2 1-.2 1-.2 1-.2 1-.2 1-.2 1-.2 1-.2 1-.2 1-.2 1-.2 1-.2 1-.1.6-.1.3-.2 1-.2 1-.2 1-.2 1-.2 1-.2 1-.1.6-.1.6-.1.6-.1.6-.1.6-.1.6-.3 1.2-.3 1.2-.1.6-.1.6-.1.6-.1.6-.1.6-.1.6-.1.6-1.5.5-.1.3-.1.3-.1.3-.1.3-.1.3-.1.3-.1.3-.1.3-.1.3-.1.3-.1.3-.1.3-.1.3-.1.3v17.7l.1.4.1.4.1.4.1.4.1.4.1.4.1.4.1.9.1.9.1.9.1.9.2 1.7.1.9.1.9.1.9.1.9.1.4.1.4.1.4.1.4.1.8.1.8.1.8.1.8.1.8.1.8.1.8.1.8.1.8.1.8.1.8.1.8.1.8.1.8.1.8.1.8.1.8.1.8.1.8.1.8.1.8.1.8.1.8.1.8.1.8.1.8.1.8.1.8.1.8.1.8.1.8.1.8.1.8.1.8.1.8.1.8.1.8.1.8.2.8.2.8.2.8.2.8.2.8.2.8.2.8.2.8.2.8.2.8.2.8.2.8.2.8.2.8.1.5.1.4.2.8.2.8.2.8.2.8.2.8.1.6v.2l.1.8.1.8.2.8.2.8.2.8-.1.2-.2-.1-.2-.8-.2-.8-.2-.8-.2-.8-.2-.8-.1-.2-.1-.6-.2-.8-.2-.8-.2-.8-.2-.8-.2-.8-.1-.4-.1-.5-.2-.8-.2-.8-.2-.8-.2-.8-.2-.8-.2-.8-.2-.8-.2-.8-.2-.8-.2-.8-.2-.8-.2-.8-.2-.8-.2-.8 1.1 1.3-.1-.8-.1-.8-.1-.8-.1-.8-.1-.8-.1-.8-.1-.8-.1-.8-.1-.8-.1-.8-.1-.8-.1-.8-.1-.8-.1-.8-.1-.8-.1-.8-.1-.8-.1-.8-.1-.8-.1-.8-.1-.8-.1-.8-.1-.8-.1-.8-.1-.8-.1-.8-.1-.8-.1-.8-.1-.8-.1-.8-.1-.8-.1-.8-.1-.8-.1-.8-.1-.8-.1-.8-.1-.8-.1-.4-.1-.4-.1-.4-.1-.4-.1-.8-.1-.9-.1-.9-.1-.9-.3-1.7-.1-.9-.1-.9-.1-.9-.1-.9-.1-.4-.1-.4-.1-.4-.1-.4-.1-.4-.1-.4-.1-.4-.1-.4v-17.6l.1-.3.1-.3.1-.3.1-.3.1-.3.1-.3.1-.3.1-.3.1-.3.1-.3.1-.3.1-.3.1-.3.1-.3.1-.6.1-.6.1-.6.1-.6.1-.6.1-.6.1-.6.3-1.2.3-1.2.1-.6.1-.6.1-.6.1-.6.1-.6.1-.6.2-1 .2-1 .2-1 .2-1 .2-1 .2-1 .1-.3.1-.6.2-1 .2-1 .2-1 .2-1 .2-1 .2-1 .2-1 .2-1 .2-1 .2-1 .2-1 .2-1 .2-1 .2-1 .2-1 .2-1 .2-1 .2-1 .2-1 .2-1 .2-1 .2-1 .2-1 .2-1 .2-1 .1-.6v-.2l.1-.4.2-1.2.2-1.2.1-.6.1-.5v-.2l.1-.6.1-.6.1-.6.1-.6.1-.6.1-.6.1-.6.1-.6.1-.3.1-.3v-8.8l.1-.2.1-.1.6-2.4z"/></g></g><path class="st12" d="M101.8 198.6s10 11.3 15.9 6.7c5.8-4.6 21.8-24 21.8-24l48.4-29.9s48.7 7.5 55.6 5.1L266 135l11.2 8.8s-15.3 28.1-29.7 34.9c-2.8 1.3-8.7 39.7-20.8 55.5-14.7 19-41.1 20.7-52.1 15.4-16.6-8-25.6-27.5-40.5-23.9-19.8 4.8-35.2-2.1-36.3-7.6.1-.1-2.4-10.7 4-19.5z" transform="matrix(.91453 0 0 1.00056 15.229 25.365)"/><path class="st13" d="M143.3 184.8l.2.1.2.1.1.1.2.1.2.1.2.1.2.1.2.1.2.1.2.1.2.1.2.1.2.1.2.1.2.1.2.1.2.1.2.1.2.1.2.1.2.1.2.1.2.1.1.1.1.1.1.1.1.1.1.1.1.1.1.1.1.1.1.1.1.1.1.1.1.1.1.1.1.1.1.1.1.2.1.2.1.2.1.2.1.2.1.2.1.2.1.2.1.2.1.2.1.2.1.2.1.2.1.2.1.2.1.2.1.2.1.2.1.2.1.2.1.2.1.2.1.2.1.2.1.2.1.2.1.2.1.2.1.2.1.2.1.2.1.1.1.2.1.2.1.2.1.2.1.2.1.2.1.2.1.2.1.2.1.2.1.2.1.2.1.2.1.2.1.2.1.2.1.2v.2l.1.2.1.2.1.2v13.1l-.1.2-.1.2v.3l-.1.3v.6l-.1.1v.4h-.1v-15l-.1-.2-.1-.2-.1-.2-.1-.2-.1-.2v-.1l-.1-.2-.1-.2-.1-.2-.1-.2-.1-.2-.1-.2-.1-.2-.1-.2-.1-.2-.1-.2-.1-.2-.1-.2-.1-.2-.1-.2-.1-.2-.1-.2-.1-.2-.1-.1-.1-.2-.1-.2-.1-.2-.1-.2-.1-.2-.1-.2-.1-.2-.1-.2-.1-.2-.1-.2-.1-.2-.1-.2-.1-.2-.1-.2-.1-.2-.1-.2-.1-.2-.1-.2-.1-.2-.1-.2-.1-.2-.1-.2-.1-.2-.1-.2-.1-.2-.1-.2-.1-.2-.1-.1-.1-.1-.1-.1-.1-.1-.1-.1-.1-.1-.1-.1-.1-.1-.1-.1-.1-.1-.1-.1-.1-.1-.1-.1-.1-.1-.1-.1-.1-.1-.1-.1-.1-.1-.1-.1-.1-.1-.1-.1-.1-.1-.1-.1-.1-.1-.1-.1-.1-.1-.1-.1-.1-.1-.2-.1-.2-.1-.1-.1-.1-.1-.2-.1-.2-.1-.2-.1-.2-.1-.2-.1-.2-.1-.2-.1-.1-.1-.2-.1-.2-.1-.2-.1-.1-.3.3-.1-.4.2zm47.2-26v11.8l.1.2.1.4.1.4.1.4.1.4.1.4.1.2v.1l.1.4.1.4.1.4.1.4.1.4.1.4.1.4.1.4.1.4.1.4.1.2.1.1.1.4.1.4.1.4.1.4.2.3.2.3.2.3.2.3.2.3.2.3.2.3v.1l.1.2.2.3.2.3.2.3.2.3.2.3.1.2.1.2.1.2.1.2.1.2.1.2.1.2.1.2.2.4.1.2.1.3.2.4.2.4.2.4.2.4.2.4.2.4.5.9.5.8.1.1.1.1.1.1.1.1.1.1.1.1.1.1.1.1.1.1.1.1.1.1.1.1.1.1.1.1.1.1.1.1.1.1.1.1.1.1.1.1.1.1.1.1.1.1.1.1h.1-.2l1 .1-.1-.1-.1-.1-.1-.1-.1-.1-.1-.1-.1-.1-.1-.1-.1-.1-.1-.1-.1-.1-.1-.1-.1-.1-.1-.1-.1-.1-.1-.1-.1-.1-.1-.1-.1-.1-.1-.1-.1-.1-.1-.1-.1-.1-.5-.8-.5-.8-.3-.4-.3-.4-.3-.4-.2-.4-.2-.4-.2-.4-.1-.3-.1-.2-.2-.4-.1-.2-.1-.2-.1-.2-.1-.2-.1-.2-.1-.2-.1-.2-.1-.2-.2-.3-.2-.3-.2-.3-.2-.3-.2-.3-.1-.3v-.1l-.2-.3-.2-.3-.2-.3-.2-.4-.2-.4-.2-.4-.2-.4-.1-.4-.1-.4-.1-.4-.1-.4-.1-.1-.1-.2-.1-.4-.1-.4-.1-.4-.1-.4-.1-.4-.1-.4-.1-.4-.1-.4-.1-.4-.1-.4v-.1l-.1-.2-.1-.4-.1-.4-.1-.4-.1-.4-.1-.4v-12l-.9.1zm11.9 33.2v.1-.1.1-.1z" transform="matrix(.91453 0 0 1.00056 15.229 25.365)"/></g></g><path class="st0" d="M179.9 135.3c9.5 0 17.2 10.1 17.2 22.6s-7.7 22.6-17.2 22.6-17.2-10.1-17.2-22.6c0-12.5 7.7-22.6 17.2-22.6z" transform="matrix(.879 .37774 -.42082 .9335 284.026 -78.52)"/><path class="st14" d="M197.9 216.5s-18 25.9-31.3 34.6l-3.3-3.6s-2.3 6 .9 11c4.2 6.5 11.2 1.1 11.2 1.1s27.9-20.2 34.8-26.3c3-2.7 6.3-10.3 6.3-10.3s2.7 26.7 4.6 44.3c2.1 19.3-.6 53.2-.2 63.8.8 20.3 9.7 82.1 8.6 90.7 0 0-4.6 14.1-2.5 16.5 2.1 2.3 14.7 3.2 16.4.5 1.7-2.8-.7-6.2-1.5-12.8-.9-6.6 5.1-121 7.9-143.1 0 0 17.2 123.8 18.5 134.8 0 0-1.4 8.6-2.1 13.5-.6 4-.6 8 6.3 7.6s11.3-.1 8-13.6 2.8-96.7-1.8-112c-4.5-15.2-9.9-146.2-9.9-146.2s26.1-30.9 27.1-41.5c0 0 8.7-41 5.9-59.8 0 0-5.7-10-7.7.3 0 0-12.1 44.3-15.3 57.1l-22.5 23s11.4 4.7 10.8 12.6c-.4 5.2-.8 11.3-19.3 38.8.2.1-31 13.7-49.9 19z" transform="matrix(1.09346 0 0 .99944 -16.652 -25.351)"/><g transform="matrix(1.09346 0 0 .99944 -16.652 -25.351)"><defs><path id="SVGID_9_" d="M197.9 216.5s-18 25.9-31.3 34.6l-3.3-3.6s-2.3 6 .9 11c4.2 6.5 11.2 1.1 11.2 1.1s27.9-20.2 34.8-26.3c3-2.7 6.3-10.3 6.3-10.3s2.7 26.7 4.6 44.3c2.1 19.3-.6 53.2-.2 63.8.8 20.3 9.7 82.1 8.6 90.7 0 0-4.6 14.1-2.5 16.5 2.1 2.3 14.7 3.2 16.4.5 1.7-2.8-.7-6.2-1.5-12.8-.9-6.6 5.1-121 7.9-143.1 0 0 17.2 123.8 18.5 134.8 0 0-1.4 8.6-2.1 13.5-.6 4-.6 8 6.3 7.6s11.3-.1 8-13.6 2.8-96.7-1.8-112c-4.5-15.2-9.9-146.2-9.9-146.2s26.1-30.9 27.1-41.5c0 0 8.7-41 5.9-59.8 0 0-5.7-10-7.7.3 0 0-12.1 44.3-15.3 57.1l-22.5 23s11.4 4.7 10.8 12.6c-.4 5.2-.8 11.3-19.3 38.8.2.1-31 13.7-49.9 19z"/></defs><clipPath id="SVGID_10_"><use xlink:href="#SVGID_9_" overflow="visible"/></clipPath><g clip-path="url(#SVGID_10_)"><path class="st4" d="M216.6 231.3l74.8-16.6 1.3 175.6-20.2 1.8-22 1.9-23.7.4-10.2-163.1z" transform="matrix(.91453 0 0 1.00056 15.229 25.365)"/><path d="M223.9 246.3v2.1-.1h.1v.1h-.1v-2.1z" fill-rule="evenodd" clip-rule="evenodd" fill="#00b59d" transform="matrix(.91453 0 0 1.00056 15.229 25.365)"/><path class="st6" d="M229.3 236.1v14.8l-.1 1.9-.1 1.9V371l.1.7.1.7-.2.2-.2-.2-.1-.7-.1-.7-.1-.7-.1-.7-.1-.7-.1-.7-.1-.7-.1-.7-.1-.7v-.8l-.1-.7v-13.4l-.1-1.5-.1-1.5v-34.3l-.1-5.9v-53.6l.1-1.9.1-1.9v-.5l.1-1.4.1-1.3v-1.3l.1-1.3.1-1.3.1-1.3v-7.7l.1-.1.1-.1.1-.1.1-.1-.1-.1.1-.1v1.4l.6.8zm0-1.7zm28 23.7l.1.1-.1.1h.1l.1.1.1.1.1.1.1.1.1.1.1.1.1.3.1.2v.1l.1.1.1.2.1.2.1.2.1.2.1.2.1.2.1.2.1.2.1.2.1.2.1.2.1.2.1.2.1.2.1.2.1.3.1.3.1.3.1.3.1.3.1.3.1.3.1.3.1.3.1.3.1.3.1.3.1.3.1.3.2.6.2.6.2.6.2.6.2.6.2.6.2.6.1.4.1.2.2.6.1.5.1.5.1.5.1.5.1.5.1.3v.2l.1.5.1.5.1.5.1.5.1.5.1.5.1.5.1.5.1.5.1.5.1.5.1.5.1.5.1.5.1.5.1.5.1.5.1.5.2.9.2.9.2.9.2.9.2.9.2.9.2.9.1.9.1.9.1.9.3 1.8.3 1.8.2 1.1.1.7.1.9.1.9.1.9.2.9.1.7.1.7.1.7.1.7.1.7.1.7.2 1.4.2 1.4.2 1.4.2 1.4.2 1.4.2 1.4.2 1.4.2 1.4.2 1.4.2 1.4.2 1.4.2 1.4.2 1.4.2 1.4.2 1.4.2 1.4.1.7.1.6.2 1.4.2 1.4.2 1.4.2 1.4.3 2.7.3 2.7.7 5.5.3 2.7.3 2.7.2 1.4.2 1.4.2 1.4.2 1.4.2 1.4.2 1.4.2 1.4.2 1.4.2 1.4.2 1.4.2 1.4.2 1.4.2 1.4.2 1.4.2 1.4.2 1.4.2 1.4.2 1.4.2 1.4.2 1.4.2 1.4.2 1v.3l.1.7.1.7.1.7.1.7.1.7.1.7.1.7v.2l.1.5.1.7.1.7.1.7.1.7-.2.3-.2-.2-.1-.7-.1-.7-.1-.7-.1-.7-.1-.5v-.2l-.1-.7-.1-.7-.1-.7-.1-.7-.1-.7-.1-.7-.1-.7-.1-.3-.2-1-.2-1.4-.2-1.4-.2-1.4-.2-1.4-.2-1.4-.2-1.4-.2-1.4-.2-1.4-.2-1.4-.2-1.4-.2-1.4-.2-1.4-.2-1.4-.2-1.4-.2-1.4-.2-1.4-.2-1.4-.2-1.4-.2-1.4-.2-1.4-.2-1.4-.4-2.7-.4-2.7-.7-5.5-.4-2.7-.4-2.7-.2-1.4-.2-1.4-.2-1.4-.2-1.4-.1-.6-.1-.7-.2-1.4-.2-1.4-.2-1.4-.2-1.4-.2-1.4-.2-1.4-.2-1.4-.2-1.4-.2-1.4-.2-1.4-.2-1.4-.2-1.4-.2-1.4-.2-1.4-.2-1.4-.2-1.4-.1-.7-.1-.7-.1-.7-.1-.7-.1-.7-.1-.7-.2-.9-.2-.9-.2-.9-.2-.9-.1-.7-.2-1.1-.3-1.8-.3-1.8-.9-1.3-.2-.9-.2-.9-.2-.9-.2-.9-.2-.9-.2-.9-.2-.9-.2-.9-.2-.9-.1-.5-.1-.5-.1-.5-.1-.5-.1-.5-.1-.5-.1-.5-.1-.5-.1-.5-.1-.5-.1-.5-.1-.5-.1-.5-.1-.5-.1-.5-.1-.5.4.1-.1-.4v-.2l-.1-.3-.1-.5-.1-.4-.1-.5-.1-.4-.1-.4-.1-.6v-.2l-.1-.4-.1-.6-.1-.6-.2-.6-.2-.6-.2-.6-.2-.6-.2-.6-.1-.3-.1-.3-.1-.3-.1-.3-.1-.3-.1-.3-.1-.3-.1-.3-.1-.3-.1-.3-.1-.3-.1-.3-.1-.3-.1-.3-.1-.2-.1-.2-.1-.2-.1-.2-.1-.2-.1-.2-.1-.2-.1-.2-.1-.2-.1-.2-.1-.2-.1-.2-.1-.2-.1-.2-.1-.2-.1-.2v-.2l-.1-.2-.1-.3v-1.3h.6zm11.8-2.8l-.2.2-.5.1-.5.1-.5.1-.5.1-.5.1-.5.1-.5.1-.5.1-.5.1-.5.1-.5.1-.5.1-.5.1-.5.1-.5.1-.4.1-.5.1-.5.1v-.3l-.5.1-.5.1h-.2l-.3.1-.9.2-.9.2-.5.1-.4.1-.9.2-.9.2-.6.1-.6.1-1.2.2-1.2.2-.6.1-.6.1h-1.8l-.3.1h-.4v-.3l-.1.2.1-.1.2-.1h.1l.3-.1h.2l.2-.1.2-.1.2-.1.2-.1.2-.1.2-.1h.4l.6-.1.6-.1 1.2-.2 1.2-.2.6-.1.6-.1.9-.2.9-.2.4-.1.5-.1.9-.2.9-.2h.5l.5-.1.5-.1.5-.1.5-.1.5-.1.5-.1.5-.1.5-.1.5-.1.5-.1.5-.1.5-.1.5-.1.5-.1.5-.1.5-.1.5-.1.5-.1.5-.1.5-.1.5-.1-.3 1zm-37.8-16.6l.1.1v.1l.1.1v.4l.1.2.1.2.1.2.1.2.1.2.1.2.1.2.1.2.1.2.1.3.1.3.1.3v.1l.1.2.1.3.1.2.1.2.1.2.1.2.1.2.1.2.1.2.1.1.1.1.1.1.1.1.1.1.1.1.1.1.1.1.1.1.1.1v.1l.1.1.1.1.1.1.1.1.1.1.1.1.1.1.1.1.1.1.1.1.1.1.1.1.1.1.1.1.1.1.1.1.1.1.1.1.1.1.1.1.1.1.1.1.1.1.1.1.1.1.1.1.1.1.1.1.1.1.1.1.1.1h5.2l.1-.1.1-.1.1-.1.1-.1.1-.1.1-.1.1-.1.1-.1.1-.1.1-.1.1-.1.1-.1.1-.1.1-.1.1-.1.1-.1.1-.1.1-.1.1-.1.1-.1.1-.1.1-.1.1-.1.1-.1.1-.1.1-.1.1-.1.1-.1.1-.1.1-.1.1-.1.1-.1.1-.1.1-.1.1-.1.1-.1.1-.1.1-.1.1-.1.1-.1.1-.1.1-.1.1-.1.1-.1.1-.1.1-.1.1-.1.1-.1.1-.1.1-.1.1-.1.1-.1.1-.1.1-.1.1-.1.1-.1.1-.1.1-.1.1-.1.1-.1.1-.1.1-.1.1-.1.1-.1.1-.1.1-.1.1-.1.1-.1.1-.1.1-.2.1-.2.1-.2.1-.2.1-.2v-1.2l.2-.1.1.2v1.2l-.1.2-.1.2-.1.2-.1.2-.1.2v.1l-.1.1-.1.1-.1.1-.1.1-.1.1-.1.1-.1.1-.1.1-.1.1-.1.1-.1.1-.1.1-.1.1-.1.1-.1.1-.1.1-.1.1-.1.1-.1.1-.1.1-.1.1-.1.1-.1.1-.1.1-.1.1-.1.1-.1.1-.1.1-.1.1-.1.1-.1.1-.1.1-.1.1-.1.1-.1.1-.1.1-.1.1-.1.1-.1.1-.1.1-.1.1-.1.1-.1.1-.1.1-.1.1-.1.1-.1.1-.1.1-.1.1-.1.1-.1.1-.1.1-.1.1-.1.1-.1.1-.1.1-.1.1-.1.1-.1.1-.1.1-.1.1-.1.1-.1.1-.1.1-.1.1-.1.1-.1.1-.1.1-.1.1-.1.1-.1.1h-5l-.1-.1-.1-.1-.1-.1-.1-.1-.1-.1-.1-.1-.1-.1-.1-.1-.1-.1-.1-.1-.1-.1-.1-.1-.1-.1-.1-.1-.1-.1-.1-.1-.1-.1-.1-.1-.1-.1-.1-.1-.1-.1-.1-.1-.1-.1-.1-.1-.1-.1-.1-.1-.1-.1-.1-.1-.1-.1-.1-.1-.1-.1v-.2l-.1-.1-.1-.1-.1-.1-.1-.1-.1-.1-.1-.1-.1-.1-.1-.1v-.2l-.1-.3-.1-.2-.1-.3-.1-.3-.1-.2-.1-.2-.1-.2-.1-.3-.1-.2v-.1l-.1-.3-.1-.3-.1-.3v-.8l-.1-.2-.1-.2-.1-.2-.1-.2-.1-.3v-.6h-1.1zm.1.1zm26.1-4.2l.1.2.1.2.1.2.1.2.1.2v16.3l-.1.6-.1.7-.1.6-.1.9v1.7h-.2v-.2l.1-.2v-.2l-.1-.1v-21l.1-.1zm21.2-2.1v8.6l-.1.2-.1.2-.1.2-.1.2-.1.2-.1.2-.1.2-.1.2-.1.2-.1.2-.1.2-.1.2-.1.2-.1.2-.1.2-.1.2-.1.2-.1.2-.1.2-.1.2-.1.2-.1.1-.1.1-.1.1-.1.1-.1.1-.1.1-.1.1-.1.1-.1.1-.1.1-.1.1-.1.1-.1.1-.1.1-.1.1-.1.1-.1.1-.1.1-.1.1-.1.1-.1.1-.1.1h-5.9l-.1-.1-.1-.1-.1-.1-.1-.1-.1-.1-.1-.1-.1-.1-.1-.1-.1-.1-.1-.1-.1-.1-.1-.1-.1-.1-.1-.1-.1-.1-.1-.1-.1-.1-.1-.1-.1-.1-.1-.1-.1-.1-.1-.1-.1-.1-.1-.1-.1-.1-.1-.1-.1-.2-.1-.2 3.3-1.5-.1-.2-.1-.2-.1-.2-.1-.2-.1-.2-.1-.2-.1-.2-.1-.2-.1-.2-.1-.2-.1-.2-.1-.2-.1-.2-.1-.2-.1-.2-.1-.2-.1-.2-.1-.2-.1-.2-.1-.2-.1-.2-.1-.3-.1-.2v-.1l-.1-.3-.1-.3-.1-.3-.1-.3v-4.6.3l.1.3v4l.1.2.1.3.1.3.1.3v.1l.1.2.1.3v.6l.1.2.1.2.1.2.1.2.1.2.1.2.1.2.1.2.1.2.1.2.1.2.1.2.1.2.1.2.1.2.1.2.1.1.1.1.1.1.1.1.1.1.1.1.1.1.1.1.1.1v.9l.1.1v.1l.1.1.1.1.1.1.1.1.1.1.1.1h7.1l.1-.1h.1l.1-.1.1-.1.1-.1.1-.1.1-.1.1-.1.1-.1.1-.1.1-.1.1-.1.1-.1.1-.1.1-.1.1-.1.1-.1.1-.1.1-.1.1-.2.1-.2.1-.2.1-.2.1-.2.1-.2.1-.2.1-.2.1-.2.1-.2.1-.2.1-.2.1-.2.1-.2.1-.2.1-.2.1-.2.1-.2v-8.4l-2.3 1.2zm-11.9 1.1z" transform="matrix(.91453 0 0 1.00056 15.229 25.365)"/><path class="st0" d="M227.6 185.5h.2l.1.1.1.1v.9h-1.4l-.2.1-.2.1-.2.1-.2.1-.2.1h1.4l.1.1v.1l.1.1v.2h.1l.6.2-.3.6-.2.1-.2.1-.2.1-.2.1-.2.1.1.1.1.1.1.1.1.1v.5l-.1.1-.1.1-.1.1h-.4l-.2.1-.2.1h-.7l-.6.1-.6.1-.6.1-.6.1-.6.1-.6.1-.6.1-.6.1-.6.1-.6.1-.6.1-.6.1-.6.1-.6.1-.6.1-.6.1-.6.1-.6.1-.6.1-.6.1-.6.1-.6.1-.6.1-.6.1-.6.1h-.7l-.6.1h-12l-.2.1h-6.8l-.1-.1v-1h-2.2v-.8h5.9-.9l-.1-.1-.1-.1v-.7l.1-.1.1-.1.1-.1h6.1l.3-.1.3-.1.3-.1.3-.1.3-.1.3-.1.3-.1.3-.1.3-.1.3-.1.3-.1.3-.1.3-.1.3-.1.3-.1.3-.1.3-.1.3-.1.3-.1.3-.1.3-.1.3-.1.3-.1.3-.1.3-.1.3-.1.6-.2.6-.2.6-.2.6-.2.6-.2.6-.2.6-.2.6-.2.6-.2.6-.2.3-.1.3-.1.6-.2.6-.2.6-.2.6-.2.4-.1.4-.1.4-.1.4-.1.8-.2.4-.1.4-.1.4-.1.3-.1.2-.1.2-.1.2-.1.2-.1.2-.1.2-.1.2-.1.2-.1.1-.1.1-.1.1-.1.1-.1.1-.1.1-.1.1-.1h3.2l.1.1.1.1.2-.1.2-.1h3l.1.1.1.1.1.1v.5l.1.1v.7l-.1.1-.1.1-.1.1h-.6l-.1.1-.1.1-.1.1-.1.1-.2.1-.2.1-.2.1-.2.1-.2.1-.2.1-.2.1-.2.1-.2.1-.3.1v.5l.2-.1.3-.1h1l.1-.1.2-.1.1-.1.1-.1h.7l-.7.5zm-34.1 9.2h-.5.6-.1zm-.5.2z" transform="matrix(.91453 0 0 1.00056 15.229 25.365)"/><path class="st6" d="M274.6 105.7l23.5 17.9-16.8 30.6 4 71.4s-5 11.3-30.7 13.8c-19.8 2-31.9.3-31.9.3l-5.6-82.6 57.5-51.4z" transform="matrix(.91453 0 0 1.00056 15.229 25.365)"/><g transform="matrix(.91453 0 0 1.00056 15.229 25.365)"><defs><path id="SVGID_11_" d="M274.6 105.7l23.5 17.9-16.8 30.6 4 71.4s-5 11.3-30.7 13.8c-19.8 2-31.9.3-31.9.3l-5.6-82.6 57.5-51.4z"/></defs><clipPath id="SVGID_12_"><use xlink:href="#SVGID_11_" overflow="visible"/></clipPath><g clip-path="url(#SVGID_12_)"><path class="st4" d="M261 120.8c.3 0 16 18.2 19.5 24.5 1 1.8 19-22 17.7-24.5-1.3-2.3-20.8-24.2-24.3-21.3L261 120.8z"/></g></g></g></g><path d="M235.4 91.6c-.7-14.3 7.2-22 21-19.3 9 1.7 15.4 9 11.4 21.1-.3 1-.7 2.1-1 3.3 1-1.2 2.1-2.3 3.2-2.2 2.4.2 1.3 6.4 0 8.3-4.3 6.4-6.4 3.7-6.5 3.4-1.2 2.8-2.6 5.4-4.4 7.5-.2 4.4-.3 7.9.8 9.7.5.7 3.4 1.2 5.3 4.9 2.1 4.1 2 7.8 2 7.8L245 160.8l-36.9-1.8c0-15.1 4.1-34.9 12.6-34.6 3.4.1 15.8 0 17.7-2.3.6-.7 1.6-4.3 2.3-7.8-2.7-3.6-3.9-7.1-4.6-11-.3.1-.5.1-.9.1 0 0-3.1-1.7-4.1-4.6-.3-1-.5-2.1-.5-3.2 0-2.8 1.1-4.2 1.4-4.4.4-.2.5-.4 1.2-.3 1.2-.1 1.8.3 2.2.7z" fill-rule="evenodd" clip-rule="evenodd" fill="#f4b2ab"/><defs><path id="SVGID_13_" d="M235.4 91.6c-.7-14.3 7.2-22 21-19.3 9 1.7 15.4 9 11.4 21.1-.3 1-.7 2.1-1 3.3 1-1.2 2.1-2.3 3.2-2.2 2.4.2 1.3 6.4 0 8.3-4.3 6.4-6.4 3.7-6.5 3.4-1.2 2.8-2.6 5.4-4.4 7.5-.2 4.4-.3 7.9.8 9.7.5.7 3.4 1.2 5.3 4.9 2.1 4.1 2 7.8 2 7.8L245 160.8l-36.9-1.8c0-15.1 4.1-34.9 12.6-34.6 3.4.1 15.8 0 17.7-2.3.6-.7 1.6-4.3 2.3-7.8-2.7-3.6-3.9-7.1-4.6-11-.3.1-.5.1-.9.1 0 0-3.1-1.7-4.1-4.6-.3-1-.5-2.1-.5-3.2 0-2.8 1.1-4.2 1.4-4.4.4-.2.5-.4 1.2-.3 1.2-.1 1.8.3 2.2.7z"/></defs><clipPath id="SVGID_14_"><use xlink:href="#SVGID_13_" overflow="visible"/></clipPath><g clip-path="url(#SVGID_14_)"><path class="st6" d="M202.7 162.1l13.9 10.9 30.9-5 28-31.8L261 122s-9.7 13.4-26.8.2l-17.7-2.1s-4.7 5.6-8.3 18.2l-5.5 23.8z"/><path class="st4" d="M220.4 120.4c.3-.1.2.6.4.8.7.9 1.2 1.9 1.7 2.9 1.8 4.2 2.4 8.7 2.7 13.2.4 7.7 0 15.6-.3 23.3-.1 3.6-.2 8.2-2.5 11.1-4.2 5.5-14 2.8-17.4-2.2-2.8-4.2-2.9-9.9-2.6-14.7.4-5.5 1.4-11 2.7-16.3l15.3-18.1z"/></g><path class="st20" d="M351.5 301.5s-6.2 32.6-5.3 42.1c.9 9.5 3.8 17.3-7.5 59 0 0-4.6 14.9-3.4 23.1 0 0 3.1 4.6-1.6 4.3l-14.2 2s-3.9-.1 0-2 9.1-2.4 10-8.8c.8-6.3-3.2-80.6-3.2-80.6s-.7-33.6 25.2-39.1z" transform="matrix(1.09346 0 0 .99944 -16.652 -25.351)"/><path class="st0" d="M386.4 167.3c15.8-10.7 55.5-38.9 70.9-62.9 0 0 4.1-5.4 9-2.3 4.6 2.9-33.7 59.1-81.1 86.4-.3.9-.7 1.9-1.2 2.8-7.7 16.8-12.9 24.5-15.3 33.3 0 0 31.1 16.7 13 46.9s-26.6 49-26.6 49 22.6 3.9 40 57.5c1.4 4.4 7.5 5.7 7.4 11.8 0 3-15.1 11.1-21 13.9l-10.1.8s-1.2-2.5 4.7-4.3c5.9-1.8 16.2-11.2 13.4-16.7-2.8-5.4-45.3-51.8-52.8-61.6-7.5-9.8-2.5-61.1.9-81.3 3.3-20.2 1.3-34.9 1.3-34.9s-5.5-59.2 45.3-43.6c.2-.1 1.3 1.9 2.2 5.2z"/><defs><path id="SVGID_15_" d="M386.4 167.3c15.8-10.7 55.5-38.9 70.9-62.9 0 0 4.1-5.4 9-2.3 4.6 2.9-33.7 59.1-81.1 86.4-.3.9-.7 1.9-1.2 2.8-7.7 16.8-12.9 24.5-15.3 33.3 0 0 31.1 16.7 13 46.9s-26.6 49-26.6 49 22.6 3.9 40 57.5c1.4 4.4 7.5 5.7 7.4 11.8 0 3-15.1 11.1-21 13.9l-10.1.8s-1.2-2.5 4.7-4.3c5.9-1.8 16.2-11.2 13.4-16.7-2.8-5.4-45.3-51.8-52.8-61.6-7.5-9.8-2.5-61.1.9-81.3 3.3-20.2 1.3-34.9 1.3-34.9s-5.5-59.2 45.3-43.6c.2-.1 1.3 1.9 2.2 5.2z"/></defs><clipPath id="SVGID_16_"><use xlink:href="#SVGID_15_" overflow="visible"/></clipPath><g clip-path="url(#SVGID_16_)"><path class="st20" d="M357.7 318.6c.4.1 0 .4 1 .3 0 0 .9.4.3 1l-2.8.4c-.2.1-.4.1-.6.2-3.9 1.2-8.1 1.1-12.2 1 0 0-5.1.2-9.3-.4 0 0-1.3-.1-1.3-.7-3.7-.7-1.7-.8-1.2-1.1-2.4-.3-1.8-.1-2-.6-.6-1.1 1.5-.7 1.5-.7 1.2.2.1-.2 1.5-.2 0 0 6.1.5.1-.4-1.2-.2-.1-.6-.1-1.1.1-.6.6-.3 2.5-.2 0 0 1 0 2-.1 9-.5 18.2-.1 26.9-1.8.2 0 .4 0 .6-.1.9-.1 2.1-.2 2.1-.2l-2.5 1.1c-1.8.5-3.7.8-5.6 1.1 0 0 .2 1.1-.4 1.4-2 1.2-1.8.8-2.4.9 0 0-1.3.2 1.2.1h.3c.2.1.3.1.4.1z"/></g><path class="st12" d="M349.4 175.8s-1.1 14.9-10 31.9L327 315.6s46.2 4.1 59.2-3.1c0 0 11.4-52.7-4.9-80.2-1.8-3-6.3-13.3-4.5-20.2s7.4-21.9 7.4-21.9l-6.8-22.8-28 8.4z"/><defs><path id="SVGID_17_" d="M349.4 175.8s-1.1 14.9-10 31.9L327 315.6s46.2 4.1 59.2-3.1c0 0 11.4-52.7-4.9-80.2-1.8-3-6.3-13.3-4.5-20.2s7.4-21.9 7.4-21.9l-6.8-22.8-28 8.4z"/></defs><clipPath id="SVGID_18_"><use xlink:href="#SVGID_17_" overflow="visible"/></clipPath><g clip-path="url(#SVGID_18_)"><path class="st13" d="M346.3 193l.1.1v1.6l-.1.8-.1.8-.1.8-.1.8-.1.7-.1.7-.1.7-.1.7v.1l-.2 1.2-.2 1.3-.5 2.6-.2 1.3-.2 1.3-.2.9-.2.9-.2.9-.2.9-.2.9-.1.9-.1.9-.1.9-.1.9-.1.9-.1.9-.1.9-.1.9-.1.9-.1.9-.1.9-.1.9-.1.9-.1.9-.1.9-.1.9-.1.9-.1.9-.1.9-.1.9-.1.9-.1.9-.1.9-.1.9-.1.9-.1.9-.1.9-.1 1-.1 1-.2 1.9-.2 1.9-.2 1.9-.2 1.9-.2 1.9-.4 3.9-.2 1.9-.2 1.9-.2 1.9-.2 1.9-.2 1.6v.4l-.2 1.9-.1 1-.1 1-.1 1-.1 1-.1 1-.1 1-.1 1-.1 1-.1 1-.1 1-.1 1-.1 1-.1 1-.1 1-.1 1-.1 1-.1 1-.1 1-.1 1-.1 1-.1 1-.1 1-.1 1-.1 1-.1 1-.1 1-.1 1-.1 1-.1 1-.1 1-.1 1v6.8l-.1 1.8-.1 1.8v20.1l.1.5v4.1l-.2.3-.3-.2-.1-.2v-3l-.1-.5v-.4l-.1-.5v-20.1l.1-1.8.1-1.8v-6.8l.1-1 .1-1 .1-1 .1-1 .1-1 .1-1 .1-1 .1-1 .1-1 .1-1 .1-1 .1-1 .1-1 .1-1 .1-1 .1-1 .1-1 .1-1 .1-1 .1-1 .1-1 .1-1 .1-1 .1-1 .1-1 .1-1 .1-1 .1-1 .1-1 .1-1 .1-1 .2-1.9v-.4l.2-1.6.2-1.9.2-1.9.2-1.9.2-1.9.4-3.9.2-1.9.2-1.9.2-1.9.2-1.9.2-1.9.1-1 .1-1 .1-.9.1-.9.1-.9.1-.9.1-.9.1-.9.1-.9.1-.9.1-.9.1-.9.1-.9.1-.9.1-.9.1-.9.1-.9.1-.9.1-.9.1-.9.1-.9.1-.9.1-.9.1-.9.1-.9.1-.9.1-.9.1-.9.1-.9.2-.9.2-.9.2-.9.2-.9.2-.9.2-1.3.2-1.3.5-2.6.2-1.3.2-1.2v-.1l.1-.6.1-.6.1-.6.1-.6.2-.8.2-.8.2-.8.2-.8v-.8l.1-.3v-.5l.1-.6zm-.2.2zm.2 0zm0 0zm0 0zm6.8 29.3l.3.5.2.3.2.2.2.3.2.3.2.3.2.3.3.4.3.4.3.4.3.4.3.4.3.4.2.2.1.2.3.4.3.4.3.4.3.4.3.4.3.4.3.4.3.4.3.4.2.3.2.3.2.3.2.3.1.2.1.1.2.3.2.3.2.3.2.3.2.3.2.3.2.3.2.3.2.3.2.3.3.3.3.3.3.3.3.3.3.3.3.3.3.3.3.2.3.2.3.2.3.2.3.2.3.2.3.2.3.2.3.2.3.2.3.2.1.1.1.1.1.1.1.1h.1l.1.1.1.1.1.1.1.1.1.1.1.1.1.1.1.1.1.1.1.1.1.1.1.1.1.1.1.1.1.1.1.1.2.1.1.1.2.1.2.1.2.1.2.1.2.1.2.1.2.1.2.1.2.1.2.1.2.1.2.1.2.1.2.1.2.1.1.1.2.1.2.1.2.1.2.1.2.1.2.1.2.1.2.1.2.1.2.1.2.1.2.1.2.1.2.1.2.1.2.1.2.1.2.1.2.1.2.1.2.1.2.1.2.1.2.1.1.1-.1.1-.2-.1-.2-.1-.2-.1-.2-.1-.2-.1-.2-.1-.2-.1-.2-.1-1.5-.5-.2-.1-.2-.1-.2-.1-.2-.1-.2-.1-.2-.1-.2-.1-.2-.1-.2-.1-.2-.1-.2-.1-.2-.1-.2-.1-.2-.1-.2-.1-.1-.1-.2-.1-.2-.1-.2-.1-.2-.1-.2-.1-.2-.1-.2-.1-.2-.1-.2-.1-.2-.1-.2-.1-.2-.1-.2-.1-.2-.1-.2-.1-.1-.1-.2-.1-.2-.1-.2-.1-.2-.1-.2-.1-.2-.1-.2-.1-.2-.1-.2-.1-.2-.1-.2-.1-.2-.1-.2-.1-.2-.1-.2-.1-.2-.1-.2-.1h-.1l-.1-.1-.1-.1-.1-.1-.1-.1-.3-.2-.3-.2-.3-.2-.3-.2-.3-.2-.3-.2-.3-.2-.3-.3-.3-.3-.3-.3-.3-.3-.3-.3-.3-.3-.3-.3-.3-.3-.3-.3-.3-.3-.3-.3-.3-.3-.3-.3-.2-.3-.2-.3-.2-.3-.2-.3-.2-.3-.2-.3-.2-.3-.2-.3-.1-.1-.1-.2-.2-.3-.2-.3-.2-.3-.2-.3-.3-.4-.3-.4-.3-.4-.3-.4-.3-.4-.3-.4-.3-.4-.3-.4-.3-.4-.1-.2-.2-.2-.3-.4-.3-.4-.3-.4-.3-.4-.3-.4-.3-.4-.2-.3-.2-.3-.2-.3-.2-.3-.1-.2-.1-.3-.3-.6v-.7l-.1-.2v-.3h-.1l-.2-.1v-.1.7l.1.1.1.2.1.1 3 1zm8.4-6.7l.1.3.1.2.1.2.1.2.1.2.1.2.1.2.1.2v.1l.1.2.1.2.1.2.1.2.1.2.1.2v.1l.1.2.1.2.1.2.1.2.1.2.1.2.1.2.1.2.1.2.1.2.1.2.1.2.1.2.1.2.1.2.1.2.1.2.1.2.1.2.1.2.1.2.1.2.1.2.1.2.1.2.1.2.1.2.1.2.1.2.1.2.1.2.1.2.1.2.1.2.1.2.1.2.1.2v.1l.1.1.1.2.1.2.1.2.1.2.1.2.1.2.1.2.1.2.1.2.1.2.1.2.1.2.1.2.1.2.1.1.1.1.1.2.1.2.1.2.2.2.2.2.1.2v.1l.2.2.2.2.2.2.2.2.2.2.2.2.2.2v.1l.1.1.1.2.1.1v.1l.1.1.1.1.1.1.1.1h.1v.1l-.1-.1-.1-.1-.1-.1-.1-.1h-.1l-.1-.1-.2-.1-.1-.1-.1-.1-.2-.2-.2-.2-.2-.2-.2-.2-.2-.2-.2-.2-.2-.2v-.1l-.1-.2-.2-.2-.2-.2-.2-.2-.2-.2-.2-.2-.1-.1-.1-.1-.2-.2-.2-.2-.2-.2-.2-.2-.1-.2-.1-.2-.1-.2-.1-.2-.1-.2-.1-.2-.1-.2-.1-.2-.1-.2-.1-.2-.1-.2v-.1l-.1-.2-.1-.2-.1-.2-.1-.2-.1-.2-.1-.2-.1-.2-.1-.2-.1-.2-.1-.2-.1-.2-.1-.2-.1-.2-.1-.2-.1-.2-.1-.2-.1-.2-.1-.2-.1-.2-.1-.2-.1-.2-.1-.2-.1-.2-.1-.3-.1-.3-.1-.3-.1-.3-.1-.3-.1-.3-.1-.3-.1-.3-.1-.2-.1-.3-.1-.3-.1-.3-.1-.3v-.3l-.1-.3-.1-.3-.1-.3v-3.3l.1-.2-.4 2.4z"/></g><path class="st1" d="M371.6 164c-.8-.2-.7 1.4-.7 2.2-.1 2.8-.4 4.7 1.4 7.2 3.2 4.2 9.2 3.3 11.9 8.3.6 1 1.2 4 1 5.2-1.7 7-10.3 15.8-2.9 22.4 1 .9 7.2 5.3 11.9 2.3 6.2-3.9 6.9-7.3 6-11.1-.6-2.8-3.2-6.7-2.2-9.9.6-2 9.4-9.5 3.6-17.6-2.2-3-10.2-3.2-12.1-3.9-5-1.8-6.3-6.9-12-7.8-2.4-.4-4.8-.1-4.8 2.7h-1.1m19-49.5c-2.6-1.7-11.6-7.4-18.6-3.7-17.2 9.1-17.1 27.9-15.7 35.7 1.3 7.7 5.2 10 12.1 11.8 15.8 4 27.8-14.5 27.8-28.4 0-4.8-1-12.3-5.6-15.4z"/><path d="M317.8 137.8c-4.3-5.5-4.9-14.9-.9-23.9 5.2-11.6 16.3-18.1 24.6-14.6 8.4 3.6 10.9 15.9 5.6 27.6-3 6.7-8 11.7-13.2 14.1-.1 2.2.4 4.2 2.1 5.2 9.8 5.7 69.7 11 57.2 20.4s-49.5 8.3-49.5 8.3-7.6 13.9-12 22.7c-4.3 8.8 5.7 21.8 5.7 21.8 30.2 29.5-2.8 91.2-2.8 91.2 11.3 18.1 1.1 67.8.2 74.9s2.1 16.1 3 18.4-3 3.8-7 4c-4.1.2-4-1.8-4-1.8.1-6-.1-5.7-.6-14.3-.5-8.6-12.2-78.9-12.2-78.9.1 13.8-5.4 75.4-3.8 81.3 1.7 5.9 4.4 8.5-.4 11.2-4.9 2.7-22.1 5.9-16.6 3.2 5.5-2.8 7.9-6.3 7.9-6.3 1-5.7-2-21.9-2-21.9-6.7-28.4-15.5-71-15.5-71-28.8-53.4 6.4-94.8 6.4-94.8-1.4-11.7-3.3-28-3.3-28-7.2 7.6-11.6 10.6-25 21.8-4.1 3.4-8.1 6-11.8 7.8-16.9 8.2-29.5 2.1-29.5 2.1-3.5-3.9.7-5.8.7-5.8 20.6-4.5 42.6-28 53-43.3 10.3-15.3 20.5-28.6 32.7-26.7 2.3.4 4.9.7 7.4 1.1.8 0 2.2-2.8 3.6-5.8z" fill-rule="evenodd" clip-rule="evenodd" fill="#f3cabd"/><defs><path id="SVGID_19_" d="M317.8 137.8c-4.3-5.5-4.9-14.9-.9-23.9 5.2-11.6 16.3-18.1 24.6-14.6 8.4 3.6 10.9 15.9 5.6 27.6-3 6.7-8 11.7-13.2 14.1-.1 2.2.4 4.2 2.1 5.2 9.8 5.7 69.7 11 57.2 20.4s-49.5 8.3-49.5 8.3-7.6 13.9-12 22.7c-4.3 8.8 5.7 21.8 5.7 21.8 30.2 29.5-2.8 91.2-2.8 91.2 11.3 18.1 1.1 67.8.2 74.9s2.1 16.1 3 18.4-3 3.8-7 4c-4.1.2-4-1.8-4-1.8.1-6-.1-5.7-.6-14.3-.5-8.6-12.2-78.9-12.2-78.9.1 13.8-5.4 75.4-3.8 81.3 1.7 5.9 4.4 8.5-.4 11.2-4.9 2.7-22.1 5.9-16.6 3.2 5.5-2.8 7.9-6.3 7.9-6.3 1-5.7-2-21.9-2-21.9-6.7-28.4-15.5-71-15.5-71-28.8-53.4 6.4-94.8 6.4-94.8-1.4-11.7-3.3-28-3.3-28-7.2 7.6-11.6 10.6-25 21.8-4.1 3.4-8.1 6-11.8 7.8-16.9 8.2-29.5 2.1-29.5 2.1-3.5-3.9.7-5.8.7-5.8 20.6-4.5 42.6-28 53-43.3 10.3-15.3 20.5-28.6 32.7-26.7 2.3.4 4.9.7 7.4 1.1.8 0 2.2-2.8 3.6-5.8z"/></defs><clipPath id="SVGID_20_"><use xlink:href="#SVGID_19_" overflow="visible"/></clipPath><g clip-path="url(#SVGID_20_)"><path class="st9" d="M290.8 212.6s-24.8 31.5-19.7 59.3c5.1 27.8 21.3 102 21.3 102s10.3 5.7 21.8-.1v-60.7l8 61.8s9.1 5.3 17.3-2.1c0 0 3.8-59.3 6-71.4s17.2-71.8-11.6-90.7c0 0-15.7 13.8-43.1 1.9z"/><defs><path id="SVGID_21_" d="M290.8 212.6s-24.8 31.5-19.7 59.3c5.1 27.8 21.3 102 21.3 102s10.3 5.7 21.8-.1v-60.7l8 61.8s9.1 5.3 17.3-2.1c0 0 3.8-59.3 6-71.4s17.2-71.8-11.6-90.7c0 0-15.7 13.8-43.1 1.9z"/></defs><clipPath id="SVGID_22_"><use xlink:href="#SVGID_21_" overflow="visible"/></clipPath><g clip-path="url(#SVGID_22_)"><path class="st11" d="M295.3 213l.1.1-.1.1v.1l-.1.1-.1.1-.1.1-.1.1-.1.1-.1.1-.1.1-.1.1-.1.1-.1.1-.1.1-.1.1-.1.1-.1.1-.1.2-.1.2-.1.2-.1.2-.1.2-.1.2-.1.2-.2.3-.2.3-.2.3-.2.3-.2.3-.1.3-.2.3-.3.6-.3.5-.1.3-.1.2-.1.2-.1.2-.2.4-.2.4-.2.4-.2.4-.2.4-.2.4-.2.4-.2.4-.2.4-.2.4-.2.4-.2.4-.2.4-.2.4-.2.4-.2.4-.2.4-.2.4-.2.4-.2.4-.2.4-.2.4-.2.4-.2.4-.2.4-.2.4-.2.4-.2.4-.2.4-.2.4-.2.4-.2.4-.2.4-.2.4-.2.4-.2.4-.2.4-.2.4-.2.4-.2.4-.2.4-.1.4-.1.4-.1.4-.1.4-.1.4-.1.4-.1.4-.1.4-.1.4-.1.4-.1.4-.6 2-.1.4-.1.4-.1.4-.1.4-.1.4-.1.4-.1.4-.1.4-.1.4-.1.4-.1.4-.1.6-.1.3-.1.3-.1.3-.1.3-.1.3-.1.3-.1.3-.1.3-.1.3-.1.3-.1.3-.1.3-.1.3-.1.3v25.2l.1.3.1.3.1.3.1.3.1.3.1.3.1.3.1.3.1.3.1.3.1.3.1.3.1.3.1.3.1.3.1.3.1.3.1.3.1.3.1.3.1.3.1.3.1.3.1.3.1.3.1.3.1.3.1.3.1.2.1.2.1.2.1.2.1.2.1.2.2.4.2.4.2.4.2.4.2.4.2.4.2.4.2.4.2.4.2.4.2.4.2.4.2.4.2.4.2.4.2.4.2.4.4.8.4.8.6 1.3.1.3.4.8.4.8.2.4.2.4.2.4.2.4.2.4.2.4.2.4.2.4.2.4.2.4.2.4.2.4.2.4.2.4.2.4.2.4.2.4.2.4.1.2.1.2.1.2.1.2.1.2.1.2.1.2.1.2.1.2.1.2.1.2.1.2.1.2.1.2.1.2.1.2.1.2.1.2.1.2.1.2.1.2.1.2.1.2.1.2.1.2.1.2v.8l.1.4.1.4.1.4.1.4.1.4.1.4.1.4.1.4v33.9l.1.5.1.5v.5l.1.5.1.5.1.5.1.5.1.5.1.5.1.5.1.5.1.5.1.5.1.5.1.5.1.5.1.5.1.5.1.5.1.5.1.5.1.5.1.5.1.5.1.9.2.9.2.9.2.9.2.9.2.9.2.9.2.9-.2.4-.4-.2-.2-.9-.2-.9-.2-.9-.2-.9-.2-.9-.2-.9-.2-.9-.2-.9-.1-.5-.1-.5-.1-.5-.1-.5-.1-.5-.1-.5-.1-.5-.1-.5-.1-.5-.1-.5-.1-.5-.1-.5-.1-.5-.1-.5-.1-.5-.1-.5-.1-.5-.1-.5-.1-.5-.1-.5-.1-.5v-.5l-.1-.5-.1-.5-.1-.5-.1-.5-.1-.5-.1-.5-.1-.5v-31.4l-.1-.4-.1-.4-.1-.4-.1-.4-.1-.4-.1-.4-.1-.4-.1-.4v-.8l-.1-.2-.1-.2-.1-.2-.1-.2-.1-.2-.1-.2-.1-.2-.1-.2-.1-.2-.1-.2-.1-.2-.1-.2-.1-.2-.1-.2-.1-.2-.1-.2-.1-.2-.1-.2-.1-.2-.1-.2-.1-.2-.1-.2-.1-.2-.1-.2-.1-.2-.1-.2-.1-.4-.2-.4-.2-.4-.2-.4-.2-.4-.2-.4-.2-.4-.2-.4-.2-.4-.2-.4-.2-.4-.2-.4-.2-.4-.2-.4-.2-.4-.2-.4-.2-.4-.2-.4-.4-.8-.4-.8-.1-.3-.6-1.3-.4-.8-.4-.8-.2-.4-.2-.4-.2-.4-.2-.4-.2-.4-.2-.4-.2-.4-.2-.4-.2-.4-.2-.4-.2-.4-.2-.4-.2-.4-.2-.4-.2-.4H280l-.2-.4-.1-.2-.1-.2-.1-.2-.1-.2-.1-.2-.1-.2-.1-.3-.1-.3-.1-.3-.1-.3-.1-.3-.1-.3-.1-.3-.1-.3-.1-.3-.1-.3-.1-.3-.1-.3-.1-.3-.1-.3-.1-.3-.1-.3-.1-.3-.1-.3-.1-.3-.1-.3-.1-.3-.1-.3-.1-.3-.1-.3-.1-.3-.1-.3-.1-.3-.1-.3v-24.9l.1-.3.1-.3.1-.3.1-.3.1-.3.1-.3.1-.3.1-.3.1-.3.1-.3.1-.3.1-.3.1-.3.1-.3.1-.3.1-.6.1-.4.1-.4.1-.4.1-.4.1-.4.1-.4.1-.4.1-.4.1-.4.1-.4.1-.4.1-.4.1-.4.1-.4.1-.4.1-.4.1-.4.1-.4.1-.4.1-.4.1-.4.1-.4.2-.4.2-.4.2-.4.2-.4.2-.4.2-.4.2-.4.2-.4.2-.4.2-.4.2-.4.2-.4.2-.4.2-.4.2-.4.2-.4.2-.4.2-.4.2-.4.2-.4.2-.4.2-.4.2-.4.2-.4.2-.4.2-.4.2-.4.2-.4.2-.4.2-.4.2-.4.2-.4.2-.4.2-.4.2-.4.2-.4.2-.4.2-.4.2-.4.2-.4.2-.4.2-.4.1-.2.1-.2.1-.2.1-.2.3-.5.3-.6.2-.3.2-.3.2-.3.2-.3.2-.3.2-.3.2-.3.1-.2.1-.2.1-.2.1-.2.1-.2.1-.2.1-.2.1-.2.1-.1.1-.1.1-.1.1-.1.1-.1.1-.1.1-.1.1-.1.1-.1.1-.1.1-.1.1-.1.1-.1h1.5l.7-2.5zm29.4 21.1v9.2l-.1.2-.1.2-.1.2-.1.2-.1.2-.1.2-.1.2-.1.2-.1.2-.1.2-.1.2-.1.2-.1.2-.1.2-.1.2-.1.2-.1.2-.1.2-.1.2-.1.2-.1.2-.1.2-.1.2-.1.2-.1.2-.1.2-.1-1.5-.1.2-.1.2-.1.2-.1.1-.1.2-.1.2-.1.2-.1.2-.1.2-.1.2-.1.2-.1.2-.1.2-.1.2-.1.2-.1.2-.1.2-.1.2-.1.2-.1.1-.1.1-.1.1-.1.1-.1.1-.1.1-.1.1-.1.1-.1.1-.1.1-.1.1-.1.1-.1.1-.1.1-.1.1-.1.1-.1.1-.1.1-.1.1-.1.1-.1.1-.1.1-.9.1-.2.1-.2.1-.2.1h-8.2l-.1-.1-.1-.1-.1-.1-.1-.1-.1-.1h-.1l-.1-.1-.1-.1-.1-.1-.1-.1-.1-.1-.1-.1-.1-.1-.1-.1-.1-.1-.1-.1-.1-.1-.1-.1-.1-.1-.1-.1-.1-.1-.1-.1-.1-.1-.1-.1-.1-.1-.1-.1-.1-.1-.1-.1-.1-.1-.1-.1-.1-.1-.1-.1-.1-.1-.1-.1-.1-.1-.1-.1-.1-.1-.1-.1-.1-.1-.1-.1-.1-.1-.1-.1-.1-.1-.1-.1-.1-.1-.1-.1-.1-.1-.1-.1-.1-.1-.1-.1-.1-.1-.1-.1v-10.4l.1-.6.1-.4.1-.4.1-.4.1-.4v-.4l.1-.1.1-.1v.1l.1.2v-.6h.5v1l-.1.5.8.8-.1.4-.1.4-.1.6v11.3l.1.1.1.1.1.1.1.1.1.1.1.1.1.1.1.1.1.1.1.1.1.1.1.1.1.1.1.1.1.1.1.1.1.1.1.1.1.1.1.1.1.1.1.1.1.1.1.1.1.1.1.1.1.1.1.1.1.1.1.1.1.1.1.1.1.1.1.1.1.1.1.1.1.1h.1l.1.1.1.1h8.5l.1-.1.1-.1.1-.1.1-.1.1-.1.1-.1.1-.1.1-.1.1-.1.1-.1.1-.1.1-.1.1-.1.1-.1.1-.1.1-.1.1-.1.1-.1.1-.1.1-.1.1-.1.1-.1.1-.1.1-.1.1-.1.1-.1.1-.1.1-.1.1-.1.1-.1.1-.1.1-.1.1-.2.1-.2.1-.2.1-.2.1-.2.1-.2.1-.2.1-.2.1-.2.1-.1.1-.2.1-.2.1-.2.1-.2.1-.2.1-.2.1-.2.1-.2.1-.2.1-.2.1-.2.1-.2.1-.2.1-.2.1-.2.1-.2.1-.2.1-.2.1-.2.1-.2.1-.2.1-.2.1-.2.1-.2.1-.2.1-.2.1-.2.1-.2.1-.2v-9.2l.2-.3.2.9zm-20 1.3l-.1.1h.3l-.2-.1zm36.9-.6l.2.1h.1v3.4l.1.3.1.3.1.3v.6l.1.3.1.3.1.3.1.3v.3l.1.3.1.3.1.3v.4l.1.2.1.2v.1l.1.2.1.2.1.2.1.2.1.2.1.2.1.2.1.2.1.2v.1l.1.2.1.2.1.2.1.2.1.2.1.2.1.1.1.1.1.1.1.1.1.1v.1l.1.1.1.1.1.1.1.1.1.1.1.1.1.1.1.1.1.1.1.1.1.1.1.1.1.1.1.1.1.1.1.1.1.1v.1l.1.1.1.1.1.1.1.1.1.1.1.1.1.1.1.1.1.1.1.1.1.1.1.1.1.1.1.1.1.1.1.1h.1l.1.1.1.1.1.1.1.1.1.1.1.1h4l.1-.1h.2v.2l-.1.1-.1.1-.1.1-.1.1-.1.1-.1.1h-6.6l-.1-.1-.1-.1-.1-.1-.1-.1-.1-.1-.1-.1-.1-.1-.1-.1-.1-.1-.1-.1-.1-.1-.1-.1-.1-.1-.1-.1-.1-.1-.1-.1-.1-.1-.1-.1-.1-.1-.1-.1-.1-.1-.1-.1-.1-.1v-.1l-.1-.1-.1-.1-.1-.1-.1-.1-.1-.1-.1-.1-.1-.1-.1-.1-.1-.1-.1-.1-.1-.1-.1-.1-.1-.1-.1-.1-.1-.1-.1-.1-.1-.1v-.1l-.1-.1-.1-.1-.1-.1-.1-.1-.1-.1-.1-.2-.1-.2-.1-.2-.1-.2-.1-.2-.1-.2v-.1l-.1-.2-.1-.2-.1-.2-.1-.2-.1-.2-.1-.2-.1-.2-.1-.2-.1-.2v-.2l-.1-.2v-.6l-.1-.3-.1-.3-.1-.3v-.4l-.1-.3-.1-.3-.1-.3-.1-.3v-.6l-.1-.3-.1-.3-.1-.3v-3.6h.2l2.3-.3z"/><path class="st11" d="M349.4 232.2l-.2.3-.7.2-.3.1-.1.1-.2.1-.3.1-.3.1-.2.1-.2.1-.3.1-.3.1h-.1l-.3.1-.3.1-.3.1-.3.1-.2.1-.2.1-.1.1-.2.1-.2.1-.2.1-.2.1-.2.1-.2.1-.2.1-.2.1-.2.1-.2.1-.2.1h-.1l-.2.1-.2.1h-.4v-.2.4-.1h.3l.2-.1.2-.1h.1l.2-.1.2-.1.2-.1.2-.1.2-.1.2-.1.2-.1.2-.1.2-.1.2-.1.2-.1.1-.1.2-.1.2-.1.3-.1.3-.1.3-.1.3-.1h.1l.3-.1.3-.1h.4l.3-.1.3-.1h.4l.3-.1.7-.2.2-.8zm-51.2-18.9l.2.2v2.6l-.1.2-.1.2-.1.4-.1.5-.1.2-.1.2-.1.2-.1.2-.1.2-.1.2v3.3-1.7l.1-.2.1-.2.1-.2.1-.1.1-.1.1-.1v-3.6l.1-1.1.1-.5.1-.5.1-.5v-.1l.1-.4.1-.3v-.3l.1-.3.1-.3.2-.2.2.3v1.7l-.1.5-.1.5-.1.5-.1 1.1v3.6l-.1.1-.1.2-.1.2-.1.2-.1.2-.1.2v.7l-.1.1-.1.1-.1.1-.1.1-.1.1-.1.1-.1.1-.1.1-.1.1-.1.1v.1l-.1.1-.1.1-.1.1h-.1v-2.2.6-1.8l.1-.3.1-.2.1-.2.1-.2.1-.2.1-.2.1-.5.1-.4.1-.2.1-.2v-.2l.1-.2v-1.9l.3-1zm12.8 1.5v8.1l-.1.2v1.2h-1.6v-10.8l.1-.1v-.2 10.9-.9l.1-.2v-8.4l.2-.3.2.3 1.1.2zm-3.3-1.1h.1-.1zm0 0zM322 225l.1-.1v-6.7l-.1-.5v-1.8l.1-.2.2.2.1.3.1.3.1.3.1.3v.3l.1.3.1.5.1.3.1.3v5.9l-.1.1-.1.1v1h-2.6v-4l-.1-.5-.1-.5v-.5l-.1-.5-.1-.5-.1-.5v-.5l-.1-1v-2.9l.2-.2h-.7l.7-.1.7-.1-.6.1h-.1l.2.1.1.3.1.2.1.3.1.5.1.5v.5l.1.5.1 1v.5l.1.5.1.5.1.5v.5l.1.5.1.5v2.8h.5l.2.6zm-.1.1zm7.7-13l.1-.1v.1h-.3l.1.1.2-.1v-.1.1l.1.2v1.6l.1.2.1.2v.2l.1.3.1.3.1.3.1.3.1.2v.2l.1.2.1.2.1.2.1.2.1.2.1.2.1.2.1.2.1.2.1.2.1.2.1.1v.1l.1.2.1.2.1.2.1.2.1.2.1.2.1.2.1.2.1.2.1.2.1.2v.2l.1.1v.1l.1.1v.7h.2v-3.3l-.1-.2-.1-.2-.1-.2-.1-.2-.1-.2-.1-.2-.1-.2-.1-.2-.1-.2-.1-.2-.1-.2-.1-.2-.1-.2-.1-.2-.1-.2-.1-.4-.1-.5v-.1l-.1-.3-.1-.5.1-.3.2.1.2.4.2.3.1.1.2.4.2.4.1.2.1.2.1.2.1.2.1.2.1.2.1.2.1.2.1.2.1.2.1.2.1.2.1.2.1.2.1.2v4.2h-.8l-.1-.1-.1-.1-.1-.1-.1-.1-.1-.1-.1-.1-.1-.1-.1-.1-.1-.1v-.3l-.1-.1v-.1l-.1-.1-.1-.1-.1-.1-.1-.2-.1-.2-.1-.2.4-.1-.1-.2-.1-.2-.1-.2-.1-.2-.1-.2-.1-.2-.1-.2v-.1l-.1-.1-.1-.2-.1-.2-.1-.2.1.2-.1-.2-.1-.2-.1-.2-.1-.2-.1-.2-.1-.2-.1-.2v-.2l-.1-.2-.1-.3-.1-.3-.1-.3-.1-.3v-.2l-.1-.3-.1-.3v-2.1zm-14.8 92.7l.1.1v.1-.1.1l.1.1.1.1v.1l.1.2v.4l.2.4.2.4v.1l.1.4.1.4.2.7.2.7.2.7.2.7.2.7.1.3.1.3.1.3.1.3.1.3.1.3.2.5.1.5.1.5.1.5.1.5.1.5.1.5.1.5.1.5.1.5.1.5.1.5.1.5.1.5.1.5.1.5.1.5.1.5.1.5.1.5.1.5.1.5.2 1 .2 1 .2 1 .5 2.1.2.7.2.8.2.8.2.8.2.8.2.8.2.8.1.8.1.8.1.8.1.8.1.8.1.8.1.3.1.5.1.8.1.8.1.8.1.8.1.8.1.8.1.8.1.8.1.8.1.8.1.8.1.8.1.8.1.8v.1l.1.6.1.8.1.8.1.8.1.8.1.8.1.8.1.8.1.8.1.8.1.8.1.8.1.8.1.8.1.8.1.8.1.8.1.8.1.8.1.8.1 1.5.1 1.5v.4l.1 1.1.1 1.6.1 1.6.1 1.6v.4l.1 2.8-.2.3-.2-.3-.4-2.7v-.4l-.2-1.5-.2-1.5-.2-1.5-.1-1.1v-.4l-.2-1.5-.2-1.5-.1-.8-.1-.8-.1-.8-.1-.8-.1-.8-.1-.8-.1-.8-.1-.8-.1-.8-.1-.8-.1-.8-.1-.8-.1-.8-.1-.8-.1-.8-.1-.8-.1-.8-.1-.8-.1-.8-.1-.6v-.1l-.1-.8-.1-.8-.1-.8-.1-.8-.1-.8-.1-.8-.1-.8-.1-.8-.1-.8-.1-.8-.1-.8-.1-.8-.1-.8-.1-.8-.1-.5-.1-.3-.1-.8-.1-.8-.1-.8-.1-.8-.1-.8-.1-.8-.2-.8-.2-.8-.2-.8-.2-.8-.2-.8-.2-.8-.2-.7-.5-2.1-.2-1-.2-1-.2-1-.1-.5-.1-.5-.1-.5-.1-.5-.1-.5-.1-.5-.1-.5-.1-.5-.1-.5-.1-.5-.1-.5-.1-.5-.1-.5-.1-.5-.1-.5-.1-.5-.1-.5-.1-.5-.1-.5-.1-.5-.1-.5-.1-.5-.1-.3-.1-.3-.1-.3-.1-.3-.1-.3-.1-.3-.2-.7-.2-.7-.2-.7-.2-.7-.2-.7-.1-.4-.1-.4v-.1l-.1-.4-.1-.4v-.4l-.1-.2v-.5l.6-.4zm-.1.2h.2-.2z"/><path class="st11" d="M337 237.1v8.3l-.1.3-.1.3-.1.3-.1.3-.1.3-.1.3-.1.3-.1.3-.1.3-.1.3-.1.3-.1.3v.1l-.1.2-.1.3-.1.3-.1.3-.1.3-.1.2v.1l-.1.3-.1.3-.1.3-.1.3-.1.3-.1.3-.1.3-.1.3-.1.3-.1.3-.1.3-.1.3-.1.3-.1.3-.1.3-.1.3-.2.3-.2.3-.2.3-.1.1-.1.2-.2.3-.2.3-.2.3-.2.3-.2.3-.2.3-.2.3-.2.3-.2.3-.2.3-.2.3-.2.3-.2.3-.2.2-.2.2-.2.2-.2.2-.2.2-.2.2-.2.2-.2.2-.2.2-.2.2-.2-1.7-.4.5-.4.5-.4.5-.4.5-.4.5-.4.5-.4.5-.4.5-.7.9-.7.9-.4.5-.4.5-.4.5-.4.5-.3.5-.3.5-.3.5.1-.3-.2.2-.2.2-.2.2-.2.2-.2.2v2.2l-.1.3-.1.3-.1.3-.1.3-.1.3-.1.3-.1.3-.1.3-.1.4v.4l-.1.4-.1.4-.1.4-.1.4-.1.4-.1.4-.1.4-.1.4-.1.4-.1.4-.1.5-.1.5-.1.5-.1.5-.1.5-.1.5-.1.5-.1.5-.1.5-.1.5-.1.5-.1.5-.1.5-.1.5-.1.5-.1 1.1-.1 1.1-.1 1.1-.1 1.1-.1 1.1-.1 1.1v.1l-.1 1-.1 1.1-.1 1.1-.1 1.1-.1 1.1.5 1-.1 1-.1 1-.1 1-.1 1-.1 1.9-.1 1-.1.8-.1 1.2-.2 2.2v.9l-.1.7-.1 1.3-.1.6-.1.6-.1.5-.1.5v.1l-.1.4-.1.4-.1.3-.1.1-.1.1-.1.1v.4-.1h.1v-4l.1-1.3v-1.5l.1-2.2.1-1.2v-.8l.1-1 .1-1.9.1-1 .1-1 .1-1 .1-1 .1-1.1.1-1.1.1-1.1.1-1.1.1-1.1.1-1v-.1l.1-1.1.1-1.1.1-1.1.1-1.1.1-1.1.1-1.1.1-.5.1-.5.1-.5.1-.5.1-.5.1-.5.1-.5.1-.5.1-.5.1-.5.1-.5.1-.5.1-.5.1-.5.1-.5.1-.5.1-.4.1-.4.1-.4.1-.4.1-.4.1-.4.1-.4.1-.4.1-.4.1-.3v-.1l.1-.4.1-.4.1-.3.1-.3.1-.3.1-.3.1-.3.1-.3.1-.3v-2.6l.2-.2.2-.2.2-.2.2-.2.2-.2.2-.2.3-.5.4-.5.4-.5.4-.5.4-.5.4-.5.4-.5.7-.9.7-.9.4-.5.4-.5.4-.5.4-.5.4-.5.4-.5.4-.5.4-.5.4-.5.2-.2.2-.2.2-.2.2-.2.2-.2.2-.2.2-.2.2-.2.2-.2.2-.2.2-.2.2-.2.2-.2.2-.2.2-.2.2-.2.2-.2.2-.2.2-.3.2-.3.2-.3.2-.3.2-.3.1-.2.1-.1.2-.3.2-.3.2-.3.1-.3.1-.3.1-.3.1-.3.1-.3.1-.3.1-.3.1-.3.1-.3.1-.3.1-.3.1-.3.1-.3.1-.3.1-.3.1-.3v-.1l.1-.2.1-.3.1-.3.1-.3.1-.3.1-.2v-.1l.1-.3.1-.3.1-.3.1-.3.1-.3.1-.3.1-.3.1-.3.1-.3.1-.3.1-.3.1-.3v-7.6l-.2 1.8z"/></g><path class="st14" d="M298 139l.1.2.1.1.1.1.1.1.1.1.1.1.1.1.1.1.1.3.1.3.1.2-.1-.2v-.4l.1-.1.1-.1.1-.1.1-.1.1-.1h.5l.1.1.1.1.1.1.1.1.1.1.7 1.6.1.3.1.2.1.2.1.2.1.2.1.2.1.2.1.1.1.3.1.2h.1l.1.1.1.1.1.1.4.9.1.2.1.2.1.2.1.1.1.1.1.1.1.1.1.1.1.2.1.3.1.2.1.2.1.2.1.2.1.1.1.1.1.1v.1l.1.2.1.2.1.2.1.2.1.2.1.2.2.4.1.2.1.2.1.2.1.2.1.2.1.2.1.2v1.5l.1.1.1.1.1.1.1.1.1.1.1.1.1.1.1.1.1.1.1.1.1.1.1.1.1.1.1.1.1.1.1.6h-.6l.1.3.1.3.1.3.1.3.1.1.1.1.1.1.1.1.1.1.1.1.4.8.1.2.1.2v.6l-.1.2-.1.1-.1.1-.1.1-.1.1-.2.1h-.7l.1.4.1.3.1.3v1l-.1.2-.1.1-.1.1-.1.1-.1.1-.1.1h-1.3l-.1-.1-.1-.1-.1-.1-.1-.1-.1-.1v-.2l-.1-.3v-.1l-.2-.4-.1-.3-.1.1-.1.1.1.1.3.5.3.5.1.3.1.3.1.3.1.3.1.3.1.3v.1l.1.1.1.1.1.1.1.1.1.1v1.5l-.1.1-.1.2-.1.2-.2.1-.2.1-.2.1h-.4v.7l-.1.1-.1.1-.1.1-.1.1-.1.1h-.8l-.1-.1-.1-.1-.1-.1-.1-.1-.1-.2-.1-.2-.2-.3-.1-.1-.1-.1-.1-.1-.1-.1-.1-.1-.1-.1h-.1l-.1-.1-.1-.1-.1-.1-.1-.1-.1-.1-.1-.1-.1-.1-.1-.1-.1-.1-.1-.1-.1-.1-.1-.1-.1-.1-.1-.1-.1-.1-.1-.1-.1-.1-.1-.1-.1-.1-.1-.1-.1-.1-.1-.1-.1-.1-.1-.1-.1-.1-.1-.1-.1-.1-.1-.1-.1-.1-.1-.1-.1-.1-.1-.1-.1-.1-.1-.1-.1-.1-.1-.1-.1-.1-.1-.1-.1-.1-.1-.1-.1-.1-.1-.1-.1-.1-.1-.1-.1-.1-.1-.1-.1-.1-.1-.1-.1-.1-.1-.2-.1-.2-.1-.2-.1-.2-.1-.2-.1-.2-.1-.2-.1-.2-.1-.2-.1-.2-.1-.2-.1-.2-.1-.2-.1-.2-.1-.2-.1-.2-.1-.2-.1-.2-.1-.2-.1-.2-.1-.2-.1-.2-.1-.2-.1-.2-.1-.2-.1-.2-.1-.2-.1-.2-.1-.2-.1-.2-.1-.2-.1-.2-.1-.2-.1-.2V141l.1-.1v-.2l.1-.1.1-.1h.8l.1.1.1.1v.3h.2v-1.4l.1-.1.1-.1.1-.1.1-.1.1-.1h.4l.1.1.1.1.1.1.1.1 1.1-.5zm-3 1.3z"/><path class="st14" d="M294.6 141.1h.1l.1.1.1.1.1.1.1.1.1.1.1.1.1.1.1.1.1.1.1.1.1.1v.5l.1.1.1.1.1.1.1.2v.1l.1.3.1.2v-.9l.1-.1.1-.1.1-.1.1-.1.1-.1h2.7l.1.1.1.1.1.1.1.1.1.1v.9l.1.1.1.1.1.1v.5l.1.2.1.2.1.2v.6l.2.5.2.5.2.5.2.5.5 1 .5 1 .2.5.2.5.2.5.2.5.2.5.2.5.2.5.2.5.1.1.1.1.1.2.1.2v.7h.5l.8.5-.5.8h-2.4l-.1-.1-.1-.1-.1-.1-.1-.1-.1-.1-.1-.1-.1-.1-.1-.1-.1-.1-.1-.1-.1-.1v-.3l-.1-.1v-.1l-.1-.1-.1-.1-.1-.1-.1-.1-.1-.1-.1-.2-.1-.2-.1-.1-.1-.1-.2-.5-.3-.5-.3-.5-.3-.5-.3-.5-.2-.4.1.2.3.8.3.8.2.4.2.4.2.4.2.4.2.4.1.2.1.2.1.2.1.2.1.2.1.2.1.2.1.2.1.2.1.2.1.2.1.2.1.2.1.2.1.2.1.2.1.2.1.2.1.2.1.2.1.2v1l-.1.2-.1.1-.1.1-.1.1-.2.1-.2.1h-.2v.1l.1.2.1.2.1.2v.2l.1.2v.6l.1.1.2.2.2.2.2.2.2.2v.2l.1.1.1.1.1.1.1.2.2.2.2.2.3.3.1.2.1.1.1.1.1.1v1.1l-.1.1-.1.1-.1.1.1.1.1.1.1.1v1.4l-.1.2-.1.2-.2.2-.2.1-.2.1h-1.7l-.1-.1-.1-.1-.1-.1-.1-.1-.1-.1-.1-.1-.1-.1-.1-.1-.1-.1-.1-.1-.1-.1-.1-.1-.1-.1-.1-.1-.1-.1-.1-.1-.1-.1-.1-.1-.1-.1-.1-.1-.1-.1-.1-.1-.1-.1-.2-.3-.2-.3-.2-.2-.1-.1-.1-.1-.1-.1-.1-.1-.1-.1-.1-.1-.2-.2-.2-.2-.2-.2-.2-.2-.2-.2-.2-.2-.2-.2-.2-.2-.2-.2-.2-.2-.2-.2-.2-.2-.2-.2-.2-.2-.2-.2-.2-.2-.2-.2-.2-.2-.2-.2-.2-.2-.2-.2-.2-.2-.2-.2-.2-.2-.2-.2-.2-.2-.2-.2-.2-.2-.2-.2-.2-.2-.2-.2-.2-.2-.2-.2-.2-.2-.2-.2-.2-.2-.2-.2-.2-.2-.2-.3-.2-.3-.2-.3-.2-.3-.2-.3-.2-.3-.2-.3-.2-.3-.2-.3-.2-.3-.2-.3-.2-.3-.2-.3-.2-.3-.2-.3-.1-.1-.1-.1-.1-.1-.1-.1-.1-.1-.1-.2-.1-.2-.1-.2-.1-.2-.1-.2-.1-.2-.1-.2-.1-.2-.1-.2-.1-.2-.1-.2-.1-.2-.1-.2-.1-.2-.1-.2 1.8 1.4-.1-.2-.1-.2-.1-.2-.1-.2-.1-.2-.1-.2-.1-.2-.1-.2-.1-.2-.1-.2-.1-.2-.1-.2-.1-.2-.1-.2-.1-.2-.1-.2-.1-.2-.1-.2-.1-.2v-5.5l.1-.1.1-.2.1-.1.1-.1.1-.1V140l.1-.1.1-.1.1-.1.1-.1h.3l.1.1.1.1.1.1.1.1.1.1v.4l.1.1.1.1v.1h.6l.1.1.1.1.1.1.1.1.1.1.1.1.1.1.1.1.1.1.1.1.1.1v-.1l-.2-.4-.2-.4-.2-.4-.1-.3v1.7l-.1-.2v-.6l.1-.2.1-.1.1-.1.1-.1.1-.1.2-.1h.8l.1.1.1.1.1.1.1.1.3.5.4.6.4.7.5.8.1.1.1-.1.1-.1V141l.1-.1.1-.1.1-.1.1-.1.1-.1.1-.1.2-.1h.6l.5.8zm-7.4 2zm-.1 0zm72.8 5.6l.1.1-.1-.1v-.9l.1-.1.1-.1.1-.1.1-.1.1-.1h.4l.1.1.1.1.1.1.1.1.1.1.1.1.1.1.1.1v.8h.9l.1.1.1.1.1.1v7.5l-.1.2-.1.2-.1.2-.1.2-.1.2-.1.2-.1.2-.1.2-.1.2-.1.2-.1.2-.1.2-.1.2-.1.2-.1.2-.1.2-.1.2-.1.2-.1.2-.1.2-.1.2-.1.2-.1.2-.1.2-.1.2-.1.2-.1.2-.2.2-.2.2-.2.2-.2.2-.2.2-.2.2-.2.2-.2.2-.2.2-.2.2-.2.2-.2.1-.2.1-.2.1-.2.1-.2.1-.2.1-.2.1-.2.1-.2.1-.2.1-.2.1-.1.1-.1.1-.1.1-.1.1-.1.1-.1.1-.1.1-.1.1-.1.1-.1.1-.1.1h-.9l-.1.1-.1.1-.1.1h-10l-.2.1-.2.1-.2.1-.2.1-.2.1-.2.1-.3.1-.3.1-.3.1-.7.2-.3.1-.3.1h-.1l-.1.1-.1.1h-.1l-.1.1h-1.6l-.1-.1v-.8l.1-.1.1-.1.1-.1.1-.1v-.6l.1-.1.1-.1.1-.1.1-.1.1-.1.1-.1.1-.1h-.2l-.2-.1h-.4l-.1-.1-.1-.1-.1-.1-.1-.1-.1-.1v-.4l.1-.1.1-.1.1-.1.1-.1.1-.1h.4-1.1l-.1-.1-.1-.1-.1-.1-.1-.1-.1-.1-.1-.1v-.6l.1-.2.1-.1h-.1l-.1-.1-.1-.1-.1-.1v-.8l.1-.1.1-.1.1-.1.1-.1.1-.1h1.1l.2-.1.2-.1v-.1l.1-.1v-.1l.1-.1.1-.1.1-.1h.6l.1-.1.1-.1.1-.1h.2l.1-.1h.1l.2-.1.2-.1.2-.1h.1v-.3l.1-.1.1-.1.1-.1.1-.1.1-.1.1-.1h.8l.1-.1h.3l.2-.1.1-.1.3-.2.3-.2.1-.1.2-.1.3-.2.3-.2.3-.2.3-.2.3-.2.3-.2.3-.2.1-.1.1-.1.1-.1.1-.1.1-.1.1-.1.1-.1.1-.1.1-.1.1-.1.1-.1.1-.1.3-.2.3-.2.3-.2.3-.2.3-.2.3-.2.3-.2.3-.2.6-.3.6-.3.3-.1.3-.2.3-.2.3-.2.3-.2.3-.2.3-.2.1-.1.1-.1.1-.1.1-.1.1-.1.1-.1.1-.1.1-.1.1-.1.1-.1.1-.1.1-.1.1-.1.1-.1.1-.1.1-.1h.5l.1.1.1-.1.2-.2.2-.2.2-.2.2-.2.2-.2.2-.2.2-.2.1-.1.1-.1.2-.2.2-.2.1-.1.1-.1.1-.1.1-.1.1-.1h.5l.1-.1.1-.1.1-.1h1.5l-.2 1.3zm-21.1 19.5v.1-.1.1-.1zm1.2-1.6l.3-.1.1-.1h-.1l-.3.2z"/><path class="st7" d="M307.3 138.2c-.8 7.5-2.2 15-4.9 22.1-2.7 7.3-6.5 14-10.9 20.4-2.2 3.2-6 7.6-6 7.6s-1.3 10.7-.7 14.6c.2 1.7-.3 7.5.8 8.8 1.5 1.9 5 2.6 7.3 3 7 1.3 14.1-.2 21-.9 4.7-.5 9.3-.9 13.9-1.5 1.7-.2 4.2-.1 5.7-1 4-2.5 5.3-9 6.7-13.2 2.2-6.5 4.7-14 3.9-21-.6-6.1-3.4-11.6-4.6-17.6-.7-3.5-.8-6.8-.1-10.3.1-.8 1.3-4 1-4.6-.6-1.2-8.6-.3-9.7-.3-8.3.2-16.8-.4-23.5-5.9"/><defs><path id="SVGID_23_" d="M307.3 138.2c-.8 7.5-2.2 15-4.9 22.1-2.7 7.3-6.5 14-10.9 20.4-2.2 3.2-6 7.6-6 7.6s-1.3 10.7-.7 14.6c.2 1.7-.3 7.5.8 8.8 1.5 1.9 5 2.6 7.3 3 7 1.3 14.1-.2 21-.9 4.7-.5 9.3-.9 13.9-1.5 1.7-.2 4.2-.1 5.7-1 4-2.5 5.3-9 6.7-13.2 2.2-6.5 4.7-14 3.9-21-.6-6.1-3.4-11.6-4.6-17.6-.7-3.5-.8-6.8-.1-10.3.1-.8 1.3-4 1-4.6-.6-1.2-8.6-.3-9.7-.3-8.3.2-16.8-.4-23.5-5.9"/></defs><clipPath id="SVGID_24_"><use xlink:href="#SVGID_23_" overflow="visible"/></clipPath><g clip-path="url(#SVGID_24_)"><path d="M290.6 177.5l.1.1v19l.1.8.1.8.1.8.1.8.1.8.1.8.1.8.1.8.1.8.1.8.1.8.1.8.1.8.1.8.1.8.1.8v.9l.1.8v1.7l-.2.3-.3-.3-.2-.8-.1-.3-.1-.5-.1-.8-.1-.6v-.3l-.1-.8-.1-.8-.1-.8-.1-.8-.1-.8-.1-.8-.1-.8-.1-.8-.1-.8-.1-.8-.1-.8-.1-.8-.1-.8-.1-.8-.1-.8-.1-.8-.1-.8-.1-.8-.1-.8-.1-.8v-15.8l1.3-.2z" fill-rule="evenodd" clip-rule="evenodd" fill="#1d4751"/></g></g><path class="st0" d="M329.7 200.3s-12.4 25.6-21.4 30.8-28.6.8-28.6.8c-2.9 3-1.3 6.7 1.1 7.6 5.2 1.9 20 5.7 29.9 3.9 10.7-2 31.8-24.4 29.9-38-.3-2.4-2.3-4.9-2.3-4.9l-8.6-.2z" transform="matrix(1.09346 0 0 .99944 -16.652 -25.351)"/><g transform="matrix(1.09346 0 0 .99944 -16.652 -25.351)"><defs><path id="SVGID_25_" d="M329.7 200.3s-12.4 25.6-21.4 30.8-28.6.8-28.6.8c-2.9 3-1.3 6.7 1.1 7.6 5.2 1.9 20 5.7 29.9 3.9 10.7-2 31.8-24.4 29.9-38-.3-2.4-2.3-4.9-2.3-4.9l-8.6-.2z"/></defs><clipPath id="SVGID_26_"><use xlink:href="#SVGID_25_" overflow="visible"/></clipPath><g clip-path="url(#SVGID_26_)"><path class="st20" d="M336.3 174.6h2.2v-.1l.1-.1.1-.1.1-.1h.3v-.6l.1-.1.1-.2.2-.2.2-.1.1-.1h4.1l.3.1.3.1.3.1h3l1 .1h15.7l.1.1.1.1.1.1.1.1.1.1.1.2v.5l-.1.1-.1.1-.1.1-.1.1-.1.1-.1.1-.2.1h-.2.2l.1.1.1.1.1.1.1.1.1.1.1.1v.4l-.1.1-.1.1-.1.1-.1.1-.1.1h-3.5v.3l-.1.1-.1.1h-4.1l-.5.1h-.2l-.4.1-.4.1-.4.1-.4.1-.4.1-.4.1-.4.1-.4.1-.4.1-.4.1H342l-.7.1h-4l-.1-.1h-.2l-.1-.1-.1-.1-.1-.1-.1-.1-.1-.1-.1-.1v-1h-.4v-2.4l.1-.1.1-.1.1-.1h.5-2.2l-.1-.1-.1-.1-.1-.1-.1-.1-.1-.1v-.6l.1-.1.1-.1.1-.1.1-.1.1-.1h1.5-3.2.4l3 2.2zm-.8.1zm0 0z" transform="matrix(.91453 0 0 1.00056 13.614 21.992)"/></g></g><path d="M265.1 73.7c.3-1.1 0-2-.4-3.1-1-2.5-3.9-4.2-6.5-5-5.9-1.8-10.5 1.9-16.1 2.8-1.6.3-3.1.2-4.7.2-.5 0-1.4-.1-1.4-.1s.6 1.2 2.1 1.8c1.3.5 2.7 0 2.7 0s-.8.5-1.2.7c-2.2 1-7.3 1.6-7.3 1.6s.2.9 2 1.4c1.7.5 2.7.2 2.4.4-2.3 1.7-2.5 1.9-5.3 2.4-.6.1-1.7.1-1.7.1s0 1.7 2 2.2c2.6.7 3.4-.2 3.4-.2s-.3 1.5-.4 2.2c-.2 1.2-.3 2.4-.3 3.6 0 2.7.8 12.4.9 12.5.4 2.8 1 5.8 1.8 7 1 1.5 4.5 9.4 6.3 10.3 1.3.6 10.8 1.9 12.2 1.5s3.6-3.3 8.3-11.3c1.5-2.6 2.3-5.4 3.3-7.9 1.7-4.2 4.4-11.5 3.5-16.3-.5-2.5-2.9-4-2.9-4s1.5-2.4 1.3-3.7c0-.3-.5.2-.7.4-.4.4-.7.9-1.1 1.3-.2.3.3.1.7-2.8.3-1.9-.2-3.8-.8-3.7-.3.1-.4 1.1-.7 2.1-.5 1.3-1.4 3.6-1.4 3.6" fill-rule="evenodd" clip-rule="evenodd" fill="#5ee5d1"/><path class="st1" d="M317.2 102c-8.5 12.2-8.4 21.7-11.2 24-3.8 3.2-10.6 5.6-9.5 12.4.3 1.7.6 3.5 1.6 5 .5.8 2.3.6 2.5 1.6.2 1.5-1.2 2.8-1.7 4.2-1.1 3.1.1 5.8 2.5 8.1 1.9 1.9 4.5 2.3 7 2.6.8.1 2-.5 2.6.1.9 1.3.5 3.2 1 4.6 1.7 4.5 6.6 6.7 10.8 7.9 5.4 1.6 12.8-.8 15.6-5.9 1-1.8.3-4.6 2-5.8 1.3-.9 3.1 1.2 4.7 1.3 4 .2 7.3-.8 9.6-4.3 5.8-8.5-5.5-15.6-2.3-23.1 14.3-33.7-20.7-53.5-35.2-32.7z"/><path class="st30" d="M58 95.8h2.3l.1.1.1.1.1.1.1.1.1.1.1.1.1.1v5l-.1.9v5H60v-3.2h-.4l-.1-.1v-.9h-.4l-.1-.1-.1-.1-.1-.1h-.4l-.1-.1-.1-.1-.1-.1v-.1l-.1.1-.1.1-.1.1h-.6v.1l.1.3.1.3v3.3-.1l-.1-.1v-.1l-.1-.1v-.6l-.1-.1-.1-.1-.1-.1v-.6l-.1-.3-.1-.3-.1-.3v-.2l-.1-.3-.1-.3-.1-.6v-.2l-.1-.1-.1-.1-.1-.1-.1-.1v-4.3 2.3-3.2l.1-.1.1-.1-1.1.4.1-.1.1-.1.1-.1.1-.1.1-.1.1-.1.1-.1.1-.1.1-.1.1-.1h2.6l-.6-.2zm-1.5 12.9z"/><path class="st30" d="M63.1 98.6l.1.2v1.1l-.1.1-.1.1-.1.1-.1.1-.1.1-.1.1-.1.1-.1.1v.1l-.1.1-.1.1-.1.1-.1.1-.1.1-.1.1-.1.1-.1.1-.1.1-.1.1-.1.1-.1.1-.1.2-.1.2-.1.2-.1.2-.1.2-.1.2-.1.2v1.5h-.1v-2.1l.1-.3v-.6l.1-.1.1-.2v-.5l.1-.1v-.1l-.1.1-.1.1-.1.1v.9h-.1v-.1l.1-.2v-.9l.1-.1.1-.1.1-.1.1-.1.1-.1.1-.1.1-.1.1-.1.1-.1.1-.1.1-.1.1-.1.1-.1.1-.1.1-.1.1-.1.1-.1.1-.1.1-.1.1-.1.1-.1.1-.1.1-.1.1-.1.1-.1h.3l.1-.1.1-.1h1.3l-1.7.4z"/><path class="st30" d="M60.7 90.7l.1.2v11.6h-.9v-2.1h-.1v.3l-.2.2-.2-.2v-8.6l.1-.2.1-.2v-.9h1.1v-.1zm.1 11.5zm-.9-1.9v-.2.2zm-1.6-10.6l.1.2v5.6l.1.6.1.6v1.5-.6l-.1.1h-.7l.2.7-.1-.1v-8.6h.4zm.7 9zm-1.1-1l-.1.2.1-.2zM53 92.1l.1.2V94l.1.3.1.3.1.3.2.5.1.3.1.3.1.3.1.3v1.2l.1.3.1.3v.3l.1.2.1.2v1.7h-.2v1.8l.1.2v3.6h-.9l-.1-.1-.1-.1-.1-.1-.1-.1-.1-.1-.1-.1v-2.1l-.1-.2v-1.8l-.1-.4-.1-.4v-.4l-.1-.4v-.9l-.1-.5 1.1-.7-.1-.3-.1-.3-.1-.3v-4.4l-.1-.6zm2.5 8.9zm0 0zm-.6-11.8l.1.2v.9l.1.2.1.2v.3l.1.2.1.2.1.2.1.5.1.2.1.2.1.2.1.2.1.2.1.2.1.2v1l.1.3.1.3.1.3v2.8h-.4v1.9h-.3v-.6.5-1.6l-.2-.8-.1-.5-.1-1.1v-.3l-.2-1.4-.3-.8v-.3l-.1-.3-.1-.3v-3.3l.1-.1zm0 .4v.2h.1l-.1-.2z"/><path class="st14" d="M304.3 46l.1.1-.1.1h-.1V45l.1-2.2.3-2.3v-3.4l.1-.6v-4.7l.1-.2.1-.2.1-.2v-.7l.1-.1.1-.1.1-.1.1-.1.1-.1.1-.1.1-.1v-1.2h9.7l.1.1.1.1.1.1.1.1.1.1.1.1.1.1.1.1.1.1v5.6l-.1.3-.1.3-.1.3-.1.3-.1.3-.1.3-.1.3-.1.3-.1.3-.1.3-.1.3-.1.3-.1.3-.1.3-.2.5-.2.5-.2.5-.2.5-.1.3-.1.3-.1.3-.1.3v.2l-.1.2-.1.2-.1.2-.1.2-.1.2-.1.2-.1.2-.2.5-.2.5-.1.2-.1.2-.1.2-.1.2-.1.1-.1.2-.1.3-.1.3-.1.3-.1.2-.1.1-.1.1-.1.1v.2l-.1.1-.1.1-.1.1h-.6l-.1-.1-.1-.1-.1-.1-.1-.1v-3.6l.1-.2.1-.3.1-.3v-.2l.1-.2.1-.3.1-.3.1-.3.1-.3.1-.3h-.4l-.1-.1-.1-.1-.1.1-.1.1-.1.1-.1.1h-.5l-.1-.1-.1-.1-.1-.1-.1.1-.2.1h-.6l-.2-.1-.2-.1-.1-.1-.1-.1-.1-.1-.1.1-.1.1h-.5l-.1-.1-.1-.1-.1-.1-.1-.1-.1-.1v-.3h-.7l-.1-.1-.1-.1-.1-.1v-1.2.8l-.4 2.2-.5 2.1v.8l-.1 1.2z"/><path class="st14" d="M319.3 20.6l.2.1h.1l.1.1.1.1.1.1.1.1v3l-.1.2-.1.2-.1.2-.1.2-.1.2-.1.2-.1.2-.1.2-.1.2-.1.5-.1.4-.1.4-.1.4-.1.4-.2.8-.2.8-.2.8-.1.4-.1.4-.1.4-.1.3v.1l-.1.4-.1.4-.1.4-.1.4-.1.4-.1.4-.1.4-.1.4-.1.4v1l-.1.2-.1.2-.1.2-.1.2-.1.2-.1.2-.1.2-.1.2-.1.2v.3l-.1.1-.1.2-.2.2-.8-.1-.1-.2v-3.3l.1-.2.1-.4.1-.4.1-.4.1-.4.1-.4.1-.4.1-.2v.1l-.1.1-.1.1-.1.1-.1.1-.1.1v-2.8l.1-.2.1-.2.1-.2.1-.2.1-.2.1-.2.1-.2.1-.2.1-.2.1-.2v-.2l.1-.2.1-.5.1-.5.2-.5.2-.5.3-.9.1-.5.1-.5.1-.5.1-.2.1-.2v-.6l.1-.1.1-.1.1-.1.1-.1.1-.1.1-.1.1-.1.1-.1v-.3l.1-.1.1-.1.1-.1.1-.1.1-.1h.6l.1-.6zm-8.6 11.2v-2.4l.3-.4.1-.2.1-.2.1-.4.1-.4.1-.4.1-.4.2-.8.1-.4.1-.4v-.6l.1-.1v-2.1l.1-.2.1-.2.1-.2.1-.2.1-.2.1-.2.1-.2.1-.2.1-.2.1-.4.1-.4.1-.4.1-.4.1-.2.1-.2.1-.2.1-.2v-.5l.1-.1V17l.1-.1h1l.1.1.1.1.1.1v3.3l-.1.3v.6l-.1.5-.1.5-.1.5-.1.5-.1.5v.2l-.1.7-.1.9-.1.5-.1.5-.1.5-.1.5-.1.5v.4l-.1.4-.1.4-.1.4v1.4l-.1.2-.1.2-.1.2v.4l.6-.2-.1.3v.6l-.1.1-.1.1-.1.1-.1.1h-.6l-.1-.1-.1-.1-.1-.1v-.6h-.1l-.1.1-.1.1h-.5l-.1-.1-.1-.1h-.1l-.4.3-.4-.5v-.4z"/><path class="st14" d="M311.5 14.3h.3l.1.1.1.1.1.1v6.9l-.1 1v9.2l-.1.1-.1.1-.1.1h-.8l-.1-.1-.1-.1-.1-.1v-.9.1l-.3.1-1-.2-.2-.2v-1.8l-1.1.2.1-.3.1-1.8.1-.8v-3l.1-.3.1-.3.1-.3.1-.3.1-.3.1-.3.1-.3.1-.3.1-.5.1-.5.1-.5.1-.5.1-.5v-.1l.1-.4.1-.5V17l.1-.4v-2l.1-.1.1-.1.1-.1h1.3zm-.8 17.2zm1.1-16.1z"/><path class="st14" d="M306.5 17.8h.1l.1.1.1.1.1.1v2.4l.1.4.1.4.1.4.1.4.1.7.1.4.1.4.1.4.1.4.1.4.1.4.1.4v7.8l-.1.1-.1.1-.1.1-.1.1.3-.8h-.5v.3l-.1.3-.1.3-.1.3-.1.3v.1l-.3.2-1.2-.2-.2-.2V22.5v.5-5.5l.1-.1.1-.1.1-.1.1-.1h.2l.5.7zm2.1 14.2z"/><path class="st14" d="M306.7 27.7l.4.6v3.3l-.1.3-.1.3-.1.3v.3l-.1.3-.1.3-.1.3-.1.3-.1.3-.1.5-.1.5-.1.2-.1.3-.1.5-.1.5-.1.5v.7l-.1.2-.1.3-.1.3v4.8l.1.3v1.7l-.1.4h-.1l-.1.1v.2h-.1v-.1h-.2l-.3-.3-.2-.4-.1-.2-.1-.1-.1-.1-.1-.1-.1-.1-.1-.2-.1-.3-.1-.2-.1-.2-.1-.2-.1-.2v-4.8l.1-.3.1-.3.1-.2v-.7l.1-.5.4-1.8.1-.5.1-.3.1-.2.1-.5.1-.5.1-.2.1-.2.1-.2.1-.2.1-.2v-.2l.1-.2.1-.2.1-.2.1-.2.1-.2.1-.2.1-.2v-.1l.1-.1.1-.2.1-.2.1-.2v-.1l.1-.2.1-.2.1-.2.3-1.2z"/><path class="st14" d="M301.6 31.3l.2.1.1.1.1.1.1.1.1.1.1.1.1.1.1.1.1.1.1.1.1.1.1.1.1.1.1.1.1.1.1.1.1.1.1.1.1.1.1.1.1.1.1.1.1.1.1.1.1.1.1.1.1.1.1.1.1.1v1.7l.1.2.1.2v1.2l.1.5v1.9l-.1.1-.1.1-.1.1-.1.1-.1.1h-.5l-.1-.1-.1-.1-.1-.1-.1-.1-.1-.1v-.2 1.7l.1.2v.8h.1v.1l-.1-.1-.1-.1-.1-.1-.1-.1-.1-.1-.1-.1-.1-.2-.1-.1v-.2l-.1-.1-.1-.1-.1-.1-.1-.1-.1-.1-.1-.1V40l-.1-.2-.2-.5-.1-.2v-1l-.2-.7-.1-.3-.1-.3-.1-.3-.1-.3-.1-.2-.1-.2-.1-.2-.1-.2-.1-.2-.1-.2-.1-.2-.1-.2-.1-.2-.1-.2V34l-.1-.2-.1-.2-.1-.2-.1-.2-.1-.2-.1-.2-.1-.2-.1-.2-.1-.2v-.4l-.1-.1v-2.4l.1-.1.1-.1.1-.1h2l.1.1.1.1.1.1.1.1-.3 1.9zm3.3 8.1zm-4.6-8.1zm0 0zm0 0zm0 0zm0 0zm0 0zm0 0zm5.6-7.5l.1.1.1.4v.4l.4-.3.2.4v10l-.1.3-.1.5-.1.3-.1.3V38l-.1.1-.1.1h-.7l-.1-.1-.1-.1v-2.7l.1-.5v-6.7l.1-.3v-1.4l.1-.9v-.7l.1-.4.3-.6zm-.1.2zm0 0zm13.3-2.7l.1.1-.1.1-.1-.1v2.4l-.1.2-.1.2-.1.2-.1.2v.2l-.1.3-.1.3-.1.3-.1.3-.1.3-.1.3-.1.3-.1.3-.1.3-.1.3-.1.3v.1l-.1.3-.1.3-.1.3-.1.3-.1.3-.1.3-.1.3-.1.3-.1.2-.1.2-.1.2-.1.2-.2.4-.1.2-.1.2v.3l-.1.1-.1.1-.1.1-.1.1h-.5v-1.3l.1-.2.1-.2.1-.4.1-.2.1-.2.1-.2.1-.2.1-.3.1-.3.1-.3.1-.3.1-.3.1-.3.1-.3.1-.3v-.1l.1-.3.1-.3.1-.3.1-.3.2-.3.2-.3.1-.3.2-.3.2-.3.2-.3.2-.3V24l.1-.2.1-.2.1-.2.1-.2.1-.1.1-.2.1-.2.1-.2.1-.2v-1.5l.1-.1h.2l-.3.6zm-.2.4z"/><path class="st14" d="M315.6 16.1h.5v10.7l-.1 1v.8l-.1.5v1.8l-.1.1-.1.1h-.5l-.1-.1-.1-.1v-1.8l-1-.1v-.8l.1-1v-9.1.8l-.1.2v.3l-.1.1-.1.1-.1.1-.1.1-.1.3-.1.3-.1.1-.1.1v.5l-.1.3-.1.2v.1l-.1.3-.1.3-.1.3-.1.3-.2.5-.2.5-.1.3-.1.3-.1.3-.1.2-.1.3-.1.3-.1.3-.1.3-.1.3-.1.3-.1.3v.2l-.1.2-.1.2-.1.2-.1.2-.1.2v.2l-.1.1v.1l-.1.2v.4-2.2l.1-.3.1-.3.1-.3.1-.3.1-.3.1-.3.1-.3.1-.2.1-.3.1-.3.1-.3.1-.5.1-.5.1-.3.1-.3.1-.3.1-.3v-.1l.1-.2.1-.3v-.4l.1-.1.1-.1.1-.1.1-.3.1-.3v-.7l.1-.2v-1.1l.1-.1.1-.1v-.3h.5l2-1.2zm-4.1 12.3zm-.1 0zm0 0z"/><path class="st0" d="M455.1 100h.5l.1.1.1.1v1.4l.1.2v.3l.1.2.1.2.1.2.1.2v7.5l-.1.1-.1.1-.1.1-.1.1-.1.1h-.2v.1l-.1.1h-.7v-2.4 2.3l-.1.4v1.4l-.1.1-.1.1v1.2l-.1.2-.1.3-.1.3-.4.4-.3-.4v-.3l-.1-.3-.1-.3v-2l.1-.6v-.2l.1-.3.1-.6.1-.6.1-.6.1-.6.1-.6.1-.6v-6.5h.6l.4-.9z"/><path class="st0" d="M454.4 110.2l.1-.1v-.5l.1-.1v-.1l.1-.1.1-.1.1-.1.1-.1.1-.1.1-.1.1-.1.1-.1.1-.1.1-.1.1-.2.1-.2.1-.2.1-.2.1-.2.1-.2.1-.2.1-.2.1-.2.1-.2.1-.1.1-.1.3-.5-.1.1-.1.1-.1.1-.1.1-.1.1-.1.1v.1l-.1.1-.1-.1v-.6l.1-.1.1-.1.1-.1.1-.1.1-.1.1-.1.1-.1.1-.1.2-.2.2-.2.2-.2.2-.2.1-.1.1-.1.1-.1.1-.1.1-.1v-.2l.1-.2.1-.2.1-.2.1-.2.1-.2.1-.2.1-.2.1-.2.1-.2.1-.2.2-.4v-.1l.3-.5.3-.5.3-.5.1-.2.1-.2.1-.2.1-.2.1-.2.1-.2.1-.1.1-.1.1-.2.1-.2.1-.2.1-.2.1-.2.2-.2.2-.2.1-.1.1-.1.1-.1.1-.1.2-.3.1-.2.1-.2.1-.2.1-.2.1-.1.1-.2.1-.1.1-.1.1-.1.1-.1.1-.1.1-.1.1-.1.1-.1.1-.1.1-.1v-.3l.1-.1.1-.1.1-.1h.8l.1.1v1l-.1.2-.1.2v.2l-.1.2-.1.2-.1.2-.1.2-.1.2-.1.2-.1.2-.1.2-.1.2-.1.2-.1.2-.1.2-.1.2-.1.2-.1.2-.1.2-.2.3-.2.3-.2.3-.2.3-.1.2v.1l-.2.3-.2.3-.2.3-.2.3-.2.3-.3.6-.3.6-.3.6-.3.6-.3.6-.2.3-.5.8-.3.6-.3.6-.3.6-.3.6-.1.1-.1.1-.1.2-.1.2-.1.2-.1.2-.1.2-.1.2-.1.2-.1.2-.1.2-.1.2-.1.1-.1.1-.1.1-.1.1v.7l-.1.1v.2l-.1.1-.1.1-.1.1-.1.1v.5l-.1.1-.1.1-.1.1h-1l-.1-.1-.1-.1-.1-.1v-.9l.1-.1-.5-1 .2.1.1-.1h-.3.1-.1zm.8.6l.1-.1v-.5l-.1-.1v.7zm.2-3.7l.1-.1v.1h-.1zm-.1.2h-.1.1z"/><path class="st0" d="M462.8 95.6l.1.1v.4l-.1.3-.1.2-.1.2-.1.2v.6l-.2.4-.2.4-.1.2-.1.2-.1.2-.1.2-.1.2-.1.2-.1.2-.1.2-.1.1-.1.1-.1.2-.1.2-.1.2-.1.2-.1.2-.1.2-.1.2-.1.2-.1.1v.1l-.1.2-.1.2-.1.2-.1.2-.1.2-.1.2-.2.3-.2.3-.2.3-.2.3-.2.3-.3.4-.2.3-.2.3-.2.3-.2.3-.1.1-.1.1-.1.1-.1.1-.1.1-.1.1-.1.1-.1.1-.1.1-.2.2-.3.4-.2.2-.2.1-.1.1-.1.1-.1.1-.1.1-.1.1-.1.1-.1.1-.1.1-.1.1-.1.1-.1.1-.1.1-.5.1-.1-.5v-.1l.1-.1.1-.1.1-.1.1-.1.1-.1.1-.1.1-.1.1-.1.1-.1v-.1l.1-.1.1-.2.2-.2.3-.4.1-.2.1-.1.1-.1.1-.1.1-.1.1-.1.1-.1.1-.1.1-.1.1-.1.2-.3.2-.3.2-.3.2-.3.2-.4.2-.3.2-.3.2-.3.2-.3.2-.3.1-.2.1-.2.1-.2.1-.2.1-.2.1-.2v-.1l.1-.1.1-.2.1-.2.1-.2.1-.2.1-.2.1-.2.1-.2.1-.2.1-.1-.1-.6.1-.2.1-.2.1-.2.1-.2.1-.2.1-.2.1-.2.1-.2.3-.3.3-.3v-.4l.1-.1.1-.1.1-.1.1-.1.2-.3h.1l.1-.1.1-.1.1-.1.4.2zm6.8-4.2h.3v2.1l-.1.1-.1.1-.1.1-.1.1-.1.1-.1.1-.1.1-.2.3-.1.1-.1.1-.1.1-.1.1-.1.1-.1.2-.2.3-.2.3-.2.3-.2.3-.2.3-.2.3-.2.3-.2.3-.2.3-.3.5-.3.5-.2.3-.1.2-.3.5-.3.5-.2.2-.2.2-.2.2-.2.2-.2.2-.2.2-.2.2-.2.3-.1.3-.1.1-.1.1-.1.3-.1.3-.2.3-.2.3-.2.3-.2.3-.2.3-.2.3-.1.2-.2.3v.1l-.1.1-.1.1-.1.1-.1.1-.1.1h-.2l-.8-.1v-1l.1-.1.1-.1.1-.1.1-.3.2-.2.2-.3.2-.3.2-.3.2-.3.2-.3.2-.3.2-.3.2-.3.1-.1.1-.1.2-.3.2-.3-.1.2-.1.1-.1.1-.1.1-.1.1-.1.1-.1.1-.1.1-.1.1-.1.1-.1.1-.1.1-.1.1-.1.1-.1.1-.3.4-.1.1-.1.1h-.3v-.3l.1-.1.1-.1v-.1l.1-.1.1-.1.1-.1.1-.1.1-.1.1-.1.1-.2.1-.2.1-.1.1-.1.1-.2.1-.2.1-.2.1-.2.1-.2.1-.2.2-.3.1-.2.1-.1.2-.3.2-.3.4-.5.1-.1.1-.1.1-.1.1-.1.1-.2.1-.2.1-.2.1-.2.3-.3.3-.3.1-.2.1-.2.1-.2.1-.2.1-.1.1-.1.1-.1.1-.1.1-.1.1-.1.1-.1.1-.1.1-.1.1-.1.1-.1.1-.1.1-.1.1-.1.1-.1.1-.1.2-.2.2-.2.2-.2.2-.2.2-.2.1-.1.1-.1.4-.4.4-.4v-.1l.1-.1.1-.1.1-.1.1-.1.1-.1.1-.1h.4l-.3-.2zm-4.6 6.7l-.1.2-.1.2-.1.2-.1.1-.1.1-.1.1-.1.1.2-.3.5-.7z"/><path class="st0" d="M463.9 99.9v.8l-.1.1-.1.1-.1.1-.1.1-.1.2-.1.1v.1l-.2.5-.3.5v.1l-.3.5-.3.4-.1.1-.3.5-.2.3-.1.1-.2.2-.2.1-.1.1-.4.3-.6.2v-.7l.1-.4v-.1l.1-.2.1-.3v-.1l.2-.3.3-.5.1-.1.3-.4.4-.5.4-.4.4-.4.1-.1.1-.1.2-.2.1-.1.1-.1.1-.1.1-.1.1-.1h.1l.5-.2zm7.3-5.3h.2l.1.1.1.1v1.5l-.1.1v.6l-.1.1v.1l-.1.1-.1.1-.1.1-.1.1-.1.1-.1.1-.1.1-.1.1-.2.3-.2.2-.1.2-.1.2-.1.2-.1.2-.1.2-.1.1-.1.1-.1.2-.1.2-.1.2-.1.2-.3.3-.3.3-.3.3-.3.3-.3.3-.2.3-.1.2-.1.2-.1.2-.1.2-.1.2-.1.2-.1.2-.1.2-.1.2-.1.2-.1.1-.1.1-.1.1-.1.1-.1.1-.1.1-.1.2-.1.2-.1.2-.1.2-.1.2-.1.1-.1.1-.1.1-.1.1-.1.1-.1.1-.1.1-.1.1-.1.1-.1.1-.1.1-.1.1h-.7l-.6-.8v-.3l.1-.1v-.1l.1-.1.1-.1.1-.1.1-.1.1-.1.1-.1.1-.1.1-.1.1-.1.1-.1.2-.2.2-.2.2-.2.2-.2.2-.2.1-.1.1-.1.1-.1.1-.1.1-.1.1-.1.1-.2.1-.2.1-.2.1-.2.1-.2.1-.2.2-.2.2-.2.2-.2.2-.2.3-.3-1.2.1-.2.2-.2.2-.1.1-.1.1-.2.2-.2.2-.2.2-.2.2-.2.2-.1.1-.1.1-.1.1-.1.1-.1.1-.1.1h-.1l-.1.1h-.1v-.6l.1-.1.1-.1.1-.1.1-.2.1-.2.1-.2.1-.2.1-.2.1-.1.1-.1.2-.2.2-.2.2-.2.2-.2.1-.1.1-.1.2-.2.2-.2.1-.2.2-.2.2-.2.2-.2.2-.2.2-.2.2-.2.2-.2.2-.2.4-.4.4-.3.4-.3.1-.1.1-.1.1-.1.1-.1.1-.1.1-.1.2-.2.2-.2.1-.1.1-.1.1-.1.1-.1.1-.1.1-.1.1-.1h.5l.2-.7z"/><path class="st0" d="M465.3 97.5l.1.1v.1l-.1.2-.1.3-.1.4v.1l-.1.3-.1.2-.2.4v.1l-.1.2v.2l-.2.4-.2.4-.2.4-.2.4-.1.2-.1.1-.1.2-.1.2-.1.2-.1.2-.2.2-.1.1-.1.2-.1.1-.1.1-.2.2-.1.1-.1.1-.1.1v1.6l-.3.2-.2-.3v-1.8l.1-.1v-.1l.1-.1.1-.2.1-.1.1-.1.1-.2.1-.1.1-.1.1-.2.1-.2.1-.2.1-.2.1-.1.1-.2.2-.4.2-.4.2-.4.2-.3v-.1l.1-.1.1-.2v-.1l.2-.4.1-.2.2-.2v-.1l.3-.4.2-.2.1-.2v-.1l.2-.2z"/><path class="st0" d="M466.5 100.2h.1l.1.1-.1.1v.3l-.1.1-.1.1-.1.1-.1.1-.1.2-.1.1v.6l-.1.1-.1.1-.1.1-.1.1-.1.1v.1l-.1.2-.2.3-.1.2-.1.1-.2.2-.1.1-.1.1-.2.2-.1.1-.1.1-.1.1-.1.1-.1.1-.1.1-.1.1-.1.1-.1.1h-.2l-.1.1h-.2l-.1.1-.1.1-.6.2-.1-.6v-1l.1-.2.1-.1.1-.1.1-.1.1-.1.1-.1.1-.1.1-.1.1-.1.2-.2.1-.1.1-.1.2-.2.1-.1.2-.1.2-.2.2-.1.1-.1.1-.1.1-.1.1-.1.1-.1.1-.1.1-.1.1-.1.2-.1.1-.1.1-.1.1-.1.1-.1h.8v-.2zm-8.3 15.3v-.5l.1-.1.1-.1.1-.1.1-.1.1-.1.1-.1.1-.2.1-.2.1-.1.1-.1.1-.2.3-.4.1-.2.1-.2.1-.2.1-.2.2-.3.2-.3.2-.3.2-.3.2-.3.2-.3.2-.3.2-.3.1-.1.1-.2.2-.3.2-.3.2-.3.2-.3.2-.3.2-.3.2-.2.2-.2.2-.2.2-.2.2-.2.2-.2.1-.1.1-.1.2-.2.2-.2.2-.2.2-.2.2-.2.2-.2.2-.2.2-.2.2-.2.2-.2.1-.1.1-.1.1-.1.1-.1.2-.2.1-.1.1-.1.2-.2.2-.2.5-.4.2-.2.2-.2.2-.2.1-.1.1-.1.1-.1.1-.1-.1.1-.1.1-.1.1-.1.1-.1.1-.1.1-.1.1-.1.1-.1.1-.1.1-.2.2-.2.2-.2.2-.1.1-.1.1-.1.1-.1.1-.1.1-.1.1-.1.1-.1.1-.1.1-.1.1-.1.1-.1.1v.6l-.1.1-.1.1-.1.1-.1.1-.1.1-.1.1v-1l.1-.1.1-.1.1-.1.1-.1.1-.1v-.5l.1-.1.1-.1.1-.1.1-.1.1-.1.1-.1.1-.1.1-.1.1-.1.1-.1.1-.1.1-.1.1-.1.1-.1.3-.2.3-.2.2-.2.1-.1.1-.1.1-.1.1-.1.1-.1.1-.1.1-.1.1-.1.1-.1.1-.1.2-.2.2-.2.1-.1.1-.1.1-.1.1-.1.1-.1.1-.1.1-.1.1-.1.1-.1.1-.1h.5l.1-.1.2-.1.1-.1.1-.1.1-.1h.6v1.9l-.1.1-.1.1-.1.1-.2.2-.1.1-.1.1-.1.1-.1.1-.1.1-.1.1-.1.1-.1.1-.1.1-.1.1-.1.1-.1.1-.1.1-.2.2-.2.2-.2.2-.4.5-.2.2-.2.2-.1.1-.1.1-.2.2-.1.1-.1.1-.1.1-.1.1-.2.2-.2.2-.2.2-.2.2-.2.2-.2.2-.2.2-.2.2-.2.2-.2.2-.1.1-.1.2-.2.3-.2.3-.2.3-.2.3-.2.3-.2.3-.2.3-.2.3-.2.3-.2.3-.2.3-.2.3-.1.2v.1l-.2.3-.2.3-.2.3-.2.3-.2.3-.2.3-.2.3-.2.3-.1.2-.1.2-.2.2-.2.2-.3.4-.1.2-.1.1-.1.1-.1.2-.1.2-.1.1-.1.1-.1.1-.1.1-.1.1-.1.1-.1.1-.1.1-.1.1-.1.1-.1.1-.1.1-.6.3-.2-.7-.6-.9zm6.5-10.5zm0 0z"/><path class="st0" d="M470.5 99.9h.1v.3l-.1.2v.1l-.2.3-.2.3v.1l-.2.3-.2.3-.2.3-.2.3-.2.3-.1.1-.1.2-.2.3-.2.3-.2.3-.2.3-.2.3-.2.3-.1.1-.1.1-.2.3-.2.3-.2.3-.2.3-.2.3-.2.2-.1.1-.2.3-.2.3-.2.3-.2.3-.2.3-.2.3-.2.3-.1.1-.1.2-.2.3-.2.3-.2.3-.2.3-.2.3-.2.3-.2.3-.1.2-.1.2-.1.2-.1.2-.1.2-.1.2-.1.2-.1.2-.1.2-.1.1v.1l-.1.2-.1.2-.1.2-.1.2-.1.1v.4l-.1.1-.1.1-.1.1-.1.1-.1.1-.1.1-1.1-1.2-.1.1-.1.1-.1.1-.1.1-.5.3-.2-.5v-1.6l.1-.2.1-.2.1-.2.1-.2v-.1l.1-.1.1-.2.1-.2.1-.2.1-.2.1-.2.1-.2.1-.2.1-.2.1-.2.2-.3.2-.3.2-.3.2-.3.2-.3.2-.3.2-.3.1-.2.1-.1.2-.3.2-.3.2-.3.2-.3.2-.3.2-.3.2-.3.1-.1.2-.2.2-.3.2-.3.3-.3.3-.3.3-.3.1-.1.1-.1.3-.3.3-.3.3-.2.3-.2.3-.2.3-.2.2-.2.1-.1.3-.2.3-.2.3-.2.3-.2.3-.2h.1l.3-.1.3-.2h.1l.2-.1.8-.3z"/><path class="st0" d="M467.2 103.4l.1-.1v1.2l-.1.1v.2l-.1.1-.1.2-.1.1-.1.1v.1l-.1.2-.1.2-.1.2-.1.2-.1.2-.1.2-.2.4-.2.3v.1l-.1.2-.1.2-.1.2-.1.2v.1l-.1.1-.1.2-.2.3-.2.3-.2.3-.2.3-.2.3-.2.3-.2.3-.2.3-.2.3-.2.3-.1.1-.1.2-.2.3-.4.7-.4.7-.1.2v.1l-.1.2-.3.4-.1.2-.1.2-.1.2-.1.1v.1l-.1.1-.1.1-.1.1-.1.1-.1.1-.1.1-.1.1-.1.1-.1.1-.1.1-.1.1-.1.1-.1.1-.1.1-.1.1-.1.1-.3.2-.1-.3V115l.1-.1.1-.2.1-.2.1-.2.3-.4.1-.2v-.1l.1-.2.4-.7.4-.7.2-.3.1-.2.1-.1.2-.3.2-.3.2-.3.2-.3.2-.3.2-.3.2-.3.2-.3.2-.3.2-.3.1-.2.1-.1v-.1l.1-.2.1-.2.1-.2.1-.2.1-.1.2-.3.3-.3.1-.2.1-.1.1-.2.1-.2.1-.2.1-.2.1-.1.1-.1.1-.1.2-.2.1-.1h.1l.1-.1 1.4-1.3zm.3-.1z"/><path class="st7" d="M68.1 382.2c-.2-.2-.5.3-.7.5-.7.8-1.6 1.5-2.4 2.2-1 .8-2.3 1.3-3.4 1.9-.3.2-2 .9-1.9 1.3.1 2.6.2 19.7 2.2 21.3 1 .8 19.4 3.8 20.8 3.2.2-.1.3-1.4.3-1.6-.1-.2-8.8-6.2-9.6-8.1-.9-2.2-.8-4.9-.4-7.2.1-.8.8-1.6 1.1-2.4.5-1.1 1.1-2.4 1.7-3.4.1-.2.5-.8.3-1.1-.1-.1-.8.3-.9.4-.5.3-2.1 1.5-2.6 1-.2-.2 0-.9.1-1.1.1-.8.6-2.8.1-3.4-.9-1-2.6-1.4-3.6-2.4-.2-.2-1-1-.9-1l-.2-.1z"/><defs><path id="SVGID_27_" d="M68.1 382.2c-.2-.2-.5.3-.7.5-.7.8-1.6 1.5-2.4 2.2-1 .8-2.3 1.3-3.4 1.9-.3.2-2 .9-1.9 1.3.1 2.6.2 19.7 2.2 21.3 1 .8 19.4 3.8 20.8 3.2.2-.1.3-1.4.3-1.6-.1-.2-8.8-6.2-9.6-8.1-.9-2.2-.8-4.9-.4-7.2.1-.8.8-1.6 1.1-2.4.5-1.1 1.1-2.4 1.7-3.4.1-.2.5-.8.3-1.1-.1-.1-.8.3-.9.4-.5.3-2.1 1.5-2.6 1-.2-.2 0-.9.1-1.1.1-.8.6-2.8.1-3.4-.9-1-2.6-1.4-3.6-2.4-.2-.2-1-1-.9-1l-.2-.1z"/></defs><clipPath id="SVGID_28_"><use xlink:href="#SVGID_27_" overflow="visible"/></clipPath><g clip-path="url(#SVGID_28_)"><path class="st32" d="M58.9 388h3.2l.1.1.1.1.1.1.1.1.1.1.1.1.1.1.1.1.1.1.1.1.1.1.1.1.1.1.1.1.1.1.1.1.1.1.1.1.1.1.1.1.1.1.1.1.1.1.1.1.1.1.1.1.1.1.1.1.1.1.1.1.1.1v2.1l.1.2.1.2v15.5h.4l.1.1.1.1h.1l.1.1.1.1.1.1.1.1.1.1.1.1.1.1.1.1.1.1h.1l.1.1.1.1.1.1.1.1.1.1.1.1h1.4l.3.1.3.1.3.1.3.1.6.1.3.1.3.1.3.1.3.1.6.1.6.1.6.1.6.1.6.1.3.1.3.1.3.1.3.1.3.1.3.1h.1l.2.1.3.1.3.1.3.1.3.1.3.1h1.7l.1.1-.1.1h-4.3l-.3-.1-.3-.1-.3-.1-.3-.1-.3-.1-.3-.1-.6-.1-.6-.1-.6-.1-.6-.1-.6-.1-.3-.1-.3-.1-.3-.1-.3-.1-.6-.1-.3-.1-.3-.1-.3-.1-.3-.1H67l-.1-.1-.1-.1-.1-.1-.1-.1-.1-.1-.1-.1-.1-.1-.1-.1-.1-.1-.1-.1-.1-.1-.1-.1-.1-.1-.1-.1-.1-.1-.1-.1-.1-.1-.1-.1-.1-.1-.1-.1-.1-.1-.1-.1-.1-.1-.1-.1-.1-.1-.1-.1-.1-.1-.1-.1-.1-.1v-15.5l-.1-.2v-2.5l-.1-.1-.1-.1-.1-.1-.1-.1-.1-.1-.1-.1-.1-.1-.1-.1-.1-.1-.1-.1-.1-.1-.1-.1-.1-.1-.1-.1-.1-.1-.1-.1-.1-.1-.1-.1-.1-.1-.1-.1-.1-.1-.1-.1-.1-.1h-2.6l-.2-.2-.2.1h-.8l-.1-.1.1-.1 1 .1z"/><path class="st32" d="M80.4 406.5l-.1.2-.1.1-.1.1-.1.1-.1.1-.1.1-.1.1-.1.1h-6.5l-.1-.1h-.1l-.1-.1-.1-.1-.1-.1-.1-.1-.1-.1-.1-.1-.1-.1-.1-.1-.1-.1-.1-.1-.1-.1 1.2-.2-.1-.1-.1-.1-.1-.1-.1-.1-.1-.1-.1-.1-.1-.1-.1-.1-.1-.1-.1-.1-.1-.1-.1-.1-.1-.1-.1-.1-.1-.1-.1-.1-.1-.1v-9.9l.1-.2.1-.2.1-.2.1-.2.1-.2.1-.2.1-.2.1-.2.1-.2.1-.2.1-.2.1-.2.1-.2.1-.2.1-.4.1-.4.1-.4.1-.4v-.1l.1-.2.3-.4.1-.1.1.1v.4l-.1.3v.1l-.1.4-.1.4-.1.4-.1.4-.1.2-.1.2-.1.2-.1.2-.1.2-.1.2-.1.2-.1.2-.1.2-.1.2-.1.2-.1.2-.1.2-.1.2-.1.2v9.9l.1.1.1.1.1.1.1.1.1.1.1.1.1.1.1.1.1.1.1.1.1.1.1.1.1.1.1.1.1.1.1.1.1.1.1.1.1.1.1.1.1.1.1.1.1.1h7.8l-1.4-.4z"/></g><path class="st7" d="M132 402.7c.8-1.3 2.8-1.3 2.8-1.3 1 0-.7.1 2.4.1 1.2 0 2.6-.3 3.2 1.4.8 2 1 6.3.7 9.3-.2 2.3-3.8 2.4-6.5 2.1 0 0-5.7.7-6.5-3.3v-.5c.1-2.2 1.7-3.9 2.5-6.7 0 0 .8-2.2 1-.1-.1-.1-.1-.2.4-1z"/><defs><path id="SVGID_29_" d="M132 402.7c.8-1.3 2.8-1.3 2.8-1.3 1 0-.7.1 2.4.1 1.2 0 2.6-.3 3.2 1.4.8 2 1 6.3.7 9.3-.2 2.3-3.8 2.4-6.5 2.1 0 0-5.7.7-6.5-3.3v-.5c.1-2.2 1.7-3.9 2.5-6.7 0 0 .8-2.2 1-.1-.1-.1-.1-.2.4-1z"/></defs><clipPath id="SVGID_30_"><use xlink:href="#SVGID_29_" overflow="visible"/></clipPath><g clip-path="url(#SVGID_30_)"><path class="st32" d="M128.2 410h11.9l.3.1-.1.3-.1.1-.1.1-.1.1-.1.1-.1.1-.1.1h4.3l-.1.1-.1.1-.1.1-.1.1-.1.1-.1.1-.1.1-.1.1-.1.1h-13.7l-.1-.1-.1-.1-.1-.1-.1-.1-.1-.1-.1-.1-.1-.1-.1-.1-.1-.1-.1-.1v-.1l-.1-.1-.1-.1-.1-.1-.1-.1-.1-.1-.1-.1-.1-.1v-.1h1.8-1.3z"/></g><path class="st7" d="M179.6 401.5c-3-1.5-4 3.5-9.7 6.5-3.3 1.7-9.3 2.7-11 2.8-.7.1-3.6.1-4.1.5-.2.2-.4 2.6-.4 2.8.2.7 8.5 1.4 9.1 1.3 2.2-.3 26.5-2.2 28.3-3.6 2.6-2-.5-7.9-1.2-10-.5-1.3-.4-3.1-1.6-3.9-.7-.5-2.2.4-2.5.9-1.4 2.1-4.2 4-6.3 5.6-.3.4.6-2.3-.6-2.9z"/><defs><path id="SVGID_31_" d="M179.6 401.5c-3-1.5-4 3.5-9.7 6.5-3.3 1.7-9.3 2.7-11 2.8-.7.1-3.6.1-4.1.5-.2.2-.4 2.6-.4 2.8.2.7 8.5 1.4 9.1 1.3 2.2-.3 26.5-2.2 28.3-3.6 2.6-2-.5-7.9-1.2-10-.5-1.3-.4-3.1-1.6-3.9-.7-.5-2.2.4-2.5.9-1.4 2.1-4.2 4-6.3 5.6-.3.4.6-2.3-.6-2.9z"/></defs><clipPath id="SVGID_32_"><use xlink:href="#SVGID_31_" overflow="visible"/></clipPath><g clip-path="url(#SVGID_32_)"><path class="st32" d="M183.6 400.7l-.1.3-.1.3v.1l-.1.2-.2.3-.2.3-.1.2-.1.1-.2.3-.2.3-.2.3-.2.3-.2.3-.2.3-.2.2-.1.1-.1.1-.1.1-.1.1-.1.1-.1.1-.1.1-.1.1-.1.1-.1.1-.1.1-.1.1-.1.1-.1.1-.1.1-.1.1-.1.1-.1.1-.1.1-.1.1-.1.1-.1.1-.1.1-.1.1-.1.1-.1.1-.1.1-.1.1-.1.1-.1.1-.1.1-.1.1-.1.1-.1.1-.1.1-.1.1-.1.1-.1.1-.1.1-.1.1-.1.1-.1.1-.1.1-.1.1-.1.1-.1.1-.1.1-.1.1-.1.1-.1.1-.1.1-.1.1-.1.1-.1.1-.1.1-.1.1-.1.1-.1.1-.1.1-.1.1-.1.1-.1.1-.1.1-.1.1h-.2l-.1.1-.1.1-.1.1-.1.1-.1.1-.1.1-.1.1-.1.1-.1.1-.1.1-.1.1-.1.1-.1.1-.1.1-.1.1-.1.1-.2.1-.1.1-.2.1-.2.1-.2.1h-13.6l-.9-.1h-1.9l-.5-.1-.5-.1-.1-.1.1-.1.5-.1.5-.1h2l1 .1H172l.1-.1.1-.1.1-.1.1-.1.1-.1.1-.1.1-.1.1-.1.1-.1.1-.1.1-.1.1-.1.1-.1.1-.1.1-.1.1-.1.1-.1.1-.1.1-.1h.1l.1-.1.1-.1.1-.1.1-.1.1-.1.1-.1.1-.1.1-.1.1-.1.1-.1.1-.1.1-.1.1-.1.1-.1.1-.1.1-.1.1-.1.1-.1.1-.1.1-.1.1-.1.1-.1.1-.1.1-.1.1-.1.1-.1.1-.1.1-.1.1-.1.1-.1.1-.1.1-.1.1-.1.1-.1.1-.1.1-.1.1-.1.1-.1.1-.1.1-.1.1-.1.1-.1.1-.1.1-.1.1-.1.1-.1.1-.1.1-.1.1-.1.1-.1.1-.1.1-.1.1-.1.1-.1.1-.1.1-.1.1-.1.1-.1.1-.1.1-.1.1-.1.1-.1.1-.1.1-.1.2-.2.2-.2.2-.2.2-.2.2-.3.2-.3.2-.3.1-.1.1-.2.2-.3.2-.3.1-.2.2-.2.2-.2.2-.1.5-.1z"/><path class="st32" d="M199.7 404.9l-.1.3-.2.1-.2.1-.2.1-.2.1-.2.1-.2.1-.4.2-.2.1-.2.1-.2.1-.2.1-.2.1-.2.1-.2.1-.2.1-.4.2-.2.1-.2.1-.2.1-.2.1-.2.1-.2.1-.2.1-.2.1-.2.1-.2.1-.2.1-.2.1-.2.1-.2.1-.2.1-.2.1-.2.1-.2.1-.2.1-.2.1-.2.1-.2.1-.2.1-.2.1-.2.1-.2.1-.2.1-.2.1-.2.1-.2.1-.2.1-.2.1-.2.1-.2.1-.2.1-.2.1-1.8-.6-.2.1-.2.1-.2.1-.2.1-.2.1-.2.1-.2.1-.2.1-.2.1-.2.1-.2.1-.5.1-.5.1-.5.1h-.1l-.4.1-.5.1-.5.1-.5.1-.5.1-.5.1-.5.1-.5.1-.5.1-.5.1-.5.1-.5.1-.5.1-.5.1-.5.1-.5.1-.5.1-.5.1-.5.1h-5l-.1-.1.1-.1.5-.1.5-.1.5-.1.5-.1.5-.1.5-.1h.5l.5-.1.5-.1.5-.1h.5l.5-.1.5-.1.5-.1.5-.1.5-.1.5-.1.5-.1.5-.1.5-.1.5-.1.5-.1.5-.1.5-.1.5-.1.5-.1.5-.1.5-.1.4-.1h.1l.5-.1.5-.1.5-.1h.2l.2-.1.2-.1.2-.1.2-.1.2-.1.2-.1.2-.1.2-.1.2-.1.2-.1.2-.1.2-.1.2-.1.2-.1.2-.1.2-.1.2-.1.2-.1.2-.1.2-.1.2-.1.2-.1.2-.1.2-.1.2-.1.2-.1.2-.1.2-.1.2-.1.2-.1.2-.1.2-.1.2-.1.2-.1.2-.1.2-.1.2-.1.2-.1.2-.1.2-.1.2-.1.2-.1.2-.1.2-.1.2-.1.2-.1.2-.1.2-.1.2-.1.2-.1.2-.1.2-.1.2-.1.2-.1.2-.1.2-.1.2-.1.2-.1.2-.1.2-.1.2-.1.2-.1.2-.1 2.1 1.1z"/></g><path class="st7" d="M209.1 401.1c-4.9-3.3-5.9.2-8.6 7.9-.5 1.4-1.6 3.1-.8 4.5.7 1.2 2.9 1.3 4.1 1.5 3.2.4 5.7 0 8.8-.5 1.4-.2 3.4-.4 4.5-1.5 1.7-1.7.2-5.4-.3-7.2-.3-1.3-.9-4.8-1.9-5.4-.3-.2-.9-.9-1.5-.7-.8.3-1.5 1.1-2.3 1.4-.6.2-1.5.4-2 0z"/><defs><path id="SVGID_33_" d="M209.1 401.1c-4.9-3.3-5.9.2-8.6 7.9-.5 1.4-1.6 3.1-.8 4.5.7 1.2 2.9 1.3 4.1 1.5 3.2.4 5.7 0 8.8-.5 1.4-.2 3.4-.4 4.5-1.5 1.7-1.7.2-5.4-.3-7.2-.3-1.3-.9-4.8-1.9-5.4-.3-.2-.9-.9-1.5-.7-.8.3-1.5 1.1-2.3 1.4-.6.2-1.5.4-2 0z"/></defs><clipPath id="SVGID_34_"><use xlink:href="#SVGID_33_" overflow="visible"/></clipPath><g clip-path="url(#SVGID_34_)"><path class="st32" d="M224.2 408.4l-.2.3-.4.1-.4.1-.4.1-.4.1-.4.1-.4.1-.4.1-.4.1-.4.1-.4.1-.4.1-.4.1-.4.1-.4.1-.4.1-.4.1-.4.1-.4.1-.4.1-.4.1-.4.1-.4.1-.4.1h-.8l-.4.1-.4.1-.4.1-.4.1-.4.1h-13l-.2-.1-.2-.1h-.2l-1.4-.3-.2-.1-.1-.1.1-.1h14.1l.4-.1.4-.1.4-.1.4-.1.4-.1.4-.1.4-.1.4-.1.4-.1.4-.1.4-.1.4-.1.4-.1.4-.1.4-.1.4-.1.4-.1.4-.1.4-.1.4-.1.4-.1.4-.1.4-.1.4-.1.4-.1.4-.1.4-.1.4-.1.4-.1 1.7.6z"/></g><path class="st7" d="M239.2 400.4c-1.3 0-3.8-4.5-5.8-2.6-2.3 2.1-4 10.6-4.3 11.9-.2.8-.5 4.6-.1 5.4.5.9 5.6.2 10.8.2 4.4 0 8.7.5 10.2-1.4 1.1-1.4.3-4.5-.1-6.3-.9-3.7-1-7.3-3.3-9.7-.3-.3-1.6.1-1.9.2-1.9 1.2-3.3 2.3-5.5 2.3z"/><defs><path id="SVGID_35_" d="M239.2 400.4c-1.3 0-3.8-4.5-5.8-2.6-2.3 2.1-4 10.6-4.3 11.9-.2.8-.5 4.6-.1 5.4.5.9 5.6.2 10.8.2 4.4 0 8.7.5 10.2-1.4 1.1-1.4.3-4.5-.1-6.3-.9-3.7-1-7.3-3.3-9.7-.3-.3-1.6.1-1.9.2-1.9 1.2-3.3 2.3-5.5 2.3z"/></defs><clipPath id="SVGID_36_"><use xlink:href="#SVGID_35_" overflow="visible"/></clipPath><g clip-path="url(#SVGID_36_)"><path class="st32" d="M256.2 409.8l-.2.3-.2.1-.2.1-.2.1-.2.1-.2.1-.2.1-.2.1-.2.1-.2.1-.2.1-.2.1-.2.1h-.3l-.2.1-.2.1h-26.7l-.1-.1.1-.1H246l.5-.1.5-.1.5-.1h4.6l.2-.1.2-.1.2-.1h1.7l.2-.1h.2l.2-.1.2-.1.2-.1.2-.1.2-.1.2-.1.2-.2z"/></g><path class="st7" d="M287 413.5c-1.7.1-1.4-2.7-.5-3 1.9-.7 5.3-3 8.9-6.3 2.6-2.4 5.9-6.1 5.9-6.1.1-.7 1-3.1 2.1.7 0 0 4.7-3.5 7.3-4.2 1.4-.4 2.2 2 2.2 2.7.5 1 2.4 8.6 2.6 9.9.9 1.7-27.5 6.2-28.5 6.3z"/><defs><path id="SVGID_37_" d="M287 413.5c-1.7.1-1.4-2.7-.5-3 1.9-.7 5.3-3 8.9-6.3 2.6-2.4 5.9-6.1 5.9-6.1.1-.7 1-3.1 2.1.7 0 0 4.7-3.5 7.3-4.2 1.4-.4 2.2 2 2.2 2.7.5 1 2.4 8.6 2.6 9.9.9 1.7-27.5 6.2-28.5 6.3z"/></defs><clipPath id="SVGID_38_"><use xlink:href="#SVGID_37_" overflow="visible"/></clipPath><g clip-path="url(#SVGID_38_)"><path class="st32" d="M321.1 402.3l-.1.1-.2.1-.2.1-.2.1-.2.1-.2.2-.2.1-.2.1-.2.1-.2.1-.2.1-.2.1-.2.1-.2.1-.2.1-.2.1-.2.1-.2.1-.2.1-.2.1-.2.1-.5.2-.5.2-.5.2-.5.2-.5.2-.5.1-.5.1-.5.1-.5.1-.5.1-.5.1-.5.1-.5.1-.5.1-.5.1-.5.1-.5.1-.5.1-.5.1-.5.1-.5.1-.2.1-.2.1-.5.1-.5.1-.5.1-.5.1-.5.1-.5.1-.5.1-.5.1h-.2l-.3.1-.5.1-.5.1-.5.1-.5.1-.5.1-.5.1-.4.1-.5.1-.5.1-.5.1-.5.1-.5.1-.5.1-.5.1-.5.1-1 .1-1 .1-1 .1-.8.1h-.1l-.1-.1.1-.1h.1l.8-.1 1-.2 1-.2 1-.2.5-.1.5-.1.4-.1.5-.1.5-.1.5-.1.5-.1.5-.1.4-.1.5-.1.5-.1.5-.1.5-.1.5-.1.5-.1.3-.1h.2l.5-.1.5-.1.5-.1.5-.1.5-.1.5-.1.5-.1.5-.1.2-.1.2-.1.5-.1.5-.1.5-.1.5-.1.5-.1.5-.1.5-.1.5-.1.5-.1.4-.1.5-.1.5-.1.5-.1.5-.1.5-.1.5-.1.5-.1.5-.1.5-.2.5-.2.5-.2.2-.1.2-.1.2-.1.2-.1.2-.1.2-.1.2-.1.2-.1.2-.1.2-.1.2-.1.2-.1.2-.1.2-.1.2-.1.2-.1.2-.1.2-.1.2-.1.2-.1.3.1z"/><path class="st32" d="M303.9 396.6v.6l-.1.2-.1.2v.1l-.1.2-.1.2-.1.2-.1.2-.1.2-.1.2v.2l-.1.2-.1.2-.1.2-.1.2-.1.2-.1.2-.1.2-.1.1-.1.1-.1.1v.1l-.1.1-.1.1-.1.1-.1.1-.1.1-.1.1-.1.1-.1.1-.1.1-.1.1-.1.1-.1.1-.1.1-.1.1-.1.1-.1.1-.1.1-.1.1-.1.1-.1.1-.1.1-.1.1-.1.1-.1.1-.1.1-.1.1-.1.1-.1.1-.1.1-.1.1-.1.1-.1.1-.1.1-.1.1-.1.1-.1.1-.1.1-.1.1-.1.1-.1.1-.1.1-.1.1-.1.1-.1.1-.1.1-.1.1-.1.1-.1.1-.1.1-.1.1-.1.1-.1.1-.1.1-.1.1-.1.1-.1.1-.1.1-.1.1-.1.1-.1.1-.3.2-.3.2-.3.2-.3.2-.3.2-.3.2-.3.2-.3.2-.3.2-.3.2-.3.2-.3.2-.2.1-.3.2-.3.2-.3.2-.3.2-.3.2-.1.1-.2.1-.3.2-.3.2-.3.2-.3.2h-.2l.1-.2.3-.2.3-.2.3-.2.3-.2.2-.1.1-.1.3-.2.3-.2.3-.2.3-.2.3-.2.2-.2.3-.2.3-.2.3-.2.3-.2.3-.2.3-.2.3-.2.3-.2.2-.2.2-.2.2-.2.2-.2.1-.1.1-.1.1-.1.1-.1.1-.1.1-.1.1-.1.1-.1.1-.1.1-.1.1-.1.1-.1.1-.1.1-.1.1-.1.1-.1.1-.1.1-.1.1-.1.1-.1.1-.1.1-.1.1-.1.1-.1.1-.1.1-.1.1-.1.1-.1.1-.1.1-.1.1-.1.1-.1.1-.1.1-.1.1-.1.1-.1.1-.1.1-.1.1-.1.1-.1.1-.1.1-.1.1-.1.1-.1.1-.1.1-.1.1-.1.1-.1.1-.1.1-.1.1-.1.1-.1.1-.1.1-.1.1-.1.1-.1.1-.1.1-.1.1-.1.1-.1v-.1l.1-.1.1-.1.1-.1.1-.1.1-.1.1-.1.1-.1.1-.1.1-.1.1-.1v-.2l.1-.1.1-.1.1-.1.1-.2.1-.2.1-.2.1-.1.1-.2.1-.2.1-.2.1-.2v-.2l.1-.1.1-.6z"/></g><path class="st7" d="M216.2 401.9c-1.3 0-3.8-4.5-5.8-2.6-2.3 2.1-4 10.6-4.3 11.9-.2.8-.5 4.6-.1 5.4.5.9 5.6.2 10.8.2 4.4 0 8.7.5 10.2-1.4 1.1-1.4.3-4.5-.1-6.3-.9-3.7-1-7.3-3.3-9.7-.3-.3-1.6.1-1.9.2-2 1.1-3.3 2.3-5.5 2.3z" transform="scale(-1 1) rotate(6.358 -12.347 -4097.356)"/><g transform="scale(-1 1) rotate(6.358 -12.347 -4097.356)"><defs><path id="SVGID_39_" d="M216.2 401.9c-1.3 0-3.8-4.5-5.8-2.6-2.3 2.1-4 10.6-4.3 11.9-.2.8-.5 4.6-.1 5.4.5.9 5.6.2 10.8.2 4.4 0 8.7.5 10.2-1.4 1.1-1.4.3-4.5-.1-6.3-.9-3.7-1-7.3-3.3-9.7-.3-.3-1.6.1-1.9.2-2 1.1-3.3 2.3-5.5 2.3z"/></defs><clipPath id="SVGID_40_"><use xlink:href="#SVGID_39_" overflow="visible"/></clipPath><g clip-path="url(#SVGID_40_)"><path class="st32" d="M300.9 406.2l-.1.3-.4.2-.4.2-.4.2-.4.1h-.1l-.5.2-.5.2-.4.1h-.1l-.5.2-.4.1-.5.1-.5.1-.5.1-.5.1-.5.1-.5.1-.5.1-.5.1-.3.1h-.1l-.5.1-.2.1-.2.1h-16l-.2-.1-.2-.1-.2-.1-.2-.1-.2-.1-.2-.1-.2-.1-.2-.1-.2-.1-.1-.1.1-.1h17.6l.2-.1.2-.1.2-.1.5-.1h.1l.3-.1.5-.1.5-.1.5-.1.5-.1.5-.1.5-.1.5-.1.5-.1.4-.1.5-.1h.1l.4-.1.5-.1.5-.1h.1l.4-.1.5-.1.5-.1.5-.1-.2.3z" transform="scale(-1 1) rotate(6.358 12.35 -4097.355)"/></g></g><path class="st7" d="M339.7 406.9s-8.4 1-9.3.1c-1.1-1 5.3-3.9 6.1-4.5 6.2-4.4 6.1-6.7 7.4-6.6 3.2.6-1.9 2.9 5.1 1.7 1.1-.2 1-.9 1.6-.3.7.7 1.1 1.8 1.1 3.4.8 1.7.3 4.6-.7 4.8-3 .5-8.3 1.1-11.3 1.4z"/><defs><path id="SVGID_41_" d="M339.7 406.9s-8.4 1-9.3.1c-1.1-1 5.3-3.9 6.1-4.5 6.2-4.4 6.1-6.7 7.4-6.6 3.2.6-1.9 2.9 5.1 1.7 1.1-.2 1-.9 1.6-.3.7.7 1.1 1.8 1.1 3.4.8 1.7.3 4.6-.7 4.8-3 .5-8.3 1.1-11.3 1.4z"/></defs><clipPath id="SVGID_42_"><use xlink:href="#SVGID_41_" overflow="visible"/></clipPath><g clip-path="url(#SVGID_42_)"><path class="st32" d="M353.7 403.5l-.2.1h-1.8l-.3.1h-.1l-.3.1-.3.1-.3.1-.3.1-.3.1-.3.1H333l-.1-.1.1-.1.3-.1.3-.1h17.1l.3-.1.3-.1h2.2l.2-.2z"/><path class="st32" d="M347 395.6l-.1.2-.1.2-.1.2-.1.2-.1.2-.1.2-.1.2-.1.2-.1.2-.1.2-.1.1-.1.1-.1.2-.1.2-.1.2-.1.2-.1.2-.1.2v.1l-.1.1-.1.2-.1.2-.1.2-.1.2-.1.2-.1.1-.1.2-.1.2-.1.2-.2.2-.2.2-.2.2-.2.2-.2.2-.2.2-.2.2-.1.1-.1.1-.2.2-.4-.7-.2.1-.2.1-.2.1-.2.1-.2.1-.2.1-.2.1-.2.1-.2.1-.2.1-.1.1-.2.1-.2.1-.2.1-.2.1-.2.1-.2.1-.2.1-.1.1-.1.1-.1.1h-1.5l-.2-.1.1-.2h1.6l.1-.1.1-.1.2-.1.2-.1.2-.1.2-.1.2-.1.2-.1.2-.1.1-.1.2-.1.2-.1.2-.1.2-.1.2-.1.2-.1.2-.1.2-.1.2-.1.2-.1.2-.1.2-.1.1-.1.1-.1.2-.2.2-.2.2-.2.2-.2.2-.2.2-.2.1-.2.1-.2.1-.2.1-.2.1-.1.1-.2.1-.2.1-.2.1-.2.1-.2.1-.1v-.1l.1-.2.1-.2.1-.2.1-.2.1-.2.1-.2.1-.1.1-.1.1-.2.1-.2.1-.2.1-.2.1-.2.1-.2.1-.2.1-.2.1-.2.1-.1v-.1h.1l.3.9z"/></g><path class="st7" d="M327 395.9c.2.2 8.8-2.9 9.4-1.5 1 2.2 2.7 9.2 3.3 11.5.6-.1.4 4.1-12.7 2.9 0 0-1-.2-1.4-.9-.7-1.2.9-12.5 1.4-12z"/><defs><path id="SVGID_43_" d="M327 395.9c.2.2 8.8-2.9 9.4-1.5 1 2.2 2.7 9.2 3.3 11.5.6-.1.4 4.1-12.7 2.9 0 0-1-.2-1.4-.9-.7-1.2.9-12.5 1.4-12z"/></defs><clipPath id="SVGID_44_"><use xlink:href="#SVGID_43_" overflow="visible"/></clipPath><g clip-path="url(#SVGID_44_)"><path class="st32" d="M342.7 403.4v.1l-.1.1-.1.1-.1.1-.1.1-.3.2-.2.1-.1.1-.5.4-.3.2-.1.1-.1.1-.1.1-.1.1-.1.1-.1.1-.1.1-.1.1-.1.1-.1.1-.1.1-.1.1-.1.1-.1.1-.1.1-.1.1-.2.1-.2.1h-1.2l-.2.1-.2.1h-.2l-.2.1h-8.1l-.2-.1-.2-.1-.2-.1-.2-.1h-.2l-.2-.1-.2-.1-.2-.1-.2-.1-.2-.1h-.1l-.1-.1-.2-.1h-.1l-.1-.1-.2-.1-.1-.1.1-.1h1l.2.1.2.1.2.1.2.1.2.1h.2l.2.1.2.1h8.8l.2-.1.2-.1h1.2l.1-.1.1-.1.1-.1.1-.1.1-.1.1-.1.1-.1.1-.1.1-.1.1-.1.1-.1.1-.1.1-.1.1-.1.1-.1.1-.1.1-.1.1-.1.3-.2.5-.3.1-.1.2-.1.3-.2.1-.1.1-.1.1-.1.1-.1.1.5z"/></g><path class="st7" d="M397.2 380.3c2.2.1 3.7 2.7 5 4.3 1.3 1.7 3 5.3 2.6 5.8-1.3 1.5-5.1 4.4-7.9 6.2-12.5 7.8-16.3 8.2-25.5 9.1-1 .1-.8.1-1.5.3-.3 0-.1-1.4.1-2.4.2-.7 8.3-4.5 14.7-12.4 1.9-2.4 2.4-6 3.9-5.7 1.4.3.7 2.7 1.6 2 1.8-1.3 2.8-1.8 4-3.4 1-1.4 1.7-3.8 3-3.8z"/><defs><path id="SVGID_45_" d="M397.2 380.3c2.2.1 3.7 2.7 5 4.3 1.3 1.7 3 5.3 2.6 5.8-1.3 1.5-5.1 4.4-7.9 6.2-12.5 7.8-16.3 8.2-25.5 9.1-1 .1-.8.1-1.5.3-.3 0-.1-1.4.1-2.4.2-.7 8.3-4.5 14.7-12.4 1.9-2.4 2.4-6 3.9-5.7 1.4.3.7 2.7 1.6 2 1.8-1.3 2.8-1.8 4-3.4 1-1.4 1.7-3.8 3-3.8z"/></defs><clipPath id="SVGID_46_"><use xlink:href="#SVGID_45_" overflow="visible"/></clipPath><g clip-path="url(#SVGID_46_)"><path class="st32" d="M391.3 383.6l-.1.2-.1.2-.1.2-.1.2-.1.2v.1l-.1.2-.2.5-.4.9-.2.5-.1.2-.1.2-.1.2-.1.2-.1.2-.1.2-.1.2-.1.2-.1.2-.1.2-.1.2-.1.2-.1.2-.1.1-.1.1-.1.1-.1.1-.1.1-.1.1-.1.1-.1.1-.1.1-.1.1-.1.1-.1.1-.1.1-.1.1-.1.1-.1.1-.1.2-.1.2-.2.2-.2.2-.2.2-.2.2-.1.1-.1.1-.2.2-.2.2-.2.2-.2.2-.2.2-.1.1-.2.2-.2.2-.2.2-.2.2-.2.2-.2.2-.2.2-.2.2-.2.2-.2.2-.4.3-.4.3-.3.3-.3.3-.3.3-.3.3-.3.3-.3.2-.3.2-.3.2-.3.2-.2.1-.2.1-.1.1-.2.1-.2.1-.2.1-.2.1-.2.1-.2.1-.2.1-.2.1-.2.1-.2.1-.2.1-.2.1-.2.1-.2.1-.2.1-.2.1-.2.1-.2.1-.2.1-.2.1-.2.1-.2.1-.2.1-.2.1-.2.1-.2.1-.2.1-.2.1-.2.1-.2.1-.2.1-.2.1-.2.1-.1.1h-.1l-.2.1-.2.1-.2.1-.2.1-.2.1-.2.1-.2.1-.2.1-.2.1-.2.1-.2.1h-.1v-.1l.2-.1.2-.1.2-.1.2-.1.2-.1.2-.1.2-.1.2-.1.2-.1.2-.1.2-.1h.1l.1-.1.2-.1.2-.1.2-.1.2-.1.2-.1.2-.1.2-.1.2-.1.2-.1.2-.1.2-.1.2-.1.2-.1.2-.1.2-.1.2-.1.2-.1.2-.1.2-.1.2-.1.2-.1.2-.1.2-.1.2-.1.2-.1.2-.1.2-.1.2-.1.2-.1.2-.1.2-.1.2-.1.1-.1.1-.1.1-.1.1-.1.3-.2.3-.3.3-.3.3-.3.3-.3.3-.3.3-.3.3-.3.3-.3.4-.3.4-.3.2-.2.2-.2.2-.2.2-.2.2-.2.2-.2.2-.2.2-.2.2-.2.2-.2.1-.1.2-.2.2-.2.2-.2.2-.2.2-.2.1-.1.1-.1.2-.2.2-.2.2-.2.1-.2.1-.2.1-.2.1-.1.1-.1.1-.1.1-.1.1-.1.1-.1.1-.1.1-.1.1-.1.1-.1.1-.1.1-.1.1-.1.1-.1.1-.1.1-.1.1-.2.1-.2.1-.2.1-.2.1-.2.1-.2.1-.2.1-.2.1-.2.1-.2.1-.2.1-.2.1-.2.2-.4.4-.9.2-.4.1-.2v-.1l.1-.2.1-.2.1-.2.1-.2.1-.2h.1l.4.2zm11.7 5.3l-.3.2-.3.2-.3.2-.1.1-.1.1-.3.2-.3.2-.3.2-.3.2-.3.2-.2.2-.1.1-.3.2-.3.2-.3.2-.3.2-.3.2-.3.2-.2.1-.1.1-.3.2-.3.2-.3.2-.3.2-.3.2-.3.2-.3.2-.3.2-.3.2-.3.2-.3.2-.3.2-.3.2-.3.2-.3.2-.3.2-.3.2-.3.2-.3.2-.3.2-.3.2-.3.2-.3.2-.3.2-.3.2-.3.1h-.1l-.3.2-.3.1-.3.1-.3.1-.3.1-.3.1-.3.1-.3.1-.3.1-.3.1-.3.1-.3.1-.3.1-.3.1-.3.1-.3.1-.3.1-.3.1-.3.1-.3.1-.3.1-.4.2-.4.2-.4.2-.4.2-.4.2-.3.1-.2.1-.4.2-.4.2-.4.1-.4.1-.4.1-.4.1-.4.1-.4.1-.4.1-.4.1-.4.1-.4.1-.4.1-.3.1h-.1l-.4.1-.2.1-.2.1-.2.1-.2.1-.2.1-.2.1-.2.1-.2.1h-2.5l-.3-.1-.3-.1-.1-.1.1-.1.2-.2.2-.2h2.5l.2-.1.2-.1.2-.1.2-.1.2-.1.2-.1.2-.1.2-.1.4-.1h.1l.3-.1.4-.1.4-.1.4-.1.4-.1.4-.1.4-.1.4-.1.4-.1.4-.1.4-.1.4-.1.4-.1.4-.1.2-.1.3-.1.4-.1.4-.1.4-.2.4-.2.4-.2.3-.1.3-.1.3-.1.3-.1.3-.1.3-.1.3-.1.3-.1.3-.1.3-.1.3-.1.3-.1.3-.1.3-.1.3-.1.3-.1.3-.1.3-.1.3-.1.3-.1.3-.1h.1l.3-.1.3-.1.3-.1.3-.1.3-.1.3-.2.3-.2.3-.2.3-.2.3-.2.3-.2.3-.2.3-.2.3-.2.3-.2.3-.2.3-.2.3-.2.3-.2.3-.2.3-.2.3-.2.3-.2.3-.2.3-.2.3-.2.1-.1.2-.1.3-.2.3-.2.3-.2.3-.2.3-.2.3-.2.1-.1.2-.1.3-.2.3-.2.3-.2.3-.2.3-.2.1-.1.2-.1.3-.2.3-.2.4-.4z"/></g></g></svg>