<svg version="1.1" id="Layer_1" xmlns="http://www.w3.org/2000/svg" x="0" y="0" viewBox="0 0 321.7 321.7" xml:space="preserve"><style>.st2{fill:#0b5460}.st4{fill:#378eb1}.st5{fill:#0d5a72}.st6{fill:#0291b4}.st7{fill:#0a4756}.st8{fill:#f6f9b2}.st9{fill:#f6f9df}</style><path d="M127.7 51.5l-2.5-.4 1.2 2.3zm78.6 1.2l2-.5v2.9h-1.4z" fill="#264d59"/><path d="M175.6 283.7l-11.1-137.1-.2 2.8-11 134.9c7.7 0 15.2-.2 22.3-.6z" fill="#0b6277"/><path class="st2" d="M175.6 283.7l-11.1-137.1-11.2 137.6c7.7.1 15.2-.1 22.3-.5z"/><path d="M175.6 291.7c31.1-1.9 54.3-7.2 54.3-7.2s-5.9-40.2-9.7-134.1c-3.8-93.9-22-120.2-22-120.2-39.2 15.6-65.9 0-65.9 0s-6.4 20.6-8.7 31.7C121.2 73.9 92 284.5 92 284.5c19.9 5.7 41.4 7.7 61.3 7.9l11.2-145.8 11.1 145.1z" fill="#0282a2"/><path class="st4" d="M204.6 44.5s0-.1 0 0c-3.5-10.2-6.4-14.4-6.3-14.3-39.2 15.6-65.9 0-65.9 0s-2.2 7.2-4.6 15.4c9.7 3.4 38.3 11 76.8-1.1z"/><path class="st5" d="M127.9 45.6c3.1 1 6.2 1.8 9.4 2.4 1.6.4 3.2.6 4.8.9 1.6.2 3.2.5 4.8.7 6.4.8 12.9 1.1 19.4.9 6.5-.1 12.9-.8 19.3-1.8l4.8-.8 4.8-1 2.4-.5 2.4-.6 4.7-1.2c-6.2 2-12.4 3.9-18.9 5-6.4 1.2-12.9 1.9-19.4 2.1-6.5.1-13.1-.2-19.5-1.2-6.6-1.1-13-2.6-19-4.9z"/><path class="st4" d="M204.6 44.5s0-.1 0 0c-3.5-10.2-6.4-14.4-6.3-14.3-41.5 13.8-65.9 0-65.9 0s-2.2 7.2-4.6 15.4c9.7 3.4 38.3 11 76.8-1.1z"/><path class="st6" d="M132.4 30.2s-6.4 20.6-8.7 31.7C121.2 73.9 92 284.5 92 284.5c11.2 3.2 22.9 5.3 34.5 6.5-3.4-46.1 18.2-146.9 13.1-176.4-4.2-24.3-.7-63.8 1.1-81.2-5.3-1.8-8.3-3.2-8.3-3.2z"/><path class="st5" d="M127.9 45.6c3.1 1 6.2 1.8 9.4 2.4 1.6.4 3.2.6 4.8.9 1.6.2 3.2.5 4.8.7 6.4.8 12.9 1.1 19.4.9 6.5-.1 12.9-.8 19.3-1.8l4.8-.8 4.8-1 2.4-.5 2.4-.6 4.7-1.2c-6.2 2-12.4 3.9-18.9 5-6.4 1.2-12.9 1.9-19.4 2.1-6.5.1-13.1-.2-19.5-1.2-6.6-1.1-13-2.6-19-4.9zm-4.2 16.2v.2l20 11.4 4.9-8.7L125.2 51c-.9 3.7-.9 8-1.5 10.8z"/><path class="st7" d="M146.8 63.7l-4.5 7.9-18.5-10.5c0 .3-.1.5-.1.8v.2l20 11.4 4.9-8.7-1.8-1.1z"/><path class="st5" d="M208.3 52.2l-21 12.5 5.1 8.6 17.5-10.5c-.3-3.7-.8-7.6-1.6-10.6z"/><path class="st7" d="M193.3 71.6l-4.6-7.7-1.4.9 5.1 8.6 17.5-10.5c0-.4-.1-.8-.1-1.1l-16.5 9.8z"/><path class="st6" d="M191.7 137.8l6.2 152c8.1-1 15.1-2 20.4-3l-26.6-149z"/><path class="st5" d="M176.5 290.8c-.3-5.3-2.3-37.1-10.6-144.6 0-.1-1.8-63.1-2.7-95.1-.2-5.9-.3-10.8-.4-14h-.2l-.3 12v2c-.1 24 .8 95.1.8 95.3 2 31.9 9.2 115.2 11.9 146.9 0 0 38.5-4 55-8.7-.1-.1-42.2 6.7-53.5 6.2z"/><path class="st2" d="M175.8 53.2c-.1 0-.2-.1-.2-.2-.1-.5-.1-1-.2-1.5 0-.1.1-.3.2-.3s.3.1.3.2c.1.5.1 1 .2 1.5 0 .2-.1.3-.3.3zM198 283.9c-.1 0-.2-.1-.2-.2-.2-1-.4-2-.5-2.9 0-.1.1-.3.2-.3s.3.1.3.2c.2 1 .4 2 .5 2.9 0 .1-.1.2-.3.3.1 0 .1 0 0 0zm-1-5.9c-.1 0-.2-.1-.2-.2-.2-1-.3-2-.5-2.9 0-.1.1-.3.2-.3s.3.1.3.2c.2 1 .3 2 .5 2.9 0 .1-.1.3-.3.3zm-1-5.9c-.1 0-.2-.1-.2-.2-.2-1-.3-2-.5-2.9 0-.1.1-.3.2-.3s.3.1.3.2c.2 1 .3 2 .5 2.9 0 .2-.1.3-.3.3zm-.9-5.9c-.1 0-.2-.1-.2-.2-.1-1-.3-2-.4-3 0-.1.1-.3.2-.3s.3.1.3.2c.1 1 .3 2 .4 3 0 .2-.1.3-.3.3zm-.9-5.9c-.1 0-.2-.1-.2-.2-.1-1-.3-2-.4-3 0-.1.1-.3.2-.3s.3.1.3.2c.1 1 .3 2 .4 3 0 .2-.1.3-.3.3.1 0 0 0 0 0zm-.8-5.9c-.1 0-.2-.1-.2-.2-.1-1-.3-2-.4-3 0-.1.1-.3.2-.3s.3.1.3.2c.1 1 .3 2 .4 3 0 .2-.1.3-.3.3zm-.7-5.9c-.1 0-.2-.1-.2-.2-.1-1-.2-2-.4-3 0-.1.1-.3.2-.3s.3.1.3.2c.1 1 .2 2 .4 3-.1.1-.2.3-.3.3zm-.7-6c-.1 0-.2-.1-.2-.2l-.3-3c0-.1.1-.3.2-.3s.3.1.3.2l.3 3c-.1.2-.2.3-.3.3zm-.7-5.9c-.1 0-.2-.1-.2-.2l-.3-3c0-.1.1-.3.2-.3s.3.1.3.2l.3 3c0 .2-.1.3-.3.3zm-.6-5.9c-.1 0-.2-.1-.2-.2l-.3-3c0-.1.1-.3.2-.3s.3.1.3.2l.3 3c0 .1-.1.3-.3.3zm-.6-5.9c-.1 0-.2-.1-.2-.2l-.3-3c0-.1.1-.3.2-.3s.3.1.3.2l.3 3c0 .1-.1.2-.3.3zm-.5-6c-.1 0-.2-.1-.2-.2l-.3-3c0-.1.1-.3.2-.3s.3.1.3.2l.3 3c-.1.2-.2.3-.3.3zm-.5-5.9c-.1 0-.2-.1-.2-.2l-.3-3c0-.1.1-.3.2-.3s.3.1.3.2l.3 3c-.1.1-.2.3-.3.3zm-.5-6c-.1 0-.2-.1-.2-.2l-.2-3c0-.1.1-.3.2-.3s.3.1.3.2l.2 3c-.1.2-.2.3-.3.3zm-.5-5.9c-.1 0-.2-.1-.2-.2l-.2-3c0-.1.1-.3.2-.3s.3.1.3.2l.2 3c-.1.2-.2.3-.3.3zm-.5-5.9c-.1 0-.2-.1-.2-.2l-.2-3c0-.1.1-.3.2-.3s.3.1.3.2l.2 3c0 .1-.1.3-.3.3zm-.4-6c-.1 0-.2-.1-.2-.2l-.2-3c0-.1.1-.3.2-.3s.3.1.3.2l.2 3c0 .2-.1.3-.3.3zm-.4-5.9c-.1 0-.2-.1-.2-.2l-.2-3c0-.1.1-.3.2-.3s.3.1.3.2l.2 3c-.1.2-.2.3-.3.3zm-.4-5.9c-.1 0-.2-.1-.2-.2l-.2-3c0-.1.1-.3.2-.3s.3.1.3.2l.2 3c-.1.1-.2.3-.3.3zm-.5-6c-.1 0-.2-.1-.2-.2l-.2-3c0-.1.1-.3.2-.3s.3.1.3.2l.2 3c0 .2-.1.3-.3.3.1 0 .1 0 0 0zm-.4-5.9c-.1 0-.2-.1-.2-.2l-.2-3c0-.1.1-.3.2-.3s.3.1.3.2l.2 3c0 .2-.1.3-.3.3zm-.4-5.9c-.1 0-.2-.1-.2-.2l-.2-3c0-.1.1-.3.2-.3.2 0 .3.1.3.2l.2 3c0 .2-.1.3-.3.3zm-.4-5.9c-.1 0-.2-.1-.2-.2l-.2-3c0-.1.1-.3.2-.3s.3.1.3.2l.2 3c0 .1-.1.3-.3.3zm-.4-6c-.1 0-.2-.1-.2-.2l-.2-3c0-.1.1-.3.2-.3s.3.1.3.2l.2 3c-.1.2-.2.3-.3.3zm-.4-5.9c-.1 0-.2-.1-.2-.2l-.2-3c0-.1.1-.3.2-.3s.3.1.3.2l.2 3c-.1.2-.2.3-.3.3zm-.5-5.9c-.1 0-.2-.1-.2-.2-.1-1-.2-2-.2-3 0-.1.1-.3.2-.3s.3.1.3.2c.1 1 .2 2 .2 3 0 .1-.1.2-.3.3zm-.5-6c-.1 0-.2-.1-.2-.2-.1-1-.2-2-.2-3 0-.1.1-.3.2-.3s.3.1.3.2c.1 1 .1 2 .2 3 0 .2-.1.3-.3.3zm-.4-5.9c-.1 0-.2-.1-.2-.2-.1-1-.1-2-.2-3 0-.1.1-.3.2-.3s.3.1.3.2c.1 1 .1 2 .2 3-.1.2-.2.3-.3.3zm-.4-6c-.1 0-.2-.1-.2-.2l-.2-3c0-.1.1-.3.2-.3s.3.1.3.2l.2 3c-.1.2-.2.3-.3.3zm-.4-5.9c-.1 0-.2-.1-.2-.2l-.2-3c0-.1.1-.3.2-.3s.3.1.3.2l.2 3c-.1.2-.2.3-.3.3zm-.4-5.9c-.1 0-.2-.1-.2-.2-.1-1-.1-2-.2-3 0-.1.1-.3.2-.3s.3.1.3.2c.1 1 .1 2 .2 3-.1.1-.2.3-.3.3zm-.5-6c-.1 0-.2-.1-.2-.2-.1-1-.2-2-.2-3 0-.1.1-.3.2-.3s.3.1.3.2c.1 1 .2 2 .2 3 0 .2-.1.3-.3.3.1 0 0 0 0 0zm-.4-5.9c-.1 0-.2-.1-.2-.2 0-.8-.1-1.8-.2-3 0-.1.1-.3.2-.3s.3.1.3.2c.1 1.2.2 2.2.2 3 0 .2-.1.3-.3.3zm-.4-6c-.1 0-.2-.1-.2-.2-.1-.9-.2-1.9-.3-3 0-.1.1-.3.2-.3s.3.1.3.2l.3 3c-.1.2-.2.3-.3.3zm-.6-5.9c-.1 0-.2-.1-.2-.2l-.3-3c0-.1.1-.3.2-.3s.3.1.3.2l.3 3c-.1.2-.2.3-.3.3zm-.7-5.9c-.1 0-.2-.1-.2-.2l-.3-3c0-.1.1-.3.2-.3s.3.1.3.2l.3 3c0 .1-.1.3-.3.3zm-.6-5.9c-.1 0-.2-.1-.2-.2l-.3-3c0-.1.1-.3.2-.3s.3.1.3.2l.3 3-.3.3zm-.8-6c-.1 0-.2-.1-.2-.2-.1-1-.2-2-.4-3 0-.1.1-.3.2-.3s.3.1.3.2c.1 1 .2 2 .4 3 0 .2-.1.3-.3.3.1 0 .1 0 0 0zm-.7-5.9c-.1 0-.2-.1-.2-.2-.1-1-.3-2-.4-3 0-.1.1-.3.2-.3s.3.1.3.2c.1.9.3 1.9.4 3 0 .2-.1.3-.3.3zm22.3 229.6c-.1 0-.2-.1-.2-.2l-.3-1.5c0-.1.1-.3.2-.3s.3.1.3.2l.3 1.5c-.1.1-.1.2-.3.3zM177.3 53.1c-.1 0-.2-.1-.2-.2l-.2-1.5c0-.1.1-.3.2-.3s.3.1.3.2l.2 1.5c0 .1-.1.2-.3.3.1 0 .1 0 0 0zm23.4 230.1c-.1 0-.2-.1-.2-.2-.2-1-.3-1.9-.5-2.9 0-.1.1-.3.2-.3s.3.1.3.2c.1 1 .3 2 .5 2.9 0 .1-.1.2-.3.3.1 0 .1 0 0 0zm-.8-5.9c-.1 0-.2-.1-.2-.2-.1-1-.3-2-.4-2.9 0-.1.1-.3.2-.3s.3.1.3.2c.1 1 .3 2 .4 2.9l-.3.3zm-.8-5.9c-.1 0-.2-.1-.2-.2-.1-1-.3-2-.4-3 0-.1.1-.3.2-.3s.3.1.3.2c.1 1 .3 2 .4 2.9-.1.2-.2.4-.3.4zm-.8-5.9c-.1 0-.2-.1-.2-.2-.1-1-.2-2-.4-3 0-.1.1-.3.2-.3s.3.1.3.2c.1 1 .2 2 .4 3 0 .1-.1.3-.3.3zm-.7-5.9c-.1 0-.2-.1-.2-.2l-.3-3c0-.1.1-.3.2-.3s.3.1.3.2l.3 3c0 .1-.1.2-.3.3zm-.7-5.9c-.1 0-.2-.1-.2-.2l-.3-3c0-.1.1-.3.2-.3s.3.1.3.2l.3 3c0 .1-.1.2-.3.3zm-.6-5.9c-.1 0-.2-.1-.2-.2l-.3-3c0-.1.1-.3.2-.3s.3.1.3.2l.3 3-.3.3zm-.7-6c-.1 0-.2-.1-.2-.2l-.3-3c0-.1.1-.3.2-.3s.3.1.3.2l.3 3c0 .2-.1.3-.3.3zm-.7-5.9c-.1 0-.2-.1-.2-.2l-.3-3c0-.1.1-.3.2-.3s.3.1.3.2l.3 3c0 .2-.1.3-.3.3.1 0 0 0 0 0zm-.7-5.9c-.1 0-.2-.1-.2-.2l-.3-3c0-.1.1-.3.2-.3s.3.1.3.2l.3 3c0 .2-.1.3-.3.3.1 0 .1 0 0 0zm-.6-5.9c-.1 0-.2-.1-.2-.2l-.3-3c0-.1.1-.3.2-.3s.3.1.3.2l.3 3c-.1.2-.2.3-.3.3zm-.7-5.9c-.1 0-.2-.1-.2-.2l-.3-3c0-.1.1-.3.2-.3s.3.1.3.2l.3 3c0 .2-.1.3-.3.3zm-.6-5.9c-.1 0-.2-.1-.2-.2l-.3-3c0-.1.1-.3.2-.3s.3.1.3.2l.3 3c0 .2-.1.3-.3.3zm-.6-5.9c-.1 0-.2-.1-.2-.2l-.3-3c0-.1.1-.3.2-.3s.3.1.3.2l.3 3c-.1.1-.2.3-.3.3zm-.6-5.9c-.1 0-.2-.1-.2-.2l-.3-3c0-.1.1-.3.2-.3s.3.1.3.2l.3 3c0 .1-.1.2-.3.3zm-.6-6c-.1 0-.2-.1-.2-.2l-.3-3c0-.1.1-.3.2-.3s.3.1.3.2l.3 3c0 .2-.1.3-.3.3.1 0 .1 0 0 0zm-.5-5.9c-.1 0-.2-.1-.2-.2l-.3-3c0-.1.1-.3.2-.3s.3.1.3.2l.3 3c0 .2-.1.3-.3.3zm-.5-5.9c-.1 0-.2-.1-.2-.2l-.3-3c0-.1.1-.3.2-.3s.3.1.3.2l.3 3c-.1.2-.2.3-.3.3zm-.5-5.9c-.1 0-.2-.1-.2-.2l-.3-3c0-.1.1-.3.2-.3s.3.1.3.2l.3 3c-.1.1-.2.3-.3.3zm-.5-6c-.1 0-.2-.1-.2-.2l-.2-3c0-.1.1-.3.2-.3s.3.1.3.2l.2 3c-.1.2-.2.3-.3.3zm-.5-5.9c-.1 0-.2-.1-.2-.2l-.2-3c0-.1.1-.3.2-.3s.3.1.3.2l.2 3c-.1.2-.2.3-.3.3zm-.5-5.9c-.1 0-.2-.1-.2-.2l-.2-3c0-.1.1-.3.2-.3s.3.1.3.2l.2 3c0 .2-.1.3-.3.3zm-.5-5.9c-.1 0-.2-.1-.2-.2l-.2-3c0-.1.1-.3.2-.3s.3.1.3.2l.2 3c0 .1-.1.3-.3.3zm-.4-6c-.1 0-.2-.1-.2-.2l-.2-3c0-.1.1-.3.2-.3s.3.1.3.2l.2 3c-.1.2-.2.3-.3.3zm-.5-5.9c-.1 0-.2-.1-.2-.2l-.2-3c0-.1.1-.3.2-.3s.3.1.3.2l.2 3c0 .2-.1.3-.3.3zm-.5-5.9c-.1 0-.2-.1-.2-.2l-.2-3c0-.1.1-.3.2-.3s.3.1.3.2l.2 3c0 .1-.1.3-.3.3zm-.5-6c-.1 0-.2-.1-.2-.2l-.3-3c0-.1.1-.3.2-.3s.3.1.3.2l.3 3c0 .2-.1.3-.3.3zm-.5-5.9c-.1 0-.2-.1-.2-.2l-.3-3c0-.1.1-.3.2-.3s.3.1.3.2l.3 3c-.1.2-.2.3-.3.3zm-.6-5.9c-.1 0-.2-.1-.2-.2l-.3-3c0-.1.1-.3.2-.3s.3.1.3.2l.3 3c0 .1-.1.3-.3.3.1 0 0 0 0 0zm-.5-5.9c-.1 0-.2-.1-.2-.2l-.3-3c0-.1.1-.3.2-.3s.3.1.3.2l.3 3-.3.3zm-.6-6c-.1 0-.2-.1-.2-.2l-.3-3c0-.1.1-.3.2-.3s.3.1.3.2l.3 3c0 .2-.1.3-.3.3zm-.6-5.9c-.1 0-.2-.1-.2-.2l-.3-3c0-.1.1-.3.2-.3s.3.1.3.2l.3 3c0 .2-.1.3-.3.3zm-.6-5.9c-.1 0-.2-.1-.2-.2l-.3-3c0-.1.1-.3.2-.3s.3.1.3.2l.3 3c0 .2-.1.3-.3.3.1 0 0 0 0 0zm-.6-5.9c-.1 0-.2-.1-.2-.2l-.3-3c0-.1.1-.3.2-.3s.3.1.3.2l.3 3c0 .1-.1.3-.3.3zm-.6-5.9c-.1 0-.2-.1-.2-.2l-.3-3c0-.1.1-.3.2-.3s.3.1.3.2l.3 3c0 .1-.1.2-.3.3zm-.6-5.9c-.1 0-.2-.1-.2-.2l-.3-3c0-.1.1-.3.2-.3s.3.1.3.2l.3 3c0 .1-.1.2-.3.3zm-.6-5.9c-.1 0-.2-.1-.2-.2l-.3-3c0-.1.1-.3.2-.3s.3.1.3.2l.3 3-.3.3zm-.7-6c-.1 0-.2-.1-.2-.2l-.3-3c0-.1.1-.3.2-.3s.3.1.3.2l.3 3c0 .2-.1.3-.3.3zm-.6-5.9c-.1 0-.2-.1-.2-.2l-.3-2.9c0-.1.1-.3.2-.3s.3.1.3.2l.3 2.9c0 .2-.1.3-.3.3zm23.5 229.2c-.1 0-.2-.1-.2-.2l-.3-1.5c0-.1.1-.3.2-.3s.3.1.3.2l.3 1.5c0 .2-.1.3-.3.3zM151 53.1c.1-.5.1-1 .2-1.5 0-.3.5-.3.5.1-.1.5-.1 1-.2 1.5-.1.3-.5.3-.5-.1zm-17.6 231.1c.2-1 .3-2 .5-2.9.1-.3.5-.2.5.1-.2 1-.3 2-.5 2.9 0 .3-.5.2-.5-.1zm1-5.9c.2-1 .3-2 .4-2.9 0-.3.5-.3.5.1-.1 1-.3 2-.4 2.9-.1.3-.6.2-.5-.1zm.8-5.9c.1-1 .3-2 .4-2.9 0-.3.5-.3.5.1-.1 1-.3 2-.4 3 0 .2-.5.1-.5-.2zm.8-5.9c.1-1 .3-2 .4-3 0-.3.5-.3.5.1-.1 1-.3 2-.4 3 0 .3-.5.3-.5-.1zm.8-5.9l.3-3c0-.3.5-.3.5.1-.1 1-.2 2-.4 3 0 .3-.5.2-.4-.1zm.9-5.7c-.2 0-.3-.1-.2-.3l.3-3c0-.1.1-.2.3-.2.1 0 .2.1.2.3l-.3 3c-.1.1-.2.2-.3.2zm.6-5.9c-.2 0-.3-.1-.2-.3l.3-3c0-.1.1-.2.3-.2.1 0 .2.1.2.3l-.3 3c0 .1-.1.2-.3.2zm.6-5.9c-.2 0-.3-.1-.2-.3l.3-3c0-.3.5-.3.5 0l-.3 3c0 .2-.1.3-.3.3zm.6-6c-.2 0-.3-.1-.2-.3l.3-3c0-.3.5-.3.5 0l-.3 3c-.1.2-.2.3-.3.3zm.5-5.9c-.2 0-.3-.1-.2-.3.1-1 .2-2 .2-3 0-.3.5-.3.5 0-.1 1-.2 2-.2 3-.1.2-.2.3-.3.3zm.4-6c-.2 0-.3-.1-.3-.3.1-1 .1-2 .2-3 0-.3.5-.3.5 0-.1 1-.1 2-.2 3 .1.2 0 .3-.2.3zm.5-5.9s-.1 0 0 0c-.2 0-.3-.1-.2-.3.1-1 .1-2 .2-3 0-.4.5-.3.5 0-.1 1-.1 2-.2 3-.1.2-.2.3-.3.3zm.4-6c-.2 0-.3-.1-.2-.3l.2-3c0-.3.5-.3.5 0l-.2 3c-.1.2-.2.3-.3.3zm.3-5.9c-.2 0-.3-.1-.2-.3.3-2.8 0-3.2.4-3.2.1 0 .2.1.2.3l-.2 3c.1.1 0 .2-.2.2zm.4-5.9c-.2 0-.3-.1-.2-.3l.2-3c0-.3.5-.3.5 0l-.2 3c-.1.2-.2.3-.3.3zm.3-6c-.2 0-.3-.1-.2-.3l.2-3c0-.3.5-.3.5 0l-.2 3c0 .2-.1.3-.3.3zm.4-5.9c-.1 0-.1 0 0 0-.2 0-.3-.1-.2-.3l.2-3c0-.3.5-.3.5 0l-.2 3c-.1.2-.2.3-.3.3zm.3-6c-.2 0-.3-.1-.2-.3l.2-3c0-.3.5-.3.5 0l-.2 3c-.1.2-.2.3-.3.3zm.3-5.9c-.2 0-.3-.1-.2-.3l.1-3c0-.3.5-.3.5 0l-.1 3c-.1.2-.2.3-.3.3zm.3-5.9s-.1 0 0 0c-.1 0-.3-.1-.2-.3l.1-3c0-.3.5-.3.5 0l-.1 3c-.1.2-.2.3-.3.3zm.2-6c-.2 0-.3-.1-.2-.3l.1-3c0-.3.5-.3.5 0l-.1 3c0 .2-.1.3-.3.3zm.3-5.9c-.2 0-.3-.1-.2-.3l.1-3c0-.3.5-.3.5 0l-.1 3c0 .2-.1.3-.3.3zm.3-5.9c-.2 0-.3-.1-.2-.3l.2-3c0-.3.5-.3.5 0l-.2 3c0 .2-.1.3-.3.3zm.3-6c-.2 0-.3-.1-.2-.3l.2-3c0-.3.5-.3.5 0l-.2 3c0 .2-.1.3-.3.3zm.4-5.9c-.2 0-.3-.1-.2-.3l.2-3c0-.3.5-.3.5 0l-.2 3c-.1.2-.2.3-.3.3zm.3-6c-.2 0-.3-.1-.2-.3.1-1 .1-2 .2-3 0-.3.5-.3.5 0-.1 1-.1 2-.2 3-.1.2-.2.3-.3.3zm.4-5.9s-.1 0 0 0c-.2 0-.3-.1-.2-.3.1-1 .1-2 .2-3 0-.3.5-.3.5 0-.1 1-.1 2-.2 3-.1.2-.2.3-.3.3zm.3-6c-.2 0-.3-.1-.2-.3.1-1 .1-2 .1-3 0-.3.5-.3.5 0 0 1-.1 2-.1 3-.1.2-.2.3-.3.3zm.3-5.9c-.1 0-.3-.1-.2-.3l.1-3c0-.3.5-.3.5 0l-.1 3c-.1.2-.2.3-.3.3zm.3-6s-.1 0 0 0c-.1 0-.3-.1-.2-.3l.1-3c0-.3.5-.3.5 0l-.1 3c-.1.2-.2.3-.3.3zm.2-5.9c-.2 0-.3-.1-.2-.3 0-1 .1-2 .2-3 0-.3.5-.3.5 0-.1 1-.1 2-.2 3 0 .2-.1.3-.3.3zm.4-5.9s-.1 0 0 0c-.2 0-.3-.1-.2-.3.1-1 .1-2 .2-3 0-.3.5-.3.5 0-.1 1-.1 2-.2 3-.1.1-.2.3-.3.3zm.2-6c-.1 0-.3-.1-.3-.3 0-.8.1-1.8.2-3 0-.3.5-.3.5 0-.1 1.2-.1 2.2-.2 3 .1.2 0 .3-.2.3zm.4-5.9c-.2 0-.3-.1-.3-.3.1-.9.1-1.9.2-3 0-.3.5-.3.5 0-.1 1-.2 2-.2 3 0 .2-.1.3-.2.3zm.5-6c-.2 0-.3-.1-.2-.3l.3-3c0-.3.5-.3.5 0l-.3 3c-.1.2-.2.3-.3.3zm.5-5.9c-.2 0-.3-.1-.2-.3l.3-3c0-.3.5-.3.5 0l-.3 3c-.1.2-.2.3-.3.3zm.6-6s-.1 0 0 0c-.2 0-.3-.1-.2-.3l.3-3c0-.3.5-.3.5 0l-.3 3c-.1.2-.2.3-.3.3zm.6-5.9c-.1 0-.1 0 0 0-.2 0-.3-.1-.2-.3l.3-3c0-.3.5-.3.5.1l-.3 3c-.1.1-.2.2-.3.2zm.6-5.9c-.2 0-.3-.1-.2-.3l.3-3c0-.3.5-.3.5.1-.1.9-.2 1.9-.3 3-.1.1-.2.2-.3.2zm-17.8 229.9c-.1 0-.2-.2-.2-.3l.3-1.5c.1-.3.5-.2.5.1l-.3 1.5c-.1.1-.2.2-.3.2zm16.8-235.7c-.2 0-.3-.1-.2-.3l.1-1.5c0-.3.5-.3.5 0l-.1 1.5c0 .2-.1.3-.3.3zm-19 230.5c.1-1 .3-2 .4-2.9 0-.3.5-.3.5.1-.1 1-.3 2-.4 2.9 0 .2-.5.2-.5-.1zm.8-5.9c.1-1 .2-2 .4-3 0-.3.5-.3.5.1-.1 1-.2 2-.4 3-.1.2-.6.2-.5-.1zm.9-5.7c-.2 0-.3-.1-.2-.3l.3-3c0-.3.5-.3.5.1l-.3 3c-.1.1-.2.2-.3.2zm.6-5.9c-.2 0-.3-.1-.2-.3l.3-3c0-.3.5-.3.5 0l-.3 3c0 .2-.1.3-.3.3zm.6-5.9c-.2 0-.3-.1-.2-.3l.3-3c0-.3.5-.3.5 0l-.3 3c0 .2-.1.3-.3.3zm.6-5.9c-.2 0-.3-.1-.2-.3l.3-3c0-.3.5-.3.5 0l-.3 3c-.1.2-.2.3-.3.3zm.5-5.9c-.2 0-.3-.1-.2-.3l.3-3c0-.1.1-.2.3-.2.1 0 .2.1.2.3l-.3 3c0 .1-.1.2-.3.2zm.6-6c-.2 0-.3-.1-.2-.3l.3-3c0-.3.5-.3.5 0l-.3 3c-.1.2-.2.3-.3.3zm.5-5.9c-.2 0-.3-.1-.2-.3l.3-3c0-.3.5-.3.5 0l-.3 3c0 .2-.1.3-.3.3zm.6-5.9c-.2 0-.3-.1-.2-.3l.3-3c0-.3.5-.3.5 0l-.3 3c-.1.2-.2.3-.3.3zm.6-5.9c-.2 0-.3-.1-.2-.3l.3-3c0-.3.5-.3.5 0l-.3 3c-.1.2-.2.3-.3.3zm.5-5.9c-.2 0-.3-.1-.2-.3l.3-3c0-.3.5-.3.5 0l-.3 3c-.1.2-.2.3-.3.3zm.5-6c-.2 0-.3-.1-.2-.3l.2-3c0-.3.5-.3.5 0l-.2 3c0 .2-.2.3-.3.3zm.5-5.9c-.2 0-.3-.1-.2-.3l.2-3c0-.1.1-.2.3-.2.1 0 .2.1.2.3l-.2 3c-.1.1-.2.2-.3.2zm.5-5.9c-.2 0-.3-.1-.3-.3l.2-3c0-.3.5-.3.5 0l-.2 3c0 .2-.1.3-.2.3zm.4-6c-.2 0-.3-.1-.3-.3l.2-3c0-.3.5-.3.5 0l-.2 3c.1.2-.1.3-.2.3zm.4-5.9c-.2 0-.3-.1-.3-.3l.2-3c0-.3.5-.3.5 0l-.2 3c.1.2 0 .3-.2.3zm.4-5.9c-.2 0-.3-.1-.3-.3l.2-3c0-.4.5-.3.5 0l-.2 3c.1.2 0 .3-.2.3zm.4-6c-.2 0-.3-.1-.2-.3l.2-3c0-.3.5-.3.5 0l-.2 3c0 .2-.1.3-.3.3zm.4-5.9c-.2 0-.3-.1-.3-.3l.2-3c0-.3.5-.3.5 0l-.2 3c.1.2 0 .3-.2.3zm.4-5.9c-.2 0-.3-.1-.2-.3l.2-3c0-.3.5-.3.5 0l-.2 3c-.1.2-.2.3-.3.3zm.4-6c-.2 0-.3-.1-.2-.3l.2-3c0-.3.5-.3.5 0l-.2 3c-.1.2-.2.3-.3.3zm.3-5.9c-.2 0-.3-.1-.3-.3l.2-3c0-.3.5-.3.5 0l-.2 3c.1.2-.1.3-.2.3zm.4-5.9c-.2 0-.3-.1-.2-.3l.2-3c0-.3.5-.3.5 0l-.2 3c-.1.2-.2.3-.3.3zm.3-6c-.2 0-.3-.1-.2-.3.1-1 .1-2 .2-3 0-.3.5-.3.5 0-.1 1-.1 2-.2 3 0 .2-.2.3-.3.3zm.4-5.9c-.2 0-.3-.1-.2-.3l.2-3c0-.3.5-.3.5 0l-.2 3c-.1.2-.2.3-.3.3zm.4-6c-.2 0-.3-.1-.2-.3l.2-3c0-.3.5-.3.5 0l-.2 3c-.1.2-.2.3-.3.3zm.4-5.9c-.2 0-.3-.1-.2-.3l.2-3c0-.3.5-.3.5 0l-.2 3c-.1.2-.2.3-.3.3zm.4-5.9c-.2 0-.3-.1-.3-.3l.2-3c0-.3.5-.3.5 0l-.2 3c0 .2-.1.3-.2.3zm.4-6c-.2 0-.3-.1-.3-.3l.2-3c0-.3.5-.3.5 0l-.2 3c.1.2 0 .3-.2.3zm.5-5.9c-.2 0-.3-.1-.2-.3l.2-3c0-.3.5-.3.5 0l-.2 3c-.1.2-.2.3-.3.3zm.5-5.9s-.1 0 0 0c-.2 0-.3-.1-.2-.3l.2-3c0-.3.5-.3.5 0l-.2 3c-.1.2-.2.3-.3.3zm.4-6c-.2 0-.3-.1-.2-.3l.2-3c0-.3.5-.3.5 0l-.2 3c0 .2-.1.3-.3.3zm.5-5.9c-.2 0-.3-.1-.2-.3l.2-3c0-.3.5-.3.5 0l-.2 3c0 .2-.1.3-.3.3zm.5-5.9c-.2 0-.3-.1-.2-.3l.3-3c0-.3.5-.3.5 0l-.3 3c0 .2-.1.3-.3.3zm.5-5.9c-.2 0-.3-.1-.2-.3l.3-3c0-.3.5-.3.5 0l-.3 3c0 .2-.1.3-.3.3zm.5-5.9c-.2 0-.3-.1-.2-.3l.3-3c0-.3.5-.3.5 0l-.3 3c0 .2-.1.3-.3.3zm.6-6s-.1 0 0 0c-.2 0-.3-.1-.2-.3l.3-3c0-.3.5-.3.5 0l-.3 3c-.1.2-.2.3-.3.3zm.5-5.9c-.2 0-.3-.1-.2-.3l.3-3c0-.3.5-.3.5 0l-.3 3c-.1.2-.2.3-.3.3zm-19 229.6c-.1 0-.2-.1-.2-.3.1-.5.2-1 .2-1.5 0-.3.5-.3.5.1-.1.5-.2 1-.2 1.5-.1.2-.2.2-.3.2z"/><circle class="st8" cx="166.8" cy="43.3" r="3.8"/><path class="st9" d="M167.7 42.8c0 1.2-1 2.2-2.2 2.2-1.2 0-2.2-1-2.2-2.2 0-1.2 1-2.2 2.2-2.2 1.2 0 2.2 1 2.2 2.2z"/><circle class="st8" cx="167.4" cy="63.8" r="2.3"/><path class="st9" d="M168 63.5c0 .8-.6 1.4-1.4 1.4s-1.4-.6-1.4-1.4c0-.8.6-1.4 1.4-1.4s1.4.6 1.4 1.4z"/><circle class="st8" cx="168" cy="80.2" r="2.3"/><path class="st9" d="M168.5 79.9c0 .8-.6 1.4-1.4 1.4-.8 0-1.4-.6-1.4-1.4 0-.8.6-1.4 1.4-1.4.8 0 1.4.7 1.4 1.4z"/><circle class="st8" cx="168.5" cy="98.7" r="2.3"/><circle class="st9" cx="167.6" cy="98.4" r="1.4"/><circle class="st8" cx="169" cy="119.2" r="2.3"/><path class="st9" d="M169.5 118.9c0 .8-.6 1.4-1.4 1.4-.8 0-1.4-.6-1.4-1.4 0-.8.6-1.4 1.4-1.4.8 0 1.4.7 1.4 1.4z"/><circle class="st8" cx="169" cy="141.5" r="2.3"/><path class="st9" d="M169.5 141.2c0 .8-.6 1.4-1.4 1.4-.8 0-1.4-.6-1.4-1.4 0-.8.6-1.4 1.4-1.4.8.1 1.4.7 1.4 1.4z"/><path d="M136 48.2s-2.7-.7-2.8-.8c0 0 6.5-14 6.8-14.4l3 .9c-.1.1-5.5 10-7 14.3zm53.9.4l-5.4-14.8 2.9-.8 5.7 14.8c-.1.1-3.2.8-3.2.8z" fill="#3ca6c0"/><path class="st5" d="M157.5 225.1l-2.6 33.6-2.3 32.8c-19.2-.3-41.9-2.1-60.5-7 19.1 6.2 42 8 62.1 8.7.9-12.7 5.2-58.7 9.6-136.9-.1.1-4.1 39-6.3 68.8z"/></svg>