<svg version="1.1" id="Layer_1" xmlns="http://www.w3.org/2000/svg" x="0" y="0" viewBox="0 0 321.7 321.7" xml:space="preserve"><style>.st0{fill:#a09b7d}.st3{fill:#24283f}.st4{fill:#04060c}.st5{fill:#49519b}.st6{fill:#c40e0e}.st7{fill:#b6cecd}.st9{fill:#c9c399}.st10{fill:#e2d79a}</style><path class="st0" d="M121.6 141.3l-2.2.8-1.2 3.4 2-1.2z"/><path d="M166.7 120.3s-.7-2.1-6.2-9c-.6-.8-1.2-1.5-1.9-2.1-5.5-5.6-14.7-5.4-20 .4-1.7 1.8-3.2 3.8-4.2 5.8-3.4 6.7-26.4 51.9-26.4 51.9l58.7-47z" fill="#0f0f0f"/><path d="M71 230.1c1.6 2.3 8 4.6 14 7.2 6.3 2.8 12.3 5.9 15 5.5 5.3-.8 7-1.5 7-1.5l-1.6-2.3 3.9-1.8 1.8 1.2 7.1-3.3-.2-2.2 3.4-1.5.7 1.3 7.2-3.5.3-2.2 3-2.1 2 2 7.4-5.1-.9-2.3 3.5-2.4 1.8 1.6 7.4-5.1-.3-1.8 3.3-2.1 1 1.1 8.2-5.7-.7-1.7 3.9-2.5 1.2 1.7 7.5-5.2-1.1-1.8 3.7-2.6 1.5 2.1 7.6-5.3-1.3-2.2 3.5-2.2 1.4 2 7.9-4.8-1.4-2.3 3.4-2.5 1.6 2.3 7.7-5.8-1.5-2.1 2.7-1.9 1.5 1.5 6.4-4.1-.9-2.7 2.6-1.5s1.2.7 5.5-2.2c4.3-3 7.3-2.8 7.3-2.8l2.3-1.6s.9-3.3 1-4.3c.2-1 4.9-4.8 5.9-4.6 1 .2 4.1-.1 4.1-.1l3.1-2.5s-.9-5.5.1-6.8c.9-1.1-6.5-8.2-11.7-13.3-.6-.5-1-3.3-1.4-3.8-2.8-3.5-4.6-4.4-4.6-4.4s-14.1-26.7-21.7-26.4c0 0-10.9-10.3-17.4-11.1-.8-.1-1.6-.1-2.3.2-5.9 2.1.7 16.1-2 22-2.6 5.9-21.1 15.3-31.7 16-.5 0-.9.1-1.4.1-8 .5-15.4 1.5-18 1.9-.7.1-1.1.2-1.1.2l-30.1 45.3-4.1 2.8s-6.6 15.1-12.7 24.2c-.7 1-1.4 2-2.1 2.8-.7.8-1.3 1.5-1.9 2.1-4.9 4.6-12.7 10.4-17.1 14.8-1.8 1.8-3.1 3.4-3.3 4.5-.7 3.8-.2 8.7 2.7 13.2.2 0 .3.2.4.4z" fill="#4b5370"/><path class="st3" d="M205.2 161.1l-15.6 11.8s-1.4-27.2-.4-42.7c1-14 19.7-34.9 23.3-38.8l.6-.6c7.6-.3 21.7 26.4 21.7 26.4s6 3.9 6.9 10c.1.5-36.5 33.9-36.5 33.9z"/><path class="st4" d="M243.2 132.5l-38 28.6c-.7-4.9-1.3-10.2-1.6-15.6-.7-13.4 4.9-38.7 8.8-54.2l.6-.6c7.6-.3 21.7 26.4 21.7 26.4l8.5 15.4z"/><path class="st5" d="M68 216.3s15.3 16.2 21.5 15.5c6.2-.7 45.5-22.2 45.5-22.2s-2-3.2-4.6-6.6c-2.7-3.5-6-7-8.5-7.5-3.1-.6-11 .3-17.5.7-1.6.1-3 .1-4.3.1-2 0-3.5-.2-4.3-.6-1.3-.7-2.5-2.2-3.4-3.6-.7 1-1.4 2-2.1 2.8-.7.8-1.3 1.5-1.9 2.1-6.9 6.6-19.7 15.4-20.4 19.3z"/><path class="st3" d="M171.8 191.4l-28.8 20s-4.7-4.4-12.6-8.5c-6.7-3.5-15.7-6.7-26-6.8-1.4 0-2.8 0-4.3.1-1.3.1-2.5.2-3.8.4-2.9.4-4.8-.2-5.9-1.8.7-.8 1.4-1.8 2.1-2.8 6.1-9.1 12.7-24.2 12.7-24.2l4.1-2.8 30.1-45.3s.4-.1 1.1-.2c1-.1 2.7-.4 4.9-.6 3.5-.4 8.2-.9 13.1-1.2-13.6 17.1-46.7 59.3-45.6 63.2 1.4 4.9 29.9 3.4 39.1 2.8 9.1-.5 19.8 7.7 19.8 7.7z"/><path class="st6" d="M145.3 119L112 166.3l-5.2 2.6s-7 16.2-10.3 20.7c-1.7 2.2-4.1 4.1-6.2 5.4.7-.8 1.4-1.8 2.1-2.8 6.1-9.1 12.7-24.2 12.7-24.2l4.1-2.8 30.1-45.3s.4-.1 1.1-.2c.9-.2 2.7-.4 4.9-.7z"/><path class="st3" d="M178.1 187l-74.6 44.4-18.5 6.5c-6-2.7-12.4-5.5-14-7.8-1.1-1.6-1.9-3.2-2.4-4.8-1.1-3.2-1.1-6.3-.7-9 .2-1.2 1.5-2.7 3.3-4.5 2.9 4.2 9.7 3.6 21.9-2.4s39.8-21 55.1-25.4c12.6-3.7 24.8.8 28.7 2.5.8.3 1.2.5 1.2.5z"/><path class="st4" d="M178.1 187l-74.6 44.4-18.9 6.6c-6-2.7-12-5.6-13.6-7.9-1.1-1.6-1.9-3.2-2.4-4.8 16.6-2 44.4-6.8 62.7-17.1 24.3-13.7 30.1-18.1 45.5-21.8.9.4 1.3.6 1.3.6z"/><path class="st3" d="M121.7 165.8s11.7-2.6 25.7 3.4c13.9 6 32.5 20.3 32.5 20.3l32.4-26.2s-30.3.6-41.8-8.2c-11.5-8.8-19.3-14.9-35-10.5s-13.8 21.2-13.8 21.2z"/><path class="st7" d="M71 230.1c1.3 1.8 5.1 4.3 9.7 6.5 1.2.6 2.9.4 4.1 1 6.3 2.8 12.5 5.6 15.2 5.3 5.3-.8 7-1.5 7-1.5l-1.6-2.3 3.9-1.8 1.8 1.2 7.1-3.3-.2-2.2 3.4-1.5.7 1.3 7.2-3.5.3-2.2 3-2.1 2 2 7.4-5.1-.9-2.3 3.5-2.4 1.8 1.6 7.4-5.1-.3-1.8 3.3-2.1 1 1.1 8.2-5.7-.7-1.7 3.9-2.5 1.2 1.7 7.5-5.2-1.1-1.8 3.7-2.6 1.5 2.1 7.6-5.3-1.3-2.2 3.5-2.2 1.4 2 7.9-4.8-1.4-2.3 3.4-2.5 1.6 2.3 7.7-5.8-1.5-2.1 2.7-1.9 1.5 1.5 6.4-4.1-.9-2.7 2.6-1.5s1.2.7 5.5-2.2c4.3-3 7.3-2.8 7.3-2.8l2.3-1.6s.9-3.3 1-4.3c.2-1 4.9-4.8 5.9-4.6 1 .2 4.1-.1 4.1-.1l3.1-2.5s.4-4.3 1.4-5.6c.9-1.1-4.5-10.9-9.5-16.4-.4-.5-.8-.9-1.2-1.3-.6-.5-1.1-1-1.6-1.4-5.4-4-6.7-3.7-6.7-3.7s4.7 2.5-.6 10.3c-5.4 7.8-43.5 30.1-63.8 55.3-20.3 25.2-78.6 49.2-91.8 48.8-3.2-.1-5.8-1.3-7.8-1.9 0 .1.1.3.2.5z"/><path d="M253.7 139.8c-1 1.3-1.4 5.6-1.4 5.6l-3.1 2.5s-3.1.3-4.1.1c-1-.2-5.7 3.6-5.9 4.6-.1.9-.8 3.3-1 4 0 .2-.1.3-.1.3l-.9.6-1.4.9s-3-.1-7.3 2.8c-4.3 3-5.5 2.2-5.5 2.2l-2.7 1.5.9 2.7-6.4 4.1-1.5-1.5-2.7 1.9 1.5 2.1-7.7 5.8-1.6-2.3-3.4 2.5 1.4 2.3-7.9 4.8-1.4-2-3.5 2.2 1.3 2.2-7.6 5.3-1.5-2.1-3.7 2.6 1.1 1.8-7.6 5.2-1.2-1.7-3.9 2.5.7 1.7-8.2 5.7-1-1.1-3.3 2.1.3 1.8-7.4 5.1-1.8-1.6-3.5 2.4.9 2.3-7.4 5.1-2-2-3 2.1-.3 2.2-7.2 3.5-.7-1.3-3.4 1.5.2 2.2-7.1 3.3-1.8-1.2-3.9 1.8 1.6 2.3s-1.7.7-7 1.5c-2.4.3-7.9-1.3-13.5-3.6-.7-.3-1.5-.6-2.2-.9-1.2-.5-2.4-1.1-3.6-1.7 1.1-.3 2.4-.5 3.9-.7 26-3.2 70.8-35.4 121.1-75.5 24.5-19.5 34.6-30.7 38.5-37.1 1 1.1 2 2.4 3 3.7 4.3 5.6 7.6 12 6.9 12.9z" fill="#e3f8fc"/><path class="st4" d="M140.3 135.6c0 1-.8 1.8-1.8 1.8s-1.8-.8-1.8-1.8.8-1.8 1.8-1.8 1.8.8 1.8 1.8z"/><path class="st9" d="M139.1 134.1c1.1.8 1 2.4 0 3.1-.4.3-.9.7-1.6 1.1-2.4 1.7-14.8.1-15.2.8l3.1-6.1s5-1.6 8.4-1c2 .5 4.1 1.2 5.3 2.1z"/><path class="st4" d="M144.7 127.2c0 1-.8 1.8-1.8 1.8s-1.8-.8-1.8-1.8.8-1.8 1.8-1.8 1.8.8 1.8 1.8z"/><path class="st9" d="M128.9 124.4s4.8-1.8 9.5-1 6.7 4.5 5.3 5.4c-1.4 1-13.9-.6-15.3.4-1.4 1-2 2.1-2 2.1s-.3-4.9 2.5-6.9z"/><path class="st4" d="M130.7 147.6c0 1-.8 1.8-1.8 1.8s-1.8-.8-1.8-1.8.8-1.8 1.8-1.8 1.8.8 1.8 1.8z"/><path class="st10" d="M125.4 133.1s-2.1.6-3.1 6.1c-1 5.4 5.5 10.8 7.3 9.5 1.8-1.3.9-3.8-.2-6.7-1-2.9-4-8.9-4-8.9z"/><path class="st4" d="M122.9 157.9c0 1-.8 1.8-1.8 1.8s-1.8-.8-1.8-1.8.8-1.8 1.8-1.8 1.8.8 1.8 1.8z"/><path class="st10" d="M119.4 142.1s4.4 10.5 3.5 14.2c-.9 3.7-3.3 2.8-5 .4-1.7-2.4-2.1-7.1-2.1-7.1s1.8-6.9 3.6-7.5z"/><path class="st4" d="M116.4 167.2c0 1-.8 1.8-1.8 1.8s-1.8-.8-1.8-1.8.8-1.8 1.8-1.8 1.8.8 1.8 1.8z"/><path class="st10" d="M115 153.6s-3.7 2.1-4.7 4.8c-.4 1 1.5 10.1 3.6 10.5 2.2.4 1.1-15.3 1.1-15.3z"/><path class="st4" d="M103.1 188.3c0 1-.8 1.8-1.8 1.8s-1.8-.8-1.8-1.8.8-1.8 1.8-1.8c.9 0 1.8.8 1.8 1.8z"/><path class="st10" d="M98.3 180.7c.1.7.5 7.4 2.8 7.8 3.2.6 1-14.2 1-14.2s-4.1 4-3.8 6.4z"/><path class="st5" d="M140.3 119.7c.6 0 38.3.8 50.4-9 12.2-9.8 9.3-17.2 5.5-22.6-3.8-5.4-.6-8.5-.6-8.5-.8-.1-1.6-.1-2.3.2-5.9 2.1.7 16.1-2 22-2.6 5.9-21.1 15.3-31.7 16-8.4.4-16.5 1.5-19.3 1.9z"/><path class="st5" d="M140.3 119.7c.6 0 38.3.8 50.4-9 12.2-9.8 9.3-17.2 5.5-22.6-3.8-5.4-.6-8.5-.6-8.5-.8-.1-1.6-.1-2.3.2-5.9 2.1.7 16.1-2 22-2.6 5.9-21.1 15.3-31.7 16-8.4.4-16.5 1.5-19.3 1.9z"/><path d="M195.6 79.6c-9.4-.8-.9 15.5-3.8 22.3-2.5 5.7-15.4 11.7-21.3 13.8-9.7 3.4-9.5 1.7-30.2 4 18.4-3.3 19.2-1.1 29.9-4.9 5.8-2.1 15.3-6.7 19.4-11.3 1.4-1.6 2.1-2.8 2-6.7-.3-6.7-3.7-18.4 4-17.2z" fill="#5d6dce"/><path class="st7" d="M253.7 139.8c-1 1.3-1.4 5.6-1.4 5.6l-3.1 2.5s-3.1.3-4.1.1c-1-.2-5.7 3.6-5.9 4.6-.1.9-.8 3.3-1 4-.3.3-.7.6-1 .9l-1.4.9s-3-.1-7.3 2.8c-4.3 3-5.5 2.2-5.5 2.2l-2.7 1.5.9 2.7-6.4 4.1-1.5-1.5-2.7 1.9 1.5 2.1-7.7 5.8-1.6-2.3-3.4 2.5 1.4 2.3-7.9 4.8-1.4-2-3.5 2.2 1.3 2.2-7.6 5.3-1.5-2.1-3.7 2.6 1.1 1.8-7.6 5.2-1.2-1.7-3.9 2.5.7 1.7-8.2 5.7-1-1.1-3.3 2.1.3 1.8-7.4 5.1-1.8-1.6-3.5 2.4.9 2.3-7.4 5.1-2-2-3 2.1-.3 2.2-7.2 3.5-.7-1.3-3.4 1.5.2 2.2-7.1 3.3-1.8-1.2-3.9 1.8 1.6 2.3s-1.7.7-7 1.5c-2.4.3-7.9-1.3-13.5-3.6 28.1-8.6 74.2-40.1 74.2-40.1s47.1-34.1 69.5-54.8c8.7-8.1 13.9-13.5 17-17.2l.9 1.2c.9 1.3 1.8 2.7 2.6 4 2.5 3.8 3.9 7 3.4 7.6z"/><path d="M252.3 145.3l-3.1 2.4c-3.5.3-3.8.1-4.2.1-.9 0-5.3 3.1-5.9 4.7 0 .1-1 4-1 4l-2.2 1.7c-2.2 0-4.9 1.1-6.6 2.3-4.1 2.9-6.3 2.7-6.3 2.7-.1 0-3 1.7-2.9 1.6 0 .1.9 2.9.9 2.7l-5.9 3.8-1.5-1.5c-.1.1-3.1 2.1-3 2.1l-.4.3c0 .1 1.5 2.2 1.5 2.1l-6.9 5.2c-.1-.1-1.7-2.4-1.6-2.3-.1.1-4 2.9-3.8 2.8l-.4.3c0 .1 1.4 2.3 1.3 2.3l-7 4.3c0-.1-1.5-2.1-1.4-2-.1.1-4.4 2.7-4.4 2.7 0 .1 1.4 2.4 1.3 2.2l-6.8 4.7c-.1-.1-1.6-2.2-1.5-2.1-.1 0-4.5 3.2-4.5 3.2.1.2 1.1 1.9 1.1 1.8l-6.7 4.7c-.4-.6-1.2-1.8-1.2-1.7-.1.1-4.7 3-4.7 3 .2.4.8 1.8.8 1.7l-7.4 5.2c-.1-.1-1-1.1-1-1.1-.1.1-3.9 2.5-3.9 2.5 0 .1.4 1.9.3 1.8l-6.8 4.8c-.1-.1-1.9-1.7-1.8-1.6-.1.1-4 2.8-4 2.8 0 .1 1 2.4.9 2.3l-6.9 4.8c-.1-.1-2.2-2.1-2-1.9-.1.1-3.3 2.4-3.3 2.4 0 .1-.3 2.3-.3 2.2l-6.8 3.3c-.1-.2-.7-1.4-.7-1.3-.1 0-3.8 1.7-3.8 1.7 0 .1.2 2.3.2 2.2l-6.9 3.3c-.1-.1-1.8-1.3-1.8-1.2-.1 0-4 1.9-4 1.9 3.6 5.1 0 .1.1 0l3.8-1.7c.1.1 1.8 1.3 1.8 1.3 5.1-2.3-1.8.8 7.3-3.3 0-.2-.1-2.3-.1-2.2l3.1-1.3c.1.2.7 1.4.7 1.3 2.2-1 5.4-2.6 7.6-3.6 0-.1.3-2.4.3-2.2l2.7-1.9c.2.2 2.1 2 2 2 6-4.1 2.4-1.7 7.9-5.4-.3-.9-.9-2.3-.9-2.3l2.9-2c.1.1 1.9 1.8 1.8 1.7 5.2-3.6 2.9-2 8-5.5 0-.1-.3-1.8-.3-1.8l2.7-1.7c.1.1 1.1 1.2 1 1.1 1.2-.8 7.9-5.5 8.9-6.1-.1-.2-.8-1.8-.7-1.7l3.1-2c.2.3 1.3 1.8 1.2 1.8 1.7-1.2 6.7-4.6 8.4-5.8-.1-.2-1.1-1.9-1-1.8l2.9-2c.1.1 1.6 2.2 1.5 2.1 4.7-3.3 3.7-2.6 8.5-5.9 0-.1-1.4-2.3-1.3-2.2l2.6-1.7c0 .1 1.5 2.1 1.4 2 2.5-1.6 6.1-3.8 8.7-5.3 0-.1-1.5-2.4-1.4-2.3l2.6-1.9c.1.1 1.7 2.4 1.6 2.3 2.3-1.7 6.4-4.9 8.4-6.4 0-.1-1.5-2.2-1.5-2.1l2-1.4c.1.1 1.5 1.5 1.5 1.4 3.3-2.1 3.7-2.4 6.9-4.5 0-.1-1-2.9-.9-2.7l2.2-1.3c1.7.4 5-2 6.4-2.9 3.8-2.5 6.4-2.3 6.5-2.3.1-.1 2.5-2 2.4-1.9l.1-.1c.8-3.4 1-4.2 1-4.3.7-1.2 3.4-3.4 4.8-4.1 1.1-.5-.1 0 4.9-.4.1-.1 3.2-2.6 3.1-2.6.2-1.4.3-2.8.8-4.4-.6 1.2-.8 2.6-1 4.1z" fill="#2f3535"/><path class="st6" d="M250.6 132.3c-7.7 9.4-24.6 23.8-26 23.8-1.8 0-2.8-.6-2-2.5.7-1.9 8.8-8.2 19.3-18.8 2.8-2.8 4.8-4.9 6.1-6.5 1 1.4 1.9 2.7 2.6 4z"/><path class="st0" d="M109.1 165.1l-3.2 4.3-1.5-.5.8-1.6s2.2-2.2 3.9-2.2z"/><path class="st4" d="M111.3 175.1c0 1-.8 1.8-1.8 1.8s-1.8-.8-1.8-1.8.8-1.8 1.8-1.8 1.8.8 1.8 1.8z"/><path class="st10" d="M105.2 167.3s3.6 5.1 4.3 7.4c.7 2.3-5.9 1.7-7.4-.5-1.4-2.1 3.1-6.9 3.1-6.9z"/><path d="M118.2 145.5l-1.6 4.5s1.7 7.4 3.3 6.7c1.7-.8-1.7-11.2-1.7-11.2zm6.7-9.9l-1.9 4.3s3.5 9 4.9 7.6c1.5-1.5-3-11.9-3-11.9zm-11.2 20.5l-2.2 1.7s1 9.4 1.8 7.8c.9-1.7.4-9.5.4-9.5zm-9.7 13.3l-1.1 3.9s3.4 3.4 3.8 1c.5-2.5-2.7-4.9-2.7-4.9z" opacity=".48" fill="#e2d79a"/></svg>