<svg version="1.1" id="Layer_1" xmlns="http://www.w3.org/2000/svg" x="0" y="0" viewBox="0 0 321.7 321.7" xml:space="preserve"><style>.st0{fill:#134715}.st2{fill:#26bc34}.st5{fill:#272b28}.st7{fill:#91babc}</style><path class="st0" d="M98.4 171l42.3-65.3c3-4.7 9-6.7 14.2-4.6 4.4 1.7 9.4 4.1 12.6 7 6.9 6.3 7.2 11.2 7.2 11.2L109.3 192l-10.9-21z"/><path class="st0" d="M163.7 115.1s11.4 5.4 25.7-7.6c14.3-13.1 6.9-22.3 7.8-27.2.8-4.9 6.1-8.4 6.1-8.4l8.7 31.6-23.3 25.5-25-13.9z"/><path d="M264.4 138.5c-.5 3.2-27.4 20.9-27.4 20.9s-53.9 36.5-64.4 43.3c-10.5 6.7-92 35.9-105.6 32.6 0 0-4.1.1-4.5-1.3-1.1-3.8-2.6-11.4.7-15.2 0 0 16.1-13.4 18.1-14.7.4-.2 1.2-1.6 2.3-3.5.9-1.5 1.9-3.4 3-5.5 5.1-9.8 11.9-24 11.9-24s34.7-54.1 44.6-59.3c.1-.1.2-.1.3-.1.1-.1.3-.1.4-.2 3.6-1.4 9.4-.8 15.7.2 10.6 1.7 22.9 4.5 29.8.7.7-.4 1.4-.8 2.1-1.3 9.5-6.2 12.7-15.9 11.7-23.1-1.1-7.7-3-13.3-3-13.3s2.3-6.7 5.5-5.8c.2.1.5.2.8.3C211.5 72 231.6 89 236 93.7c4.6 5 13.6 18.9 12.9 22.8 0 0 .3.1.7.4 1.4.8 4.3 2.9 3.9 5.7-.1 0 11.4 12.7 10.9 15.9z" fill="#1e6324"/><path class="st2" d="M166.2 191.7l-8.4 5.4-13.5-5.4-32.1-13.1-5.8-2.3 4.4-7.6 6.8 2.9 33.3 13.8zm6.7-11.1l-8.5 5.4-10-4.1-34.1-13.8-7.2-2.9 4.3-7.6 8.3 3.5 35.2 14.6zm7.3-10.2l-8.5 5.4-7.7-3.1-36-14.6-7.6-3.1 4.3-7.6 8.8 3.7 37 15.3zm8.3-9l-8.4 5.4-7-2.8-37.7-15.3-6.7-2.7 4.4-7.6 7.7 3.2 38.8 16.1z"/><path class="st2" d="M117.6 171.6l33.3 13.8-6.6 6.3-32.1-13.1zm8.1-10.5l35.2 14.6-6.5 6.2-34.1-13.8zm6.6-8.5l36.7 15.3-5 4.8-36-14.6zm45.7 6.7l-4.9 4.7-37.7-15.3 4.2-5.5z"/><path d="M235.9 93.8c-1.5 1-7.5-.8-13.6 2.3-6.1 3.1-13.2 20.2-16.4 20.7-3.3.5-13.3-3.9-13.3-3.9l-1.3-1.7c9.5-6.2 12.7-15.9 11.7-23.1-1.1-7.7-3-13.3-3-13.3s2.3-6.7 5.5-5.8c.2.1.5.2.8.3 5.1 2.7 25.2 19.7 29.6 24.5z" fill="#0eaf22"/><path d="M86.5 195.1l7.8 40.3-25.3 7.4-1.9-4.3c-.5-1.2-4.4-3.2-4.7-4.5 0 0-3.8-10 .7-15.2 0 0 16.1-13.4 18.1-14.7.4-.2 1.2-1.6 2.3-3.5.9-1.5 2-3.4 3-5.5z" fill="#2b7f2f"/><path class="st5" d="M206.3 69.3c-.9 1.2-1.8 3.2-.9 5.9 1.4 4.5 8.5 12 4.5 20.9-4 9-13.7 18.5-22.6 20.8-8.7 2.2-38.7-6.9-43.6-5.6 3.6-1.4 9.4-.8 15.7.2 10.6 1.7 22.9 4.5 29.8.7 11.2-6.1 14.9-16.7 13.8-24.3-1.1-7.7-3-13.3-3-13.3s2.3-6.7 5.5-5.8c.2.2.5.3.8.5z"/><path class="st5" d="M159.4 111.6c-5.9 11.3-69.9 95.2-72.3 96.8-2.6 1.6-3.3.5-3.5-5.5 0-.8 0-1.6.1-2.3 2-3.5 4.8-9.1 7.5-14.5 3.8-7.7 7.3-15 7.3-15s35.4-55.2 44.9-59.5c3.5-1.6 9.4-1 16 0z"/><path d="M90.3 194.9s1.9.7 3.7-1.9c1.8-2.5-2.8-7-2.8-7l.8-1.7s-1-.6-2.9 1.1c-1.9 1.7-3 5.7-3 5.7s1 2.9 4.2 3.8zm7.6-22.7s-2.5-.5-3.5 1-2.8 4.4-3.1 5.8c-.2.8 2.5 5 6 4.4 3.5-.5 4.3-3.5 2.9-5.8s-3.1-3.6-3.1-3.6l.8-1.8zm3.2-8.9s-1.2 1.4 0 3.3c1.2 1.8 2.2 4.4 5 3.9 2.8-.5 2-8.9 0-11.2-2-2.3-5 4-5 4zm8.1-8.6s4.7 7 6.8 5.7c2.1-1.3 2.3-1.4 1.3-4.7-1-3.3-3.9-7.7-3.9-7.7s-5.7 4.3-4.2 6.7zm11.9-18.8l-2.1 1.4c-1.3.8-2.3 3.1-2.9 4.5-.3.8-.3 1.6 0 2.4.7 1.8 2.2 5 4.7 5.7 3.5 1 4.1-.5 4.6-3.3.3-1.8-1.3-4.5-2.4-6.1-.7-1-1.2-2.1-1.5-3.2l-.4-1.4zm6-9.2s-.3-1.2-2.8 2.2c-2.5 3.5-1.9 5-1.9 5s.8 1.4 2.5 2.6c2 1.3 4.9 3.2 7.4-.2 1.8-2.4-1.3-5.4-3.2-6.9-.9-.7-1.6-1.6-2-2.7z" fill="#eae298"/><path class="st7" d="M264.4 138.5c-.5 3.2-27.4 20.9-27.4 20.9s-50.2 34.1-63.2 42.5c-.5.3-.9.6-1.2.8-10.5 6.7-30.2 22.6-61.9 37.1-31.7 14.4-37.6 12-37.6 12s-1.7-1.4-3.7-3.8c-1.5-1.8-3.2-4.2-4.5-7-.2-.3-.3-.7-.5-1-.5-1.2-.9-2.5-1.2-3.8 0 0-.3-.9-.7-2.2 6.2.7 18-.2 38.4-9.1 33.7-14.7 63.9-48.4 73.2-57 2.7-2.5 10.6-8.1 20.4-14.7 18.9-12.8 44.8-29.6 55.1-36.2 1.3.7 3.8 2.5 3.9 4.9v.7s6 6.6 9.2 11.5c1.1 1.9 1.9 3.5 1.7 4.4z"/><path d="M264.4 138.5c-.5 3.2-27.4 20.9-27.4 20.9s-50.2 34.1-63.2 42.5c16.7-21.4 20.5-38.2 20.6-48.7 18.9-12.8 44.8-29.6 55.1-36.2 1.3.7 3.8 2.5 3.9 4.9v.7s6 6.6 9.2 11.5c1.2 1.9 2 3.5 1.8 4.4z" fill="#87afaf"/><path d="M253.1 122.9l-72.9 47.6S130.1 215.1 103 230c-17.7 9.7-31 11.2-38.1 11.1-.2-.3-.3-.7-.4-1-.5-1.2-1.6-4.5-1.9-6 6.2.7 18-.2 38.4-9.1 33.7-14.7 63.9-48.4 73.2-57 7.8-7.2 58-40.5 74.5-51.2.5-.3 1.2-.3 1.7.1 1.2.9 2.9 3 3.4 4.7-.1.4-.3 1-.7 1.3z" fill="#bdf0f4"/><path class="st7" d="M262.6 134.1c1.2 1.9 2 3.5 1.8 4.4-.5 3.2-27.4 20.9-27.4 20.9s-53.9 36.5-64.4 43.3c-10.5 6.7-30.2 22.6-61.9 37.1s-37.6 12-37.6 12-1.7-1.4-3.7-3.8c9.2-1.2 29.1-5.1 51.9-17.4 31.6-17 44.5-28.4 57-36.3 12.4-8 83.4-55.2 84.3-60.2z"/><path d="M264.4 138.5c-1.3 5-90.2 63.8-91.5 64.6-14 9-34 25.7-73 41.6-4.6 1.8-21.8 8.5-26.9 7.1 5.1 1.3 22.3-5.8 26.7-7.6 38.6-16.4 59.5-33.6 72.6-42 1.5-.9 85.2-55.9 91.1-62.2.4-.5.8-.9 1-1.5z" fill="#2e4242"/><path d="M203.2 71.8s.8 7 2.9 12.3c2.1 5.3 2 10.6-2.9 17.7 0 0 3.2-7.6 2.1-14.1-.8-4.6-5.3-14.2-3.6-15.9 1.8-1.7 1.5 0 1.5 0z" fill="#555b56"/><path d="M80.1 209c-.6.2-11.9 9.9-13.9 9.9-2.1 0-3.1 3.6-.9 4.3 2.2.7 17.8-5.1 19.8-7.1s-1.6-7.9-5-7.1z" opacity=".39" fill="#2b7f2f"/><path class="st5" d="M193.1 115.2c-.8-.3-1.4-.5-1.4-.5l.2-.5s.5.2 1.4.5l-.2.5zm11.6 4c-.5 0-1.4-.3-3-.8l.2-.6c1.9.6 2.6.8 2.9.8l-.1.6zm3.1-.7l-.3-.5c.9-.4 1.7-1 2.3-1.8l.4.4c-.6.8-1.5 1.4-2.4 1.9zm-9-1.2c-1-.4-1.9-.7-2.8-1.1l.2-.5c.9.4 1.9.7 2.8 1.1l-.2.5zm13.1-3.4l-.5-.2c.2-.4.3-.8.5-1.2.2-.5.5-1 .7-1.6l.5.2c-.3.6-.5 1.1-.7 1.6-.2.4-.4.8-.5 1.2zm2.5-5.5l-.5-.3c.5-1 1-1.9 1.5-2.7l.5.3c-.5.9-1 1.7-1.5 2.7zm3.3-5.1l-.4-.4c.7-.8 1.5-1.6 2.2-2.2l.4.5c-.8.6-1.5 1.3-2.2 2.1zm4.6-3.7l-.3-.5.6-.4c.7-.5 1.4-.9 2-1.2l.3.5c-.6.4-1.2.8-2 1.2l-.6.4zm5.3-2.9l-.2-.6c.9-.3 1.9-.5 3-.6l.1.6c-1.2.2-2.1.3-2.9.6zm5.9-.6v-.6c1.1 0 2.1-.2 2.9-.4l.2.6c-.9.2-1.9.3-3.1.4z"/><path d="M88.7 187.1s-1.8 2.6-1.8 3.5c0 .9 2.4 3.2 3.9 3.2s1.7-1.4 1.7-2.6c0-1.2-3.8-4.1-3.8-4.1zm5.7-12.2s-2.5 2.9-2.2 4.3c.3 1.5 3.8 4.8 5.5 2.4 1.7-2.4-3.3-6.7-3.3-6.7zm10.7-15.1s-3.9 1.4-3.5 4.2c.4 2.7 2.6 6.9 4.2 5.3 1.8-1.7.7-10.2-.7-9.5zm8-10.4s-3.6 2-3.1 3.8c.5 1.8 3.4 7.6 5.3 5.7 1.8-2-2.2-9.5-2.2-9.5zm7.2-11.8s-4.3 3.3-3.7 5.4c.6 2.1 4.1 8.1 6.7 5 2.6-3.2-3-10.4-3-10.4zm5.9-9.9s-3.5 3.4-3.2 5c.3 1.6 4.6 6.5 6.5 3.6 2-3-3.3-8.6-3.3-8.6z" fill="#f4efc9"/></svg>