<svg version="1.1" id="Layer_1" xmlns="http://www.w3.org/2000/svg" x="0" y="0" viewBox="0 0 321.7 321.7" xml:space="preserve"><style>.st2,.st3{fill:#c97209}.st3{opacity:.35}.st4,.st5{fill:#494746}.st5{opacity:.51}.st10{fill:#efc495}</style><path d="M117.3 90.2c-1.9-9.9 3.8-19.7 13.8-23.4 5.8-2.2 14.8-3.5 19.2.9 8.2 8.2-27.1 70-27.1 70l-8.7-.6s4.1-10.2 6-20.3c.9-5.4-1.3-16.9-3.2-26.6z" fill="#0c0c0c"/><path d="M253.7 117.8s1.7 10.8-5.8 17c-7.4 6.3-49.7 45.1-49.7 45.1s-73.6 63.7-92.3 73.6c-18.7 9.9-35.8-9.6-35.8-9.6s-3.4-6.6-1.9-13.3c0-.1.1-.2.1-.4 1.3-5.3 17.3-24 26.1-35.4 2.6-3.4 4.6-6.1 5.4-7.6.7-1.4 1.7-4.2 2.8-7.9 1.7-5.5 3.8-13.2 6-21.2 3.7-13.4 7.6-28 10.3-35.8 2.8-8 2.3-16.4 1-22.7-1.2-6.1-2.9-10.2-2.9-10.2-.4-3.3 1.9-6.9 5.7-10.2 7.6-6.7 21.1-12.2 31.2-11.7 10.4.6 21.2-3.3 26.9-5.8 2.7-1.2 5.9-1 8.5.4 5.4 3 14.7 8.1 19.4 10 7 2.8 26.3 27.4 26.3 27.4l10.2 9.8 8.5 8.5z" fill="#252326"/><path class="st2" d="M171.9 186.9l-73.4 57.5-28.3-.5s-.6-1.2-1.2-3.1c-.8-2.6-1.6-6.4-.7-10.2 0-.1 0-.2.1-.4 1.6-6.8 28-36.3 31.5-43 .7-1.4 1.7-4.2 2.8-7.9 1.7-5.6 3.8-13.2 6-21.2 3.8 6.1 10 14.1 16.2 14.4 5.6.3 14 .4 21.5 1 5.9.4 11.2 1.2 14.2 2.4 6.5 3.1 11.3 11 11.3 11z"/><path class="st3" d="M171.9 186.9l-73.4 57.5-23.7 5.4c-1.1-1.8-4.6-5.9-4.6-5.9s-.6-1.2-1.2-3.1c22.9-11.3 60.3-49.1 77.4-67.2 5.9.4 11.2 1.2 14.2 2.4 6.5 3 11.3 10.9 11.3 10.9z"/><path class="st4" d="M116.5 196.7c-5.6 10-16.2 16.8-32.4 27.3-8.9 5.8-13.5 6.8-15.9 6.6 0-.1.1-.2.1-.4 1.6-6.8 28-36.3 31.5-43 .7-1.4 1.7-4.2 2.8-7.9 3.5 1.5 18.8 8.6 13.9 17.4z"/><path class="st2" d="M238.7 115.1l-27.5 23.2c-2.4 2-5.6 2.3-8.2 1.1-1.4-.7-2.7-1.8-3.5-3.3-3.1-5.8-5.9-13.7-2.6-19.9 6-11.2 9.9-19.5-4.4-21.9-14.3-2.5-49.7 15.2-54.8 12.1-1.9-1.2-4.7-5.8-7.4-11.1-5.1-10-.1-22.3 10.7-25.7 4.5-1.4 9.1-2.2 13.1-1.9 10.9.6 22.2-3.7 27.7-6.1 1.1-.5 2.2-.7 3.4-.6 1.2 0 2.4.4 3.5 1 5.3 3 15.2 8.5 20.2 10.5 6.5 2.6 23.5 23.8 26 27 .2.3.4.5.7.8l3.6 3.5c3.2 3 3 8.4-.5 11.3z"/><path class="st3" d="M238.7 115.1l-27.5 23.2c-2.4 2-5.6 2.3-8.2 1.1-.3-23.6 12.6-46.2 12.6-52.3 0-4.5-17.6-17.4-30.5-26.2 1.2 0 2.4.4 3.5 1 5.3 3 15.2 8.5 20.2 10.5 6.5 2.6 23.5 23.8 26 27 .2.3.4.5.7.8l3.6 3.5c3.3 3.1 3.1 8.5-.4 11.4z"/><path class="st4" d="M149.8 115.2c-.5 7.4-12.4 21.7-17.5 28.7-5.2 7-8.2 22.1-14.8 27.7-6.7 5.6-8 17.8-14.8 21.6-3.4 1.9-6.3 2-8.3 1.6 2.2-2.8 3.9-5.2 4.9-6.8.2-.3.4-.6.5-.8.7-1.4 1.7-4.2 2.8-7.9 1.7-5.6 3.8-13.2 6-21.2 3.7-13.4 7.6-28 10.3-35.8 2.8-8 2.3-16.4 1-22.7 6.6-1.7 14-3.2 18.3-2.9 1.2.1 2.2.3 2.9.7 5.4 3.7 9.2 10.4 8.7 17.8z"/><path class="st5" d="M142.9 111.3c0 9.6-10.1 21.5-16.1 33.8-6 12.3-12.5 22.2-17.6 25.8-5.1 3.6-2.8 13.7-6.9 16.4-.9.5-1.9.8-2.9.9.2-.3.4-.6.5-.8.7-1.4 1.7-4.2 2.8-7.9 1.1-3.5 2.3-7.8 3.6-12.5.8-2.8 1.6-5.7 2.4-8.6 3.7-13.4 7.6-28 10.3-35.8 2.8-8 2.3-16.4 1-22.7 4.5-1.2 9.4-2.2 13.4-2.7 1.8-.2 3.5-.3 4.9-.2 2.2 3.8 4.6 9.2 4.6 14.3z"/><path class="st5" d="M140.1 108.5c-2.6 8.6-15.7 21.9-18.7 33.2-3.1 11.3-7.4 21.2-13.4 24.8-.6.4-1.2.5-1.8.4.8-2.8 1.6-5.7 2.4-8.6 3.7-13.4 7.6-28 10.3-35.8 2.8-8 2.3-16.4 1-22.7 4.5-1.2 9.4-2.2 13.4-2.7 4 2.4 8.3 6.4 6.8 11.4z"/><path d="M132.3 85.4c.2-.1.5.1.6.5l7.7 24c.1.3 0 .6-.2.7l-7.1 2c-.2.1-.5-.1-.6-.5l-7.7-24c-.1-.3 0-.6.2-.7l7.1-2zm-1-2.9l-7.1 2c-1.4.4-2 2.3-1.4 4.2l7.7 24c.6 1.9 2.2 3.2 3.6 2.8l7.1-2c1.4-.4 2-2.3 1.4-4.2l-7.7-24c-.6-1.9-2.2-3.2-3.6-2.8z" fill="#d8ba98"/><path d="M127.2 89.3s7.8 19.2 6.9 19.9c-.8.7-12.5 6.9-13.7 6.8-1.2-.1-8.3-17.7-6.4-20.2 1.8-2.5 13.2-6.5 13.2-6.5zm2.9-1.8l7.4 18.8S174 93.8 178 90.4c4-3.3 7.6-15.1 4.7-20.1-2.9-5-4.4-1.5-19.7 3.8-15.2 5.3-32.9 13.4-32.9 13.4z" fill="#ed7f07"/><path d="M104 174.5s-1.8-.5-3.3.7c-1.5 1.3-2.6 6.3-2.6 6.3l2.6 3.6s1.8 1.6 4.1.3c2.2-1.3 1.7-4 .8-5.1-1-1-2.1-3.7-2.1-3.7l.5-2.1zm2.7-8.1s-1.7-.3-2.4.2c-.7.6-.5 5.7-.5 5.7l1.9 2.1s4.2.9 5.2 1.1c1 .2 1.5-1.8 1.3-3.7-.2-2-5.5-5.4-5.5-5.4zm2.7-11.1s-1.3-.2-2.7 2.3c-1.4 2.5.8 4.4.8 4.4s4.6 1.5 5.3 2.3c.8.8 2 2.4 4 2.1 2-.3 2.3-2.3 1.9-3.2-.2-.8-7.2-8.2-9.3-7.9zm2.8-10.2s-5.3 3.5-1.9 7l7.9.6s2.2.5 3-.2c.8-.7.1-4-2.9-5.2-3-1.3-6.1-2.2-6.1-2.2zm3.9-15.1s-3.3 5.4-1.7 7.1c1.6 1.7 11.4 7.5 13.5 7.6 2.1.1 3.1-.2 3.2-2.7.2-2.5-2.3-3.2-5.7-5.3-3.4-2.1-9.3-6.7-9.3-6.7zm1.2-1.1s-1.9-2.4-.8-4.4c1.1-1.9 2.8-2.8 2.8-2.8s11.4 1.1 12.9 2.7c1.4 1.5 1.2 3.7-.7 4.4-1.8.7-14.2.1-14.2.1z" fill="#efcaa3"/><path d="M253.7 117.8s1.7 10.8-5.8 17c-7.4 6.3-49.7 45.1-49.7 45.1s-73.6 63.7-92.3 73.6c-18.7 9.9-27.7 7.4-29 5.3-1.2-1.8-5.3-7.4-6.7-10.4-.2-.4-.4-.8-.5-1.1-.4-1.4-.6-2.5.4-3.4 4 .2 15.5-1.3 43.3-21.9 36.4-27.1 62.6-62.7 79.7-79.1 17-16.3 31.5-28.2 41.9-43 .1-.1.2-.1.3 0l2.6 2.7 15.8 15.2z" fill="#ffe8d2"/><path class="st10" d="M247.9 134.8c-7.4 6.3-49.7 45.1-49.7 45.1s-73.6 63.7-92.3 73.6c-18.7 9.9-27.7 7.3-29 5.3-.6-.9-1.9-2.7-3.2-4.7-1.4-2-2.7-4.2-3.5-5.6 3-.2 8-1.4 16.3-5.4 18.9-8.9 57.9-38.9 73.3-58 15.4-19.1 46-50.4 59.2-61.4 9.7-8.2 16.1-15.9 18.9-21.2.1-.2.4-.3.6-.1l8.8 8.9 1.7 1.8 2.5 2.5 2.2 2.1c0 .1 1.6 10.9-5.8 17.1z"/><path class="st10" d="M207.4 153.1l.5 3.2 15.7-14.5-.6-2.3zm40.5-36.1c-1.4 2.6-12.2 13.2-12.2 13.2l-1-2.1s9.8-9.9 11.5-13c1.8-3.1.9-3.7 1-3.7l1.7 1.8.1.2s.3 1-1.1 3.6z"/><path d="M253.7 117.8s1.7 10.8-5.8 17c-7.4 6.3-49.7 45.1-49.7 45.1s-73.6 63.7-92.3 73.6c-18.7 9.9-27.7 7.4-29 5.3-.6-.9-1.9-2.7-3.2-4.7 4.3.3 11 .1 19.3-3 14.6-5.5 57.8-38 68.4-48 10.6-10 46.4-40.6 48.3-42.2 1.9-1.6 37-29.3 41.7-45.2.1-.3.5-.4.7-.1l1.6 2.2z" fill="#472f15"/><path d="M124.2 93.1s-7.4 2.2-8.9 3.7 3.8 16.6 5.8 16.6 7.3-2 9.1-5.3c1.7-3.3-1.4-15-6-15zm8.9-3.2l5.7 13.3s26.7-7.1 30.5-13.3c3.8-6.2 5.7-14.6-3.3-12.8s-32.9 12.8-32.9 12.8z" opacity=".27" fill="#ed7f07"/><path d="M106.3 190s-33.6 29.3-27.9 31.7c5.7 2.4 14.5-6.7 14.5-6.7s20.9-15.8 20.9-19.9c-.1-4.1-7.5-5.1-7.5-5.1z" opacity=".4" fill="#494746"/></svg>