<svg version="1.1" id="Layer_1" xmlns="http://www.w3.org/2000/svg" x="0" y="0" viewBox="0 0 321.7 321.7" xml:space="preserve"><style>.st0{fill:#fffc99}.st3{fill:#2c771f}.st4{fill:#b7e0f9}.st5{fill:#fff}</style><path class="st0" d="M87.1 161.8c.1 0 11.2 2.5 10.5 2.3L111 167c.9-11.5 6.6-84.2 13.8-93.1 2.8-3.4 3.8-7.3 2.3-11.5-1.4-3.8-4-6-4.1-6.1-.1.1-14.7 6.3-21.9 20.5-6.8 12.9-12.8 73.2-14 85zM170.2 64c8.9 8.9 41.4 65.8 40.2 92.9 0 0 13.1-1.4 20.2-3.6 1.8-.6 3.3-1.2 4-1.9-4.3-15.2-21.6-80.5-33.5-90.6-12.6-10.2-25.8-9.8-26-9.8-.1.1-4.8 4.1-6.1 8.1-.6 1.8-.4 3.5 1.2 4.9z"/><path d="M126.5 54s4.3-.4 15.4-1.6c11.2-1.1 33.2-1.5 33.2-1.5l-8.6 24.4-41.9-1.5 1.9-19.8z" fill="#214918"/><path d="M126.5 54s3.5 10.2 15.1 11.2 22.9-1.1 33.5-14.2l4.7.4c.5.1 2 .4 2.9.5 0 0 2.8 24.6 14.7 58.7 11.9 34.1 21.4 132.8 8.6 148.6-12.8 15.7-25.3 5.9-23.7-4.3 1.6-10.2 6.3-34.3-1.8-47.8-8.1-13.6-30.1-8-28.2 11 1.9 19 19.9 27.3 12.4 42-7.5 14.7-20.9 10.8-27.6 1.9-6.7-8.9-26.5-61.6-26.2-94.8.2-33.2 12-110.7 12-110.7l3.6-2.5z" fill="#66d856"/><path class="st3" d="M180 51.4s-4.1-.9-5.4-.4c0 0-16.1 15.7-32.8 11.1-9-2.5-15.3-7.7-15.4-8l-3.6 2.3c.2.5 6.6 8.9 20.4 11.1 14.4 2.3 26.6-3.5 36.8-16.1z"/><path class="st0" d="M201.2 263.3s-1.6-5.9-9.4-9.1c-7.8-3.2-9.3-2.6-9.3-2.6l1.7 11.6 5.3 3.8h6.7l5-3.7zm-33.7-7.7s-5.5-2.5-13.5-.1-8 11.9-8 11.9l5.4 2.2 7.9-2.9 7.2-7.7 1-3.4z"/><path class="st3" d="M116.6 102.1c-2.1 15.7-6.5 50.6-6.3 66.5 1.2 30.5 12.1 68.2 23.9 90.6 7.3 13.1 20.1 14.7 27.4 7.1 14.2-14.7-.4-26.4-5.5-38.6-8.1-18.6 3.8-29.5 15.1-26.4 8.5 2.3 10.7 11.8 10.6 11.7 0 .1.9 3.1.8 2.9 2.8 16.6.2 25.2-1.5 39-.4 9.5 5.7 14.4 12.7 13.5 6.4-.8 14.7-6.6 17.3-19.6 1.8-9 2.8-24.5.9-52.2-4.3-62.9-15.9-89.1-18.7-98.2 2.2 7.5 13.4 34.2 17.1 98.3.6 11 1.7 36.1-1.4 51.5-2.6 12.8-10.9 17.3-15.7 18-6.5.9-10.9-4.2-9.6-12.9 3-18.5 6.4-49.3-11.9-54.2-5.8-1.6-12.2.1-16.5 4.7-11.8 13 3.1 33.1 6.9 39.6 3.9 7 5.2 13.8-2.2 21.5-3.9 4.1-9 5-14.1 2.9-7.9-3.3-11.9-10.8-20.3-34.2-17.7-51-15.8-70.5-9-131.5z"/><path class="st4" d="M137.8 109l12.2-1.1-.8-24.4c-.1-3.5-3.9-6.1-8.2-5.7-4.4.4-7.6 3.7-7 7.1l3.8 24.1z"/><path class="st5" d="M140.2 108.2l7.3-.7-.8-18.4c-.1-2.6-2.4-4.6-5.1-4.4-2.6.2-4.5 2.6-4.1 5.3l2.7 18.2z"/><path class="st4" d="M156.6 107.3l12.2-1.1-.8-24.4c-.1-3.5-3.9-6.1-8.2-5.7-4.4.4-7.6 3.7-7 7.1l3.8 24.1z"/><path class="st5" d="M159 106.7l7.3-.7-.5-14.7c-.1-2.1-2.3-3.7-5-3.4-2.6.2-4.6 2.2-4.2 4.3l2.4 14.5z"/><path class="st4" d="M133.6 112.3c2.9-7.3 9.6-12.7 18-13.5 9-.8 17.2 4 21.1 11.6-8.2 2.6-14.1 10.2-15.1 19.2l-5.9.6c-2.1-9.5-9.4-16.5-18.1-17.9z"/><path class="st4" d="M157.6 129.5c-.2 1.6-.2 3.2 0 4.9.2 2.4.8 4.7 1.7 6.9-1.1.1-2.3.2-3.6.2-1.5 0-2.9.1-4.2 0 .7-2.7 1-5.6.7-8.6-.1-1-.3-2-.5-3l5.9-.4z"/><path d="M172.7 110.3c1.2 2.4 2 5 2.3 7.8 1 11.1 2 21.4-15.7 23.2-.9-2.1-1.4-4.5-1.7-6.9-1.1-11.1 5.4-21 15.1-24.1zm-40.6 11.9c-.3-3.5.2-6.9 1.4-9.9 9.7 1.5 17.5 9.9 18.6 20.8.3 3 0 5.9-.7 8.6-17.4-.6-18.2-8.5-19.3-19.5z" fill="#ddd1e0"/><path class="st5" d="M150.8 129.5c1.6-.2 3.2.3 4.3 1.2.9-1.1 2.4-1.8 4-2 3.1-.3 5.9 1.7 6.1 4.4.3 2.7-2.1 5.2-5.2 5.5-1.6.2-3.2-.3-4.3-1.2-.9 1.1-2.4 1.8-4 2-3.1.3-5.9-1.7-6.1-4.4-.2-2.8 2.1-5.3 5.2-5.5z"/><path d="M151.6 129.3c.1 1.2 3.1 3.4 3.7 3.3.1 0 .2-.1.4-.2.9-.7 2.5-2.6 2.6-3.6v-.1c-.1-1.2-1.7-2-3.6-1.8-1.8.2-3.2 1.3-3.1 2.4z" fill="#e2345e"/><path d="M143.6 125.7c-1.5.1-2.7.7-3.4 1.5-.4-.3-.7-.7-.7-1.2-.1-1.3 1.6-2.6 3.9-2.8 2.3-.2 4.2.7 4.3 2 0 .5-.1.9-.5 1.3-.7-.6-2.1-1-3.6-.8zm22.4-2.1c-1.5.1-2.7.7-3.4 1.5-.4-.3-.7-.7-.7-1.2-.1-1.3 1.6-2.6 3.9-2.8 2.3-.2 4.2.7 4.3 2 0 .5-.1.9-.5 1.3-.8-.6-2.1-1-3.6-.8z" fill="#5a555b"/></svg>