<svg version="1.1" id="Layer_1" xmlns="http://www.w3.org/2000/svg" x="0" y="0" viewBox="0 0 321.7 321.7" xml:space="preserve"><style>.st0{fill:#fffc99}.st3{fill:#ff491f}.st4{fill:#ff3312}.st5{fill:#fff}</style><path class="st0" d="M87.2 162.7c.1 0 11.2 2.3 10.5 2.2l13.4 2.8c.8-11.5 5.6-84.2 12.7-93.2 2.7-3.4 3.7-7.4 2.2-11.5-1.4-3.7-4.1-5.9-4.2-6.1-.1.1-14.6 6.4-21.6 20.7-6.6 13-11.9 73.3-13 85.1zm82-98.7c9 8.8 42.1 65.2 41.2 92.3 0 0 13.1-1.5 20.1-3.8 1.8-.6 3.3-1.2 3.9-1.9-4.5-15.1-22.5-80.1-34.5-90.1-12.7-10.1-25.9-9.5-26-9.5-.1.1-4.7 4.1-6 8.1-.6 1.8-.4 3.6 1.3 4.9z"/><path d="M125.4 54.6s4.3-.5 15.4-1.8C151.9 51.5 174 51 174 51l-8.3 24.5-41.9-1 1.6-19.9z" fill="#cc1c05"/><path d="M125.4 54.6s3.7 10.1 15.2 11c11.6.8 22.8-1.4 33.3-14.6l7.5.8s3.1 24.5 15.4 58.4 22.9 132.4 10.3 148.3c-12.6 15.8-25.2 6.2-23.7-4 1.4-10.2 5.9-34.3-2.3-47.8-8.3-13.5-30.2-7.6-28 11.3 2.2 19 20.2 27 12.8 41.8-7.4 14.8-20.8 11-27.5 2.2-6.8-8.8-27.1-61.3-27.3-94.4-.2-33.1 10.7-110.7 10.7-110.7l3.6-2.3z" fill="#ff831d"/><path class="st3" d="M178.8 51.4s-4.1-.9-5.4-.4c0 0-15.9 15.9-32.6 11.5-9-2.4-15.3-7.5-15.5-7.9l-3.6 2.3c.2.5 6.7 8.8 20.5 10.9 14.4 2.2 26.5-3.7 36.6-16.4z"/><path class="st0" d="M202.4 262.7s-1.7-5.9-9.5-9c-7.8-3.1-9.3-2.5-9.3-2.5l1.8 11.5 5.4 3.7h6.7l4.9-3.7zm-33.8-7.2s-5.5-2.4-13.5.1-7.9 12-7.9 12l5.4 2.2 7.9-3 7.1-7.7 1-3.6z"/><path class="st3" d="M116 102.7c-2 15.7-6 50.6-5.5 66.5 1.6 30.5 12.9 68 24.9 90.2 7.4 13 20.2 14.5 27.4 6.7 14-14.8-.7-26.4-5.9-38.5-8.3-18.4 3.4-29.5 14.7-26.5 8.5 2.2 10.8 11.7 10.7 11.5 0 .1.9 3.1.8 2.9 3 16.5.5 25.2-1 38.9-.5 13.9 12.9 17.6 22.4 8.4 4-3.9 5.2-6.4 6.2-9.4 2.5-7.6 4.4-23.3 1.7-57.6-5-62.7-16.9-88.8-19.8-97.8 2.3 7.5 13.8 34 18.2 97.9.8 12.4 2.5 42.6-2.2 56.8-.8 2.3-1.9 5.2-5.9 8.6-10.2 8.6-19.7 3.5-18-8.7 2.8-18.5 5.8-49.3-12.5-54-5.8-1.5-12.2.2-16.4 4.9-11.6 13.2 3.5 33 7.3 39.5 4 6.9 5.4 13.7-1.9 21.5-3.9 4.1-9 5.1-14 3-7.9-3.2-12-10.6-20.7-33.9-18.2-50.4-16.6-69.9-10.5-130.9z"/><path class="st4" d="M166.8 77.3c7.4 7 11.1 15.8 11 24-5.6-4.8-14.7-6.6-23.4-2.6.8-7.4 4.9-15.4 12.4-21.4z"/><path class="st5" d="M173.9 98.5c0-4.9-1.7-10.1-4.8-14.5l-.3-.4-.4.2c-5.3 3.1-9.1 7.9-10.4 13.2l.9.2c1.2-4.9 4.6-9.4 9.5-12.4 2.8 4.2 4.4 9 4.4 13.6l1.1.1z"/><path class="st4" d="M134.3 81.4c-4.3 9.2-4.4 18.8-1.3 26.3 3.5-6.5 11.2-11.6 20.8-11.1-3.4-6.5-10.2-12.4-19.5-15.2z"/><path class="st5" d="M135.6 103.7l.9-.4c-1.7-4.3-2-9.3-1-14.2 5.7 1 10.5 3.9 13.5 8l.8-.5c-3.1-4.5-8.4-7.6-14.5-8.5l-.4-.1-.1.4c-1.3 5.3-1 10.7.8 15.3z"/><path d="M132.2 111.4c0 .3.1.7.2 1 1.9 6.8 14.9 17.4 22.2 21.2 1.8.9 3.3 1.4 4.1 1.3.6-.1 1.6-.7 2.8-1.7 6-4.8 17.8-18.6 18.3-25.9v-1c-.9-8.3-12.3-13.9-25.4-12.5-13.1 1.5-23 9.4-22.2 17.6z" fill="#d65600"/><path class="st5" d="M160.7 129c.2 1.5.5 2.9 1 4.3 6-4.8 17.8-18.6 18.3-25.9h-.1c-11.8 1.3-20.4 10.9-19.2 21.6zm-28.2-16.5c1.9 6.8 14.9 17.4 22.2 21.2.2-1.3.2-2.6 0-4-1.1-10.4-10.9-17.9-22.2-17.2z"/><path d="M154 130.4c.9-1.7 7.1-2.2 8.6-.9 1.4 1.3-1.5 6.5-3.6 6.8-2.2.2-5.9-4.2-5-5.9z" fill="#48384c"/><path d="M170.1 116.2c-1.5.2-2.7.8-3.3 1.5-.4-.3-.7-.7-.7-1.2-.1-1.3 1.6-2.6 3.8-2.8 2.2-.2 4.1.6 4.3 1.9 0 .4-.1.9-.5 1.3-.8-.6-2.2-.9-3.6-.7zm-26.7 2.8c-1.5.2-2.7.8-3.3 1.5-.4-.3-.7-.7-.7-1.2-.1-1.3 1.6-2.6 3.8-2.8 2.2-.2 4.1.6 4.3 1.9 0 .4-.1.9-.5 1.3-.9-.5-2.2-.9-3.6-.7z" fill="#272528"/></svg>