<svg version="1.1" id="Layer_1" xmlns="http://www.w3.org/2000/svg" x="0" y="0" viewBox="0 0 321.7 321.7" xml:space="preserve"><style>.st2{fill:#823d93}.st3{opacity:.42;fill:#c161d8}</style><path d="M131.1 54.3s14 26.5 30.4 22.8c16.4-3.8 30.2-24.3 30.2-24.3l12.5 3.6-12.6 36.9-60.3 1.7-13.6-36.7 13.4-4z" fill="#510f56"/><path d="M136 83.9l54.2-1.6 26.7 57.3s14.9 63.5.6 128.3l-35.2-1.4s11.6-26.2-4.4-37.2c-16-11.1-28.7 1.9-31.3 10.8-2.6 8.9 0 25.6 0 25.6l-40.4 3.1s-7.9-102.3.6-131.2c.4-1.6 29.2-53.7 29.2-53.7z" fill="#c161d8"/><path class="st2" d="M182.3 266.5c4.1-12 5.9-28.2-4.3-35.7-3.4-2.4-7.3-4.3-11.4-4.5-6.5-.3-12 3-15.8 8.1-4 5.3-4.5 10.5-4.6 18.2-.1 4.4.2 8.7.5 13.1-1.5-7.4-2.8-19.1-.7-26.4.7-2.2 1.8-4.3 3.1-6.1 4.7-6.6 11.2-9.6 17.8-9.3 4.7.4 9 2.4 12.7 5.2 7.6 5.9 8.8 15.6 7 25-1.1 4.2-2.4 8.5-4.3 12.4zm7.9-184.2c8 15.8 19.9 40.5 27.8 57 12.2 55.1 4.2 104.1 4.2 104.8 0 .1-2.2 12.8-2 12 0 .1-2.8 12.6-2.6 11.8 2.9-17.1 4.5-29.4 5-48.1 0-5.4.2-10.7.1-16.1-.3-20.8-2.8-45.2-6.7-63.9l.1.2c-3.6-7.8-14.6-32.1-19.4-43.2-2.3-4.8-4.5-9.7-6.5-14.5zm-84.1 186.5c-3.4-30.7-6.9-92.4-2.2-123.5.3-1.9 1.3-7.4 2.2-9.1 4.5-8.7 23.1-41.2 29.8-52.4-4.6 9.2-27.8 53.2-27.9 53.4-.9 1.5-2.1 9.7-2.3 11.4-2.9 24.2-1.5 71.5-.6 96.1.3 8.1.7 16.1 1 24.1z"/><path class="st3" d="M145.2 94.2s-33.9 27.3-25.5 36.2c8.4 8.9 78.1 9.7 78.3 4.1.2-5.6-5.9-32-11.5-37.9-5.5-5.9-41.3-2.4-41.3-2.4z"/><path transform="matrix(.9997 -.02395 .02395 .9997 -2.89 3.901)" fill="#7f2096" d="M129 107.5h64.8v30.4H129z"/><path d="M131.9 114.5c.3 0 .6-.3.6-.6l-.1-3.1c0-.3-.3-.6-.6-.6s-.6.3-.6.6l.1 3.1c0 .4.3.7.6.6zm.3 11.4c.3 0 .6-.3.6-.6l-.1-5.7c0-.3-.3-.6-.6-.6s-.6.3-.6.6l.1 5.7c0 .4.3.6.6.6zm3.3 7.5l-2.5.1V131c0-.3-.3-.6-.6-.6s-.6.3-.6.6l.1 3.7 3.7-.1c.3 0 .6-.3.6-.6-.1-.3-.4-.6-.7-.6zm22.6-.5l-5.6.1c-.3 0-.6.3-.6.6s.3.6.6.6l5.6-.1c.3 0 .6-.3.6-.6 0-.4-.3-.6-.6-.6zm-11.3.2l-5.6.1c-.3 0-.6.3-.6.6s.3.6.6.6l5.6-.1c.3 0 .6-.3.6-.6s-.3-.6-.6-.6zm33.9-.8l-5.6.1c-.3 0-.6.3-.6.6s.3.6.6.6l5.6-.1c.3 0 .6-.3.6-.6s-.3-.6-.6-.6zm-11.3.3l-5.6.1c-.3 0-.6.3-.6.6s.3.6.6.6l5.6-.1c.3 0 .6-.3.6-.6s-.3-.6-.6-.6zm20-3.6c-.3 0-.6.3-.6.6l.1 2.5-2.5.1c-.3 0-.6.3-.6.6s.3.6.6.6l3.7-.1-.1-3.7c0-.3-.3-.6-.6-.6zm-.3-11.4c-.3 0-.6.3-.6.6l.1 5.7c0 .3.3.6.6.6s.6-.3.6-.6l-.1-5.7c0-.3-.3-.6-.6-.6zm-.2-8.8c-.3 0-.6.3-.6.6l.1 3.1c0 .3.3.6.6.6s.6-.3.6-.6l-.1-3.1c0-.3-.3-.6-.6-.6z" fill="#f2e977"/><path d="M102.1 153.4c-3-.9-5.2-3.6-5.2-6.9 0-4 3.2-7.2 7.2-7.2 31.6.1 95.6-.7 111.8-4.1 3.9-.8 7.7 1.7 8.5 5.5.8 3.9-1.7 7.7-5.5 8.5-21.7 4.6-111 4.4-114.8 4.4-.7.1-1.3 0-2-.2z" fill="#b746ce"/><path class="st2" d="M117.9 163.3c-.1 2.8-2.4 5-5.2 4.9-2.8-.1-5-2.4-4.9-5.2.1-2.8 2.4-5 5.2-4.9 2.8.1 5 2.5 4.9 5.2zm.1 19.9c-.1 2.8-2.4 5-5.2 4.9-2.8-.1-5-2.4-4.9-5.2.1-2.8 2.4-5 5.2-4.9 2.8 0 5 2.4 4.9 5.2zm99.1-21.8c-.1 2.8-2.4 5-5.2 4.9-2.8-.1-5-2.4-4.9-5.2.1-2.8 2.4-5 5.2-4.9 2.8.1 5 2.4 4.9 5.2zm.2 19.8c-.1 2.8-2.4 5-5.2 4.9-2.8-.1-5-2.4-4.9-5.2.1-2.8 2.4-5 5.2-4.9 2.7.1 4.9 2.4 4.9 5.2z"/><path class="st3" d="M122.4 192.7s-17.6-.9-15.2 12.6c2.4 13.5-2 46.2 5.7 54.3 7.6 8.1 12.6 3.5 17.9-1.5 5.4-5.1 12.4-64.8-8.4-65.4z"/></svg>