<svg version="1.1" id="Layer_1" xmlns="http://www.w3.org/2000/svg" x="0" y="0" viewBox="0 0 321.7 321.7" xml:space="preserve"><style>.st2{fill:#3d5d84}.st3{fill:#7fa1d3}</style><path d="M101.9 66.8s-.5-3.2 38.8-4.4c39.4-1.1 64.5-3.8 65.9 2s-49.5 37.9-72 25.3c-22.5-12.5-32.7-22.9-32.7-22.9z" fill="#16294c"/><path d="M237.6 251.3l-43.1 8.1s-12.5-86-33.9-90.9c-21.4-4.8-22.4 89.4-22.4 89.4l-51.7-2.6c0-.4 3.5-153 15.4-188.6 2.4.2 19.5 3.1 48.8 4.7 23.1 1.1 47.5.3 55.9-7 4.6 20.4 22.9 100.3 25.2 121.1 2.6 23.2 5.8 65.8 5.8 65.8z" fill="#5a76a8"/><path class="st2" d="M86.5 255.4c-.1-15.8.1-31.6.6-47.4.9-29.3 4.6-113.7 14.8-141.2-6.9 25-10.8 107.7-12.7 141.3l-2.7 47.3zm74.1-86.8c-1-.2-2-.1-3 .1-9.9 2.5-13.5 30.7-14.8 41-3 25-3.3 48.3-3.4 49.6-1.3-.1-32.4-1.9-52.8-3.9 20.4.1 50.3 1.3 51.7 1.4L137 258c.1-18.2 2.7-78.1 17.7-88.3 1.7-1.2 3.6-1.7 5.9-1.1zm33.9 90.8c-4.8-22.1-11.4-52.4-19.4-71.8-2.9-6.9-7.7-16.9-14.5-19 16.8 3.1 27.3 49.1 30.5 66.1 1.4 8.2 2.6 16.4 3.4 24.7z"/><path class="st3" d="M190.3 247.1l46.3-8.6 1.6 16-45.2 6.3zm-106.8-3l57.1 1.9-1.3 13.3-54.2-1.6zM210.8 83.2c-2.9 1.4-6.1 2.8-9.5 4.3-11.6 5-25.6 6.6-40 6.1-23.4-.6-47.6-6.6-63-11.1.2-.9.3-1.8.5-2.7 12.2 3.6 30.1 8.1 48.7 10.1l.5-18.5 2.6.1-.5 18.7c17.9 1.7 36.1 1 50.2-5.1 3.6-1.5 6.9-3 9.9-4.5.3.8.5 1.7.6 2.6z"/><path d="M165.5 84c-.1 3.1-2.7 5.5-5.7 5.4-3.1-.1-5.5-2.7-5.4-5.7.1-3.1 2.7-5.5 5.7-5.4 3 .1 5.5 2.6 5.4 5.7z" fill="#e2c676"/><path transform="rotate(-11.098 201.127 87.89)" class="st3" d="M199.9 86.3h2.6v3.3h-2.6z"/><path class="st3" d="M227.1 235.3c-.3-2-.7-4.2-1.1-6.6l2.6-.4c.4 2.4.7 4.7 1.1 6.6l-2.6.4zm-2.1-13.2c-.3-2.1-.7-4.3-1.1-6.6l2.6-.4c.4 2.3.8 4.5 1.1 6.6l-2.6.4zm-2.2-13.3c-.4-2.2-.8-4.4-1.1-6.6l2.6-.5c.4 2.3.8 4.5 1.1 6.6l-2.6.5zm-2.3-13.2l-1.2-6.6 2.6-.5 1.2 6.6-2.6.5zm-2.5-13.3l-1.2-6.6 2.6-.5 1.2 6.6-2.6.5zm-2.5-13.2l-1.3-6.6 2.6-.5 1.3 6.6-2.6.5zm-2.5-13.2l-1.3-6.6 2.6-.5 1.3 6.6-2.6.5zm-2.5-13.3l-1.3-6.6 2.6-.5 1.3 6.6-2.6.5zm-2.6-13.2l-1.3-6.6 2.6-.5 1.3 6.6-2.6.5zm-2.5-13.2l-1.3-6.6 2.6-.5 1.3 6.6-2.6.5zm-2.6-13.2l-1.3-6.6 2.6-.5 1.3 6.6-2.6.5zm25.9 142.1l-.5-3.2 2.6-.4.5 3.2zM106.4 85.7l-2.6-.3c.3-2.1.4-3.3.4-3.3l2.6.3s-.1 1.2-.4 3.3zm-13 155.5c-.2-2-.4-4.2-.5-6.5l2.6-.2c.1 2.3.3 4.5.5 6.4l-2.6.3zm-.8-13.1c-.1-2.1-.1-4.3-.1-6.5h2.6c0 2.2 0 4.4.1 6.5h-2.6zm0-13c0-2.1.1-4.3.1-6.5l2.6.1c-.1 2.2-.1 4.4-.1 6.5l-2.6-.1zm3-13L93 202c.1-2.1.2-4.3.3-6.5l2.6.1c-.1 2.2-.2 4.4-.3 6.5zm.6-12.9l-2.6-.2c.1-2.2.3-4.3.4-6.5l2.6.2c-.1 2.2-.2 4.3-.4 6.5zm.9-13l-2.6-.2c.2-2.2.3-4.3.5-6.5l2.6.2c-.2 2.2-.3 4.3-.5 6.5zm1-13l-2.6-.2c.2-2.2.4-4.3.6-6.5l2.6.2c-.2 2.2-.4 4.4-.6 6.5zm1.2-12.9l-2.6-.2c.2-2.2.4-4.3.6-6.5l2.6.3c-.2 2.1-.4 4.2-.6 6.4zm1.2-12.9l-2.6-.3c.2-2.2.4-4.4.7-6.5l2.6.3c-.3 2.1-.5 4.3-.7 6.5zm1.3-13l-2.6-.3c.2-2.2.5-4.4.7-6.5l2.6.3c-.2 2.2-.4 4.3-.7 6.5zm1.5-12.9l-2.6-.3c.3-2.3.5-4.4.7-6.5l2.6.3c-.2 2.1-.5 4.2-.7 6.5zm1.5-12.9l-2.6-.3c.3-2.4.6-4.5.8-6.5l2.6.3c-.3 1.9-.5 4.1-.8 6.5zM95.2 251c-.3-1-.6-2.1-.8-3.3l2.6-.5c.2 1.1.5 2.2.8 3.1l-2.6.7zm24.5-182s-3.2 11.4-.6 18.9l4.6 1 .6-19.4-4.6-.5zm65.2 2l-.6 21.3 5.4-1 .6-21s-3.5-1-5.4.7z"/><path class="st2" d="M151.8 92.9c-1.5 29.1-4.2 57.3-1.2 64.5 3.3 6.3 11.3 7.5 18.4 6.9-3.5.9-7.3 1.1-11 .4-1.8-.4-3.6-1.1-5.3-2.1-1.7-1-3-2.5-4-4.3-.9-1.9-1.2-3.7-1.5-5.6-2-15.4 1.6-44.4 4.6-59.8z"/></svg>