<svg version="1.1" id="Layer_1" xmlns="http://www.w3.org/2000/svg" x="0" y="0" viewBox="0 0 321.7 321.7" xml:space="preserve"><style>.st0{fill:#d8d8da}.st1{fill:#262127}.st2{fill:#dd8787;stroke:#262127;stroke-width:3;stroke-miterlimit:10}.st3{fill:#ebb0a0}</style><ellipse transform="rotate(-77.837 145.885 165.075)" class="st0" cx="145.9" cy="165.1" rx="13" ry="4.5"/><path class="st1" d="M172.3 135.5c0-.1-1.2-.3-1.3-.3-3.2-.7-6.5-1.2-9.9-1.2-3.3-.1-6.6.4-9.8 1.1-.5.1-.9.2-1.4.3-.2 0-.4.1-.6.1 0 0-2.6 8.2 1.3 5.6 1.8-1.2 3.9-1.6 6-1.8 2.8-.3 5.5-.2 8.3 0 2.1.1 4.4.6 6.2 1.8 3.8 2.6 1.2-5.6 1.2-5.6z"/><path class="st0" d="M171.4 166c1.5 7 4.7 12.2 7.1 11.7 2.4-.5 3.1-6.6 1.6-13.6s-4.7-12.2-7.1-11.7c-2.4.5-3.1 6.6-1.6 13.6z"/><path class="st1" d="M48.3 127.3c2.6-1.8 40.1-5.5 53.6-5.1 13.5.4 39.6 5.7 45.5 11.1 5.9 5.4 2.3 13.5-1.4 16.7-3.6 3.3-83.5 2.1-83.5 2.1l-6.6.2s.6-5.7-1.5-8.1c-2-2.4-5.5-3.2-6.3-5.8-.5-2.7.2-11.1.2-11.1z"/><path class="st2" d="M67.6 135.5c6.9-8.8 28.3-8.9 38.5-8.2 10.2.6 26.8 1.8 34.8 12.1 8 10.4 7 32.7-3.3 44.2-10.4 11.5-21.6 16.8-35.7 15.7-14.1-1.1-27.8-6.7-34.2-22.6s-6.8-32.7-.1-41.2z"/><path class="st3" d="M64.8 161.5c.7 4.9 2.1 9.9 4.1 14.9 6.2 15.6 19.4 21.1 33 22.2 13.5 1.1 24.4-4.2 34.4-15.4 4.9-5.5 7.6-13.6 8.2-21.6H64.8z"/><path class="st1" d="M273.3 127.3c-2.6-1.8-40.1-5.5-53.6-5.1-13.5.4-39.6 5.7-45.5 11.1-5.9 5.4-2.3 13.5 1.4 16.7 3.6 3.3 83.5 2.1 83.5 2.1l6.6.2s-.6-5.7 1.5-8.1c2-2.4 5.5-3.2 6.3-5.8.6-2.7-.2-11.1-.2-11.1z"/><path class="st2" d="M254.1 135.5c-6.9-8.8-28.3-8.9-38.5-8.2-10.2.6-26.8 1.8-34.8 12.1-8 10.4-7 32.7 3.3 44.2 10.4 11.5 21.6 16.8 35.7 15.7 14.1-1.1 27.8-6.7 34.2-22.6 6.6-15.8 6.8-32.7.1-41.2z"/><path class="st3" d="M256.8 161.5c-.7 4.9-2.1 9.9-4.1 14.9-6.2 15.6-19.4 21.1-33 22.2-13.5 1.1-24.4-4.2-34.4-15.4-4.9-5.5-7.6-13.6-8.2-21.6h79.7z"/></svg>