<svg xmlns="http://www.w3.org/2000/svg" viewBox="0 0 321.7 321.7"><path d="M58.6 153.6h-4.4c-1.8 0-3.2-1.4-3.2-3.2 0-1.8 1.4-3.2 3.2-3.2h4.4c1.8 0 3.2 1.4 3.2 3.2.1 1.8-1.4 3.2-3.2 3.2zm204.4 0h4.4c1.8 0 3.2-1.4 3.2-3.2 0-1.8-1.4-3.2-3.2-3.2H263c-1.8 0-3.2 1.4-3.2 3.2 0 1.8 1.4 3.2 3.2 3.2zm-61.5-27.5c-.9-3-3.5-4.3-8-4.3h-65.4c-4.4 0-7 1.3-8 4.3l10.7 1.3s-.9-3.3 5.6-3.4c6.5-.1 24.4 0 24.4 0s17.9-.1 24.4 0 5.6 3.4 5.6 3.4l10.7-1.3zm-34 11.6c-3.9-.2-5.2-.1-6.6-.1-1.4 0-2.7-.1-6.6.1s-7.5 1.7-8.5 3.7v3.1s3.9-4.4 7.6-5c3.7-.6 5.8-.4 7.6-.4 1.7 0 3.9-.2 7.6.4 3.7.6 7.6 5 7.6 5v-3.1c-1.3-1.9-4.9-3.5-8.7-3.7z" fill="#3c323b"/><path d="M58.4 150.3c2.2-10.2 4.8-17.4 14.1-22s22.6-5.7 34.8-5c12.2.7 27.9.7 36.4 9.8 8.5 9.1-.9 30.9-4.8 36.1-3.9 5.2-21.1 33.1-46.8 30.5-25.7-2.6-30.2-18.3-31.8-24.1-1.7-5.7-3.6-17.7-1.9-25.3zm204.9 0c-2.2-10.2-4.8-17.4-14.1-22-9.3-4.6-22.6-5.7-34.8-5-12.2.7-27.9.7-36.4 9.8-8.5 9.1.9 30.9 4.8 36.1 3.9 5.2 21.1 33.1 46.8 30.5 25.7-2.6 30.2-18.3 31.8-24.1 1.7-5.7 3.6-17.7 1.9-25.3z" fill="#919baa" stroke="#3c323b" stroke-width="2" stroke-miterlimit="10"/><path d="M68.4 188.6c4.5 4.6 11.8 8.8 23.9 10 25.3 2.5 42.2-24.9 46-30 3.2-4.3 10.4-20.5 7.4-30.7-40.1 3.9-71.6 24.6-77.3 50.7zm185.3-.1c-4.5 4.6-11.8 8.8-23.9 10-25.4 2.6-42.3-25-46.2-30.1-3.3-4.3-10.5-20.6-7.4-30.9 40.2 4.1 71.8 24.9 77.5 51z" fill="#7a7989"/></svg>