<svg version="1.1" id="Layer_1" xmlns="http://www.w3.org/2000/svg" x="0" y="0" viewBox="0 0 321.7 321.7" xml:space="preserve"><style>.st0{fill:#f49292}.st1{fill:#aa6868}.st2{fill:#894447}</style><path class="st0" d="M101.7 122.9c10.7-.1 28.7 3.8 33.3 4.4 4.6.6 22.4 5 25.8 5s4.2 15.6 1 15.8c-3.3.2-6.3-.4-7.6 1.5-1.3 1.9-7.4 26.6-18.5 36.3-11.1 9.6-23.1 13.5-37.6 13-14.4-.6-28.5-5.4-34.8-19.8-6.3-14.4-5-25.7-5.9-29.6-.9-3.9-5.9-3.9-6.5-6.5-.6-2.6.2-12.2 1.1-13.9.9-1.7 6.7-1.4 10.4-1.9 3.8-.6 21.2-4.2 39.3-4.3z"/><path class="st1" d="M105.2 127.1c12.3.9 26.6 3.5 32.2 7.6 5.6 4.1 9.5 6.5 7.5 18.4-2 11.8-7.6 24.2-18.6 33.5-11 9.4-37.5 7.4-47.6.9-10.1-6.5-14.2-23.1-12.5-38.5s10.4-17.6 15-19.6c4.7-2 17.1-2.8 24-2.3z"/><path class="st2" d="M82.3 129c-.4.1-.7.2-1 .4-4.7 2-13.3 4.2-15 19.6-1.7 15.4 2.3 31.9 12.5 38.5 10.1 6.5 36.6 8.5 47.6-.9 2.1-1.8 4-3.7 5.7-5.7-3-26.6-23.6-47.9-49.8-51.9z"/><path class="st0" d="M220 122.9c-10.7-.1-28.7 3.8-33.3 4.4-4.6.6-22.4 5-25.8 5-3.4 0-4.2 15.6-1 15.8 3.3.2 6.3-.4 7.6 1.5 1.3 1.9 7.4 26.6 18.5 36.3 11.1 9.6 23.1 13.5 37.6 13 14.4-.6 28.5-5.4 34.8-19.8 6.3-14.4 5-25.7 5.9-29.6.9-3.9 5.9-3.9 6.5-6.5.6-2.6-.2-12.2-1.1-13.9-.9-1.7-6.7-1.4-10.4-1.9-3.8-.6-21.2-4.2-39.3-4.3z"/><path class="st1" d="M216.5 127.1c-12.3.9-26.6 3.5-32.2 7.6-5.6 4.1-9.5 6.5-7.5 18.4 2 11.8 7.6 24.2 18.6 33.5 11 9.4 37.5 7.4 47.6.9 10.1-6.5 14.2-23.1 12.5-38.5s-10.4-17.6-15-19.6c-4.8-2-17.1-2.8-24-2.3z"/><path class="st2" d="M239.4 129c.4.1.7.2 1 .4 4.7 2 13.3 4.2 15 19.6 1.7 15.4-2.3 31.9-12.5 38.5-10.1 6.5-36.6 8.5-47.6-.9-2.1-1.8-4-3.7-5.7-5.7 3-26.6 23.6-47.9 49.8-51.9z"/></svg>