<svg version="1.1" id="Layer_1" xmlns="http://www.w3.org/2000/svg" x="0" y="0" viewBox="0 0 321.7 321.7" xml:space="preserve"><style>.st0{fill:#fff}.st0,.st1,.st2{stroke:#c4c4c4;stroke-miterlimit:10}.st1{fill:#894447}.st2{fill:#aa6868}</style><path class="st0" d="M237.5 116.8c-4.1-.1-8.2.9-12 2.3-2.8 1.1-6.2 3.8-9.2 3.9s-7.8-5.5-19.4-6.1c-5.7-.3-11.5 1.5-16.2 4.6-2.8 1.9-5.2 4.4-7 7.3-1.9 3-2.8 6.4-4.5 9.5-.8 1.5-2.5 1.9-4.1 1.9-2.5-.1-5.1-.4-7.6-.2-1.8.1-3.9.1-4.8-1.7-1.7-3.1-2.6-6.5-4.5-9.5-1.8-2.9-4.2-5.4-7-7.3-4.7-3.1-10.6-4.9-16.2-4.6-11.6.5-16.4 6.2-19.4 6.1s-6.4-2.8-9.2-3.9c-3.8-1.5-7.9-2.4-12-2.3-15 .3-23.8 16.9-23.8 30.3 0 .8 0 1.6.1 2.4 1 9.1 6.1 17.6 11.1 25.1 8.5 12.6 19.1 21.2 32.3 28.2 1.7.9 3.4 1.8 5.3 2.1 2.4.4 4.8-.7 6.7-2 1.7-1.2 3.4-2.4 5-3.6 7.3-5.5 14.1-11.7 19.7-18.8 4.5-5.7 8-12.2 10.8-18.9 1-2.5 2-5 2.8-7.6.6-1.8 1-4.4 2.7-5.5.9-.6 2.7-.7 3.9-.8 1.3.1 3.1.2 3.9.8 1.7 1.1 2.1 3.7 2.7 5.5.8 2.6 1.8 5.1 2.8 7.6 2.8 6.7 6.3 13.2 10.8 18.9 5.7 7.1 12.4 13.4 19.7 18.8 1.6 1.2 3.3 2.4 5 3.6 1.9 1.3 4.3 2.4 6.7 2 1.9-.3 3.6-1.2 5.3-2.1 13.3-7 23.9-15.6 32.3-28.2 5-7.4 10.1-16 11.1-25.1.1-.8.1-1.6.1-2.4-.1-13.4-8.8-29.9-23.9-30.3z"/><path class="st1" d="M106.1 132.4c1.1-.1 2.1-.7 3.2-1.6 2.9-2.3 5.3-4.1 8.7-5.6 3.8-1.6 7.9-1.8 11.9-.9 6.7 1.7 12.8 6.5 15.3 13 0 .1.1.3.1.4 2.8 7.7 1.4 16.8-1.2 24.4-4.4 13.2-14.6 24.5-26 32.2-2.9 2-6.5 4.2-10.1 3.3-2.4-.6-4.7-1.7-6.9-2.9-7.4-3.9-14.1-9.3-19.5-15.6-9.5-11.1-18.5-29.9-11.1-44.2 2.9-5.5 8.4-11.2 15-11.1 7 .1 12.3 2.9 17.7 7.4 1.1 1 2 1.3 2.9 1.2z"/><path class="st0" d="M59.6 154.9H59c-2.2 0-4.1-1.8-4.1-4.1v-4.9c0-2.2 1.8-4.1 4.1-4.1h.6c2.2 0 4.1 1.8 4.1 4.1v4.9c-.1 2.3-1.9 4.1-4.1 4.1z"/><path class="st2" d="M69.1 155.8c2.2 8.8 7.4 17.3 12.7 23.5 5.4 6.3 12.1 11.7 19.5 15.6 2.2 1.1 4.5 2.3 6.9 2.9 3.6.9 7.3-1.4 10.1-3.3 11.3-7.8 21.6-19 26-32.2.7-2.1 1.3-4.2 1.7-6.4H69.1v-.1z"/><path class="st1" d="M215.6 132.4c-1.1-.1-2.1-.7-3.2-1.6-2.9-2.3-5.3-4.1-8.7-5.6-3.8-1.6-7.9-1.8-11.9-.9-6.7 1.7-12.8 6.5-15.3 13 0 .1-.1.3-.1.4-2.8 7.7-1.4 16.8 1.2 24.4 4.4 13.2 14.6 24.5 26 32.2 2.9 2 6.5 4.2 10.1 3.3 2.4-.6 4.7-1.7 6.9-2.9 7.4-3.9 14.1-9.3 19.5-15.6 9.5-11.1 18.5-29.9 11.1-44.2-2.9-5.5-8.4-11.2-15-11.1-7 .1-12.3 2.9-17.7 7.4-1.1 1-2.1 1.3-2.9 1.2z"/><path class="st0" d="M262.1 154.9h.6c2.2 0 4.1-1.8 4.1-4.1v-4.9c0-2.2-1.8-4.1-4.1-4.1h-.6c-2.2 0-4.1 1.8-4.1 4.1v4.9c0 2.3 1.9 4.1 4.1 4.1z"/><path class="st2" d="M252.6 155.8c-2.2 8.8-7.4 17.3-12.7 23.5-5.4 6.3-12.1 11.7-19.5 15.6-2.2 1.1-4.5 2.3-6.9 2.9-3.6.9-7.3-1.4-10.1-3.3-11.3-7.8-21.6-19-26-32.2-.7-2.1-1.3-4.2-1.7-6.4h76.9v-.1z"/></svg>