<svg version="1.1" id="Layer_1" xmlns="http://www.w3.org/2000/svg" x="0" y="0" viewBox="0 0 321.7 321.7" xml:space="preserve"><style>.st0{fill:#d8d8da}.st1{fill:#262127}.st2{fill:#dd8787;stroke:#262127;stroke-width:2;stroke-miterlimit:10}</style><path class="st0" d="M146.8 165.7c-1.2 6.1-3.7 10.8-5.5 10.4-1.8-.4-2.4-5.6-1.2-11.7s3.7-10.8 5.5-10.4c1.8.3 2.4 5.5 1.2 11.7z"/><path class="st1" d="M63.2 143.8L51 141.6v-4.8h12.2z"/><path class="st2" d="M102.4 121.6c13.7.7 25 4.3 32.6 11.7 7.6 7.4 10.2 18.9 7.4 28.9-2.8 10-14.4 39.8-43.3 38.1-28.9-1.7-46.4-31.8-39.2-57.2 7.2-25.4 42.5-21.5 42.5-21.5z"/><path class="st1" d="M144.7 149.2h-1.5c-.6 0-1-.4-1-1v-10.4c0-.6.4-1 1-1h1.5c.6 0 1 .4 1 1v10.4c0 .5-.5 1-1 1z"/><path class="st1" d="M160.8 133.5s-5.9.4-8.8 1.2c-2.9.8-8 3.1-8 3.1v2.4s3 .2 4 0 7.5-3.3 12.9-3.3c5.2 0-.1-3.4-.1-3.4z"/><path class="st0" d="M174.9 165.7c1.2 6.1 3.7 10.8 5.5 10.4 1.8-.4 2.4-5.6 1.2-11.7s-3.7-10.8-5.5-10.4c-1.9.3-2.4 5.5-1.2 11.7z"/><path class="st1" d="M258.5 143.8l12.2-2.2v-4.8h-12.2z"/><path class="st2" d="M219.3 121.6c-13.7.7-25 4.3-32.6 11.7-7.6 7.4-10.2 18.9-7.4 28.9 2.8 10 14.4 39.8 43.3 38.1 28.9-1.7 46.4-31.8 39.2-57.2-7.2-25.4-42.5-21.5-42.5-21.5z"/><path class="st1" d="M177 149.2h1.5c.6 0 1-.4 1-1v-10.4c0-.6-.4-1-1-1H177c-.6 0-1 .4-1 1v10.4c0 .5.4 1 1 1z"/><path class="st1" d="M160.9 133.5s5.9.4 8.8 1.2c2.9.8 8 3.1 8 3.1v2.4s-3 .2-4 0-7.5-3.3-12.9-3.3c-5.3 0 .1-3.4.1-3.4z"/><path d="M67.1 180.9c7 10.1 18 17.4 31.7 18.2 28.2 1.6 39.6-27.5 42.3-37.2s.2-21-7.2-28.2c-1.1-1-2.2-2-3.4-2.9-32 7-56.6 26.2-63.4 50.1zm187.2 0c-7 10.1-18 17.4-31.7 18.2-28.2 1.6-39.6-27.5-42.3-37.2s-.2-21 7.2-28.2c1.1-1 2.2-2 3.4-2.9 32 7 56.6 26.2 63.4 50.1z" fill="#ebb0a0"/></svg>