<svg version="1.1" id="Layer_1" xmlns="http://www.w3.org/2000/svg" x="0" y="0" viewBox="0 0 321.7 321.7" xml:space="preserve"><style>.st1{fill:#f27238}.st2{fill:#3d5478}.st3{fill:#2b193a}.st7{fill:#4a6792}.st12{fill:#94a3bb}.st13{fill:#1a122d}.st14{fill:#b2c3d4}.st15{fill:#395072}</style><path fill="#781123" d="M148 68.6l27.6.8-5.7-9.5h-17z"/><path class="st1" d="M157.1 74s-5.1-9.2-4.2-14.1c0 0-5.5 5-5.5 9.9s5.9 11.7 5.9 11.7l3.8-7.5zm12.8-14.1s1.8 10.3-2.8 13.6l2 8s6.6-7.4 6.4-12.1c0-2.8-3.2-8.3-5.6-9.5z"/><path class="st2" d="M229 92.1c-4.2-9.3-13.9-18.5-15.2-19l-1.4-.1-19.1 12.3c1.3.8 16.9 4.1 20 9.8.1.3.8 1.2 1.3 2.6 0-.1 2.1 4.6 4.5 17.6 4.3 24.4 7.8 66.9 5.4 90.6-1 7.5-5 15.2-5.4 15.9-4.5 6.5-11.7 10.7-19.3 13.7l.2 3.6c4.7.8 9.2.3 13.8-.9 24-6.6 25.4-24.7 26.3-49.3.6-15.1.2-30.2-1-45.2-1.1-14.7-5.3-40.1-10.1-51.6z"/><path class="st3" d="M238.4 136.3c-1.7-11.2-5.3-32-9.3-42.5-2.8-7.8-12.8-19.2-15.4-20.7 3.6 1.9 13.2 12.3 16.2 20.3 4.4 11.2 7.6 31 8.5 42.9z"/><path class="st2" d="M119.8 239.4S104.4 226 93 185.3s21.5-109.9 21.5-109.9l1.5-1.6 10-.8 2.5 8.4s-15.6 23.3-22.7 50.6c-7.6 29.1-6.5 60.9.5 74.6 7 13.7 17.9 16.8 17.9 16.8l-4.4 16z"/><path d="M111.8 163.3s-9.6-6-15.2 2.7-4.7 32.4-2.9 50.9c1.8 18.5 6.5 30.4 23.1 28.4 16.6-2.1-5-82-5-82z" fill="#521760"/><path d="M115.1 157.2s-16.6-5.6-22.8 10c-6.2 15.6 0 50.9 0 50.9s26-4.8 29.9-2.9c3.9 2.1-7.1-58-7.1-58z" fill="#8e0d0d"/><path d="M99.6 158.5c0 15.3.5 40.3 3 58 7.7-1.2 17.4-2.3 19.6-1.2 3.9 2-7.1-58.1-7.1-58.1s-8.4-2.8-15.5 1.3z" fill="#6d0b0b"/><path class="st7" d="M111.8 163.3s-9.6-6-15.2 2.7-4.7 32.4-2.9 50.9c1.8 18.5 6.5 30.4 23.1 28.4 16.6-2.1-5-82-5-82z"/><path class="st1" d="M115.1 157.2s-16.6-5.6-22.8 10c-6.2 15.6 0 50.9 0 50.9s26-4.8 29.9-2.9c3.9 2.1-7.1-58-7.1-58z"/><path d="M99.6 158.5c0 15.3.5 40.3 3 58 7.7-1.2 17.4-2.3 19.6-1.2 3.9 2-7.1-58.1-7.1-58.1s-8.4-2.8-15.5 1.3z" fill="#e56838"/><path class="st7" d="M214.2 163.3s9.6-6 15.2 2.7 4.7 32.4 2.9 50.9c-1.8 18.5-6.5 30.4-23.1 28.4-16.6-2.1 5-82 5-82z"/><path class="st1" d="M210.9 157.2s16.6-5.6 22.8 10c6.2 15.6 0 50.9 0 50.9s-26-4.8-29.9-2.9c-3.9 2.1 7.1-58 7.1-58z"/><path d="M114.5 75.4s9.4-8.1 6.3 26.4c-.6 6.5 21.6-14.6 21.6-14.6l-.8-2.9c-2.7-9.7-12.9-15.6-22.5-12.5-2.3.8-3.5 1.9-4.6 3.6zm72.9 7.9l-1.5 5.2s18.8 28.2 19.1 21.1c1.6-37.7 8.8-36.6 8.8-36.6s-4-.8-9.1-1.3c-7.8-.9-15.2 4-17.3 11.6z" fill="#d03400"/><path d="M181.1 74c-13.1-3.2-26.8-2.9-39.6 1.3-7.5 2.5-15.3 6.5-19.9 12.9-11.4 15.8-9.6 24.9-12.5 34.8-2.9 9.9-1.6 45.8-3.1 69.9s5.4 45.3 13.2 55.8c7.8 10.5 81.8 6.1 86.4 1.6 4.6-4.6 15.4-16.3 14.1-62.7-1.3-46.4.6-62.3-8.1-84.6-6.7-17-14.3-25-30.5-29z" fill="#667a95"/><path d="M126.7 234c-28.9-28.9-6.5-115.7 5.6-154.7-4.2 2.3-7.9 5.2-10.6 9-11.4 15.8-9.6 24.9-12.5 34.8-2.9 9.9-1.6 45.8-3.1 69.9s5.4 45.3 13.2 55.8c7.8 10.5 81.8 6.1 86.4 1.6 2.7-2.7 7.7-8.1 11-21.9-18.7 12.1-61.3 34.3-90 5.5z" fill="#4a6691"/><path class="st12" d="M163.3 89.9s-4.4-.9-14.4 0-13.8 2.3-13.8 6.4-1.1 32 2.5 35.5c3.5 3.5 48.3 2 51 .6 2.7-1.5 3.5-18.9 2.9-26.4-.6-7.6 1.7-9.9-1.6-13.1-3.4-3.4-26.6-3-26.6-3z"/><path class="st13" d="M187.3 105.3c-.1 3.8-.7 4.3-.7 5.2-.2 1.3.6 2.3 2.4 2.1.4 0 .7-.4.9-.8-.1.4-.4.8-.9.9-1.8.3-2.8-.7-2.6-2.2 0-.7.3-.8.9-5.2z"/><path class="st14" d="M189.9 108.8c-.3-1.7-.6-4.6-.6-4.6l-1.9.4s-.2 3.3-.7 5.1c-.5 1.7.1 3.2 2.2 3 1.2-.2 1.3-2.2 1-3.9zm-2.2.4c.3-.6 1.1-.8 1.5-.1.3.5.3 1.3.1 1.9-.4.7-1.4.8-1.7 0-.3-.6-.2-1.3.1-1.8z"/><path class="st12" d="M153 145.1c-15.6 1.4-26.9.3-32 9.1-6.7 11.5-4.9 64.7 1.7 71.3 6.6 6.6 70.8 12.5 83.2 3 12.4-9.4 8.4-70.7 2.8-77.9-6.4-8.2-19.8-6.6-29.3-7-9-.4-17.5.7-26.4 1.5z"/><path class="st15" d="M207.7 225.9c-.9 1.4-2.1 2.4-3.6 3.2-15.1 7.3-66.2 2.9-79-2.6-2-.9-2.3-1.5-2.8-2.1-4.2-7.6-5.2-27-5.5-35.7.1 9.1.6 28.1 4.9 36 .6.8 1 1.4 3.1 2.4 14 6.2 69 10.5 81.3 1.6.8-.8.5-.2 2.2-2.4 5.3-8 5.7-26.4 5.7-35.9 0 3.3-1.2 28-6.3 35.5z"/><path class="st1" d="M189.7 92.8c-3.3-3.3-24.8-2.3-24.8-2.3s-6.2-.3-16.3.6c-10 .9-13.4.4-13.8 5.1-.2 1.8-.6 4.6-.7 8.8 14.2 2 44.6 5.3 57.8 0-.3-6.9 1-9.1-2.2-12.2z"/><path d="M189.7 92.8c-3.3-3.3-26.1-3.6-26.1-3.6s-4.7-.1-14.8.8c-7.9.7-12.6 1.3-13.5 4.2 11.4 2.6 33.6 6.9 44.4 4.4 5.1-1.2 9.3-2.1 11.9-3.1-.3-.9-.9-1.8-1.9-2.7z" fill="#f28757"/><path class="st13" d="M192.5 187c-.1 3.8-.7 4.3-.7 5.2-.2 1.3.6 2.3 2.4 2.1.4 0 .7-.4.9-.8-.1.4-.4.8-.9.9-1.8.3-2.8-.7-2.6-2.2 0-.7.3-.8.9-5.2z"/><path class="st14" d="M195.1 190.5c-.3-1.7-.6-4.6-.6-4.6l-1.9.4s-.2 3.3-.7 5.1c-.5 1.7.1 3.2 2.2 3 1.3-.1 1.3-2.2 1-3.9zm-2.2.5c.3-.6 1.1-.8 1.5-.1.3.5.3 1.3.1 1.9-.4.7-1.4.8-1.7 0-.2-.6-.1-1.4.1-1.8z"/><path class="st13" d="M198.1 186c1.5 3.5 2.2 3.7 2.6 4.6.6 1.1.3 2.3-1.4 2.8-.4.1-.8-.1-1.1-.4.3.3.7.6 1.2.6 1.8-.4 2.3-1.7 1.6-3.1-.4-.7-.7-.7-2.9-4.5z"/><path class="st14" d="M199.3 193.4c2-.6 2.1-2.2 1-3.6s-2.5-4.4-2.5-4.4l-2 .3s.8 2.8 1.1 4.5c.4 1.7 1.2 3.6 2.4 3.2zm.6-2c0 .9-1 1.2-1.6.6-.4-.4-.7-1.2-.6-1.8.1-.8.9-.9 1.5-.4.4.3.8 1 .7 1.6z"/><path class="st1" d="M215.5 180.4c-.5-14.5-3.7-27-6.1-30.1-6.4-8.2-19.1-8.7-28.5-9.1-9-.4-18-.2-26.9.5-28.3 2.5-37.7 5.6-38.4 39.4 14.8 3.3 70.9 13.2 99.9-.7z"/><path d="M209.4 150.3c-6.4-8.2-19.1-8.7-28.5-9.1-9-.4-18-.2-26.9.5-19 1.7-29.5 3.6-34.5 15 7 1.9 18.1 4 29.8 4.5 27.7 1.2 51.4-.5 63.1-3.2-1-3.7-2.1-6.5-3-7.7z" fill="#e18256"/><path class="st15" d="M205.9 249.4c-5.7 5.4-79.6 8.4-86.1-1.5-1.7-2.3-3.1-4.8-4.3-7.4-7.7-15.9-9.2-33.1-8.3-50.5 1.3-26.5 1.6-49.1 3.1-65.2 1.8-14.3 1.1-21.5 11.4-36.6-10.4 14.1-11.4 21-13.4 36.4-2.4 17-1.7 43.3-2.9 65.3-1 17.9.5 35.2 8.4 51.4 4.8 9.6 5.8 12.7 30 14.2 20.6 1.2 57.1-1.3 61.9-4.9 1.4-1.2 3.8-4.4 4.8-6 3.1-5 4.9-10.6 6.1-16.3-2.2 8.2-5.1 15.4-10.7 21.1z"/><path class="st3" d="M120.6 178.8c-1.3-.3-2-.5-2-.5-.1 0-.2-.2-.2-.3 0-.1.2-.2.3-.2 0 0 .7.2 1.9.5.1 0 .2.2.2.3 0 .1-.1.2-.2.2zm43.7 5.4h-1.1c-.1 0-.2-.1-.2-.3 0-.1.1-.2.3-.2h3.9c.1 0 .3.1.3.2s-.1.3-.2.3h-3zm-5.1-.1c-1.3 0-2.6-.1-3.9-.2-.1 0-.2-.1-.2-.3s.1-.2.3-.2c1.3.1 2.6.1 3.9.2.1 0 .2.1.2.3 0 .1-.1.2-.3.2zm11.7 0c-.1 0-.2-.1-.3-.2 0-.1.1-.3.2-.3 1.3-.1 2.6-.1 3.9-.2.1 0 .3.1.3.2s-.1.3-.2.3c-1.2.1-2.5.1-3.9.2.1 0 0 0 0 0zm-19.5-.4l-3.9-.3c-.1 0-.2-.1-.2-.3 0-.1.2-.2.3-.2l3.9.3c.1 0 .2.1.2.3 0 .1-.1.2-.3.2zm27.3-.1c-.1 0-.2-.1-.2-.2s.1-.3.2-.3c1.4-.1 2.6-.2 3.9-.3.1 0 .3.1.3.2s-.1.3-.2.3c-1.3.1-2.6.2-4 .3.1 0 0 0 0 0zm-35.1-.6c-1.3-.1-2.6-.3-3.9-.5-.1 0-.2-.1-.2-.3 0-.1.1-.2.3-.2 1.3.2 2.6.3 3.9.5.1 0 .2.1.2.3 0 .1-.1.2-.3.2zm42.9-.1c-.1 0-.2-.1-.2-.2s.1-.3.2-.3c1.4-.1 2.7-.3 3.9-.4.1 0 .3.1.3.2s-.1.3-.2.3c-1.3.1-2.6.2-4 .4zm7.8-.9c-.1 0-.2-.1-.2-.2s.1-.3.2-.3c1.4-.2 2.7-.3 3.9-.5.1 0 .3.1.3.2s-.1.3-.2.3c-1.3.2-2.6.4-4 .5zm-58.4-.1c-1.3-.2-2.6-.4-3.9-.7-.1 0-.2-.2-.2-.3 0-.1.2-.2.3-.2 1.3.2 2.6.5 3.8.7.1 0 .2.2.2.3 0 .2-.1.2-.2.2zm66.1-.9c-.1 0-.2-.1-.2-.2s.1-.3.2-.3c1.4-.2 2.7-.4 3.8-.7.1 0 .3.1.3.2s-.1.3-.2.3c-1.1.2-2.4.5-3.9.7.1 0 0 0 0 0zm-73.8-.4s0-.1 0 0c-1.4-.3-2.7-.6-3.9-.8-.1 0-.2-.2-.2-.3 0-.1.2-.2.3-.2 1.2.3 2.5.6 3.8.8.1 0 .2.2.2.3 0 .1-.1.2-.2.2zm81.5-1.2c-.1 0-.2-.1-.2-.2s0-.3.2-.3c1.4-.4 2-.9 2.1-.8.1.1.3.3.1.4-.3.2-1 .6-2.2.9zm-45.8-73.7c-1.3 0-2.6 0-3.9-.1-.1 0-.2-.1-.2-.3 0-.1.1-.2.3-.2 1.3 0 2.6.1 3.9.1.1 0 .3.1.3.3-.1.1-.2.2-.4.2zm3.9 0c-.1 0-.2-.1-.3-.2 0-.1.1-.3.2-.3 1.3 0 2.6-.1 3.9-.2.1 0 .3.1.3.2s-.1.3-.2.3c-1.2.1-2.6.1-3.9.2zm-11.7-.2l-3.9-.3c-.1 0-.2-.1-.2-.3 0-.1.1-.2.3-.2l3.9.3c.1 0 .2.1.2.3-.1.1-.2.2-.3.2zm19.5-.4c-.1 0-.2-.1-.2-.2s.1-.3.2-.3c1.3-.1 2.6-.3 3.9-.5.1 0 .3.1.3.2s-.1.3-.2.3c-1.4.2-2.7.4-4 .5zm-27.3-.4l-3.9-.6c-.1 0-.2-.2-.2-.3 0-.1.2-.2.3-.2l3.9.6c.1 0 .2.1.2.3 0 .1-.1.2-.3.2zm35-.7c-.1 0-.2-.1-.2-.2s.1-.3.2-.3c1.3-.2 2.6-.5 3.8-.8.1 0 .3.1.3.2s-.1.3-.2.3c-1.2.3-2.5.6-3.9.8.1 0 .1 0 0 0zm-42.7-.6c-2.5-.5-3.9-.9-3.9-.9-.1 0-.2-.2-.2-.3 0-.1.2-.2.3-.2 0 0 1.4.4 3.8.9.1 0 .2.2.2.3 0 .1-.1.2-.2.2z"/></svg>