<svg version="1.1" id="Layer_1" xmlns="http://www.w3.org/2000/svg" x="0" y="0" viewBox="0 0 321.7 321.7" xml:space="preserve"><style>.st0{fill:#5cd8ff}.st1{fill:#5bb8e3}</style><path class="st0" d="M236.8 142.9l-16.6 56.2v.1l-3.5-2.1-22.3-13.4-19-11.4-61.9-37.2 39.4-38.2.2-.2 3.5-3.4.2-.2.5-.5c.3-.3.8-.6 1.2-.7 3.1-.9 14.2-2.7 45.4 17.7 22.3 14.6 34 28.2 32.9 33.3z"/><path class="st1" d="M203.9 109.5c-15.2-10.1-26.3-14.9-33.6-16.9 9.3 9 18.7 19.8 22.8 29.7 7.7 18.7-9.9 41.2-18.4 50.6l47.8 29.5 14.2-59.4c1.2-5.2-10.5-18.8-32.8-33.5z"/><path fill="#ef5826" d="M168.8 165.7l2.4-3.7 14.9 9.5-3.1 4.2z"/><path d="M222.6 202.5c-3.6-4.1-22-19-52.1-37.6s-53.3-30.7-56.9-29.9l-27.2 10.2L224.7 231l-2.1-28.5z" fill="#33ceff"/><path class="st1" d="M222.6 202.5c.2-2.6-12.6-12-32.7-25.2 5.8 8.1 11 16 13.7 21.2 3.5 6.8 5.5 15.6 6.7 23.6l14.5 9-2.2-28.6z"/><path d="M224.7 231c-1.1 3.3-34.3-13.8-72.6-37.5-38.2-23.7-68.8-46.4-65.9-48.3 1.6-1 34.3 13.9 72.6 37.5 38.2 23.8 66.5 46.4 65.9 48.3zM157.5 93.3c-.1 0-.4-.2-.7-.3l-.2.2c.4.2.9.4.9.4.1 0 .2-.2 0-.3zm6.1 2.9c-1-.5-2.1-1-3-1.5-.1 0-.2 0-.2.1s0 .1.1.2l3 1.5h.1s.1 0 .1-.1 0-.2-.1-.2zm6.1 3.1c-1-.5-2-1.1-3-1.6-.1 0-.1 0-.2.1 0 .1 0 .2.1.2 1 .5 2 1 3 1.6h.1s.1 0 .1-.1c0 0-.1-.1-.1-.2zm5.9 3.3c-1-.6-2-1.1-3-1.7-.1 0-.1 0-.2.1 0 .1 0 .2.1.2 1 .5 2 1.1 3 1.7h.1c.1 0 .1 0 .1-.1s0-.2-.1-.2zm5.8 3.4c-1-.6-2-1.2-2.9-1.7-.1 0-.2 0-.2.1s0 .2.1.2c1 .6 1.9 1.1 2.9 1.7h.1c.1 0 .1 0 .1-.1 0 0 0-.1-.1-.2zm5.8 3.6c-.9-.6-1.9-1.2-2.8-1.8-.1-.1-.2 0-.2 0 0 .1 0 .2.1.2.2.1.5.3.7.4.7.4 1.4.9 2.2 1.3h.1c.1 0 .1 0 .1-.1-.1.1-.1 0-.2 0zm5.7 3.7c-.9-.6-1.9-1.2-2.8-1.8h-.2v.2c.9.6 1.9 1.2 2.8 1.8h.1c.1 0 .1 0 .1-.1.1 0 .1-.1 0-.1zm5.6 3.7c-.9-.6-1.9-1.3-2.8-1.9h-.2c-.1.1 0 .2 0 .2.9.6 1.9 1.3 2.8 1.9h.1s.1 0 .1-.1c.1.1.1 0 0-.1zm5.6 3.9c-.9-.6-1.8-1.3-2.8-2h-.2v.2c.9.7 1.8 1.3 2.8 2h.1s.1 0 .1-.1c.1 0 .1-.1 0-.1zm5.5 4c-.9-.7-1.8-1.3-2.7-2-.1-.1-.2 0-.2 0-.1.1 0 .2 0 .2.9.7 1.8 1.3 2.7 2h.1s.1 0 .1-.1v-.1zm5.4 4.1l-2.7-2.1h-.2v.2l2.7 2.1h.1s.1 0 .1-.1v-.1zm5.3 4.2l-2.7-2.1c-.1-.1-.1 0-.2 0-.1.1-.1.1 0 .2.9.7 1.8 1.4 2.6 2.1h.1s.1 0 .1-.1c.2 0 .2-.1.1-.1zm5.2 4.3c-.8-.7-1.7-1.4-2.6-2.2-.1-.1-.1-.1-.2 0s-.1.2 0 .2c.9.7 1.8 1.5 2.6 2.2h.2c.1-.1.1-.2 0-.2zm5.1 4.4c-.8-.7-1.7-1.5-2.5-2.2-.1-.1-.2-.1-.2 0-.1.1 0 .2 0 .2.9.7 1.7 1.5 2.5 2.2l.1.1c.1 0 .1 0 .1-.1.1 0 .1-.1 0-.2zm5 4.7c-.8-.8-1.6-1.6-2.5-2.3 0-.1-.1 0-.2 0-.1.1-.1.2 0 .2.9.8 1.7 1.6 2.4 2.3l.1.1s.1 0 .1-.1c.1-.1.1-.2.1-.2zm-2.6 4.1c-.8-.8-1.6-1.6-2.5-2.3-.1-.1-.1-.1-.2 0s-.1.1 0 .2c.8.8 1.7 1.6 2.5 2.3h.2c.1-.1.1-.2 0-.2zm-4.9-4.6c-.8-.7-1.7-1.5-2.5-2.2h-.2c-.1.1-.1.1 0 .2.9.7 1.7 1.5 2.5 2.2h.2v-.2zm-5.1-4.5c-.9-.7-1.7-1.4-2.6-2.2h-.2c-.1.1 0 .1 0 .2.9.7 1.8 1.4 2.6 2.2h.1s.1 0 .1-.1v-.1zm-5.3-4.3c-.9-.7-1.8-1.4-2.6-2.1h-.2c-.1.1 0 .2 0 .2l2.7 2.1h.1s.1 0 .1-.1l-.1-.1zm-5.3-4.2c-.9-.7-1.8-1.4-2.7-2-.1-.1-.1-.1-.2 0s-.1.2 0 .2c.9.7 1.8 1.4 2.7 2h.1c.1 0 .1 0 .1-.1.1 0 .1 0 0-.1zM207 129c-.9-.7-1.8-1.3-2.7-2-.1-.1-.2 0-.2 0-.1.1 0 .2 0 .2.9.7 1.8 1.3 2.7 2h.1s.1 0 .1-.1c.1.1.1 0 0-.1zm-5.5-3.9c-.9-.7-1.8-1.3-2.8-1.9-.1-.1-.2 0-.2 0-.1.1 0 .1 0 .2.9.6 1.9 1.3 2.8 2h.1c.1 0 .1 0 .1-.1.1-.1.1-.2 0-.2zm-5.5-3.9c-.9-.7-1.9-1.3-2.8-1.9h-.2c-.1.1 0 .2 0 .2.9.6 1.9 1.3 2.8 1.9h.1c.1 0 .1 0 .1-.1v-.1zm-5.7-3.8c-1-.6-1.9-1.2-2.8-1.8-.1-.1-.1 0-.2 0 0 .1 0 .2.1.2.9.6 1.9 1.2 2.8 1.8h.1s.1 0 .1-.1c0 0 0-.1-.1-.1zm-5.7-3.7c-1-.6-1.9-1.2-2.9-1.8-.1 0-.1 0-.2.1s0 .2 0 .2c1 .6 1.9 1.2 2.9 1.8h.1s.1 0 .1-.1c.1 0 .1-.1 0-.2zm-5.7-3.5c-1-.6-2-1.2-2.9-1.7-.1 0-.2 0-.2.1s0 .1.1.2c1 .6 1.9 1.1 2.9 1.7h.1s.1 0 .1-.1-.1-.2-.1-.2zm-5.9-3.4c-1-.6-2-1.1-3-1.7h-.2c0 .1 0 .2.1.2 1 .5 1.9 1.1 2.9 1.7h.1s.1 0 .1-.1c.1 0 .1-.1 0-.1zm-5.9-3.3c-1-.5-2-1.1-3-1.6-.1 0-.2 0-.2.1s0 .2.1.2c1 .5 2 1 3 1.6h.1c.1 0 .1 0 .1-.1s0-.2-.1-.2zm-6-3.1c-1-.5-2.1-1-3-1.5-.1 0-.2 0-.2.1s0 .2.1.2c1 .5 2 1 3.1 1.5h.1c.1 0 .1 0 .1-.1-.1-.1-.1-.2-.2-.2zm-6.1-2.9c-.3-.1-1.2-.5-1.9-.8l-.2.2c.7.3 1.6.7 2 .9.1 0 .3-.3.1-.3z" fill="#4a6792"/><path class="st0" d="M126.2 143.6c-7.6-4.2-16.7-5.2-24.9-2.4-2.8.9-4.5 2-3.4 2.9 3.3 2.8 56.2 30.7 56.2 23.5-.1-6.4-3.9-10.7-27.9-24z"/></svg>