<svg version="1.1" id="Layer_1" xmlns="http://www.w3.org/2000/svg" x="0" y="0" viewBox="0 0 321.7 321.7" xml:space="preserve"><style>.st4{fill:#c3daf4}.st5{opacity:.29}.st6{fill:#94b9e8}.st8{fill:#ffdbc2}.st9{fill:#fc6c0c}</style><path d="M128.9 39.6l5.6-7.5s5 18.5 21.6 21.6c16.6 3.1 28.5-21.6 28.5-21.6l5.9 16.2L169 91.2l-23.8-2.7L129 41.3v-1.7z" fill="#4778e3"/><path d="M214.6 235.8c-10.1-67.6-8-71.3-16.4-89.5-1.3-2.9-5.9-13-7.8-17.6-6.7-15.9 8.8-49.9 8.8-49.9l-3.3-26.3c-.6-4.8-.1-7.6.1-15.9L184.6 32c.5 2.6.5 5.4 1.2 10.3 1 7.1-1.1 14.4-6 19.6-7.2 7.7-18.4 12.5-27.1 9.2-8.8-3.3-18-12.4-18.3-22-.9-9.9.2-17.1.2-17.1l-11.4 4c1.1 7.4 2.5 11.3 2.2 17.8L123.8 83s15.2 18.3 10.5 47.4c-1.3 7.8-7.6 15.8-11.8 29-9.2 28.6-15.9 71.3-23.3 108.4 31 16.9 91.8 22.4 124.3-1.4-4.6-7.7-7.1-19-8.9-30.6z" fill="#6badff"/><path d="M214.6 235.8c-10.1-67.6-8-71.3-16.4-89.5-1.3-2.9-5.9-13-7.8-17.6-6.7-15.9 8.8-49.9 8.8-49.9l-3.3-26.3c-.6-4.8-.1-7.6.1-15.9l-5.1-2.1 2.7 41.5s-12.5 37.3-12.5 48c0 10.7 13.7 27.9 16.6 53.6 2.4 21 6.1 78.1 7.3 98.4 6.7-2.4 12.9-5.6 18.4-9.5-4.5-7.8-7-19.1-8.8-30.7z" fill="#57a4ea"/><path d="M126.5 171.1c6.5-30.8 14.9-34.2 14.9-49.4 0-15.1-9.6-37.9-9.6-37.9s-2.8-9.4-2.8-25c0-8.3-1.7-17.2-3.3-23.7l-2.6.9c1.1 7.4 2.5 11.3 2.2 17.8L123.7 83s15.2 18.3 10.5 47.4c-1.3 7.8-7.6 15.8-11.8 29-9.2 28.6-15.9 71.3-23.3 108.4 4.8 2.6 10.1 4.9 15.9 6.8 1.3-18.3 6-77.7 11.5-103.5z" fill="#5fa9f9"/><path class="st4" d="M186.1 34.7c-.2 0-.4-.2-.4-.4v-1c0-.2.2-.4.4-.4s.4.2.4.4v1c0 .2-.2.4-.4.4zm-27.4 41.4h-.2c-.6 0-1.3 0-1.9-.1-.2 0-.4-.2-.3-.4 0-.2.2-.4.4-.3.6.1 1.2.1 1.8.1h.2c.2 0 .4.2.4.4 0 .1-.2.3-.4.3zm2-.1c-.2 0-.4-.1-.4-.3 0-.2.1-.4.3-.4.6-.1 1.3-.1 2-.3.2 0 .4.1.4.3 0 .2-.1.4-.3.4-.6.2-1.3.2-2 .3zm-6-.2s-.1 0 0 0c-.8-.1-1.4-.3-2.1-.5-.2-.1-.3-.3-.2-.5.1-.2.3-.3.5-.2.6.2 1.3.4 1.9.5.2 0 .3.2.3.4-.1.1-.2.3-.4.3zm10-.5c-.2 0-.3-.1-.4-.3-.1-.2.1-.4.3-.5.6-.2 1.3-.3 1.9-.5.2-.1.4 0 .5.2.1.2 0 .4-.2.5-.7.3-1.4.4-2.1.6.1 0 0 0 0 0zm-13.9-.7h-.1c-.6-.3-1.2-.5-1.9-.8-.2-.1-.3-.3-.2-.5.1-.2.3-.3.5-.2.6.3 1.2.6 1.8.8.2.1.3.3.2.5 0 .1-.1.2-.3.2zm17.8-.5c-.1 0-.3-.1-.3-.2-.1-.2 0-.4.2-.5.6-.2 1.2-.5 1.8-.8.2-.1.4 0 .5.2.1.2 0 .4-.2.5-.6.3-1.2.6-1.9.8h-.1zm-21.4-1.3h-.2c-.6-.3-1.2-.7-1.8-1.1-.2-.1-.2-.3-.1-.5s.3-.2.5-.1c.6.4 1.1.7 1.7 1 .2.1.2.3.1.5.1.1-.1.2-.2.2zm25-.4c-.1 0-.3-.1-.3-.2-.1-.2 0-.4.2-.5.6-.3 1.2-.6 1.7-1 .2-.1.4-.1.5.1.1.2.1.4-.1.5-.6.4-1.2.7-1.8 1-.1.1-.1.1-.2.1zm-28.4-1.8c-.1 0-.2 0-.2-.1-.5-.4-1.1-.8-1.6-1.2-.2-.1-.2-.4-.1-.5.1-.2.4-.2.5-.1.5.4 1 .8 1.6 1.2.2.1.2.4.1.5-.1.2-.2.2-.3.2zm31.9-.3c-.1 0-.2-.1-.3-.2-.1-.2-.1-.4.1-.5.6-.4 1.1-.8 1.6-1.2.2-.1.4-.1.5.1.1.2.1.4-.1.5-.5.4-1.1.8-1.7 1.2 0 .1-.1.1-.1.1zm-35-2.2c-.1 0-.2 0-.3-.1-.5-.5-1-.9-1.5-1.4-.1-.1-.1-.4 0-.5.1-.1.4-.1.5 0l1.4 1.4c.2.1.2.4 0 .5.1 0 0 .1-.1.1zm38.2-.3c-.1 0-.2 0-.3-.1-.1-.2-.1-.4 0-.5.5-.4 1-.9 1.5-1.3.1-.1.4-.1.5 0 .1.1.1.4 0 .5-.5.5-1 .9-1.5 1.4h-.2zm-41-2.7c-.1 0-.2 0-.3-.1-.4-.5-.9-1.1-1.3-1.6-.1-.2-.1-.4.1-.5.2-.1.4-.1.5.1.4.5.8 1.1 1.2 1.6.1.2.1.4 0 .5h-.2zm43.9-.1c-.1 0-.2 0-.3-.1-.2-.1-.2-.4 0-.5.4-.5.9-1 1.3-1.5.1-.2.4-.2.5-.1.2.1.2.4.1.5-.4.5-.8 1.1-1.3 1.6-.1.1-.2.1-.3.1zm-46.3-3.1c-.1 0-.3-.1-.3-.2-.4-.6-.7-1.2-1-1.8-.1-.2 0-.4.2-.5.2-.1.4 0 .5.2.3.6.6 1.2 1 1.7.1.2.1.4-.1.5-.1.1-.2.1-.3.1zm48.7-.1c-.1 0-.1 0-.2-.1-.2-.1-.2-.3-.1-.5.3-.6.7-1.1 1-1.7.1-.2.3-.3.5-.2.2.1.3.3.2.5-.3.6-.6 1.2-1 1.8-.1.1-.3.2-.4.2zm-50.5-3.6c-.2 0-.3-.1-.4-.2-.2-.7-.5-1.3-.6-2-.1-.2.1-.4.3-.5.2-.1.4.1.5.3.2.6.4 1.3.6 1.9.1.2 0 .4-.2.5h-.2zm52.3 0h-.1c-.2-.1-.3-.3-.2-.5.2-.6.5-1.2.6-1.9.1-.2.3-.3.5-.3.2.1.3.3.3.5-.2.7-.4 1.3-.7 1.9-.1.2-.2.3-.4.3zm1.2-3.9c-.1 0-.1 0 0 0-.3 0-.4-.2-.4-.4.1-.6.2-1.3.3-2 0-.2.2-.4.4-.3.2 0 .4.2.3.4-.1.7-.2 1.4-.3 2 0 .2-.2.3-.3.3zm-54.4 0c-.2 0-.3-.1-.4-.3-.1-.4-.1-.9-.1-1.3l-.1-.7c0-.2.1-.4.3-.4.2 0 .4.1.4.3l.1.7c0 .4 0 .8.1 1.3.1.2-.1.4-.3.4zm54.8-4c-.2 0-.4-.2-.4-.4v-2c0-.2.1-.4.4-.4.2 0 .4.1.4.4V50c0 .2-.2.3-.4.3zm-55.1 0c-.2 0-.4-.2-.4-.3 0-.7-.1-1.4-.1-2 0-.2.1-.4.4-.4.2 0 .4.1.4.4 0 .7.1 1.3.1 2-.1.1-.2.3-.4.3zm54.9-4c-.2 0-.3-.1-.4-.3-.1-.7-.2-1.3-.3-2 0-.2.1-.4.3-.4.2 0 .4.1.4.3.1.7.2 1.3.3 2 .1.2-.1.4-.3.4zm-55.2 0c-.2 0-.4-.2-.4-.4 0-.7 0-1.4-.1-2 0-.2.2-.4.4-.4s.4.2.4.4c0 .7 0 1.3.1 2 0 .2-.1.4-.4.4zm54.6-4c-.2 0-.3-.1-.4-.3-.1-.7-.2-1.4-.2-2 0-.2.1-.4.3-.4.2 0 .4.1.4.3.1.7.1 1.3.2 2 .1.2 0 .4-.3.4zm-54.7-.1c-.2 0-.4-.2-.4-.4v-2c0-.2.2-.4.4-.4s.4.2.4.4v2c0 .3-.1.4-.4.4zm54.3-3.9c-.2 0-.4-.1-.4-.3-.1-.7-.1-1.4-.2-2 0-.2.1-.4.3-.4.2 0 .4.1.4.3 0 .6.1 1.3.2 2 .1.2-.1.4-.3.4zm-54.2-.1c-.1 0-.1 0 0 0-.2 0-.4-.2-.4-.4v-2c0-.2.2-.4.4-.4s.4.2.4.4v2c-.1.2-.2.4-.4.4zm.1-3.2c-.2 0-.4-.2-.4-.4v-1c0-.2.2-.4.4-.4s.4.2.4.4v1c-.1.2-.2.4-.4.4z"/><g class="st5"><path class="st6" d="M137.3 76.5c-1.9 1-3 3.1-3 5.3-.1 4.1.8 11.3 7.7 13.8 9.9 3.6 15.9 2 24.7 2 8.8 0 28.8-5.5 22.3-19.2-4.5-9.5-24.4 3.7-36.4 1.7-9.8-1.5-11.8-5.5-15.3-3.6z"/></g><g class="st5"><path class="st6" d="M166.7 142.1c-15.1-2.9-29.4 8.1-32.5 24.6-4 21.8-17.4 77.1-14.2 93.3 4.2 21.1 75.6 22.1 77.8-.1 1.7-17.3-3.6-111.6-29.8-117.5-.4-.1-.9-.2-1.3-.3z"/></g><path d="M186.5 55.5c0-.1-.1-.2-.2-.2-.3-.1-.9.3-1.2 1.1-.1.4-1.2 4-.8 4.1.4.2 2.4-3.1 2.5-3.4.4-.8.3-1.8-.3-1.6z" fill="#6f94b5"/><path class="st8" d="M184.4 60.6c-.6-.2.7-4.2.7-4.2.4-1 1.2-1.5 1.5-.9h.3c.4.2.4.9.1 1.7-.2.2-2.1 3.6-2.6 3.4zm.8-4.2c-.2.5-1.1 3.9-.8 4.1.3.1 2.2-2.9 2.4-3.4.3-.8.2-1.7-.3-1.5h-.1v-.1c-.2-.5-.9.2-1.2.9z"/><path class="st9" d="M186.5 55.5c0-.1-.1-.2-.2-.2-.3-.1-.9.3-1.2 1.1-.1.4-1.2 4-.8 4.1.4.2 2.4-3.1 2.5-3.4.4-.8.3-1.8-.3-1.6z"/><path class="st8" d="M184.4 60.6c-.6-.2.7-4.2.7-4.2.4-1 1.2-1.5 1.5-.9h.3c.4.2.4.9.1 1.7-.2.2-2.1 3.6-2.6 3.4zm.8-4.2c-.2.5-1.1 3.9-.8 4.1.3.1 2.2-2.9 2.4-3.4.3-.8.2-1.7-.3-1.5h-.1v-.1c-.2-.5-.9.2-1.2.9z"/><path class="st9" d="M182.2 66.3c.1.1.1.2.2.2.4.1.9-.4 1.1-1.1.1-.4 1.1-4 .6-4.2-.4-.2-2.3 3.2-2.4 3.5-.3.9-.1 1.9.5 1.6z"/><path class="st8" d="M181.7 64.7c.1-.4 2-3.8 2.5-3.6.5.2-.4 3.9-.6 4.3-.4 1-1.1 1.5-1.4 1h-.3c-.5-.2-.4-1.2-.2-1.7zm2.4-3.4c-.4-.1-2.2 3.1-2.3 3.5-.3.8-.2 1.7.4 1.5h.1s.1.2.2.2c.4.1.9-.7 1-1.1.1-.2.3-1.2.5-2.2.4-2 .1-2 .1-1.9z"/><path class="st9" d="M178.9 58.7c-.1 0-.2.1-.2.2-.1.3.3.9 1.1 1.2.4.1 4 1.2 4.1.8.2-.4-3.1-2.4-3.4-2.5-.9-.4-1.9-.3-1.6.3z"/><path class="st8" d="M179.7 60.1c-.9-.4-1.5-1.1-.9-1.5v-.3c.2-.4.9-.4 1.7-.1.3.1 3.7 2.1 3.5 2.6-.3.6-4.2-.6-4.3-.7zm.7-1.7c-.7-.3-1.4-.3-1.5.1v.3h-.1c-.5.3.1.9.9 1.2.5.2 3.9 1.1 4.1.8.2-.3-2.9-2.2-3.4-2.4z"/><path class="st9" d="M189.6 63c.1-.1.2-.1.2-.2.1-.4-.4-.9-1.1-1.1-.4-.1-4-1.1-4.2-.6-.2.4 3.2 2.3 3.5 2.4.9.3 1.9.1 1.6-.5z"/><path class="st8" d="M184.5 61.1c.2-.5 3.9.4 4.3.6 1 .3 1.5 1.1 1 1.4v.3c-.2.5-1.2.4-1.7.2-.4-.2-3.8-2-3.6-2.5zm4.2.7c-.4-.2-4-1-4.1-.7-.1.4 3 2.1 3.5 2.3.9.3 1.7.2 1.5-.4v-.1s.2-.1.2-.2c.1-.3-.7-.8-1.1-.9z"/><path class="st9" d="M189.7 58.7v-.3c-.1-.3-.9-.4-1.6-.1-.4.2-3.7 2-3.5 2.4.2.4 3.9-.5 4.2-.7.9-.3 1.5-1.1.9-1.3z"/><path class="st8" d="M184.6 60.7c-.2-.6 3.5-2.5 3.5-2.5 1-.4 1.9-.2 1.7.4.4.2.3.6 0 .9-.2.2-.5.4-.9.6-.4.2-4.1 1.2-4.3.6zm4.5-2.5c-.3 0-.6.1-1 .2-.5.2-3.6 2-3.4 2.3.2.4 3.7-.5 4.1-.7.3-.1.6-.4.8-.6.5-.6 0-.7-.1-.7 0 0 .1-.2 0-.3 0-.2-.2-.2-.4-.2z"/><path class="st9" d="M179 63.2v.3c.2.3.9.3 1.6 0 .4-.2 3.6-2.1 3.4-2.5-.2-.4-3.8.6-4.2.8-.8.4-1.4 1.2-.8 1.4z"/><path class="st8" d="M179.2 63.8c-.2-.1-.3-.3-.3-.5-.1 0-.2-.1-.2-.2-.2-.5.6-1.1 1.1-1.3.3-.2 4-1.3 4.3-.8.3.5-3.4 2.6-3.4 2.6-.6.2-1.2.3-1.5.2zm-.3-.8l.2.2s-.1.2 0 .3c.1.3.8.3 1.5 0 .5-.2 3.5-2.1 3.4-2.4-.2-.4-3.7.6-4.1.8-.3.2-.6.4-.8.6-.3.2-.3.4-.2.5z"/><path class="st9" d="M182 55.5h-.3c-.3.1-.4.9-.1 1.6.2.4 2 3.7 2.4 3.5.4-.2-.5-3.9-.7-4.2-.2-.9-1-1.5-1.3-.9z"/><path class="st8" d="M181.6 57.1c-.2-.4-.2-.7-.2-1 0-.4.2-.8.6-.7.1-.1.1-.2.2-.2.4-.2.9.3 1.3 1.1.1.3 1.1 4.1.6 4.3-.5.3-2.3-3.1-2.5-3.5zm.7-1.7l-.2.2s-.2-.1-.3 0c-.4.2-.2 1.1 0 1.5.2.4 2 3.6 2.3 3.4.3-.1-.5-3.7-.7-4.1-.2-.5-.7-1.2-1.1-1z"/><path class="st9" d="M186.6 66.2h.3c.3-.2.3-.9 0-1.6-.2-.4-2.1-3.6-2.5-3.4-.4.2.6 3.8.8 4.2.4.8 1.1 1.4 1.4.8z"/><path class="st8" d="M185.1 65.4c-.2-.3-1.3-4-.8-4.3.6-.3 2.6 3.4 2.6 3.4.5 1 .3 1.8-.3 1.7 0 .1-.1.2-.2.2-.5.3-1.1-.5-1.3-1zm-.7-4.1c-.4.2.6 3.7.8 4.1.2.3.4.6.6.8.2.2.4.2.5.2l.2-.2s.2.1.3 0c.3-.1.3-.8 0-1.5-.2-.6-2.1-3.6-2.4-3.4z"/><path class="st9" d="M186.3 57.1c-.1.2-1.7 3.6-1.9 3.5-.2-.1 1.1-3.6 1.2-3.8.1-.6.9-.2.7.3z"/><path class="st8" d="M184.4 60.6c-.3-.1 1.1-3.8 1.1-3.9.1-.2.4-.4.6-.3.2.1.4.4.3.6-.1.2-1.7 3.7-2 3.6zm1.2-3.8c-.2.4-1.2 3.2-1.2 3.7.3-.4 1.7-3.1 1.8-3.4.2-.5-.4-.7-.6-.3z"/><path class="st9" d="M186.3 57.1c-.1.2-1.7 3.6-1.9 3.5-.2-.1 1.1-3.6 1.2-3.8.1-.6.9-.2.7.3z"/><path class="st8" d="M184.4 60.6c-.3-.1 1.1-3.8 1.1-3.9.1-.2.4-.4.6-.3.2.1.4.4.3.6-.1.2-1.7 3.7-2 3.6zm1.2-3.8c-.2.4-1.2 3.2-1.2 3.7.3-.4 1.7-3.1 1.8-3.4.2-.5-.4-.7-.6-.3z"/><path class="st9" d="M182.2 65c.1-.2 1.6-3.6 1.8-3.6.2.1-1 3.6-1 3.8-.2.6-1 .3-.8-.2z"/><path class="st8" d="M182.1 65c0-.1 1.6-3.7 1.9-3.6.3.1-1 3.9-1 3.9-.1.3-.4.4-.6.3-.2-.1-.4-.4-.3-.6zm1.9-3.4c-.3.4-1.6 3.1-1.7 3.5-.2.4.5.7.7.2.1-.4 1-3.3 1-3.7z"/><path class="st9" d="M180.3 58.8c.2.1 3.6 1.7 3.5 1.9-.1.2-3.6-1.1-3.8-1.2-.5-.1-.2-.9.3-.7z"/><path class="st8" d="M180 59.7c-.2-.1-.4-.4-.3-.6.1-.2.4-.4.6-.3.1 0 3.7 1.7 3.5 2-.1.3-3.8-1.1-3.8-1.1zm.3-.8c-.4-.2-.7.5-.3.7.4.2 3.2 1.2 3.7 1.2-.4-.4-3.1-1.8-3.4-1.9z"/><path class="st9" d="M188.2 63c-.2-.1-3.6-1.6-3.6-1.8.1-.2 3.6 1 3.8 1 .6.2.4.9-.2.8z"/><path class="st8" d="M184.6 61.1c.1-.3 3.9 1 3.9 1 .6.2.3 1.1-.3.9 0 0-3.7-1.6-3.6-1.9zm.2.1c.4.3 3.1 1.6 3.5 1.7.4.2.7-.5.2-.7-.4-.1-3.2-1-3.7-1z"/><path class="st9" d="M182.9 56.7c.1.2 1.3 3.7 1.1 3.8-.2.1-1.8-3.3-1.9-3.5-.1-.5.6-.8.8-.3z"/><path class="st8" d="M184 60.6c-.3-.1-1.8-3.3-1.9-3.5-.1-.2 0-.5.3-.6.2-.1.5 0 .6.3.1 0 1.5 4 1 3.8zm-1.8-3.6c.2.4 1.4 3.1 1.8 3.4 0-.5-1-3.4-1.1-3.7-.2-.4-.9-.1-.7.3z"/><path class="st9" d="M185.6 65.2c-.1-.2-1.4-3.7-1.2-3.8.2-.1 1.9 3.2 2 3.4.2.6-.5 1-.8.4z"/><path class="st8" d="M185.6 65.3c-.1-.1-1.5-3.8-1.2-3.9.3-.1 2 3.4 2.1 3.5.2.4-.2.8-.6.7 0-.1-.3-.2-.3-.3zm-1.1-3.8c0 .5 1.1 3.3 1.2 3.7.2.4.8.1.6-.3-.1-.4-1.5-3-1.8-3.4z"/><path class="st9" d="M179.8 62.2c.2-.1 3.8-1.2 3.9-1 .1.2-3.4 1.7-3.6 1.8-.5.2-.8-.6-.3-.8z"/><path class="st8" d="M179.5 62.4c.1-.1.1-.2.3-.3.1 0 3.8-1.2 4-.9.1.3-3.6 1.8-3.6 1.8-.5.2-.9-.2-.7-.6zm4.1-1.2c-.5 0-3.4.9-3.7 1-.4.2-.2.8.3.7.3-.2 3-1.3 3.4-1.7z"/><path class="st9" d="M188.4 59.7c-.2.1-3.7 1.3-3.8 1.1-.1-.2 3.3-1.8 3.5-1.9.5-.1.8.6.3.8z"/><path class="st8" d="M184.5 60.9c-.5-.2 3.1-1.8 3.5-2 .6-.3 1 .6.4.9v-.1.1c-.2.1-3.5 1.3-3.9 1.1zm3.6-1.9c-.4.2-3.1 1.4-3.4 1.8.5 0 3.4-1 3.7-1.1.3-.1.3-.5 0-.6 0-.1-.2-.1-.3-.1z"/><path class="st9" d="M185.2 61.2c-.2.6-.9.9-1.5.6-.6-.2-.9-.9-.6-1.5.2-.6.9-.9 1.5-.6.5.3.8.9.6 1.5z"/><path class="st8" d="M183.7 61.9c-.6-.2-.9-1-.7-1.6.2-.6 1-.9 1.6-.7.6.3.9 1 .7 1.6-.3.7-1 1-1.6.7zm.8-2.1c-.6-.2-1.2 0-1.4.6-.2.6 0 1.2.6 1.4.6.2 1.2 0 1.4-.6.2-.6 0-1.2-.6-1.4z"/><path class="st4" d="M155.7 280.4h-2c-.2 0-.4-.2-.4-.4s.2-.4.4-.4h2c.2 0 .4.2.4.4s-.2.4-.4.4zm2 0c-.2 0-.4-.2-.4-.4s.2-.4.4-.4h2c.2 0 .4.2.4.4s-.2.4-.4.4h-2zm-6-.1c-.7 0-1.4 0-2-.1-.2 0-.4-.2-.4-.4s.2-.4.4-.4c.7 0 1.3.1 2 .1.2 0 .4.2.4.4 0 .3-.2.4-.4.4zm10 0c-.2 0-.4-.2-.4-.4s.2-.4.4-.4c.7 0 1.3 0 2-.1.2 0 .4.2.4.4s-.2.4-.4.4c-.6.1-1.3.1-2 .1zm4-.2c-.2 0-.4-.2-.4-.4s.1-.4.4-.4c.7 0 1.3-.1 2-.1.2 0 .4.1.4.3 0 .2-.1.4-.3.4-.7.2-1.4.2-2.1.2zm-18 0h-.6c-.5 0-.9-.1-1.4-.1-.2 0-.4-.2-.3-.4 0-.2.2-.4.4-.3.5 0 .9.1 1.4.1h.6c.2 0 .4.2.4.4-.1.2-.3.3-.5.3zm22-.2c-.2 0-.4-.1-.4-.3 0-.2.1-.4.3-.4.7-.1 1.3-.1 2-.2.2 0 .4.1.4.3 0 .2-.1.4-.3.4-.6 0-1.3.1-2 .2zm-26-.1c-.7-.1-1.4-.2-2-.3-.2 0-.3-.2-.3-.4s.2-.4.4-.3c.7.1 1.3.2 2 .3.2 0 .4.2.3.4 0 .1-.2.3-.4.3zm30-.3c-.2 0-.4-.1-.4-.3 0-.2.1-.4.3-.4.7-.1 1.3-.1 2-.2.2 0 .4.1.4.3 0 .2-.1.4-.3.4-.7 0-1.3.1-2 .2zm-33.9-.3c-.1 0-.1 0 0 0-.7-.1-1.4-.2-2-.4-.2 0-.3-.2-.3-.4s.2-.3.4-.3c.7.1 1.3.2 2 .4.2 0 .3.2.3.4-.1.2-.3.3-.4.3zm37.8-.2c-.2 0-.3-.1-.4-.3 0-.2.1-.4.3-.4.7-.1 1.3-.2 2-.3.2 0 .4.1.4.3 0 .2-.1.4-.3.4-.6.1-1.2.2-2 .3.1 0 .1 0 0 0zm-41.8-.5c-.7-.1-1.4-.3-2-.4-.2 0-.3-.2-.3-.4s.2-.3.4-.3c.7.1 1.3.3 2 .4.2 0 .3.2.3.4s-.2.3-.4.3zm45.8-.1c-.2 0-.3-.1-.4-.3 0-.2.1-.4.3-.4.7-.1 1.3-.2 2-.3.2 0 .4.1.4.3 0 .2-.1.4-.3.4-.6 0-1.3.2-2 .3zm3.9-.7c-.2 0-.3-.1-.4-.3 0-.2.1-.4.3-.4.7-.1 1.3-.3 2-.4.2 0 .4.1.4.3 0 .2-.1.4-.3.4-.6.1-1.2.2-2 .4.1-.1.1 0 0 0zm-53.6-.1c-.7-.2-1.4-.3-2-.5-.2-.1-.3-.3-.3-.5.1-.2.3-.3.5-.3.6.2 1.3.3 1.9.5.2 0 .3.3.3.5-.1.2-.2.3-.4.3zm57.5-.8c-.2 0-.3-.1-.4-.3 0-.2.1-.4.3-.5.6-.2 1.3-.3 1.9-.5.2 0 .4.1.5.3.1.2-.1.4-.3.5-.6.2-1.2.3-2 .5.1 0 .1 0 0 0zm-61.4-.2c-.7-.2-1.4-.4-2-.6-.2-.1-.3-.3-.3-.5.1-.2.3-.3.5-.3.6.2 1.3.4 1.9.5.2.1.3.3.3.5 0 .3-.2.4-.4.4zm65.3-.8c-.2 0-.3-.1-.4-.3-.1-.2.1-.4.3-.5.6-.2 1.3-.4 1.9-.5.2-.1.4.1.5.3.1.2-.1.4-.3.5-.6.2-1.3.4-1.9.6 0-.1 0-.1-.1-.1zm-69.1-.3h-.1c-.6-.2-1.3-.4-1.9-.6-.2-.1-.3-.3-.2-.5.1-.2.3-.3.5-.2.6.2 1.3.4 1.9.6.2.1.3.3.3.5-.2.1-.3.2-.5.2zm73-.8c-.2 0-.3-.1-.4-.3-.1-.2 0-.4.2-.5.6-.2 1.3-.4 1.9-.6.2-.1.4 0 .5.2s0 .4-.2.5c-.6.2-1.3.4-1.9.6l-.1.1zm-76.8-.4h-.1c-.6-.2-1.3-.4-1.9-.6-.2-.1-.3-.3-.2-.5.1-.2.3-.3.5-.2.6.2 1.3.4 1.9.6.2.1.3.3.2.5-.1.1-.3.2-.4.2zm80.5-.9c-.2 0-.3-.1-.4-.2-.1-.2 0-.4.2-.5.6-.2 1.2-.5 1.9-.7.2-.1.4 0 .5.2.1.2 0 .4-.2.5-.6.2-1.2.5-1.9.7 0-.1 0 0-.1 0zm-84.3-.4h-.1c-.6-.2-1.3-.4-1.9-.7-.2-.1-.3-.3-.2-.5.1-.2.3-.3.5-.2.6.2 1.2.4 1.9.7.2.1.3.3.2.5-.1.1-.3.2-.4.2zm88.1-1.1c-.1 0-.3-.1-.3-.2-.1-.2 0-.4.2-.5.6-.3 1.2-.5 1.8-.8.2-.1.4 0 .5.2.1.2 0 .4-.2.5-.6.3-1.2.6-1.8.8-.1-.1-.2 0-.2 0zm-91.9-.3h-.1c-.6-.2-1.3-.5-1.9-.7-.2-.1-.3-.3-.2-.5.1-.2.3-.3.5-.2.6.2 1.2.5 1.9.7.2.1.3.3.2.5-.1.1-.2.2-.4.2zm-3.7-1.4h-.1c-.6-.3-1.3-.5-1.9-.7-.2-.1-.3-.3-.2-.5.1-.2.3-.3.5-.2.6.2 1.2.5 1.9.7.2.1.3.3.2.5-.1.1-.3.2-.4.2zm99.2-.1c-.1 0-.3-.1-.3-.2-.1-.2 0-.4.2-.5l1.8-.9c.2-.1.4 0 .5.1.1.2 0 .4-.1.5l-1.8.9c-.2.1-.3.1-.3.1zm-102.9-1.4h-.1c-.7-.3-1.3-.5-1.9-.8-.2-.1-.3-.3-.2-.5.1-.2.3-.3.5-.2.6.2 1.2.5 1.8.8.2.1.3.3.2.5-.1.1-.2.2-.3.2zm106.4-.5c-.1 0-.3-.1-.3-.2-.1-.2 0-.4.1-.5.6-.3 1.1-.7 1.7-1.1.2-.1.4-.1.5.1.1.2.1.4-.1.5-.6.4-1.1.7-1.7 1.1-.1.1-.2.1-.2.1zm-110.1-1.1h-.2c-1.2-.5-1.8-.8-1.8-.8-.2-.1-.3-.3-.2-.5.1-.2.3-.3.5-.2 0 0 .7.3 1.8.8.2.1.3.3.2.5-.1.2-.2.2-.3.2zm113.4-1.1c-.1 0-.2-.1-.3-.2-.1-.2-.1-.4.1-.5.5-.4 1-.7 1.5-1.1.2-.1.4-.1.5.1.1.2.1.4-.1.5-.5.4-1 .8-1.5 1.1 0 .1-.1.1-.2.1zm2.9-2.1c-.1 0-.2-.1-.3-.2-.1-.2-.1-.4.1-.5.5-.4 1-.7 1.5-1.1.2-.1.4-.1.5.1.1.2.1.4-.1.5-.5.4-1 .8-1.5 1.1 0 .1-.1.1-.2.1z"/></svg>