<svg version="1.1" id="Layer_1" xmlns="http://www.w3.org/2000/svg" x="0" y="0" viewBox="0 0 321.7 321.7" xml:space="preserve"><style>.st2{fill:#508784}.st5{fill:#67ada9}.st7{fill:#ffe19f}.st8{fill:#7cd1cc}.st9{fill:#6eb7b1}.st10{fill:#ffc661}</style><path d="M109.8 140.5l6.7.5 1.2 7.7-12.3-1.6zm108.4 7.1s.4-3.4 3.5-4.1h12l3.3 9.8-19.6-1.9.8-3.8z" fill="#316662"/><path d="M152.9 156s12.2-87.7 17.5-93.4c5.3-5.7 13.3-3.3 15.2 0 2.9 5.1 10.5 95.7 10.5 95.7h11.6S197 66 186.2 58.1c-10.8-7.9-20.7.5-23.7 9.1-3.1 8.6-20.8 85.4-20.8 85.4l11.2 3.4z" fill="#5a9693"/><path class="st2" d="M104.1 198.5s-26.4 23.7-28.4 38.4l1.4 22.7s2.1-1.5 2.9-6.1c1.6-9.5 6-18.2 13.2-27.2 11.9-15 15-17.1 15-17.1l-4.1-10.7z"/><path d="M93.2 146.5l19 117.8s97.7 2.4 105.3-.8c7.5-3.2 28.1-89 25.1-109.5l-149.4-7.5z" fill="#e68c6e"/><path d="M217.4 263.5c4.5-1.9 13.7-33.3 19.7-62.7-8.7 15.2-22.3 34.4-38.2 41-27.9 11.6-86.8 22.5-86.8 22.5s97.8 2.4 105.3-.8z" fill="#d98568"/><path class="st5" d="M239.7 186.8c2.4-14.2 3.7-26.6 2.8-32.9l-149.4-7.5 6 37.2 140.6 3.2z"/><path d="M157 143.9s-26.4 1.2-41.9 0c-15.4-1.2-22.3 0-21.9 2.6.4 2.6 30 10.9 60.5 9.4s37.4 1.4 51.7 2.7c14.3 1.4 35.8 1 37.1-4.5.6-2.4-69.1-12.1-85.5-10.2z" fill="#36706c"/><path class="st5" d="M135.4 156s12-84.6 18.9-91.4c5.9-5.9 15.1-3.6 17.1 0 2.1 3.9 11.2 91.5 11.2 91.5l13 1.6s-10.5-89.3-22.7-97.5c-12.2-8.2-24 .2-27.5 9.1s-21.3 85.3-21.3 85.3l11.3 1.4z"/><path class="st7" d="M102.1 180.4l-1.9-.1c-.1 0-.2-.1-.2-.2s.1-.2.2-.2l1.9.1c.1 0 .2.1.2.2-.1.1-.1.2-.2.2zm131.2 3.5l-3.9-.1c-.1 0-.2-.1-.2-.2s.1-.2.2-.2l3.9.1c.1 0 .2.1.2.2l-.2.2zm-7.8-.2l-3.9-.1c-.1 0-.2-.1-.2-.2s.1-.2.2-.2l3.9.1c.1 0 .2.1.2.2s-.1.2-.2.2zm-7.7-.2l-3.9-.1c-.1 0-.2-.1-.2-.2s.1-.2.2-.2l3.9.1c.1 0 .2.1.2.2s-.1.2-.2.2zm-7.7-.2l-3.9-.1c-.1 0-.2-.1-.2-.2s.1-.2.2-.2l3.9.1c.1 0 .2.1.2.2s-.1.2-.2.2zm-7.7-.2l-3.9-.1c-.1 0-.2-.1-.2-.2s.1-.2.2-.2l3.9.1c.1 0 .2.1.2.2-.1.1-.1.2-.2.2zm-7.7-.2l-3.9-.1c-.1 0-.2-.1-.2-.2s.1-.2.2-.2l3.9.1c.1 0 .2.1.2.2-.1.1-.1.2-.2.2zm-7.7-.2l-3.9-.1c-.1 0-.2-.1-.2-.2s.1-.2.2-.2l3.9.1c.1 0 .2.1.2.2l-.2.2zm-7.8-.3l-3.9-.1c-.1 0-.2-.1-.2-.2s.1-.2.2-.2l3.9.1c.1 0 .2.1.2.2 0 .2-.1.2-.2.2zm-7.7-.2l-3.9-.1c-.1 0-.2-.1-.2-.2s.1-.2.2-.2l3.9.1c.1 0 .2.1.2.2 0 .2-.1.2-.2.2zm-7.7-.2l-3.9-.1c-.1 0-.2-.1-.2-.2s.1-.2.2-.2l3.9.1c.1 0 .2.1.2.2 0 .2-.1.2-.2.2zm-7.7-.2l-3.9-.1c-.1 0-.2-.1-.2-.2s.1-.2.2-.2l3.9.1c.1 0 .2.1.2.2-.1.1-.1.2-.2.2zm-7.7-.2l-3.9-.1c-.1 0-.2-.1-.2-.2s.1-.2.2-.2l3.9.1c.1 0 .2.1.2.2-.1.1-.1.2-.2.2zm-7.7-.2l-3.9-.1c-.1 0-.2-.1-.2-.2s.1-.2.2-.2l3.9.1c.1 0 .2.1.2.2l-.2.2zm-7.8-.2l-3.9-.1c-.1 0-.2-.1-.2-.2s.1-.2.2-.2l3.9.1c.1 0 .2.1.2.2s-.1.2-.2.2zm-7.7-.2l-3.9-.1c-.1 0-.2-.1-.2-.2s.1-.2.2-.2l3.9.1c.1 0 .2.1.2.2s-.1.2-.2.2zm-7.7-.2l-3.9-.1c-.1 0-.2-.1-.2-.2s.1-.1.2-.2l3.9.1c.1 0 .2.1.2.2s-.1.2-.2.2zm-7.7-.2l-3.9-.1c-.1 0-.2-.1-.2-.2s.1-.2.2-.2l3.9.1c.1 0 .2.1.2.2-.1.1-.1.2-.2.2zm129.2 3.5l-1.9-.1c-.1 0-.2-.1-.2-.2s.1-.2.2-.2l1.9.1c.1 0 .2.1.2.2s-.1.2-.2.2z"/><path class="st8" d="M93.2 146.5c1.6 3.2 29.9 9.5 55.7 8.9 5.6-.1 9.4-.5 19-.6 26-.1 33.2 4.7 57 4 4.2-.1 16.4-.7 17.6-4.8-.7 2.6-5.5 3.8-8.1 4.3-18 3.5-42.1-.9-47.5-1.5-28.2-2.9-41.5 3.3-75.9-4-2.4-.5-17.2-4-17.8-6.3z"/><path class="st9" d="M229.8 171c-3.4 0-6.2-2.8-6.2-6.2.1-6.5.6-16 .1-18.5-.6-2.9-2-2.9-2-2.9h11.9c1.1 0 2.1.7 2.4 1.7.7 1.8 1.6 5.1 2.3 10.2.5 3.5.6 6.8.7 9.4 0 3.4-2.7 6.2-6.2 6.2h-3z"/><path class="st7" d="M237.8 164.9c-.2-.1-.3-.2-.3-.4.1-.6.2-1.2.2-1.8 0-.2.1-.3.3-.3.2 0 .3.1.3.3 0 .7-.1 1.3-.2 1.9 0 .2-.1.3-.3.3zm-4.5 4.3c-.2 0-.3-.1-.3-.3 0-.2.1-.3.3-.3 1-.1 2-.6 2.7-1.3.1-.1.3-.1.4 0 .1.1.1.3 0 .4-.8.9-1.9 1.4-3.1 1.5zm-3.3 0c-1.2-.1-2.3-.6-3.1-1.5-.1-.1-.1-.3 0-.4.1-.1.3-.1.4 0 .8.8 1.7 1.3 2.7 1.3.2 0 .3.2.3.3 0 .2-.2.3-.3.3zm-4.5-4.3c-.1 0-.3-.1-.3-.2-.2-.6-.2-1.3-.2-1.9 0-.2.1-.3.3-.3.2 0 .3.1.3.3 0 .6.1 1.2.2 1.8 0 .1-.1.2-.3.3z"/><path class="st10" d="M120.5 157.8H108c-1.8 0-3.2-1.4-3.2-3.2 0-1.8 1.4-3.2 3.2-3.2h12.5c1.8 0 3.2 1.4 3.2 3.2 0 1.7-1.4 3.2-3.2 3.2zm-12.5-5.2c-1.1 0-2 .9-2 2s.9 2 2 2h12.5c1.1 0 2-.9 2-2s-.9-2-2-2H108z"/><path class="st8" d="M158.7 169.1c.5-3.2 3.2-5.6 6.5-6 9.2-1 32.6-2.9 43.8 2.4 14.2 6.7-9.5 8.6-34.4 10.2-14 1-16.4-3-15.9-6.6z"/><path class="st10" d="M120.5 165.5H108c-1.8 0-3.2-1.4-3.2-3.2 0-1.8 1.4-3.2 3.2-3.2h12.5c1.8 0 3.2 1.4 3.2 3.2 0 1.8-1.4 3.2-3.2 3.2zm-12.5-5.2c-1.1 0-2 .9-2 2s.9 2 2 2h12.5c1.1 0 2-.9 2-2s-.9-2-2-2H108z"/><path class="st10" d="M111.4 156.9h5.6v3.4h-5.6z"/><path class="st2" d="M107.6 163.6s4.5 77.6 4.4 85.5c0 3.2-1.4 16.1-1.4 16.1l6.4-.7s1.5-1.7 3.8-11.6c2.2-9.8 1.1-89.3 1.1-89.3h-14.3z"/><path class="st9" d="M109.8 140.5l-.7 12.7h11.4v-11.1c0-.9-.7-1.6-1.6-1.6h-9.1z"/><path class="st5" d="M121.1 251.2s-5 12.4-25.3 6.9c-20.3-5.4-20.1-21.2-20.1-21.2l1.2 21.6c.1 2 1.4 3.8 3.2 4.6 6.8 2.8 23.1 9.3 29.3 8.6 7.9-.8 11.2-15.5 11.7-20.5z"/></svg>