<svg version="1.1" id="Calque_1" xmlns="http://www.w3.org/2000/svg" x="0" y="0" viewBox="-269 361 72 72" xml:space="preserve"><style>.st1{fill:#98d9e9}.st2{fill:#48b0cb}</style><path d="M-233 433c19.9 0 36-16.1 36-36s-16.1-36-36-36-36 16.1-36 36 16.1 36 36 36z" fill="#d7f1f8"/><path class="st1" d="M-217.1 394.9l-4.9 19.8c-.2.8-.9 1.3-1.7 1.3h-18.7c-.8 0-1.5-.5-1.7-1.3l-4.9-19.8h31.9z"/><path class="st1" d="M-217.1 394.9l-4.9 19.8c-.2.8-.9 1.3-1.7 1.3h-15.9c-.8 0-1.5-.5-1.7-1.3l-4.9-19.8h29.1z"/><path class="st2" d="M-216.4 401.6c-1.5 0-2.8-1.2-3-2.7 0-.2-.1-.3-.3-.3-.2 0-.4.1-.4.3-.2 1.5-1.4 2.7-3 2.7-1.5 0-2.8-1.2-3-2.7 0-.1-.1-.2-.2-.3-.2-.1-.4.1-.4.3-.1 1.5-1.4 2.7-3 2.7-1.5 0-2.8-1.2-3-2.7 0-.2-.1-.3-.3-.3-.2 0-.4.1-.4.3-.2 1.5-1.4 2.7-3 2.7-1.5 0-2.8-1.1-3-2.6 0-.1-.1-.2-.2-.3-.3-.2-.6 0-.7.3-.2 1.5-1.4 2.6-3 2.6-1.5 0-2.8-1.2-3-2.7 0-.2-.1-.3-.3-.3-.2 0-.4.1-.4.3-.2 1.5-1.4 2.7-3 2.7-1.5 0-2.8-1.1-2.8-3.9.1-3.5.8-6.5 2.2-9.2 3.1-6.1 9-9.8 15.4-10.5.6-.1 1.3-.1 1.9-.1 5 0 9.8 1.9 13.4 5.3 1.5 1.5 2.9 3.2 3.9 5.2 1.3 2.7 2.1 5.7 2.2 9.2.3 2.3-.3 4-2.6 4z"/><path class="st2" d="M-216.4 401.6c-1.5 0-2.8-1.2-3-2.7 0-.2-.1-.3-.3-.3-.2 0-.4.1-.4.3-.2 1.5-1.4 2.7-3 2.7-1.5 0-2.8-1.2-3-2.7 0-.1-.1-.2-.2-.3-.2-.1-.4.1-.4.3-.1 1.5-1.4 2.7-3 2.7-1.5 0-2.8-1.2-3-2.7 0-.2-.1-.3-.3-.3-.2 0-.4.1-.4.3-.2 1.5-1.4 2.7-3 2.7-1.5 0-2.8-1.1-3-2.6 0-.1-.1-.2-.2-.3-.3-.2-.6 0-.7.3-.2 1.5-1.4 2.6-3 2.6-1.5 0-2.8-1.2-3-2.7 0-.2-.1-.3-.3-.3-.2 0-.4.1-.4.3-.2 1.5-1.4 2.7-3 2.7.1-4.2.9-7.9 2.2-11.2 2.6-6.4 7.3-10.8 12.6-12.4.6-.1 1.3-.1 1.9-.1 5 0 9.8 1.9 13.4 5.3 1.5 1.5 2.9 3.2 3.9 5.2 1.3 2.7 2.1 5.7 2.2 9.2.3 2.3-.3 4-2.6 4zm-16.6 2c-.3 0-.6.3-.6.6v8.5c0 .3.3.6.6.6s.6-.3.6-.6v-8.5c0-.3-.3-.6-.6-.6zm-3.9.6c0-.3-.3-.6-.7-.5-.3 0-.6.3-.5.7l.9 8.5c0 .3.3.5.6.5.4 0 .6-.3.6-.7l-.9-8.5zm-4.5-.1c-.1-.3-.4-.5-.7-.5-.3.1-.5.4-.5.7l1.9 8.5c.1.3.3.5.6.5.4 0 .7-.4.6-.7l-1.9-8.5zm12.9-.5c-.3 0-.6.2-.7.5l-.9 8.5c0 .4.2.7.6.7.3 0 .6-.2.6-.5l.9-8.5c.1-.3-.2-.6-.5-.7zm4.6 0c-.3-.1-.6.1-.7.5l-1.9 8.5c-.1.3.1.6.5.7.3.1.6-.1.7-.5l1.9-8.5c0-.3-.2-.6-.5-.7z"/><path class="st1" d="M-215.7 388.6h-.2c-2.1 0-2.1 2.5-4.3 2.5-2.1 0-2.1-2.5-4.3-2.5-.3 0-.6.1-.8.1-.3.1-.6.5-.6.8v2.7c0 .9-.4 1.7-.9 2.2-.6.6-1.3.9-2.2.9-1.7 0-3.2-1.5-3.2-3.2v-2.7c0-.5-.4-.9-.9-.9-2.1 0-2.1 2.5-4.3 2.5-2.1 0-2.1-2.5-4.3-2.5-2.1 0-2.1 2.5-4.3 2.5-2.1 0-2.1-2.5-4.3-2.5h-.2c3.4-6.7 10.2-10.6 17.3-10.6 5 0 9.8 1.9 13.4 5.3 1.7 1.6 3.1 3.4 4.1 5.4z"/><path class="st1" d="M-250.3 388.6h.2c1.4 0 1.9 1 2.6 1.8 2.6-6.4 7.3-10.7 12.6-12.3-6.4.6-12.3 4.4-15.4 10.5z"/></svg>