<svg xmlns="http://www.w3.org/2000/svg" viewBox="-269 361 72 72"><path d="M-233 433c19.9 0 36-16.1 36-36s-16.1-36-36-36-36 16.1-36 36 16.1 36 36 36z" fill="#fce5eb"/><path d="M-240.5 382.6c.9-.3 1.9.2 2.5 1 .2.3.5.4.8.3.3-.1.5-.4.5-.7 0-1 .6-1.9 1.5-2.2l.9-.3c1.2-.3 2.4.5 2.7 1.7.1.3.2.6.3 1 .1.5.3 1 .4 1.4.2.6.4 1.3.5 1.9.2.7.4 1.5.6 2.2.2.8.5 1.7.7 2.5.3.9.5 1.8.8 2.7.3.9.5 1.8.8 2.7.3.9.5 1.8.8 2.7.2.9.5 1.7.7 2.6.2.8.5 1.6.7 2.4l.6 2.1c.2.5.3 1.1.5 1.6.1.4.2.8.3 1.1.1.2.1.3.1.5.4-.3.8-.5 1.3-.5 1 0 1.9.6 2.2 1.6.1.3.3.5.6.5h.9c.3 0 .5-.3.6-.6 0-.1-1.6-34.4-1.6-34.4-.1-.3-.3-.5-.6-.5h-.9c-.3 0-.5.3-.6.6-.2 1-1 1.7-2.1 1.8-1 0-1.9-.6-2.2-1.6-.1-.3-.3-.5-.6-.5h-.9c-.3 0-.5.3-.6.6-.2 1-1 1.7-2.1 1.8-1 0-1.9-.6-2.2-1.6-.1-.3-.3-.5-.6-.5h-.9c-.3 0-.5.3-.6.6-.2 1-1 1.7-2.1 1.8-1 0-1.9-.6-2.2-1.6-.1-.3-.3-.5-.6-.5h-1c-.3 0-.5.3-.5.6l.2 5.1.4.1z" fill="#ef7398"/><path d="M-223.7 415.7c0-.1-9.5-33.1-9.5-33.1-.1-.3-.4-.4-.7-.3l-.9.3c-.3.1-.4.4-.4.7 0 1-.6 1.9-1.6 2.2-1 .3-2-.2-2.5-1-.1-.3-.4-.4-.7-.3l-.7.2-.2.1c-.3.1-.4.4-.4.7 0 1-.6 1.9-1.6 2.2-1 .3-2-.2-2.5-1-.1-.3-.4-.4-.7-.3l-.9.3c-.3.1-.4.4-.4.7 0 1-.6 1.9-1.6 2.2-1 .3-2-.2-2.5-1-.1-.3-.4-.4-.7-.3l-1 .3c-.3.1-.4.4-.4.7l9.5 33.2c.1.2.4.3.6.3l1-.3c.3-.1.4-.4.4-.7 0-1 .6-1.9 1.6-2.2 1-.3 2 .2 2.5 1 .1.3.4.4.7.3l.9-.3c.3-.1.4-.4.4-.7 0-1 .6-1.9 1.6-2.2 1-.3 2 .2 2.5 1 .1.3.4.4.7.3l.9-.3c.3-.1.4-.4.4-.7 0-1 .6-1.9 1.6-2.2 1-.3 2 .2 2.5 1 .1.3.4.4.7.3l.9-.3c.4-.2.6-.5.5-.8zm-23.1-20.5c-.6.2-1.2-.2-1.3-.7-.2-.6.2-1.2.7-1.3l7-2 4.3-1.2c.5-.1 1 .1 1.3.5 0 .1.1.1.1.2.2.6-.2 1.2-.7 1.3l-4.8 1.4-6.6 1.8zm5.5 19.1c-.6.2-1.2-.2-1.3-.7-.2-.6.2-1.2.7-1.3l2.4-.7 2.7-.8 2.2-.6 3.9-1.1c.5-.1 1 .1 1.3.5 0 .1.1.1.1.2v.1c.1.5-.2 1.1-.8 1.2l-.8.2-2.1.6-8.3 2.4z" fill="#f7b7ca"/></svg>