<svg xmlns="http://www.w3.org/2000/svg" viewBox="-269 361 72 72"><path d="M-233 433c19.9 0 36-16.1 36-36s-16.1-36-36-36-36 16.1-36 36 16.1 36 36 36z" fill="#f1e7fc"/><path d="M-223.9 411.5c0 .8.3 1.5.9 2.1.6.6 1.3.9 2.1.9s1.5-.3 2.1-.9c.6-.6.9-1.3.9-2.1s-.3-1.5-.9-2.1c-.6-.6-1.3-.9-2.1-.9s-1.5.3-2.1.9c-.6.6-.9 1.3-.9 2.1zm8.5-26.5c-.3-.3-.6-.4-1.1-.4h-28.1c0-.1-.1-.3-.1-.6-.1-.3-.1-.5-.1-.7 0-.2-.1-.4-.2-.6l-.3-.6c-.1-.1-.3-.3-.5-.4-.2-.1-.4-.2-.7-.2h-6c-.4 0-.8.1-1.1.4-.3.3-.4.6-.4 1.1s.1.8.4 1.1c.3.3.6.4 1.1.4h4.8l4.1 19.3c0 .1-.2.4-.5.9s-.5 1-.7 1.4c-.2.4-.3.7-.3.9 0 .4.1.8.4 1.1.3.3.6.4 1.1.4h24c.4 0 .8-.1 1.1-.4.3-.3.4-.6.4-1.1 0-.4-.1-.8-.4-1.1-.3-.3-.6-.4-1.1-.4H-241c.4-.8.6-1.2.6-1.5 0-.2 0-.3-.1-.5 0-.2-.1-.4-.1-.6-.1-.2-.1-.4-.1-.5l24.5-2.9c.4 0 .7-.2 1-.5.3-.3.4-.6.4-1v-12c-.1-.4-.3-.7-.6-1zm-29.5 26.5c0 .8.3 1.5.9 2.1.6.6 1.3.9 2.1.9s1.5-.3 2.1-.9c.6-.6.9-1.3.9-2.1s-.3-1.5-.9-2.1c-.6-.6-1.3-.9-2.1-.9s-1.5.3-2.1.9c-.6.6-.9 1.3-.9 2.1z" fill="#b981f1"/><circle cx="-216.8" cy="384.2" r="4.8" fill="#dbbef8"/></svg>