<svg xmlns="http://www.w3.org/2000/svg" width="72" height="72" fill="none"><path d="M36 72c19.882 0 36-16.118 36-36S55.882 0 36 0 0 16.118 0 36s16.118 36 36 36z" fill="#D7F1F8"/><path d="M24.131 22.683l-3.49 2.742 1.673 2.13 3.49-2.741-1.673-2.13z" fill="#48B0CB"/><path d="M22.643 24.382l2.348-1.844a5.485 5.485 0 00-.137-.166c-.857-.95-2.131-1.222-2.931-.593l-.822.644-.816.644c-.8.627-.837 1.93-.117 2.986.042.06.082.115.128.173l2.347-1.844z" fill="#98D9E9"/><path d="M46.196 24.815l3.492 2.742 1.672-2.13-3.492-2.74-1.672 2.128z" fill="#48B0CB"/><path d="M49.356 24.382l-2.348-1.844c.045-.057.09-.111.138-.166.854-.95 2.13-1.222 2.932-.593l.82.644.815.644c.8.627.84 1.93.118 2.986a2.661 2.661 0 01-.128.173l-2.347-1.844z" fill="#98D9E9"/><path d="M41.497 18.52H30.502v5.23h10.995v-5.23z" fill="#48B0CB"/><path d="M36.001 19.315h7.391a4.814 4.814 0 00-4.816-4.813h-5.153a4.813 4.813 0 00-4.82 4.814h7.398zm18.422 20.209c0 10.177-8.245 18.428-18.422 18.428-10.177 0-18.426-8.25-18.426-18.428 0-10.174 8.25-18.425 18.426-18.425 10.176 0 18.422 8.25 18.422 18.425z" fill="#98D9E9"/><path d="M36 53.097c7.497 0 13.573-6.077 13.573-13.573 0-7.497-6.076-13.574-13.573-13.574-7.496 0-13.573 6.077-13.573 13.574 0 7.496 6.077 13.573 13.573 13.573z" fill="#48B0CB"/><path fill-rule="evenodd" clip-rule="evenodd" d="M35.811 37.7c.252-.432.49-.87.753-1.289a7.01 7.01 0 011.44-1.678c1.579-1.314 3.823-1.198 5.29.164a5.753 5.753 0 011.814 3.374c.202 1.275.126 2.535-.28 3.765-.28.852-.739 1.6-1.418 2.2a3.67 3.67 0 01-2.136.918c-.7.065-1.378-.019-2.028-.298-.622-.27-1.125-.69-1.565-1.195-.569-.648-1.032-1.368-1.463-2.113a2.968 2.968 0 00-.073-.122.89.89 0 01-.057.1c-.392.733-.823 1.435-1.37 2.064-.521.604-1.114 1.12-1.872 1.39-1.35.48-2.63.312-3.794-.525-1.047-.749-1.692-1.788-2.031-3.02-.2-.731-.253-1.475-.226-2.229a7.782 7.782 0 01.335-2.068c.27-.844.694-1.593 1.34-2.208.665-.632 1.46-.97 2.376-1.036 1.298-.093 2.363.387 3.25 1.314.597.62 1.06 1.333 1.483 2.073.081.143.157.286.232.418zm4.946 5.212c.162-.012.326-.019.49-.038 1.162-.145 1.993-.756 2.507-1.8.282-.572.366-1.188.345-1.822-.027-.847-.279-1.61-.834-2.263a2.808 2.808 0 00-3.732-.509c-.496.338-.877.782-1.216 1.27-.555.79-.992 1.642-1.404 2.512-.015.029-.006.084.01.112.212.377.454.73.734 1.06.813.958 1.835 1.466 3.1 1.478zm-9.518-6.727c-.205.019-.409.026-.607.059-1.119.174-1.914.795-2.41 1.802-.272.558-.347 1.163-.33 1.78.03.776.247 1.488.725 2.116a2.82 2.82 0 003.88.629c.46-.325.827-.744 1.153-1.202.57-.803 1.017-1.676 1.436-2.565a.116.116 0 00-.013-.105c-.208-.313-.401-.64-.636-.93-.82-1.01-1.876-1.572-3.198-1.584z" fill="#D7F1F8"/></svg>