<svg xmlns="http://www.w3.org/2000/svg" width="72" height="72" fill="none"><path d="M36 72c19.882 0 36-16.118 36-36S55.882 0 36 0 0 16.118 0 36s16.118 36 36 36z" fill="#D5F6E4"/><path d="M36 38.573s-1.471 9.246-3.096 13.21c-1.626 3.962-3.964 6.096-3.964 6.096s-2.946.509-4.267-1.016c0 0 3.962-3.789 5.793-7.428 1.772-3.527 2.79-7.51 2.994-10.862H36z" fill="#3EC17B"/><path d="M41.92 35.238s7.947 1.308 9.482 6.783c1.536 5.476-.807 7.239-5.85 6.85 0 0-2.13 5.447-5.982 3.94-3.851-1.51-5.277-8.653-5.19-12.424-1.663 3.385-6.233 9.057-10.345 8.613-4.114-.443-3.482-6.26-3.482-6.26-4.65-1.988-5.912-4.635-2.017-8.778 3.893-4.145 11.542-1.628 11.542-1.628s-7.944-1.308-9.48-6.784c-1.539-5.477.805-7.238 5.847-6.85 0 0 2.131-5.447 5.983-3.938 3.851 1.508 5.278 8.653 5.188 12.422 1.666-3.384 6.237-9.057 10.35-8.614 4.112.444 3.48 6.261 3.48 6.261 4.65 1.988 5.913 4.633 2.017 8.779-3.893 4.143-11.542 1.628-11.542 1.628z" fill="#92E3B8"/></svg>