<svg xmlns="http://www.w3.org/2000/svg" viewBox="-269 361 72 72"><path d="M-233 433c19.9 0 36-16.1 36-36s-16.1-36-36-36-36 16.1-36 36 16.1 36 36 36z" fill="#d3f4ed"/><path d="M-215.7 394.4c-.4-5-2.2-10.9-5.2-12-2-.8-5.2 0-8.2 1.9-.2.1-.5.3-.7.5-2.6 1.9-7.2 6.4-8.3 14.7-.2-.7-.3-1.5-.4-2.3-.1-1.8.1-3.2.2-4.2.1-.5.1-.9.1-1.1-.1-.7-.5-1.3-1.1-1.5-.6-.2-1.3.1-1.7.7-3.5 5.1-3.4 9.6-2.7 12.5.9 3.9 3.5 7.3 7.1 9.2 2 1.1 4.3 1.7 6.6 1.7h.2c2.3 0 4.6-.6 6.6-1.7 5.4-3.1 8.2-10 7.5-18.4z" fill="#39bca1"/><path d="M-218.8 392.7c-.4-5.5-2.4-12.1-5.8-13.4-2.2-.8-5.8 0-9.2 2.1-.3.1-.5.3-.8.6-2.9 2.1-8.1 7.1-9.3 16.4-.3-.8-.4-1.7-.4-2.5-.1-2 .1-3.6.3-4.7.1-.6.1-1 .1-1.2-.1-.8-.5-1.5-1.2-1.7-.7-.2-1.4.1-1.9.8-3.9 5.7-3.8 10.7-3 13.9 1 4.3 3.9 8.1 7.9 10.3 2.3 1.2 4.8 1.8 7.4 1.8h.2c2.6 0 5.1-.7 7.4-1.9 5.9-3.5 9.1-11.1 8.3-20.5z" fill="#8edfcf"/></svg>