<svg xmlns="http://www.w3.org/2000/svg" viewBox="-269 361 72 72"><path d="M-233 433c19.9 0 36-16.1 36-36s-16.1-36-36-36-36 16.1-36 36 16.1 36 36 36z" fill="#fce5eb"/><path d="M-217.4 379.2c-1.5 0-3.2.6-4.8 1.8-.3.2-.6.2-.9 0-1.7-1.3-3.3-1.9-4.8-1.9-2.7 0-4.7 1.9-5.2 4.8-.9 4.6 2 10.8 10.5 14.1 6.1-2.5 11.7-7.8 10.5-14.1-.6-2.9-2.6-4.7-5.3-4.7z" fill="#ef7398"/><path d="M-248.8 402.7v5.1c0 1.5 1.2 2.8 2.8 2.8h4.7c1.4 0 2.6.9 2.9 2.2l1.2 4.7h13.1c-.2-1-.6-2.6-1-4.5-.7-4.1-1-7.5-.8-10 .1-1 .6-2.7 1.2-4.2-8-3.8-10.7-10.2-9.8-15.1.5-2.9 2.3-4.9 4.6-5.7-1.7-.9-3.7-1.4-5.6-1.4h-.6c-7.9 0-14.5 6.2-14.9 14.1v3.5l-3 7.8h4.6c.3 0 .6.3.6.7z" fill="#f7b7ca"/></svg>