<svg xmlns="http://www.w3.org/2000/svg" width="72" height="72" fill="none"><path d="M36 72c19.882 0 36-16.118 36-36S55.882 0 36 0 0 16.118 0 36s16.118 36 36 36z" fill="#F1E7FC"/><path d="M35.958 57.945h14.511a4.015 4.015 0 004.012-4.014v-19.21c0-2.215-18.522-17.586-18.522-17.586S17.435 32.506 17.435 34.721v19.21a4.015 4.015 0 004.012 4.014h14.511z" fill="#DBBEF8"/><path d="M36 18.986l18.1 15.861 1.724 1.492s.701-.652.916-.897c.658-.744.658-2.191.658-2.191L36 14.499 14.601 33.25s0 1.448.659 2.191c.215.246.915.897.915.897l1.724-1.492L36 18.986zm18.412 35.628c-.006-.038-.006-.072-.008-.109-.314-2.706-3.197-3.72-7.829-3.72-4.628 0-7.512 1.014-7.828 3.72-.136 1.183-.063 2.11-.021 3.44h11.743a4.006 4.006 0 003.943-3.331z" fill="#B981F1"/><path d="M52.713 41.788a6.14 6.14 0 01-6.138 6.145 6.14 6.14 0 01-6.137-6.145 6.141 6.141 0 016.137-6.148 6.14 6.14 0 016.138 6.148zM33.147 54.505c-.313-2.706-3.195-3.72-7.826-3.72-4.629 0-7.514 1.014-7.828 3.72v.005c.282 1.94 1.935 3.436 3.953 3.436h11.722c.042-1.331.116-2.258-.021-3.441zm-1.688-12.717a6.143 6.143 0 01-6.138 6.145 6.143 6.143 0 01-6.137-6.145c0-3.396 2.75-6.148 6.137-6.148a6.144 6.144 0 016.138 6.148z" fill="#B981F1"/><path d="M42.408 39.104c0 3.391-2.75 6.145-6.137 6.145a6.145 6.145 0 01-6.139-6.145 6.143 6.143 0 016.139-6.147 6.143 6.143 0 016.137 6.147zM28.743 57.945c-.212-1.156-.478-4.59-.297-6.124.314-2.703 3.197-3.724 7.826-3.724 4.63 0 7.51 1.021 7.826 3.724.178 1.534-.089 4.968-.299 6.124H28.743z" fill="#F1E7FC"/></svg>