<svg xmlns="http://www.w3.org/2000/svg" viewBox="-269 360 73 73"><path d="M-232.5 432.5c19.9 0 36-16.1 36-36s-16.1-36-36-36-36 16.1-36 36 16.1 36 36 36z" fill="#ffefca"/><path d="M-218.8 388.9c0 3.6-1.4 7-4 9.4-1.7 1.6-2.6 3.9-2.6 6.2v1.9h-13.2v-1.9c0-2.3-.9-4.5-2.5-6.2-2.9-2.7-4.4-6.6-4-10.6.6-7.1 6.6-12.4 13.7-12.1 7 .4 12.6 6.3 12.6 13.3z" fill="#ffe1a6"/><path d="M-236.4 415.3h8.8c0 1.6-1.3 2.9-2.9 2.9h-2.9c-1.7.1-3-1.3-3-2.9z" fill="#fff"/><path d="M-226.1 410.9c1.2 0 2.2 1 2.2 2.2s-1 2.2-2.2 2.2h-11.7c-1.2 0-2.2-1-2.2-2.2s1-2.2 2.2-2.2h11.7zm1.4-4.4c1.2 0 2.2 1 2.2 2.2s-1 2.2-2.2 2.2h-14.7c-1.2 0-2.2-1-2.2-2.2s1-2.2 2.2-2.2h14.7z" fill="#fccd7a"/></svg>