<svg version="1.1" id="Calque_1" xmlns="http://www.w3.org/2000/svg" x="0" y="0" viewBox="-269 361 72 72" xml:space="preserve"><style>.st0{fill:#d7f1f8}</style><path class="st0" d="M-233 433c19.9 0 36-16.1 36-36s-16.1-36-36-36-36 16.1-36 36 16.1 36 36 36z"/><path d="M-218.7 393.3c0 10.3-11.6 19.8-11.6 19.8-.7.6-1.8.6-2.5 0 0 0-11.6-9.5-11.6-19.8 0-7.1 5.7-12.8 12.8-12.8s12.9 5.7 12.9 12.8z" fill="#48b0cb"/><path class="st0" d="M-231.5 399.8c-3.6 0-6.4-2.9-6.4-6.4 0-3.6 2.9-6.4 6.4-6.4s6.4 2.9 6.4 6.4-2.9 6.4-6.4 6.4z"/><path d="M-221.7 393.3c0 10.3-11.6 19.8-11.6 19.8-.7.6-1.8.6-2.5 0 0 0-11.6-9.5-11.6-19.8 0-7.1 5.7-12.8 12.8-12.8s12.9 5.7 12.9 12.8z" fill="#98d9e9"/><path class="st0" d="M-234.5 399.8c-3.6 0-6.4-2.9-6.4-6.4 0-3.6 2.9-6.4 6.4-6.4 3.6 0 6.4 2.9 6.4 6.4s-2.8 6.4-6.4 6.4z"/></svg>