<svg xmlns="http://www.w3.org/2000/svg" xmlns:xlink="http://www.w3.org/1999/xlink" viewBox="-269 361 72 72"><defs><circle id="a" cx="-233" cy="397" r="36"/></defs><clipPath id="b"><use xlink:href="#a" overflow="visible"/></clipPath><path d="M-197 397c0-19.9-16.1-36-36-36s-36 16.1-36 36 16.1 36 36 36 36-16.1 36-36z" clip-path="url(#b)" fill="#ffefca"/><path d="M-242.8 390.6s8.2-.9 8.7 3.3c.6 4.2-.5 10.5 1 12 1.6 1.5 1.8 8.3 1.8 8.3l11 22h30.4l8.6-28.8-39.7-28.9-14.6.7-5.9 6.4-1.3 5z" clip-path="url(#b)" fill="#ffe1a6"/><path d="M-247.2 387.4c0-1.8.6-3.6 1.7-5.5 1.2-1.8 2.8-3.4 5-4.6 2.2-1.2 4.8-1.8 7.7-1.8 2.7 0 5.2.5 7.3 1.5 2.1 1 3.7 2.4 4.9 4.1 1.1 1.7 1.7 3.6 1.7 5.7 0 1.6-.3 3-1 4.2-.7 1.2-1.4 2.3-2.3 3.1-.9.9-2.5 2.4-4.8 4.4-.6.6-1.2 1.1-1.5 1.5-.4.4-.7.8-.9 1.2-.2.4-.3.7-.4 1.1-.1.4-.3 1-.5 1.9-.4 2-1.5 2.9-3.4 2.9-1 0-1.8-.3-2.5-1-.7-.6-1-1.6-1-2.9 0-1.6.2-3 .7-4.1.5-1.2 1.1-2.2 2-3.1.8-.9 1.9-1.9 3.3-3.1 1.2-1.1 2.1-1.9 2.6-2.4s1-1.1 1.4-1.8c.4-.7.6-1.4.6-2.2 0-1.5-.6-2.8-1.7-3.8s-2.6-1.6-4.3-1.6c-2.1 0-3.6.5-4.6 1.6-1 1-1.8 2.6-2.5 4.6-.6 2.1-1.9 3.2-3.7 3.2-1.1 0-2-.4-2.7-1.1-.7-.3-1.1-1.1-1.1-2zm13.9 31c-1.2 0-2.2-.4-3-1.1-.9-.7-1.3-1.8-1.3-3.1 0-1.2.4-2.2 1.2-3 .8-.8 1.9-1.2 3.1-1.2 1.2 0 2.2.4 3 1.2.8.8 1.2 1.8 1.2 3 0 1.3-.4 2.4-1.3 3.1-.8.8-1.8 1.1-2.9 1.1z" clip-path="url(#b)" fill="#fff"/></svg>