<svg xmlns="http://www.w3.org/2000/svg" viewBox="-269 361 72 72"><path d="M-233 433c19.9 0 36-16.1 36-36s-16.1-36-36-36-36 16.1-36 36 16.1 36 36 36z" fill="#f1e7fc"/><path d="M-217.1 392.7l-.2-.1-.7-1.6.1-.2c2-4.6 1.9-4.7 1.5-5l-2.7-2.6c-.1-.1-.3-.2-.5-.2s-.6 0-4.6 1.8l-.2.1-1.6-.7-.1-.2c-1.9-4.6-2.1-4.6-2.5-4.6h-3.8c-.5 0-.7 0-2.4 4.6l-.1.2-1.6.7-.2-.1c-2.7-1.1-4.2-1.7-4.6-1.7-.2 0-.4.1-.5.2l-2.7 2.6c-.3.3-.5.5 1.6 4.9l.1.2-.7 1.6-.2.1c-4.7 1.8-4.7 2-4.7 2.5v3.7c0 .5 0 .7 4.7 2.4l.2.1.7 1.6-.1.2c-2 4.6-1.9 4.7-1.5 5l2.7 2.6c.1.1.3.2.5.2.1 0 .6 0 4.6-1.8l.2-.1 1.6.7.1.2c1.9 4.6 2.1 4.6 2.5 4.6h3.8c.5 0 .7 0 2.4-4.6l.1-.2 1.6-.7.2.1c2.7 1.1 4.2 1.7 4.6 1.7.2 0 .4-.1.5-.2l2.7-2.6c.3-.3.5-.5-1.6-4.9l-.1-.2.7-1.6.2-.1c4.7-1.8 4.7-2 4.7-2.5v-3.7c0-.5 0-.7-4.7-2.4zm-13.2 10.3c-3.4 0-6.1-2.7-6.1-6s2.7-6 6.1-6c3.4 0 6.1 2.7 6.1 6 .1 3.3-2.7 6-6.1 6z" fill="#dbbef8"/><path d="M-219.9 392.7l-.2-.1-.7-1.6.1-.2c2-4.6 1.9-4.7 1.5-5l-2.7-2.6c-.1-.1-.3-.2-.5-.2s-.6 0-4.6 1.8l-.2.1-1.6-.7-.1-.2c-1.9-4.6-2.1-4.6-2.5-4.6h-3.8c-.5 0-.7 0-2.4 4.6l-.1.2-1.6.7-.2-.1c-2.7-1.1-4.2-1.7-4.6-1.7-.2 0-.4.1-.5.2l-2.7 2.6c-.3.3-.5.5 1.6 4.9l.1.2-.7 1.6-.2.1c-4.7 1.8-4.7 2-4.7 2.5v3.7c0 .5 0 .7 4.7 2.4l.2.1.7 1.6-.1.2c-2 4.6-1.9 4.7-1.5 5l2.7 2.6c.1.1.3.2.5.2.1 0 .6 0 4.6-1.8l.2-.1 1.6.7.1.2c1.9 4.6 2.1 4.6 2.5 4.6h3.8c.5 0 .7 0 2.4-4.6l.1-.2 1.6-.7.2.1c2.7 1.1 4.2 1.7 4.6 1.7.2 0 .4-.1.5-.2l2.7-2.6c.3-.3.5-.5-1.6-4.9l-.1-.2.7-1.6.2-.1c4.7-1.8 4.7-2 4.7-2.5v-3.7c0-.5 0-.7-4.7-2.4zM-233 403c-3.4 0-6.1-2.7-6.1-6s2.7-6 6.1-6c3.4 0 6.1 2.7 6.1 6s-2.7 6-6.1 6z" fill="#b981f1"/></svg>