<svg xmlns="http://www.w3.org/2000/svg" width="72" height="72" fill="none"><path d="M35.998 71.996c19.881 0 35.998-16.117 35.998-35.998C71.996 16.117 55.879 0 35.998 0 16.117 0 0 16.117 0 35.998c0 19.881 16.117 35.998 35.998 35.998z" fill="#D3F4ED"/><path d="M16.429 33.223c-.229 1.42.42 2.932 2.287 5.765 1.416 2.151 5.238 8.13 6.316 8.303l28.595 4.642a1.978 1.978 0 002.267-1.634l1.687-10.396 1.688-10.397a1.978 1.978 0 00-1.633-2.267L29.038 22.6c-1.076-.175-6.591 4.287-8.618 5.88-2.666 2.096-3.759 3.326-3.991 4.743z" fill="#39BCA1"/><path d="M11.662 32.543c0 1.437.882 2.827 3.179 5.324 1.743 1.896 6.475 7.185 7.565 7.185h28.969a1.977 1.977 0 001.976-1.977V22.013a1.976 1.976 0 00-1.976-1.976H22.406c-1.09 0-5.822 5.287-7.565 7.184-2.297 2.497-3.179 3.886-3.179 5.322z" fill="#8EDFCF"/><path d="M18.403 35.577a3.034 3.034 0 100-6.068 3.034 3.034 0 000 6.068z" fill="#39BCA1"/><path d="M40.967 26.815s-2.896-.94-5.621-.113c-2.38.72-4.626 2.916-4.696 6.54-.147 7.776 8.076 7.33 11.813 5.534M27.666 31.75h10.238m-10.238 3.051h10.238" stroke="#39BCA1" stroke-width="1.969" stroke-miterlimit="10" stroke-linecap="round" stroke-linejoin="round"/></svg>