<svg xmlns="http://www.w3.org/2000/svg" viewBox="-269 361 72 72"><circle cx="-233" cy="397" r="36" fill="#cb9fff"/><path d="M-214.9 385l-3.3.9c-8 1.7-18.7-2.9-23.3 4.6-3.8 6-5.1 13.5-9.4 18.8l23.3 23.3c15.5-2.4 27.8-14.6 30.2-30.2l-17.5-17.4z" fill="#b27efc"/><path d="M-221 382.4h-24c-4.7 0-8.6 3.8-8.6 8.6v12c0 4.7 3.8 8.6 8.6 8.6h24.1c4.7 0 8.6-3.8 8.6-8.6v-12c-.1-4.7-3.9-8.6-8.7-8.6zm-5.7 15.2L-238 403c-.3.1-.6-.1-.6-.4v-11.1c0-.3.4-.6.7-.4l11.3 5.7c.2.1.2.6-.1.8z" fill="#fff"/><path d="M-221 382.4h-12.3v11.1l6.5 3.3c.3.2.3.7 0 .8l-6.5 3.1v10.9h12.3c4.7 0 8.6-3.8 8.6-8.6v-12c0-4.7-3.8-8.6-8.6-8.6z" fill="#f7f7f7"/></svg>