<svg version="1.1" id="Layer_1" xmlns="http://www.w3.org/2000/svg" x="0" y="0" viewBox="0 0 450 450" xml:space="preserve"><style>.st0{fill:#1a2e35}.st1{opacity:.2;fill:#fff;enable-background:new}.st2{fill:#007cff}.st3,.st4{enable-background:new}.st3{opacity:.6;fill:#fff}.st4{opacity:.2}.st5{fill:#fcc1bb}.st6{opacity:.1;fill:#fff;enable-background:new}.st8{fill:#cc7a63}.st10{fill:none;stroke:#1a2e35;stroke-width:.708;stroke-linecap:round;stroke-linejoin:round;stroke-miterlimit:10}.st12{opacity:.1;enable-background:new}.st13{fill:#fd897b}</style><g id="_x3C_Group_x3E__66_"><path class="st0" d="M192.8 76.7c-.1-.5-.5-.9-1-1l-27.8-3c-.4-.1-1.7.8-1.7 1.3l3.3 26.2c.1.6.5 1 1 1l28.1 2.2c.4.1 1.7-.8 1.6-1.3l-3.5-25.4z"/><path class="st1" d="M164 72.7l27.8 3c.5.1.9.5 1 1l3.6 25.4c.1.5-.3.9-.8.8l-28.1-2.2c-.6-.1-1-.5-1-1l-3.3-26.2c-.1-.5.3-.9.8-.8z"/><path class="st2" d="M167.6 99.5l-3.2-25.6 27.3 3 3.5 24.8z"/><path class="st3" d="M167.6 99.5l-3.2-25.6 27.3 3 3.5 24.8z"/><path class="st4" d="M172.2 78.7c.4 1.8-.5 3.4-2 3.7-1.4.3-2.8-.9-3.2-2.7-.4-1.8.5-3.4 2-3.7 1.4-.2 2.9 1 3.2 2.7zm5 13.4l7.4.7-.8-7.1-7.5-.8zm7.5 1.7l-7.4-.7.8 5.7 7.3.6zm1 .1l.7 5.6 7 .6-.8-5.4zm-.2-1l6.9.7-1.1-7.1-6.7-.7zm-9.1.1l-7.4-.8.6 6 7.4.6zm-.1-1l-.9-7.2-7.4-.8.9 7.2zm9.5-10.1l3.8.5-.4-1.7-3.8-.5zm-7.1-2.5l-4.3-.5.3 1.7 4.2.5zm1.4 1.8l4.2.5-.3-1.7-4-.4z"/><path class="st5" d="M206.7 92.3s-9.9-5.5-11.3-6.7c-1.4-1.1-14.6-1.3-14.3 0 .3 1.3 5.2 9.1 6.3 9.9 1.2.7 9 0 9 0l9 3.6 1.3-6.8z"/><path class="st0" d="M256.7 91.4c8.4 4 4 38.5-15.7 46.4-19.6 7.9-39.4-23.2-39.4-23.2l6.1-16s18 14.9 25 11.5c7.1-3.5 17.6-21.7 24-18.7z"/><path class="st6" d="M256.7 91.4c8.4 4 4 38.5-15.7 46.4-19.6 7.9-39.4-23.2-39.4-23.2l6.1-16s18 14.9 25 11.5c7.1-3.5 17.6-21.7 24-18.7z"/><path class="st5" d="M203.9 395.8l-10.8 1.1-.5-6.2-1.5-17 10.8-1.2 1.6 18.8zm53.7-1.4h-10.4l-.1-2.4v-.3l-.5-15.1v-.3l-.3-5.8h10.5z"/><path class="st4" d="M201.9 372.5l1.6 18.8-10.9-.6-1.5-17zm55.7 20.6l-10.5-1.4-.5-14.6 10.4.9.6 14.6z"/><path class="st2" d="M245.8 393.8h12.7c.4 0 .8.3.9.7l2.1 9.3c.2.8-.4 1.7-1.2 1.8-.1 0-.2.1-.4.1-4.1-.1-7.1-.3-12.2-.3-3.2 0-12.8.3-17.1.3-4.4 0-5-4.3-3.2-4.8 8.1-1.8 14.1-4.2 16.7-6.5.4-.4 1-.6 1.7-.6zm-53.8-.4h12.7c.4 0 .8.3.9.7l2.1 9.3c.2.8-.4 1.7-1.2 1.8-.1 0-.2.1-.4.1-4.1-.1-7.1-.3-12.2-.3-3.2 0-12.8.3-17.1.3-4.4 0-5-4.3-3.2-4.8 8.1-1.8 14.1-4.2 16.7-6.5.4-.3 1-.6 1.7-.6z"/><path class="st0" d="M190.1 389.1h15.3s-1.2-114 15.3-158.5c1.2 14.7 2.5 30 3.8 42.7.8 7.9 1.6 10.9 2.4 16.1 4.8 33.2 17 101.1 17 101.1H259s-1.8-64.4-3.6-97.1c-2-35.4-2.8-109.5-2.9-116.2H197c-5.2 27.8-18.7 121.6-6.9 211.9z"/><path class="st5" d="M217.2 63.8c.2.5.3 1 .5 1.5 1 2.9 2.9 5.2 5.2 6.9.6.4 1.2.8 1.9 1.2 3.5 1.8 7.6 2.1 11.3.5 1.5-.6 3-1.7 4.3-3 5.2-5.3 5.1-11.4 5.7-21.7.2-2.2-.2-4.4-1-6.5-3-7.2-11.3-10.6-18.5-7.6-10.2 4-11.6 19.4-9.4 28.7z"/><path class="st4" d="M222.8 72.2c.6.4 1.2.8 1.9 1.2 3.5 1.8 7.6 2.1 11.3.5-.7-2-1.9-3.5-1.9-3.5s-6.1-1-11.3 1.8z"/><path class="st5" d="M243.6 85.6c-5.1 4.6-17.6 2.9-17.6 2.9s-7.8-2.1-6.1-4.5c4.6-.8 6.8-2.9 7.7-5.6.5-1.6.6-3.4.5-5.2-.1-1-.2-2-.4-2.9l15.4-11.4c-2 7.3-4.5 21.2.5 26.7z"/><path class="st0" d="M222.8 54.4l-2.2.8 1.1-4.5s-3.3-4.9 0-9.3c0 0-8.3-3.7-2-12.9 0 0 2.3 5.4 8.6 2.7 3.4-1.4 13.9-1.6 14.4 2.7 0 0 7.6-.1 8.4 12.9S243 67.2 243 67.2s-9.1 2.2-13.6-1.5c-4.5-3.6-6.6-11.3-6.6-11.3z"/><path class="st5" d="M228.7 55.1c-.6 2.3-1.9 3.9-3.5 4.6-2.1.9-3.5-2.1-3.2-5.2.3-2.7 1.7-6.6 4-6.1s3.4 4 2.7 6.7z"/><path class="st4" d="M220.7 230.5c1.2 14.7 2.5 30 3.8 42.8 1.9-18.4 4.2-31.4 4.2-31.4s2.2-1.8 8.1-11.3c5.9-9.5 0-27.2 0-27.2.2 16.3-16.1 27.1-16.1 27.1z"/><path class="st2" d="M188.4 384.8l.8 4.3h18v-4zm53.7 1.6l1.7 4H259l1-4z"/><path class="st0" d="M206.7 84.8s13.8-3.3 28.9-.6 21 7.1 21 7.1l7.8 118.6s-40.4 9.8-74.3 0c0 .1 3.2-109.8 16.6-125.1z"/><path class="st1" d="M264.5 210s-40.4 9.8-74.3 0c0 0 .1-1.3.2-3.7.3-8.8 1.3-32.3 3.5-56.5.1-1 .2-2.1.3-3.2 2.5-27.4 6.6-54.8 12.8-61.9 0 0 13.8-3.3 28.9-.6 15.1 2.7 21 7.1 21 7.1l3.6 54.6.3 4.2 3.7 55.8v4.2z"/><path class="st4" d="M260.5 150.1c-7.4-2.1-26.4-5.3-66.8-.3.1-1 .2-2.1.3-3.2 9.5-1.5 43.1-6.4 66.3-.7l.2 4.2zm4 59.9s-40.4 9.8-74.3 0c0 0 .1-1.3.2-3.7 16.9 2.5 50 4.5 73.9-.5l.2 4.2z"/><path class="st2" d="M216.2 83.2s6-8.3 23.2-8.3c17.2-.1 17 13.3 11.7 22.2-5.4 9-34.9-13.9-34.9-13.9z"/><path class="st5" d="M166.1 110l-1.7-9.6s4-6.1 3.1-7.4c-.9-1.3-4.3-12.5-4.3-12.5s-8.5 8.6-7.9 10.9c.6 2.3 2.9 6.5 2.9 6.5l.3 19.2 7.6-7.1z"/><path class="st2" d="M167.5 110l-1.8-7.1-11.8 10 4.5 10z"/><path class="st0" d="M206.7 84.8c-4.1 1.2-25.1 39.4-29.8 39.4-3.7 0-10.4-19.7-10.4-19.7l-11.2 13.2s1.5 32.9 19.8 33.8c18.4.9 35.6-30.3 35.6-30.3s2.9-9 1.1-22.4c-1.3-10.4-5.1-14-5.1-14z"/><path class="st6" d="M206.7 84.8c-4.1 1.2-25.1 39.4-29.8 39.4-3.7 0-10.4-19.7-10.4-19.7l-11.2 13.2s1.5 32.9 19.8 33.8c18.4.9 35.6-30.3 35.6-30.3s2.9-9 1.1-22.4c-1.3-10.4-5.1-14-5.1-14z"/><path class="st2" d="M183.7 40.1H170c-2.1 0-3.7 1.7-3.7 3.7v10.7c0 2.1 1.7 3.7 3.7 3.7h5.1l1.8 4.4 1.8-4.4h5.1c2.1 0 3.7-1.7 3.7-3.7V43.9c0-2.1-1.7-3.8-3.8-3.8z"/><path class="st3" d="M171.7 45.5c1.3-2.2 3.9-1.3 5.2.4 1.3-1.7 3.9-2.5 5.2-.3 2.2 3.7-2.5 7-4.6 8.3-.3.2-.5.3-.6.4-.2-.1-.4-.2-.6-.4-2.3-1.3-6.9-4.7-4.6-8.4z"/><path class="st2" d="M154.7 64.5h-6.9c-1 0-1.9.8-1.9 1.9v5.4c0 1 .8 1.9 1.9 1.9h2.5l.9 2.2.9-2.2h2.5c1 0 1.9-.8 1.9-1.9v-5.4c.1-1-.8-1.9-1.8-1.9z"/><path class="st3" d="M148.7 67.2c.7-1.1 2-.6 2.6.2.7-.8 2-1.2 2.6-.2 1.1 1.9-1.2 3.5-2.3 4.1-.1.1-.2.2-.3.2-.1-.1-.2-.1-.3-.2-1.2-.6-3.5-2.3-2.3-4.1z"/><path d="M245.8 393.8h12.7c.4 0 .8.3.9.7l2.1 9.3c.2.8-.4 1.7-1.2 1.8-.1 0-.2.1-.4.1-4.1-.1-7.1-.3-12.2-.3-3.2 0-12.8.3-17.1.3-4.4 0-5-4.3-3.2-4.8 8.1-1.8 14.1-4.2 16.7-6.5.4-.4 1-.6 1.7-.6zm-53.8-.4h12.7c.4 0 .8.3.9.7l2.1 9.3c.2.8-.4 1.7-1.2 1.8-.1 0-.2.1-.4.1-4.1-.1-7.1-.3-12.2-.3-3.2 0-12.8.3-17.1.3-4.4 0-5-4.3-3.2-4.8 8.1-1.8 14.1-4.2 16.7-6.5.4-.3 1-.6 1.7-.6z" opacity=".3" fill="#fff"/></g><path class="st8" d="M350 304.6c-5.8 14.3-21.2 35.4-35.5 53.4-1.2 1.5-2.5 3.1-3.7 4.6-4.1 5.1-8 9.9-11.6 14-1.8 2.1-3.6 4-5.2 5.8-5.9 6.4-8.7 10.3-8.7 10.3l-5.7-3.4s5.5-8.6 12.8-20.3c1.5-2.5 3.2-5.1 4.9-7.8 4.3-6.9 8.9-14.5 13.4-21.8.8-1.4 1.7-2.8 2.5-4.2 8.3-13.7 15.6-26.2 18.3-31.7.2-.4.4-.8.5-1.1 1.4-3.4-2.5-16.3-6.9-28.5-.3-.9-.7-1.9-1-2.7-4.2-11.4-8.4-21.4-8.4-21.4l11.7-19.8 4.3-7.3s2.3 6.4 5.4 15.5c2.1 6.2 4.5 13.7 6.9 21.4.3.8.5 1.5.7 2.4 3.5 11.7 6.5 23.4 7.6 31.4.4 3-.5 6.7-2.3 11.2z"/><path class="st4" d="M314.8 358c-7.5 9.5-14.8 18.1-20.2 24.4-.8-3.9-1.5-8.4-2.2-13.4 6.2-10 13.8-22.4 20.8-33.8 0 6 .2 15 1.6 22.8z"/><path class="st8" d="M311 406.5l-6.8.9s-2.6-12.9-5.1-30.8c-.7-4.9-1.3-10-1.9-15.4-1.4-13.3-2.5-27.8-2.4-41.4 0 0-.7-2.6-1.9-6.9-1.8-7.3-4.6-19.5-6.6-32.9 0-.1 0-.2-.1-.3-2.4-16.2-3.5-34.1-.4-47.6l23.7 10.6.4 28.6.1 6.9.3 24.1.1 5.5.2 31.7.2 23.2.2 43.8z"/><path class="st4" d="M309.5 242.7l.4 28.6c-7.2 4.9-17.1 7.2-23.7 8.4-2.4-16.2-3.5-34.1-.4-47.6l23.7 10.6zm35.2 19.4c-6.1 6.8-16.1 8.6-20.6 9-4.2-11.4-8.4-21.4-8.4-21.4l11.7-19.8c3.2 2.5 6.6 5.3 9.7 8.3 2.1 6.2 4.5 13.7 6.9 21.4.2.9.4 1.7.7 2.5z"/><path class="st2" d="M326.2 134.8c4.5.2 23.3 25.5 23.3 25.5l7-9.1s10.7 20.9 5.4 30.8c-5.3 9.9-33.4-17.2-33.4-17.2l-2.3-30z"/><path class="st4" d="M326.2 134.8l1.9 20.1.5 9.9s4.6 4.5 10.4 9.1c8.6 6.8 19.8 14 22.9 8.2 5.3-10-5.4-30.8-5.4-30.8l-7 9.1-.1-.1c-1-1.7-18.8-25.3-23.2-25.5z"/><path class="st4" d="M328.1 154.9l.5 9.9s4.6 4.5 10.4 9.1c.6-11.8-10.4-29-10.4-29l-.5 10zm21.4 5.3l-1 1.9 2.9 11.4s-8.1-7.3-2.9-14.5l1 1.2z"/><path class="st2" d="M327 197.9l-37.9 2.9s-.5-22.6-3.5-34.4c-1-3.8-2.2-8.1-3.8-13.1-.7-2.1-1.4-4.3-2.2-6.7-.7-2.2-1.5-4.5-2.4-7 5.2-1.7 10.4-2.9 15.8-3.8 5.6-1 11.4-1.6 17.1-1.8 7.4-.1 16 .8 16 .8s1.2.3 2 8.2c.8 7.3.5 28-1.1 54.9z"/><path class="st4" d="M327 197.9l-37.9 2.9s0-.5-.1-1.3c-.2-5-.9-23-3.5-33-.7-2.7-1.5-5.7-2.5-9-.4-1.3-.8-2.7-1.2-4.1-.7-2.1-1.4-4.3-2.2-6.7-.7-2.2-1.5-4.5-2.4-7 2.1-.7 4.1-1.2 6.2-1.8 3.2-.8 6.4-1.5 9.6-2 5.6-1 11.4-1.6 17.1-1.8 4.8-.1 10 .3 13.1.6 1.7.2 2.8.3 2.8.3s1.2.3 2 8.2c.9 7.1.6 27.8-1 54.7z"/><path class="st0" d="M280 385.6c.7-.5 6.6 8.3 6.6 8.3s-1.3 9.2 1.3 15.1-2.5 5.4-6.8-.2c-4.3-5.6-7.6-9.9-10.6-13.9-2.9-3.9 2.4-4 9.5-9.3z"/><path class="st2" d="M288.7 400.6c-1.3-.3-2.2-4.1-2.4-4.9v-.1c0-.1 0-.1.1-.1 0-.1.1-.1.1-.1.1 0 .1-.1.1-.1.1-.1 2.6-.8 4-.1.4.3.7.6.8 1.1.1.5 0 .9-.3 1.1-.5.3-1.3.1-2.3-.4.6.7 1.1 1.4 1.2 2.1.1.4-.1.6-.2.9-.3.4-.6.5-.9.5-.1.1-.2.1-.2.1zm.1-.6c.1 0 .2.1.5-.3.1-.1.2-.3.1-.5-.1-.9-1.4-2.2-2.4-2.9.4 1.7 1.2 3.5 1.8 3.7zm-1.6-4.3c1.4.9 3 1.6 3.4 1.3.1-.1.1-.4.1-.5-.1-.3-.3-.6-.5-.7-.4-.2-.8-.3-1.3-.3-.6 0-1.2.1-1.7.2z"/><path class="st0" d="M301.8 403c0-.9 10.6-.2 10.6-.2s6.5 6.6 12.9 8.1c6.3 1.5 2.8 5.3-4.3 5.3h-17.5c-5 0-1.9-4.3-1.7-13.2z"/><path class="st2" d="M313.6 404.2c-.1 0-.1-.1-.1-.1l-.1-.1v-.2c.1-.1.9-2.6 2.4-3.2.5-.2.9-.2 1.4.1.5.2.7.5.7.9-.1.6-.8 1.1-1.7 1.5.9-.1 1.8-.1 2.4.3.3.2.5.4.6.7.2.6-.1 1-.3 1.1s-.6.3-.9.3c-1.5 0-3.8-1.1-4.4-1.3zm1-.2c1.5.7 3.5 1.2 4 .8.1-.1.2-.2.1-.6-.1-.2-.2-.3-.3-.4-.3-.2-.7-.2-1.2-.2-.9.1-1.9.3-2.6.4zm1.4-2.8c-.8.4-1.5 1.5-1.8 2.3 1.5-.6 3.1-1.4 3.1-1.9 0-.2-.3-.3-.4-.4-.2-.1-.3-.1-.5-.1 0 0-.2 0-.4.1z"/><path class="st8" d="M307.2 142.4c-9.4-1.2-12.2-5.2-12.2-5.2 3.8-3.6 3.2-9 2.2-12.3-.5-1.9-1.1-3.1-1.1-3.1l11.3 2.1c-.3 1.9-.4 3.5-.4 4.8 0 1.4.1 2.6.3 3.5.8 3.4 2.7 3.4 2.7 3.4 1.8 3.8-2.8 6.8-2.8 6.8z"/><path class="st4" d="M306.8 128.7c0 1.4.1 2.6.3 3.5-4.5-.6-7.9-4.2-10-7.3-.5-1.9-1.1-3.1-1.1-3.1l11.3 2.1c-.3 1.9-.5 3.5-.5 4.8z"/><path class="st0" d="M320.6 102.6s4.7-1.3 3.7-4.6-2.7-3.4-2.7-3.4 2.8-4 .9-8.4-7-3.2-7-3.2.4-4.8-4.1-6.1c-4.5-1.3-6.9 2.8-6.9 2.8s-2.8-4.4-7.5-3.7-6.2 7-6.2 7-4.1-1.9-6.7 2.5c-2.6 4.4 0 8.2 0 8.2s-2.8-1.7-4.2 2.9c-1.4 4.6 3.2 9.2 3.2 9.2s-2.7.1-1.7 3.7c1 3.6 5.4 4.1 5.4 4.1s-1.8.7 1.2 3.9c2.9 3.2 13.5 0 13.5 0l19.1-14.9z"/><path class="st8" d="M308.8 93.9c9.8 1.4 12.1 7.1 11.4 17.2-.9 12.7-5 21.2-16.8 16.7-16-6-10.8-36.2 5.4-33.9z"/><path d="M314 109.7s1 2.7 2.3 4.4c0 0-1 1.2-2.7.7l.4-5.1z" fill="#b84d3c"/><path class="st0" d="M308.1 108c-.1.8-.6 1.4-1.1 1.3-.5-.1-.9-.8-.8-1.5.1-.8.6-1.4 1.1-1.3.5 0 .9.7.8 1.5z"/><path class="st0" d="M307.1 106.4l1.8-.5c0 .1-1 1.4-1.8.5zm11 2.7c-.1.8-.6 1.4-1.1 1.3-.5-.1-.9-.8-.8-1.5.1-.8.6-1.4 1.1-1.3.5-.1.9.6.8 1.5z"/><path class="st0" d="M317.1 107.5l1.8-.5s-1.1 1.4-1.8.5z"/><path class="st10" d="M309 101.3s-2.7-.8-4.4.9m11.5-.3s1.8-.4 3.8 1.3"/><path class="st0" d="M295.7 108.7s5.7-7.3 5.9-13.6c0 0 20.4-5.1 18.6 14.7 0 0 4.4-17.1-12.3-19.9s-20.2 21.7-12.5 30.3c0-.1-3.2-6.8.3-11.5z"/><path class="st8" d="M297 111.1c.2-1.6-1.1-4.5-4-4.6-3-.1-5.4 5.9 1.9 8.5 1.1.3 1.8-.6 2.1-3.9z"/><path class="st10" d="M311.4 120s-4.2.4-5.4-3.6"/><path class="st2" d="M292.5 104.9c3.5-11.9 22.4-20.5 27.8-5.7 0 0-.9-5.4-5.5-9.5 0 0-17.8-6.9-22.9 13.6l.6 1.6z"/><path class="st0" d="M333.1 151.5c-.1.6.4 1.1 1 1.1h10.8c.6 0 1.1-.5 1.2-1.1l2.4-21.3c.1-.6-.4-1.2-1-1.2h-10.8c-.6 0-1.1.6-1.2 1.2l-2.4 21.3z"/><path d="M336.7 130l-2.4 21.5c-.1.6.3 1 .8 1h9.1c.6 0 1.8-.4 1.8-.9l2.4-21.6c.1-.6-1-1.1-1.6-1.1h-9.1c-.5 0-.9.5-1 1.1z" opacity=".5" fill="#fff"/><path class="st3" d="M312.1 202.7c0 1 .9 1.9 1.9 1.9 1 0 1.9-.9 1.9-1.9s-.9-1.9-1.9-1.9c-1 0-1.9.9-1.9 1.9z"/><path class="st8" d="M355.7 153.2l-5.6-9.6s0-5-.5-6.2c-.5-1.2-6-3.9-7.1-3.5-1.1.4-1.5 10.3-.5 11.6 1 1.3 4.4 2.8 4.4 2.8l-.3 1.9 3.3 10 6.3-7z"/><path class="st2" d="M358 152.1l-1.9-1.8-8.9 9.9 1.3 4z"/><path class="st4" d="M313 168s-10.4 23.8-23.9 31.4c-.2-5-.9-23-3.5-33-.7-2.7-1.5-5.7-2.5-9l4.1-4.9s2.8 8.8 1.6 16.4l15.7-9.6 8.5 8.7z"/><path class="st8" d="M303 162.6l12.8-10.1s2-5.4 2.7-6.4c.8-.9 12-5.1 13-5.2.9-.1.1 9.2-1.4 10.8-1.4 1.6-10.4 4.7-10.4 4.7l-13.4 12.7-3.3-6.5z"/><path class="st2" d="M277.4 139.6c-7.5 3.8-10.8 46.2 2.2 53.6 13 7.3 32.6-25.8 32.6-25.8l-7.6-8.1s-15.9 13.3-17.8 12.1c-1.9-1.2.3-14.3.3-14.3s2.2-3.9-2.5-10.1c-4.8-6.1-7.2-7.4-7.2-7.4z"/><path class="st4" d="M277.4 139.6c-7.5 3.8-10.8 46.2 2.2 53.6 13 7.3 32.6-25.8 32.6-25.8l-7.6-8.1s-15.9 13.3-17.8 12.1c-1.9-1.2.3-14.3.3-14.3s2.2-3.9-2.5-10.1c-4.8-6.1-7.2-7.4-7.2-7.4z"/><path class="st2" d="M312.3 170.4l2.2-1.4-8.5-12.5-3.1 1.7zm34.6 86.5c0 .1.1.1.1.2-2.1.3-3.8 4.1-5.7 5.4-2.4 1.5-5.2 2.5-8 2.9-5.3.8-10.8.2-16.1 1.2-6.6 1.2-12.5 4.6-18.9 6.7-4.5 1.5-11.9 3-16.2.1-3.1-2.1-2.6-5.9-2.7-9.3-.3-10.7.1-21.3 1.5-31.9 1.3-9.4 3.6-19.5 7.5-29.1.3-.7.6-1.4.9-2.2l37.9-2.9.3 1.8 2.4 13.6 4.5 11.4 11.2 28.2c.3 1.2.9 2.6 1.3 3.9z"/><path class="st3" d="M346.9 256.9c0 .1.1.1.1.2-2.1.3-3.8 4.1-5.7 5.4-2.4 1.5-5.2 2.5-8 2.9-5.3.8-10.8.2-16.1 1.2-6.6 1.2-12.5 4.6-18.9 6.7-4.5 1.5-11.9 3-16.2.1-3.1-2.1-2.6-5.9-2.7-9.3-.3-10.7.1-21.3 1.5-31.9 1.3-9.4 3.6-19.5 7.5-29.1.3-.7.6-1.4.9-2.2l37.9-2.9.3 1.8 2.4 13.6 4.5 11.4 11.2 28.2c.3 1.2.9 2.6 1.3 3.9z"/><path d="M289.2 200.8l-1.6 3.9 40.3-2-.9-4.8z"/><path class="st2" d="M300.6 199.8l-.5 5.3h-1.5l.3-5.3z"/><path class="st3" d="M300.6 199.8l-.5 5.3h-1.5l.3-5.3z"/><path class="st2" d="M321.8 198.3l.6 5.4h1.3l-.4-5.7z"/><path class="st3" d="M321.8 198.3l.6 5.4h1.3l-.4-5.7z"/><path class="st2" d="M310.5 199.3l.5 4.4c.1.5.5.8 1 .8l5.9-.5c.5-.1.9-.5.8-1l-.4-4.3c-.1-.5-.5-.8-1-.8l-5.9.4c-.6.1-1 .5-.9 1z"/><path class="st8" d="M323.4 134.6c-.1 1.2-.4 2.7-1.5 4.2-.6.8-1.4 1.5-2.5 2.3-2.4 1.6-6.2 3-12.1 3.8-3.7.5-6.9.5-9.7.1-1.5-.2-2.9-.5-4.2-.9-4.8-1.4-7.9-4-9.8-6.2 2.1-.5 4.2-1 6.3-1.4.6-.1 1.1-.2 1.7-.3.6-.1 1.1-.2 1.7-.3 5.6-1 11.4-1.6 17.1-1.8 2.1 0 4.2.1 6.2.1.9.1 1.8.1 2.6.2 1.6 0 3 .1 4.2.2z"/><path class="st0" d="M297.6 144.9c-1.5-.2-2.9-.5-4.2-.9-.6-4-2.3-6.4-3.5-7.6.6-.1 1.1-.2 1.7-.3 3.2 2.3 5.1 6.5 6 8.8zm24.3-6.1c-.6.8-1.4 1.5-2.5 2.3.1-2.9-1.4-5.3-2.8-6.9.9.1 1.8.1 2.6.2 1.1 1.2 2.1 2.8 2.7 4.4z"/><path class="st2" d="M367.6 90.8h-13.7c-2.1 0-3.7 1.7-3.7 3.7v10.7c0 2.1 1.7 3.7 3.7 3.7h5.1l1.8 4.4 1.8-4.4h5.1c2.1 0 3.7-1.7 3.7-3.7V94.5c0-2-1.7-3.7-3.8-3.7z"/><path class="st3" d="M355.6 96.2c1.3-2.2 3.9-1.3 5.2.4 1.3-1.7 3.9-2.5 5.2-.3 2.2 3.7-2.5 7-4.6 8.3-.3.2-.5.3-.6.4-.2-.1-.4-.2-.6-.4-2.3-1.3-6.9-4.8-4.6-8.4z"/><path class="st2" d="M336.5 111.4h-6.9c-1 0-1.9.8-1.9 1.9v5.4c0 1 .8 1.9 1.9 1.9h2.5l.9 2.2.9-2.2h2.5c1 0 1.9-.8 1.9-1.9v-5.3c.1-1.1-.8-2-1.8-2z"/><path class="st3" d="M330.5 114.1c.7-1.1 2-.6 2.6.2.7-.8 2-1.2 2.6-.2 1.1 1.9-1.2 3.5-2.3 4.1-.1.1-.2.2-.3.2-.1-.1-.2-.1-.3-.2-1.2-.6-3.4-2.3-2.3-4.1z"/><g id="_x3C_Group_x3E__65_"><path class="st2" d="M178.9 331.4c-7.8 16.8-18.2 18.6-18.2 18.6l-12.4-14.5s8.9-5.4 10.9-11.8c2.1-6.5-1.8-48.8 9.2-57.6 0 0 1.3 3.4 3 8.6 3.4 10.3 8.4 27.7 9.2 41.6.6 6 .1 11.3-1.7 15.1z"/><path class="st12" d="M180.8 316.2c-10.8-19.3-11.9-33.2-9.2-41.6 3.3 10.3 8.4 27.8 9.2 41.6z"/><path class="st0" d="M180.2 358.8s-79.2-22.1-89.1 5.7c-10 27.8 62 49.9 101.7 51.3s56-26.5 44.3-53.1l-56.9-3.9z"/><path class="st4" d="M180.2 358.8s-79.2-22.1-89.1 5.7c-10 27.8 62 49.9 101.7 51.3s56-26.5 44.3-53.1l-56.9-3.9z"/><path class="st2" d="M244.6 378.8L171 366.2c12.9-24.8 8.8-62.6-2.4-100.2 7.8-6.5 38.9-10.9 62.7-4 0 0 1.4 5.2 3.3 14.2 2.3 10.7 5.3 26.9 7.4 46 1.9 17.1 3.1 36.6 2.6 56.6z"/><path class="st3" d="M244.6 378.8L171 366.2c10.9-21.1 9.7-51.4 2.2-83.1 6.2-11.9 14.3-13.5 14.3-13.5 8.1 11.4 24.8 0 24.8 0 15.5 9.3 24.7 28.9 27.7 36 2.9 20.6 5.3 46.4 4.6 73.2z"/><path class="st12" d="M242 322.2c-5.5-4.5-10.5-10.5-13-18.3-6-19 3.4-26.2 5.6-27.6 2.3 10.7 5.3 26.9 7.4 45.9z"/><path class="st2" d="M100.2 402.2c-.6-.5-1-1.1-1.2-1.8-.1-.5.1-1 .5-1.3.2-.2.5-.3.8-.3 1.3.4 2.6 4.2 2.8 4.6.1.1 0 .2-.1.3-.1.1-.2.1-.3 0-.9-.3-1.7-.9-2.5-1.5zm.2-2.6c-.1-.1-.2-.2-.3-.2-.1-.1-.3 0-.3.1-.3.2-.4.6-.4.9.6 1.2 1.6 2.2 2.8 2.7-.3-1.3-.9-2.5-1.8-3.5z"/><path class="st2" d="M102.6 403.8l-.1-.1c-.5-1.2-.6-4.3.4-5 .3-.2.8-.2 1.1.1.3.2.6.6.6 1 .3 1.5-1.5 3.9-1.7 4-.1.1-.2.1-.3.1.1 0 0 0 0-.1zm1.1-4.5l-.1-.1c-.3-.2-.4-.1-.5-.1-.6.4-.7 2.6-.4 3.9.5-.7 1.4-2.2 1.2-3.2.1-.1 0-.3-.2-.5zm80.2 21.5c.1.7-.1 1.5-.4 2.2-.3.4-.8.6-1.2.6-.3 0-.6-.2-.7-.4-.7-1.2 1.2-4.9 1.4-5.3.1-.1.2-.2.2-.1.1 0 .2.1.2.2.2.8.4 1.8.5 2.8zm-2 1.7c0 .1.1.3.1.4.1.1.2.2.3.2.3.1.7-.1.9-.4.5-1.3.5-2.7-.1-3.9-.7 1-1.1 2.3-1.2 3.7z"/><path class="st13" d="M164.2 391.2l14 10.2 6.7 5-4.4 7.6-6.8-3.7-16.7-9.1z"/><path class="st0" d="M178.4 413.8l4.2-9.3c.3-.5.9-.7 1.3-.5l4.5 2.2s6.4 2.6 7.1 4.6c2.3 6-6.5 26.9-9.2 26.9-1 0-1.6-1.5-1.8-2.5-.5-3.2-.5-11.1-.9-13.7-.5-3.1-3.6-5.4-5-6.4-.3-.3-.4-.8-.2-1.3z"/><path class="st2" d="M183.4 418l-.1.1c-.5 1.1-2.6 3.4-3.8 3.2-.4-.1-.7-.4-.7-.8-.1-.4 0-.8.3-1.1.9-1.3 3.9-1.6 4-1.6.1 0 .2.1.2.1.1 0 .1 0 .1.1zm-4.1 2.2v.1c.1.4.2.4.3.4.7.2 2.3-1.3 3-2.5-.9.2-2.6.5-3.2 1.3 0 .3-.1.5-.1.7z"/><path class="st4" d="M164.2 391.2l14 10.2-4.5 8.9-16.7-9.1z"/><path class="st2" d="M170.5 410.9l-4.6-1 7.6-14.6 4.3 4.3z"/><path class="st3" d="M170.5 410.9l-4.6-1 7.6-14.6 4.3 4.3z"/><path class="st13" d="M135.1 408.8l-17.1 2.9-8.2 1.3-2.4-8.5 7.5-2.2 18.1-5.6z"/><path class="st0" d="M109.1 403.2l3.7 9.6c.2.5-.1 1.1-.6 1.3l-4.8 1.7s-6.3 2.7-8.3 1.9c-5.9-2.5-14.7-23.4-12.8-25.5.7-.7 2.2-.1 3 .5 2.6 1.9 8.3 7.4 10.5 8.9 2.5 1.8 6.4 1.2 8.1.9.5-.1 1 .2 1.2.7z"/><path class="st4" d="M135.1 408.8l-17.1 2.9-3.1-9.4 18.1-5.6z"/><path class="st0" d="M117.8 400.5s71.3-42 95.4-40.9c24.1 1.1 26.2 25.1 16.3 38.4-10 13.3-28.4 16.6-28.4 16.6s12.5-17.7 10.7-22.7c-1.8-5-8.7 11.8-8.7 11.8s-44.2 5.8-82.6 9l-2.7-12.2z"/><path class="st2" d="M116.7 399.4l3.9-2.7 5.1 15.6h-6.1z"/><path class="st3" d="M116.7 399.4l3.9-2.7 5.1 15.6h-6.1z"/><path class="st13" d="M198.4 272.1c10.4 0 17.1-10.9 17.1-10.9-13.6-4.8-13.6-19.1-13.6-19.1l-5.2 5.1-7.5 7.3c6.2 4.4 3.3 8.2 1.3 9.9-.7.6-1.3 1-1.3 1s-1.2 6.7 9.2 6.7z"/><path class="st4" d="M190.4 264.4c12.7 1.4 11.9-17.6 11.9-17.6-2 0-3.9.1-5.7.4l-7.5 7.3c6.2 4.5 3.3 8.3 1.3 9.9z"/><path class="st2" d="M216.8 237.8c1.5 1.5-4.8 5.6-15 2.1-10.1-3.5-11.9-13.7-11.9-13.7s16.8 1.8 26.9 11.6z"/><path d="M216.8 237.8c1.5 1.5-4.8 5.6-15 2.1-10.1-3.5-11.9-13.7-11.9-13.7s16.8 1.8 26.9 11.6z" opacity=".4"/><path class="st0" d="M180.5 227.8c4.8 2 3.9 7.3-4.1 16.8-4.9-4.2-7.6-13.9-5-17 2.6-3 4.9-1.5 9.1.2z"/><path class="st13" d="M173.4 249.2c.5 1.4 1 2.6 1.5 3.8 4.8 9.7 18.4 11.6 24.5 2 0-.1.1-.1.1-.1 4-6.5 2.5-12.4.8-22.9-.3-2.2-1.2-4.3-2.5-6.1-4.5-6.5-13.5-8.1-20-3.5-8 5.4-7.5 17.9-4.4 26.8z"/><path class="st0" d="M185.5 238.3c.2.8-.1 1.6-.7 1.8-.6.1-1.1-.5-1.3-1.3-.2-.8.1-1.6.6-1.8.7-.2 1.2.4 1.4 1.3zm-9.5 2.1c.2.8-.1 1.6-.7 1.8-.6.1-1.1-.5-1.3-1.3-.2-.8.1-1.6.7-1.8.6-.1 1.1.5 1.3 1.3z"/><path d="M179.2 240.1c-.4 2.8-1.2 5.5-2.4 8.1 1.8 1 4.2-.2 4.2-.2l-1.8-7.9z" fill="#fd5652"/><path class="st0" d="M187.5 234.6c.1 0 .2-.1.3-.2.2-.2.2-.5-.1-.7-1.2-1.1-2.9-1.5-4.4-1.1-.3.1-.4.3-.4.6v.1c.1.3.4.4.6.4 1.2-.3 2.6.1 3.5.9.2 0 .4.1.5 0zm-16.5 3.6c.2-.1.4-.2.4-.4.3-1.2 1.1-2.3 2.3-2.8.3-.1.4-.4.3-.7-.1-.3-.4-.4-.6-.3-1.5.7-2.6 2-2.9 3.6-.1.3.1.5.4.6h.1zm23.2-14.4c-4.4 2.7-2.7 7.8 6.7 16 4.2-5 5.3-14.9 2.2-17.6-3-2.6-5.1-.8-8.9 1.6z"/><path class="st13" d="M207 239.1c-.2 2.6-1.3 5.1-3.4 6.9-2.6 2.3-5.5.3-6-3-.5-2.9.3-7.7 3.6-8.8 3.4-1 6 1.6 5.8 4.9z"/><path d="M189.1 248.1s-1.1 3.8-6.1 4.6" fill="none" stroke="#1a2e35" stroke-width=".557" stroke-linecap="round" stroke-linejoin="round" stroke-miterlimit="10"/><path class="st0" d="M190.2 225.9s-2.8 1-4.1 2.9c0 0-.5-.7 0-2.1 0 0-3 1.6-4.4 3.6 0 0-.9-1.8-.7-3.4 0 0-1.5 2.5-2 4.3 0 0-3.6-1.3-3.9-4.1 0 0-.3 1.5 0 3.6 0 0-2.4-.7-2.8-3.2 0 0-.8 2-.6 4.4 0 0-2.6-1.2-1.9-4.9.8-3.6 11-9.2 17-7.5 5.8 1.9 3.4 6.4 3.4 6.4z"/><path class="st2" d="M169.4 228.7s.1-10.5 4.4-14.5c4.3-4 19.5-5.2 27-1.3 7.5 3.9 4.8 18.1 4.8 18.1s-15.5-7.8-36.2-2.3z"/><path class="st0" d="M174.7 225.3s4.1-1.4 9.5-.8c0 0 2.7-4.7-4-5-4.9-.1-5.8 2.4-5.5 5.8z"/><path class="st2" d="M197.5 228.3l8.4.1s6.7 3.8 10.9 9.5c0-.1-6.5-5.7-19.3-9.6z"/><path class="st4" d="M197.5 228.3l8.4.1s6.7 3.8 10.9 9.5c0-.1-6.5-5.7-19.3-9.6zm29 116.1L202 371.5s-27.1-.6-60 15.5c0 0-35.3-14.6-38.6-26.7-3.3-12.1 74.2-3.6 74.2-3.6l48.9-12.3z"/><path class="st13" d="M219.6 336.4l-39.3 12.9s-14-3.1-16.6-3.1c-2.5 0-12.2 7.9-6.7 10.6s20.4 3.1 22.1 2.2c1.7-.9 45.2-11.1 45.2-11.1l-4.7-11.5z"/><path class="st2" d="M231.2 262c-8.9-1.7 6.6 52.5 2.7 60.5s-18.5 13-18.5 13l6.8 15s20.1-3.8 31-17.7c11-13.9-7.4-67.9-22-70.8z"/><path class="st2" d="M215.4 334.3l8.4 16.2-7.2 1.6-6.5-15z"/><path class="st1" d="M215.4 334.3l8.4 16.2-7.2 1.6-6.5-15z"/><path class="st0" d="M199.2 356.8v2.6c0 1.8-1.4 3.4-3.2 3.4h-95c-1.8 0-3.5-1.6-3.5-3.4v-2.6h101.7z"/><path class="st1" d="M199.2 356.8v2.6c0 1.8-1.4 3.4-3.2 3.4h-95c-1.8 0-3.5-1.6-3.5-3.4v-2.6h101.7z"/><path class="st1" d="M163.8 356.8v2.6c0 1.8-1.4 3.4-3.2 3.4H101c-1.8 0-3.5-1.6-3.5-3.4v-2.6h66.3z"/><path class="st0" d="M160.5 360.3H97.7c-1.9 0-4-1.5-4.5-3.4l-14.4-45.2c-.6-1.9.5-3.5 2.4-3.5H144c1.9 0 4 1.6 4.5 3.5l14.4 45.1c.6 1.9-.4 3.5-2.4 3.5z"/><path class="st1" d="M160.5 360.3H97.7c-1.9 0-4-1.5-4.5-3.4l-14.4-45.2c-.6-1.9.5-3.5 2.4-3.5H144c1.9 0 4 1.6 4.5 3.5l14.4 45.1c.6 1.9-.4 3.5-2.4 3.5z"/><path class="st1" d="M158.2 360.3H97.7c-1.9 0-4-1.5-4.5-3.4l-14.4-45.2c-.6-1.9.5-3.5 2.4-3.5h60.4c1.9 0 4 1.6 4.5 3.5l14.4 45.1c.7 1.9-.4 3.5-2.3 3.5z"/><path class="st1" d="M121.4 336.4c.8 3-.7 5.5-3.4 5.5s-5.4-2.4-6.1-5.5c-.8-3 .7-5.5 3.4-5.5 2.6.1 5.3 2.5 6.1 5.5z"/><path class="st2" d="M115.9 281.7h-13.7c-2.1 0-3.7 1.7-3.7 3.7v10.7c0 2.1 1.7 3.7 3.7 3.7h5.1l1.8 4.4 1.8-4.4h5.1c2.1 0 3.7-1.7 3.7-3.7v-10.7c0-2.1-1.7-3.7-3.8-3.7z"/><path class="st3" d="M103.9 287.1c1.3-2.2 3.9-1.3 5.2.4 1.3-1.7 3.9-2.5 5.2-.3 2.2 3.7-2.5 7-4.6 8.3-.3.2-.5.3-.6.4-.2-.1-.4-.2-.6-.4-2.3-1.4-6.9-4.8-4.6-8.4z"/><path class="st2" d="M151.8 291.6h-6.9c-1 0-1.9.8-1.9 1.9v5.4c0 1 .8 1.9 1.9 1.9h2.5l.9 2.2.9-2.2h2.5c1 0 1.9-.8 1.9-1.9v-5.4c0-1.1-.8-1.9-1.8-1.9z"/><path class="st3" d="M145.8 294.3c.7-1.1 2-.6 2.6.2.7-.8 2-1.2 2.6-.2 1.1 1.9-1.2 3.5-2.3 4.1-.1.1-.2.2-.3.2-.1-.1-.2-.1-.3-.2-1.2-.5-3.5-2.3-2.3-4.1z"/><path class="st2" d="M135.2 257.1H126c-1.4 0-2.5 1.1-2.5 2.5v7.2c0 1.4 1.1 2.5 2.5 2.5h3.4l1.2 2.9 1.2-2.9h3.4c1.4 0 2.5-1.1 2.5-2.5v-7.2c0-1.4-1.1-2.5-2.5-2.5z"/><path class="st3" d="M127.1 260.7c.9-1.4 2.6-.9 3.5.3.9-1.1 2.6-1.7 3.5-.2 1.5 2.5-1.7 4.7-3.2 5.6-.2.1-.3.2-.4.3-.1-.1-.3-.2-.4-.3-1.4-1-4.5-3.3-3-5.7z"/><path class="st1" d="M178.4 413.8l4.2-9.3c.3-.5.9-.7 1.3-.5l4.5 2.2s6.4 2.6 7.1 4.6c2.3 6-6.5 26.9-9.2 26.9-1 0-1.6-1.5-1.8-2.5-.5-3.2-.5-11.1-.9-13.7-.5-3.1-3.6-5.4-5-6.4-.3-.3-.4-.8-.2-1.3zm-69.3-10.6l3.7 9.6c.2.5-.1 1.1-.6 1.3l-4.8 1.7s-6.3 2.7-8.3 1.9c-5.9-2.5-14.7-23.4-12.8-25.5.7-.7 2.2-.1 3 .5 2.6 1.9 8.3 7.4 10.5 8.9 2.5 1.8 6.4 1.2 8.1.9.5-.1 1 .2 1.2.7z"/></g></svg>