<svg version="1.1" id="Layer_1" xmlns="http://www.w3.org/2000/svg" x="0" y="0" viewBox="0 0 450 450" xml:space="preserve"><style>.st0{fill:#f0f0f0}.st1{fill:#007cff}.st3{fill:#fff}.st5{opacity:.3}.st5,.st6,.st7{fill:#fff;enable-background:new}.st6{opacity:.7}.st7{opacity:.8}.st8{fill:#e4897b}.st9{opacity:.3;enable-background:new}.st10{fill:#1a2e35}.st11{opacity:.2;enable-background:new}.st12{fill:#de5753}.st13,.st14{opacity:.5;fill:#fff;enable-background:new}.st14{opacity:.2}.st15{fill:#ebb376}.st18{fill:#eec1bb}.st20{fill:#9f5b53}</style><path class="st0" d="M381.2 160.5l-118.3-39.9-.1-.1-62.5-64-50 45.7-.8-.8 50.9-46.5 63.1 64.7 117.2 39.6L428.8 93l.9.7zM13.6 258.7c0 3.2-2.6 5.8-5.8 5.8S2 261.9 2 258.7s2.6-5.8 5.8-5.8c3.3 0 5.8 2.6 5.8 5.8z"/><path class="st0" d="M206.2 55.7c0 3.2-2.6 5.8-5.8 5.8s-5.8-2.6-5.8-5.8 2.6-5.8 5.8-5.8c3.2-.1 5.8 2.6 5.8 5.8zm228.9 37.7c0 3.2-2.6 5.8-5.8 5.8s-5.8-2.6-5.8-5.8 2.6-5.8 5.8-5.8 5.8 2.5 5.8 5.8zm.5 308.3c0 3.2-2.6 5.8-5.8 5.8s-5.8-2.6-5.8-5.8 2.6-5.8 5.8-5.8c3.2 0 5.8 2.6 5.8 5.8zM269.1 120.1c0 3.2-2.6 5.8-5.8 5.8s-5.8-2.6-5.8-5.8c0-3.2 2.6-5.8 5.8-5.8 3.1 0 5.8 2.6 5.8 5.8z"/><path class="st0" d="M161.1 401.9l-.4-.1-146.6-27.7.2-1 146.1 27.5 102.3-280.7 1 .4z"/><path transform="rotate(-48.479 45.776 168.486)" class="st0" d="M45.2 135.1h1.1v66.8h-1.1z"/><path class="st0" d="M429.5 402.2L357 357.3l1.6-.5 76.2-73.2-54.4-123.5 1-.5 54.7 124.2-.3.3-76.3 73.4 70.6 43.8z"/><path class="st0" d="M14.7 373.9l-1-.6 43.8-67.7-50.4-46.8.3-.4 63.3-68.5.3.3 288.2 166.7-.6.9L70.9 191.3 8.6 258.7l50.3 46.8z"/><path class="st1" d="M215 326.5c2.9.3 5.8.4 8.7.3 24.5-.4 47-10.9 62.9-27.8 13.2-14 21.9-32.5 23.6-53.2.1-.5.1-1.1.1-1.6.7-11.1-.7-21.8-3.8-31.8-9.5-30.6-35.3-54.5-68.1-60.6-2.9-.5-5.9-.9-9-1.2-7.3-.6-14.5-.3-21.5.8-20.6 3.3-39 13.9-52.3 29.1-12 13.7-19.8 31.3-21.5 50.8-.9 10.5.2 20.6 2.7 30.3 9.6 34.8 40.1 61.7 78.2 64.9z"/><path class="st3" d="M215 326.5c2.9.3 5.8.4 8.7.3 24.5-.4 47-10.9 62.9-27.8 13.2-14 21.9-32.5 23.6-53.2.1-.5.1-1.1.1-1.6.7-11.1-.7-21.8-3.8-31.8-9.5-30.6-35.3-54.5-68.1-60.6-2.9-.5-5.9-.9-9-1.2-7.3-.6-14.5-.3-21.5.8-20.6 3.3-39 13.9-52.3 29.1-12 13.7-19.8 31.3-21.5 50.8-.9 10.5.2 20.6 2.7 30.3 9.6 34.8 40.1 61.7 78.2 64.9z" opacity=".7"/><path class="st1" d="M156.2 260c-.3 1.7-2.4 2.2-4 2.4-2.5.3-5.1.6-7.6.9-1.2-3.2-4.9-3.2-7.5-2 9.4 34.9 39.9 61.9 78 65 2.9.3 5.8.4 8.7.3.1-.1.1-.2.2-.2 1.3-2.3-.6-4.3-1.6-6.3-.2-.4-2.4-5.9-1.7-5.9-2.3.1-4.7-.3-6.9-.9-.2-.1-.4-.1-.5-.3-.2-.4.3-.7.7-.8 1-.3 2.1-.3 3.2-.6 1-.3 2-.9 2.4-1.9s.1-2.1.3-3.2c.3-1.3 1.3-2.3 2.5-2.8 1.1-.6 2.4-.7 3.6-1-2.7-1.4-.7-4.5-2.8-6.5-.7-.7-1.7-1.4-1.2-2.3.4-.8 1.8-.8 2-1.7.1-.6-.5-1.1-1.1-1.2-.6-.2-1.3-.1-1.8-.4-.8-.4-1-1.6-.5-2.3.5-.6 1.3-.8 2-1.2.7-.4 1.3-1.2.9-1.9-.1-.2-.3-.3-.4-.4-1.1-.7-2.6-.1-3.7.6s-2.2 1.7-3.6 1.7c-.3-.5-.1-1.2.4-1.5.2-.1.4-.2.5-.3.3-.3.1-.8-.2-1.2-1-1.8-1.2-4.1-.6-6.1 2.7.1 5.4.1 8.1.2.1-.6.2-1 .8-1.1-1.8-2.2-3.8-4.1-5.4-6.5-.2-.3-.4-.6-.7-.7s-.7 0-1-.1c-1.2-.2-1.3-1.8-1.2-2.9-.2-.4-.7-.2-.9.1-.2.3-.3.8-.5 1-.4.4-1.1.4-1.7.2-1.9-.7-2.9-3.2-2.1-5 .1-.2.2-.4.5-.6.5-.3 1 .1 1.6.2 2.1.4 1.8-1.9 1.2-3-.7-1.4-2.7-2.4-4.1-2.8-1.7-.4-13.1-2.6-11.2-6.3.2-.4.5-.6.9-.7 1.1-.5 2.3-.4 3.5-.7 1.1-.3 2.2-1.5 1.8-2.6-.2-.4-.6-.7-.8-1.1-.6-1.1.4-2.6-.1-3.9-.2-.6-.7-1-1-1.5s-.4-1.3.2-1.7c.6-.4 1.4.2 2-.1.7-.3.6-1.3 0-1.8-.6-.4-1.4-.3-2 .2-.3.2-.6.5-1 .5-.7.1-1.1-.6-1.5-1.1-.5-.9-1.1-1.8-1.6-2.7-.6 0-1.1.6-1.3 1.1s-.3 1.2-.5 1.8c-1.1 2.7-5.3 2.4-4.8 6.1 1.1-.2 2.2 1.1 1.8 2.2-.4 1.3-2.4 2-2.1 3.4.1.5.5.9.6 1.3.2 1.3-1.8 1.8-2.7 2.1-2.9 1-3.1-.9-5.6-1-1.1-.1-2.2.7-3.3.8-1 .1-2.1-.3-3.2-.3-2.9.2-1.4 4.1-1.2 5.8-1.6-1-3.6.2-4.9 1.6-1.9 2.2-1.7 1.8-4.2 1.9-.7 0-1.3.4-1.7 1-.5 1.1.5 2.2.6 3.4 0 .6-.2 1.1-.2 1.7.2 1.4 1.9 2.1 2.9 3.1.9.9 1.3 2.3 1.1 3.5-.7.1-1.5 0-2.2-.2-.4-.8-.9-1.7-1.3-2.5-.4-.7-.8-1.5-1.5-2-.4-.3-.8-.5-1.1-.8-.6-.8-.1-1.8 0-2.7.3-2.2-.8-6.1-1.3-8.3-.6-2.4-2.2-3.3-2.7-5.5-.1-.4-.6-.5-1-.3s-.5.6-.6 1c-.2.9-.2 1.9.3 2.7-.5-1.1-3.3 1.8-3.5 2.4-.3.9.3 2.2.3 3.2-.1 2.3-.6 3.7-3.1 1.9-.9-.7-2.1-1.4-3.1-.9.2.6-.2 1.3-.8 1.7-.6.3-1.3.3-2 .2-.5-.1-.9-.2-1.2-.6-.2-.2-.3-.4-.4-.6-.6-.5-1.4.4-1.8 1.1m118.9-72.2c.5.8-.1 1.8-.6 2.5-.6.7-1.2 1.6-1 2.4 1 .1 2.1.2 3.2.3.2 0 .4.1.5.2.1.2.1.4.1.6-.1.7-.2 1.3-.3 2-.7.5-1.3-1.1-2.1-.9-.4.1-.6.5-.7.8-1.7 2.7-4.7.7-6.3-.7-1.9-1.6-4.5-1.7-7-1.8-.9 0-1.9 0-2.5.7-.6.6-.6 1.6-.9 2.4-.5 1.4-1.9 2.3-2.6 3.6-2.7 4.6 2.1 8 6.2 6.8 2.1-.6 1.8-1 3.9-.4.9.3 2 .1 2.5 1 .6 1.1-.3 2.5-1.4 2.4-1.2 0-2.4.2-3.5-.4.4 1.4-.1 3.1-.2 4.6-1.4-.3-2.7 1.4-2.1 2.7.7 0 1.6.3 1.6.9 0 .2-.1.4-.3.6-.5.7-1.1 1.3-1.5 2-.6 1.1-.6 4.5-2.2 4.9-.3.1-.6.1-.9.2-.6.2-.9.9-.8 1.5.2.6.7 1.1 1.3 1.2.4.1.8.1 1.2.3 2.1.7.3 2.8.8 3.8.3.5 3.7 2.7 4.1 2.8-1.2.8-2.3 2.2-2.3 3.7-.1 1.7 1.2 2.5 2.8 3.1 1.7.5 3.8.7 5 1.2.7.3 1.4.5 2 .1.7-.6.5-1.9 1.3-2.2.3-.1.6-.1.8-.2 1.7-.2 2.9-1.9 2.6-3.5.4-.5 1.1-.5 1.8-.4.6 0 1.4-.2 1.5-.8.1-.7-.8-1.1-1.5-1.1-.7-.1-1.4 0-2.2.2-.5.1-1.1.3-1.6.1-.4-.2-.6-.5-.8-.9-.5-.8-1-1.8-.9-2.8s.9-2 1.9-2c.3 0 .5.1.8.1.7-.1 1-.9.9-1.6-.1-.7-.3-1.4-.1-2 .2-.7 1.1-1.1 1.6-.6.4-.9.6-2.2-.2-2.6-.3-.2-.6-.1-.9-.2-1.9-.2-4.5-2.7-2.3-4.2 1.4-.9 3.6 1 4.8-.8.6-.9.2-2.1.8-3 .4-.3.8.3.8.7.3 1.3-.3 2.8-1.3 3.7 1.1.6 2.7-.1 3.5.9.7 1-.4 2.7.6 3.5.3.2.6.3 1 .3 1.7.3 4.9-.1 5 2.4 0 .3-.1.6.1.9.3.9 1.4.9 2.3.8.5-.9-.2-1.9-.5-2.8-.4-.9-.4-2.3.6-2.5.7-.2 1.5.4 2.1 0 .3-.2.4-.6.7-.7.7-.4 1.3.7 2.1.9 1 .3 1.8-1 1.8-2.1s-.3-2.3.5-3.2c.2-.3.5-.5.8-.7.8-.7.9-1.9 1-2.9.2-1.7 6.9 2.7 7.3 2.8 3.2.5 5.2-2.6 7.4-4.4 1.1-.9 2.5-1.6 3.8-2.2-9.2-29.5-33.8-52.6-63.9-59.8-1.3-.3-2.7-.7-4.1-.8.4 2.1 1.7 5.3.3 7.2-1.8 2.5-5.4.3-6.8 3.2-.1.7 1.2.6 1.8 1.1.3.3.4.7.6 1.1.2.4.5.8.9.6.5.7-.3 1.6-.9 2.1-.7.7-1.4 1.4-1.7 2.3-.6 1.9.7 3.9 1.6 5.7.7 1.5 1 3.2 1.4 4.8 0-.8 1.1-1.1 1.8-.7.7.4 1.1 1 1.7 1.6.9.9 2.2.4 3.2 1.1 1.3 1 2.1 2.7 3.7 2.9 1.9.3 3.3-1.7 4.1-3.5 2.1 1.1 3.4 3.8 5.7 4 .9.1 1.8-.3 2.6-.6 1.8-.7 3.5-1.3 5.2-2.1.7-.3 1.5-.6 2.2-.3.9.3 1.3 1.2 1.7 2.1.4.9.7 1.8 1.1 2.7.2.4.3.8.2 1.2-.1.4-.5.7-.8.9-2 1.3-4.4 1.8-6.7 1.4.2 3.2.8 6.3 1.9 9.3-1.8-.5-3.8.2-5.4-.6m-15.5 62.8c-.7.8-1.7 1.4-2.6 1.3-.6 0-1.2-.3-1.9-.4-.6-.1-1.3.1-1.7.6-.5.7 0 1.6.4 2.3.4.6.7 1.2 1.4 1.3.5.2 1 0 1.4.1.9.2 1.6 1 2.2 1.8.6.7 1.7 1.4 2.5.9.6-.3.8-1 1.3-1.3 1.3-.8 2.9 1 4.1.3 1.4-.8.9-3.1.3-4.3-.6-1.3-1.8-2.3-2.8-3.3-2.9-2.8-2.6-1.8-4.6.7zm44 36.6c13.9-13.8 22-33.8 23.6-53.1.1-.5.1-1.1.1-1.6-2.7-2.7-8-4.5-9.4.5-.6-.1-.7-.4-1.1-.7-.7-.5-1.6.2-2 .9-1.2 2.4-1.4 5.4-4.7 4.8-4-.8-1.3-2.5-2.6-4.7-.2-.3-.5-.5-.8-.8-.9-1-.8-2.5-.6-3.8.8.4 1.8-.1 2.1-.9.1-.3.1-.7.3-.9.5-.5 1.4-.1 1.6.6.2.7.1 1.4.2 2.1.2.7.9 1.3 1.5 1 .3-.2.4-.4.5-.7.4-1.2.1-2.5-.7-3.5.7-.2 1.1-.8 1.1-1.5s-.5-1.3-1.2-1.4c-1-.2-2.3.4-2.7-.6.2.8-.2 1.7-.8 2.1-2.5 1.9-8.3.2-7.8 5.6.1.9.4 1.7.4 2.6 0 .9-.5 1.9-1.3 2 1.6 1.2 1 4.1 2.6 5.2.8.5 1.9.4 2.6-.3.1-.1.2-.3.4-.3.3-.1.6.2.9.3.5.1 1-.5 1.6-.5.8-.1 1.2.9 1.3 1.7.2.8.4 1.7 1.1 1.9.3.1.5.1.8.1.5.2.8.7.8 1.2.1.5-.2 1-.4 1.6-.3.3-.9.1-1.2-.2-.3-.3-.5-.8-.8-1.1-.2-.2-4.8.2-4.7-.2-.7 1.6-1 5.1-3.4 4.2-.8-.3-1.7-.9-2.6-.6.4-1.1.8-2.2 1.2-3.4-.4-.3-.9.1-1 .6-.2.5-.2 1-.6 1.2-.3.2-.6.2-.9.2-1.1 0-2.1-.1-3.2-.1s-2.5.1-3.2.9c-.8 1-.4 2.6.5 3.6.2.3.5.5.4.8 0 .3-.3.5-.5.7-1.1 1-1.8 2.5-1.6 4 .3 1.5 1.6 2.8 3.1 2.7.6-.1 1.3-.3 1.7.2.2.3.2.7.5.9.4.2.7-.3 1-.6.5-.6 1.4-.7 2.1-.4.4.2 1.4 3.5 1.1 3.9-.6 1.1-3.7.7-4.9.7-.5 0-1 .1-1.2.4-.5.5-.1 1.4.4 1.9s1.2.9 1.4 1.6c.2.4.2.8.1 1.2-.1.8-.1 1.8-.8 2.3-.3.3-.7.4-1 .6-.7.6-.7 1.7-.5 2.5.3.9.7 1.7.9 2.5.4 1.9-.7 3.9.1 5.7.4.8 1.5 1.6 2.2.9.6-.5.6-1.8 1.4-1.8.8-.1 1.7 1.8 2.3 2.2.5.3 1.5-.2 2.4.5.9.8 1.1 2 1.9 2.6zM168.8 181.2c.8-1 1.3-2.1 2.7-2.4 2-.4 2.7.8 1.9 2.7-.1.2-.2.4-.1.5.2.6 1 .3 1.5-.1 1.1-.8 2.6-.7 3.8-.2.3.1.8-5.3.6-6-1-2.2-5.6-1.2-4.7-3.6 1.7-.1 3.5.2 5.2.3.1-.8.2-1.7.3-2.5-.1.6 3.2.5 3.5.3 1.4-.7 1-3.3 3.6-2.9 3.2.5 3.4 6.9-.3 5.8-.9 1.9-1.2 4.1-1.3 6.2h-2c-.3.5-.4 1.1-.3 1.6 1.6 1.1 3.9 1.1 5.5.1 1 .8 2.5.1 3.6-.7 1.5 2.4 5.8 2.1 6.9-.6 1.1-2.6-1.7-6-4.5-5.4-.1-1.3-.5-2.6-1.3-3.7 3.5.1 6.9-2.2 8-5.5.6-1.7.7-3.7 2.1-4.7.6-.5 1.4-.7 2.1-1.1 1.4-1 1.9-2.9 2.1-4.6.2-1.1.3-2.3.3-3.5-20.6 3.3-39 13.9-52.3 29.1-.1.6-.1 1.2.2 1.8.5 1 1.7 1.4 2.7 1.7 4.2 1.1 6.9.9 9.9-2.4.1 0 .2-.1.3-.2z"/><path class="st3" d="M156.2 260c-.3 1.7-2.4 2.2-4 2.4-2.5.3-5.1.6-7.6.9-1.2-3.2-4.9-3.2-7.5-2 9.4 34.9 39.9 61.9 78 65 2.9.3 5.8.4 8.7.3.1-.1.1-.2.2-.2 1.3-2.3-.6-4.3-1.6-6.3-.2-.4-2.4-5.9-1.7-5.9-2.3.1-4.7-.3-6.9-.9-.2-.1-.4-.1-.5-.3-.2-.4.3-.7.7-.8 1-.3 2.1-.3 3.2-.6 1-.3 2-.9 2.4-1.9s.1-2.1.3-3.2c.3-1.3 1.3-2.3 2.5-2.8 1.1-.6 2.4-.7 3.6-1-2.7-1.4-.7-4.5-2.8-6.5-.7-.7-1.7-1.4-1.2-2.3.4-.8 1.8-.8 2-1.7.1-.6-.5-1.1-1.1-1.2-.6-.2-1.3-.1-1.8-.4-.8-.4-1-1.6-.5-2.3.5-.6 1.3-.8 2-1.2.7-.4 1.3-1.2.9-1.9-.1-.2-.3-.3-.4-.4-1.1-.7-2.6-.1-3.7.6s-2.2 1.7-3.6 1.7c-.3-.5-.1-1.2.4-1.5.2-.1.4-.2.5-.3.3-.3.1-.8-.2-1.2-1-1.8-1.2-4.1-.6-6.1 2.7.1 5.4.1 8.1.2.1-.6.2-1 .8-1.1-1.8-2.2-3.8-4.1-5.4-6.5-.2-.3-.4-.6-.7-.7s-.7 0-1-.1c-1.2-.2-1.3-1.8-1.2-2.9-.2-.4-.7-.2-.9.1-.2.3-.3.8-.5 1-.4.4-1.1.4-1.7.2-1.9-.7-2.9-3.2-2.1-5 .1-.2.2-.4.5-.6.5-.3 1 .1 1.6.2 2.1.4 1.8-1.9 1.2-3-.7-1.4-2.7-2.4-4.1-2.8-1.7-.4-13.1-2.6-11.2-6.3.2-.4.5-.6.9-.7 1.1-.5 2.3-.4 3.5-.7 1.1-.3 2.2-1.5 1.8-2.6-.2-.4-.6-.7-.8-1.1-.6-1.1.4-2.6-.1-3.9-.2-.6-.7-1-1-1.5s-.4-1.3.2-1.7c.6-.4 1.4.2 2-.1.7-.3.6-1.3 0-1.8-.6-.4-1.4-.3-2 .2-.3.2-.6.5-1 .5-.7.1-1.1-.6-1.5-1.1-.5-.9-1.1-1.8-1.6-2.7-.6 0-1.1.6-1.3 1.1s-.3 1.2-.5 1.8c-1.1 2.7-5.3 2.4-4.8 6.1 1.1-.2 2.2 1.1 1.8 2.2-.4 1.3-2.4 2-2.1 3.4.1.5.5.9.6 1.3.2 1.3-1.8 1.8-2.7 2.1-2.9 1-3.1-.9-5.6-1-1.1-.1-2.2.7-3.3.8-1 .1-2.1-.3-3.2-.3-2.9.2-1.4 4.1-1.2 5.8-1.6-1-3.6.2-4.9 1.6-1.9 2.2-1.7 1.8-4.2 1.9-.7 0-1.3.4-1.7 1-.5 1.1.5 2.2.6 3.4 0 .6-.2 1.1-.2 1.7.2 1.4 1.9 2.1 2.9 3.1.9.9 1.3 2.3 1.1 3.5-.7.1-1.5 0-2.2-.2-.4-.8-.9-1.7-1.3-2.5-.4-.7-.8-1.5-1.5-2-.4-.3-.8-.5-1.1-.8-.6-.8-.1-1.8 0-2.7.3-2.2-.8-6.1-1.3-8.3-.6-2.4-2.2-3.3-2.7-5.5-.1-.4-.6-.5-1-.3s-.5.6-.6 1c-.2.9-.2 1.9.3 2.7-.5-1.1-3.3 1.8-3.5 2.4-.3.9.3 2.2.3 3.2-.1 2.3-.6 3.7-3.1 1.9-.9-.7-2.1-1.4-3.1-.9.2.6-.2 1.3-.8 1.7-.6.3-1.3.3-2 .2-.5-.1-.9-.2-1.2-.6-.2-.2-.3-.4-.4-.6-.6-.5-1.4.4-1.8 1.1m118.9-72.2c.5.8-.1 1.8-.6 2.5-.6.7-1.2 1.6-1 2.4 1 .1 2.1.2 3.2.3.2 0 .4.1.5.2.1.2.1.4.1.6-.1.7-.2 1.3-.3 2-.7.5-1.3-1.1-2.1-.9-.4.1-.6.5-.7.8-1.7 2.7-4.7.7-6.3-.7-1.9-1.6-4.5-1.7-7-1.8-.9 0-1.9 0-2.5.7-.6.6-.6 1.6-.9 2.4-.5 1.4-1.9 2.3-2.6 3.6-2.7 4.6 2.1 8 6.2 6.8 2.1-.6 1.8-1 3.9-.4.9.3 2 .1 2.5 1 .6 1.1-.3 2.5-1.4 2.4-1.2 0-2.4.2-3.5-.4.4 1.4-.1 3.1-.2 4.6-1.4-.3-2.7 1.4-2.1 2.7.7 0 1.6.3 1.6.9 0 .2-.1.4-.3.6-.5.7-1.1 1.3-1.5 2-.6 1.1-.6 4.5-2.2 4.9-.3.1-.6.1-.9.2-.6.2-.9.9-.8 1.5.2.6.7 1.1 1.3 1.2.4.1.8.1 1.2.3 2.1.7.3 2.8.8 3.8.3.5 3.7 2.7 4.1 2.8-1.2.8-2.3 2.2-2.3 3.7-.1 1.7 1.2 2.5 2.8 3.1 1.7.5 3.8.7 5 1.2.7.3 1.4.5 2 .1.7-.6.5-1.9 1.3-2.2.3-.1.6-.1.8-.2 1.7-.2 2.9-1.9 2.6-3.5.4-.5 1.1-.5 1.8-.4.6 0 1.4-.2 1.5-.8.1-.7-.8-1.1-1.5-1.1-.7-.1-1.4 0-2.2.2-.5.1-1.1.3-1.6.1-.4-.2-.6-.5-.8-.9-.5-.8-1-1.8-.9-2.8s.9-2 1.9-2c.3 0 .5.1.8.1.7-.1 1-.9.9-1.6-.1-.7-.3-1.4-.1-2 .2-.7 1.1-1.1 1.6-.6.4-.9.6-2.2-.2-2.6-.3-.2-.6-.1-.9-.2-1.9-.2-4.5-2.7-2.3-4.2 1.4-.9 3.6 1 4.8-.8.6-.9.2-2.1.8-3 .4-.3.8.3.8.7.3 1.3-.3 2.8-1.3 3.7 1.1.6 2.7-.1 3.5.9.7 1-.4 2.7.6 3.5.3.2.6.3 1 .3 1.7.3 4.9-.1 5 2.4 0 .3-.1.6.1.9.3.9 1.4.9 2.3.8.5-.9-.2-1.9-.5-2.8-.4-.9-.4-2.3.6-2.5.7-.2 1.5.4 2.1 0 .3-.2.4-.6.7-.7.7-.4 1.3.7 2.1.9 1 .3 1.8-1 1.8-2.1s-.3-2.3.5-3.2c.2-.3.5-.5.8-.7.8-.7.9-1.9 1-2.9.2-1.7 6.9 2.7 7.3 2.8 3.2.5 5.2-2.6 7.4-4.4 1.1-.9 2.5-1.6 3.8-2.2-9.2-29.5-33.8-52.6-63.9-59.8-1.3-.3-2.7-.7-4.1-.8.4 2.1 1.7 5.3.3 7.2-1.8 2.5-5.4.3-6.8 3.2-.1.7 1.2.6 1.8 1.1.3.3.4.7.6 1.1.2.4.5.8.9.6.5.7-.3 1.6-.9 2.1-.7.7-1.4 1.4-1.7 2.3-.6 1.9.7 3.9 1.6 5.7.7 1.5 1 3.2 1.4 4.8 0-.8 1.1-1.1 1.8-.7.7.4 1.1 1 1.7 1.6.9.9 2.2.4 3.2 1.1 1.3 1 2.1 2.7 3.7 2.9 1.9.3 3.3-1.7 4.1-3.5 2.1 1.1 3.4 3.8 5.7 4 .9.1 1.8-.3 2.6-.6 1.8-.7 3.5-1.3 5.2-2.1.7-.3 1.5-.6 2.2-.3.9.3 1.3 1.2 1.7 2.1.4.9.7 1.8 1.1 2.7.2.4.3.8.2 1.2-.1.4-.5.7-.8.9-2 1.3-4.4 1.8-6.7 1.4.2 3.2.8 6.3 1.9 9.3-1.8-.5-3.8.2-5.4-.6m-15.5 62.8c-.7.8-1.7 1.4-2.6 1.3-.6 0-1.2-.3-1.9-.4-.6-.1-1.3.1-1.7.6-.5.7 0 1.6.4 2.3.4.6.7 1.2 1.4 1.3.5.2 1 0 1.4.1.9.2 1.6 1 2.2 1.8.6.7 1.7 1.4 2.5.9.6-.3.8-1 1.3-1.3 1.3-.8 2.9 1 4.1.3 1.4-.8.9-3.1.3-4.3-.6-1.3-1.8-2.3-2.8-3.3-2.9-2.8-2.6-1.8-4.6.7zm44 36.6c13.9-13.8 22-33.8 23.6-53.1.1-.5.1-1.1.1-1.6-2.7-2.7-8-4.5-9.4.5-.6-.1-.7-.4-1.1-.7-.7-.5-1.6.2-2 .9-1.2 2.4-1.4 5.4-4.7 4.8-4-.8-1.3-2.5-2.6-4.7-.2-.3-.5-.5-.8-.8-.9-1-.8-2.5-.6-3.8.8.4 1.8-.1 2.1-.9.1-.3.1-.7.3-.9.5-.5 1.4-.1 1.6.6.2.7.1 1.4.2 2.1.2.7.9 1.3 1.5 1 .3-.2.4-.4.5-.7.4-1.2.1-2.5-.7-3.5.7-.2 1.1-.8 1.1-1.5s-.5-1.3-1.2-1.4c-1-.2-2.3.4-2.7-.6.2.8-.2 1.7-.8 2.1-2.5 1.9-8.3.2-7.8 5.6.1.9.4 1.7.4 2.6 0 .9-.5 1.9-1.3 2 1.6 1.2 1 4.1 2.6 5.2.8.5 1.9.4 2.6-.3.1-.1.2-.3.4-.3.3-.1.6.2.9.3.5.1 1-.5 1.6-.5.8-.1 1.2.9 1.3 1.7.2.8.4 1.7 1.1 1.9.3.1.5.1.8.1.5.2.8.7.8 1.2.1.5-.2 1-.4 1.6-.3.3-.9.1-1.2-.2-.3-.3-.5-.8-.8-1.1-.2-.2-4.8.2-4.7-.2-.7 1.6-1 5.1-3.4 4.2-.8-.3-1.7-.9-2.6-.6.4-1.1.8-2.2 1.2-3.4-.4-.3-.9.1-1 .6-.2.5-.2 1-.6 1.2-.3.2-.6.2-.9.2-1.1 0-2.1-.1-3.2-.1s-2.5.1-3.2.9c-.8 1-.4 2.6.5 3.6.2.3.5.5.4.8 0 .3-.3.5-.5.7-1.1 1-1.8 2.5-1.6 4 .3 1.5 1.6 2.8 3.1 2.7.6-.1 1.3-.3 1.7.2.2.3.2.7.5.9.4.2.7-.3 1-.6.5-.6 1.4-.7 2.1-.4.4.2 1.4 3.5 1.1 3.9-.6 1.1-3.7.7-4.9.7-.5 0-1 .1-1.2.4-.5.5-.1 1.4.4 1.9s1.2.9 1.4 1.6c.2.4.2.8.1 1.2-.1.8-.1 1.8-.8 2.3-.3.3-.7.4-1 .6-.7.6-.7 1.7-.5 2.5.3.9.7 1.7.9 2.5.4 1.9-.7 3.9.1 5.7.4.8 1.5 1.6 2.2.9.6-.5.6-1.8 1.4-1.8.8-.1 1.7 1.8 2.3 2.2.5.3 1.5-.2 2.4.5.9.8 1.1 2 1.9 2.6zM168.8 181.2c.8-1 1.3-2.1 2.7-2.4 2-.4 2.7.8 1.9 2.7-.1.2-.2.4-.1.5.2.6 1 .3 1.5-.1 1.1-.8 2.6-.7 3.8-.2.3.1.8-5.3.6-6-1-2.2-5.6-1.2-4.7-3.6 1.7-.1 3.5.2 5.2.3.1-.8.2-1.7.3-2.5-.1.6 3.2.5 3.5.3 1.4-.7 1-3.3 3.6-2.9 3.2.5 3.4 6.9-.3 5.8-.9 1.9-1.2 4.1-1.3 6.2h-2c-.3.5-.4 1.1-.3 1.6 1.6 1.1 3.9 1.1 5.5.1 1 .8 2.5.1 3.6-.7 1.5 2.4 5.8 2.1 6.9-.6 1.1-2.6-1.7-6-4.5-5.4-.1-1.3-.5-2.6-1.3-3.7 3.5.1 6.9-2.2 8-5.5.6-1.7.7-3.7 2.1-4.7.6-.5 1.4-.7 2.1-1.1 1.4-1 1.9-2.9 2.1-4.6.2-1.1.3-2.3.3-3.5-20.6 3.3-39 13.9-52.3 29.1-.1.6-.1 1.2.2 1.8.5 1 1.7 1.4 2.7 1.7 4.2 1.1 6.9.9 9.9-2.4.1 0 .2-.1.3-.2z" opacity=".4"/><path class="st1" d="M7.8 146.3c0 4.8 2.6 9 6.5 11.2 1.9 1.1 4.1 1.7 6.5 1.7 3 0 5.8-1 8-2.7 3-2.4 5-6.1 5-10.2 0-7.1-5.8-12.9-12.9-12.9s-13.1 5.8-13.1 12.9z"/><circle class="st5" cx="20.7" cy="146.3" r="12.2"/><path class="st1" d="M13.5 146.1c.2 1.6 1.5 1.8 1.5 1.8s-.3.8.1 1.8 2.4 1 2.4 1 .2.5.9.6c.1.1.1.1.1.2.1.1.2.3.3.4.3 2 .2 4-.8 5.1-.8.1-1.7.2-2.5.4-.4.1-.8.1-1.2.2 1.9 1.1 4.1 1.7 6.5 1.7 3 0 5.8-1 8-2.7h-3.5v-.1c-1.4-.2-2.1-.9-2.3-1.7-.2-.4-.2-.9-.2-1.3.4-.1.7-.2 1.1-.4 1-.5 1.8-1.3 2.2-2.4.1-.2.1-.3.2-.5.3-1.1.4-2.5.3-3.8.4-.2.8-.6.9-1.2.3-1.3-.9-1.6-.9-1.6s1.3-.2 1.3-1.8-1.3-1.6-1.3-1.6.5-.7-.5-2c-.9-1.2-2.2-.5-2.2-.5s-1-1.5-2.5-1.1-2 1.3-2 1.3 0-.9-1.8-.4-1.6 2.6-1.6 2.6-1.2-.6-1.8.7.7 3.6.7 3.6-1.6.2-1.4 1.7z"/><path class="st6" d="M7.8 146.3c0 4.8 2.6 9 6.5 11.2 1.9 1.1 4.1 1.7 6.5 1.7 3 0 5.8-1 8-2.7 3-2.4 5-6.1 5-10.2 0-7.1-5.8-12.9-12.9-12.9s-13.1 5.8-13.1 12.9z"/><circle class="st1" cx="14.2" cy="373.6" r="11.5"/><path class="st5" d="M25 373.6c0 2.5-.8 4.8-2.3 6.6-2 2.5-5.1 4.2-8.6 4.2-2.3 0-4.3-.7-6.1-1.9-2.8-2-4.7-5.2-4.7-9 0-6 4.9-10.9 10.9-10.9s10.8 5 10.8 11z"/><path class="st1" d="M22.7 380.2c-2 2.5-5.1 4.2-8.6 4.2-2.3 0-4.3-.7-6.1-1.9.4-.8.6-1.3.6-1.3 1.3-.4 2.7-.8 4.1-1 .4-.3.8-.6 1.4-.7.3-.9.1-1.8-.1-2.5-.4-.3-.8-.7-1.1-1.1l-.6-.6c-.3-.2-2.6-1.2-2.7-5v-.5c-.7-.1-1.4.2-.9 1.6.9 2.5-.1 3.8-.1 3.8.1-.8-.1-1.7-.1-1.7 0 2.6-1.4 2.7-1.4 2.7s.9-.9-.4-3.8-.9-6.8 1.6-7c1.3-.1 2.2.6 2.8 1.1 1.4-1.2 3.6-1.5 4.9-.6 0 0 2.2-.6 2.9.1.2.1.1.4-.3.8.6.4 1 1 1.2 1.9.4 1.6-.1 2.7-.6 3.5.3 2.8-.2 5-2.4 5.2v.5c0 .6.1.9.2 1.2.3.1.7.2.9.3 2 0 4.3.2 4.3.2.2.3.4.4.5.6z"/><circle class="st6" cx="14.2" cy="373.6" r="11.5"/><circle class="st1" cx="435.4" cy="283.7" r="12.7"/><path class="st5" d="M447.3 283.7c0 2.4-.7 4.7-2 6.6-2.1 3.2-5.8 5.3-10 5.3-2.7 0-5.3-.9-7.3-2.5-2.8-2.2-4.7-5.6-4.7-9.5 0-6.6 5.4-12 12-12 6.7.1 12 5.5 12 12.1z"/><path class="st1" d="M445.4 290.4c-2.1 3.2-5.8 5.3-10 5.3-2.7 0-5.3-.9-7.3-2.5-.2-.7 0-1.4.1-2 .2-1.4 1.8-2.6 1.8-3.7-.1-1-1.7-2.3-.6-2.9s1.3-2.8.5-4.1c-.7-.8-1.3-2.2.1-3.9.8-1.1 2-1.6 3.3-1.8.8-.5 2-.7 3.5-.5s2.6.6 3.5 1.2 1.4 1.4 1.8 2.3c0 0 1.3 2.5.4 5.2-.6 1.7 2.1 1.6 2.1 3.2.1 1.6-1.2 1.7-1 2.7 0 .4.9.8 1.8 1.5z"/><circle class="st6" cx="435.4" cy="283.7" r="12.7"/><path transform="rotate(-23.44 332.217 178.661)" class="st1" d="M279.4 178.1H385v1.1H279.4z"/><path transform="rotate(-31.756 170.645 135.23)" class="st1" d="M170.1 95.9h1.1v78.7h-1.1z"/><path transform="rotate(-11.836 109.694 291.447)" class="st1" d="M54.8 290.9h109.8v1.1H54.8z"/><path transform="rotate(-23.44 332.217 178.661)" class="st7" d="M279.4 178.1H385v1.1H279.4z"/><path transform="rotate(-32.067 327.068 312.17)" class="st1" d="M326.5 253.9h1.1v116.5h-1.1z"/><path transform="rotate(-32.067 327.068 312.17)" class="st7" d="M326.5 253.9h1.1v116.5h-1.1z"/><path transform="rotate(-31.756 170.645 135.23)" class="st7" d="M170.1 95.9h1.1v78.7h-1.1z"/><path transform="rotate(-11.836 109.694 291.447)" class="st7" d="M54.8 290.9h109.8v1.1H54.8z"/><path class="st1" d="M160.6 401.8L55.3 302.9l14.9-112.5.1-.1 79.3-89 .2-.1 143.7-19.9 87.7 76-.1.3-22.7 204.2-.4.1-197.4 39.9zM56.5 302.5l104.4 98.2L357.6 361l22.5-203.2-86.9-75.3-143 19.8-78.9 88.6-14.8 111.6z"/><path class="st7" d="M160.6 401.8L55.3 302.9l14.9-112.5.1-.1 79.3-89 .2-.1 143.7-19.9 87.7 76-.1.3-22.7 204.2-.4.1-197.4 39.9zM56.5 302.5l104.4 98.2L357.6 361l22.5-203.2-86.9-75.3-143 19.8-78.9 88.6-14.8 111.6z"/><path class="st1" d="M192.9 168.7l-1.6 9.5-1.6-9.5z"/><path class="st1" d="M196.1 168.7c0 2.6-2.1 4.7-4.7 4.7s-4.7-2.1-4.7-4.7 2.1-4.7 4.7-4.7 4.7 2.1 4.7 4.7z"/><path class="st5" d="M191.8 165.4c.5.7.1 1.9-.9 2.7s-2.3.9-2.8.2-.1-1.9.9-2.7c1-.8 2.2-.9 2.8-.2z"/><path class="st1" d="M285.4 199.6l-1.6 9.5-1.6-9.5z"/><circle class="st1" cx="283.8" cy="199.6" r="4.7"/><path class="st5" d="M284.2 196.3c.5.7.1 1.9-.9 2.7s-2.3.9-2.8.2c-.6-.7-.1-1.9.9-2.7 1.1-.8 2.3-.9 2.8-.2z"/><path class="st1" d="M165.1 279.7l-1.7 9.5-1.6-9.5z"/><circle class="st1" cx="163.4" cy="279.7" r="4.7"/><path class="st5" d="M163.9 276.3c.5.7.1 1.9-.9 2.7-1 .8-2.3.9-2.8.2s-.1-1.9.9-2.7c1-.8 2.2-.8 2.8-.2z"/><path class="st1" d="M297.8 262.8l-1.6 9.5-1.6-9.5z"/><path class="st1" d="M300.9 262.8c0 2.6-2.1 4.7-4.7 4.7s-4.7-2.1-4.7-4.7 2.1-4.7 4.7-4.7 4.7 2 4.7 4.7z"/><path class="st5" d="M296.6 259.4c.5.7.1 1.9-.9 2.7-1 .8-2.3.9-2.8.2s-.1-1.9.9-2.7c1-.8 2.3-.9 2.8-.2z"/><path class="st1" d="M417.1 159.9c0 8.1-2.7 15.7-7.2 21.7-1.6 2.2-3.5 4.1-5.5 5.8-1.8 1.6-3.8 3-6 4.1-5.2 2.8-11.1 4.5-17.5 4.5-5.3 0-10.4-1.1-15-3.3l-1.2-.6c-2.5-1.2-5-2.8-7.1-4.7-3.3-2.7-6-6-8.1-9.7-3.1-5.3-4.8-11.4-4.8-18 0-20 16.2-36.2 36.2-36.2 20 .1 36.2 16.3 36.2 36.4z"/><circle class="st6" cx="380.9" cy="159.9" r="35.1"/><path class="st8" d="M357.6 176.3l3.4-14.1s2.2-1.7 2.3-2.9c.2-1.2-1.3-8.6-2.3-9.1-.9-.5-6.5 1.5-6.7 3.1-.3 1.6 1.9 7.8 2.3 8.3L351 178l6.6-1.7z"/><path class="st1" d="M360.3 168.2l-2 18.5c-3.2-2.6-5.8-5.8-7.9-9.4 1.2-4.5 2.5-8.4 3.1-10.2.2-.6.3-1 .3-1l1.2.2 4.8.6.6.1-.1 1.2z"/><path class="st1" d="M369.6 180.1l-3.2 11.7-1.2-.6c-2.5-1.2-4.8-2.7-6.9-4.6.3-.6 6.7-15.2 9.1-15l2.2 8.5z"/><path class="st9" d="M360.3 168.2l-2 18.5c-3.2-2.6-5.8-5.8-7.9-9.4 1.2-4.5 2.5-8.4 3.1-10.2.2-.6.3-1 .3-1l1.2.2 4.8.6.6.1-.1 1.2z"/><path class="st9" d="M369.6 180.1l-3.2 11.7-1.2-.6c-2.5-1.2-4.8-2.7-6.9-4.6.3-.6 6.7-15.2 9.1-15l2.2 8.5z"/><path class="st1" d="M361.8 165.8l-1.1 2.4-7.7-1.2.2-1.5z"/><path class="st10" d="M402.3 147.7c-.9 3.5 4 12.9 2 30.2s-21 16.2-29.5 10.5-7-37.1-4.1-43.2c3-6.1 31.6 2.5 31.6 2.5z"/><path class="st1" d="M407.3 175.7c-.2.5-.4 1-.5 1.5-.2.5-.4 1-.5 1.4-.3.9-.6 1.9-.9 2.8-.6 1.8-1.1 3.5-1.7 5.1-1.8 1.6-3.7 2.9-5.8 4-5 2.8-10.8 4.4-17 4.4-5.2 0-10.1-1.1-14.5-3.2l-1.2-.6v-2c0-1 .1-1.9.1-2.8.1-.6.1-1.1.1-1.7 0-.3.1-.5.1-.8.1-1 .1-1.9.2-2.6 0-.3.1-.5.1-.8.1-.8.1-1.4.2-2.1.4-4 .9-5.6 1.3-6.3.1-.2.2-.2.2-.3l.2-.2s.5-.1 1.4-.1c2.3-.2 7.2-.6 11.6-.5h.3c.6 0 1.2.1 1.8.1 2.3.1 4.6.3 6.8.6.8.1 1.7.2 2.5.4.9.2 1.8.3 2.7.4.1.1.3.1.4.1 3.3.6 6.6 1.3 9.9 2.3.4.4 1.4.6 2.2.9z"/><path class="st9" d="M407.3 175.7c-.2.5-.4 1-.5 1.5-.2.5-.4 1-.5 1.4-.3.9-.6 1.9-.9 2.8-.6 1.8-1.1 3.5-1.7 5.1-1.8 1.6-3.7 2.9-5.8 4-5 2.8-10.8 4.4-17 4.4-5.2 0-10.1-1.1-14.5-3.2l-1.2-.6c0-.4 0-.7.1-1v-1c0-1 .1-1.9.1-2.8.1-.6.1-1.1.1-1.7 0-.3.1-.5.1-.8.1-1 .1-1.9.2-2.6 0-.3.1-.5.1-.8.1-.8.1-1.4.2-2.1.4-4 .9-5.6 1.3-6.3.1-.2.2-.2.2-.3l.2-.2s.5-.1 1.4-.1c2.3-.2 7.2-.6 11.6-.5h.3c.6 0 1.2.1 1.8.1 2.3.1 4.6.3 6.8.6.8.1 1.7.2 2.5.4.9.2 1.8.3 2.7.4.1.1.3.1.4.1 3.3.6 6.6 1.3 9.9 2.3.3.4 1.3.6 2.1.9z"/><path class="st3" d="M387 170.2c7.8.6 8.7 2.9 7.9 4.2s-11.3 11.5-14.5 18.4c0 0-11.4-24 6.6-22.6z"/><path class="st8" d="M383 178c7.7-1 10-4.2 10-4.2-4.9-4.6-.8-12.6-.8-12.6l-9.3 1.7c.3 1.6.4 2.8.4 3.9.1 5.6-2.5 5.6-2.5 5.6-1.6 3.1 2.2 5.6 2.2 5.6z"/><path class="st11" d="M382.9 162.9c.3 1.6.4 2.8.4 3.9 6.3 0 8.9-5.6 8.9-5.6l-9.3 1.7z"/><path class="st8" d="M388 137c-8-.5-10.9 3.7-11.9 12-1.3 10.3.6 17.8 10.8 16.1 13.8-2.2 14.4-27.3 1.1-28.1z"/><path class="st12" d="M381.3 148.8s-1.2 2-2.5 3.2c0 0 .6 1.1 2.1 1l.4-4.2z"/><path class="st10" d="M386.3 148.5c-.1.7.3 1.2.7 1.2.4.1.8-.5.9-1.1.1-.7-.3-1.2-.7-1.2-.5-.1-.9.4-.9 1.1z"/><path class="st10" d="M387.4 147.4l-1.4-.7s.6 1.3 1.4.7zm-9.3.3c-.1.7.3 1.2.7 1.2.4.1.8-.5.9-1.1.1-.7-.3-1.2-.7-1.2-.4-.1-.9.4-.9 1.1z"/><path class="st10" d="M379.2 146.6l-1.4-.7s.6 1.3 1.4.7zm10.9-1.9c-.1 0-.2-.1-.3-.2-1-1.4-3.1-1.2-3.1-1.2-.2 0-.4-.2-.4-.4s.2-.4.4-.4c.1 0 2.5-.2 3.7 1.6.1.2.1.4-.1.5 0 .1-.1.1-.2.1zm-12.5-1.6c-.1 0-.3-.1-.3-.2-.1-.2-.1-.4.2-.5 2-1.2 3.5-.5 3.6-.5.2.1.3.3.2.5-.1.2-.3.3-.5.2-.1 0-1.2-.5-2.9.5h-.3zm4.3 13.2c.4 1 .8 2.8.8 2.8h.5c2.3-.1 3.4-.9 3.9-1.8.3-.5.3-1 .3-1.4 0-.5-.1-.8-.1-.8-1.2.8-3.4 1.1-4.6 1.2h-.8z"/><path class="st3" d="M382.7 156.3l.3.8c2.2-.1 3.8-.5 4.4-1.2 0-.5-.1-.8-.1-.8-1.3.8-3.5 1.1-4.6 1.2z"/><path class="st12" d="M383.2 159.1c2.3-.1 3.4-.9 3.9-1.8-.8.1-1.8.3-2.6.6-.7.4-1.1.8-1.3 1.2z"/><path class="st10" d="M396.1 151.1s-3.4-6.8-2.5-11.9c0 0-15.6-7.4-17.2 8.7 0 0-.8-14.4 13-14s12.7 20.6 5.2 26.3c-.1 0 3.5-4.8 1.5-9.1z"/><path class="st8" d="M394.7 152.7c.1-1.3 1.6-3.4 4-3 2.5.4 3.4 5.6-2.9 6.5-1 .1-1.4-.8-1.1-3.5z"/><path class="st10" d="M391.3 138.4s-1.3 9.9 4.7 18.9c4.5 6.8-.7 12.8-.7 12.8s8-5.1 8.3-12.8c0 0 6.6-18.4-7.1-23.4 0 0-.1-4.1-9-3.4-9 .8-16.2 8.5-17.5 18.3s3.7 20.8 3.7 20.8-5.4-34.7 17.6-31.2z"/><path class="st10" d="M391.9 138.6c-.6 2.2-.8 4.7-.7 7.1.2 2.4.5 4.8 1.1 7.2s1.5 4.7 2.7 6.8 2.6 4.1 4.6 5.7c-2-1.5-3.5-3.5-4.8-5.6s-2.3-4.4-2.9-6.8c-.7-2.4-1.2-4.8-1.4-7.3-.2-2.5-.2-5 .5-7.5l.9.4z"/><path class="st1" d="M409.1 180.9c-1.6 2.1-3.4 4-5.3 5.7-1.8 1.6-3.7 2.9-5.8 4 .1-.5.3-.9.4-1.4 1.4-3.9 3.8-7.5 5.8-9.9 1.7-2 2.9-3.4 3.2-3.6l.1-.1c.7.8 1.2 2.7 1.6 5.3z"/><path class="st9" d="M409.1 180.9c-1.6 2.1-3.4 4-5.3 5.7-1.8 1.6-3.7 2.9-5.8 4 .1-.5.3-.9.4-1.4 1.4-3.9 3.8-7.5 5.8-9.9 1.7-2 2.9-3.4 3.2-3.6l.1-.1c.7.8 1.2 2.7 1.6 5.3z"/><circle class="st1" cx="292.2" cy="84.1" r="19.8"/><path class="st5" d="M310.9 84.1c0 4.9-1.9 9.4-5 12.7-3.4 3.7-8.3 6-13.7 6-5.8 0-11-2.6-14.4-6.8-2.7-3.2-4.3-7.3-4.3-11.9 0-10.3 8.3-18.6 18.6-18.6 10.4 0 18.8 8.4 18.8 18.6z"/><path class="st1" d="M305.9 96.8c-3.4 3.7-8.3 6-13.7 6-5.8 0-11-2.6-14.4-6.8.1-.1.2-.1.3-.1.3-.3.5-.7.9-.9v-.2l.3-.1c.5-.3 1.2-.5 2-.5.2 0 .4 0 .6.1l1.1-.2v.3c1.4.1 3.7.3 6.3.4.6-.5.9-1 1.1-1.7s.3-1.4.2-2.1c-.9-.1-1.8-.3-2.6-.7-1.4-.7-2.6-2-3.2-3.7-.1-.2-.2-.5-.2-.7-.5-2-.6-4.6-.1-7h-.2c-.1 0-.2-.1-.2-.2v-.1c0-.1.2-.2.3-.2h.1c-.2-1.6.1-3.2.3-4.2-.7-1.1-.7-3.4-.1-4.2.7-1 .2-.5 2-.6s.7-1.8 1.9-1.8c1.1 0 .9.7 2.3 1.2s.9-1.1 2.5-1.2c1.6-.2 1.9 1.1 3 1.4s1.4 0 2.2 0 .9 2.5 1.3 2.9 1-.2 1.7 1c.1.2.2.4.2.6 0 1.7-2.1 4.8-2.1 4.8-.1.7-.2 1.5-.4 2.3.6.6.8 1.6.4 2.5-.4.8-1 1.5-1.8 1.9-.4.8-.8 1.6-1.2 2.1-.5 2.8-.8 6.2.2 8.3 3.6.4 6.8.8 9 1.4z"/><circle class="st13" cx="292.2" cy="84.1" r="19.8"/><circle class="st1" cx="160.8" cy="399.5" r="19.8"/><path class="st14" d="M179.4 399.5c0 5.3-2.2 10.1-5.8 13.5-3.3 3.2-7.9 5.1-12.8 5.1-3.9 0-7.6-1.2-10.6-3.3-4.9-3.4-8.1-9-8.1-15.4 0-10.3 8.3-18.6 18.6-18.6 10.4.1 18.7 8.4 18.7 18.7z"/><path class="st1" d="M173.5 413.1c-3.3 3.2-7.9 5.1-12.8 5.1-3.9 0-7.6-1.2-10.6-3.3 1.3-.2 2.8-.4 4.2-.5 1.1-2.4.8-6.3.3-9.6-.4-.6-.9-1.4-1.3-2.4-.9-.5-1.6-1.3-2.1-2.2-.5-1-.3-2.2.4-2.8-.4-1.7-.6-3.2-.6-4.5l-.1.1s-1.5-5.8 4.1-7.9 11.3 1.7 11.3 1.7 1.2-2.3 2.6-1.7c1.2.5.6 2.1.4 2.6.2-.3.5-.8 1.3-1.1 1-.5 2.4.8-.7 3.9-.3.3-.7.6-1.1.8.2 1.2.3 2.7.1 4.2.6 2.8.5 5.8-.1 8.1-.1.3-.2.5-.3.8-.7 1.9-2.1 3.4-3.7 4.2-.9.5-2 .8-3 .8-.1.9 0 1.7.3 2.5.3.7.7 1.4 1.3 1.9 2.9-.2 5.5-.4 7.2-.5 0-.3-.1-.4-.1-.4l1.3.3c.8-.2 1.3-.2 1.7-.1z"/><circle class="st13" cx="160.8" cy="399.5" r="19.8"/><circle class="st1" cx="70.8" cy="190.6" r="19.8"/><path class="st14" d="M89.4 190.6c0 4.8-1.8 9.1-4.8 12.4-3.4 3.8-8.4 6.2-13.9 6.2-4.1 0-7.9-1.3-11-3.6-4.7-3.4-7.7-8.9-7.7-15.1 0-10.3 8.3-18.6 18.6-18.6s18.8 8.4 18.8 18.7z"/><path class="st1" d="M84.6 203.1c-3.4 3.8-8.4 6.2-13.9 6.2-4.1 0-7.9-1.3-11-3.6l7.4-2.3c.2.2.3.3.4.5.3-.1.6-.1.9-.2l1.8-.3c.4-.7.7-1.5.7-2.3-.6.1-1 .1-1 .1.2-.7-.9-2.3-.9-2.3l-.4 2s-.7-.1-1.2-.4c-.5-.3-1.1-2.5-1.1-2.5s-1.3 2.1-1.6 2.6c-.3.5-1 0-1 0s-.5-1.9.1-3.8-1.3-1.9-1.3-1.9 0 .8-.5 2.1-.5 2-.5 2.7c0 .8.1 1.3-.5 1.3s-.6-.5-.6-1.3c.1-.8-.8-1.7-.3-2.3.5-.7.1-2.5.1-2.5-.3 1.3-1.8 1.2-2 2.2-.3.9.7 2.2.3 2.7s-1.2 0-1.2 0 .6-1 .2-1.6c-.4-.6-1.1-.9-.8-2.1.3-1.2.9-1.2.7-2.5s-.8-1.2 0-1.8c.8-.5 1.9-2.8 1.9-3.9s-.4-3.4 1.3-4.2c1.8-.8 2.2-1.4 1.9-3.7-.3-2.2 1.3-2 3.5-1.6 0 0 1-1.7 2-1.3 1 .3 1.8.1 2-.4.2-.6 2.9-.5 3.4 0 .4.5 1.9.9 2.8.5s3.3 1.1 3.2 2.1c-.1 1-.1 1.6 1.2 2.1 1.3.6 1.5.9 2.1 3.1s-.4 3.1.7 4c1.1.8 1 4.3 1 5.3.1 1 0 2.2 0 2.2l-.3.1c-.3.1-.6-1.1-.5-2.1.1-.9-1.9-2.1-2.1-2.2.1.1.4.8.6 1.4.3.6.3 2.3.3 3.3-.1 1 1.2 1.7 1.2 1.7l-1.3.7s-1-2.3-.7-3.4c.4-1.2-.7-2.2-.7-2.2v2.2s-.4.8-.9 1.9c-.6 1 .4 1.3.6 1.9.2.6-1.2.6-1.2.6l-.3-1.3-.5 1.3c-.5.4-1.5.6-2.7.8.1 1 .3 1.7.5 2.1.5 0 .9-.1 1.3-.1.9 0 1.8 0 2.6.1 1.8.1 3.3.2 4.3.3z"/><circle class="st13" cx="70.8" cy="190.6" r="19.8"/><circle class="st1" cx="148.5" cy="100.2" r="33.2"/><path class="st6" d="M180.6 100.2c0 7.3-2.5 14.1-6.7 19.6-1.1 1.5-2.4 2.9-3.8 4.1-1.3 1.2-2.6 2.2-4.1 3.2-.1.1-.1.1-.2.1-1.1.7-2.3 1.4-3.6 2-4.1 2-8.8 3.1-13.7 3.1-9.8 0-18.5-4.4-24.4-11.3-4.8-5.6-7.7-12.8-7.7-20.8 0-17.7 14.4-32.1 32.1-32.1 17.7 0 32.1 14.4 32.1 32.1z"/><g id="_x3C_Group_x3E__4_"><path class="st15" d="M156 100.2c.7-1.6 1.2-.9 3.3.7 2 1.6 2.4 3 2.4 4.7s-.3 5-.3 5l5.3 6-2.4 3.6-6.2-7s-3.1-2.3-3.6-4.9c-.5-2.6 1.5-8.1 1.5-8.1z"/><path class="st10" d="M155.3 98.4l4.3 7.8c.2.4.2.8-.1 1.1l-3.4 3.9c-.4.5-1.2.4-1.6-.2l-3.9-6.4 4.7-6.2z"/><path opacity=".4" fill="#007cff" d="M155.1 99.2l3.8 7.3-3.6 4.2-4-6.3z"/><path class="st1" d="M166 127c.1.2.1.3.1.5-.1-.1-.2-.2-.3-.4-1.1.7-2.3 1.4-3.6 2 .3-2.2.6-4.2.9-5.8.3-1.5.5-2.8.7-3.7.2-.9.3-1.4.3-1.5.4.1.8.2 1.1.4 1.7.8 3.3 2.7 4.9 5.3-1.3 1.2-2.6 2.3-4.1 3.2z"/><path class="st1" d="M166.1 127.5c-.1-.1-.2-.2-.3-.4-1.1.7-2.3 1.4-3.6 2-4.1 2-8.8 3.1-13.7 3.1-9.8 0-18.5-4.4-24.4-11.3.6-.2 1.1-.3 1.7-.4.1 0 .1 0 .2-.1.1 0 .2-.1.4-.1 1.4-.3 2.9-.5 4.5-.7h.1c.7-.1 1.3-.2 2-.3.9-.1 1.8-.2 2.6-.3h.2c2-.2 4-.4 5.9-.6.6-.1 1.3-.1 1.9-.1.8-.1 1.6-.1 2.4-.2.8-.1 1.6-.1 2.3-.1.3 0 .6 0 .9-.1.9-.1 1.9-.1 2.7-.1 2.8-.1 5.4-.1 7.3-.1h1.3c.7 0 1.4.1 1.9.1 1.1 0 1.7.1 1.7.1.2.5.3 1 .4 1.5.6 2.2 1.1 4.7 1.6 7.3-.1.5 0 .7 0 .8z"/><path class="st11" d="M166.1 127.5c-.1-.1-.2-.2-.3-.4-1.1.7-2.3 1.4-3.6 2-4.1 2-8.8 3.1-13.7 3.1-9.8 0-18.5-4.4-24.4-11.3-.3.1-.5.1-.8.2.3-.1.5-.1.8-.2.6-.1 1.1-.3 1.7-.4.1 0 .1 0 .2-.1.1 0 .2-.1.4-.1 1.4-.3 2.9-.5 4.5-.7h.1c.7-.1 1.3-.2 2-.3.9-.1 1.8-.2 2.6-.3h.2c2-.2 4-.4 5.9-.6.6-.1 1.2-.1 1.9-.2.8-.1 1.6-.1 2.4-.2.8-.1 1.6-.1 2.3-.1.3 0 .6 0 .9-.1.9-.1 1.9-.1 2.7-.1 2.8-.1 5.4-.1 7.4-.1h1.3c.7 0 1.3.1 1.9.1 1.1.1 1.7.1 1.7.1.2.5.3 1 .4 1.5.6 2.2 1.1 4.7 1.6 7.3-.2.6-.1.8-.1.9z"/><path class="st15" d="M135.4 119.1c3.5 3.2 12.2 2 12.2 2s5.4-1.5 4.2-3.2c-3.2-.5-4.7-2-5.3-3.9-.4-1.1-.4-2.3-.3-3.6.1-.7.2-1.3.3-2l-10.7-7.9c1.3 5.2 3 14.8-.4 18.6z"/><path class="st11" d="M138.1 105.5c.4 6.4 5.7 8.2 8.3 8.5-.4-1.1-.4-2.3-.3-3.6l-8-4.9z"/><path class="st10" d="M156.6 85.3s1.5 10-3.8 13.8-5.3-14.7-5.3-14.7l9.1.9z"/><path class="st15" d="M137.4 107c2.6 3.7 6.8 4.7 10.4 3.5 2.3-.7 4.5-2.4 5.7-4.7.2-.3.3-.6.5-1 2.6-6.1 3.4-16.8-3-20.8-4.6-2.9-10.7-1.5-13.5 3.1-.8 1.3-1.3 2.8-1.4 4.3-.8 7.2-1.6 11.4 1.3 15.6z"/><path class="st10" d="M146.5 95.3c-.2.6.1 1.1.5 1.1.4.1.8-.4.9-.9.1-.6-.2-1.1-.5-1.1-.5-.1-.8.4-.9.9zm6.4 1.1c-.2.6.2 1.1.5 1.1.4.1.8-.4.9-.9s-.2-1.1-.5-1.1c-.3-.1-.8.4-.9.9z"/><path d="M150.8 96.4c.4 1.9 1 3.7 1.9 5.4-.9.4-2 .5-2.8.1l.9-5.5z" fill="#d58745"/><path class="st10" d="M144.8 92.8c.1.1.3 0 .4-.1.6-.6 1.5-.9 2.4-.8.2.1.4-.1.4-.3s-.1-.4-.3-.4c-1.1-.2-2.2.2-3 .9-.2.1-.2.4-.1.5.1.2.2.2.2.2zm11.4 1.9c.1.1.1.1.2.1.2-.1.3-.3.3-.4-.3-1.1-1.1-1.9-2.1-2.3-.2-.1-.4.1-.4.2-.1.2.1.4.2.4.8.3 1.4 1 1.7 1.9-.2 0-.1.1.1.1zm-13.4-11.1v3.2c-1.1.4-1.9 1.5-1.6 2.8.7 2.7-1.3 6.7-3.5 8.1 0 0 .1-1.1-.9-1-1 .2-1.4 6.2.1 9.2 0 0-2.5-2.9-3.4-9.4-.8-6-.4-10.8 1.1-12.9h8.2z"/><path class="st15" d="M132 96.8c.5 1.7 1.7 3.2 3.3 4 2.1 1.1 3.7-.6 3.5-2.9-.2-2-1.4-5.1-3.7-5.3-2.4-.1-3.7 2.1-3.1 4.2z"/><path class="st10" d="M142.8 86.8s2.1 2.1 4.1.6c0 0 2.3 1.9 4.1.6 0 0 1 1.7 2.7 1.9s1.7-1.5 1.7-1.5 2.6 1.5 3.6.8-.5-3.5-.5-3.5 1.2-.7.5-2.9c-.8-2.3-4.5-1.8-4.5-1.8s.2-2.1-2.4-4.3c-2.5-2.2-4.1.5-4.1.5s-2.5-3.4-5.5-2.9-2.7 2.5-2.7 2.5-3.5-2.2-5.1 0 0 3.3 0 3.3-3.5 1.2-3.4 3.6c.2 2.4 2 2.1 2 2.1s-1 1.1 1.3 2.1 4.5-1.4 4.5-1.4-.9 1.3.8 2.3c1.3.8 2.9-2 2.9-2zm6.9 17.1c-.8.7-2 2.2-2 2.2-.2-.1-.3-.2-.5-.3-2-1.2-2.6-2.4-2.6-3.4 0-.6.2-1 .4-1.4s.5-.7.5-.7c.7 1.3 2.5 2.5 3.5 3.2.5.3.7.4.7.4z"/><path class="st3" d="M149.1 103.5l-.6.6c-1.9-1.1-3.1-2.2-3.4-3.1.2-.4.5-.7.5-.7.7 1.3 2.5 2.6 3.5 3.2z"/><path class="st12" d="M147.3 105.8c-2-1.2-2.6-2.4-2.6-3.4.7.4 1.4 1 2 1.8.4.5.6 1.1.6 1.6z"/><path class="st1" d="M147.5 121.1s-12.5-8.5-16.4-9c-4-.5-3.3 4.5-3.3 4.5s-3.1 0-1.9 3.8 18.1 5.8 24.4 4c6.3-1.9 10-5.4 9-8.7-1-3.3-3.9-.5-3.9-.5s-1.7-3.1-4.1-2.4c-2.5.8-3.8 8.3-3.8 8.3zm26.5-1.4c-1.1 1.5-2.4 2.9-3.8 4.1-1.3 1.2-2.6 2.2-4.1 3.2.1.2.1.3.1.5-.1-.1-.2-.2-.3-.4-.8-1.1-1.8-2.4-2.7-3.9-1.1-1.8-2.2-3.7-2.6-5.2-.2-.5-.3-.9-.3-1.3l-1-1.4.4-.4 2.7-3.2.6-.7 1.2 1.6s1.5-.5 6.4 3.6c1.1 1 2.3 2.3 3.4 3.5z"/></g><circle class="st1" cx="56.9" cy="304.2" r="31.4"/><path class="st6" d="M87.2 304.2c0 7.2-2.5 13.9-6.8 19.1-1.3 1.6-2.7 3-4.3 4.3-.5.4-1 .8-1.6 1.2-1.4 1.1-3.1 2-4.7 2.8-3.9 1.9-8.3 2.9-12.9 2.9-5.5 0-10.8-1.5-15.2-4.1-1.1-.7-2.2-1.4-3.3-2.2l-.2-.2c-1.2-.9-2.4-2-3.4-3.2-5.1-5.4-8.1-12.7-8.1-20.6 0-16.7 13.6-30.3 30.3-30.3 16.6.1 30.2 13.7 30.2 30.3z"/><path class="st10" d="M76.1 327.6c-.5.4-1 .8-1.6 1.2-1.4 1.1-3.1 2-4.7 2.8-3.9 1.9-8.3 2.9-12.9 2.9-5.5 0-10.8-1.5-15.2-4.1-1.1-.7-2.2-1.4-3.3-2.2l-.2-.2c0-.1.1-.2.1-.2.3-1 .5-2 .7-3.1.3-1.4.6-2.9.9-4.5.7-4 1-8.4.9-12.8-.5-16 2.4-21.9 9-25 .3-.2.6-.3.9-.4 1.6-.7 3.1-.8 4.6-.6 5.6.8 10.5 6 10.5 6s1.1 1.5 2.6 4.3c2.6 5.1 6.6 14.6 7.5 27.6.1 2.7.3 5.5.2 8.3z"/><path class="st1" d="M75.8 319.4c-1.2-.9-2.3-1.5-3.2-1.7 0 0-6.4-.6-12-.6-.6 0-1.2.1-1.8.1-2.8.2-5.7.5-8.5.9-.8.1-1.7.3-2.5.4-2.7.5-5.4 1-8.1 1.8-1.3.4-2.5.7-3.8 1.1-.5.6-.9 1.8-1.3 3.5 1 1.1 2.2 2.2 3.4 3.2l.2.2c1 .8 2.1 1.6 3.3 2.2 4.5 2.6 9.7 4.1 15.2 4.1 4.6 0 9-1 12.9-2.9 1.7-.8 3.2-1.7 4.7-2.8.5-.4 1.1-.8 1.6-1.2 1.6-1.3 3-2.7 4.3-4.3-1.3-1.5-2.9-3-4.4-4z"/><path class="st14" d="M75.8 319.4c-1.2-.9-2.3-1.5-3.2-1.7 0 0-6.4-.6-12-.6-.6 0-1.2.1-1.8.1-2.8.2-5.7.5-8.5.9-.8.1-1.7.3-2.5.4-2.7.5-5.4 1-8.1 1.8-1.3.4-2.5.7-3.8 1.1-.5.6-.9 1.8-1.3 3.5 1 1.1 2.2 2.2 3.4 3.2l.2.2c1 .8 2.1 1.6 3.3 2.2 4.5 2.6 9.7 4.1 15.2 4.1 4.6 0 9-1 12.9-2.9 1.7-.8 3.2-1.7 4.7-2.8.5-.4 1.1-.8 1.6-1.2 1.6-1.3 3-2.7 4.3-4.3-1.3-1.5-2.9-3-4.4-4z"/><path class="st18" d="M58.4 323.5c-7-.9-9.2-3.9-9.2-3.9 2.9-2.7 2.3-6.7 1.6-9.2-.4-1.4-.9-2.3-.9-2.3l8.5 1.6c-.2 1.4-.3 2.6-.3 3.6 0 1.1.1 2 .3 2.6.6 2.5 2 2.6 2 2.6 1.5 2.7-2 5-2 5z"/><path class="st11" d="M58.1 313.2c0 1.1.1 2 .3 2.6-3.4-.5-5.9-3.2-7.5-5.5-.4-1.4-.9-2.3-.9-2.3l8.5 1.6c-.3 1.4-.4 2.6-.4 3.6z"/><path class="st18" d="M56.7 286.2c7.3.3 9.6 4.3 9.8 11.9.3 9.5-2 16.1-11.2 13.8-12.3-3.2-10.8-26.1 1.4-25.7z"/><path d="M61.9 297.5s.9 2 2 3.2c0 0-.7 1-2 .8v-4z" fill="#d4827d"/><path class="st10" d="M54.3 293.1c-.1 0-.2-.1-.3-.1-.2-.2-.2-.4-.1-.5 1.3-1.5 3.5-1.1 3.6-1.1.2.1.4.2.3.5-.1.2-.2.4-.5.3 0 0-1.9-.3-3 .9.2-.1.1 0 0 0zm11.5-.5c-.1 0-.2 0-.2-.1-1.4-1-2.5-.7-2.6-.7-.2.1-.4-.1-.5-.3-.1-.2.1-.4.3-.5.1 0 1.5-.5 3.3.8.2.1.2.4.1.5-.2.3-.3.3-.4.3zm-5.1 11.7c-.5.9-.9 2.5-.9 2.5-.2 0-.3-.1-.5-.1-2.1-.3-3.1-1.1-3.4-2-.2-.5-.2-.9-.2-1.3.1-.4.2-.7.2-.7 1 .8 3 1.2 4.1 1.4.4.1.7.2.7.2z"/><path class="st3" d="M60 304.1l-.3.7c-2-.3-3.4-.8-3.9-1.4.1-.4.2-.7.2-.7 1 .9 2.9 1.3 4 1.4z"/><path class="st12" d="M59.3 306.7c-2.1-.3-3.1-1.1-3.4-2 .7.1 1.6.4 2.3.8.6.4.9.8 1.1 1.2z"/><path class="st10" d="M48.3 298.3s3.7-5.9 3.3-10.6c0 0 14.8-5.4 15 9.4 0 0 1.9-13.1-10.7-13.9s-13.3 17.7-6.9 23.5c-.1.1-3-4.7-.7-8.4z"/><path class="st18" d="M49.4 299.9c0-1.2-1.1-3.3-3.4-3.1-2.3.2-3.6 4.8 2.1 6.2.8.1 1.3-.6 1.3-3.1z"/><path class="st10" d="M52.6 281.3c4-1.1 14.6-1.2 17.1 9.7l-1.4.7s-3.5-1.9-8-2.4c0 0-.9-1.6-2.1-2.9 0 0 .2 1.8 0 2.8 0 0-6.9 1-10 3.8-4.9 4.4-5.2 7.2-5.2 7.2s-3.3-15.3 9.6-18.9z"/><path class="st10" d="M70.8 290.9c-.1 0-.2-.1-.3-.2-1.2-3.8-3.4-6.4-6.4-7.9-5.5-2.7-11.9-.5-12-.5-.2.1-.3 0-.4-.2-.1-.2 0-.3.2-.4.1 0 6.7-2.3 12.4.5 3.1 1.6 5.4 4.3 6.7 8.2 0 .3-.1.5-.2.5zm-15.5 5.8s1.7-1.4 2.5.5c.1 0-1.2-.6-2.5-.5zm8.2 1.1s.9-2 2.2-.6c.1 0-1.4.1-2.2.6z"/><circle class="st1" cx="359.3" cy="358.1" r="38.9"/><path class="st6" d="M397.1 358.1c0 6.1-1.4 11.9-4 17-.5 1-1.1 2-1.7 3-.5.7-.9 1.5-1.5 2.2-2.2 3.1-4.9 5.7-7.9 8l-2.1 1.5c-2.9 1.9-6.1 3.4-9.5 4.5-3.5 1.1-7.2 1.7-11.1 1.7-5.5 0-10.9-1.2-15.6-3.4l-1.8-.9c-3.4-1.8-6.5-4-9.2-6.7-2.6-2.6-4.9-5.6-6.7-8.8-.5-.9-1-1.9-1.4-2.9-2-4.6-3.2-9.7-3.2-15.1 0-20.8 16.9-37.8 37.8-37.8 21-.1 37.9 16.9 37.9 37.7z"/><g id="_x3C_Group_x3E__2_"><path class="st20" d="M340.5 356.6c-.5.9-2.3 2.8-2.3 2.8l-3.3 15.4-2.1 10c-2.6-2.6-4.9-5.6-6.7-8.8.3-.8.5-1.7.8-2.5 2.3-7.1 5-15.4 5.1-16.2.4-1.4-.9-8.6-.6-9.9s6.8-2.8 8.2-2.8c1.5 0 1.3 11.1.9 12z"/><path class="st1" d="M345.6 373.6l-1.3 14.1-.5 4.8-1.8-.9c-3.4-1.8-6.5-4-9.2-6.7-2.6-2.6-4.9-5.6-6.7-8.8-.5-.9-1-1.9-1.4-2.9l2.2.4 8 1.3 1.7.3-2 9.7s7.3-10.2 11-11.3z"/><path class="st9" d="M345.6 373.6l-1.3 14.1-.5 4.8-1.8-.9c-3.4-1.8-6.5-4-9.2-6.7-2.6-2.6-4.9-5.6-6.7-8.8-.5-.9-1-1.9-1.4-2.9l2.2.4 8 1.3 1.7.3-2 9.7s7.3-10.2 11-11.3z"/><path class="st1" d="M393.1 375.1c-.5 1-1.1 2-1.7 3-.5.7-.9 1.5-1.5 2.2-2.2 3.1-4.9 5.7-7.9 8l-2.1 1.5c-2.9 1.9-6.1 3.4-9.5 4.5-3.5 1.1-7.2 1.7-11.1 1.7-5.5 0-10.9-1.2-15.6-3.4l-1.8-.9c1.5-10.9 3.5-17.3 3.7-18v-.1c3.9-1.1 7.9-1.9 12-2.4h.2c5.8-.5 11.6-.6 17.5-.4h.1c4 .1 8.1.5 12.1 1.2.3.2 3 1.3 5.6 3.1z"/><path class="st9" d="M393.1 375.1c-.5 1-1.1 2-1.7 3-.5.7-.9 1.5-1.5 2.2-2.2 3.1-4.9 5.7-7.9 8l-2.1 1.5c-2.9 1.9-6.1 3.4-9.5 4.5-3.5 1.1-7.2 1.7-11.1 1.7-5.5 0-10.9-1.2-15.6-3.4l-1.8-.9c1.5-10.9 3.5-17.3 3.7-18v-.1c3.9-1.1 7.9-1.9 12-2.4h.2c5.8-.5 11.6-.6 17.5-.4h.1c4 .1 8.1.5 12.1 1.2.3.2 3 1.3 5.6 3.1z"/><path class="st7" d="M382 388.3l-2.1 1.5c-2.9 1.9-6.1 3.4-9.5 4.5-3.5 1.1-7.2 1.7-11.1 1.7-5.5 0-10.9-1.2-15.6-3.4l-1.8-.9c.1-.3.1-.6.2-.9.6-1 1.3-2 2.2-3 3.9-5 9.4-10 12.1-12.4.8.9 2.1 1.8 4.2 2.2 3.6.7 7.7-1 11-3 1.5 1.5 3.8 3.9 5.9 6.5 1.6 2 3.1 4.1 4 6 .2.3.4.8.5 1.2z"/><path class="st20" d="M375.3 370.8s-4.4 5.4-12.9 5.8c-7.3.3-4.9-5.4-4.9-5.4 2.7-.7 4.2-2 4.9-3.5.9-2 .7-4.4.1-6.8-.1-.2-.1-.3-.2-.5L373 351c-.9 5.7-1.8 16.1 2.3 19.8z"/><path class="st11" d="M371.3 359.3c-.6 3.7-5 7.3-8.8 8.4.9-2 .7-4.4.1-6.8l8.8-6.8c.3 1.7.3 3.5-.1 5.2z"/><path class="st10" d="M364.4 338.5c2.5 2.8.3 6.1-8.1 9.8-1.9-4.4-.5-11.6 2.2-12.8 2.6-1.2 3.7.6 5.9 3z"/><path class="st20" d="M376.1 347.6c-2.2 7.4-3.2 11.9-7.9 14.8-7.1 4.5-15.6-1.2-15.6-9.1 0-7.1 3.7-18.1 11.7-19.3 5.7-.9 11.2 3 12.1 8.7.4 1.7.2 3.3-.3 4.9z"/><path class="st10" d="M364.4 347c-.2.6-.6 1-1 .9s-.6-.7-.5-1.3c.2-.6.6-1 1-.9.4.1.6.7.5 1.3zm-6.9-1.6c-.2.6-.6 1-1 .9s-.6-.7-.5-1.3.6-1 1-.9.6.6.5 1.3z"/><path d="M359.6 346.2c-1.2 1.7-2.6 3.2-4.2 4.6.9 1.3 2.8 1.2 2.8 1.2l1.4-5.8z" fill="#892b29"/><path class="st10" d="M366.8 345.3c.1.1.2.1.3 0 .2-.1.3-.3.2-.5-.5-1.1-1.4-1.9-2.6-2.2-.2-.1-.4.1-.4.3 0 .2.1.4.3.4.9.2 1.7.9 2 1.8 0 .1.1.2.2.2zm-12-3c.2.1.3 0 .4-.1.6-.7 1.4-1.2 2.4-1.1.2 0 .4-.1.4-.3 0-.2-.1-.4-.3-.4-1.2-.1-2.3.5-3.1 1.4-.1.2-.1.4.1.5h.1zm19.9-2.1c-3.8.4-4.2 4.2-.7 12.7 4.3-1.9 8.3-8.1 7.1-10.9-1.1-2.6-3.1-2.1-6.4-1.8z"/><path class="st20" d="M378.3 354.5c-.9 1.7-2.5 2.9-4.4 3.5-2.5.7-3.7-1.6-3-3.9.6-2.1 2.7-5 5.2-4.7 2.4.4 3.3 3 2.2 5.1z"/><path class="st10" d="M367.4 337.1s-.8 7.8 6.3 10.1 9.8-1.8 9.8-1.8-1.1-.1-1.8-.3c0 0 3.1-3.1 1.8-7.1-1.2-4-7.5-9.6-13.3-9.1 0 0-4.6-3.3-10.3-1.6-5.7 1.7-6.5 8.2-6.5 8.2s.8-3.9 3.4-4.4c0 0-4.9 7.2-1.1 10.4-.1.1 2.3-7.6 11.7-4.4zm-10.5 17.7c.6.9 1.4 2.6 1.4 2.6.2-.1.4-.1.5-.2 2.3-.7 3.2-1.7 3.4-2.7.2-.5.1-1.1 0-1.4-.1-.5-.3-.8-.3-.8-1 1.1-3.2 1.9-4.3 2.2-.4.2-.7.3-.7.3z"/><path class="st3" d="M357.7 354.6l.5.8c2.2-.6 3.6-1.3 4.1-2.2-.1-.5-.3-.8-.3-.8-1 1-3.1 1.8-4.3 2.2z"/><path class="st12" d="M358.9 357.3c2.3-.7 3.2-1.7 3.4-2.7-.8.3-1.7.6-2.4 1.2-.6.5-.8 1-1 1.5z"/></g><path class="st1" d="M246.4 175.4l-19.1-.9c-1-.1-1.9-.9-1.8-2l.9-19.1c.1-1 .9-1.9 2-1.8l19.1.9c1 .1 1.9.9 1.8 2l-.9 19.1c-.1 1-1 1.8-2 1.8z"/><path d="M243.9 159.2c-1.5-2.7-4.6-1.9-6.3.1-1.5-2.1-4.6-3.3-6.3-.7-2.9 4.3 2.5 8.6 5.1 10.4.3.2.5.4.7.5.2-.1.5-.3.8-.4 2.7-1.4 8.5-5.3 6-9.9z" opacity=".6" fill="#fff"/><path class="st1" d="M239.4 173.3s-3.3 6.7-10.1 8.5c0 0 3.8-2 3.9-9.2l6.2.7z"/></svg>