<svg xmlns="http://www.w3.org/2000/svg" viewBox="0 0 436.01 436.45"><defs><style>.cls-1{fill:#bca8a7;}.cls-2{fill:none;stroke:#231f20;stroke-miterlimit:10;}.cls-3{fill:#ed2024;}</style></defs><g id="Layer_2" data-name="Layer 2"><path d="M1161.36,565.64c-24.13,34.5-55.54,51.41-75.55,59.34a9.79,9.79,0,0,1-13.22-10.9q5.33-28.77,10.64-57.54a9.79,9.79,0,0,1,5.21-6.95,78.68,78.68,0,0,0,42.68-81.15c-.42-3.4-5.72-40.33-40-58.32-23.39-12.29-51.75-11.26-74.72,2.42a10.47,10.47,0,0,1-6.74,1.24c-15.13-2-19.69-36.8-27.66-36.06-4.18.39-5.19,10.17-9.86,10.2-4.47,0-5.58-8.95-9.58-9.24-7.81-.57-11.48,33-25.81,35.1a10.23,10.23,0,0,1-6.74-1.24c-23-13.68-51.34-14.71-74.73-2.42-34.24,18-39.53,54.92-40,58.32a78.67,78.67,0,0,0,42.69,81.15,9.79,9.79,0,0,1,5.21,6.95q5.31,28.77,10.64,57.54A9.8,9.8,0,0,1,860.67,625c-20-7.93-51.42-24.84-75.55-59.34-33.2-47.46-30.45-96.53-29.29-109.65,1.12-17.42,6.9-72.9,50.89-120.39,52.08-56.21,121.19-61.85,147.91-61.84a9.78,9.78,0,0,1,9.77,9.8l-1.08,12.8a15.46,15.46,0,0,0,10,3.16,15.29,15.29,0,0,0,8.46-3.11c-.37-10.83.27-12.85.27-12.85a9.79,9.79,0,0,1,9.78-9.8c26.71,0,95.83,5.63,147.9,61.84,44,47.49,49.78,103,50.89,120.39C1191.81,469.11,1194.56,518.18,1161.36,565.64Z" transform="translate(-755.23 -273.76)"/><path d="M1058.26,587.55l-21.84,84c-.75,2.88-3.75,5.48-7.06,9.21-18,20.25-41.88,26.86-56.55,29.3l-1,.17-1-.17c-14.67-2.44-38.54-9-56.55-29.3-3.31-3.73-6.31-6.33-7.06-9.21l-21.84-84c-5.8-20.64-4.32-31.33-.38-34.51,6.59-5.31,16,5.52,36.74,3.35,2.24-.23,25.61-2.92,30.13-15.14a57.92,57.92,0,0,1,4.32-11c2.33-4.31,4-7.36,6.93-7.83,3.44-.55,7.22,2.73,8.72,4.43,1.5-1.7,5.28-5,8.72-4.43,2.9.47,4.6,3.52,6.93,7.83a57.92,57.92,0,0,1,4.32,11c4.52,12.22,27.89,14.91,30.13,15.14,20.72,2.17,30.15-8.66,36.74-3.35C1062.58,556.22,1064.06,566.91,1058.26,587.55Z" transform="translate(-755.23 -273.76)"/></g><g id="infinity"><path class="cls-1" d="M935.64,437.94a61.45,61.45,0,0,0-81.18,3.34,54,54,0,0,0,5.47,73.6c1,.87,1.93,1.71,2.92,2.5a46.62,46.62,0,0,1,65.67-66.09l21.86,20.13,12.43,11.45,10-10.85-34.29-31.59Q937.11,439.14,935.64,437.94ZM1086.56,450c-1-.87-1.93-1.71-2.92-2.5A46.62,46.62,0,0,1,1018,513.6l-21.85-20.13L983.67,482l-10,10.85L1008,524.46c.94.86,1.91,1.69,2.88,2.49a61.48,61.48,0,0,0,81.18-3.34A54,54,0,0,0,1086.56,450Z" transform="translate(-755.23 -273.76)"/><path class="cls-2" d="M935.64,437.94a61.45,61.45,0,0,0-81.18,3.34,54,54,0,0,0,5.47,73.6c1,.87,1.93,1.71,2.92,2.5a46.62,46.62,0,0,1,65.67-66.09l21.86,20.13,12.43,11.45,10-10.85-34.29-31.59Q937.11,439.14,935.64,437.94ZM1086.56,450c-1-.87-1.93-1.71-2.92-2.5A46.62,46.62,0,0,1,1018,513.6l-21.85-20.13L983.67,482l-10,10.85L1008,524.46c.94.86,1.91,1.69,2.88,2.49a61.48,61.48,0,0,0,81.18-3.34A54,54,0,0,0,1086.56,450Z" transform="translate(-755.23 -273.76)"/><path class="cls-3" d="M1094.7,520.89c-.87.94-1.76,1.85-2.68,2.72a54,54,0,0,0-5.46-73.6c-1-.87-1.93-1.71-2.92-2.5-.8-.86-1.64-1.69-2.51-2.49a46.68,46.68,0,0,0-65.88,2.7l-4.94,5.37-.06.06,0,0L983.67,482l-10,10.85-31.58,34.29A61.38,61.38,0,1,1,851.79,444c.87-.94,1.76-1.85,2.67-2.72a54,54,0,0,0,5.47,73.6c1,.87,1.93,1.71,2.92,2.5.8.86,1.63,1.69,2.51,2.49a46.67,46.67,0,0,0,65.87-2.7l4.94-5.37.06-.06,0,0,26.55-28.83,10-10.85,31.59-34.29a61.38,61.38,0,0,1,90.3,83.16Z" transform="translate(-755.23 -273.76)"/></g></svg>