<svg version="1.1" id="a02257e8-5dd7-45a0-b624-c586cf0fa49a" xmlns="http://www.w3.org/2000/svg" x="0" y="0" viewBox="0 0 918.6 684" xml:space="preserve"><style>.st1{fill:#0062ff}.st2{fill:#2f2e41}.st3{fill:#ffb9b9}.st4{opacity:5.000000e-02;enable-background:new}.st6{fill:#fbbebe}.st7{fill:#3f3d56}</style><circle cx="355.6" cy="328" r="328" opacity=".04" fill="#f2f2f2"/><path class="st1" d="M176.6 121.4l-6.8 54.9c8.3 16.3 17.2 34.9 25.6 54.9l16-82.8.8.7c-11.7-11.8-24-21.5-36.4-28.4l.8.7zm-8.3 52.1l6.6-53.2c-14-7.6-28.1-11.8-41.7-11.7-.7 0-1.4 0-2.1.1 2.7 4.1 18.6 28.7 37.2 64.8zM277 259.2l.7 1c-2.4-7.4-5.1-14.6-8-21.7l-41.2 92.4-.4-.4c1 4.5 2 9 2.9 13.5l46-84.8zm-27.9-61.4l.8.9c-10.3-17.6-22.7-34-36.9-48.7l-16.3 84.4c7.8 18.8 14.5 37.1 20.2 55l32.2-91.6zm-182.8-4.4c-1.1 14.5-.7 29.1 1.1 43.5l143.9 40.4c-5.2-15.4-10.8-30-16.4-43.4L66.5 194.7l-.2-1.3zm3.8 60.3l-.2-1.2 146 38.8c-1.2-3.8-2.4-7.6-3.6-11.3L67.8 239.4l-.2-1.2c.7 5.1 1.5 10.2 2.5 15.5zm198.3-17.6l.8.9c-5.4-12.8-11.6-25.3-18.6-37.3l-32.7 92.8c3.7 12 6.9 23.7 9.6 35.1l40.9-91.5zm-30.7 159.2c1.5 26.5-.4 51-5.8 73.2 11.3-16.2 55.5-84 55.5-154.2l-49.7 81zM88.4 309.9c6 11.9 12.8 23.4 20.4 34.4l-.1-1.3 127.2 49.9c-1-14.8-2.8-29.6-5.6-44.2L88.4 309.9zM167 174.2c-20.2-39.1-37-64.5-37.3-64.9l.5-.7c-20.6 1.1-36.9 12.2-48 30.4l84.8 35.2zm64.6 173.2c.3 1.4.5 2.8.8 4.1 2.4 13.2 4.1 26.5 5 39.9l49.2-80.2.7 1c-.1-12.4-1.8-24.7-5-36.6-1.3-4.7-2.7-9.3-4.2-13.9l-46.5 85.7zm-37.8-116.1c-8.3-19.8-17.1-38.1-25.3-54.2l-86.7-36-.1-1.2c-8.2 13.9-13.4 31.7-15.2 52.4l127.3 39z"/><path class="st1" d="M235.9 395.3l-126.2-49.5C155 411.8 224.5 468.4 229 472c6.6-24.5 8.4-50.5 6.9-76.7zm-6.2-49c-3.4-17.8-7.8-35.2-13.1-52.5L70.3 254.9c1.4 7.1 3.1 14.4 5.1 21.7 3 10.5 6.9 20.8 11.7 30.6l142.6 39.1zm193.5 6.6l-40.3 38c-4 17.9-9 37.8-15.3 58.6l65.1-53.6.2 1.1c-1.5-16.6-4.8-31.8-10-45.1l.3 1zm-39.6 34.9l39-36.8c-5.9-14.8-14.1-27-24.6-35.6-.5-.4-1.1-.9-1.7-1.3-.5 4.9-4 34-12.7 73.7zm29.1 135.3l-.1 1.2c2.8-7.2 5.4-14.5 7.7-21.9l-90.7 44.9v-.6c-2.1 4.2-4.2 8.2-6.4 12.2l89.5-35.8zm17.7-65.1v1.2c3.3-20.2 4.2-40.6 2.6-61l-66.4 54.6c-6 19.4-12.5 37.9-19.5 55.2l83.3-50zm-138-119.9c-10.1 10.5-19.1 22-26.9 34.3l85 122.9c5.8-15.2 10.8-30 15-43.9l-73.8-112.2.7-1.1zm-35.6 48.8l.6-1.1 87.7 123c1.5-3.7 3-7.4 4.4-11l-85.3-123.3.6-1.1c-2.7 4.3-5.4 8.8-8 13.5zm164 113v1.2c4.1-13.3 7.2-26.8 9.4-40.6l-84.4 50.7c-4.8 11.6-9.8 22.6-15 33.2l90-44.5zm-125.3 103c-15.8 21.4-32.9 39-51.1 52.7 19.1-5.3 96.3-29.3 141.1-83.4l-90 30.7z"/><path class="st1" d="M235 441.9c-3 13-5.1 26.2-6.3 39.5l.7-1.1 66.1 119.5c8.7-12 16.7-24.6 23.9-37.6L235 441.9zm147.2-54.4c9.4-43 12.6-73.3 12.7-73.7l.8-.2c-16.6-12.3-36.2-14.2-56.3-7.2l42.8 81.1zm-60.7 174.6c-.7 1.2-1.4 2.5-2 3.7-6.6 11.7-13.8 23-21.6 33.9l89.1-30.4-.1 1.2c7.8-9.6 14.4-20.1 19.5-31.4 2-4.4 3.9-8.9 5.7-13.4l-90.6 36.4zm44.9-113.5c6.2-20.5 11.2-40.2 15.1-57.9l-43.9-83 .7-1c-15.2 5.5-30.6 15.9-45.1 30.7l73.2 111.2zm-72.1 153.1L228.7 483c-7.2 79.7 10.2 167.7 11.3 173.3 20.7-14.6 38.7-33.5 54.3-54.6zm26.4-41.7c8.7-15.8 16.5-32.1 23.4-48.7L256.2 388c-3.5 6.4-6.8 13-10 20-4.4 10-8 20.4-10.5 31l85 121zM86.8 354.8l10.5 54.3c13 12.9 27.1 27.8 41.3 44.3l-10.4-83.7 1 .5c-14.8-7.6-29.5-13-43.4-15.7l1 .3zm8.2 52.1l-10.2-52.6c-15.7-2.9-30.4-2.5-43.3 1.7-.7.2-1.3.5-2 .7 4 3.1 26.7 21.6 55.5 50.2zm129.9 47.9l1 .7c-4.6-6.3-9.4-12.3-14.4-18.2L200.9 538l-.5-.3c2.4 4 4.7 8 6.9 12l17.6-94.9zM179.4 405l1 .6a258.43 258.43 0 00-50.1-34.9l10.6 85.3c13.2 15.5 25.3 30.8 36.2 46.1l2.3-97.1zM4.2 457.4c3.5 14.1 8.3 27.9 14.5 41l149.3-6c-9.7-13.1-19.6-25.2-29-36.2L4.8 458.5l-.6-1.1zm22.2 56.2l-.6-1.1 150.8-8.2c-2.3-3.3-4.6-6.5-7-9.6l-149.8 6.1-.6-1.1c2.3 4.5 4.7 9.2 7.2 13.9zm183.2-78l1 .7c-9.1-10.5-18.8-20.5-29.2-29.7L179 505c7.2 10.2 13.9 20.4 20 30.4l10.6-99.8z"/><path class="st1" d="M229.6 596.5c9.6 24.8 15.3 48.6 17.1 71.4 5.8-18.9 26.8-97 5.1-163.8l-22.2 92.4zM61.2 561.4c9.4 9.5 19.4 18.3 30 26.4l-.5-1.2 136.4 8.1c-5.5-13.8-11.8-27.3-19-40.3l-146.9 7zM94 408c-31.3-30.9-55.1-49.9-55.5-50.2l.2-.8c-19.3 7.4-31.4 23-36.3 43.7L94 408zm115 144.7c.7 1.2 1.4 2.5 2 3.7 6.3 11.8 12 23.9 17.1 36.4l22-91.5 1 .7c-3.9-11.7-9.3-22.9-16-33.3-2.7-4.1-5.4-8-8.2-12l-17.9 96zM137.2 454c-14-16.2-28-31-40.8-43.7l-93.6-7.4-.5-1.1c-3.5 15.7-2.9 34.3 1.7 54.5l133.2-2.3z"/><path class="st1" d="M227.9 596.9l-135.4-8.1C156.1 637.6 239.7 670 245 672c-1.3-25.3-7.6-50.6-17.1-75.1zm-21.1-44.7c-8.7-15.8-18.3-31.1-28.6-45.8L27 514.7c3.5 6.3 7.3 12.7 11.5 19.1 6.1 9.1 12.9 17.6 20.5 25.5l147.8-7.1z"/><path class="st2" d="M101.6 684s212-84 468 0"/><path class="st3" d="M255.7 619.6c.2 2.2.4 4.5.8 6.7 0 0 18.2 12.4 19.7-1.5.9-9-1.2-13.1-2.8-14.9-1-1-1.5-2.4-1.5-3.8v-16.3l-16.1 5.1.7 13.9c-1 2.8-1.1 7.1-.8 10.8z"/><path class="st4" d="M255.7 619.6c.2 2.2.4 4.5.8 6.7 0 0 18.2 12.4 19.7-1.5.9-9-1.2-13.1-2.8-14.9-1.3-1-3-1.2-4.5-.5-2.9-1.3-6.1.9-8.8 3.7-1.7 1.9-3.2 4.1-4.4 6.5z"/><path class="st2" d="M268.9 610.9s8-4.4 9.5 15.3c1.5 19.7 2.2 17.5 2.2 17.5s7.3 17.5-8 15.3-22.6-3.6-21.9-12.4c.4-5.3 1.7-12.9 2.6-18.2.9-5.2 3.3-10 6.9-13.9 2.6-2.7 5.8-4.9 8.7-3.6z"/><path class="st3" d="M354.7 636l8.4 4s26.1 4 17.8-10.9c-2.4-4.4-4.2-9.2-5.5-14.1-1.7-6.8-2.7-13.8-2.9-20.9l-22.1 3.1c7.2 9.6 6.3 25.2 5.2 33.3-.4 3.4-.9 5.5-.9 5.5z"/><path class="st4" d="M354.7 636l8.4 4s26.1 4 17.8-10.9c-2.4-4.4-4.2-9.2-5.5-14.1-5.1 1-8.9 8.3-8.9 8.3-4.1 14.2-7.8 10.7-10.9 7.3-.4 3.3-.9 5.4-.9 5.4z"/><path class="st2" d="M367 624.7s6.5-12.3 13.7-7.1 3.6 12.6 27.1 19.9 7.9 22.7-6.4 21.6-44.9-6.7-44.9-6.7-7.9-22.7-4.3-23.2 8.8 16.2 14.8-4.5z"/><path d="M400.4 656.3c9.3.8 19.1-5.5 18.4-11.9 4.4 7.3-6.8 15.6-17.4 14.7-14.3-1.2-44.9-6.7-44.9-6.7s-.4-1.1-.9-2.7c.9.1 30.7 5.5 44.8 6.6zm-149.7-10c.8 6.6 8.1 7.9 21.9 9.9 7 1 9.3-2.1 9.7-5.8.5 4.7-.9 9.9-9.7 8.7-15.3-2.2-22.6-3.6-21.9-12.4v-.4z" opacity=".3" fill="#fff"/><path class="st6" d="M217.4 361.4l-2.4 36.3s-1.9 36.8 13.1 39.7 0-47 0-47v-32.9l-10.7 3.9z"/><path class="st7" d="M230 229.2l-1.9 4.4s.5 30.5 0 32.9-6.8 21.3-6.8 23.3-4.8 58.1-5.8 61.5-5.3 14-1.5 15.5 11.1-4.4 14 0 5.3 0 5.3-1.5 1-29.1 6.8-36.8 11.1-25.2 12.1-28.6 2.4-52.3 2.9-53.3-1.9-14-1.9-14l-23.2-3.4z"/><path class="st2" d="M257.6 280.5s-5.8 22.8-9.7 27.1-23.3 36.8-17.4 79.9 16 99.3 16 99.3 1.5 19.9-.5 25.2 8.7 90.1 8.7 90.1 15 11.6 23.3-2.9c0 0-1.9-31.5 0-34.4 1.9-2.9 0-55.2 0-55.2s1.5-130.3 9.2-125 31.5 95.9 31.5 95.9 10.2 34.9 9.7 37.8c-.5 2.9 8.7 39.2 8.7 39.2s8.7 50.4 12.1 51.4 24.2 1.5 26.2-3.9l-5.8-45.5s-5.8-51.8-8.7-59.1c-2.9-7.3-7.8-110.5-21.8-141 0 0-5.3-48.9-9.2-56.2 0 0-2.3-10 .5-19.3-.1.1-67.5.5-72.8-3.4z"/><ellipse class="st2" cx="286.4" cy="138.1" rx="40.7" ry="51.6"/><path class="st6" d="M370 198.7l-6.3 13.6-74.6 21.7s-51.8 15-57.2-9.2 20.3-26.6 20.3-26.6 9.7-6.8 21.8-13.6c4.1-2.3 5.4-5.9 5.4-9.8 0-1.2-.1-2.3-.3-3.4-.2-1.3-.6-2.6-1-3.9-1-3.1-2.4-6.2-4.1-9 0 0 32-12.6 31.5-5.8-.2 2.4.1 4.9.8 7.2.7 2.1 1.6 4 2.7 5.9.5.9 1.1 1.9 1.8 2.9.9 1.3 1.9 2.8 3 4.3 6.3 8.7 27.1 8.7 27.1 8.7 16.5-1.9 29.1 17 29.1 17zm77 77.5s34.9 25.7 41.7 25.2 46.5-2.9 37.3 6.3-50.9 3.4-50.9 3.4l-38.3-24.2 10.2-10.7z"/><path d="M306.3 159.9c-7.2 7.7-18.1 10.6-28.2 7.6-1-3.1-2.4-6.2-4.1-9 0 0 32-12.6 31.5-5.8-.2 2.4.1 4.8.8 7.2z" opacity=".1"/><circle class="st6" cx="286.2" cy="137.6" r="27.6"/><path class="st7" d="M251.8 218s120.1-27.1 120.6-23.3 5.3 11.6 5.3 11.6l-28.1 32s3.4 15.5-3.4 18.9-7.8 29.1-14 29.6c-6.3.5-79.9-.5-80.4-4.4s1.9-6.3 0-7.3-4.8-1-2.4-5.8 2.4-25.2 2.4-25.2L229 233.5s-3.1-9 2.6-10.6 20.2-4.9 20.2-4.9z"/><path class="st7" d="M373.4 205.4h4.4s13.1 8.7 16.5 16.5 15.5 17.9 18.4 20.8 42.6 30.5 42.1 34.4-11.6 7.8-12.1 12.1 4.8 6.3 1.5 6.3-24.2-12.1-32-16.5-23.7-17-25.7-20.3-15-9.2-16.5-11.6-24.2-13.6-24.2-13.6l27.6-28.1z"/><circle transform="rotate(-80.781 245.7 106.847)" class="st2" cx="245.7" cy="106.9" r="15.5"/><circle class="st2" cx="314" cy="86.5" r="15.5"/><ellipse class="st2" cx="290" cy="119.7" rx="28.8" ry="17.7"/><path class="st2" d="M309 165.8c-13.3 5.2-23.8 5.8-29.9 5.6.2 1.1.3 2.3.3 3.4h2.3c6.7 0 16.8-1.2 29.1-6.1l-1.8-2.9z"/><path class="st7" d="M519 310h378.1c11.8 0 21.4 9.6 21.4 21.4v209.1c0 11.8-9.6 21.4-21.4 21.4H519c-11.8 0-21.4-9.6-21.4-21.4V331.4c0-11.8 9.6-21.4 21.4-21.4z"/><path d="M543 486.8h330v12H543zm.2-31.5h330v12h-330zm271-43h59v12h-59zm-157-32h216v12h-216zM543 518.8h165.2v12H543z" opacity=".3" fill="#0062ff"/><path class="st1" d="M553.3 341.3H616c5.6 0 10.2 4.6 10.2 10.2v62.7c0 5.6-4.6 10.2-10.2 10.2h-62.7c-5.6 0-10.2-4.6-10.2-10.2v-62.7c.1-5.7 4.6-10.2 10.2-10.2z"/></svg>