<svg version="1.1" id="a594ac37-6d44-4297-8862-1cbd9c01c0b7" xmlns="http://www.w3.org/2000/svg" x="0" y="0" viewBox="0 0 1126.2 855" xml:space="preserve"><style>.st1{fill:#3f3d56}.st2{opacity:.1;enable-background:new}.st3{fill:#f2f2f2}.st4{fill:#ff5f59}.st5{fill:#2f2e41}.st6{fill:#fbbebe}</style><path d="M544.9 755.9C302.5 737.5 13.4 549.7 28.1 356.3S322.8-17.1 565.2 1.3s381.9 379.9 367.2 573.3c-14.7 193.3-145.1 199.8-387.5 181.3z" opacity=".04" fill="#f2f2f2"/><ellipse class="st1" cx="565.2" cy="756" rx="506" ry="31"/><ellipse class="st2" cx="565.2" cy="755.5" rx="431" ry="20.5"/><ellipse class="st1" cx="212.2" cy="836.5" rx="212.2" ry="18.5"/><ellipse class="st2" cx="212.2" cy="836.2" rx="180.7" ry="12.2"/><path class="st1" d="M196.2 162h752v590h-752z"/><path class="st3" d="M563.6 242.6H378.1c-1.2 0-2.3-1-2.3-2.2s1-2.3 2.2-2.3h185.5c1.2 0 2.2 1 2.2 2.3.2 1.2-.8 2.2-2.1 2.2zm203.1 24.8H474.9c-1.2 0-2.3-1-2.3-2.3s1-2.3 2.3-2.3h291.8c1.2 0 2.3 1 2.3 2.3s-1 2.3-2.3 2.3zm-202.2 24.8H379c-1.2 0-2.3-1-2.3-2.3s1-2.3 2.3-2.3h185.5c1.2 0 2.3 1 2.3 2.3s-1 2.3-2.3 2.3zm202.2.4H581.2c-1.2 0-2.3-1-2.3-2.3s1-2.3 2.3-2.3h185.5c1.2 0 2.3 1 2.3 2.3s-1 2.3-2.3 2.3zM565 316.9H379.5c-1.2 0-2.3-1-2.3-2.3s1-2.3 2.3-2.3H565c1.2 0 2.3 1 2.3 2.3s-1.1 2.3-2.3 2.3zm.4 24.8H379.9c-1.2 0-2.3-1-2.3-2.3s1-2.3 2.3-2.3h185.5c1.2 0 2.3 1 2.3 2.3s-1 2.3-2.3 2.3zm84.2-98.6h-53.1c-1.2 0-2.3-1-2.3-2.3s1-2.3 2.3-2.3h53.1c1.2 0 2.3 1 2.3 2.3s-1 2.3-2.3 2.3zm0 73.8h-53.1c-1.2 0-2.3-1-2.3-2.3s1-2.3 2.3-2.3h53.1c1.2 0 2.3 1 2.3 2.3s-1 2.3-2.3 2.3zm0 24.3h-53.1c-1.2 0-2.3-1-2.3-2.2s1-2.3 2.2-2.3h53.1c1.2 0 2.3 1 2.3 2.2s-.9 2.3-2.2 2.3c.1 0 0 0 0 0zm89.2 0h-53.1c-1.2 0-2.2-1-2.2-2.3 0-1.2 1-2.2 2.2-2.2h53.1c1.2 0 2.3 1 2.3 2.2s-1 2.3-2.3 2.3zm-308-73.8h-53.1c-1.2 0-2.3-1-2.3-2.3s1-2.3 2.3-2.3h53.1c1.2 0 2.3 1 2.3 2.3s-1.1 2.3-2.3 2.3zm133.1 340H378.3c-1.2 0-2.3-1-2.3-2.3 0-1.2 1-2.3 2.3-2.3h185.5c1.2 0 2.3 1 2.3 2.3 0 1.3-1 2.3-2.2 2.3zm-.9 49.5H377.4c-1.2 0-2.3-1-2.3-2.3 0-1.2 1-2.3 2.3-2.3H563c1.2 0 2.3 1 2.3 2.3-.1 1.3-1.1 2.3-2.3 2.3zm.4 24.8H377.9c-1.2 0-2.3-1-2.3-2.3 0-1.2 1-2.3 2.3-2.3h185.5c1.2 0 2.3 1 2.3 2.3 0 1.2-1 2.3-2.3 2.3zm79.3-24.4h-53.1c-1.2 0-2.3-1-2.3-2.3 0-1.2 1-2.3 2.3-2.3h53.1c1.2 0 2.3 1 2.3 2.3-.1 1.3-1.1 2.3-2.3 2.3zm0 24.4h-53.1c-1.2 0-2.3-1-2.3-2.3 0-1.2 1-2.3 2.3-2.3h53.1c1.2 0 2.3 1 2.3 2.3-.1 1.2-1.1 2.3-2.3 2.3zm89.1-24.4h-53.1c-1.2 0-2.3-1-2.3-2.3 0-1.2 1-2.3 2.3-2.3h53.1c1.2 0 2.3 1 2.3 2.3 0 1.3-1 2.3-2.3 2.3zm35.1-25.2H475.2c-1.2 0-2.3-1-2.3-2.3 0-1.2 1-2.3 2.3-2.3H767c1.2 0 2.3 1 2.3 2.3-.1 1.3-1.1 2.3-2.4 2.3zm-335.9 0h-53.1c-1.2 0-2.3-1-2.3-2.3 0-1.2 1-2.3 2.3-2.3H431c1.2 0 2.3 1 2.3 2.3 0 1.3-1 2.3-2.3 2.3zm335.9 74.8H475.2c-1.2 0-2.3-1-2.3-2.3 0-1.2 1-2.3 2.3-2.3H767c1.2 0 2.3 1 2.3 2.3-.1 1.3-1.1 2.3-2.4 2.3zm-335.9 0h-53.1c-1.2 0-2.3-1-2.3-2.3 0-1.2 1-2.3 2.3-2.3H431c1.2 0 2.3 1 2.3 2.3 0 1.3-1 2.3-2.3 2.3z"/><path class="st4" d="M519.1 401.1L447 472.3l72.1 71.1 16.2-16.2-54.5-54.5 54.9-54.9zm106.2 0l72.1 71.2-72.1 71.1-16.2-16.2 54.5-54.5-54.9-54.9z"/><circle class="st4" cx="216.2" cy="177" r="9"/><circle class="st4" cx="240.2" cy="177" r="9"/><circle class="st4" cx="264.2" cy="177" r="9"/><path class="st2" d="M196.2 192h752v3h-752z"/><path class="st3" d="M1126.2 607.5c0 63.8-37.9 86-84.7 86s-84.7-22.3-84.7-86 84.7-144.9 84.7-144.9 84.7 81.1 84.7 144.9z"/><path class="st1" d="M1038.4 683.7l.9-53.3 36.1-66.1-36 57.7.4-24 24.9-47.8-24.8 41.4.7-43.1 26.7-38-26.6 31.2.5-79.1-2.8 104.7.3-4.3-27.1-41.4 26.6 49.7-2.5 48.2-.1-1.3-31.2-43.6 31.1 48.1-.3 6.1v.6l-6.4 122.3h8.5l1.1-63.2 31-48z"/><path class="st5" d="M122.6 751.1c-2.6 1.4-5.3 2.6-8.2 3.5-5.1 1.4-10.5.9-15.6 2.1-2.1.5-4.4 1.5-5.1 3.5-.5 1.5 0 3.1.6 4.6 5.7 16.6 9.1 34.3 18.1 49.3 3.8 6.3 8.5 12 14 17 2.1 1.9 4.4 3.7 7.1 4 4 .4 7.5-2.5 8-6.4.1-1.3-.1-2.6-.6-3.7-.8-1.8-2.3-3.2-3.3-4.9-1.1-2.2-1.7-4.6-1.8-7-.9-7.1-1.8-14.5.7-21.3 1.7-4.5 4.7-8.4 7.2-12.4s4.6-8.8 4.1-13.5c-.4-3.3-2-6.2-3.6-9.1-1.7-2.8-5-10.4-8.4-11.4-3.5-1-10.1 4.1-13.2 5.7zm92.5 57.4c.1 1.6-.2 3.2-.7 4.7-1.1 2.8-3.7 4.7-5 7.4-1.9 3.7-1 8.2.2 12.1.8 2.5 1.8 5.1 3.9 6.6 1.8 1.1 3.8 1.8 6 1.9 18 2.5 36.4 1.1 54.6 1.6 3.3.1 6.8.2 9.7-1.4s4.7-5.7 2.7-8.4c-1.8-2.4-5.3-2.4-8.2-2.5-7.8-.4-15.1-3.4-20.9-8.6-1.1-1-2.1-2.1-2.9-3.4-.6-1.1-1.1-2.3-1.5-3.5-2.6-6.9-5.6-13.6-9.1-20.1-1-1.8-2.1-3.7-3.9-4.7-1.3-.6-2.8-.9-4.2-.9-4.5-.3-16.3-1.8-19.8 1.7-3.4 3.3-.9 13.4-.9 17.5z"/><circle transform="matrix(.07089 -.9975 .9975 .07089 -150.026 592.375)" class="st6" cx="243" cy="376.7" r="29"/><path class="st6" d="M216.8 400.6c-1.7 4.6-4.6 8.9-8.9 11.4l40.1 8.2c-1.5-5.8-1.6-11.9-.6-17.9.4-1.4.5-2.9.2-4.4-.8-2.9-4-4.3-7-5-7.3-1.7-13.8-2.6-20.6-5.8-2 3.7-1.7 9.4-3.2 13.5z"/><path class="st5" d="M207.6 401.2c8.7-4 18.8-3.7 27.3.7 5.1 2.7 9.4 6.8 13.6 10.8 3.9 3.7 8 8 8.2 13.3.1 2.6-.7 5.1-1.1 7.7-1.5 10.9 4 21.5 13.8 26.5 3.2 5.3 3.8 11.7 3.9 17.9.2 23.4-7.2 47.2-1.9 70 1.2 5.4 3.2 10.6 4.2 16 1.4 7 1.3 14.2 2 21.3.8 7.7 2.5 15.2 5.1 22.5-1.7 2.8-5.4 3.8-8.6 3.6s-6.3-1.6-9.2-3.1c-14.1-7.2-27.1-16.8-41.7-22.9-9.7-4.1-20-6.6-29.4-11.3s-18.1-12.1-21-22.2c-1.2-4.4-1.3-9-1.4-13.5-.3-19.1-.6-38.4 3.6-57.1 3.7-16.5 10.7-32.2 12.3-49 .5-5.5.5-11.3 3.6-15.9 4.3-6.5 13.6-8.1 16.7-15.3z"/><path class="st5" d="M226.5 377.1c1.7-2.2 5-2.5 7.7-1.9s5.2 2.1 8 2.6c1.3.4 2.6.2 3.7-.5 1-.9 1.5-2.2 1.6-3.6 1-5.7 1.2-11.6.7-17.4-.1-.8-.1-1.6.2-2.4.7-1.6 2.8-2 4.5-2.6 5.8-1.9 9.5-7.6 9-13.6 0-1.4-.6-2.8-1.7-3.7-1.2-1-2.8-1-4.3-1-7.8-.1-15.6-.1-23.4 0-2.9 0-5.9.1-8.4 1.5-1.8 1.1-3.2 2.8-4.9 4.1-4.3 3.5-10.2 4.2-15.4 6-2.6.7-4.9 2.1-6.8 4-1.8 2-2.6 5-1.5 7.4.6 1 1.2 2 1.9 2.9 3.1 5 1 11.4 1.5 17.2.6 7.3 11.4 19.1 18.7 20.8 11.8 2.9 5-15 8.9-19.8zm-16.4 319.6c.7 5.3 1.7 10.7 1.4 16-.4 7.5-3.1 14.7-3.6 22.2-.4 5.6.5 11.2-.3 16.8-.5 3.6-1.7 7-2.4 10.5-2.3 11.6.2 23.6 7 33.3.5.8 1.2 1.5 2 2 .8.3 1.7.4 2.5.3 8.4-.2 16.8-.9 25.2-2.3.6 0 1.2-.3 1.6-.7.2-.3.3-.6.4-1 1.5-7.9-2-15.9-2.9-23.9-1-8.6 1.1-17.2 3.1-25.6.9-4.1 2.1-8.2 3.5-12.2 1-2.7 2.2-5.3 3-8.1 1.2-4.3 2-8.7 2.2-13.2.6-7.1.9-14.1.9-21.2.2-6.7-.4-13.4-1.7-20-1.9-8.3-5.7-16.1-9.5-23.7-2 .5-4 1.4-5.6 2.7-4.9 3.2-10 6-15.4 8.5-3.6 1.7-10.5 2.8-12.8 6.3-2.2 3.4-.8 10.4-.6 14.1.5 6.4 1.1 12.8 2 19.2z"/><path class="st2" d="M210.1 696.7c.7 5.3 1.7 10.7 1.4 16-.4 7.5-3.1 14.7-3.6 22.2-.4 5.6.5 11.2-.3 16.8-.5 3.6-1.7 7-2.4 10.5-2.3 11.6.2 23.6 7 33.3.5.8 1.2 1.5 2 2 .8.3 1.7.4 2.5.3 8.4-.2 16.8-.9 25.2-2.3.6 0 1.2-.3 1.6-.7.2-.3.3-.6.4-1 1.5-7.9-2-15.9-2.9-23.9-1-8.6 1.1-17.2 3.1-25.6.9-4.1 2.1-8.2 3.5-12.2 1-2.7 2.2-5.3 3-8.1 1.2-4.3 2-8.7 2.2-13.2.6-7.1.9-14.1.9-21.2.2-6.7-.4-13.4-1.7-20-1.9-8.3-5.7-16.1-9.5-23.7-2 .5-4 1.4-5.6 2.7-4.9 3.2-10 6-15.4 8.5-3.6 1.7-10.5 2.8-12.8 6.3-2.2 3.4-.8 10.4-.6 14.1.5 6.4 1.1 12.8 2 19.2z"/><path class="st5" d="M171 583c-3.8 10.4 1.8 21.6 6.7 31.5 12.1 24.4 20.5 50.4 28.9 76.3.6 1.9 1.3 4.1.6 6-.6 1.4-1.6 2.5-2.8 3.3-5.8 4.4-13.1 5.9-20 8.2-6.6 2.2-13 5.2-18.9 8.9-5 3.1-9.6 6.6-14.3 10.2l-14.8 11.3c-1 .6-1.8 1.5-2.5 2.4-1.4 2.2-.8 5.2-.1 7.7 1.9 6.8 4.3 13.4 7.3 19.8.5 1.4 1.4 2.6 2.6 3.4 2.3 1.2 5.1-.4 6.9-2.3s3.3-4.4 5.8-5.2c2.5-.8 5.2.2 7.8-.2 4.2-.6 7-4.5 10-7.4 12.4-12.1 33-11.3 46.6-22 2-1.8 4-3.4 6.2-4.9 2.3-1.4 4.9-2.1 7.3-3.3 7.3-3.7 11.8-11.2 14.3-19s3.1-15.9 4.9-23.9c.9-4.1 2.1-8.2 2.5-12.3.3-3.9.2-7.8-.3-11.7l-4.9-60.7c-.4-4.9-.8-9.9-1.6-14.8-14.6.5-29.1 1.1-43.7 1.3-11.7.3-23.5 1.1-34.5-2.6z"/><path class="st5" d="M165.6 597.2c2 3.2 6.8 3.1 10.1 1.4s5.9-4.7 9.2-6.4c4.5-2.3 9.7-2.2 14.8-2.1 8 .2 16 .5 23.7 2.6 7.9 2.3 15.6 6.6 23.8 5.7 1.4-.2 3-.6 3.8-1.8.5-.9.7-1.9.6-2.8l.3-7.2c.2-1.2 0-2.5-.6-3.6-.7-.9-1.6-1.7-2.7-2.1-11.7-5.6-25-6.7-37.9-7.1-6.6-.2-13.2-.3-19.8-.3-5.6 0-12.3-.8-17.7.7-7.3 2.1-11.3 17.1-7.6 23z"/><path class="st4" d="M238.8 409.7c-15.3-.1-29.1-10.2-44.4-10.5-1.8-.1-3.7.2-5.4.9-2.1 1.1-3.5 3.1-5.1 4.9-4.5 4.9-11.1 7.5-15.7 12.3-4.4 4.5-6.8 11.1-5.1 17.2s8.2 10.6 14.3 9.2c2.4-7.9 7.5-14.8 14.3-19.5 3.6-2.3 7.3-4.2 11.2-5.9 6.9-3.1 14.5-6.3 21.7-4 2.6 1 5.1 2.4 7.4 4l12 8c-1.4-5.4-2.6-11.5-5.2-16.6z"/><path class="st4" d="M175.6 438.4c-2 2.5.9 6.2.4 9.4-.3 2.1-2.1 3.8-2.8 5.8-.8 2.1-.4 4.4-.6 6.6-.3 1.6-.7 3.2-1.3 4.7-1.3 4.6-2.2 9.3-2.7 14l-2.7 20c-.5 3-.7 6-.8 9.1.1 2.3 0 4.6-.5 6.8-.6 2.2-1.9 4.1-2.8 6.2s-1.3 4.6-.1 6.5c-4 3.3-5.2 9.9-2.4 14.2.5.7.9 1.4 1.2 2.3.2 1.1 0 2.3-.5 3.3l-2.7 7.2c-.7 1.8-.9 4.7 1 5.1-1.6 1.7-2.8 3.6-3.7 5.8-.8 2.2-.4 4.6 1 6.5.7.6 1.2 1.3 1.7 2.1.3 1.1.2 2.2-.2 3.2-.8 3.2-.3 6.6 1.5 9.3 1.8 2.8 5.1 4.2 8.4 3.6 5.4-1.2 10.3-3.1 15.7-2.1 11.7 2.2 23.5 4.3 34.9 8 13 4.1 25.6 10.2 39.1 11.5.9.2 1.8 0 2.6-.4.7-.7 1.1-1.5 1.2-2.5 1.4-6.6 2.8-13.1 4.2-19.7 1.7-7.3 3-14.6 3.9-22 .5-4.8.6-9.6.7-14.4l1.1-38.2c.5-5.6-.2-11.3-2.2-16.6l-6.2-19.8c-3.5-11.3-11.7-21.4-14.6-32.9-1.8-7.3-3.2-15.1-8.1-20.8-7-8.1-19.1-9.4-29.8-8-4.8.6-9.6 1.7-13.8 4.2-4.8 2.9-8.3 7.4-11.8 11.8-2.5 3.6-5.4 6.6-8.3 10.2z"/><path class="st6" d="M200.4 550.8c.9 3.8 2.7 7.3 3.8 11 1.9 6.2 1.7 12.9 3.6 19.1.8 2.6 1.9 5.1 2.5 7.8 1.3 6.2-.6 12.6-3 18.5s-5.3 11.7-6.1 18c-.5 4.4.2 9.5 3.7 12.3 3.6 3 8.7 2.8 13.3 2.4 1.7 0 3.3-.4 4.8-1 3.5-1.7 5-5.9 5.9-9.7 2.8-12.8 2-26.1 1.2-39.2l-2.1-34.2c-.4-6.6-.8-13.3-2.9-19.6-.7-2.3-2-7-4.1-8.4-2.1-1.5-8-1.5-10.6-1.6-12.1-.7-11.9 16.2-10 24.6z"/><path class="st5" d="M213.8 424.4c-2.5-1.3-5.6-.7-8 .7-2.3 1.6-4.3 3.5-6 5.8-5.3 6.5-11 14-10.2 22.4.3 3.1 1.5 6.1 2.3 9.2 3.6 13.4-.4 27.5.1 41.4.3 8 2 15.9 3.7 23.7.4 1.6.9 3.4 2.5 4 1.2.4 2.4-.1 3.6-.6 8.7-3.2 18.4-2 26 3.3 2.9-1.5 1.8-6.4 1.1-9.5-1.9-9.5.7-19.2 3.8-28.3s6.9-18.2 7.4-27.9c.6-10.9-3-21.6-6.6-31.9-.8-2.3-1.6-4.6-3.4-6.2-1.5-1.2-3.3-2-5.2-2.4-3.7-1.2-7.5-1.8-11.1-3.7z"/></svg>