<svg version="1.1" id="Objects" xmlns="http://www.w3.org/2000/svg" xmlns:xlink="http://www.w3.org/1999/xlink" x="0" y="0" viewBox="0 0 500 500" xml:space="preserve"><style>.st1{fill:#292522;stroke:#e29b49;stroke-width:2;stroke-miterlimit:10}.st4{fill:none}.st5{fill:#e29b49}.st6{fill:#f6e1b6}.st12{fill:#292522}</style><radialGradient id="SVGID_1_" cx="232.877" cy="446.34" r="156.627" gradientTransform="matrix(1.1203 0 0 .1155 -10.892 396.58)" gradientUnits="userSpaceOnUse"><stop offset="0" stop-color="#292522"/><stop offset="1" stop-color="#292522" stop-opacity="0"/></radialGradient><ellipse cx="250" cy="448.1" rx="246.7" ry="18.7" opacity=".37" fill="url(#SVGID_1_)"/><circle class="st1" cx="250" cy="219.4" r="186.3"/><path d="M111.3 310.6C94.1 284.4 84 253.1 84 219.4c0-36.7 12-70.7 32.3-98.3m267.4.1c20.3 27.5 32.3 61.5 32.3 98.3 0 33.6-10 64.9-27.2 91" fill="none" stroke="#6dc8e3" stroke-miterlimit="10"/><path d="M115 308.3c-16.8-25.5-26.7-56-26.7-88.8 0-36 11.8-69.2 31.7-96.1m259.9 0c19.9 26.9 31.7 60.1 31.7 96 0 32.9-9.9 63.5-26.8 89.1" fill="none" stroke="#6297d9" stroke-miterlimit="10"/><path id="SVGID_x5F_2_x5F_" class="st4" d="M93.5 219.7c0-86.4 70.1-156.5 156.5-156.5s156.5 70.1 156.5 156.5"/><text><textPath xlink:href="#SVGID_x5F_2_x5F_" startOffset=".003%"><tspan class="st6" font-family="JosefinSans-SemiBold" font-size="17.152" letter-spacing="100">WILDERNESS EXPERIENCE</tspan></textPath></text><circle class="st5" cx="372.2" cy="110.4" r="2.3"/><circle class="st5" cx="127.8" cy="110.4" r="2.3"/><circle class="st5" cx="379.1" cy="320.7" r="2.3"/><path class="st5" d="M123.4 320.7c0-1.2-1-2.3-2.3-2.3-1.2 0-2.3 1-2.3 2.3 0 1.2 1 2.3 2.3 2.3 1.3 0 2.3-1.1 2.3-2.3z"/><path id="SVGID_x5F_3_x5F_" class="st4" d="M80.8 220.9c0 93.4 75.7 169.2 169.2 169.2s169.2-75.7 169.2-169.2"/><text><textPath xlink:href="#SVGID_x5F_3_x5F_" startOffset="0%"><tspan class="st6" font-family="JosefinSans-SemiBold" font-size="17.152" letter-spacing="100">DREAM EXPLORE DISCOVER</tspan></textPath></text><circle class="st6" cx="187.4" cy="371.5" r="1.2"/><path class="st6" d="M286.7 379.5c0-.7-.5-1.2-1.2-1.2s-1.2.5-1.2 1.2.5 1.2 1.2 1.2 1.2-.5 1.2-1.2z"/><g fill="none" stroke-miterlimit="10"><circle transform="rotate(-45.001 249.998 219.439)" cx="250" cy="219.4" stroke="#e29b49" r="142.9"/><circle cx="250" cy="219.4" r="138.6" stroke="#e3404b"/></g><circle cx="250" cy="219.4" r="132.9" fill="none" stroke="#f6e1b6" stroke-width="2" stroke-miterlimit="10"/><defs><path id="SVGID_4_" d="M122.9 215.2C122.9 144.4 180.3 87 251 87s128.1 57.4 128.1 128.1H122.9z"/></defs><clipPath id="SVGID_5_"><use xlink:href="#SVGID_4_" overflow="visible"/></clipPath><path d="M189.3 147.8l63.1 35.2m-76.3-42.6l9.4 5.2m1.1 20l64.5 17.2M173.2 162l7.9 2.1m-22.2-5.9l9.3 2.5m-30 19.1l112.9 3m-120.8 26.8l122.2-27.4m-95 47.9l95.5-49.3m-118.3 61.5l16.8-9m22.5 20.8l75.8-70.9m-97.1 90.4l14.9-13.6m115.9-126l8.7-13.2m-39.2 60l27.3-41.7m-26.9 41.4l19.8-64.7m-18.7 4.9l.2-11.1m-2.1 75l1.8-58.6m-16.3 1.7l-4-15.8m18.4 70.3l-12.9-49.3m12.2 48.7l-35.9-60.9m36.6 61.5l-56.7-53.3m142 139.4l-87.4-86.9m99.2 98.5l-7.9-7.8m-40.8-5.7l-50.5-84.8m58.4 98.2l-5.1-8.8m19.2 32.5l-11.4-19.2M283.8 305l-33.2-122.2m-.2 118.9l.7-119.4m-31.6 108.8L250.8 180m-38.5 134.9l5.3-17.6m-21-26.2l53.6-88.4m-72.8 118.5l15.8-24.9M300 137.8l7.2-6.3m-53 48.9l41.6-38.6m-42.8 39l68-35.7m3.8 18.3l14.9-3.4m-91.1 21.6l70.7-17m44.9 18.9l19.7.3m-132.7-2.6l107.3 2.1m-108.6-2.2L370 214.2m-19.2 24.1l13.9 7.8m-114.1-64.6l94.5 53.8m28.6-36.1l-9.3-1.4m-130.8-61.5l18.2 46.6m-30.6-77l10.6 26.1m-13.4 8.2l34.1 42m-42.7-52.9l5.6 7.1M197.8 114l9.1 11.6m-29.6 1l74.3 55.7m-93-37.3l93.2 37.9m-86.7-12.1l86.8 11.9m-110.7-15.4l18.1 2.6m1.1 22.1l89.6-9.6m-111.4 11.9l17.3-1.8m175.9-41.6l13.4-4.7m-26.1 9.6l7.9-2.9m-74.3 28.7l61.6-23.9m-61.6 23.7l74.6-52m-25.3-6.3l5.5-6.6M252.6 182l46.4-55.5m-20.2.2l9.4-19.2m-34.8 73l23.5-49.6m-24.4 51.3l13.7-78.3m-20.9 12.2l-1.5-13.4m9.2 78.1l-7.3-59.3M265 277.9l-14.5-97.2m17.4 116.5l-2.2-14.7m-26.4-7.7l11.5-94.3m-13.1 107.6l1-8.7m-3.3 27.3l1.7-14.1m-33.1 2L251.2 181m-86.6 108.4L251.2 181m-67.4 49.7l68.7-49.6m-86 62.2l12.8-9.3m.4-25.6l70.1-26.9M151 219.3l21.8-8.3m170.1-39.3l19.8-2.1m-110.2 11.5l85.2-8.9m-85.2 8.9l107.4 15.8m-9.4 26.4l18.5 7.9M249.2 180l96.9 41.4m4.8 36.4l8.6 6.4M251.2 181l95.9 73.8m-96.5-73.1l87.5 110m-42.4-3.8l5.4 12.5m-50.5-118.7l42.8 101.2m-92.8 19.8l2.3-5.7m-7.2 17.5l3.6-8.7" fill="none" stroke="#f6e1b6" stroke-width=".75" stroke-linecap="round" stroke-linejoin="round" stroke-miterlimit="10"/><g clip-path="url(#SVGID_5_)"><path class="st5" d="M250 214c-18.4 0-33.4-15-33.4-33.4s15-33.4 33.4-33.4 33.4 15 33.4 33.4-15 33.4-33.4 33.4z"/><path class="st12" d="M250 148.2c17.9 0 32.4 14.5 32.4 32.4S267.9 213 250 213s-32.4-14.5-32.4-32.4 14.5-32.4 32.4-32.4m0-2c-19 0-34.4 15.4-34.4 34.4S231 215 250 215s34.4-15.4 34.4-34.4-15.4-34.4-34.4-34.4z"/></g><path class="st6" d="M311.6 287.9s-.5 5-4.8 8.6h2.6s-.9 4.1-6.1 6.9h5s-3.3 5.8-8.6 9.1h5.9s-1.8 4.4-7.9 8.7h12v3.3c0 .3.2.5.5.5h3c.3 0 .5-.2.5-.5v-3.3h12c-6.1-4.3-7.9-8.7-7.9-8.7h5.9c-5.3-3.3-8.6-9.1-8.6-9.1h5c-5.2-2.8-6.1-6.9-6.1-6.9h2.6c-4.3-3.6-4.8-8.6-4.8-8.6s-.1-.2-.2 0zm-123.4 0s-.5 5-4.8 8.6h2.6s-.9 4.1-6.1 6.9h5s-3.3 5.8-8.6 9.1h5.9s-1.8 4.4-7.9 8.7h12v3.3c0 .3.2.5.5.5h3c.3 0 .5-.2.5-.5v-3.3h12c-6.1-4.3-7.9-8.7-7.9-8.7h5.9c-5.3-3.3-8.6-9.1-8.6-9.1h5c-5.2-2.8-6.1-6.9-6.1-6.9h2.6c-4.3-3.6-4.8-8.6-4.8-8.6s-.1-.2-.2 0z"/><path class="st6" d="M287.1 291.4s-.5 4.4-4.3 7.7h2.3s-.8 3.6-5.4 6.1h4.4s-2.9 5.2-7.7 8.1h5.3s-1.6 3.9-7.1 7.8h10.7v3c0 .2.2.4.4.4h2.7c.2 0 .4-.2.4-.4v-3h10.7c-5.5-3.9-7.1-7.8-7.1-7.8h5.3c-4.8-3-7.7-8.1-7.7-8.1h4.4c-4.6-2.5-5.4-6.1-5.4-6.1h2.3c-3.8-3.2-4.3-7.7-4.3-7.7s.2-.2.1 0zm-68.1 0s-.5 4.4-4.3 7.7h2.3s-.8 3.6-5.4 6.1h4.4s-2.9 5.2-7.7 8.1h5.3s-1.6 3.9-7.1 7.8h10.7v3c0 .2.2.4.4.4h2.7c.2 0 .4-.2.4-.4v-3h10.7c-5.5-3.9-7.1-7.8-7.1-7.8h5.3c-4.8-3-7.7-8.1-7.7-8.1h4.4c-4.6-2.5-5.4-6.1-5.4-6.1h2.3c-3.8-3.2-4.3-7.7-4.3-7.7s.2-.2.1 0z"/><path class="st6" d="M218.4 322l31.6-49.4 31.6 49.4z"/><path class="st12" d="M250 274l30.2 47.3h-60.4L250 274m0-2.8l-1.3 2-30.2 47.3-1.5 2.3h65.8l-1.5-2.3-30.2-47.3-1.1-2z"/><path class="st6" d="M250 277.1c-.4 0-.7-.3-.7-.7v-9.2c0-.4.3-.7.7-.7.4 0 .7.3.7.7v9.2c0 .4-.3.7-.7.7z"/><path class="st6" d="M250 275.7c-.1 0-.2 0-.3-.1-.3-.2-.5-.6-.3-.9l3.8-7.5c.2-.3.6-.5.9-.3.3.2.5.6.3.9l-3.8 7.5c-.1.2-.4.4-.6.4z"/><path class="st6" d="M250 275.7c-.2 0-.5-.1-.6-.4l-3.8-7.5c-.2-.3 0-.7.3-.9.3-.2.7 0 .9.3l3.8 7.5c.2.3 0 .7-.3.9-.1.1-.2.1-.3.1z"/><path class="st12" d="M250 277.1l-9.7 44.2h19.4z"/><path d="M240.3 321.3s-5.2-2.3-8.2-7.5c0 0 9.4-10.2 13.4-16.5l-5.2 24z" fill="#e29b49" stroke="#292522" stroke-miterlimit="10"/><g stroke-miterlimit="10"><path d="M171.9 322.8s31.6 26.5 76.6 26.5c52.3 0 80.7-27.3 80.7-27.3H171l.9.8z" fill="#292522" stroke="#292522" stroke-width="1.5"/><path d="M261.4 333.3h16.2m-21.9-2.9h18.2m-43.7 8.6h18.2m-48.4-2.8h9.1m1.9 0h7m-39.4-10h7m94 14.3h9.8m-49.8-4.3h6.9m-4 5.7h9.8m27.1-8.6h3.4m-32.6-2.9h3.4m-47.8 2.9h-9m20.4-7.1h-13.3m113.4 0h-27.6m-94.7 7.1h-3.4m27.5-7.1h3.4m-57.9-4.9h168.8" fill="none" stroke="#f6e1b6" stroke-width=".5"/></g><path class="st5" d="M160.1 285.4l1.1 2.1 2.3.4-1.7 1.6.4 2.3-2.1-1.1-2.1 1.1.4-2.3-1.7-1.6 2.3-.4zm41-10.5l1 2.1 2.4.4-1.7 1.6.4 2.3-2.1-1.1-2.2 1.1.4-2.3-1.7-1.6 2.4-.4zm-26.2-6.3l1 2.1 2.4.4-1.7 1.6.4 2.3-2.1-1.1-2.2 1.1.4-2.3-1.7-1.6 2.4-.4zm52.4 1l1.1 2.1 2.4.4-1.7 1.6.4 2.3-2.2-1.1-2.1 1.1.4-2.3-1.7-1.6 2.4-.4zm73.9 8l1 2.1 2.4.3-1.7 1.7.4 2.3-2.1-1.1-2.1 1.1.4-2.3-1.7-1.7 2.3-.3zm28.9-10.3l1 2 2.4.4-1.7 1.6.4 2.3-2.1-1.1-2.1 1.1.4-2.3-1.8-1.6 2.4-.4zm9.7 23.8l1.1 2.1 2.3.3-1.7 1.6.4 2.3-2.1-1-2.1 1 .4-2.3-1.7-1.6 2.3-.3zm-68.6-27.9l1.1 2.1 2.4.3-1.8 1.7.5 2.3-2.2-1.1-2.1 1.1.4-2.3-1.7-1.7 2.4-.3z"/><path class="st12" d="M69.1 279.5c-6.4-19.3-9.7-39.5-9.7-60 0-20.6 3.3-40.8 9.7-60.1l1.3-3.9 3.9 1.1c26.9 7.4 99 24.5 186.5 24.5 59.8 0 115.3-8.1 164.8-24l4.1-1.3 1.3 4c6.3 19.2 9.6 39.3 9.6 59.8 0 20.4-3.2 40.5-9.6 59.8l-1.3 4-4-1.3c-51.2-16.3-107.5-24.6-167.5-24.6-87.3 0-157.6 17.4-183.8 24.9l-4 1.1-1.3-4z"/><path class="st1" d="M73.2 160.6c-6.1 18.5-9.5 38.2-9.5 58.8 0 20.5 3.3 40.2 9.4 58.7 39.6-11.3 197.5-50 353.8-.2 6.1-18.4 9.4-38 9.4-58.4s-3.3-40-9.4-58.4c-151.6 48.8-313.5 10.5-353.7-.5z"/><path class="st6" d="M105 243.2c-4.6.7-6.9 1-11.4 1.7-.2 1.9-.4 2.8-.6 4.6.9 5.4 1.4 8 2.3 12-5.5 1.5-8.1 2.3-13.4 3.8 1.6-5 2.4-8.1 4-14.3 2.9-20.3 6.9-40.2 9.4-60.6-1.2-5.9-1.7-8.9-2.9-13.5 5 1.4 7.5 2.1 12.5 3.3 3.7 21.7 7.9 43.3 10.5 65.2 1.5 4.5 2.2 6.6 3.7 10-6.7 1.5-10.1 2.4-16.6 4.1 1.2-4.3 1.8-7.1 3-12.4-.2-1.5-.3-2.3-.5-3.9zM95.7 231c3.2-.2 4.7-.3 7.9-.5-1.3-10.6-2-10.3-3.8-21.1-1.4 10.7-2.2 10.3-4.1 21.6zm25.4 24c1.5-3.9 2.2-6.3 3.7-10.9.4-16.5.5-32.8.3-49.4-1.4-4.6-2.1-6.9-3.6-10.7 12.8 2.6 19.3 3.7 31.8 5.9 1.3 3.3 2 5.2 3.3 8.8 0 13.8 0 27.6-.1 41.5-1.4 3.6-2.1 5.5-3.5 8.8-12.7 1.9-19.2 3.2-31.9 6zm25.6-53.9c-.5-1.4-.7-2.2-1.2-3.6-4.5-.6-6.8-.9-11.4-1.5.5 1.6.7 2.3 1.2 3.9.3 13.1.2 26.2-.3 39.2-.4 1.4-.7 2.1-1.1 3.6 4.6-.6 6.9-.9 11.4-1.4.5-1.3.7-2 1.1-3.3.3-16.5.3-20.3.3-36.9zm38.6.3c-1.1-3.1-1.6-4.7-2.7-7.6 5.6.5 8.3.7 13.9 1.1-1.6 2.6-2.4 4-3.9 6.8-3.8 14.7-7.2 29.3-10.3 44.2-3.3.3-4.9.4-8.2.7-4.1-15.6-8.4-31.2-11.2-47.1-1.6-3.5-2.4-5.4-4-8.7 6.6 1.1 9.8 1.5 16.4 2.2-1 2.7-1.6 4.3-2.6 7.4 2.1 9.6 2.9 13.9 5.3 22 .5 2.3.8 3.6 1.4 6.2.4-2.6.5-3.8.9-6.1 1.8-8.1 3-12.3 5-21.1zm43.1-5.2v10.1c-2.7-1.4-4-2.1-6.7-3.5-4.4-.1-6.5-.1-10.9-.3.4.8.6 1.2.9 2.1v10.5h3.3c2.6-1.3 4-2 6.6-3.4 0 5.4 0 7.8.1 13.1-2.7-1.3-4-2-6.7-3.3h-3.3c.2 5 .3 7.9.5 13.5-.3.8-.4 1.1-.7 1.9 4.2-.1 6.3-.2 10.5-.3 2.6-1.5 3.9-2.2 6.4-3.6.1 4.1.1 6.2.2 10.2-11.6.3-17.3.6-29.1 1.4 1.2-2.9 1.8-4.4 3-7.3-.6-14.6-.8-20.6-.9-35-1.3-2.9-2-4.4-3.4-7.2 12.2.7 18.2.9 30.2 1.1zm40.4 0c-1.4 2.7-2.1 4-3.5 6.8-.1 13.4-.1 26.8-.1 40.1-2.9-.1-4.4-.1-7.3-.1-6.4-11.2-9.6-16.7-16-27.8.3 1.6.4 2.4.7 4v17.1c1.3 2.7 2 4 3.3 6.6-5.5.1-8.2.1-13.7.2 1.3-2.7 1.9-4.1 3.2-6.8-.1-13.5-.1-19.9-.1-33.4-1.3-2.7-2-4.1-3.3-6.7 4.3.1 6.4.1 10.7.1 6.2 11 9.3 16.6 15.5 27.6-.1-1.6-.2-2.5-.3-4.1v-16.9c-1.3-2.7-2-4-3.3-6.6 5.6.1 8.5 0 14.2-.1zm33.2 12.7c-2.3-1.2-3.5-1.8-5.8-3.1 0-1.5.1-2.2.1-3.6-1.6.1-2.5.1-4.1.2-.4 14.2-.5 20.3-.5 34.7 1.3 2.9 2 4.4 3.3 7.2-6.6-.4-10-.6-16.6-.8 1.3-2.6 2-4 3.3-6.8 0-14 0-20.2.3-34.1-1.6 0-2.4.1-4 .1 0 1.4 0 2.1-.1 3.5-2.4 1.3-3.6 1.9-6 3.1.1-5.3.1-8 .1-13.2 12.2-.3 18.3-.5 30.3-1.3 0 5.3-.1 8.4-.3 14.1zm27.8-8.7c-1.2-3.1-1.8-4.7-3.1-7.4 5.6-.6 8.2-.9 14-1.8-1.3 3.2-2 5-3.2 8.5v40.2c-1.3 3.3-2 4.9-3.3 7.7-9-.9-13.5-1.3-22.5-2-1.3-2.9-2-4.5-3.3-7.6 0-15.2.1-21.3.6-36.3-1.2-2.9-1.8-4.4-3.1-7 6.7-.5 10-.7 16.4-1.4-1.4 3-2.1 4.6-3.5 7.8-.4 14.5-.6 19.9-.5 34.7.5 1.1.7 1.6 1.1 2.7 3.6.2 5.4.3 9.1.6.4-1.1.6-1.6 1.1-2.7-.1-15.3-.1-20.8.2-36zm39.8 27.7c-.5-1.3-.7-1.9-1.2-3-4.1-.1-6.2-.1-10.3-.1.5 9.2.7 17 1.2 26.3-5.6-1-8.4-1.5-14.1-2.3 1.4-2.9 2-4.6 3.3-8-.4-14.2-.6-28.2-.6-42.4-1.3-3.5-2-5.1-3.4-8 12.5-2 19.3-3 32.3-5.6 1.3 3.1 1.9 5.2 3.1 9.4-.2 7.7-.4 12.4-.6 19-.8 2.2-1.2 3.2-2.1 4.9-2.2 1.3-3.4 1.7-5.4 2.9 2.2 1.1 3.2 1.8 5.4 3.2 1 2.1 1.5 3.3 2.4 5.8.3 5.6.4 9 .7 15.1 1.5 4.8 2.3 7.3 3.8 11.3-3.9-1-5.9-1.4-9.9-2.3-1.6-3.8-2.3-6.1-3.9-10.5-.2-6.4-.4-10-.7-15.7zm-11.7-10.3h10.2c.5-1 .7-1.6 1.2-2.8.1-5.2.2-8.8.3-15.2-.5-1.5-.7-2.2-1.2-3.7-4.6.6-7 .9-11.6 1.4.5 1.3.7 2 1.1 3.4v16.9zm59.2-43.2c-.2 6.4-.3 11.4-.5 20.5-2.5-2.6-3.7-3.8-6.2-6.1-4.2.9-6.4 1.3-10.7 2.1.3 1.4.5 2.2.8 3.7-.3 8.1-.5 12.7-.8 19 1.3 0 2-.1 3.3-.1 2.7-2.2 4.1-3.5 6.8-6.3-.4 10.5-.6 10.5-.3 19.5-2.7-2.3-4-3.4-6.8-5h-3.3c.3 6.2.5 12.5.8 23.1-.3 1.4-.4 2.1-.7 3.4 4.2.8 6.3 1.2 10.4 1.9 2.5-2.4 3.8-3.7 6.3-6.4.1 9.2.2 14.4.3 21.2-11.2-3.2-16.9-4.8-28.6-7.7 1.1-3.5 1.6-5.8 2.7-10.6-.8-18.3-.8-35.8-.1-54.1-1.2-4.6-1.8-6.8-3-10.2 12.5-2.6 18.7-4.1 29.6-7.9z"/></svg>