<svg version="1.1" id="OBJECTS" xmlns="http://www.w3.org/2000/svg" x="0" y="0" viewBox="0 0 250 250" xml:space="preserve"><style>.st1{fill:#5871ad}.st2{fill:#dd034b}</style><path id="XMLID_68_" d="M-343.7 301.4h-31.6c-35.1 0-63.5-28.4-63.5-63.5V99.8h158.7v138.1c-.1 35.1-28.6 63.5-63.6 63.5z" fill="#efe1d3"/><path class="st1" d="M-286.4 107.8h-147.8c-.6 0-1.1-.5-1.1-1.1 0-.6.5-1.1 1.1-1.1h147.8c.6 0 1.1.5 1.1 1.1.1.6-.4 1.1-1.1 1.1z"/><path class="st1" d="M-359.4 210.3c-.3 0-.6-.1-.8-.3l-15.9-15.9c-2.2-2.1-3.4-4.9-3.4-7.9 0-6 4.9-10.9 10.9-10.9 4.1 0 7.8 2.4 9.6 5.9 1.8-3.5 5.5-5.9 9.6-5.9 6 0 10.9 4.9 10.9 10.9 0 3.4-1.5 6.5-4.2 8.5l-16 15.2c-.1.3-.4.4-.7.4zm-9.2-32.7c-4.8 0-8.6 3.9-8.6 8.6 0 2.4 1 4.6 2.7 6.3l15.1 15.1 15.3-14.5c2.2-1.7 3.4-4.2 3.4-6.8 0-4.8-3.9-8.6-8.6-8.6-4.2 0-7.9 3.2-8.5 7.4-.1.6-.6 1-1.1 1-.6 0-1-.4-1.1-1-.7-4.3-4.3-7.5-8.6-7.5zm35.9 56.6c-3.4 0-6.5-1.5-8.6-4.2l-15.2-16c-.4-.4-.4-1.1 0-1.6l15.9-15.9c2.1-2.2 4.8-3.4 7.8-3.4 6 0 10.9 4.9 10.8 10.9 0 4.1-2.4 7.8-5.9 9.6 3.5 1.8 5.9 5.5 5.8 9.6 0 2.9-1.1 5.6-3.2 7.7-1.8 2.2-4.5 3.3-7.4 3.3zm0-2.2c2.3 0 4.5-.9 6.1-2.5 1.6-1.6 2.5-3.8 2.5-6.1 0-4.2-3.1-7.9-7.3-8.5-.6-.1-1-.6-1-1.1 0-.6.4-1 1-1.1 4.2-.6 7.4-4.3 7.4-8.5 0-4.8-3.8-8.6-8.6-8.6-2.4 0-4.6 1-6.2 2.7l-15.2 15.1 14.5 15.3c1.6 2 4.1 3.3 6.8 3.3zm-17.9 18.8c-.1 0-.1 0 0 0-4.2 0-7.8-2.4-9.6-5.9-1.8 3.5-5.5 5.8-9.6 5.8-6 0-10.8-4.9-10.8-10.9 0-3.4 1.5-6.5 4.2-8.5l16-15.2c.4-.4 1.1-.4 1.6 0l15.8 16c2.2 2.1 3.4 4.9 3.3 7.9-.1 5.9-5 10.8-10.9 10.8zm-9.7-10.6c.6 0 1 .4 1.1 1 .6 4.2 4.2 7.4 8.5 7.4 2.3 0 4.4-.9 6.1-2.5 1.6-1.6 2.5-3.8 2.6-6.1 0-2.4-.9-4.6-2.7-6.3l-15.1-15.2-15.3 14.5c-2.2 1.7-3.4 4.2-3.4 6.8 0 4.8 3.8 8.6 8.6 8.7 4.2 0 7.9-3.1 8.5-7.3.1-.6.6-1 1.1-1zm-26.1-7.4c-.1 0-.1 0 0 0-6.1 0-10.9-4.9-10.9-10.9 0-4.1 2.4-7.8 5.9-9.6-3.5-1.9-5.8-5.5-5.8-9.7 0-6 4.9-10.8 10.9-10.8h.1c3.4 0 6.5 1.6 8.5 4.2l15.1 16.1c.4.4.4 1.1 0 1.6l-16 15.8c-2.1 2.1-4.9 3.3-7.8 3.3zm.1-38.8c-4.7 0-8.6 3.8-8.6 8.6 0 4.2 3.1 7.9 7.3 8.6.5.1 1 .6 1 1.1 0 .6-.4 1-1 1.1-4.2.6-7.4 4.2-7.4 8.5 0 4.8 3.8 8.6 8.6 8.7h.1c2.4 0 4.6-.9 6.2-2.7l15.2-15-14.4-15.4c-1.9-2.2-4.3-3.5-7-3.5z" id="XMLID_69_"/><g id="XMLID_92_"><path class="st1" d="M-415.2 131.9v-13.1h1.8l4.2 6.6c1 1.5 1.7 2.9 2.3 4.2-.2-1.7-.2-3.3-.2-5.4v-5.5h1.6v13.1h-1.7l-4.1-6.6c-.9-1.5-1.8-2.9-2.4-4.4h-.1c.1 1.6.1 3.2.1 5.4v5.6h-1.5zm21-4.1l-1.4 4.1h-1.7l4.4-13.1h2l4.5 13.1h-1.8l-1.4-4.1h-4.6zm4.3-1.3l-1.3-3.8c-.3-.9-.5-1.6-.7-2.4-.2.8-.4 1.6-.7 2.4l-1.3 3.8h4zm12.7-6.2h-4v-1.4h9.7v1.4h-4v11.6h-1.7v-11.6zm15-1.4v7.7c0 2.9 1.3 4.2 3 4.2 1.9 0 3.2-1.3 3.2-4.2v-7.7h1.7v7.6c0 4-2.1 5.7-4.9 5.7-2.7 0-4.7-1.5-4.7-5.6v-7.7h1.7zm17.1.1c.9-.2 2.1-.3 3.2-.3 1.8 0 3 .3 3.8 1.1.7.6 1 1.5 1 2.5 0 1.7-1.1 2.9-2.5 3.3v.1c1 .3 1.6 1.3 1.9 2.6.4 1.8.7 3.1 1 3.6h-1.7c-.2-.4-.5-1.5-.9-3.1-.4-1.8-1.1-2.5-2.6-2.5h-1.6v5.7h-1.7v-13zm1.6 6h1.7c1.8 0 2.9-1 2.9-2.5 0-1.7-1.2-2.4-3-2.4-.8 0-1.4.1-1.7.2v4.7zm17.2 2.8l-1.4 4.1h-1.7l4.4-13.1h2l4.5 13.1h-1.8l-1.4-4.1h-4.6zm4.3-1.3l-1.3-3.8c-.3-.9-.5-1.6-.7-2.4-.2.8-.4 1.6-.7 2.4l-1.3 3.8h4zm11.6-7.6h1.7v11.6h5.6v1.4h-7.3v-13z" id="XMLID_88_"/><path class="st1" d="M-396.4 149.5c-.5.2-1.4.5-2.6.5-2.8 0-4.9-1.8-4.9-5.1 0-3.1 2.1-5.3 5.2-5.3 1.2 0 2 .3 2.4.4l-.3 1.1c-.5-.2-1.2-.4-2-.4-2.3 0-3.9 1.5-3.9 4.1 0 2.5 1.4 4 3.8 4 .8 0 1.6-.2 2.1-.4l.2 1.1zm14.6-4.8c0 3.4-2.1 5.3-4.7 5.3s-4.5-2.1-4.5-5.1c0-3.2 2-5.3 4.7-5.3 2.8 0 4.5 2.1 4.5 5.1zm-7.8.1c0 2.1 1.2 4.1 3.2 4.1 2.1 0 3.2-1.9 3.2-4.2 0-2-1-4.1-3.2-4.1-2.1.1-3.2 2-3.2 4.2zm22.7.6c-.1-1.4-.2-3.1-.1-4.3-.3 1.2-.8 2.4-1.3 3.8l-1.8 4.9h-1l-1.6-4.8c-.5-1.4-.9-2.7-1.2-3.9 0 1.2-.1 2.9-.2 4.4l-.3 4.3h-1.2l.7-10h1.6l1.7 4.8c.4 1.2.8 2.3 1 3.4.3-1 .6-2.1 1.1-3.4l1.8-4.8h1.6l.6 10h-1.3l-.1-4.4zm8.3-5.5c.6-.1 1.4-.2 2.5-.2 1.3 0 2.2.3 2.8.8.5.5.9 1.2.9 2.1 0 .9-.3 1.6-.8 2.1-.7.7-1.8 1.1-3.1 1.1-.4 0-.7 0-1-.1v4h-1.3v-9.8zm1.3 4.8c.3.1.6.1 1.1.1 1.6 0 2.5-.8 2.5-2.1s-.9-2-2.4-2c-.6 0-1 0-1.2.1v3.9zm11.7 1.9l-1 3.2h-1.3l3.4-10h1.6l3.4 10h-1.4l-1.1-3.2h-3.6zm3.3-1l-1-2.9c-.2-.7-.4-1.2-.5-1.8-.1.6-.3 1.2-.5 1.8l-1 2.9h3zm8.9 4.2v-10h1.4l3.2 5.1c.7 1.2 1.3 2.2 1.8 3.3-.1-1.3-.1-2.6-.1-4.1v-4.2h1.2v10h-1.3l-3.2-5.1c-.7-1.1-1.4-2.3-1.9-3.3.1 1.3.1 2.5.1 4.1v4.3h-1.2zm16.7 0v-4.3l-3.2-5.8h1.5l1.4 2.8c.4.8.7 1.4 1 2.1.3-.7.6-1.3 1-2.1l1.4-2.8h1.5l-3.4 5.8v4.3h-1.2z" id="XMLID_94_"/></g><path class="st1" d="M-421.5 180.2c.3.2.8.4 1.3.4.7 0 1.1-.4 1.1-.9s-.3-.8-1-1.1c-.9-.3-1.4-.8-1.4-1.5 0-.8.7-1.5 1.8-1.5.6 0 1 .1 1.2.3l-.2.6c-.2-.1-.5-.3-1-.3-.7 0-1 .4-1 .8 0 .5.3.8 1.1 1 .9.4 1.4.8 1.4 1.6s-.6 1.6-1.9 1.6c-.5 0-1.1-.2-1.4-.3v-.7zm7.4-4.6v5.4h-.7v-5.4h.7zm3.8 5.5v-5.4h.8l1.7 2.8c.4.6.7 1.2 1 1.8-.1-.7-.1-1.4-.1-2.2v-2.3h.7v5.4h-.7l-1.7-2.8c-.4-.6-.7-1.2-1-1.8 0 .7.1 1.3.1 2.2v2.3h-.8zm11.7-.2c-.3.1-.8.3-1.4.3-1.5 0-2.7-1-2.7-2.8 0-1.7 1.2-2.9 2.8-2.9.7 0 1.1.1 1.3.2l-.2.6c-.3-.1-.6-.2-1.1-.2-1.3 0-2.1.8-2.1 2.2 0 1.3.8 2.2 2.1 2.2.4 0 .9-.1 1.1-.2l.2.6zm6.3-2.4h-2.1v2h2.4v.6h-3.1v-5.4h2.9v.6h-2.2v1.7h2.1v.5z" id="XMLID_95_"/><path class="st1" d="M-323.6 176.5l-.9.5-.1-.5 1.1-.6h.6v5.2h-.7v-4.6zm5.6 4.1h.6c.4-.1.8-.2 1.1-.5.3-.3.6-.8.7-1.4-.3.4-.7.6-1.2.6-.9 0-1.5-.7-1.5-1.6 0-1 .7-1.9 1.8-1.9s1.7.9 1.7 2.2c0 1.2-.4 2-.9 2.5-.4.4-1 .6-1.5.7h-.7v-.6zm.3-3.1c0 .7.4 1.1 1 1.1.5 0 .8-.2 1-.5 0-.1.1-.1.1-.3 0-.9-.3-1.6-1.1-1.6-.6.1-1 .6-1 1.3zm6 2.2c0-.7.4-1.1 1-1.4-.6-.3-.8-.7-.8-1.2 0-.8.7-1.4 1.6-1.4 1 0 1.5.6 1.5 1.3 0 .4-.2.9-.9 1.2.7.3 1.1.7 1.1 1.4 0 .9-.8 1.5-1.8 1.5-1.1 0-1.7-.6-1.7-1.4zm2.8 0c0-.6-.4-.9-1.2-1.1-.6.2-.9.6-.9 1.1 0 .5.4 1 1 1 .7-.1 1.1-.5 1.1-1zm-2-2.6c0 .5.4.8 1 1 .5-.2.8-.5.8-1 0-.4-.3-.9-.9-.9-.5 0-.9.4-.9.9zm5.9 2.6c0-.7.4-1.1 1-1.4-.6-.3-.8-.7-.8-1.2 0-.8.7-1.4 1.6-1.4 1 0 1.5.6 1.5 1.3 0 .4-.2.9-.9 1.2.7.3 1.1.7 1.1 1.4 0 .9-.8 1.5-1.8 1.5s-1.7-.6-1.7-1.4zm2.8 0c0-.6-.4-.9-1.2-1.1-.6.2-.9.6-.9 1.1 0 .5.4 1 1 1 .7-.1 1.1-.5 1.1-1zm-1.9-2.6c0 .5.4.8 1 1 .5-.2.8-.5.8-1 0-.4-.3-.9-.9-.9-.6 0-.9.4-.9.9z" id="XMLID_100_"/><path class="st1" d="M-360.3 278.6c-.6 0-1.1-.5-1.1-1.1v-33.6c0-.6.5-1.1 1.1-1.1s1.1.5 1.1 1.1v33.6c0 .6-.5 1.1-1.1 1.1z"/><path class="st2" d="M63.9 126.8c.3.4.4 1 .4 1.7 0 1.3-.3 2.4-1 3.2-1.9 2.3-3.8 3.9-5.5 4.8s-3.9 1.4-6.5 1.4c-1.8 0-3.4-.2-4.9-.7-1.5-.4-3.3-1.1-5.5-2-1.9-.9-3.8-1.6-5.6-2.1-1.7 3.2-4.3 4.8-7.8 4.8-1.9 0-3.4-.4-4.6-1.3-1.1-.9-1.7-2-1.7-3.3 0-1.7.8-3.1 2.4-4.2 1.6-1.1 3.7-1.7 6.4-1.7h.7l.9-14.9c.2-3.4.8-6.2 1.8-8.4s2.4-4.1 4.2-5.7C39.2 97 41 96 43 95.3c2-.7 4.1-1 6.4-1 3.7 0 6.5 1 8.5 2.9s3 4.4 3 7.5c0 2.1-.4 3.8-1.1 5-.8 1.3-1.8 1.9-3.1 1.9-1 0-1.7-.2-2.3-.7-.5-.5-.8-1.1-.8-2 0-.3.1-.9.2-1.7.2-1 .3-1.8.3-2.6 0-1.4-.4-2.6-1.3-3.4-.8-.8-2.1-1.3-3.8-1.3-3 0-5.3 1-7 2.9-1.6 2-2.7 5-3.1 9.2l-1.2 11.6c-.2 1.6-.4 3.1-.7 4.2 2.2.4 4.9 1 8.2 1.8 1.9.5 3.4.8 4.4 1 1 .2 1.9.3 2.7.3 2 0 3.7-.3 5.1-1 1.4-.7 2.8-1.7 4-3.2.4-.5.9-.7 1.4-.7.5.2.8.4 1.1.8z"/><path class="st2" d="M61.6 135.7c-1-1.4-1.5-3.2-1.5-5.3 0-2.6.2-4.9.5-7 .3-2.1.9-4.4 1.7-6.8.3-1 .8-1.8 1.4-2.2.6-.4 1.6-.7 2.9-.7.7 0 1.3.1 1.6.4.3.2.4.6.4 1.1 0 .3-.2 1.2-.6 2.8-.3 1.3-.6 2.4-.8 3.4-.7 3.6-1 6-1 7.2 0 .7.1 1.2.3 1.5.2.3.4.4.8.4.5 0 1.2-.5 1.9-1.5.8-1 1.6-2.6 2.5-4.7.9-2.1 1.7-4.6 2.5-7.7.3-1 .7-1.8 1.3-2.2.6-.4 1.4-.7 2.5-.7.8 0 1.3.1 1.6.3.3.2.5.5.5 1 0 .9-.4 3.2-1.3 7-1 4.4-1.4 7.1-1.4 8.1 0 .6.1 1.2.4 1.5.3.4.6.5 1.1.5.7 0 1.5-.4 2.4-1.3.9-.8 2.2-2.2 3.8-4.1.4-.5.9-.7 1.4-.7.4 0 .8.2 1 .6.3.4.4 1 .4 1.7 0 1.4-.3 2.4-1 3.2-1.5 1.8-3 3.3-4.7 4.4-1.7 1.2-3.6 1.7-5.8 1.7-1.6 0-2.8-.6-3.6-1.9-.8-1.3-1.2-3-1.2-5.3-.6 2.3-1.4 4.1-2.6 5.3-1.2 1.2-2.4 1.9-3.7 1.9-1.5.2-2.7-.5-3.7-1.9z"/><path class="st2" d="M113.9 126.8c.3.4.4 1 .4 1.7 0 1.4-.3 2.4-1 3.2-1.4 1.7-2.9 3.2-4.6 4.4-1.7 1.2-3.3 1.8-5 1.8-2.6 0-4.6-1.5-5.9-4.6-1.4 1.8-2.7 3-3.8 3.6-1.1.6-2.3.9-3.8.9-2.1 0-3.8-.8-5.1-2.3-1.3-1.6-2-3.6-2-6.1 0-2.7.6-5.3 1.7-7.6 1.2-2.3 2.8-4.2 4.8-5.7s4.3-2.4 6.8-2.6c.6-6.6 1.9-12.3 3.7-17 1.8-4.7 4.2-7 7.2-7 1.5 0 2.7.7 3.7 2s1.5 3.3 1.5 6c0 3.8-.9 8.3-2.8 13.4s-4.4 10.4-7.5 15.8c.1 2 .4 3.4.9 4.2.5.9 1 1.3 1.8 1.3.9 0 1.9-.4 2.8-1.2 1-.8 2.2-2.2 3.8-4.1.4-.5.9-.7 1.4-.7.3 0 .7.2 1 .6zM94 131.9c.6-.5 1.5-1.5 2.5-2.9-.3-1.8-.5-3.9-.5-6.2 0-.8 0-2.1.1-4-1.9.6-3.4 1.8-4.7 3.8-1.2 1.9-1.9 4.1-1.9 6.4 0 2.5.9 3.7 2.6 3.7.6 0 1.2-.3 1.9-.8zM104.8 98c-.6 2.3-1.2 5.3-1.7 9s-.8 7.6-1 11.7c3.8-8.3 5.7-15 5.7-20 0-1.3-.1-2.3-.3-3-.2-.7-.5-1.1-.8-1.1-.6-.1-1.2 1.1-1.9 3.4z"/><path class="st2" d="M111.6 135.5c-1-1.6-1.5-3.6-1.5-6.2 0-1.5.2-3.5.6-5.9.4-2.4.9-4.6 1.5-6.7.3-1.1.7-1.8 1.2-2.3.5-.4 1.3-.6 2.5-.6 1.7 0 2.6.6 2.6 1.7 0 .9-.3 2.8-1 5.9-.8 3.8-1.2 6.3-1.2 7.6 0 1 .1 1.8.4 2.4.3.5.7.8 1.4.8.6 0 1.4-.4 2.3-1.3.9-.9 2.1-2.2 3.7-4 .4-.5.9-.7 1.4-.7.4 0 .8.2 1 .6.3.4.4 1 .4 1.7 0 1.4-.3 2.4-1 3.2-3.4 4.1-6.5 6.2-9.5 6.2-2.2-.1-3.8-.9-4.8-2.4zm2-26.1c-.7-.7-1.1-1.6-1.1-2.8 0-1.2.5-2.2 1.4-3 .9-.8 2.1-1.2 3.5-1.2 1.3 0 2.3.3 3.1.9.8.6 1.2 1.5 1.2 2.6 0 1.4-.4 2.4-1.3 3.2-.9.8-2.1 1.2-3.5 1.2-1.5.1-2.6-.3-3.3-.9z"/><path class="st2" d="M124.6 135c-1.9-1.9-2.8-4.4-2.8-7.5 0-2.8.5-5.2 1.6-7.3 1.1-2.1 2.5-3.7 4.2-4.8s3.6-1.7 5.5-1.7 3.3.6 4.4 1.7c1 1.1 1.6 2.5 1.6 4.3 0 1.4-.3 2.6-.9 3.6-.6 1-1.5 1.5-2.5 1.5-.6 0-1.2-.2-1.6-.5-.4-.3-.6-.7-.6-1.3 0-.2 0-.5.1-.8.1-.3.1-.5.2-.7.2-.5.3-1 .3-1.4 0-.4-.1-.8-.3-1s-.5-.4-.9-.4c-.8 0-1.5.4-2.2 1-.7.7-1.2 1.6-1.6 2.8-.4 1.2-.6 2.5-.6 3.9 0 4 1.7 5.9 5.2 5.9 1.4 0 2.9-.5 4.5-1.4 1.6-.9 3.2-2.3 4.8-4.2.4-.5.9-.7 1.4-.7.4 0 .8.2 1 .6.3.4.4 1 .4 1.7 0 1.3-.3 2.4-1 3.2-1.6 2-3.5 3.5-5.8 4.6-2.2 1.1-4.4 1.6-6.5 1.6-3.4.1-6-.8-7.9-2.7z"/><path class="st2" d="M142.4 135.8c-.5-1.4-.8-3.5-.8-6.5 0-4.4.6-8.6 1.9-12.6.3-1 .8-1.7 1.5-2.2.7-.5 1.7-.7 2.9-.7.7 0 1.2.1 1.4.3.3.2.4.5.4 1s-.3 1.8-.8 3.7c-.3 1.4-.6 2.6-.8 3.6-.2 1-.4 2.3-.5 3.8 1.1-2.9 2.4-5.3 3.8-7.2 1.4-1.8 2.8-3.2 4.1-3.9s2.6-1.2 3.7-1.2c2.2 0 3.3 1.1 3.3 3.3 0 .4-.2 1.5-.5 3.2-.3 1.4-.4 2.2-.4 2.6 0 1.2.4 1.8 1.3 1.8 1 0 2.2-.8 3.7-2.3.4-.4.9-.7 1.4-.7.4 0 .8.2 1 .6.3.4.4.9.4 1.6 0 1.3-.3 2.3-1 3-1 1-2.1 1.8-3.4 2.5-1.3.7-2.6 1-4.1 1-1.8 0-3.2-.5-4.1-1.4-.9-.9-1.4-2.2-1.4-3.7 0-.5.1-1 .2-1.5.1-.7.1-1.1.1-1.4 0-.5-.2-.8-.6-.8-.5 0-1.2.6-2 1.7s-1.7 2.7-2.5 4.5c-.8 1.9-1.5 3.9-2 5.9-.4 1.6-.8 2.7-1.3 3.2-.5.6-1.3.8-2.3.8-1.2 0-2.1-.7-2.6-2z"/><path class="st2" d="M191.9 122.5c.2.4.4 1 .4 1.7 0 1.6-.5 2.6-1.5 2.9-2 .7-4.3 1.1-6.8 1.2-.6 2.9-1.9 5.2-3.8 6.9-1.9 1.7-4.1 2.6-6.5 2.6-2 0-3.8-.5-5.2-1.5-1.4-1-2.5-2.3-3.3-3.9s-1.1-3.4-1.1-5.3c0-2.6.5-4.9 1.5-6.9s2.4-3.6 4.1-4.8c1.7-1.1 3.7-1.7 5.8-1.7 2.6 0 4.7.9 6.3 2.7 1.6 1.8 2.5 4 2.8 6.6 1.6-.1 3.5-.4 5.7-1 .3-.1.5-.1.7-.1.3 0 .6.2.9.6zm-15 8.6c.8-.9 1.3-2.2 1.6-3.8-1.1-.7-1.9-1.7-2.4-2.8-.6-1.2-.8-2.4-.8-3.7 0-.5.1-1.1.2-1.6h-.3c-1.4 0-2.5.7-3.4 2s-1.4 3.2-1.4 5.5c0 1.9.4 3.3 1.1 4.3.7 1 1.6 1.5 2.6 1.5 1.1-.1 2-.5 2.8-1.4z"/><path class="st2" d="M189.3 135.7c-1-1.4-1.5-3.2-1.5-5.3 0-2.6.2-4.9.5-7s.9-4.4 1.7-6.8c.3-1 .8-1.8 1.4-2.2.6-.4 1.6-.7 2.9-.7.7 0 1.3.1 1.6.4.3.2.4.6.4 1.1 0 .3-.2 1.2-.6 2.8-.3 1.3-.6 2.4-.8 3.4-.7 3.6-1 6-1 7.2 0 .7.1 1.2.3 1.5.2.3.4.4.8.4.5 0 1.2-.5 1.9-1.5.8-1 1.6-2.6 2.5-4.7.9-2.1 1.7-4.6 2.5-7.7.3-1 .7-1.8 1.3-2.2.6-.4 1.4-.7 2.5-.7.8 0 1.3.1 1.6.3.3.2.5.5.5 1 0 .9-.4 3.2-1.3 7-1 4.4-1.4 7.1-1.4 8.1 0 .6.1 1.2.4 1.5.3.4.6.5 1.1.5.7 0 1.5-.4 2.4-1.3.9-.8 2.2-2.2 3.8-4.1.4-.5.9-.7 1.4-.7.4 0 .8.2 1 .6s.4 1 .4 1.7c0 1.4-.3 2.4-1 3.2-1.5 1.8-3 3.3-4.7 4.4-1.7 1.2-3.6 1.7-5.8 1.7-1.6 0-2.8-.6-3.6-1.9-.8-1.3-1.2-3-1.2-5.3-.6 2.3-1.4 4.1-2.6 5.3-1.2 1.2-2.4 1.9-3.7 1.9-1.5.2-2.7-.5-3.7-1.9z"/><path class="st2" d="M216.9 137.7c-.9-.8-1.4-1.7-1.4-2.8 0-.9.3-1.7 1-2.3.6-.6 1.6-1 2.9-1 .4 0 1 0 1.6.1.6.1 1 .1 1.4.2 0-.9-.2-1.7-.6-2.5-.4-.8-.8-1.5-1.4-2.3-.5-.7-1.1-1.4-1.5-1.9-1.1 2-2.1 3.7-3.1 5-1 1.3-2.2 2.6-3.4 3.8-.6.6-1.3.9-1.9.9-.5 0-1-.2-1.3-.6-.3-.4-.5-.9-.5-1.5 0-.7.2-1.3.7-1.9l.7-.8c1.9-2.3 3.3-4.2 4.2-5.7.6-1 1.2-2.2 1.9-3.5.6-1.4 1.5-3.2 2.5-5.6.6-1.5 2-2.3 4-2.3 1 0 1.6.1 2 .3.4.2.6.4.6.8 0 .2-.1.5-.2 1-.1.4-.3.9-.6 1.3-.6 1.2-.9 2.3-.9 3.1 0 .5.2 1.1.5 1.7.4.6.9 1.4 1.7 2.3 1.1 1.4 1.9 2.7 2.5 3.7.6 1 .8 2.1.8 3.3 0 1.4-.3 2.8-1 4.1s-1.6 2.3-2.8 3.1c-1.2.8-2.6 1.2-4.1 1.2-2 0-3.4-.4-4.3-1.2z"/><path d="M155.1 154.5c-.6-.4-1-1-1-1.9 0-.4.1-.8.2-1 .2-.2.4-.3.7-.3.2 0 .4.1.5.2s.2.3.2.4v.9c0 .4.2.6.5.8.4.2.9.3 1.5.3.7 0 1.2-.1 1.6-.4.4-.2.6-.6.6-1 0-.3-.1-.5-.3-.7-.2-.2-.4-.4-.7-.5s-.6-.3-1.1-.5c-.6-.2-1.1-.5-1.5-.7s-.7-.5-1-.9c-.3-.4-.4-.8-.4-1.4 0-.6.2-1.1.5-1.5.3-.4.8-.8 1.3-1 .6-.2 1.3-.4 2-.4.6 0 1.1.1 1.6.3s.9.4 1.2.8c.3.4.4.8.4 1.3s-.1.9-.2 1.1-.4.4-.7.4c-.2 0-.4-.1-.5-.2-.1-.1-.2-.3-.2-.5v-.9c0-.3-.2-.6-.5-.8-.3-.2-.7-.3-1.2-.3-.7 0-1.2.1-1.6.4s-.5.6-.5 1.1c0 .3.1.6.3.8.2.2.4.4.7.5.3.1.7.3 1.2.5.6.2 1.1.5 1.5.7.4.2.7.5.9.8.3.3.4.8.4 1.3 0 .9-.4 1.7-1.1 2.2s-1.7.8-2.9.8c-.9-.1-1.8-.3-2.4-.7zm7.8 0c-.2-.4-.4-.9-.4-1.5 0-.4 0-.8.1-1.4.1-.6.2-1.1.4-1.6.1-.3.2-.4.3-.5.1-.1.3-.1.6-.1.4 0 .6.1.6.4 0 .2-.1.7-.2 1.4-.2.9-.3 1.5-.3 1.8 0 .2 0 .4.1.6.1.1.2.2.3.2.1 0 .3-.1.5-.3l.9-.9c.1-.1.2-.2.3-.2.1 0 .2 0 .2.1.1.1.1.2.1.4 0 .3-.1.6-.2.7-.8 1-1.5 1.5-2.2 1.5-.5 0-.9-.2-1.1-.6zm.5-6.1c-.2-.2-.3-.4-.3-.7 0-.3.1-.5.3-.7.2-.2.5-.3.8-.3.3 0 .5.1.7.2.2.1.3.3.3.6s-.1.6-.3.8c-.2.2-.5.3-.8.3-.3 0-.6 0-.7-.2z"/><path d="M165.7 154.6c-.1-.3-.2-.8-.2-1.5 0-1 .1-2 .4-3 .1-.2.2-.4.4-.5.2-.1.4-.2.7-.2.2 0 .3 0 .3.1.1 0 .1.1.1.2s-.1.4-.2.9c-.1.3-.1.6-.2.8 0 .2-.1.5-.1.9.3-.7.6-1.2.9-1.7.3-.4.6-.7 1-.9.3-.2.6-.3.9-.3.5 0 .8.3.8.8 0 .3-.1.9-.3 1.7-.2.7-.2 1.2-.2 1.4 0 .3.1.5.3.5.2 0 .4-.1.6-.3s.5-.5.9-1c.1-.1.2-.2.3-.2.1 0 .2 0 .2.1.1.1.1.2.1.4 0 .3-.1.6-.2.7-.3.4-.7.8-1.1 1-.4.3-.8.4-1.4.4-.4 0-.7-.1-.9-.4s-.3-.6-.3-1c0-.2.1-.6.2-1.2.1-.5.2-.9.2-1 0-.1 0-.2-.1-.2s-.3.1-.4.4c-.2.3-.4.6-.6 1.1-.2.4-.4.9-.5 1.4-.1.4-.2.6-.3.8-.1.1-.3.2-.5.2-.5.1-.7-.1-.8-.4z"/><path d="M171.9 154.4c-.4-.4-.7-1-.7-1.8 0-.6.1-1.2.4-1.7.3-.5.6-.9 1-1.1.4-.3.8-.4 1.3-.4.4 0 .8.1 1 .4s.4.6.4 1c0 .3-.1.6-.2.9-.1.2-.3.3-.6.3-.2 0-.3 0-.4-.1-.1-.1-.1-.2-.1-.3v-.4c0-.1.1-.2.1-.3 0-.1 0-.2-.1-.2s-.1-.1-.2-.1c-.2 0-.4.1-.5.2s-.3.4-.4.7c-.1.3-.1.6-.1.9 0 .9.4 1.4 1.2 1.4.3 0 .7-.1 1.1-.3.4-.2.8-.6 1.1-1 .1-.1.2-.2.3-.2.1 0 .2 0 .2.1.1.1.1.2.1.4 0 .3-.1.6-.2.7-.4.5-.8.8-1.4 1.1-.5.3-1 .4-1.5.4-.7.1-1.3-.1-1.8-.6z"/><path d="M180.4 152.9c.1.1.1.2.1.4 0 .3-.1.5-.2.7-.2.3-.5.6-.9.8-.4.2-.8.3-1.3.3-.8 0-1.4-.2-1.8-.7-.4-.5-.6-1.1-.6-1.9 0-.6.1-1.1.3-1.5.2-.5.6-.9 1-1.1s.9-.4 1.4-.4c.5 0 .8.1 1.1.4.3.3.4.6.4 1.1 0 .6-.2 1-.6 1.4-.4.4-1.1.7-2 .9.2.4.5.6 1 .6.3 0 .6-.1.8-.2.2-.2.5-.4.7-.8.1-.1.2-.2.3-.2.2 0 .3.1.3.2zm-3-1.8c-.2.3-.3.8-.3 1.2.5-.1.8-.3 1.1-.5.3-.2.4-.5.4-.8 0-.2 0-.3-.1-.4-.1-.1-.2-.1-.3-.1-.3.1-.5.3-.8.6zm7.8 3.8c-.2-.1-.2-.3-.2-.6v-.1c.1-.8.2-1.7.3-2.6.1-.9.2-1.6.3-2.1l-.9.3h-.1c-.2 0-.3-.1-.4-.2s-.1-.3-.1-.4v-.1c0-.2.1-.3.1-.4.1-.1.2-.2.5-.3.2-.1.6-.2 1-.3l.5-.1c.2 0 .3-.1.5-.1s.4.1.5.2.2.3.2.5v.3c-.1.6-.4 2.4-.7 5.3-.1.5-.3.7-.9.7-.2.2-.4.1-.6 0zm8.1-6.1c.4.5.7 1.2.7 2.1 0 .8-.1 1.5-.4 2.2-.3.6-.7 1.1-1.2 1.5s-1.1.5-1.8.5c-.6 0-1.1-.1-1.5-.4-.4-.3-.6-.7-.7-1.1v-.1c0-.2.1-.4.2-.5.1-.1.3-.2.6-.2.2 0 .3 0 .4.1.1.1.2.3.3.5.1.2.2.3.3.4.1.1.3.1.6.1.5 0 .8-.2 1.1-.5s.5-.9.5-1.6c-.2.2-.4.4-.7.5-.3.1-.6.2-.9.2-.4 0-.8-.1-1.1-.3s-.6-.4-.7-.7c-.2-.3-.3-.6-.3-1 0-.5.1-.9.3-1.2.2-.4.5-.7.9-.9.4-.2.9-.3 1.4-.3 1-.1 1.6.2 2 .7zm-1.3 2.1c.2-.2.3-.4.3-.8 0-.3-.1-.5-.2-.7s-.4-.3-.7-.3c-.3 0-.6.1-.8.3-.2.2-.3.5-.3.8 0 .3.1.5.2.6s.4.2.6.2c.4.2.7.1.9-.1zm8.5-2.7c.1.1.1.3.1.5s0 .4-.1.5l-.3.3c-.1.1-.2.2-.3.2-.8.6-1.4 1.3-1.8 2s-.5 1.6-.6 2.4c0 .3-.1.6-.3.7-.1.2-.3.2-.6.2-.2 0-.4-.1-.6-.2-.2-.2-.2-.4-.2-.8 0-.5.1-1 .3-1.5.2-.5.4-1.1.8-1.6s.9-1 1.4-1.5h-3c-.2 0-.3-.1-.4-.2s-.1-.3-.1-.4c0-.2.1-.4.2-.6.1-.2.3-.2.5-.2.4 0 1 0 1.7.1h1.8c.1 0 .3 0 .5-.1 0 0 .1 0 .2-.1h.3c.3.1.4.2.5.3zm2.6 1.6c-.3.4-.5.9-.5 1.6.2-.2.4-.4.7-.5.3-.1.6-.1.9-.1.4 0 .8.1 1.1.3.3.2.6.4.7.7.2.3.3.6.3 1 0 .5-.1.9-.3 1.2s-.5.7-.9.9c-.4.2-.9.3-1.4.3-.8 0-1.5-.3-1.9-.8-.4-.5-.7-1.2-.7-2.1 0-.8.1-1.5.4-2.2.3-.6.7-1.1 1.2-1.5.5-.3 1.1-.5 1.8-.5.6 0 1.1.1 1.5.4.4.3.6.7.7 1.1v.1c0 .2-.1.4-.2.5-.1.1-.3.2-.6.2-.2 0-.3 0-.4-.1s-.2-.3-.3-.5c-.1-.2-.2-.3-.3-.4-.1-.1-.3-.1-.6-.1-.6-.1-.9.1-1.2.5zm-.1 2.4c-.2.2-.3.4-.3.8 0 .3.1.5.2.7s.4.3.7.3c.3 0 .6-.1.8-.3.2-.2.3-.5.3-.8 0-.3-.1-.5-.2-.6s-.4-.2-.6-.2c-.5-.2-.8-.1-.9.1z"/></svg>