<svg version="1.1" id="OBJECTS" xmlns="http://www.w3.org/2000/svg" x="0" y="0" viewBox="0 0 250 250" xml:space="preserve"><style>.st1{fill:#4b465b}</style><path d="M219.5 174.4c-14.4 22.7-38.6 27.7-62.7 34.4-27.3 7.5-54.1 18.3-82.9 13.2-24.4-4.3-47.7-18.9-60.7-40.2C.9 161.6.2 134 17.7 116.5c9.2-9.2 21.5-14.3 31.6-22.4 10.6-8.5 18.9-18.9 25.6-30.6 4.8-8.5 10.3-18 17.2-25.7 2.9-3.5 6.3-6.6 10.2-9.1 3-2 6.3-3.6 9.8-4.6 1.1-.3 2.2-.7 3.3-.9 26.3-6.3 56.9 6.1 77.7 21.7 39 29.2 53.4 87 26.4 129.5z" fill="#feddd6"/><path class="st1" d="M123.5 222.6c-51.5 0-93.4-41.9-93.4-93.4 0-51.5 41.9-93.4 93.4-93.4 51.5 0 93.4 41.9 93.4 93.4 0 51.5-41.9 93.4-93.4 93.4zm0-185.3c-50.7 0-91.9 41.2-91.9 91.9s41.2 91.9 91.9 91.9 91.9-41.2 91.9-91.9-41.2-91.9-91.9-91.9z"/><path class="st1" d="M44.8 102.3h157.4v1.5H44.8zm1.3 52.4h156.2v1.5H46.1zm13.4-33.4h12.7v2.6h-9.7v7.8h8.9v2.5h-8.9v10.7h-3v-23.6zm18.1 16.2l-2.5 7.4H72l8-23.6h3.7l8.1 23.6h-3.3l-2.5-7.4h-8.4zm7.7-2.4l-2.3-6.8c-.5-1.5-.9-2.9-1.2-4.3h-.1c-.4 1.4-.7 2.8-1.2 4.3l-2.3 6.8h7.1zm9.5 6.1c1.4.8 3.4 1.5 5.5 1.5 3.1 0 4.9-1.6 4.9-4 0-2.2-1.3-3.5-4.4-4.7-3.9-1.4-6.2-3.4-6.2-6.7 0-3.7 3-6.4 7.6-6.4 2.4 0 4.2.6 5.2 1.2l-.8 2.5c-.8-.4-2.3-1.1-4.5-1.1-3.2 0-4.4 1.9-4.4 3.5 0 2.2 1.4 3.3 4.7 4.6 4 1.5 6 3.5 6 6.9 0 3.6-2.7 6.8-8.3 6.8-2.3 0-4.8-.7-6-1.5l.7-2.6zm20.7-19.9v9.9h11.4v-9.9h3.1v23.6h-3.1v-11.1h-11.4v11.1h-3v-23.6h3zm22.8 0v23.6h-3v-23.6h3zm25.5 11.5c0 8.1-4.9 12.4-11 12.4-6.2 0-10.6-4.8-10.6-12 0-7.5 4.7-12.4 11-12.4 6.5.1 10.6 5 10.6 12zm-18.3.4c0 5 2.7 9.6 7.5 9.6s7.6-4.4 7.6-9.8c0-4.7-2.5-9.6-7.5-9.6-5.1 0-7.6 4.6-7.6 9.8zm22.3 11.7v-23.6h3.3l7.6 11.9c1.8 2.8 3.1 5.3 4.2 7.7h.1c-.3-3.2-.4-6-.4-9.7v-9.9h2.9v23.6h-3.1l-7.5-12c-1.6-2.6-3.2-5.3-4.4-7.9h-.1c.2 3 .2 5.8.2 9.7v10.1h-2.8zm-77.1 31.8c.8.5 1.9.9 3.1.9 1.8 0 2.8-.9 2.8-2.3 0-1.2-.7-2-2.5-2.6-2.2-.8-3.5-1.9-3.5-3.8 0-2.1 1.7-3.6 4.3-3.6 1.4 0 2.3.3 2.9.7l-.5 1.4c-.4-.2-1.3-.6-2.5-.6-1.8 0-2.5 1.1-2.5 2 0 1.2.8 1.9 2.6 2.6 2.2.9 3.4 2 3.4 3.9 0 2.1-1.5 3.8-4.7 3.8-1.3 0-2.7-.4-3.4-.8l.5-1.6zm15.9-9.7h-4v-1.5h9.8v1.5h-4.1v11.8h-1.7V167zm22.8 5c0 4.6-2.8 7-6.2 7-3.5 0-6-2.7-6-6.7 0-4.2 2.6-7 6.2-7 3.7 0 6 2.8 6 6.7zm-10.3.2c0 2.8 1.5 5.4 4.2 5.4s4.3-2.5 4.3-5.5c0-2.6-1.4-5.4-4.2-5.4-2.9 0-4.3 2.6-4.3 5.5zm16.7-6.5c.9-.2 2.1-.3 3.3-.3 1.8 0 3 .3 3.8 1.1.7.6 1 1.5 1 2.5 0 1.8-1.1 2.9-2.5 3.4v.1c1 .4 1.6 1.3 2 2.7.4 1.9.7 3.1 1 3.6h-1.8c-.2-.4-.5-1.5-.9-3.2-.4-1.8-1.1-2.5-2.7-2.6h-1.6v5.8h-1.7v-13.1zm1.8 6h1.8c1.8 0 3-1 3-2.5 0-1.7-1.2-2.5-3.1-2.5-.8 0-1.4.1-1.7.2v4.8zm19.9.9h-5.2v4.8h5.8v1.4h-7.5v-13.3h7.2v1.4h-5.5v4.2h5.2v1.5zm-34.8-73.2L110 86.7v-9.3h25.4v9.3l-12.7 12.7zm-11.3-13.3l11.2 11.2 11.2-11.2v-7.2h-22.5v7.2z"/><path class="st1" d="M106.9 86.1h30.8v1.5h-30.8z"/><path class="st1" d="M122.7 87.7l-12.4-8.9.8-1.2 11.6 8.3 11.5-8.3.8 1.2z"/><path class="st1" d="M121.9 86.8h1.5v11.6h-1.5z"/><path class="st1" d="M124.2 224.3c-53.6 0-97.2-43.6-97.2-97.2s43.6-97.2 97.2-97.2 97.2 43.6 97.2 97.2-43.6 97.2-97.2 97.2zm0-193.7c-53.2 0-96.5 43.3-96.5 96.5s43.3 96.5 96.5 96.5 96.5-43.3 96.5-96.5-43.3-96.5-96.5-96.5z"/><path class="st1" d="M123.5 228.6c-53.6 0-97.2-43.6-97.2-97.2s43.6-97.2 97.2-97.2 97.2 43.6 97.2 97.2c.1 53.6-43.6 97.2-97.2 97.2zm0-193.6C70.3 35 27 78.3 27 131.5S70.3 228 123.5 228s96.5-43.3 96.5-96.5c0-53.3-43.3-96.5-96.5-96.5z"/></svg>