<svg xmlns="http://www.w3.org/2000/svg" viewBox="0 0 250 250"><path d="M45.8 122.4l-2.2-6h-8.7l-2.2 6h-2.1l7.7-20.3h1.9l7.7 20.3h-2.1zm-6.2-16.8c-.1-.2-.1-.4-.2-.6-.1-.2-.1-.5-.2-.8h-.1c-.1.3-.1.6-.2.8s-.1.4-.2.6l-3.3 9h7.4l-3.2-9zM65 122.4L53.8 106c-.1-.2-.3-.4-.4-.6l-.3-.6H53v17.6h-1.9V102h2.1l11.1 16.1c.2.3.3.5.5.7.1.2.3.4.4.6h.1c0-.3-.1-.7-.1-1V102H67v20.3h-2zm21.2 0L74.9 106c-.1-.2-.3-.4-.4-.6l-.3-.6h-.1v17.6h-1.9V102h2.1l11.1 16.1c.2.3.3.5.5.7.1.2.3.4.4.6h.1c0-.3-.1-.7-.1-1V102h1.9v20.3h-2zm20.4 0l-2.2-6h-8.7l-2.2 6h-2.1l7.7-20.3h1.9l7.7 20.3h-2.1zm-6.2-16.8c-.1-.2-.1-.4-.2-.6-.1-.2-.1-.5-.2-.8-.1.3-.1.6-.2.8s-.1.4-.2.6l-3.3 9h7.4l-3.3-9zm37.5 16.8v-14c0-.7.1-1.9.2-3.5h-.1c-.1.4-.3.8-.4 1.1s-.2.6-.3.8l-7.1 15.6h-.8l-7.1-15.5c-.2-.5-.4-1.1-.6-2h-.1c0 .4.1.9.1 1.5v16.1h-1.8V102h2.2l6.9 15.3c.1.3.3.7.4 1 .1.3.3.7.4 1.1h.1c.1-.4.3-.7.4-1s.2-.6.4-1l7-15.3h2.1v20.3h-1.9zm15.4.3c-1.5 0-2.8-.3-4-.8s-2.2-1.3-3-2.2c-.8-.9-1.4-2-1.9-3.3-.4-1.3-.7-2.6-.7-4 0-1.6.2-3 .7-4.4.4-1.3 1.1-2.4 1.9-3.4.8-.9 1.9-1.7 3.1-2.2 1.2-.5 2.6-.8 4.2-.8 1.4 0 2.7.3 3.9.8 1.1.5 2.1 1.2 2.9 2.1.8.9 1.4 2 1.8 3.2.4 1.2.6 2.6.6 4.1 0 1.5-.2 3-.6 4.3-.4 1.3-1 2.5-1.9 3.4-.8 1-1.8 1.7-3 2.3-1.1.7-2.4.9-4 .9zm.2-19.3c-1.2 0-2.3.2-3.3.7-.9.5-1.8 1.1-2.4 1.9-.7.8-1.1 1.7-1.5 2.8s-.5 2.2-.5 3.4c0 1.2.1 2.3.4 3.3.3 1.1.8 2 1.4 2.8.6.8 1.4 1.5 2.3 1.9.9.5 2.1.7 3.3.7s2.4-.2 3.3-.7c1-.4 1.8-1 2.4-1.8.6-.8 1.1-1.7 1.5-2.8.3-1.1.5-2.3.5-3.5 0-1.2-.1-2.3-.4-3.4-.3-1.1-.7-2-1.3-2.8-.6-.8-1.4-1.4-2.3-1.9-1-.4-2.1-.6-3.4-.6zm24.6 19l-3.1-5.8c-.3-.6-.6-1.1-.9-1.4-.3-.4-.6-.7-.9-.9-.3-.2-.6-.4-1-.5-.3-.1-.7-.1-1.2-.1h-2.2v8.9H167V102h5.9c.8 0 1.5.1 2.2.3.7.2 1.3.6 1.9 1 .6.4 1 1 1.3 1.7s.5 1.5.5 2.3c0 .7-.1 1.4-.3 2-.2.6-.5 1.1-.9 1.6s-.9.9-1.5 1.2-1.2.6-1.9.7v.1c.3.1.5.3.8.4l.7.7c.2.3.4.5.6.9.2.3.4.7.7 1.1l3.4 6.3h-2.3zm-9.2-18.6v8h3.4c.7 0 1.3-.1 1.9-.3.6-.2 1.1-.5 1.5-.9.4-.4.7-.8.9-1.3s.3-1.1.3-1.8c0-1.2-.4-2.1-1.1-2.8s-1.9-1-3.3-1h-3.6zm26 18.6l-3.1-5.8c-.3-.6-.6-1.1-.9-1.4-.3-.4-.6-.7-.9-.9-.3-.2-.6-.4-1-.5-.3-.1-.7-.1-1.2-.1h-2.2v8.9h-1.9V102h5.9c.8 0 1.5.1 2.2.3.7.2 1.3.6 1.9 1 .6.4 1 1 1.3 1.7s.5 1.5.5 2.3c0 .7-.1 1.4-.3 2-.2.6-.5 1.1-.9 1.6s-.9.9-1.5 1.2-1.2.6-1.9.7v.1c.3.1.5.3.8.4l.7.7c.2.3.4.5.6.9.2.3.4.7.7 1.1l3.4 6.3h-2.2zm-9.2-18.6v8h3.4c.7 0 1.3-.1 1.9-.3.6-.2 1.1-.5 1.5-.9.4-.4.7-.8.9-1.3s.3-1.1.3-1.8c0-1.2-.4-2.1-1.1-2.8s-1.9-1-3.3-1h-3.6zm16.7 18.6h-1.9V102h1.9v20.4zm4.5-3c.3.3.7.5 1.1.7.4.2.8.4 1.3.5.4.1.9.2 1.3.3.4.1.8.1 1.2.1 1.5 0 2.7-.3 3.5-.9s1.1-1.5 1.1-2.6c0-.5-.1-1-.3-1.4s-.5-.8-.8-1.1c-.4-.3-.9-.7-1.4-1s-1.3-.7-2-1.2c-.9-.5-1.6-.9-2.2-1.3-.6-.4-1.1-.9-1.5-1.3-.4-.4-.7-.9-.9-1.4-.2-.5-.3-1.1-.3-1.7 0-.8.2-1.6.5-2.2s.8-1.2 1.4-1.7 1.3-.8 2.1-1.1c.8-.2 1.7-.4 2.6-.4 1.6 0 2.9.2 4 .7v2.1c-1.2-.7-2.6-1-4.2-1-.6 0-1.2.1-1.7.2s-1 .4-1.4.6c-.4.3-.7.6-1 1.1s-.3.9-.3 1.5c0 .5.1 1 .2 1.4.2.4.4.7.8 1.1s.8.7 1.4 1c.6.3 1.3.7 2.1 1.2.9.5 1.6.9 2.2 1.3s1.2.9 1.6 1.3c.4.5.7 1 .9 1.5.2.5.3 1.1.3 1.8 0 .9-.2 1.7-.5 2.3-.3.7-.8 1.2-1.4 1.7-.6.4-1.3.8-2.1 1s-1.7.3-2.7.3c-.3 0-.7 0-1.1-.1-.4-.1-.9-.1-1.3-.2-.5-.1-.9-.2-1.3-.4-.4-.1-.7-.3-1-.4v-2.3zm-127 17.8v2.4h2.4v.5h-2.4v2.9h-.6v-6.4h3.1v.5h-2.5zm7.3 5.9l-.7-1.9h-2.8l-.7 1.9h-.7l2.5-6.4h.6l2.4 6.4h-.6zm-1.9-5.4c0-.1 0-.1-.1-.2 0-.1 0-.2-.1-.3 0 .1 0 .2-.1.3 0 .1 0 .1-.1.2l-1 2.9h2.4l-1-2.9zm3.4 4.4c.1.1.2.2.4.2s.3.1.4.2c.1 0 .3.1.4.1h.4c.5 0 .9-.1 1.1-.3.2-.2.4-.5.4-.8 0-.2 0-.3-.1-.4-.1-.1-.1-.2-.3-.4-.1-.1-.3-.2-.5-.3-.2-.1-.4-.2-.6-.4-.3-.1-.5-.3-.7-.4-.2-.1-.4-.3-.5-.4-.1-.1-.2-.3-.3-.5-.1-.2-.1-.3-.1-.6s.1-.5.2-.7c.1-.2.3-.4.4-.5s.4-.3.7-.3c.3-.1.5-.1.8-.1.5 0 .9.1 1.3.2v.7c-.4-.2-.8-.3-1.3-.3-.2 0-.4 0-.5.1-.2 0-.3.1-.4.2l-.3.3c-.1.1-.1.3-.1.5s0 .3.1.4c0 .1.1.2.2.3.1.1.3.2.4.3.2.1.4.2.7.4.3.1.5.3.7.4.2.1.4.3.5.4s.2.3.3.5c.1.2.1.4.1.6 0 .3-.1.5-.2.7-.1.2-.3.4-.4.5-.2.1-.4.2-.7.3-.3.1-.5.1-.9.1h-.4c-.1 0-.3 0-.4-.1-.1 0-.3-.1-.4-.1-.1 0-.2-.1-.3-.1v-.7zm9.1 1v-3h-3.5v3h-.6v-6.4h.6v2.9h3.5v-2.9h.6v6.4h-.6zm2.8 0h-.6v-6.4h.6v6.4zm4.3.1c-.5 0-.9-.1-1.3-.3s-.7-.4-.9-.7-.5-.6-.6-1c-.1-.4-.2-.8-.2-1.3s.1-1 .2-1.4c.1-.4.3-.8.6-1.1s.6-.5 1-.7c.4-.2.8-.3 1.3-.3s.9.1 1.2.2c.4.2.7.4.9.7.3.3.5.6.6 1s.2.8.2 1.3-.1.9-.2 1.4-.3.8-.6 1.1c-.3.3-.6.5-1 .7-.2.3-.7.4-1.2.4zm.1-6.1c-.4 0-.7.1-1 .2-.3.1-.6.3-.8.6-.2.3-.4.5-.5.9s-.2.7-.2 1.1c0 .4 0 .7.1 1 .1.3.2.6.4.9s.4.5.7.6c.3.2.7.2 1.1.2s.8-.1 1.1-.2.6-.3.8-.6c.2-.2.4-.5.5-.9s.2-.7.2-1.1c0-.4 0-.7-.1-1.1-.1-.3-.2-.6-.4-.9-.2-.3-.4-.5-.7-.6s-.8-.1-1.2-.1zm8.7 6l-3.6-5.2c0-.1-.1-.1-.1-.2s-.1-.1-.1-.2v5.6h-.6v-6.4h.7l3.5 5.1c.1.1.1.2.1.2 0 .1.1.1.1.2v-5.5h.6v6.4h-.6zm5.4-5.9v2.4h2.4v.5h-2.4v2.9h-.6v-6.4h3.1v.5h-2.5zm6.4 6c-.5 0-.9-.1-1.3-.3s-.7-.4-.9-.7-.5-.6-.6-1c-.1-.4-.2-.8-.2-1.3s.1-1 .2-1.4c.1-.4.3-.8.6-1.1s.6-.5 1-.7c.4-.2.8-.3 1.3-.3s.9.1 1.2.2.7.4.9.7c.3.3.5.6.6 1 .1.4.2.8.2 1.3s-.1.9-.2 1.4-.3.8-.6 1.1c-.3.3-.6.5-1 .7s-.7.4-1.2.4zm.1-6.1c-.4 0-.7.1-1 .2-.3.1-.6.3-.8.6-.2.3-.4.5-.5.9s-.2.7-.2 1.1c0 .4 0 .7.1 1 .1.3.2.6.4.9s.4.5.7.6c.3.2.7.2 1.1.2s.8-.1 1.1-.2.6-.3.8-.6.4-.5.5-.9.2-.7.2-1.1c0-.4 0-.7-.1-1.1s-.2-.6-.4-.9c-.2-.3-.4-.5-.7-.6s-.8-.1-1.2-.1zm7.8 6l-1-1.8c-.1-.2-.2-.3-.3-.5s-.2-.2-.3-.3c-.1-.1-.2-.1-.3-.2s-.2 0-.4 0h-.7v2.8h-.6v-6.4h1.9c.2 0 .5 0 .7.1l.6.3c.2.1.3.3.4.5s.2.5.2.7c0 .2 0 .4-.1.6s-.2.4-.3.5c-.1.1-.3.3-.5.4-.2.1-.4.2-.6.2.1 0 .2.1.2.1l.2.2c.1.1.1.2.2.3.1.1.1.2.2.4l1.1 2h-.6zm-2.9-5.9v2.5h1.1c.2 0 .4 0 .6-.1.2-.1.3-.2.5-.3.1-.1.2-.3.3-.4.1-.2.1-.4.1-.6 0-.4-.1-.7-.4-.9-.2-.2-.6-.3-1-.3h-1.2zm12.8 5.9h-.6l-1.4-4.8c0-.1-.1-.2-.1-.3v-.3c0 .2-.1.4-.1.6l-1.4 4.8h-.6l-1.9-6.4h.7l1.4 5.1c0 .1.1.2.1.3v.3c0-.1.1-.3.1-.6l1.5-5.1h.5l1.4 5.1c0 .1.1.2.1.3v.1c0-.1 0-.2.1-.3l1.4-5.2h.7l-1.9 6.4zm5.4.1c-.5 0-.9-.1-1.3-.3-.4-.2-.7-.4-.9-.7s-.5-.6-.6-1-.2-.8-.2-1.3.1-1 .2-1.4.3-.8.6-1.1c.3-.3.6-.5 1-.7.4-.2.8-.3 1.3-.3s.9.1 1.2.2c.4.2.7.4.9.7s.5.6.6 1c.1.4.2.8.2 1.3s-.1.9-.2 1.4c-.1.4-.3.8-.6 1.1-.3.3-.6.5-1 .7s-.7.4-1.2.4zm.1-6.1c-.4 0-.7.1-1 .2-.3.1-.6.3-.8.6-.2.3-.4.5-.5.9s-.2.7-.2 1.1c0 .4 0 .7.1 1 .1.3.2.6.4.9s.4.5.7.6c.3.2.7.2 1.1.2.4 0 .8-.1 1.1-.2.3-.1.6-.3.8-.6.2-.2.4-.5.5-.9.1-.3.2-.7.2-1.1 0-.4 0-.7-.1-1.1-.1-.3-.2-.6-.4-.9-.2-.3-.4-.5-.7-.6-.4-.1-.8-.1-1.2-.1zm10 6v-4.5c0-.2 0-.6.1-1.1 0 .1-.1.3-.1.4 0 .1-.1.2-.1.2l-2.2 5h-.3l-2.3-4.9c-.1-.1-.1-.4-.2-.6v5.6h-.6v-6.4h.7l2.2 4.8c0 .1.1.2.1.3 0 .1.1.2.1.3 0-.1.1-.2.1-.3s.1-.2.1-.3l2.2-4.8h.7v6.4h-.5zm2.3 0v-6.4h3.1v.5h-2.5v2.4h2.4v.5h-2.4v2.4h2.7v.5h-3.3zm9 0l-3.6-5.2c0-.1-.1-.1-.1-.2s-.1-.1-.1-.2v5.6h-.6v-6.4h.7l3.5 5.1c.1.1.1.2.1.2 0 .1.1.1.1.2v-5.5h.6v6.4h-.6z"/><path d="M243.4 167.2H6.6V82.8h236.8v84.4zm-235.8-1h234.8V83.8H7.6v82.4z"/><path d="M30 129.3h187.1v1H30z"/></svg>