<svg version="1.1" id="OBJECTS" xmlns="http://www.w3.org/2000/svg" x="0" y="0" viewBox="0 0 250 250" xml:space="preserve"><style>.st0{fill:#284773}.st1{fill:#709bd2}.st2{fill:#fff}</style><path class="st0" d="M213.8 130.2l4.1-5.2-5.1-6.4 4.2-7-4.9-4.6 2.7-6.1-6.6-4.8 2.2-7.9-5.9-3.1 1-6.6-7.6-2.9v-8.2l-6.5-1.5-.7-6.6-8.1-.9-2.1-7.9-6.6.2-2.4-6.2-8.1 1.3-4-7.2-6.4 2-3.9-5.4-7.5 3.3-5.8-5.8-5.6 3.5-5.2-4.1-6.4 5.1-7-4.2-4.6 4.9-6.1-2.7-4.8 6.6-7.9-2.2-3.1 5.9-6.6-1-2.9 7.6h-8.2l-1.5 6.5-6.6.7-.9 8.1-7.9 2.1.2 6.6-6.2 2.4 1.3 8.1-7.2 4 2 6.4-5.4 3.9 3.3 7.5-5.8 5.8 3.5 5.6-4.1 5.2 5.1 6.4-4.2 7 4.9 4.6-2.7 6.1 6.6 4.8-2.2 7.9 5.9 3.1-1 6.6 7.6 2.9v8.2l6.5 1.5.7 6.6 8.1.9 2.1 7.9 6.6-.2 2.4 6.2 8.1-1.3 4 7.2 6.4-2 3.9 5.4 7.5-3.3 5.8 5.8 5.6-3.5 5.2 4.1 6.4-5.1 7 4.2 4.6-4.9 6.1 2.7 4.8-6.6 7.9 2.2 3.1-5.9 6.6 1 2.9-7.6h8.2l1.5-6.5 6.6-.7.9-8.1 7.9-2.1-.2-6.6 6.2-2.4-1.3-8.1 7.2-4-2-6.4 5.4-3.9-3.3-7.5 5.8-5.8z"/><circle transform="rotate(-74.919 124.996 124.995)" class="st1" cx="125" cy="125" r="84.5"/><circle transform="rotate(-13.119 124.962 124.987)" class="st0" cx="125" cy="125" r="80.8"/><path class="st2" d="M65.6 132.8h-9.3v9.3h10.4v2.8H53.2v-25.8h12.9v2.8h-9.8v8.1h9.3v2.8zm17.9 12.1l-3.1-5.7c-1.2-2.2-2-3.6-2.8-5.1h-.1c-.7 1.5-1.4 2.9-2.6 5.1l-2.9 5.7h-3.6l7.3-13-7-12.7h3.6l3.2 6c.9 1.7 1.6 3 2.2 4.4h.1c.7-1.5 1.3-2.7 2.2-4.4l3.3-6h3.6l-7.3 12.5 7.5 13.2h-3.6zm6.8-25.5c1.5-.3 3.4-.5 5.9-.5 3.1 0 5.3.8 6.7 2.1 1.3 1.2 2.1 3.1 2.1 5.4 0 2.3-.6 4.2-1.8 5.5-1.6 1.9-4.3 2.8-7.3 2.8-.9 0-1.8 0-2.5-.2v10.3h-3.1v-25.4zm3.1 12.5c.7.2 1.5.3 2.6.3 3.7 0 6-1.9 6-5.5 0-3.4-2.2-5-5.7-5-1.4 0-2.4.1-2.9.3v9.9zm15.5-12.8h3.1v23h10.2v2.8h-13.3v-25.8zm35.5 12.6c0 8.9-5 13.6-11.1 13.6-6.3 0-10.8-5.3-10.8-13.1 0-8.2 4.7-13.5 11.1-13.5 6.6 0 10.8 5.4 10.8 13zm-18.6.5c0 5.5 2.8 10.4 7.6 10.4 4.9 0 7.7-4.9 7.7-10.7 0-5.1-2.5-10.5-7.6-10.5-5.2 0-7.7 5.1-7.7 10.8zm22.2-12.7c1.6-.3 3.8-.5 5.9-.5 3.3 0 5.4.7 6.9 2.1 1.2 1.1 1.9 2.9 1.9 4.9 0 3.4-2 5.7-4.5 6.6v.1c1.8.7 3 2.5 3.5 5.2.8 3.6 1.4 6.1 1.8 7.1h-3.2c-.4-.7-.9-2.9-1.6-6.2-.7-3.6-2-4.9-4.8-5H151V145h-3v-25.5zm3.1 11.7h3.2c3.3 0 5.4-1.9 5.4-4.9 0-3.3-2.2-4.8-5.5-4.8-1.5 0-2.6.2-3.1.3v9.4zm28.1 1.6h-9.3v9.3h10.4v2.8h-13.5v-25.8h12.9v2.8h-9.8v8.1h9.3v2.8zm4.8-13.3c1.6-.3 3.8-.5 5.9-.5 3.3 0 5.4.7 6.9 2.1 1.2 1.1 1.9 2.9 1.9 4.9 0 3.4-2 5.7-4.5 6.6v.1c1.8.7 3 2.5 3.5 5.2.8 3.6 1.4 6.1 1.8 7.1h-3.2c-.4-.7-.9-2.9-1.6-6.2-.7-3.6-2-4.9-4.8-5H187V145h-3v-25.5zm3 11.7h3.2c3.3 0 5.4-1.9 5.4-4.9 0-3.3-2.2-4.8-5.5-4.8-1.5 0-2.6.2-3.1.3v9.4z"/><path class="st1" d="M125 152.1l2.5 7.6h8l-6.5 4.7 2.5 7.6-6.5-4.7-6.5 4.7 2.5-7.6-6.5-4.7h8zm-23.6.8l1.3 4h4.2l-3.4 2.5 1.3 4-3.4-2.5-3.4 2.5 1.3-4-3.4-2.5h4.2zm47.2 0l1.3 4h4.2l-3.4 2.5 1.3 4-3.4-2.5-3.4 2.5 1.3-4-3.4-2.5h4.2zm-61-47.4L107.8 69l4.1 7.2 12.9-23.7 13 23.3s4-7.3 3.8-7.1c-.3.2 20.9 36.9 20.9 36.9l-74.9-.1z"/><path class="st2" d="M102.5 83l5.4-9.6 2.6 4.6-2.3 4.6-1.6-1.8s-2.3 6.1-2.2 5.7c.2-.4-1.9-3.5-1.9-3.5zm14.6-10.5L123 83l3.8-6.7 7.5 14.4 2.2-5.1 5.9 4.8S125 58.8 124.8 59.1c-.2.2-7.7 13.4-7.7 13.4zm21.9 5.9l2.5-4.9 12.4 21.7-5.1-5.1-1.6 2.3zM61.3 91.6c.4.3 1.1.5 1.8.5 1 0 1.6-.5 1.6-1.3 0-.7-.4-1.1-1.4-1.5-1.2-.4-2-1.1-2-2.2 0-1.2 1-2.1 2.5-2.1.8 0 1.3.2 1.7.4l-.5.9c-.2-.1-.8-.4-1.4-.4-1 0-1.4.6-1.4 1.1 0 .7.5 1.1 1.5 1.5 1.3.5 1.9 1.1 1.9 2.2 0 1.2-.9 2.2-2.7 2.2-.7 0-1.5-.2-1.9-.5l.3-.8zm6.6-6.3v7.6h-1v-7.6h1zm1.7 7.5v-7.6h1.1l2.4 3.8c.6.9 1 1.7 1.4 2.5-.1-1-.1-1.9-.1-3.1v-3.2h.9v7.6h-1L71.9 89c-.5-.8-1-1.7-1.4-2.5.1 1 .1 1.9.1 3.1v3.2h-1zm12.7-.2c-.4.2-1.1.4-2 .4-2.1 0-3.8-1.4-3.8-3.8s1.6-4 4-4c.9 0 1.5.2 1.8.3l-.2.8c-.4-.2-.9-.3-1.5-.3-1.8 0-3 1.1-3 3.1 0 1.9 1.1 3.1 2.9 3.1.6 0 1.2-.1 1.6-.3l.2.7zm5.2-3.3h-3V92h3.3v.8h-4.3v-7.6h4.1v.8h-3.1v2.4h3v.9zm75.9-2.9l-1.3.7-.2-.8 1.6-.9h.8v7.3h-1v-6.3zm4.2 5.7h.8c.6-.1 1.1-.3 1.5-.7.5-.4.8-1.1 1-1.9-.4.5-1 .8-1.7.8-1.3 0-2.2-1-2.2-2.2 0-1.4 1-2.6 2.5-2.6s2.4 1.2 2.4 3.1c0 1.6-.5 2.7-1.3 3.4-.6.6-1.3.9-2.1 1-.4.1-.7.1-.9.1v-1zm.3-4.2c0 .9.6 1.6 1.4 1.6.7 0 1.2-.3 1.4-.8.1-.1.1-.2.1-.4 0-1.3-.5-2.2-1.5-2.2-.8.1-1.4.8-1.4 1.8zm9.6-2.4v.7l-3.2 6.7h-1l3.2-6.5h-3.6v-.8h4.6zm5.4.9h-2.8l-.3 1.9h.6c.6 0 1.1.1 1.6.4.6.3 1 1 1 1.9 0 1.4-1.1 2.5-2.7 2.5-.8 0-1.5-.2-1.8-.5l.2-.8c.3.2.9.4 1.6.4.9 0 1.7-.6 1.7-1.6 0-.9-.6-1.6-2.1-1.6-.4 0-.7 0-1 .1l.5-3.5h3.5v.8zM75.2 168.2c1-.9 2.3-2 3.3-2.7-1.1.4-2.3.9-3.7 1.3l-4.8 1.6-.6-.8 2.7-4.1c.8-1.2 1.6-2.3 2.3-3.3-1 .7-2.3 1.7-3.6 2.5l-3.5 2.4-.7-1 8.2-5.5 1 1.3-2.7 4.3c-.7 1.1-1.4 2-2 2.8.9-.4 2-.8 3.3-1.2l4.8-1.5 1 1.3-7.4 6.6-.8-1 3.2-3zm10.1 8.7c-2.2 2.5-5 2.5-6.9.9-2-1.7-2-4.5 0-6.7 2.1-2.4 4.9-2.6 6.9-.9 2 1.8 1.9 4.5 0 6.7zm-5.9-5c-1.4 1.6-1.8 3.8-.3 5.1 1.5 1.3 3.6.7 5.1-1 1.3-1.5 1.9-3.7.3-5.1-1.6-1.4-3.6-.6-5.1 1zm11.9 3.3l-3.1 5c-1.2 1.9-.8 3.2.3 3.9 1.2.8 2.6.4 3.7-1.4l3.1-5 1.1.7-3 4.9c-1.6 2.6-3.6 2.8-5.4 1.7-1.7-1.1-2.4-2.8-.8-5.5l3.1-4.9 1 .6zm3.8 13.5l3.7-9.1 1.3.5 1 5.8c.2 1.3.4 2.5.4 3.6.4-1.3.8-2.4 1.4-3.8l1.6-3.8 1.1.5-3.7 9.1-1.2-.5-1-5.8c-.2-1.3-.4-2.6-.5-3.7-.4 1.2-.8 2.3-1.4 3.8l-1.6 3.9-1.1-.5zm14.8-4.1l-2.9-.7.3-1.1 7.1 1.7-.3 1.1-2.9-.7-2.1 8.5-1.3-.3 2.1-8.5zm5.9 6.9l-1.4 3-1.3-.1 4.4-9.4 1.5.2 2.3 10.2-1.4-.1-.7-3.2-3.4-.6zm3.3-.6l-.6-2.9c-.1-.7-.2-1.3-.3-1.8-.2.6-.4 1.1-.7 1.7l-1.3 2.7 2.9.3zm6.5-5.6l.2 9.9h-1.3l-.2-9.9h1.3zm4.3 9.9l-1.2-9.8 1.4-.2 3.7 4.6c.9 1.1 1.6 2 2.1 3-.3-1.3-.5-2.5-.6-4l-.5-4.1 1.2-.1 1.2 9.8-1.3.2-3.7-4.6c-.8-1-1.6-2-2.2-3 .2 1.2.4 2.4.6 4l.5 4.2h-1.2zm22.9-6.1c-.5.4-1.4 1.1-2.7 1.6-1.4.5-2.7.6-3.9.1-1.1-.5-2-1.5-2.6-3-1-2.8.1-5.5 3.3-6.6 1.1-.4 2-.5 2.5-.4l.1 1.1c-.6 0-1.3 0-2.2.4-2.3.8-3.2 2.8-2.3 5.1.9 2.3 2.8 3.2 4.9 2.4.8-.3 1.3-.6 1.5-.8l-1-2.8-1.9.7-.4-1 3-1.1 1.7 4.3zm.1-10.5l2.9 5.1c1.1 1.9 2.4 2.2 3.6 1.6 1.3-.7 1.6-2 .5-3.9l-2.9-5.1 1.1-.6 2.9 5c1.5 2.6.7 4.5-1.1 5.6-1.8 1-3.7.8-5.2-1.9l-2.9-5 1.1-.8zm8.5-5.4l5.9 7.9-1 .8-5.9-7.9 1-.8zm2.4-1.6c.5-.6 1.1-1.3 1.8-2 1.3-1.3 2.6-1.8 3.8-1.9 1.2 0 2.3.5 3.4 1.6 1.1 1.2 1.6 2.5 1.6 3.8 0 1.3-.8 2.7-2.2 4-.7.6-1.2 1.1-1.8 1.5l-6.6-7zm6.9 5.4c.3-.2.6-.5 1-.8 2-1.9 2-4 .2-5.9-1.6-1.7-3.6-1.9-5.5 0-.5.5-.8.8-1 1.1l5.3 5.6zm7.6-13.6l-2.4 3 2.8 2.2 2.6-3.4.8.7-3.4 4.4-7.8-6.1 3.3-4.2.8.7-2.5 3.2 2.5 1.9 2.4-3 .9.6z"/></svg>