<svg version="1.1" id="OBJECTS" xmlns="http://www.w3.org/2000/svg" x="0" y="0" viewBox="0 0 250 250" xml:space="preserve"><style>.st0{fill:#4c5175}.st1{fill:#ce5757}.st2{fill:#387e4f}</style><path class="st0" d="M125 233.3c-44.6 0-81-36.3-81-81V97.7c0-44.6 36.3-81 81-81s81 36.3 81 81v54.7c0 44.6-36.4 80.9-81 80.9zm0-213.1c-42.7 0-77.5 34.8-77.5 77.5v54.7c0 42.7 34.8 77.5 77.5 77.5s77.5-34.8 77.5-77.5V97.7c0-42.8-34.8-77.5-77.5-77.5z"/><path class="st0" d="M74.1 179.7L60.5 186l-.9-1.9 6.1-2.8-3.5-7.7-6.1 2.8-.9-1.9 13.6-6.3.9 1.9-5.9 2.7 3.5 7.7 5.9-2.7.9 1.9zm2.8 3.7l1.2 1.7-12.1 8.8-1.2-1.7 12.1-8.8zm6.4 17.9l1.5 1.4-4 4.3c-1 0-1.9-.3-2.8-.7-.9-.4-1.8-1-2.5-1.7-1.1-1-1.8-2.2-2.3-3.5-.4-1.3-.5-2.6-.2-3.9.3-1.3.9-2.5 1.9-3.6 1-1.1 2.1-1.8 3.4-2.2 1.3-.4 2.6-.4 3.9-.1 1.3.3 2.5 1 3.6 2 .9.8 1.5 1.7 1.9 2.6.4.9.6 1.9.6 2.9l-1.9.1c-.1-1.6-.7-3-1.9-4.2-.8-.8-1.7-1.3-2.7-1.5-1-.2-2-.2-2.9.1-1 .3-1.8.9-2.6 1.7-.7.8-1.2 1.7-1.5 2.7-.2 1-.2 2 .1 2.9.3 1 .9 1.8 1.7 2.6 1 .9 2 1.4 3.2 1.6l3.5-3.5zm21.2 4l-6.8 13.4-1.9-.9 3-6-7.5-3.8-3 6-1.9-.9 6.8-13.4 1.9.9-2.9 5.8 7.5 3.8 2.9-5.8 1.9.9zm24.2 20.1c-.5.5-1.1.9-1.7 1.2-.6.3-1.3.4-2.1.3-.9-.1-1.8-.3-2.5-.8-.8-.5-1.6-1.3-2.6-2.5-1.4-.2-2.6-.6-3.7-1.4-1.1-.8-1.9-1.7-2.4-2.9s-.8-2.5-.7-3.8c.1-1.4.5-2.7 1.3-3.8s1.7-2 3-2.6c1.2-.6 2.6-.8 4.1-.7 1.5.1 2.8.5 3.9 1.3 1.1.7 2 1.7 2.6 2.9.6 1.2.8 2.5.8 4-.1 1.2-.4 2.3-.9 3.3s-1.3 1.8-2.2 2.5c-.9.6-2 1.1-3.1 1.3.5.6.9 1 1.3 1.2.4.3.9.4 1.4.4 1 .1 2-.3 2.8-1.1l.7 1.2zm-13.1-6.7c.4.9 1.1 1.6 1.9 2.2.8.6 1.8.9 2.9.9 1.1.1 2-.1 2.9-.6.9-.4 1.6-1.1 2.2-1.9.6-.8.9-1.8.9-2.9.1-1.1-.1-2.1-.6-3-.4-.9-1.1-1.6-1.9-2.2-.8-.6-1.8-.9-2.8-.9-1.1-.1-2.1.1-3 .6-.9.4-1.6 1.1-2.2 1.9-.6.8-.9 1.8-.9 2.9 0 1 .2 2 .6 3zm21.3 2.6c-1.3-.9-2.2-2.3-2.7-4.4l-1.9-8.3 2-.5 1.9 8.2c.7 3.1 2.4 4.4 5.1 3.7 1.3-.3 2.2-.9 2.7-1.9.5-.9.6-2.2.2-3.8l-1.9-8.2 2-.5 1.9 8.3c.5 2.1.3 3.8-.5 5.2-.8 1.4-2.2 2.3-4.1 2.7-1.8.6-3.4.3-4.7-.5zm24.9-11.8l-6.8 3.8.4 4.1-1.9 1-1.4-16.4 1.8-1 13.1 9.9-2 1.1-3.2-2.5zm-1.5-1.2l-6.3-4.9.8 8 5.5-3.1zm1.1-12.2l1.6-1.4 8.9 9.7 5.9-5.4 1.3 1.4-7.4 6.8-10.3-11.1zm8.9-9.1l1.3-1.6 11.8 9.3-1.3 1.6-11.8-9.3zm7.2-7l-2.5 4.4-1.6-.9 5.9-10.6 1.6.9-2.5 4.4 11.5 6.4-1 1.8-11.4-6.4zm13.6-11.9l5 1.5-.6 2-5-1.5-11 2.8.7-2.1 8.9-2.2-6.2-6.8.6-2 7.6 8.3zM52.3 105.2h13.9v2.1l-9.4 7.5h9.4v2.5H52.3v-2.1l9.4-7.5h-9.4v-2.5zm10.8-14l-.2 6.8 3.2 1.4-.1 2.6-13.7-6.5.1-2.5 14.1-5.8-.1 2.8-3.3 1.2zm-2 .8L55 94.4l6 2.7.1-5.1zm-4.7-12.1l-1.2 4.4-2.1-.6 3-11.2 2.1.6-1.2 4.4 11.3 3-.7 2.4-11.2-3zM69.9 72c-1.5.4-3.1.1-4.8-.9l-6.8-3.8 1.2-2.2 6.8 3.8c2.4 1.3 4.1 1 5.3-1 1.1-2 .5-3.7-1.9-5l-6.8-3.8 1.2-2.2 6.8 3.8c1.8 1 2.9 2.2 3.3 3.6.4 1.4.2 3-.7 4.6-.9 1.7-2.1 2.7-3.6 3.1zm15.2-17.9l-4.8-.9-.4.4-2.2 2.2 2.9 2.9-1.8 1.8-9.8-9.8 4-4c.8-.8 1.7-1.4 2.6-1.8.9-.3 1.8-.4 2.6-.2.9.2 1.6.6 2.4 1.4.7.7 1.2 1.6 1.4 2.4.2.9.1 1.8-.3 2.7l5.4 1-2 1.9zM76.6 47c-.7.1-1.5.5-2.3 1.3l-2.1 2.1 3.9 3.9 2.1-2.1c.8-.8 1.2-1.5 1.3-2.3.1-.7-.2-1.4-.9-2.1-.6-.6-1.2-.8-2-.8zm19-3.8l-5.9 3.4.4 3.5-2.3 1.3-1.6-15.1 2.2-1.2 12.3 9-2.3 1.3-2.8-2.2zm-1.7-1.4l-5.3-4 .8 6.5 4.5-2.5zm5.4-11.7l2.4-.7 3.2 11.3 6.9-1.9.6 2.1-9.3 2.6-3.8-13.4zm32.6 10.5l-1.7-1.7c-1.3 1.1-2.8 1.6-4.6 1.6-.9 0-1.8-.2-2.5-.5s-1.3-.8-1.8-1.3c-.4-.6-.6-1.2-.6-1.9 0-.9.3-1.6.8-2.3.5-.6 1.3-1.3 2.4-1.9-.5-.6-.9-1.1-1.1-1.6-.2-.5-.3-1-.3-1.5 0-1 .4-1.8 1.1-2.4.7-.6 1.7-.9 2.9-.9 1.1 0 2 .3 2.6.9.7.6 1 1.3 1 2.3 0 .7-.2 1.3-.7 1.9-.4.5-1.2 1.1-2.2 1.7l2.9 2.9c.3-.6.6-1.4.8-2.3l2 .7c-.3 1.2-.7 2.3-1.3 3.2l1.7 1.7-1.4 1.4zm-3.1-3.1l-3.5-3.6c-.8.4-1.3.8-1.7 1.2-.3.4-.5.9-.5 1.4 0 .6.2 1.1.7 1.4.5.4 1.2.6 2 .6 1.2 0 2.2-.3 3-1zm-3.6-9.1c-.3.3-.5.6-.5 1.1 0 .3.1.6.2.9.2.3.5.7 1 1.2.8-.4 1.3-.8 1.6-1.1.3-.3.5-.7.5-1.1 0-.4-.1-.7-.4-1-.3-.2-.7-.4-1.2-.4s-.9.1-1.2.4zm20 13.7c-.8-1-1.3-2.1-1.5-3.3-.2-1.2 0-2.5.5-3.8.5-1.3 1.2-2.3 2.2-3.1 1-.8 2.1-1.3 3.4-1.4 1.3-.2 2.5 0 3.8.5 1.3.5 2.3 1.3 3.2 2.2.8 1 1.3 2.1 1.5 3.3.2 1.2 0 2.5-.5 3.8-.5 1.3-1.2 2.3-2.2 3.1-1 .8-2.1 1.2-3.4 1.4-1.3.2-2.5 0-3.8-.5-1.4-.5-2.4-1.2-3.2-2.2zm6.5.5c.8-.1 1.6-.5 2.2-1 .7-.5 1.2-1.2 1.5-2.1.3-.9.5-1.7.3-2.6-.1-.8-.4-1.6-1-2.3-.5-.7-1.2-1.1-2.1-1.5-.8-.3-1.7-.4-2.5-.3-.8.1-1.6.5-2.2 1s-1.2 1.2-1.5 2.1c-.3.9-.5 1.7-.3 2.6.1.8.4 1.6 1 2.3.5.7 1.2 1.1 2.1 1.5.8.3 1.6.4 2.5.3zm13.2 11.5l.3-4.9c-.1-.1-.2-.2-.4-.3l-2.4-1.9-2.5 3.2-2-1.5 8.5-11 4.4 3.4c.9.7 1.6 1.5 2.1 2.4.4.8.6 1.7.5 2.6-.1.9-.4 1.7-1.1 2.5-.6.8-1.4 1.4-2.2 1.7-.9.3-1.8.3-2.7 0l-.3 5.5-2.2-1.7zm6.1-9.2c-.2-.7-.7-1.4-1.5-2.1l-2.3-1.8-3.4 4.4 2.3 1.8c.9.7 1.7 1 2.4 1s1.4-.4 1.9-1.1c.5-.8.7-1.5.6-2.2zm9.5 16.4l1.4 1.9-4.4 3.3c-.9-.2-1.7-.6-2.5-1.2s-1.5-1.2-2.1-2c-.8-1.1-1.3-2.3-1.5-3.6-.2-1.3 0-2.5.5-3.6.5-1.2 1.3-2.1 2.4-3 1.1-.8 2.3-1.3 3.5-1.4 1.3-.1 2.5.1 3.6.6 1.2.5 2.2 1.4 3 2.5.7.9 1.2 1.9 1.4 2.8.3 1 .3 1.9.1 2.9l-2.2-.3c.2-1.5-.1-2.8-1-4-.6-.8-1.3-1.3-2-1.7-.8-.4-1.6-.5-2.4-.4-.8.1-1.7.4-2.4 1s-1.3 1.2-1.6 2c-.3.8-.5 1.6-.3 2.4.1.9.4 1.7 1 2.4.6.9 1.4 1.5 2.3 1.8l3.2-2.4zm3.8 16.7l-2.5-6.4-3.5-.1-.9-2.4 15.2.7.9 2.3-10.8 10.7-1-2.5 2.6-2.3zm1.6-1.5l4.7-4.6-6.6-.2 1.9 4.8zM198 96.1l-13.9 1.2-.2-2.1 8.7-8.3-9.4.8-.2-2.5 13.9-1.2.2 2.1-8.7 8.3 9.4-.8.2 2.5zm-.3 6v2.5h-13.9v-2.5h13.9zm-13.2 10.3c.6-1.1 1.5-2 2.6-2.6 1.1-.6 2.3-.9 3.7-.9 1.4 0 2.6.3 3.7 1 1.1.6 1.9 1.5 2.6 2.6.6 1.1.9 2.4.9 3.7 0 1.1-.2 2.1-.6 3.1-.4.9-1 1.7-1.7 2.3l-1.6-1.6c1.1-1 1.6-2.2 1.6-3.6 0-.9-.2-1.8-.6-2.5-.4-.7-1-1.3-1.7-1.7-.7-.4-1.6-.6-2.5-.6-.9 0-1.8.2-2.5.6-.7.4-1.3 1-1.7 1.7-.4.7-.6 1.6-.6 2.5 0 1.4.5 2.7 1.6 3.6l-1.6 1.6c-.8-.6-1.3-1.4-1.7-2.3-.4-.9-.6-1.9-.6-3.1-.2-1.5.1-2.7.7-3.8z"/><path class="st1" d="M108 142.9s-3.6-3.2-9.8-.9c-11.4 4.3-17.6 29.4 6.6 31.7 28.6 2.6 22.1-36.6 3.2-30.8z"/><path class="st1" d="M141.8 142.9s3.6-3.2 9.8-.9c11.4 4.3 17.6 29.4-6.6 31.7-28.6 2.6-22.2-36.6-3.2-30.8z"/><path class="st2" d="M141.8 145.2c-.6 0-1.1-.4-1.2-1-5.2-26.6-9.9-38.2-11.5-41.8-19.8 15.5-20.2 41.2-20.2 41.4 0 .7-.5 1.2-1.2 1.2s-1.2-.6-1.2-1.2c0-.3.4-28.2 22.4-44.3l1.1-.8.7 1.2c.2.4 5.9 10.3 12.4 43.8.1.7-.3 1.3-1 1.4-.1.1-.2.1-.3.1z"/><path class="st2" d="M127 116.6l-1.2-2.2c7.2-3.8 4-10.5 3.8-10.8l2.2-1.1c1.7 3.2 2.6 10.2-4.8 14.1zm3.7 3.8l-1.1-2.2c3.1-1.5 3.2-6.1 3.2-6.2h2.4c0 .3-.1 6.2-4.5 8.4zm-12 4.5c-3.8-5.2-1.7-13-1.6-13.3l2.4.7c0 .1-1.9 6.9 1.2 11.2l-2 1.4zM115 129c-3-3.8-2.9-8-2.9-8.2h2.4s0 3.5 2.4 6.6L115 129z"/><path class="st2" d="M112.3 116.4c-1.4 0-3.1-.3-5-.9l.8-2.3c6.6 2.2 8.8-1 8.9-1.2l2.1 1.3c-.2.2-2 3.1-6.8 3.1zm-3.4 7.2c-.9 0-1.9-.1-3-.4l.7-2.4c3.4 1 6-.5 6-.5l1.2 2.1c-.1.1-2.1 1.2-4.9 1.2zm30.7-7.5c-4.7 0-6.6-2.8-6.7-3l2-1.3c.1.1 1.8 2.5 6.4 1.7l.4 2.4c-.6.2-1.4.2-2.1.2zm-10.8-16.5l.6-.4s-6.5-11.8-27.2-8.8c0 0 3.9 16.4 25.3 10.3-8-4.8-18.7-7.5-18.7-7.5 11.2.3 20 6.4 20 6.4z"/><path class="st2" d="M129.1 100.6l1.4 1.9c20.5-.5 21.9-17.6 21.9-17.6-21.2-1.8-23.3 15.7-23.3 15.7zm3.9-1.8s5.9-7.6 15.6-11.5c0 0-5.9 6-15.6 11.5z"/><path class="st2" d="M129.9 98.8s5.5-21-8.5-31c0 0-9.5 17.3 6.4 29.3 0 0-.9-12.2-4.1-21.4 0 0 4.3 7.8 4.9 22.3 0-.1.5 2.1 1.3.8z"/><path class="st0" d="M64.6 144.7h1.9v10.9H65l-6-6.2c-.7-.8-1.3-1.3-1.9-1.5-.5-.3-1.1-.4-1.6-.4-.8 0-1.4.3-1.9.8-.4.6-.7 1.4-.7 2.4 0 1.7.5 3 1.6 3.9l-1.3 1.5c-.7-.6-1.3-1.4-1.7-2.3-.4-1-.6-2-.6-3.2 0-1.6.4-2.9 1.1-3.8s1.8-1.4 3.1-1.4c.8 0 1.6.2 2.3.5.7.3 1.5 1 2.5 2l4.5 4.6v-7.8zm1.1-4.9c-.6.9-1.5 1.7-2.7 2.2-1.2.5-2.6.8-4.2.8s-3-.3-4.2-.8-2.1-1.3-2.7-2.2c-.6-.9-.9-2-.9-3.2 0-1.2.3-2.2.9-3.2s1.5-1.7 2.7-2.2c1.2-.5 2.6-.8 4.2-.8s3 .3 4.2.8c1.2.5 2.1 1.3 2.7 2.2.6.9.9 2 .9 3.2 0 1.2-.3 2.3-.9 3.2zm-2.5-6.1c-1-.7-2.4-1.1-4.3-1.1s-3.3.4-4.3 1.1c-1 .7-1.5 1.7-1.5 2.9s.5 2.2 1.5 2.9c1 .7 2.4 1.1 4.3 1.1s3.3-.4 4.3-1.1c1-.7 1.5-1.7 1.5-2.9s-.5-2.2-1.5-2.9zm135.8-1h-15.2v-2.1h13.3v-3.4h1.9v5.5zm-7.8 12.8c-.8.8-1.8 1.2-3 1.2-.9 0-1.7-.2-2.4-.7-.7-.4-1.3-1.1-1.7-1.9-.4-.9-.6-1.9-.6-3.2 0-1.1.2-2.1.5-3.1s.8-1.8 1.4-2.5l1.7 1c-.5.5-.9 1.2-1.2 2-.3.8-.4 1.7-.4 2.6 0 1.1.2 2 .7 2.6.5.6 1.1.9 2 .9s1.5-.3 2-.9c.5-.6.7-1.6.7-2.8v-1.2h1.5l4.7 3.8V136h1.9v10h-1.5l-4.9-4c-.2 1.6-.6 2.7-1.4 3.5z"/><path d="M97.5 170.5c-.1.2-2.2-.5-4-2.2-1.9-1.6-3.1-4-3.3-4.9-.3-.9-.8-3.5-.3-5.7s1.7-3.9 1.9-3.8c.3.1-.6 1.9-.7 4-.2 2.1.3 4.3.6 5.1.2.8 1.1 3 2.6 4.6 1.6 1.6 3.4 2.7 3.2 2.9zm36.4-16.6c-.3 0-.6-.8-.4-1.7.1-.9.7-1.9.9-2.2.2-.3 1-1 2-1.4.9-.4 1.8-.3 1.8-.1.1.3-.6.6-1.2 1.1-.6.5-1.1 1.1-1.3 1.3-.2.2-.7.8-1.1 1.5-.2.8-.4 1.5-.7 1.5zm-21.1-3.3c-.3 0-.5-.3-.8-.6l-.7-.7c-.1-.1-.3-.4-.6-.7-.3-.3-.6-.6-.5-.8.1-.2.6-.4 1.1-.2.6.1 1.1.5 1.3.7.2.2.5.7.6 1.2.1.6-.1 1.1-.4 1.1zm30.2 20.9c0 .2-1.6.4-3.3-.1-1.7-.4-3.5-1.3-4.1-1.7-.6-.4-2.1-1.5-3-2.9-1-1.3-1.4-2.7-1.2-2.8.3-.1 1 1 2.2 2.1 1.1 1.1 2.5 2 3 2.3.5.3 2 1.3 3.5 1.8 1.5.7 2.9 1 2.9 1.3z" fill="#fdfaf0"/><path class="st0" d="M126 201.3h-2c-29.4 0-53.3-23.9-53.3-53.3V98.8c0-29.4 23.9-53.3 53.3-53.3h1.9c29.4 0 53.3 23.9 53.3 53.3V148c.1 29.4-23.8 53.3-53.2 53.3zm-2-152.4c-27.5 0-49.9 22.4-49.9 49.9V148c0 27.5 22.4 49.9 49.9 49.9h1.9c27.5 0 49.9-22.4 49.9-49.9V98.8c0-27.5-22.4-49.9-49.9-49.9H124z"/></svg>