<?xml version="1.0" encoding="UTF-8" standalone="no"?>
<!DOCTYPE svg PUBLIC "-//W3C//DTD SVG 1.1//EN" "http://www.w3.org/Graphics/SVG/1.1/DTD/svg11.dtd">
<svg xmlns="http://www.w3.org/2000/svg" xmlns:xlink="http://www.w3.org/1999/xlink" version="1.1" width="1200pt" height="1200pt" viewBox="0 0 1200 1200">
<g enable-background="new">
<g>
<path d="M 0 0 L 1200 0 L 1200 1200 L 0 1200 Z "/>
<path transform="matrix(1200,0,0,1200,0,0)" d="M 0 0 L 1 0 L 1 1 L 0 1 Z " fill="#ffffff"/>
<filter id="blend_1"><feBlend mode="multiply" in2="BackgroundImage" in="SourceGraphic"/></filter>
<g filter="url(#blend_1)">
<clipPath id="cp0">
<path d="M 0 0 L 1200 0 L 1200 1200 L 0 1200 Z "/>
</clipPath>
<g clip-path="url(#cp0)">
<path transform="matrix(-10.430521,0,0,10.430521,1111.8673,85.405048)" d="M 49.072 24.534 C 30.193 24.534 14.888 39.838 14.888 58.719 C 14.888 69.507 19.89 79.12 27.695 85.385 L 27.695 93.586 C 27.695 93.586 31.511 90.485 34.692 90.485 C 37.872 90.485 41.947 93.586 41.947 93.586 C 41.947 93.586 43.777 90.711 48.76 90.711 C 53.745 90.711 56.199 93.586 56.199 93.586 C 56.199 93.586 59.75 90.711 62.829 90.711 C 65.905 90.711 70.453 93.586 70.453 93.586 L 70.453 85.385 C 78.255 79.12 83.26 69.507 83.26 58.719 C 83.259 39.838 67.952 24.534 49.072 24.534 Z M 24.922 63.063 C 24.922 57.319 29.58 52.661 35.325 52.661 C 41.07 52.661 45.728 52.305 45.728 58.051 C 45.728 63.795 41.07 69.573 35.325 69.573 C 29.58 69.573 24.922 68.811 24.922 63.063 Z M 43.851 77.349 C 42.467 77.349 41.345 76.227 41.345 74.841 C 41.345 73.458 44.973 69.311 46.358 69.311 C 46.826 69.311 46.935 73.488 46.935 74.873 C 46.935 76.258 45.234 77.349 43.851 77.349 Z M 54.296 77.349 C 52.912 77.349 51.213 76.259 51.213 74.873 C 51.213 73.487 51.321 69.311 51.789 69.311 C 53.174 69.311 56.802 73.458 56.802 74.841 C 56.802 76.227 55.68 77.349 54.296 77.349 Z M 62.82 69.573 C 57.076 69.573 52.417 63.795 52.417 58.051 C 52.417 52.305 57.076 52.661 62.82 52.661 C 68.563 52.661 73.222 57.319 73.222 63.063 C 73.223 68.811 68.563 69.573 62.82 69.573 Z " fill="#0062ff"/>
<path transform="matrix(-10.430521,0,0,10.430521,1111.8673,85.405048)" d="M 72.531 9.037 C 72.531 9.037 68.926 5.582 67.037 5.582 C 65.154 5.582 62.725 9.037 62.725 9.037 C 62.725 9.037 65.155 12.491 67.037 12.491 C 68.926 12.491 72.531 9.037 72.531 9.037 Z " fill="#0062ff"/>
<path transform="matrix(-10.430521,0,0,10.430521,1111.8673,85.405048)" d="M 55.656 9.023 C 55.656 9.023 51.917 5.555 48.83 5.555 C 45.743 5.555 42.853 9.023 42.853 9.023 C 42.853 9.023 45.742 12.49 48.83 12.49 C 51.917 12.491 55.656 9.023 55.656 9.023 Z " fill="#0062ff"/>
<path transform="matrix(-10.430521,0,0,10.430521,1111.8673,85.405048)" d="M 35.909 8.787 C 35.909 8.787 32.23 5.085 30.193 5.085 C 28.157 5.085 25.034 8.787 25.034 8.787 C 25.034 8.787 28.157 12.491 30.193 12.491 C 32.23 12.491 35.909 8.787 35.909 8.787 Z " fill="#0062ff"/>
<path transform="matrix(-10.430521,0,0,10.430521,1111.8673,85.405048)" d="M 79.978 44.098 L 75.898 9.305 C 75.898 9.305 69.814 15.129 66.633 15.129 C 63.453 15.129 59.358 9.305 59.358 9.305 C 59.358 9.305 53.326 14.903 48.342 14.903 C 43.358 14.903 38.693 9.305 38.693 9.305 C 38.693 9.305 33.129 14.903 30.049 14.903 C 26.971 14.903 22.248 9.305 22.248 9.305 L 18.169 44.098 L 79.978 44.098 Z " fill="#0062ff"/>
</g>
</g>
</g>
</g>
</svg>
