<svg version="1.1" id="Capa_1" xmlns="http://www.w3.org/2000/svg" x="0" y="0" viewBox="-49 141 512 512" xml:space="preserve"><style>.st2{fill:#0062ff}</style><path d="M-11.1 413.9c-49.3-80.2-24.4-185.2 55.8-234.5s185.1-24.4 234.5 55.8c17 27.6 25.7 59.4 25.3 91.8-3 94.2-80.8 168.8-175.1 167.9H-27.9l16.6-28.1c9.9-16.3 9.9-36.6.2-52.9z" fill="#fff"/><path d="M425.3 560c49.3-80.2 24.3-185.2-55.9-234.5-20.3-12.5-43-20.6-66.6-23.7 1.2 8.4 1.8 16.8 1.7 25.2-3 94.2-80.8 168.8-175.1 167.9h-17.8c13.9 84.7 87.3 146.6 173.1 146.1h157.4l-16.6-28.1c-9.8-16.3-9.9-36.6-.2-52.9z" fill="#d7e6ff"/><path class="st2" d="M436 606.6c-7.5-12.4-7.5-27.8 0-40.2 52.8-85.9 26-198.4-59.9-251.2-19-11.7-40-19.8-61.9-23.9-7.1-38.3-26.2-73.3-54.5-100-37.5-35.9-88.6-53.9-140.3-49.6C18.9 149.6-56.3 237.5-48.4 338c2.3 29.1 11.5 57.3 26.9 82.1 7.5 12.4 7.5 27.8 0 40.2l-16.9 28.2c-3.4 5.8-1.5 13.3 4.3 16.7 1.9 1.1 4 1.7 6.2 1.7h129.5c19.1 85.5 95 146.2 182.6 146.1h157.9c6.7 0 12.2-5.5 12.2-12.2 0-2.2-.6-4.3-1.7-6.2l-16.6-28zm-442.5-124l5.8-9.9c12.1-20.1 12.1-45.3 0-65.4-45.8-74.4-22.6-171.9 51.8-217.7s172-22.5 217.8 51.9c15.8 25.6 23.9 55.1 23.5 85.2-2.9 87.6-75.2 156.9-162.9 156h-136v-.1zm291.3 146.1c-74.4.4-139.6-49.7-158.3-121.7h2.9c100.9.8 184.1-79 187.2-179.9v-10.6c85.1 20 137.9 105.2 117.9 190.3-3.9 16.5-10.4 32.3-19.3 46.8-12.1 20.1-12.1 45.3 0 65.4l5.8 9.9-136.2-.2z"/><path class="st2" d="M147.6 295c0 12.2-11.4 20-40.8 21.2l-1.2 1.2 5.4 37.7h24.3l2.6-14.2c24.8-4.4 44.9-16.6 44.9-46.4 0-30.9-22.8-48.7-56.4-48.7-21.8-.5-42.7 8.7-57 25.2l21.4 23.5c8.9-10 21.6-15.8 34.9-16.1 14 .1 21.9 6.2 21.9 16.6zm-44.3 78.6H141v37.3h-37.7z"/></svg>