<svg version="1.1" id="b7c4787f-e4a8-4036-aa60-d215daeece2d" xmlns="http://www.w3.org/2000/svg" x="0" y="0" viewBox="0 0 989.1 610.3" xml:space="preserve"><style>.st0{opacity:4.000000e-02;fill:#f2f2f2}.st1{fill:#3f3d56}.st2{opacity:.3;fill:#0062ff;enable-background:new}.st3{fill:#2f2e41}.st4{fill:#5596e6}.st5{fill:#ffb8b8}</style><path transform="rotate(-59.349 657.286 207.183)" class="st0" d="M638.3-167.2h38v748.7h-38z"/><path transform="rotate(-59.349 517.285 239.184)" class="st0" d="M498.3-135.2h38v748.7h-38z"/><path transform="rotate(-59.349 393.284 274.185)" class="st0" d="M374.3-100.2h38v748.7h-38z"/><circle class="st1" cx="569.5" cy="245.8" r="201.7"/><path class="st2" d="M569.5 282.6c-19.9 0-35.9-16.1-35.9-35.9s16.1-35.9 35.9-35.9c19.9 0 35.9 16.1 35.9 35.9 0 19.8-16 35.9-35.9 35.9zm0-70.2c-18.9 0-34.2 15.3-34.2 34.2s15.3 34.2 34.2 34.2 34.2-15.3 34.2-34.2c0-18.8-15.3-34.1-34.2-34.2z"/><path class="st2" d="M569.5 315c-37.8 0-68.4-30.6-68.4-68.4s30.6-68.4 68.4-68.4 68.4 30.6 68.4 68.4c0 37.8-30.6 68.4-68.4 68.4zm0-135c-36.8 0-66.6 29.8-66.6 66.6s29.8 66.6 66.6 66.6 66.6-29.8 66.6-66.6-29.8-66.6-66.6-66.6z"/><path class="st2" d="M569.5 343.1c-53.3 0-96.5-43.2-96.5-96.5s43.2-96.5 96.5-96.5 96.5 43.2 96.5 96.5c-.1 53.3-43.2 96.4-96.5 96.5zm0-191.2c-52.3 0-94.7 42.4-94.7 94.7s42.4 94.7 94.7 94.7 94.7-42.4 94.7-94.7c-.1-52.2-42.4-94.6-94.7-94.7z"/><path class="st2" d="M569.5 379.9c-73.5 0-133.3-59.8-133.3-133.3S496 113.3 569.5 113.3s133.3 59.8 133.3 133.3S643 379.9 569.5 379.9zm0-264.8c-72.5 0-131.5 59-131.5 131.5s59 131.5 131.5 131.5S701 319.1 701 246.6s-59-131.5-131.5-131.5z"/><path class="st2" d="M569.5 410.6c-90.4 0-164-73.6-164-164s73.6-164 164-164 164 73.6 164 164-73.6 164-164 164zm0-326.2c-89.4 0-162.2 72.8-162.2 162.2s72.8 162.2 162.2 162.2S731.7 336 731.7 246.6 659 84.4 569.5 84.4z"/><circle class="st2" cx="569.5" cy="245.8" r="16.7"/><circle class="st2" cx="612.5" cy="294" r="16.7"/><circle transform="rotate(-71.567 495.887 286.928)" class="st2" cx="495.9" cy="286.9" r="16.7"/><circle class="st3" cx="569.5" cy="245.8" r="7.9"/><circle class="st3" cx="495.9" cy="287" r="7.9"/><circle class="st3" cx="612.5" cy="294.9" r="7.9"/><circle class="st4" cx="937.8" cy="157.2" r="7.9"/><path class="st3" d="M569.9 246.2h-1.7v-90.3h348.1v1.7H569.9z"/><path class="st3" d="M937.8 180c-12.6 0-22.8-10.2-22.8-22.8s10.2-22.8 22.8-22.8 22.8 10.2 22.8 22.8-10.2 22.8-22.8 22.8zm0-43.8c-11.6 0-21 9.4-21 21s9.4 21 21 21 21-9.4 21-21-9.4-21-21-21z"/><circle class="st4" cx="885.2" cy="384.3" r="7.9"/><path class="st3" d="M885.2 407.1c-12.6 0-22.8-10.2-22.8-22.8s10.2-22.8 22.8-22.8 22.8 10.2 22.8 22.8c-.1 12.6-10.2 22.8-22.8 22.8zm0-43.9c-11.6 0-21 9.4-21 21s9.4 21 21 21 21-9.4 21-21c0-11.5-9.4-20.9-21-21z"/><circle transform="rotate(-80.781 251.204 193.996)" class="st4" cx="251.2" cy="194" r="7.9"/><path class="st3" d="M251.2 216.8c-12.6 0-22.8-10.2-22.8-22.8s10.2-22.8 22.8-22.8c12.6 0 22.8 10.2 22.8 22.8s-10.2 22.8-22.8 22.8zm0-43.8c-11.6 0-21 9.4-21 21s9.4 21 21 21 21-9.4 21-21c.1-11.6-9.4-21-21-21z"/><path class="st3" d="M496.7 287H495v-88.6l-221.9-3.5.1-1.8 223.5 3.6zm366.5 98.2H611.6v-90.3h1.8v88.5h249.8zm26.3-186.8H986v6.1h-96.5zm0 17.5H986v6.1h-96.5zm0 17.6H986v6.1h-96.5zm-52.6 192h96.5v6.1h-96.5zm0 17.5h96.5v6.1h-96.5zm0 17.6h96.5v6.1h-96.5zM203 236.1h96.5v6.1H203zm0 17.5h96.5v6.1H203zm0 17.6h96.5v6.1H203z"/><ellipse class="st0" cx="577.4" cy="575.4" rx="192" ry="6.1"/><path class="st3" d="M0 608.3h648v2H0z"/><path class="st5" d="M74 179.2s9.2 26.1 3.5 30.1 19.1 36.8 19.1 36.8l29.7-8-16.3-27.4s-2.1-27.5-2.1-31.5-33.9 0-33.9 0z"/><path d="M74 179.2s9.2 26.1 3.5 30.1 19.1 36.8 19.1 36.8l29.7-8-16.3-27.4s-2.1-27.5-2.1-31.5-33.9 0-33.9 0z" opacity=".1"/><path class="st3" d="M58.6 365.4s-2.7 33.5 0 50.9 6.7 65.6 6.7 65.6 0 91.1 14.7 92.4 25.5 2.7 26.8-2.7-6.7-8-2.7-10.7 5.4-12.1 0-22.8 0-119.2 0-119.2l25.5 68.3s2.7 56.3 5.4 64.3-2.7 22.8 6.7 24.1 20.1-6.7 25.5-9.4-8-2.7-5.4-4 10.7-5.4 8-6.7-5.4-65.6-5.4-65.6-7.4-137.3-16.7-142.7-15.4 3.9-15.4 3.9l-73.7 14.3z"/><path class="st3" d="M82.7 569v10.7s-12.1 29.1 0 29.1 21.4 3 21.4-1v-36.2L82.7 569zm79 0v10.7s12.1 29.1 0 29.1-21.4 3-21.4-1v-36.2l21.4-2.6z"/><circle class="st5" cx="92.7" cy="174.5" r="24.1"/><path d="M85.4 219.4s6.7 20.1 17.4 16.1l10.7-4L132.3 360s-14.7 21.4-36.2 8-10.7-148.6-10.7-148.6z" fill="#d0cde1"/><path class="st1" d="M104.1 215.4l6-12.7s35.5 16.7 40.9 22.1 5.4 13.4 5.4 13.4l-9.4 33.5s2.7 73.7 2.7 76.4c0 2.7 9.4 17.4 2.7 12.1s-8-10.7-13.4-2.7-17.4 17.4-17.4 17.4l-17.5-159.5z"/><path class="st5" d="M151 311.8l-4 37.5s-24.1 21.4-18.8 22.8c5.4 1.3 8-4 8-4s9.4 9.4 14.7 4 18.8-56.3 18.8-56.3l-18.7-4z"/><path class="st3" d="M93.3 140.4c-5.3-.2-11.1-.3-15.6 2.6-2.1 1.4-3.9 3.2-5.4 5.3-4.4 5.5-8.2 12.5-6.6 19.4l1.9-.7c0 1.8-.4 3.7-1.2 5.3.3-.8 1.2.5.9 1.3l-2.1 6.8c3.4-1 7 .9 8.1 4.3.1.2.1.4.2.6.2-7.9 1.1-17.1 7.5-21.7 3.3-2.3 7.4-3.1 11.3-3.7 3.7-.6 7.5-1.1 11 .1s6.5 4.8 5.7 8.4c1.6-.6 3.4.6 4.2 2.1.7 1.6 1 3.3.9 5 1.7 1.2 3.7-1.2 4.4-3.2 1.6-4.7 3.1-9.6 2.2-14.5s-4.8-9.5-9.8-9.5c.6-.7.9-1.5.9-2.4l-4.1-.3c1-.1 2-.6 2.7-1.4-1.6 1.6-14.5-3.7-17.1-3.8z"/><path class="st1" d="M92.1 211.3s-10.9-10.7-14.8-10-9.3 10-9.3 10-32.2 10.7-30.8 21.4 16.1 63 16.1 63 12.1 63 1.3 69.7c-10.7 6.7 50.9 24.1 52.2 16.1s4-88.4 0-100.5c-4-12.1-14.7-69.7-14.7-69.7z"/><path class="st5" d="M49.2 323.9l18.8 8s36.2 5.4 36.2-9.4c0-14.7-36.2-6.7-36.2-6.7L55.9 312l-6.7 11.9z"/><path class="st1" d="M139 232.8h16.6s11.6 50.9 12.9 56.3 4 30.8 2.7 30.8-28.1-5.4-28.1-1.3l-4.1-85.8zm-85.8-8.1l-16.1 4-12.1 71s-4 18.8 2.7 20.1c6.7 1.3 25.5 12.1 25.5 12.1s2.7-20.1 8-20.1l-13.4-10.7 8-46.9-2.6-29.5zM509 569.3h-26v-26h26v26zm-24-2h22v-22h-22v22z"/><circle class="st4" cx="525" cy="559.3" r="10"/></svg>