<svg version="1.1" id="Layer_1" xmlns="http://www.w3.org/2000/svg" x="0" y="0" viewBox="0 0 512 512" xml:space="preserve"><style>.st1{fill:#41d6c3}.st2{fill:#d4e1f4}</style><path d="M368.5 364.2c-2.9-3.1-8.7-8.1-16.5-8.1-5.8 0-11.7 2.8-16.9 8.1L306.3 393c-1.1 1.1-4 4-8.5 4-1.9 0-3.8-.5-5.5-1.4l-.1-.1c-.2-.1-.5-.3-.7-.4-2.6-1.6-5.5-3.1-8.7-4.6-3.4-1.6-6.6-3.4-9.8-5.3-26.4-16.7-50.4-38.5-73.2-66.7-.1-.1-.1-.2-.2-.2-12.4-15.7-20.4-28.9-26.1-42.5l-.2-.5c-1.5-4.7-1.5-8.6 2.9-13l.2-.2.1-.1c7.2-6.5 13.7-12.9 21.3-20.7 1.7-1.6 3.3-3.2 4.9-4.8l2.4-2.4c11.3-11.3 11.3-23.3 0-34.6l-23.1-23c-1.3-1.4-2.7-2.8-4-4.1-1.3-1.4-2.7-2.7-4-4-5.6-5.8-10.3-10.6-15.3-15.2l-.2-.2c-5-5-10.7-7.6-16.5-7.6s-11.6 2.6-16.9 7.6l-.1.1-28.7 28.7c-7.8 7.6-12.6 17.8-13.3 28.7-1.4 16.5 1.7 33.5 9.8 55.2 12.9 35 32.5 67.6 61.6 102.6 34.5 41.5 77.5 75.2 126.1 98.8 17.9 8.6 41.8 18.6 67.8 20.3 1.5.1 3 .1 4.3.1 14.6 0 26.4-5 36-15.3l.2-.2c5-5.7 10.3-11.2 15.9-16.4l1.9-1.8c3-2.9 5.8-5.6 8.5-8.6 10.8-11.2 10.7-23.9-.2-34.7l-46.4-46.3zM142.1 157.5c3.2 0 6.2 2.2 8 4.1l.3.3.1.1c4.8 4.5 9.4 9.2 14.9 14.8 1.3 1.4 2.7 2.7 4 4.1 1.3 1.3 2.6 2.7 4 4.1l23 23c6.6 6.6 6.6 11 0 17.6-.8.8-1.6 1.6-2.4 2.5l-.2.3-63.4-63.4 3.1-3.1c2.9-3 5.9-4.4 8.6-4.4zm237.6 306.7c-7.4 7.9-15.8 11.4-27.1 11.4-1.2 0-2.4 0-3.5-.1-24-1.5-46.5-11-63.4-19.1a366.11 366.11 0 01-122.1-95.6c-28.2-34-47.1-65.4-59.5-99.1-7.5-20-10.3-35.4-9.1-50 .5-8.1 4-15.6 9.9-21.2l17-17 63.5 63.5c-5.9 5.9-11.2 11.1-17 16.3-.3.3-.7.6-.9.9-10.1 10.4-6.7 21.2-5.5 24.8v.1l.3.8c0 .1.1.3.1.4 6.1 14.8 14.8 28.9 28 45.7.1.1.2.2.3.4 23.6 29.1 48.5 51.7 76 69 3.5 2.2 7.1 4.1 10.9 5.9 2.9 1.5 5.6 2.8 7.8 4.2.1.1.3.2.4.2l.1.1c.3.2.7.4 1 .6 3.4 1.8 7.2 2.7 11 2.7 6.3 0 12-2.5 17-7.6l17.6-17.6 63.5 63.5c-5.8 5.3-11.2 10.9-16.3 16.8zm26.9-27.5l-.7.7c-.5.5-1 1-1.5 1.6l-63.6-63.6 2.7-2.7c1.7-1.7 5.1-4.5 8.5-4.5 3.5 0 6.5 2.9 7.7 4.2l.2.2 46.5 46.5c6.2 6.1 6.3 11.1.2 17.6z" fill="#5596e6"/><path class="st1" d="M323.3 24.4c-58.5 0-106 47.5-106 106s47.5 106 106 106 106-47.5 106-106c-.1-58.6-47.5-106-106-106zm0 200.1c-51.9 0-94-42.1-94-94s42.1-94 94-94 94 42.1 94 94c-.1 51.8-42.1 93.8-94 94z"/><path class="st1" d="M369.6 68.6c-25.5-25.6-66.9-25.6-92.4-.1l-.1.1c-11.8 11.9-18.9 27.6-20 44.3-.6 9.2.8 18.4 4 27 3.3 8.9 8.5 17.1 15.1 24l42.9 45.7c2.3 2.4 6.1 2.5 8.5.3l.3-.3 42.9-45.7c6.6-6.9 11.7-15 15.1-24 3.2-8.6 4.5-17.8 4-27-1.4-16.6-8.5-32.5-20.3-44.3zm4.8 67.2c-2.8 7.4-7.1 14.2-12.6 19.9l-38.5 41-38.5-41c-5.5-5.7-9.8-12.5-12.6-19.9-2.6-7-3.7-14.6-3.3-22.1.9-13.8 6.8-26.8 16.5-36.7 20.9-20.7 54.7-20.8 75.6 0l.1.1c9.8 9.8 15.6 22.8 16.5 36.7.5 7.5-.6 15-3.2 22z"/><path class="st1" d="M323.3 73.6c-21.7 0-39.3 18-39.3 40.2s17.6 40.2 39.3 40.2 39.3-18 39.3-40.2-17.6-40.2-39.3-40.2zm0 68.4c-15.1 0-27.3-12.6-27.3-28.2s12.3-28.2 27.3-28.2 27.3 12.7 27.3 28.2-12.2 28.2-27.3 28.2z"/><path class="st2" d="M317.7 409c6.3 0 12-2.5 17-7.6l7.6-7.6-10-10-17.6 17.6c-2.1 2.1-4.5 3.9-7.2 5.2 3.3 1.6 6.7 2.4 10.2 2.4z"/><path class="st2" d="M305.7 456.3a366.11 366.11 0 01-122.1-95.6c-28.2-34-47.1-65.4-59.5-99.1-7.5-20-10.3-35.4-9.1-50 .5-8.1 4-15.6 9.9-21.2l7-7-10-10-17 17c-5.8 5.6-9.3 13.2-9.9 21.2-1.2 14.6 1.6 30 9.1 50 12.5 33.7 31.4 65.2 59.5 99.1 33.4 40.2 75.1 72.8 122.1 95.6 16.9 8.1 39.4 17.6 63.4 19.1 1.1.1 2.3.1 3.5.1 3 0 5.9-.3 8.8-.8-21.1-2.9-40.6-11.2-55.7-18.4z"/></svg>