<svg version="1.1" id="Layer_1" xmlns="http://www.w3.org/2000/svg" x="0" y="0" viewBox="0 0 512 512" xml:space="preserve"><style>.st1{fill:#41d6c3}</style><path d="M250.5 434.3c0-21.2-17.2-38.5-38.5-38.5s-38.5 17.2-38.5 38.5 17.2 38.5 38.5 38.5c21.2 0 38.5-17.2 38.5-38.5zm-65 0c0-14.6 11.9-26.5 26.5-26.5s26.5 11.9 26.5 26.5-11.9 26.5-26.5 26.5-26.4-11.8-26.5-26.5zm172.7 38.5c21.2 0 38.5-17.2 38.5-38.5s-17.2-38.5-38.5-38.5c-21.2 0-38.5 17.2-38.5 38.5s17.2 38.5 38.5 38.5zm0-64.9c14.6 0 26.5 11.9 26.5 26.5s-11.9 26.5-26.5 26.5-26.5-11.9-26.5-26.5c0-14.7 11.9-26.5 26.5-26.5zM456 143.8H342v12h105.6l-36.9 106.6c-4.1 11.9-15.3 19.9-27.9 19.9h-217l-20-126.5H264v-12H143.8l-4.1-25.6c-3.1-20.2-20.6-35.1-41-35H56c-3.3 0-6 2.7-6 6s2.7 6 6 6h42.7c14.5-.1 26.9 10.5 29.2 24.9l33.8 213.5c3.1 20.2 20.6 35.1 41 35h208.9c3.3 0 6-2.7 6-6s-2.7-6-6-6H202.7c-14.5.1-26.9-10.5-29.2-24.9l-5.9-37.5h215.2c17.7 0 33.4-11.2 39.2-27.9l39.7-114.6c1.1-3.1-.6-6.5-3.7-7.6-.7-.2-1.3-.3-2-.3z" fill="#5596e6"/><path class="st1" d="M349.6 57.6c-25.7-24.5-67.5-24.5-93.1 0-22.2 20.8-25.8 54.6-8.5 79.6l50.1 72.4c1.9 2.7 5.6 3.4 8.3 1.5.6-.4 1.1-.9 1.5-1.5l50.1-72.4c17.3-25 13.7-58.8-8.4-79.6zm-1.4 72.8L303 195.6l-45.2-65.3c-13.9-20.1-11-47.4 6.9-64.1 21.6-20.1 55-20.1 76.6 0 17.8 16.8 20.8 44.1 6.9 64.2z"/><path class="st1" d="M303 66c-19.9 0-36.1 16.2-36.1 36.1 0 19.9 16.2 36.1 36.1 36.1 19.9 0 36.1-16.2 36.1-36.1 0-19.9-16.2-36-36.1-36.1zm0 60.2c-13.3 0-24.1-10.8-24.1-24.1S289.7 78 303 78s24.1 10.8 24.1 24.1-10.8 24.1-24.1 24.1z"/><path d="M277.8 130.4c-13.9-20.1-11-47.4 6.9-64.1 7.8-7.4 17.7-12.4 28.3-14.2-3.3-.6-6.6-.9-10-.9-14.2-.1-27.9 5.3-38.3 15.1-17.9 16.7-20.8 44-6.9 64.1l45.2 65.3 10-14.5-35.2-50.8zm-132.1 25.4l20 126.5h20l-20-126.5z" fill="#d4e1f4"/></svg>