<svg version="1.1" id="Layer_1" xmlns="http://www.w3.org/2000/svg" x="0" y="0" viewBox="0 0 883 711.9" xml:space="preserve"><style>.st0{opacity:4.000000e-02;fill:#f2f2f2}.st1{opacity:.5}.st4{fill:#fccc63}.st5{fill:#5596e6}.st7{fill:#498cce}.st8{fill:#fff}.st9{opacity:.2}.st12{fill:#ca7070}.st13{fill:#00695c}.st14{opacity:.2;fill:#fff;enable-background:new}.st15{fill:#263238}.st16{fill:#ff5252}.st17{fill:#f6b9ad}</style><path class="st0" d="M872.2 43.4h-37.6c1.6-1.8 2.6-4.1 2.6-6.7v-1.8c0-5.5-4.5-10-10-10H646.3c-5.5 0-10 4.5-10 10v1.8c0 5.5 4.5 10 10 10h37.6c-1.6 1.8-2.6 4.1-2.6 6.7v1.8c0 1.5.4 3 1 4.3H615c-5.5 0-10 4.4-10 10v1.8c0 5.5 4.5 10 10 10h180.9c5.5 0 10-4.5 10-10v-1.8c0-1.5-.4-3-1-4.3h67.3c5.5 0 10-4.5 10-10v-1.8c0-5.5-4.5-10-10-10zM528.3 291.7h-37.6c1.6-1.8 2.6-4.1 2.6-6.7v-1.8c0-5.5-4.5-10-10-10H302.4c-5.5 0-9.9 4.4-10 10v1.8c0 5.5 4.5 10 10 10H340c-1.6 1.8-2.6 4.1-2.6 6.7v1.8c0 1.5.3 2.9.9 4.2h-67.2c-5.5 0-10 4.5-10 10v1.8c0 5.5 4.5 10 10 10H452c5.5 0 10-4.5 10-10v-1.8c0-1.5-.3-2.9-.9-4.2h67.2c5.5 0 10-4.5 10-10v-1.8c0-5.5-4.5-10-10-10z"/><g class="st1"><linearGradient id="SVGID_1_" gradientUnits="userSpaceOnUse" x1="600" y1="591.57" x2="600" y2="418.432" gradientTransform="translate(-158.5 117.93)"><stop offset="0" stop-color="gray" stop-opacity=".25"/><stop offset=".54" stop-color="gray" stop-opacity=".12"/><stop offset="1" stop-color="gray" stop-opacity=".1"/></linearGradient><path d="M852.5 686.1c-4.8 0-115.7 48.2-244.3-78.7-69.8-68.9-138.2-76.3-186.1-68.6-29.5 4.7-56.3 19.1-77.6 39.9-17.1 16.8-58.6 39.7-155.7 33.5C39.3 602.6 0 709.5 0 709.5h883s-25.7-23.4-30.5-23.4z" fill="url(#SVGID_1_)"/></g><path class="st0" d="M0 711.9S39.4 605 188.8 614.7c97.1 6.3 138.6-16.7 155.7-33.5 21.3-20.9 48.1-35.2 77.6-39.9 47.9-7.7 116.3-.3 186.1 68.6 128.5 127 239.4 78.7 244.3 78.7s30.5 23.3 30.5 23.3H0zm327.5-569.7h-37.7c1.6-1.8 2.6-4.1 2.6-6.7v-1.8c0-5.5-4.5-10-10-10H101.5c-5.5 0-9.9 4.5-10 10v1.8c0 5.5 4.5 10 10 10h37.7c-1.6 1.8-2.6 4.1-2.6 6.7v1.8c0 1.5.4 3 1 4.3H70.2c-5.5 0-9.9 4.4-10 10v1.8c0 5.5 4.5 10 10 10h180.9c5.5 0 10-4.5 10-10v-1.8c0-1.5-.4-3-1-4.3h67.4c5.5 0 10-4.5 10-10v-1.8c0-5.5-4.5-10-10-10z"/><g class="st1"><linearGradient id="SVGID_2_" gradientUnits="userSpaceOnUse" x1="199.3" y1="-49.6" x2="199.3" y2="-212" gradientTransform="translate(0 212)"><stop offset="0" stop-color="gray" stop-opacity=".25"/><stop offset=".54" stop-color="gray" stop-opacity=".12"/><stop offset="1" stop-color="gray" stop-opacity=".1"/></linearGradient><circle cx="199.3" cy="81.2" r="81.2" fill="url(#SVGID_2_)"/></g><circle class="st4" cx="199.3" cy="81.2" r="72.3"/><path class="st5" d="M161 590.6h62.9v46.7H161z"/><path d="M155.5 588.7l35.1-35.2c1.1-1.1 2.8-1.1 3.9 0l34.9 34.9c1.1 1.1 1.1 2.8 0 3.9-.5.5-1.2.8-1.9.8l-70 .3c-1.5 0-2.8-1.2-2.8-2.7 0-.7.3-1.4.8-2z" fill="#0062ff"/><path class="st7" d="M155.5 588.7l35.1-35.2c1.1-1.1 2.8-1.1 3.9 0l34.9 34.9c1.1 1.1 1.1 2.8 0 3.9-.5.5-1.2.8-1.9.8l-70 .3c-1.5 0-2.8-1.2-2.8-2.7 0-.7.3-1.4.8-2z"/><path class="st8" d="M191.6 616.3h1.3c3.9 0 7.1 3.2 7.1 7.1v14h-15.5v-14c0-3.9 3.2-7.1 7.1-7.1z"/><circle class="st8" cx="192.6" cy="562.2" r="3.9"/><path class="st8" d="M165.9 596.6h14.8v11.2h-14.8z"/><path class="st5" d="M172.6 596.6h1.4v11.2h-1.4z"/><path class="st8" d="M205.3 596.6h14.8v11.2h-14.8z"/><path class="st5" d="M211.9 596.6h1.4v11.2h-1.4z"/><g class="st9"><linearGradient id="SVGID_3_" gradientUnits="userSpaceOnUse" x1="3623.022" y1="423.17" x2="3623.022" y2="423.17" gradientTransform="matrix(-1 0 0 1 4075.5 117.93)"><stop offset="0" stop-color="gray" stop-opacity=".25"/><stop offset=".54" stop-color="gray" stop-opacity=".12"/><stop offset="1" stop-color="gray" stop-opacity=".1"/></linearGradient><path d="M452.5 541.1c-.1 0 0 0 0 0z" fill="url(#SVGID_3_)"/></g><g class="st9"><linearGradient id="SVGID_4_" gradientUnits="userSpaceOnUse" x1="3617.639" y1="452.3" x2="3617.639" y2="422.43" gradientTransform="matrix(-1 0 0 1 4075.5 117.93)"><stop offset="0" stop-color="gray" stop-opacity=".25"/><stop offset=".54" stop-color="gray" stop-opacity=".12"/><stop offset="1" stop-color="gray" stop-opacity=".1"/></linearGradient><path d="M454 570.2h.1c.1 0 .1-.1.1-.1v-.2c-.1-.2-.3-.6-.5-.8l-.1-.2v-.3l2.2-7.1v-.2s2.8 1.2 3.5 3.5c.4 1.1.4 2.4.1 3.5v1.4h3c.2-.1-.1-.4-.3-.6l-.1-.1-.2-.2c-.1-.1-.1-.1-.1-.2v-.2h-.1v-.1c.8-3.5-.4-7.2-3.1-9.7.7-2.2.7-4.5 0-6.7.3-.2 5.7-4.1 5.7-9.2v-.8s.5-.4 0-1.1v-.1h-.3c-.2 0-.4.1-.6.2 0 0-.3 1 0 1.3h-.1s-3.2 7-5.4 8l-.2-.1V549c.2-.1.5-.3.7-.5.1-.1.1-.2.2-.2l.1-.1.1-.1.1-.1c0-.1.1-.2.1-.3v-.6c0-.3-.1-.6-.2-.8 0-.1 0-.1-.1-.2v-.1l-.1-.1.2-.2c.1-.1.3-.1.5-.1h.5c.1 0 .1-.1.2-.1.1-.1.2-.1.3-.1h-1.7l-.2-.1c.1 0 .2.1.3.1h.5v-.1h-1c.3.1.7-.1.8-.4s-.1-.7-.4-.8l.1-.1c.1-.1.2-.2.2-.4v-.2l-.1.1h-.1c-.2.1-.4.2-.7.2h-.1c-.2-.1-.4-.1-.6-.2l-.2-.1h-.7c-.7 0-1.5.3-2 .8-.1.1-.2.3-.3.4-.1-.7.1-1.5.4-2.1h-.3l-.1.2c0-.2.1-.5.3-.7h-.1c.3-.3.3-.8 0-1.1-.5-.7-1.3-.2-1.3-.2-.1.2-.1.5-.1.7l-.1-.1c-.2.5-1.9 6.7 1 10.7v7l-2 9.2-.4 1.7 2.7.3zm.5-21.7c.2.1.3.2.5.3v1.1l-.2.1c-.1-.4-.2-.9-.3-1.5z" fill="url(#SVGID_4_)"/></g><path class="st12" d="M464.2 542.9s.5-.4 0-1.2-1.5-.2-1.5-.2-.3 1.1 0 1.4 1.5 0 1.5 0z"/><path class="st13" d="M458.8 572h2.4c0 .2.1.5.2.6.3.4 1 .8.7 1h-3.3V572z"/><path class="st14" d="M461.2 572.6c-.2-.2-.2-.4-.2-.6h.2c0 .2.1.5.2.6.3.4 1 .8.7 1h-.2c.3-.1-.4-.6-.7-1z"/><path class="st13" d="M450.2 571.5l2.3.4c-.1.3 0 .5.1.8.3.5.8 1.2.5 1.3l-3.3-.5.4-2zm1.1-29.7s-2.6 8.1 1.7 12.6l1.3-1s-2.5-8.8-1.1-10.9c-2.5-.8-1.9-.7-1.9-.7z"/><path class="st12" d="M453.1 542.5s.5-.4 0-1.2-1.5-.2-1.5-.2-.3 1.1 0 1.4 1.5 0 1.5 0z"/><path class="st14" d="M452.4 572.7c-.1-.2-.2-.5-.1-.8l-2.1-.3 2.3.4c-.1.3 0 .5.1.8.3.5.8 1.2.5 1.3h-.1c.2-.3-.4-.9-.6-1.4z"/><path class="st12" d="M455.3 553h-.2c-.6 0-1.1-.5-1.1-1.1v-1.4c0-.6.5-1.1 1.1-1.1h.2c.6 0 1.1.5 1.1 1.1v1.4c.1.6-.4 1.1-1.1 1.1z"/><path class="st14" d="M454.1 553.9s-2.5-8.7-1.2-10.9h.3c-1.4 2.1 1.1 10.9 1.1 10.9l-1.3 1-.1-.1 1.2-.9z"/><circle class="st12" cx="455.2" cy="547.9" r="2.7"/><path class="st14" d="M456.2 551.8v-1.5c1.3-.7 1.9-2.3 1.2-3.6-.4-.9-1.3-1.4-2.3-1.5h.2c1.5 0 2.7 1.2 2.7 2.7 0 1-.6 1.9-1.5 2.4v1.5c0 .7-.5 1.2-1.2 1.2h-.2c.6-.1 1.1-.6 1.1-1.2z"/><path class="st13" d="M452.5 561.4s5.2.6 5.4 0c.8-2.4.8-5 0-7.4 0-1.5-1.2-2.7-2.7-2.7-1.5 0-2.7 1.2-2.7 2.7v7.4z"/><path class="st15" d="M452.5 561.4l-2.3 10.8h2.3l2.4-8s3 1.3 3.8 3.9c.5 1.3.5 2.8 0 4.1h2.5v-.1c.9-3.9-.5-8-3.4-10.7"/><path class="st14" d="M457.5 561.4c.8-2.4.8-5 0-7.4 0-1.4-1.1-2.6-2.5-2.7h.2c1.5 0 2.7 1.2 2.7 2.7.8 2.4.8 5 0 7.4-.1.2-.8.3-1.7.3.7-.1 1.3-.1 1.3-.3z"/><path class="st13" d="M457.9 553.9s7-4.9 6.3-11.1h-1.6s-3.8 8.1-6.1 8.9 1.4 2.2 1.4 2.2z"/><g class="st9"><path class="st8" d="M454.8 564.3l-2.4 7.9h-.3l2.4-8 .3.1zm2.7-2.9h.3c3 2.7 4.3 6.8 3.4 10.7v.1h-.3v-.1c.9-3.9-.4-8-3.4-10.7z"/></g><path class="st14" d="M463.9 542.9h.3c.7 6.2-6.3 11.1-6.3 11.1l-.2-.1c.8-.6 6.8-5.2 6.2-11z"/><path class="st15" d="M457.3 546.7c-.1.3-.3.7-.3 1.1-.1.8-.6 1.5-1.2 1.9-.4.2-.8.3-1.2.3-.6.1-1.3-.1-1.8-.5-.3-.3-.5-.7-.5-1.1-.3-1.2.1-2.5 1-3.4s2.3-1.2 3.5-.7c.2.1.4.2.7.2.4.1.7 0 1-.3.1.3-.1.7-.4.8h-.2c.4.2.9.2 1.3.1-.2.5-.8.8-1.4.5.5.2 1 .3 1.6.3-.1 0-.3.2-.5.3h-.5c-.5-.1-.9.1-1.1.5z"/><g class="st9"><path class="st8" d="M457.7 544.9c.2.1.4.1.6.2-.3 0-.6 0-.8-.2.3 0 .6-.3.6-.6v-.1l.1-.1c.1.3-.1.7-.4.8h-.1zm-.5-.4c-.2-.1-.4-.1-.7-.2-.3-.1-.7-.2-1-.2.4 0 .8.1 1.2.2.2.1.4.2.7.2h.1-.3zm1.3 1.6c.1 0 .4-.3.5-.3-.5 0-1.1-.1-1.6-.3.1 0 .2.1.3.1.4.2.9.3 1.4.2-.1 0-.3.2-.6.3h-.3.3zm-4.1 3.9c.4 0 .8-.1 1.2-.3.7-.4 1.1-1.1 1.2-1.9.1-.4.2-.7.3-1.1.2-.3.5-.5.8-.6h.2c-.4 0-.7.2-.8.6-.1.3-.3.7-.3 1.1-.1.8-.6 1.5-1.2 1.9-.4.2-.8.3-1.2.3h-.2z"/><path class="st8" d="M457.9 545.6c.4 0 .7-.2.9-.6l.2-.1c-.2.5-.6.8-1.1.7z"/></g><path class="st14" d="M464 542.9s.5-.4 0-1.2c-.1-.2-.4-.4-.7-.4.3 0 .6.1.8.4.5.8 0 1.2-.1 1.2-.2.1-.6.1-.9.1.3 0 .6-.1.9-.1z"/><path class="st16" d="M475.9 533.1s-2.6 8.1 1.7 12.6l1.3-1s-2.5-8.8-1.1-10.9c-2.5-.8-1.9-.7-1.9-.7z"/><path class="st17" d="M477.7 533.9s.5-.4 0-1.2-1.5-.2-1.5-.2-.3 1.1 0 1.4 1.5 0 1.5 0zm2.2 10.4h-.2c-.6 0-1.1-.5-1.1-1.1v-1.4c0-.6.5-1.1 1.1-1.1h.2c.6 0 1.1.5 1.1 1.1v1.4c.1.6-.5 1.1-1.1 1.1z"/><path class="st14" d="M478.7 545.3s-2.5-8.7-1.2-10.9h.3c-1.4 2.1 1.1 10.9 1.1 10.9l-1.3 1-.1-.1 1.2-.9z"/><circle class="st17" cx="479.8" cy="539.3" r="2.7"/><path class="st14" d="M480.7 543.1v-1.5c1.3-.7 1.9-2.3 1.2-3.6-.4-.9-1.3-1.4-2.3-1.5h.2c1.5 0 2.7 1.2 2.7 2.7 0 1-.6 1.9-1.5 2.4v1.5c0 .7-.5 1.2-1.2 1.2h-.2c.7-.1 1.2-.6 1.1-1.2z"/><path class="st16" d="M477 552.7s5.2.6 5.4 0c.6-1.9-1-4-.2-5 .5-.7.6-1.6.2-2.4 0-1.5-1.2-2.7-2.7-2.7-1.5 0-2.7 1.2-2.7 2.7v7.4z"/><path class="st14" d="M482.2 547.8c.5-.7.6-1.6.2-2.4 0-1.5-1.2-2.7-2.7-2.7h-.2c1.4.1 2.5 1.3 2.5 2.7.4.8.3 1.7-.2 2.4-.8 1 .8 3.1.2 5-.1.2-.6.3-1.3.3.9 0 1.6 0 1.7-.3.7-2-1-4-.2-5z"/><path class="st17" d="M481.3 552.6c2 3.2 2.8 7 2.2 10.7v.1h-1.6c.3-1.3.3-2.7 0-4.1-.3-1.6-1.2-3-2.5-3.9l-1.6 8h-1.5l1.5-10.8h3.5zm9.2-15.6s.6-.3.4-1.2-1.4-.6-1.4-.6-.7 1-.4 1.3 1.4.5 1.4.5z"/><path class="st16" d="M481.3 545.8s8.1-2.6 9.2-8.7l-1.5-.5s-6 6.7-8.5 6.7.8 2.5.8 2.5z"/><path class="st14" d="M490.2 537l.3.1c-1.2 6.1-9.2 8.7-9.2 8.7l-.1-.1c.8-.3 7.9-3 9-8.7z"/><g class="st9"><path class="st8" d="M479.1 555.3l-1.6 8h.3l1.5-7.8-.2-.2zm2.2-2.7h-.3c2 3.2 2.8 7 2.2 10.7v.1h.3v-.1c.6-3.8-.2-7.6-2.2-10.7z"/></g><path class="st14" d="M490.3 536.9s.6-.3.4-1.2c-.1-.3-.3-.5-.5-.6.3.1.6.3.7.6.3.9-.4 1.2-.4 1.2-.3 0-.7-.1-1-.2.3.2.5.2.8.2z"/><path class="st15" d="M477 552.4l-3.3 6.9c1.9.1 3.8.3 5.7.7 3.6.7 5.4-1 5.4-1l-2.3-6.6H477z"/><path class="st16" d="M477.9 563.3s1.7.3 1.4 1h-3.1l.2-1h1.5zm5.5 0s1.7.3 1.4 1h-3.1l.2-1h1.5z"/><path class="st4" d="M482.2 537s-4.2 5.9-2.3 8.3l-7.4-.2c0 .1 2.1-13.2 9.7-8.1z"/><path class="st14" d="M482.2 537c-.9-.6-1.8-1-2.9-1.2.7.2 1.4.6 2 1 0 0-4.2 5.9-2.3 8.3l-6.5-.2v.2l7.4.2c-1.8-2.4 2.3-8.3 2.3-8.3zm.3 15.4h-.5l2.3 6.6c-1 .8-2.2 1.2-3.4 1.2 1.4.1 2.9-.3 4-1.2l-2.4-6.6zm-4.6 10.9h-.3s1.7.3 1.4 1h.3c.3-.6-1.4-1-1.4-1zm5.5 0h-.3s1.7.3 1.4 1h.3c.4-.6-1.4-1-1.4-1z"/><path fill="none" stroke="#b3b3b3" stroke-miterlimit="10" d="M725.5 400.9l-9.6-53.8 30.5-1.5v55.3h20.9l20.9-59.4"/><path class="st7" d="M731.9 395.3h29c15.1 0 27.3 12.2 27.3 27.3v4.9c0 15.1-12.2 27.3-27.3 27.3h-29c-15.1 0-27.3-12.2-27.3-27.3v-4.9c0-15.1 12.3-27.3 27.3-27.3z"/><path d="M759.3 395.3h-24.1c-16.4 0-29.7 13.3-29.7 29.7 0 .7 0 1.3.1 2 1.1-15.6 14-27.7 29.7-27.7h24.1c15.6.1 28.6 12.1 29.7 27.7 0-.7.1-1.3.1-2-.2-16.4-13.5-29.7-29.9-29.7z" opacity=".05"/><linearGradient id="SVGID_5_" gradientUnits="userSpaceOnUse" x1="902.03" y1="327.822" x2="902.03" y2="289.033" gradientTransform="matrix(1 .00227 -.00227 1 -157.49 115.739)"><stop offset="0" stop-opacity=".12"/><stop offset=".55" stop-opacity=".09"/><stop offset="1" stop-opacity=".02"/></linearGradient><path fill="url(#SVGID_5_)" d="M765.7 413l-7.9-6.2-19.1 24.2-10.3-8-6.4 8.2 14.9 11.4 3.7 3z"/><path fill="#41d6c3" d="M765.1 412.9l-7.2-5.5-18.9 24.7-10.6-8.1-5.4 7.2 14.1 10.8 3.6 2.7z"/><linearGradient id="SVGID_6_" gradientUnits="userSpaceOnUse" x1="910.65" y1="240.77" x2="910.65" y2="-7.83" gradientTransform="translate(-158.5 117.93)"><stop offset="0" stop-color="gray" stop-opacity=".25"/><stop offset=".54" stop-color="gray" stop-opacity=".12"/><stop offset="1" stop-color="gray" stop-opacity=".1"/></linearGradient><path d="M873.2 234.4c0 68.7-57.4 124.3-118.4 124.3S631.1 303 631.1 234.4s62.6-124.3 123.7-124.3 118.4 55.6 118.4 124.3z" fill="url(#SVGID_6_)"/><path class="st5" d="M867.5 234.4c0 65.4-54.7 118.5-112.9 118.5s-117.9-53-117.9-118.5 59.7-118.5 117.9-118.5 112.9 53 112.9 118.5z"/><path class="st7" d="M736.5 357h26.2v9.1h-26.2z"/><path d="M754.6 115.5c-1.4 0-2.8 0-4.2.1C807 118 859.1 170.1 859.1 234S807 349.9 750.4 352.4c1.4.1 2.8.1 4.2.1 58.2 0 112.9-53 112.9-118.5s-54.7-118.5-112.9-118.5z"/><g class="st9"><path class="st8" d="M643.4 234.4c0-64.5 58-117 115.4-118.5h-2.5c-58.2 0-117.9 53-117.9 118.5s59.7 118.5 117.9 118.5h2.5c-57.4-1.5-115.4-54-115.4-118.5z"/></g><path class="st7" d="M713.3 336.3h75.3v24.5h-75.3z"/><path class="st14" d="M713.3 124.5s-89.4 102.2 0 219.7l29.5-.1s-81.5-97.1-3.7-227l-14.5 3.3-11.3 4.1zm77.7-1.6s89.4 103.7 0 221.3l-29.5-.1s81.5-98 3.7-227.9l14.5 2.9 11.3 3.8z"/></svg>