<svg version="1.1" id="a11d453a-83a5-491b-94b4-3bbd3d308a29" xmlns="http://www.w3.org/2000/svg" x="0" y="0" viewBox="0 0 860.3 771.9" xml:space="preserve"><style>.st0{fill:#f2f2f2}.st1{fill:#41d6c3}.st2{fill:none;stroke:#3f3d56;stroke-miterlimit:10}.st3{fill:#0062ff}.st4{fill:#3c81c6}.st5{fill:#ff6584}.st6{opacity:.1;enable-background:new}.st7{fill:#fbbebe}.st8{fill:#2f2e41}.st9{fill:#5596e6}</style><ellipse class="st0" cx="449.8" cy="728.9" rx="283" ry="43"/><path class="st1" d="M627.6 576.7c10.8 3.9 22.7-1.6 26.7-12.4 3.9-10.8-1.6-22.7-12.4-26.7-3.7-1.3-7.6-1.6-11.5-.8l.5 10.7-5.1-9.2c-5 2.3-8.8 6.6-10.7 11.7-.7 1.8-1.1 3.7-1.2 5.6-.6 9.4 4.9 17.9 13.7 21.1z"/><path class="st2" d="M652.7 701c-1.8-9.1 6-17.2 13.6-22.4s16.6-10.4 19.2-19.3c3.8-12.8-7.4-24.5-16.1-34.6-6.5-7.5-12-15.7-16.5-24.6-1.8-3.5-3.5-7.2-4-11.2-.7-5.7 1.1-11.3 3-16.7 6.1-18 12.7-35.9 19.6-53.7M628.4 574c10.8 3.9 22.7-1.6 26.7-12.4 3.9-10.8-1.6-22.7-12.4-26.7-3.7-1.3-7.6-1.6-11.5-.8l.5 10.7-5.1-9.2c-5 2.3-8.8 6.6-10.7 11.7-.7 1.8-1.1 3.7-1.2 5.6-.6 9.3 5 17.9 13.7 21.1z"/><path class="st1" d="M650.1 514.7c2.4-6.7 8.1-11.6 15-13.2l1.7 10.2L670 501c11.5.2 20.7 9.6 20.5 21.1-.2 11.5-9.6 20.7-21.1 20.5-11.5-.2-20.7-9.6-20.5-21.1 0-2.3.4-4.6 1.2-6.8z"/><path class="st2" d="M651.3 511.1c2.4-6.7 8.1-11.6 15-13.2l1.7 10.2 3.2-10.7c11.5.2 20.7 9.6 20.5 21.1-.2 11.5-9.6 20.7-21.1 20.5-11.5-.2-20.7-9.6-20.5-21.1 0-2.4.4-4.7 1.2-6.8z"/><path class="st1" d="M665.7 624.8c10.8 3.9 22.7-1.7 26.7-12.5 3.3-9.1-.1-19.3-8.2-24.6l-2.4 8.2-1.7-10.3h-.1c-10.8-3.9-22.7 1.6-26.7 12.4-4 10.9 1.6 22.8 12.4 26.8z"/><path class="st2" d="M666.7 621c10.8 3.9 22.7-1.7 26.7-12.5 3.3-9.1-.1-19.3-8.2-24.6l-2.4 8.2-1.7-10.3h-.1c-10.8-3.9-22.7 1.7-26.7 12.5s1.6 22.8 12.4 26.7z"/><path class="st1" d="M644 659.3c2 11.3 12.8 18.9 24.1 16.9s18.9-12.8 16.9-24.1-12.8-18.9-24.1-16.9c-5.1.9-9.7 3.7-12.9 7.8l9.3 14-12.7-7.4c-.9 3.1-1.1 6.5-.6 9.7z"/><path class="st2" d="M644.9 656.6c2 11.3 12.8 18.9 24.1 16.9s18.9-12.8 16.9-24.1-12.8-18.9-24.1-16.9c-5.1.9-9.7 3.7-12.9 7.8l9.3 14-12.7-7.4c-1 3.1-1.2 6.4-.6 9.7z"/><path class="st0" d="M586.8 113.8c1.6-31.1 27.3-55.4 58.4-55.4 1.8 0 3.5.1 5.3.2C672 21.6 719.6 9 756.7 30.5c11.6 6.8 21.3 16.4 28.1 28.1 1.5-.1 2.9-.2 4.4-.2 31.1 0 56.8 24.4 58.4 55.4"/><path class="st2" d="M598.9 109.3c1.6-31.1 27.3-55.4 58.4-55.4 1.8 0 3.5.1 5.3.2 21.6-37 69.1-49.6 106.2-28.1 11.6 6.8 21.3 16.4 28.1 28.1 1.5-.1 2.9-.2 4.4-.2 31.1 0 56.8 24.4 58.4 55.4"/><path class="st0" d="M161.8 391.8c1.6-31.1 27.3-55.4 58.4-55.4 1.8 0 3.5.1 5.3.2 21.6-37.1 69.1-49.7 106.2-28.1 11.6 6.8 21.3 16.4 28.1 28.1 1.5-.1 2.9-.2 4.4-.2 31.1 0 56.8 24.4 58.4 55.4"/><path class="st2" d="M173.9 387.3c1.6-31.1 27.3-55.4 58.4-55.4 1.8 0 3.5.1 5.3.2 21.6-37.1 69.1-49.7 106.2-28.1 11.6 6.8 21.3 16.4 28.1 28.1 1.5-.1 2.9-.2 4.4-.2 31.1 0 56.8 24.4 58.4 55.4"/><path class="st0" d="M37.8 98.8c1.6-31.1 27.3-55.4 58.4-55.4 1.8 0 3.5.1 5.3.2C123 6.6 170.6-6 207.7 15.5c11.6 6.8 21.3 16.4 28.1 28.1 1.5-.1 2.9-.2 4.4-.2 31.1 0 56.8 24.4 58.4 55.4"/><path class="st2" d="M49.9 94.3c1.6-31.1 27.3-55.4 58.4-55.4 1.8 0 3.5.1 5.3.2 21.6-37 69.1-49.6 106.2-28.1 11.6 6.8 21.3 16.4 28.1 28.1 1.5-.1 2.9-.2 4.4-.2 31.1 0 56.8 24.4 58.4 55.4"/><path class="st3" d="M295.1 217.5s105.1 52.2 124 44.9c18.8-7.2 25.4-71.8 25.4-71.8l-77.6-14.5-71.8 41.4z"/><path class="st4" d="M295.1 217.5s105.1 52.2 124 44.9c18.8-7.2 25.4-71.8 25.4-71.8l-77.6-14.5-71.8 41.4z"/><path class="st5" d="M444 139.5h68.9v60.2H444z"/><path class="st6" d="M444 139.5h68.9v60.2H444z"/><path class="st7" d="M381.3 395.8s-2.9 63.1 16.7 61.6 0-59.4 0-59.4l-16.7-2.2zm80.5-247.2s4.3 27.5-3.6 31.2-13 6.5-13 6.5l18.1 12.3 33.3 2.2 8.7-6.5 8-7.2s-13-2.9-13-9.4-.7-26.1-.7-26.1l-37.8-3z"/><path class="st6" d="M461.8 148.6s4.3 27.5-3.6 31.2-13 6.5-13 6.5l18.1 12.3 33.3 2.2 8.7-6.5 8-7.2s-13-2.9-13-9.4-.7-26.1-.7-26.1l-37.8-3z"/><path class="st7" d="M416.1 406.7s-21 67.4-21 116.7c0 0-34.8 78.3-33.3 116.7l-8.7 52.9 12.3 4.3 9.4-8s2.9-28.3 12.3-42 31.2-79 31.2-79 58-121.8 55.8-139.2-58-22.4-58-22.4zm128.3-15.2s13.8 6.5-5.8 122.5c0 0 10.9 76.8 1.4 118.9l-1.4 42h-15.2l-2.9-4.3s-.7-37.7-5.8-47.8-9.4-68.9-9.4-68.9-23.2-119.6-18.1-129.8 57.2-32.6 57.2-32.6z"/><path class="st8" d="M350.9 680.7s5.1 11.6 14.5 8.7 11.6-2.9 11.6-2.9-6.5 33.3-4.3 49.3-1.4 26.1-15.9 26.1-16.8-17.4-16.8-17.4l6.5-41.3 4.4-22.5zm166.7-18.1s5.1 10.1 13 8 10.9-5.8 10.9-5.8-.7 22.5 2.2 32.6 9.4 39.1-5.8 40.6c-8.6 1-16.8-3.7-20.3-11.6v-63.8z"/><circle transform="rotate(-80.008 481.386 135.556)" class="st7" cx="481.4" cy="135.6" r="31.9"/><path class="st8" d="M540.1 192.8s-25.3-9.9-34.4-8.6c-7.9 6.7-18.3 9.9-28.7 8.6-17.4-2.2-24.2-10.5-24.2-10.5s-46.8 10.5-43.9 14.9 15.9 75.4 15.9 75.4 8.7 61.6-1.4 82.6-15.2 55.8-10.9 58.7 52.9 15.9 58.7 19.6 8-8.7 11.6-6.5 11.6 5.8 16.7 2.9 54.4-29 52.9-34.1-20.3-66.7-26.8-79-1.4-38.4 2.2-43.5 10.9-10.9 12.3-25.4c1.4-14.5 0-55.1 0-55.1z"/><path class="st8" d="M410.5 194.9s-5.9 4.4-8.1 13.8-5.1 84.8-5.1 84.8-26.8 103.7-21 105.8 22.5 6.5 24.6 4.3 26.8-89.9 24.6-99.3 2.9-37 2.9-37l-17.9-72.4z"/><path class="st7" d="M544.4 329.8s-39.1-19.6-43.5-6.5 41.3 26.8 41.3 26.8 15.9-5.8 15.9-9.4-13.7-10.9-13.7-10.9z"/><path class="st8" d="M532.1 195.7l8-2.9s4.3-2.9 9.4 8c5.1 10.9 60.2 74.7 50 95s-43.5 61.6-44.9 58.7-18.1-24.6-15.2-26.8 36.2-31.9 31.9-36.2-22.5-41.3-32.6-42.8-6.6-53-6.6-53z"/><path class="st9" d="M446.2 134.5S335.7 90.1 240 47.3c0 0-50-12.3-76.1 10.9 0 0 21.7-2.9 21.7 9.4 0 0 18.8 24.6-39.9 29-40.9 3-57.2 27.5-63.3 42.1-4.8 11.7-13.2 21.6-24 28.2-14.1 8.4-34.6 14.7-58.5 3.7 0 0 1.4 2.1 3.9 5.6 46 62.2 217.5 116.3 278 68.1 37.4-29.8 96.7-67.4 139.2-48.4 66.7 29.7 79 16.7 79 16.7l2.9-8s-64.5-17.4-66-39.9 9.3-30.2 9.3-30.2zm64.5 5.8s15.6 6.2 18.5 26.5c0 0 16.7 32.6-2.2 40.6s-22.5 5.8-22.5 5.8v-3.6s20.3-12.3 15.9-21.7-9.7-47.6-9.7-47.6z"/><path class="st9" d="M482.8 232.7s5.1-13 3.6-13 5.9-8 8.7-5.1 7.9 11.6 2.1 13.8-14.4 4.3-14.4 4.3zm35.7-7.7s-13.3-4.5-13.2-3.1-8.3-5.6-5.5-8.5 11.3-8.4 13.7-2.7 5 14.3 5 14.3z"/><path class="st3" d="M497.3 205.1s6.6-3.7 10.6 2.1-4.8 16-10.6 16-5.8-12.3-5.8-12.3l5.8-5.8z"/><path class="st4" d="M497.3 205.1s6.6-3.7 10.6 2.1-4.8 16-10.6 16-5.8-12.3-5.8-12.3l5.8-5.8z"/><path class="st5" d="M453.7 83.5c-3.8 3.2-7.4 6.7-9.8 11-1.2 2.4-2.3 5-3.1 7.6-2.9 8.4-10.2 17-7.1 25.4.9 2.4 2.3 4.9 1.5 7.3-.7 2.2-2.9 3.4-4.4 5-3.4 3.5-3.9 8.8-4.1 13.6-.4 8.9 4.5 19.4 10.4 26 1.3 1.3 2.5 2.6 3.6 4 1.5 2.3 1.9 5.1 1.1 7.8l8.6-1.8c.3 3.2.4 6.4.3 9.6 4.2.5 8.2-2.1 9.5-6.1.5 2.3 1.3 4.5 2.4 6.5 2.5-3.2 4.5-6.7 5.7-10.6 1.6-4.9 2-10.2 1-15.3-.9-3.7-2.2-7.4-3.7-10.9-3-7.7-5.5-15.6-8-23.5-1.3-4.1-2.6-8.3-2.2-12.6l3.1-.3c0-1.7.4-3.4 1-4.9 1.8.4 3.5 1 5.1 1.9l3.5-8.9c2.3 2.4 5.7 3.5 8.9 4.5l12.1 3.8.1-2.4c5.1 4.5 11 8.2 17.3 10.8-.7-.9-1-2-.9-3.1 3 5.4 1.8 12-.1 17.9s-4.3 11.8-3.6 17.9c.6 4.6 2.9 8.9 2.5 13.5-.2 2.3-1.1 4.4-1.4 6.6-.7 5.4 2.2 10.5 4.9 15.1l5.3-7.3c1.9-2.7 3.9-5.4 6.7-7.2 2.8-1.9 6.3-2.7 8.7-5 4.4-4.1 3.8-11.2 2.4-17-.8-3.1-1.7-6.3-1.4-9.5.5-5.4 4.2-9.9 6.3-14.9 3.1-7.4 2.5-15.8-1.4-22.7-2.6-4.5-6.6-8.1-9.1-12.7s-3.4-10-6.8-13.9c-1.6-1.8-3.6-3.3-5.7-4.5-9.6-5.8-20.4-9.3-31.5-10.3-10.7-.9-19.6 2.9-27.7 9.6z"/></svg>