<svg version="1.1" id="Layer_1" xmlns="http://www.w3.org/2000/svg" x="0" y="0" viewBox="0 0 512 512" xml:space="preserve"><style>.st2{fill:#41d6c3}</style><path d="M136.3 256c-28.2-26.5-43.5-64-42-102.7C96.7 88.4 148 33.8 212.4 26.2c-7.7-.9-15.5-1.1-23.2-.6-67.6 4.5-122.4 60.6-124.9 127.8-1.5 38.7 13.8 76.1 42 102.7 22.8 21.9 33.6 53.4 29.2 84.7l-1.1 8.3h30l1.1-8.3c4.4-31.4-6.4-62.9-29.2-84.8zm5.5 105h30v32h-30zm30 58.1V405h-30v14.1c0 12.1 9.8 21.9 21.8 21.9h30.3c-12.1.2-22-9.5-22.2-21.5.1-.2.1-.3.1-.4zm125.2 14c-11.1-7.6-21.5-20.8-28.8-36.4-5.5-11.8-8.4-24-8.4-34.3V253.7l94-46-20-9.8-114 55.8v108.7c0 10.3 2.9 22.5 8.4 34.3 7.2 15.5 17.6 28.8 28.8 36.4l76.7 52.3 20-13.6-56.7-38.7z" opacity=".1" fill="#d4e1f4"/><path d="M98 264.7c20 19.2 29.5 46.8 25.5 74.2l-1.5 11.5c-.9 4.7 2.2 9.2 6.9 10.1.3 0 .5.1.8.1v58.5c0 18.7 15.1 33.9 33.8 33.9H231c10.1.1 19.7-4.3 26.2-12l-9.2-7.8c-4.3 5-10.5 7.9-17.1 7.8h-67.2c-12.1.2-22-9.5-22.2-21.5V405h81v-12h-81v-32h72v-12h-79.4l1.1-8.3c4.5-31.3-6.4-62.8-29.2-84.7-28.2-26.5-43.5-64-42-102.7 2.8-67.1 57.6-123.2 125.2-127.7 73.6-4.5 136.9 51.4 141.5 125 .8 13.2-.3 26.5-3.4 39.4l11.7 2.8c12-50.5-3.8-103.8-41.6-139.6-29.5-27.8-68.1-41.9-108.9-39.5-35.9 2.4-69.6 18-94.7 43.8-38.7 39.3-51.7 97.1-33.4 149.1 7.6 22.1 20.6 42 37.6 58.1z" fill="#5596e6"/><path class="st2" d="M456.4 244.7l-120.1-58.9c-1.7-.8-3.6-.8-5.3 0l-120 58.8c-2 1-3.3 3.1-3.2 5.4v112.4c0 12.2 3.2 25.8 9.5 39.4 8.1 17.4 20.1 32.5 32.9 41.2l80 54.6c2 1.4 4.7 1.4 6.7 0L417 443c23.9-16.3 42.7-51.7 42.7-80.6V250.1c.1-2.3-1.2-4.4-3.3-5.4zm-8.6 117.7c0 24.9-16.8 56.6-37.4 70.7l-76.7 52.3-76.7-52.3c-11.1-7.6-21.5-20.8-28.8-36.4-5.5-11.8-8.4-24-8.4-34.3V253.7l114-55.8 114 56v108.5z"/><path class="st2" d="M287 334.1c-2.4-2.3-6.2-2.3-8.5.1s-2.3 6.2.1 8.5l36.3 35.4c2.3 2.3 6 2.3 8.4 0l65.4-63.8c2.4-2.3 2.5-6.1.2-8.5s-6.1-2.5-8.5-.2l-61.2 59.7-32.2-31.2z"/></svg>