<svg version="1.1" id="a3538d95-de03-4652-af87-43a4974fb51a" xmlns="http://www.w3.org/2000/svg" x="0" y="0" viewBox="0 0 926.6 820.1" xml:space="preserve"><style>.st0{fill:#3f3d56}.st2{fill:#5596e6}.st3{fill:#fff}.st4{fill:#2f2e41}.st5{fill:#9f616a}.st6{fill:#d0cde1}</style><path class="st0" d="M626.8 600v-2c4 0 8-.1 12-.2l.1 2c-4.1.1-8.1.2-12.1.2zm-12.1-.2c-4-.2-8.1-.4-12.1-.7l.2-2c4 .3 8 .6 12 .7l-.1 2zm36.2-.8l-.2-2c4-.3 8-.7 11.9-1.2l.2 2c-3.9.5-7.9.9-11.9 1.2zm-60.3-1.1c-4-.5-8-1-12-1.7l.3-2c3.9.6 7.9 1.2 11.9 1.7l-.2 2zm84.3-1.8l-.3-2c3.9-.6 7.9-1.4 11.8-2.2l.4 2c-4 .9-8 1.6-11.9 2.2zM566.8 594c-3.9-.8-7.9-1.7-11.8-2.6l.5-1.9c3.9.9 7.8 1.8 11.7 2.6l-.4 1.9zm131.7-2.7l-.5-1.9c3.9-1 7.8-2 11.6-3.1l.6 1.9c-3.8 1.1-7.8 2.2-11.7 3.1zm-155.2-3c-3.9-1.1-7.7-2.3-11.5-3.6l.6-1.9c3.8 1.3 7.6 2.5 11.5 3.6l-.6 1.9zm178.4-3.7l-.6-1.9c3.8-1.3 7.6-2.6 11.3-4l.7 1.9c-3.7 1.4-7.6 2.7-11.4 4zm-201.3-4c-3.8-1.4-7.5-2.9-11.2-4.5l.8-1.8c3.7 1.6 7.4 3.1 11.2 4.5l-.8 1.8zm223.9-4.6l-.8-1.8c3.7-1.6 7.3-3.2 10.9-4.9l.9 1.8c-3.6 1.7-7.3 3.4-11 4.9zm-246.2-4.8c-3.6-1.7-7.3-3.5-10.8-5.4l.9-1.8c3.5 1.9 7.1 3.7 10.8 5.4l-.9 1.8zm268-5.5l-.9-1.8c3.5-1.9 7.1-3.8 10.5-5.8l1 1.7c-3.5 2.1-7.1 4-10.6 5.9zm-289.4-5.8c-3.5-2-7-4.1-10.3-6.3l1.1-1.7c3.4 2.1 6.8 4.2 10.3 6.2l-1.1 1.8zm310.2-6.3l-1.1-1.7c3.4-2.1 6.7-4.3 10-6.6l1.1 1.6c-3.2 2.3-6.6 4.6-10 6.7zM456.2 547c-3.3-2.3-6.6-4.7-9.8-7.1l1.2-1.6c3.2 2.4 6.5 4.8 9.7 7l-1.1 1.7zm350.6-7.1l-1.2-1.6c3.2-2.4 6.3-4.9 9.4-7.4l1.3 1.5c-3.1 2.6-6.3 5.1-9.5 7.5zm-369.9-7.5c-3.1-2.5-6.2-5.2-9.2-7.8l1.3-1.5c3 2.6 6.1 5.3 9.1 7.8l-1.2 1.5zm388.6-7.8l-1.3-1.5c3-2.6 5.9-5.4 8.8-8.1l1.4 1.4c-2.9 2.8-5.9 5.6-8.9 8.2zm-406.7-8.2c-2.9-2.8-5.8-5.6-8.5-8.5l1.4-1.4c2.8 2.9 5.6 5.7 8.5 8.5l-1.4 1.4zm424.1-8.5l-1.4-1.4c2.8-2.9 5.5-5.8 8.1-8.8l1.5 1.3c-2.7 3-5.4 6-8.2 8.9zM402.1 499c-2.7-3-5.3-6.1-7.8-9.2l1.5-1.3c2.5 3.1 5.1 6.1 7.8 9.1l-1.5 1.4zm456.8-9.2l-1.5-1.3c2.5-3.1 5-6.3 7.4-9.4l1.6 1.2c-2.4 3.2-4.9 6.4-7.5 9.5zm-472.1-9.5c-2.4-3.2-4.8-6.5-7.1-9.8l1.6-1.1c2.3 3.3 4.6 6.5 7 9.7l-1.5 1.2zm486.7-9.8l-1.6-1.1c2.3-3.3 4.5-6.7 6.6-10l1.7 1.1c-2.2 3.3-4.4 6.7-6.7 10zm-500.4-10c-2.1-3.4-4.2-6.8-6.3-10.3l1.7-1c2 3.4 4.1 6.9 6.2 10.2l-1.6 1.1zm513.3-10.4l-1.7-1c2-3.5 4-7 5.8-10.5l1.8.9c-1.9 3.5-3.9 7.1-5.9 10.6zM361 439.6c-1.9-3.5-3.7-7.2-5.4-10.8l1.8-.9c1.7 3.6 3.5 7.2 5.4 10.7l-1.8 1zm536.7-10.9l-1.8-.9c1.7-3.6 3.4-7.3 4.9-11l1.8.8c-1.5 3.7-3.2 7.4-4.9 11.1zm-547.1-10.8c-1.6-3.7-3.1-7.4-4.5-11.2l1.9-.7c1.4 3.7 2.9 7.4 4.5 11.1l-1.9.8zm556.6-11.5l-1.9-.7c1.4-3.7 2.8-7.6 4-11.3l1.9.6c-1.2 3.8-2.6 7.6-4 11.4zm-565.1-11.1c-1.3-3.8-2.5-7.7-3.6-11.5l1.9-.6c1.1 3.8 2.3 7.7 3.6 11.5l-1.9.6zm572.7-11.8l-1.9-.6c1.1-3.8 2.1-7.7 3.1-11.6l1.9.5c-.9 3.9-1.9 7.8-3.1 11.7zm-579.5-11.4c-1-3.9-1.9-7.9-2.7-11.8l2-.4c.8 3.9 1.7 7.8 2.6 11.7l-1.9.5zM920.6 360l-2-.4c.8-3.9 1.5-7.9 2.1-11.8l2 .3c-.6 4-1.3 8-2.1 11.9zm-590.1-11.6c-.6-3.9-1.2-8-1.7-12l2-.2c.5 4 1 8 1.7 11.9l-2 .3zm593.9-12.3l-2-.2c.5-4 .9-8 1.2-11.9l2 .2c-.3 3.9-.7 8-1.2 11.9zm-596.8-11.6c-.3-4-.6-8.1-.7-12.1l2-.1c.2 4 .4 8 .7 12l-2 .2zm598.8-12.4l-2-.1c.2-4 .2-8 .2-12v-.7h2v.7c0 4-.1 8.1-.2 12.1zm-597.8-11.8h-2v-.3c0-3.9.1-7.9.2-11.7l2 .1c-.1 3.9-.2 7.8-.2 11.7v.2zm595.7-13c-.2-4-.4-8-.7-12l2-.2c.3 4 .6 8.1.7 12.1l-2 .1zm-594.8-10.9l-2-.2c.3-4 .7-8 1.2-12l2 .2c-.5 4-.9 8-1.2 12zm592.9-13c-.5-3.9-1.1-7.9-1.7-11.9l2-.3c.6 4 1.2 8 1.7 12l-2 .2zm-590-10.9l-2-.3c.6-4 1.4-8 2.2-11.9l2 .4c-.9 3.9-1.6 7.9-2.2 11.8zm586.1-12.7c-.8-3.9-1.7-7.8-2.7-11.7l1.9-.5c1 3.9 1.9 7.8 2.7 11.8l-1.9.4zM337.1 229l-1.9-.5c1-3.9 2-7.8 3.1-11.7l1.9.6c-1.1 3.8-2.1 7.7-3.1 11.6zm575.6-12.5c-1.1-3.8-2.3-7.7-3.6-11.4l1.9-.6c1.3 3.8 2.5 7.7 3.6 11.5l-1.9.5zm-569-10.5l-1.9-.6c1.3-3.8 2.6-7.6 4.1-11.4l1.9.7c-1.4 3.7-2.8 7.5-4.1 11.3zm561.4-12.3c-1.4-3.7-2.9-7.5-4.5-11.1l1.8-.8c1.6 3.7 3.1 7.4 4.5 11.2l-1.8.7zm-552.8-10.2l-1.8-.8c1.6-3.7 3.2-7.4 5-11l1.8.9c-1.8 3.5-3.5 7.2-5 10.9zm543.4-11.8c-1.7-3.6-3.5-7.2-5.4-10.7l1.8-.9c1.9 3.5 3.7 7.2 5.4 10.8l-1.8.8zm-533.2-10l-1.8-.9c1.9-3.6 3.8-7.1 5.8-10.6l1.7 1c-1.8 3.5-3.8 7-5.7 10.5zm522-11.1c-2-3.4-4.1-6.9-6.2-10.2l1.7-1.1c2.1 3.4 4.3 6.8 6.3 10.3l-1.8 1zm-509.9-9.7l-1.7-1.1c2.1-3.4 4.4-6.8 6.7-10.1l1.6 1.1c-2.3 3.4-4.5 6.8-6.6 10.1zm497-10.6c-2.3-3.3-4.6-6.5-7-9.7l1.6-1.2c2.4 3.2 4.8 6.5 7.1 9.8l-1.7 1.1zm-483.4-9.1l-1.6-1.2c2.4-3.2 4.9-6.4 7.5-9.5l1.5 1.3c-2.5 3-5 6.2-7.4 9.4zm469-10c-2.5-3.1-5.1-6.1-7.8-9.1l1.5-1.3c2.7 3 5.3 6.1 7.8 9.2l-1.5 1.2zm-453.8-8.6l-1.5-1.3c2.7-3 5.4-6 8.2-8.9l1.4 1.4c-2.7 2.8-5.5 5.8-8.1 8.8zm437.8-9.3c-2.8-2.9-5.6-5.7-8.5-8.5l1.4-1.4c2.9 2.8 5.8 5.6 8.6 8.5l-1.5 1.4zm-421.2-8l-1.4-1.4c2.9-2.8 5.9-5.5 8.9-8.2l1.3 1.5c-3 2.6-5.9 5.3-8.8 8.1zm403.9-8.6c-3-2.6-6.1-5.3-9.2-7.8l1.3-1.6c3.1 2.5 6.2 5.2 9.2 7.8l-1.3 1.6zm-386-7.4l-1.3-1.5c3.1-2.5 6.3-5.1 9.5-7.5l1.2 1.6c-3.1 2.4-6.3 4.9-9.4 7.4zm367.4-7.8c-3.2-2.4-6.5-4.8-9.7-7l1.1-1.6c3.3 2.3 6.6 4.7 9.8 7.1l-1.2 1.5zm-348.2-6.6l-1.1-1.6c3.3-2.3 6.7-4.5 10.1-6.7l1.1 1.7c-3.5 2.1-6.9 4.3-10.1 6.6zm328.4-7c-3.4-2.1-6.8-4.2-10.3-6.2l1-1.7c3.5 2 7 4.1 10.4 6.3l-1.1 1.6zM477.3 42l-1-1.7c3.5-2 7-4 10.5-5.8l.9 1.8c-3.4 1.8-7 3.7-10.4 5.7zm287.4-6.1c-3.5-1.9-7.2-3.7-10.8-5.4l.9-1.8c3.6 1.7 7.3 3.5 10.8 5.4l-.9 1.8zm-266.2-5l-.9-1.8c3.6-1.7 7.3-3.4 11-5l.8 1.8c-3.7 1.6-7.3 3.3-10.9 5zM743 25.6c-3.7-1.6-7.4-3.1-11.2-4.5l.7-1.9c3.8 1.4 7.5 2.9 11.2 4.5l-.7 1.9zm-222.5-4.1l-.7-1.9c3.7-1.4 7.6-2.8 11.4-4.1l.6 1.9c-3.8 1.3-7.6 2.6-11.3 4.1zm200-4.4c-3.8-1.3-7.6-2.4-11.5-3.5l.6-1.9c3.9 1.1 7.7 2.3 11.5 3.6l-.6 1.8zm-177.3-3.3l-.6-1.9c3.8-1.1 7.8-2.2 11.7-3.1l.5 1.9c-3.9 1-7.8 2-11.6 3.1zm154.2-3.3c-3.9-.9-7.8-1.8-11.7-2.6l.4-2c3.9.8 7.9 1.7 11.8 2.6l-.5 2zM566.5 8.1l-.4-2c3.9-.8 7.9-1.5 11.9-2.2l.3 2c-3.9.6-7.9 1.4-11.8 2.2zm107.4-2.4C670 5.1 666 4.6 662 4.1l.2-2c4 .5 8 1 12 1.7l-.3 1.9zm-83.7-1.5l-.2-2c4-.5 8-.9 12-1.2l.2 2c-4 .3-8.1.7-12 1.2zm59.9-1.3c-4-.3-8-.5-12-.7l.1-2c4 .2 8.1.4 12.1.7l-.2 2zm-36-.6l-.1-2c4-.2 8.1-.3 12.1-.3v2c-4 0-8 .1-12 .3z"/><path fill="#302f42" d="M65.4 175.2h513.1v631.1H65.4z"/><path class="st2" d="M65.4 140.5h513.1v70.3H65.4z"/><path class="st0" d="M18.3 639.4h632v162.7h-632z"/><circle class="st2" cx="93.9" cy="720.5" r="44.3"/><path class="st3" d="M186.7 683.2h183.2v13H186.7zm0 31.2h403.7v13H186.7zm0 31.3h403.7v13H186.7z"/><circle class="st2" cx="137" cy="313.3" r="44.3"/><path class="st3" d="M216.9 282h151.7v13H216.9zm0 31.3h334.2v13H216.9zm0 31.2h334.2v13H216.9z"/><circle class="st2" cx="137" cy="516.7" r="44.3"/><path class="st3" d="M216.9 485.5h151.7v13H216.9zm0 31.2h334.2v13H216.9zm0 31.3h334.2v13H216.9zM78.4 154.4h66v9.5h-66zm0 16.5h66v9.5h-66zm0 16.5h66v9.5h-66z"/><path class="st0" d="M57.7 509.3h2v135.2h-2z"/><circle transform="matrix(.02172 -.9998 .9998 .02172 -451.669 556.97)" class="st0" cx="58.8" cy="509.3" r="19.1"/><path class="st0" d="M58.7 592.6S56 533.9 0 540.7"/><path class="st4" d="M675.1 381.3l-22.8 43s-165 31.6-144 80.8 44.8 121.1 57.1 119.4 79.9-40.4 82.5-51.8-60.6-65-60.6-65l104.5-20.2s14.9 70.2-4.4 118.5-30.7 179.1-17.6 180.8 46.5 12.3 61.5 2.6 21.9-221.2 21.9-221.2 31.6-138.7 12.3-154.5-90.4-32.4-90.4-32.4z"/><path class="st4" d="M711 765.5s-20.2-10.6-24.4-2.1c0 0 3.2 25.5-9.6 28.7s-18 25.5 0 27.6 29.7-4.2 36.1-4.2 0-22.3 0-22.3l-2.1-27.7zm-96.2-176.2s-22-6.1-24.3 3.1c0 0 8.5 24.2-3.3 30s-12.3 28.7 5.8 27 28.2-10.4 34.4-11.8-4.7-21.8-4.7-21.8l-7.9-26.5z"/><path class="st5" d="M723.8 229.8s.9 32.5-5.3 35.1 34.2 18.4 34.2 18.4l7-12.3s-7.9-43.9-6.1-47.4-29.8 6.2-29.8 6.2z"/><circle class="st4" cx="738.5" cy="183.4" r="53.8"/><circle class="st4" cx="742.2" cy="133" r="22.3"/><path class="st4" d="M712.5 120.9c0-11.4 8.6-21 20-22.2-.8-.1-1.5-.1-2.3-.1-12.3 0-22.3 10-22.3 22.3s10 22.3 22.3 22.3c.8 0 1.5 0 2.3-.1-11.4-1.2-20-10.8-20-22.2z"/><circle class="st5" cx="737" cy="209.6" r="36.9"/><path class="st6" d="M762.9 257.5s-31.6 9.7-47.4 0-53.6 18.4-59.7 30.7 22.8 24.6 22.8 24.6-8.3 23.7-6.6 35.6c1.8 12.3-1.3 37.3-1.3 37.3s77.6 51.1 94.8 28.1c2.6-3.5 24.6-86 24.6-86l30.7-30.7s-19.3-28.1-30.7-30.7-27.2-8.9-27.2-8.9z"/><path class="st5" d="M550.9 437.9s-59.7 30.7-47.4 39.5 62.3-34.2 62.3-34.2l-14.9-5.3zm234.4-22s-26.6-17.9-30.8-9 29.1 29.2 36.1 21.3-5.3-12.3-5.3-12.3z"/><path class="st6" d="M805.1 287.3l15.8 9.7s53.6 73.7 35.1 90.4-65.8 50-65.8 50-15.8-22.8-10.5-23.7 47.4-36 47.4-36l-36.9-68.5 14.9-21.9zm-138.8-3.5l-11.4 4.4-29.8 53.6-79 95.7s10.5 16.7 19.3 13.2 74.6-77.3 74.6-77.3l43-66.7-16.7-22.9z"/><ellipse class="st4" cx="738.5" cy="165.8" rx="37.1" ry="22.3"/></svg>