<svg version="1.1" id="fbf61bc7-949a-4ad5-bdf9-42522344582c" xmlns="http://www.w3.org/2000/svg" x="0" y="0" viewBox="0 0 1035.5 627.6" xml:space="preserve"><style>.st1{fill:#5596e6}.st2{fill:none;stroke:#3f3d56;stroke-width:2;stroke-miterlimit:10}.st3{fill:#2f2e41}.st4{fill:#9f616a}.st5{fill:#3f3d56}.st7{fill:#ffb9b9}.st9{fill:#575a89}.st10{opacity:.1;enable-background:new}</style><path d="M687 214.6L336.2 0l-53.4 87.3c30.6 19.9 39.2 60.7 19.4 91.3-19.1 29.4-57.9 38.7-88.3 21.3l-17.3 28.3h147.9v179.1l360.3 220.4 75.4-123.3H687V214.6z" fill="#f2f2f2"/><ellipse class="st1" cx="514.4" cy="470.3" rx="63.5" ry="9.8"/><path class="st1" d="M516.5 383.3l64-73.2c19.7-20.1 19.3-52.4-.8-72.1-20.1-19.7-52.4-19.3-72.1.8-20.1-19.7-52.4-19.3-72.1.8-19.7 20.1-19.3 52.4.8 72.1l71.2 71.6"/><path class="st2" d="M1 227.1h345.5v313.3H1zm688-37h345.5v313.3H689z"/><circle class="st1" cx="249.5" cy="144.3" r="43"/><path class="st2" d="M351.5 378.3s54-19 77 7 87-15 87-15"/><path class="st2" d="M790.5 385.3s-10-24-78-2-164 21-188-13l64-73.2c19.7-20.1 19.3-52.4-.8-72.1-20.1-19.7-52.4-19.3-72.1.8-20.1-19.7-52.4-19.3-72.1.8-19.7 20.1-19.3 52.4.8 72.1l71.2 71.6"/><ellipse class="st2" cx="522.5" cy="462.1" rx="63.5" ry="9.8"/><ellipse class="st1" cx="515.8" cy="531.2" rx="50" ry="7.7"/><ellipse class="st1" cx="515.8" cy="590.1" rx="33.8" ry="5.2"/><ellipse class="st2" cx="522.5" cy="524.3" rx="50" ry="7.7"/><ellipse class="st2" cx="522.5" cy="584.9" rx="33.8" ry="5.2"/><circle class="st3" cx="202.6" cy="357.5" r="33.3"/><path class="st4" d="M186.7 374.3s-10.8 24-13.9 24.8 25.5 14.7 25.5 14.7 5.4-29.4 7.7-30.9-19.3-8.6-19.3-8.6z"/><circle class="st4" cx="203" cy="369.6" r="22.4"/><path class="st3" d="M221.8 540.4h-95.4c3.2-11.6 6.6-23.1 8.5-29.5 1-3.2 1.6-5.1 1.6-5.1s71.9 15.5 73.5 16.3c.9.9 1.6 1.9 2.3 3 2.2 3.3 5.8 8.9 9.5 15.3z"/><path class="st4" d="M103.2 321.7L80 286.1s5.7-37.3-2-30.4-10.2 35.1-10.2 35.1l26.9 40.9 8.5-10zm210.4 65l20.9-1.5s24.8-26.3 26.3-17.8-20.1 27.1-20.1 27.1l-28.6 3.1 1.5-10.9z"/><path class="st5" d="M161.2 394.4v-7.7s-20.1-13.2-19.3-15.5-1.5-3.9-1.5-3.9-2.3-3.1-2.3-3.9-3.1-1.5-3.1-1.5l-19.3-22.4s-10.8-21.7-13.2-20.9-14.7 5.4-13.2 8.5 44.9 69.6 44.9 69.6 2.3 14.7 6.2 14.7 20.8-17 20.8-17zm51.8 9.3s17-.8 17.8 0 11.6 0 11.6 0 29.4-7 31.7-9.3 41-12.4 42.5-7.7 5.4 13.9 1.5 15.5S209.9 430 209.9 430l3.1-26.3z"/><circle class="st3" cx="191" cy="322.5" r="13.8"/><path class="st3" d="M172.6 315c0-7 5.3-13 12.3-13.7-.5 0-1-.1-1.4-.1-7.6 0-13.8 6.2-13.8 13.8 0 7.6 6.2 13.8 13.8 13.8.5 0 1 0 1.4-.1-7-.7-12.3-6.6-12.3-13.7z"/><ellipse class="st3" cx="206.5" cy="350.4" rx="22.9" ry="13.8"/><path class="st5" d="M180.1 386.3s-7 5.4-8.5 6.2-10.8-7-12.4-7-21.7 23.2-21.7 23.2 3.7 4.3 0 26.3c-1.4 8.2-4.2 43.5-4.2 48.2s-15.2 16-1.2 26.1c13.9 10.1 80.5 20.9 81.2 14.7.8-6.2-7.7-22.4-3.9-30.2s3.9-36.4 3.9-36.4l4.6-30.2 3.9-24s-18.2-5-19.7-5-8.4 10.9-22-11.9z"/><path transform="rotate(-2.219 869.733 322.83) scale(.99995)" fill="#0062ff" d="M861.8 312.7h15.8v20.4h-15.8z"/><path class="st7" d="M805.9 383.7s-21.9-10.5-21.6-1.4c.4 9 22.1 15 22.1 15l-.5-13.6z"/><path class="st3" d="M907.8 503.4h-104c2.2-10.2 6.3-22.5 9.5-31.3 2.6-7 4.5-11.9 4.5-11.9 11.8-13.3 29-13.7 45-10.4 1.9.4 3.8.8 5.7 1.3.2 0 .4.1.7.2 3.8 1 7.4 2.1 10.9 3.2 6 1.9 11.3 3.9 15.7 5.2 2.2.7 4.4 1.2 6.7 1.6.5.1 1 .1 1.5.1 1.7-.1 2.9 1.8 3.7 5 1.7 7.3 1.3 21.7.1 37z"/><path class="st7" d="M887.3 293.3s12.1 18.8 16.8 23.1-8.5 13.9-8.5 13.9l-23.7 3.2s.3-21.5-.9-23.7 16.3-16.5 16.3-16.5z"/><path d="M866.7 317.9s4.9 8.9 9.4 8.7S904 316.5 905 313s7.7 24.6 7.7 24.6l-57.2 100.7-14-9.7 6.8-59.2 5.6-31.9 12.8-19.6z" fill="#41d6c3"/><path class="st9" d="M907.2 408.1c-2.4 4.6-3.6 9.7-3.5 14.9v.7c.5 10.5 4.4 22.6 5.8 31.4 1 6.3.7 10.9-3 12-9 2.6 1.3 4.5-33.4 16s-40.7 1.6-40.8-.7 4.9-19.4 3.7-20.5-16.4 14.2-21 12.1-.5-13.6-.5-13.6 10.4-24.2 10.2-29.8 15.7-32.3 15.7-32.3l10.9-70.6s4.2-9.2 9.8-10.6c3.5-.7 7.2-.1 10.3 1.9l-9.4 20.7-9.9 36.6 1.7 13.5s11.5-24.2 19.1-33.6 23.7-31.5 23.7-31.5 3.8-12.7.9-16.5c-2.8-3.8 11.9-4.4 18.1 11.2 3.3 8.3 8.7 20.6 12.1 32.1 3 10.2 4.4 19.7 1.5 25.1-4.7 8.3-16.2 19.3-22 31.5z"/><path class="st10" d="M929 376.6c-4.6 8.3-16 19.2-21.9 31.4-1.5-5.5-3.4-11.2-3.4-11.2s-7.1-38.2 14-48.1c3.5-.3 7 .6 9.8 2.7 3.1 10.3 4.5 19.8 1.5 25.2z"/><path class="st9" d="M845.1 374.2l-17.9 5.2-24.9 1-2.6 21.6 40.9 2.9c.1.1 10.3-28.6 4.5-30.7z"/><path class="st7" d="M874.4 446.9s-24 4-18.5 11.2 26.7-.4 26.7-.4l-8.2-10.8z"/><path class="st10" d="M903.7 423.6c.5 10.5 4.4 22.6 5.8 31.4-7.6 7.2-14.9 13.6-17.6 13.7-5.7.2-14.7-.6-18.1.7s-5.3-20.2-5.3-20.2 2-6.9 10.9-10.6c6-2.6 17.5-9.4 24.3-15z"/><path class="st9" d="M917.5 342s19.1-3 18.1 28.7 2 52-5.7 58-32.7 33-38.3 33.2-14.7-.6-18.1.7-5.3-20.2-5.3-20.2 2-6.9 10.9-10.6 29.9-17 29.7-21.5-5.3-20.2-5.3-20.2-7.1-38.3 14-48.1z"/><circle class="st7" cx="870.4" cy="296.2" r="24.9"/><path class="st3" d="M853.7 260.5c-.6.5-1.3.9-2.1 1.1-.8.1-1.6-.4-1.7-1.2-.4 1.2-1.3 2.3-2.4 3-1.2.6-3 .1-3.1-1.2-.2 1-.6 1.9-1.3 2.7-.7.8-1.9.8-2.7.1.5 2.8.2 5.6.4 8.5s.9 5.8 3 7.7c3.1 2.7 7.8 2 11.9 1.5.6-.1 1.3-.1 1.9.1 1.5.7 1.5 2.8 1.5 4.5.3 6 4.8 11 10.8 11.8 1.6.3 3.3-.2 4.6-1.1 1.2-1 1.8-2.6 3.1-3.3 2.2-1.2 4.8.6 6.4 2.5s3.1 4.3 5.6 4.6c3.2.5 5.7-2.8 6.9-5.9 3.4-8.6 3.1-18.2-.7-26.7-6.8-15-29.9-17.3-42.1-8.7z"/></svg>