<svg version="1.1" id="f921693e-33a8-40f4-b606-3710578972cc" xmlns="http://www.w3.org/2000/svg" x="0" y="0" viewBox="0 0 859.4 767.8" xml:space="preserve"><style>.st5{opacity:.5;fill:#4d8af0}.st5,.st6,.st7{enable-background:new}.st6{opacity:.5;fill:#f55f44}.st7{fill:#47e6b1}.st7,.st8{opacity:.5}.st9{fill:#47e6b1}.st11{fill:#ffb9b9}.st12{fill:#5596e6}.st13{fill:#575a89}.st14{opacity:.1;enable-background:new}</style><path d="M431.9 91.6L219.8 222.1s0 269.2 212.1 416C644 491.3 644 222.1 644 222.1L431.9 91.6z" fill="#3f3d56"/><path d="M433.1 91.6l-3.6 2.2v541.8c1.2.9 2.4 1.7 3.6 2.5 212.1-146.8 212.1-416 212.1-416L433.1 91.6z" opacity=".04" fill="#0062ff"/><g opacity=".7"><linearGradient id="SVGID_1_" gradientUnits="userSpaceOnUse" x1="363.849" y1="394.36" x2="490.051" y2="394.36" gradientTransform="matrix(1 0 0 -1 0 768)"><stop offset="0" stop-color="gray" stop-opacity=".25"/><stop offset=".535" stop-color="gray" stop-opacity=".12"/><stop offset="1" stop-color="gray" stop-opacity=".1"/></linearGradient><path fill="url(#SVGID_1_)" d="M380.5 356.1l40 36.6 49.6-71.5 20 16.7-69.6 88.2-56.7-63.4z"/></g><path fill="#41d6c3" d="M389.9 358.3l32.5 29.7 45.9-67.6 16.2 13.6-62.1 81-46-51.3z"/><path class="st5" d="M165.3 48c-1.7-.7-2.6-2.7-2-4.4 0-.1.1-.3.1-.4.1-1-.7-1.9-1.7-2-.6 0-1.2.2-1.6.7-.1.1-.2.2-.2.4-.7 1.7-2.7 2.6-4.4 2-.1 0-.3-.1-.4-.1-1-.1-1.9.7-2 1.7 0 .6.2 1.2.7 1.6.1.1.2.2.4.2 1.7.7 2.6 2.7 2 4.4 0 .1-.1.3-.1.4-.1 1 .7 1.9 1.7 2 .6 0 1.2-.2 1.6-.7.1-.1.2-.2.2-.4.7-1.7 2.7-2.6 4.4-2 .1 0 .3.1.4.1 1 .1 1.9-.7 2-1.7 0-.6-.2-1.2-.7-1.6-.2-.1-.3-.2-.4-.2zm-146 325c-1.7-.7-2.6-2.7-2-4.4 0-.1.1-.3.1-.4.1-1-.7-1.9-1.7-2-.6 0-1.2.2-1.6.7-.1.1-.2.2-.2.4-.7 1.7-2.7 2.6-4.4 2-.1 0-.3-.1-.4-.1-1-.1-1.9.7-2 1.7 0 .6.2 1.2.7 1.6.1.1.2.2.4.2 1.7.7 2.6 2.7 2 4.4 0 .1-.1.3-.1.4-.1 1 .7 1.9 1.7 2 .6 0 1.2-.2 1.6-.7.1-.1.2-.2.2-.4.7-1.7 2.7-2.6 4.4-2 .1 0 .3.1.4.1 1 .1 1.9-.7 2-1.7 0-.6-.2-1.2-.7-1.6-.2-.1-.3-.2-.4-.2z"/><circle class="st6" cx="748.4" cy="254" r="6"/><circle class="st6" cx="121.4" cy="683" r="6"/><circle class="st6" cx="850.4" cy="485" r="6"/><path class="st5" d="M646.5 143.7c-1.3-.6-2-2.1-1.6-3.5 0-.1.1-.2.1-.3 0-.8-.6-1.5-1.4-1.5-.5 0-1 .2-1.2.6-.1.1-.1.2-.2.3-.6 1.3-2.1 2-3.5 1.6-.1 0-.2-.1-.3-.1-.8 0-1.5.6-1.5 1.4 0 .5.2 1 .6 1.2.1.1.2.1.3.2 1.3.6 2 2.1 1.6 3.5 0 .1-.1.2-.1.3 0 .8.6 1.5 1.4 1.5.5 0 1-.2 1.2-.6.1-.1.1-.2.2-.3.6-1.3 2.1-2 3.5-1.6.1 0 .2.1.3.1.8 0 1.5-.6 1.5-1.4 0-.5-.2-1-.6-1.2-.1-.1-.2-.2-.3-.2zM804.3 705c-1.7-.7-2.6-2.7-2-4.4 0-.1.1-.3.1-.4.1-1-.7-1.9-1.7-2-.6 0-1.2.2-1.6.7-.1.1-.2.2-.2.4-.7 1.7-2.7 2.6-4.4 2-.1 0-.3-.1-.4-.1-1-.1-1.9.7-2 1.7 0 .6.2 1.2.7 1.6.1.1.2.2.4.2 1.7.7 2.6 2.7 2 4.4 0 .1-.1.3-.1.4-.1 1 .7 1.9 1.7 2 .6 0 1.2-.2 1.6-.7.1-.1.2-.2.2-.4.7-1.7 2.7-2.6 4.4-2 .1 0 .3.1.4.1 1 .1 1.9-.7 2-1.7 0-.6-.2-1.2-.7-1.6-.2-.1-.3-.2-.4-.2zm-792-522c-1.7-.7-2.6-2.7-2-4.4 0-.1.1-.3.1-.4.1-1-.7-1.9-1.7-2-.6 0-1.2.2-1.6.7-.1.1-.2.2-.2.4-.7 1.7-2.7 2.6-4.4 2-.1 0-.3-.1-.4-.1-1-.1-1.9.7-2 1.7 0 .6.2 1.2.7 1.6.1.1.2.2.4.2 1.7.7 2.6 2.7 2 4.4 0 .1-.1.3-.1.4-.1 1 .7 1.9 1.7 2 .6 0 1.2-.2 1.6-.7.1-.1.2-.2.2-.4.7-1.7 2.7-2.6 4.4-2 .1 0 .3.1.4.1 1 .1 1.9-.7 2-1.7 0-.6-.2-1.2-.7-1.6-.2-.1-.3-.2-.4-.2z"/><circle class="st7" cx="79.4" cy="284" r="6"/><circle class="st7" cx="853.4" cy="332" r="6"/><g class="st8"><path class="st9" d="M583.4 0h3v17h-3z"/><path class="st9" d="M576.4 7h17v3h-17z"/></g><g class="st8"><path class="st9" d="M594.4 666h3v17h-3z"/><path class="st9" d="M587.4 673h17v3h-17z"/></g><g class="st8"><path class="st9" d="M26.4 702h3v17h-3z"/><path class="st9" d="M19.4 709h17v3h-17z"/></g><g class="st8"><path class="st9" d="M709.4 396h3v17h-3z"/><path class="st9" d="M702.4 403h17v3h-17z"/></g><path class="st7" d="M795.6 123l6.4 5.9 9.2-13.4 3.2 2.7-12.4 16.1-9.1-10.2z"/><path transform="rotate(-2.219 565.301 282.852) scale(.99995)" fill="#0062ff" d="M556.6 271.6h17.5v22.5h-17.5z"/><path class="st11" d="M494.8 350s-24.2-11.6-23.8-1.6c.4 10 24.4 16.6 24.4 16.6l-.6-15z"/><path class="st12" d="M508.1 434.5s-11.4 28-15.6 48.1-10.6 47.9-2.4 67.6 31.8 77.5 32 83.8c.2 6.2-2 12.6 3 12.4 5-.2 32.2-8.7 33.3-12.5 1.1-3.8-9.3-13.4-9.3-13.4l-25.6-80.3 26.7-52.3 19.3 78 3.8 97.4s18.5-5.7 21.2-.8c0 0 8.3-11.6 9.4-16.6 1.1-5-3.9-101.1-3.9-101.1s17-109.4 3.3-108.9c-13.9.5-67.7-32.5-95.2-1.4z"/><path class="st13" d="M524.8 641.4s-12.7 28-13.9 29.3c-1.2 1.3-9.5 14.1-3.2 13.9 6.2-.2 21-7.1 31.8-17.5s25.2-28.5 23.9-29.7c-1.3-1.2-10.2-4.6-10.2-4.6l-28.4 8.6zm50.7 15.6s-.8 12.5-3.1 17.6-2 12.6 4.2 12.3c6.2-.2 22.4-3.4 22.4-3.4s1-7.5-.3-8.7c-1.3-1.2-6.8-14.7-4.5-18.6 2.3-3.8-18.7.8-18.7.8z"/><path class="st11" d="M584.7 250.2s13.3 20.7 18.5 25.5-9.4 15.4-9.4 15.4l-26.1 3.5s.3-23.8-1-26.2c-1.4-2.4 18-18.2 18-18.2z"/><path class="st12" d="M562 277.4s5.4 9.8 10.4 9.6c5-.2 30.8-11.2 31.9-15 1.1-3.8 8.6 27.2 8.6 27.2l-63.2 111.2-15.4-10.7 7.5-65.3 6.1-35.2 14.1-21.8z"/><path class="st13" d="M606.6 376.9c-2.5 5.3-4.1 10.8-3.9 16.4v.7c.6 11.6 4.9 24.9 6.4 34.6 1.1 7 .8 12.1-3.3 13.3-9.9 2.9 1.4 4.9-36.8 17.7-38.3 12.7-44.9 1.7-45-.8-.1-2.5 5.4-21.5 4.1-22.7S510 452 504.9 449.6c-5.1-2.3-.6-15-.6-15s11.5-26.7 11.2-32.9c-.2-6.2 17.4-35.7 17.4-35.7l12-78s4.6-10.2 10.8-11.7c6.2-1.5 11.3 2.1 11.3 2.1l-10.4 22.9-10.9 40.4 1.8 14.9s12.7-26.8 21.1-37.1 26.2-34.8 26.2-34.8 4.2-14 1-18.2c-3.1-4.2 13.1-4.8 20 12.4 3.7 9.1 9.6 22.8 13.4 35.4 3.3 11.2 4.9 21.7 1.6 27.7-5.1 9.4-17.7 21.5-24.2 34.9z"/><path class="st14" d="M630.8 342.2c-5 9.2-17.7 21.2-24.1 34.7-1.7-6.1-3.7-12.4-3.7-12.4s-7.9-42.2 15.4-53.1c3.9-.4 7.7.7 10.8 3 3.3 11.3 4.9 21.8 1.6 27.8z"/><path class="st13" d="M538.1 339.6l-19.8 5.8-27.5 1.1-2.8 23.9 45.1 3.3c.1-.2 11.4-31.9 5-34.1z"/><path class="st11" d="M570.4 419.8s-26.5 4.4-20.4 12.4c6 8 29.5-.4 29.5-.4l-9.1-12z"/><path class="st14" d="M602.8 394.1c.6 11.6 4.9 24.9 6.4 34.6-8.4 8-16.4 15-19.5 15.1-6.2.2-16.3-.6-20 .8-3.7 1.4-5.9-22.3-5.9-22.3s2.2-7.6 12-11.7c6.7-2.8 19.5-10.3 27-16.5z"/><path class="st13" d="M618 304s21.1-3.3 20 31.7c-1.1 35.1 2.2 57.4-6.3 64s-36.1 36.4-42.3 36.7c-6.2.2-16.3-.6-20 .8-3.7 1.4-5.9-22.3-5.9-22.3s2.2-7.6 12-11.7 33-18.8 32.8-23.8c-.2-5-5.9-22.3-5.9-22.3s-7.7-42.2 15.6-53.1z"/><circle class="st11" cx="566.1" cy="253.5" r="27.5"/><path d="M547.5 214.1c-.7.6-1.5 1-2.3 1.2-.9.2-1.7-.4-1.9-1.3-.6 1.3-1.3 2.7-2.6 3.4s-3.3.1-3.5-1.3c-.2 1.1-.7 2.1-1.4 2.9-.8.8-2.2 1-2.9.1.6 3.1.2 6.2.4 9.4s1 6.4 3.4 8.5c3.4 3 8.6 2.3 13.1 1.7.7-.1 1.4-.1 2.1.1 1.7.7 1.6 3.1 1.6 4.9.3 6.7 5.3 12.2 12 13 1.8.3 3.6-.2 5.1-1.2 1.3-1.1 1.9-2.9 3.4-3.7 2.4-1.3 5.3.6 7 2.7 1.7 2.1 3.5 4.7 6.2 5.1 3.6.5 6.3-3.1 7.7-6.5 3.7-9.5 3.5-20.1-.8-29.5-7.5-16.5-33.1-19.1-46.6-9.5z" fill="#2f2e41"/></svg>