<svg version="1.1" id="ac370e99-250f-4203-ae2c-c306a69114f3" xmlns="http://www.w3.org/2000/svg" x="0" y="0" viewBox="0 0 1144 698" xml:space="preserve"><style>.st0{opacity:4.000000e-02;fill:#e6e6e6}.st2{fill:#3f3d56}.st3{fill:#41d6c3}.st5{opacity:.1;enable-background:new}.st6{fill:#5596e6}.st7{fill:#fff}.st13{fill:#fbbebe}.st16{fill:#434175}</style><path class="st0" d="M1144 415.3c.1 33.1-9 65.6-26.1 93.9 0 34.6-16.1 66-42.3 88.9-6.6 5.7-13.6 10.8-21.1 15.3-.3.2-.6.4-.9.5-.6.3-1.1.7-1.7 1l-.5.3c-24.8 13.8-52.7 21-81.1 20.8H217.2c-6 0-11.9-.2-17.8-.7-20.9-1.6-41.5-6.4-61.1-14.1-3.8-1.5-7.6-3.1-11.2-4.9-1.7-.8-3.5-1.7-5.2-2.5-1.1-.5-2.1-1.1-3.2-1.7-12.3-6.5-23.9-14.3-34.5-23.4-34-29.2-55.1-69.6-55.1-114.2C10 445.1-.1 410.8 0 375.8c0-99.1 79.2-179.5 177-179.5 3 0 6 .1 9 .3.4 0 .9 0 1.3.1 16.5-28.1 38.5-53.9 65-76.6 72.2-62 177.8-101 295.4-101 98.8 0 189.2 27.6 258.3 73.1 26.2-14.8 55.8-22.6 86-22.5 97.7 0 177 80.4 177 179.5 0 6.3-.3 12.5-1 18.8 47.8 33.7 76.2 88.7 76 147.3z"/><g opacity=".2"><path class="st2" d="M138.4 619.8c0 .5-.1.9-.1 1.3-3.8-1.5-7.6-3.1-11.2-4.9-2-.3-3.8-1.1-5.2-2.5-1.1-.5-2.1-1.1-3.2-1.7.2-.5.5-1 .8-1.5 2.1-3.3 5.2-5.3 8.6-5.2s6.4 2.3 8.3 5.7c1.4 2.8 2.1 5.8 2 8.8z"/><path class="st2" d="M138.9 602.7c-.1 3-.9 5.9-2.5 8.5-2.1 3.3-5.2 5.3-8.6 5.2h-.7c-2-.3-3.8-1.1-5.2-2.5-1-.9-1.8-2-2.4-3.1-2.8-5.4-2.6-11.9.5-17.1 2.1-3.3 5.2-5.3 8.6-5.2s6.4 2.3 8.3 5.7c1.5 2.5 2.1 5.5 2 8.5z"/><ellipse transform="rotate(-88.19 128.717 585.2)" class="st2" cx="128.7" cy="585.2" rx="14" ry="10.7"/><ellipse transform="rotate(-88.19 129.272 568.116)" class="st2" cx="129.3" cy="568.1" rx="14" ry="10.7"/><ellipse transform="rotate(-88.282 129.952 549.898) scale(1.00005)" class="st2" cx="130" cy="549.9" rx="14" ry="10.7"/><path class="st3" d="M93.5 432.5c-1.4-1.9-2.7-3.9-3.8-6l28.3-3.7-30.4-.7c-5.5-13-5.4-27.7.3-40.6L128 404l-36.8-28.9c14.9-24.1 46.5-31.5 70.6-16.6s31.5 46.5 16.6 70.6c-1.3 2.1-2.8 4.2-4.4 6.1 2.2 3 4 6.2 5.6 9.5l-37.1 17.8 39.3-11.8c5 16.6 1.3 34.6-9.8 47.9 16.8 22.8 11.9 54.9-10.9 71.7s-54.9 11.9-71.7-10.9c-14-19.1-13.2-45.3 2-63.4-14-19.1-13.2-45.3 2.1-63.5z"/><path class="st3" d="M184 467.1c-.4 11.5-4.6 22.5-12 31.3 16.8 22.8 11.9 54.9-10.9 71.7s-54.9 11.9-71.7-10.9c-14-19.1-13.2-45.3 2-63.4-6.5-8.8 92.8-34.4 92.6-28.7z"/></g><path d="M958 138.4v479.2c0 10.2-8.2 18.4-18.4 18.4H204.4c-1.7 0-3.4-.2-5.1-.7-7.9-2.3-13.3-9.5-13.3-17.7v-421c.4 0 .9 0 1.3.1 16.5-28.1 38.5-53.9 65-76.6h687.3c10.2-.1 18.4 8.1 18.4 18.3z" fill="#302f42"/><path class="st2" d="M730.1 182.2H832c9.9 0 18 8 18 18 0 9.9-8 18-18 18H730.1c-9.9 0-18-8-18-18 .1-9.9 8.1-18 18-18z"/><path class="st5" d="M733.1 188.2H829c6.6 0 12 5.4 12 12s-5.4 12-12 12h-95.9c-6.6 0-12-5.4-12-12 .1-6.6 5.4-12 12-12z"/><path class="st6" d="M805.4 189.6h22c5.9 0 10.7 4.8 10.7 10.6 0 5.9-4.8 10.6-10.7 10.6h-22c-5.9 0-10.7-4.8-10.7-10.6 0-5.9 4.8-10.6 10.7-10.6z"/><circle class="st7" cx="816" cy="200.2" r="6.7"/><path class="st2" d="M730.1 419.3H832c9.9 0 18 8 18 18 0 9.9-8 18-18 18H730.1c-9.9 0-18-8-18-18 .1-10 8.1-18 18-18z"/><path class="st5" d="M733.1 425.3H829c6.6 0 12 5.4 12 12s-5.4 12-12 12h-95.9c-6.6 0-12-5.4-12-12 .1-6.7 5.4-12 12-12z"/><path d="M805.4 426.6h22c5.9 0 10.7 4.8 10.7 10.6 0 5.9-4.8 10.6-10.7 10.6h-22c-5.9 0-10.7-4.8-10.7-10.6s4.8-10.6 10.7-10.6z" fill="#6c63ff"/><circle class="st7" cx="816" cy="437.3" r="6.7"/><path class="st2" d="M730.1 537.8H832c9.9 0 18 8 18 18 0 9.9-8 18-18 18H730.1c-9.9 0-18-8-18-18 .1-10 8.1-18 18-18z"/><path class="st5" d="M733.1 543.8H829c6.6 0 12 5.4 12 12s-5.4 12-12 12h-95.9c-6.6 0-12-5.4-12-12 .1-6.6 5.4-12 12-12z"/><path class="st6" d="M805.4 545.1h22c5.9 0 10.7 4.8 10.7 10.7 0 5.9-4.8 10.7-10.7 10.7h-22c-5.9 0-10.7-4.8-10.7-10.7 0-5.9 4.8-10.7 10.7-10.7z"/><circle class="st7" cx="816" cy="555.8" r="6.7"/><path class="st6" d="M304.6 159.6h59.3c5.9 0 10.6 4.8 10.6 10.6 0 5.9-4.8 10.6-10.6 10.6h-59.3c-5.9 0-10.6-4.8-10.6-10.6s4.8-10.6 10.6-10.6zm0 30H507c5.9 0 10.6 4.8 10.6 10.6 0 5.9-4.8 10.6-10.6 10.6H304.6c-5.9 0-10.6-4.8-10.6-10.6 0-5.9 4.8-10.6 10.6-10.6zm0 29.9H507c5.9 0 10.6 4.8 10.6 10.6 0 5.9-4.8 10.6-10.6 10.6H304.6c-5.9 0-10.6-4.8-10.6-10.6s4.8-10.6 10.6-10.6z"/><path d="M304.6 278.1h59.3c5.9 0 10.6 4.8 10.6 10.6 0 5.9-4.8 10.6-10.6 10.6h-59.3c-5.9 0-10.6-4.8-10.6-10.6s4.8-10.6 10.6-10.6zm0 30h145.7c5.9 0 10.6 4.8 10.6 10.6 0 5.9-4.8 10.6-10.6 10.6H304.6c-5.9 0-10.6-4.8-10.6-10.6 0-5.9 4.8-10.6 10.6-10.6zm0 29.9H507c5.9 0 10.6 4.8 10.6 10.6 0 5.9-4.8 10.6-10.6 10.6H304.6c-5.9 0-10.6-4.8-10.6-10.6s4.8-10.6 10.6-10.6z" fill="#c2e6ff"/><path class="st6" d="M304.6 396.6h59.3c5.9 0 10.6 4.8 10.6 10.6 0 5.9-4.8 10.6-10.6 10.6h-59.3c-5.9 0-10.6-4.8-10.6-10.6s4.8-10.6 10.6-10.6zm0 30H507c5.9 0 10.6 4.8 10.6 10.6 0 5.9-4.8 10.6-10.6 10.6H304.6c-5.9 0-10.6-4.8-10.6-10.6s4.8-10.6 10.6-10.6zm0 30h117.7c5.9 0 10.6 4.8 10.6 10.6 0 5.9-4.8 10.6-10.6 10.6H304.6c-5.9 0-10.6-4.8-10.6-10.6 0-5.9 4.8-10.6 10.6-10.6zm0 58.6h59.3c5.9 0 10.6 4.8 10.6 10.7 0 5.9-4.8 10.7-10.6 10.7h-59.3c-5.9 0-10.6-4.8-10.6-10.7 0-6 4.8-10.7 10.6-10.7zm0 29.9H507c5.9 0 10.6 4.8 10.6 10.7 0 5.9-4.8 10.7-10.6 10.7H304.6c-5.9 0-10.6-4.8-10.6-10.7 0-5.9 4.8-10.7 10.6-10.7zm0 30h158.7c5.9 0 10.6 4.8 10.6 10.7 0 5.9-4.8 10.7-10.6 10.7H304.6c-5.9 0-10.6-4.8-10.6-10.7 0-5.9 4.8-10.7 10.6-10.7z"/><path d="M260 260h652M260 380.5h652M260 501h652M260 624.5h652" opacity=".7" fill="none" stroke="#3f3d56" stroke-linecap="round" stroke-miterlimit="10"/><ellipse cx="795" cy="687.5" rx="147.7" ry="10.5" opacity=".1" fill="#6c63ff"/><circle class="st0" cx="70.5" cy="141.2" r="21.6"/><circle class="st0" cx="160.7" cy="21.6" r="21.6"/><circle class="st0" cx="153.3" cy="103.8" r="36.3"/><path class="st2" d="M730.1 300.8H832c9.9 0 18 8 18 18 0 9.9-8 18-18 18H730.1c-9.9 0-18-8-18-18 .1-10 8.1-18 18-18z"/><path class="st5" d="M733.1 306.8H829c6.6 0 12 5.4 12 12s-5.4 12-12 12h-95.9c-6.6 0-12-5.4-12-12 .1-6.7 5.4-12 12-12z"/><linearGradient id="SVGID_1_" gradientUnits="userSpaceOnUse" x1="3899.527" y1="597.1" x2="3899.527" y2="201.55" gradientTransform="matrix(-1 0 0 1 4696 97)"><stop offset="0" stop-color="gray" stop-opacity=".25"/><stop offset=".54" stop-color="gray" stop-opacity=".12"/><stop offset="1" stop-color="gray" stop-opacity=".1"/></linearGradient><path d="M725.2 661c1.6-.2 3.1-.5 4.7-.9-.2 1.5-.6 3-1.3 4.4-1.5 2.9-4.5 4.7-7.3 6.4-.8-.7-2-.8-2.8-.2-3.3 2-6 4.8-9.5 6.5-1.2.6-2.5 1.1-3.7 1.8-2.9 1.8-5.3 4.3-7 7.2-1 1.5-1.8 3.6-.8 5.1.4.5.9 1 1.4 1.3 1.4 1 3.1 1.5 4.9 1.5 1-.1 2-.5 3.1-.6 1.4-.2 2.8-.1 4.2-.2 2-.3 4-.8 5.8-1.5l6.9-2.4c1.9-.6 3.8-1.4 5.7-2.3 1.1-.6 2.1-1.3 3.2-1.8 1.2-.6 2.5-1 3.9-1.4l3.9-1.1c.6-.2 1.2-.3 1.8-.2.5.1 1 .4 1.5.6.8.1 1.7.1 2.5-.2l4.5-1.3c1-.2 1.9-.6 2.7-1.1 2.1-1.5 2.4-4.4 2.4-6.9 0-3.9-.4-7.7-1.3-11.5-.6.2-1.1.6-1.5 1.1-.5-.7-1-1.3-1.5-1.9-2.1-2.4-3.6-5.3-4.5-8.3 1.6-1.2 3-2.8 4-4.5-2.4-9.1-4.8-18.4-9.7-26.4-1.6-2.6-3.4-5.1-5-7.7-4.7-7.5-5.7-17-11.1-24-1.1-1.5-1.1-3.4 0-4.9.6-.8 1.6-1.6 1.4-2.6-.1-.7-.9-1.4-.6-2.1.1-.3.5-.5.7-.8.9-.9.8-2.3.9-3.6.2-3.2 2.1-6 3.9-8.6.4-.6.9-1.1 1.4-1.6.5-.3 1.1-.4 1.6-.7 1.7-1.1 1.6-3.6 2.4-5.5 1.1-2.5 3.8-3.7 5.6-5.7 2.3-2.6 2.8-6.1 5.2-8.3.2-.2.5-.4.8-.6-1 3.8-1.5 7.7-1.4 11.7-.2 13.5 3.1 27.5 1.6 41-1.2 10.7 5.3 21.3 14.5 26.6 3.6 1.9 7.4 3.5 11.3 4.8 5.8 2.1 11.5 4.2 17.2 6.6 4 1.7 7.9 3.5 11.8 5.4 4.8 2.3 9.5 5 14 7.8 5.6 3.6 11.1 7.2 15.1 12.5 2.4-.1 4.7-1 6.7-2.5 1.5 1.2 3.4 2.1 4.8 3.4 2 2.1 3.3 4.7 3.8 7.5h-.6c.1 1.3.1 2.7.2 4 .1.3 0 .7-.2 1-.1.2-.3.4-.5.5l-3.1 2.1c-2.2 1.5-4.7 3.4-4.8 6.1-.1.8.2 1.6.7 2.2.8.7 1.7 1.1 2.7 1.2 5.4 1.1 10.8 2.2 16.3 1.5 2.6-.3 5.3-1.2 6.9-3.2 1.5-1.8 2-4.3 2.4-6.6.7-4 1.2-8.1 1.7-12.2.1-2.8.7-5.5 1.7-8.1.1-.2.2-.4.4-.5s.5 0 .7-.1.4-.5.5-.8c1-3.9 1.5-8 1.4-12.1 0-1.1-.1-2.1-.5-3.1-.9-1.7-2.4-2.9-4.3-3.3-1.8-.4-3.7-.6-5.5-.7-1.6-.1-3.1-.4-4.6-.8-.6-.2-1.3-.3-1.9-.3-.7.1-1.2.7-1.2 1.3 0 .2.1.5.2.7l-1.6-.3c-1.3-.2-3-.8-4.9-1.2 0-.3 0-.7.1-1 0-.7-.4-1.4-1.1-1.7l-26.4-14.1-4.9-2.6c-10.8-5.8-22-11.1-32.8-16.9-.7.2-1.3-.6-1.5-1.3s-.4-1.6-1-2c-.3-.2-.8-.2-1-.4-.2-.3-.2-.6-.2-.9.3-5.3 4.1-10.1 3.4-15.3-.3-2.2-1.5-4.4-1-6.6.3-1.5 1.4-2.7 2-4.2 1.3-3.2 0-7.1 1.4-10.2.9-2.1 1.6-4.3 1.9-6.5.7-4.5 2-8.9 4-12.9 1-2.1 2.2-4 3.7-5.7.8-.9 1.7-1.6 2.4-2.5 2.3-2.8 3.2-6.4 3.8-10 1.2-6.4 2-13.1.5-19.4-.5-2.2-1.3-4.3-1.2-6.5 0-2.7 1.1-5.7-.2-7.8 1.3-1.1 2.2-2.6 2.5-4.3 0-.6.1-1.2.3-1.8.4-.6 1-1.1 1.7-1.5 2.1-1.6 3.1-4.3 2.6-6.9 1.4.6 2.8-.8 3.5-2.1s1.1-3 2.5-3.6c.9-.4 2-.2 3-.4 1.6-.4 2.6-2 3.7-3.2 2.3-2.5 5.5-3.7 8.5-5.2 8.9-4.5 16.1-11.6 23.2-18.7 3.7-3.4 7-7.2 10-11.3.8-1.2 1.5-2.4 2.2-3.6l.2-.1.1.2c.1.4.2.9.4 1.3.3 1 .7 2.1 1 3.1 1.1 3 2.3 6.2 4.5 8.5.7.7 1.4 1.3 2.3 1.8 1.8 1 3.8 1.6 5.9 1.8.8.1 1.6.2 2.4.2s1.6.1 2.4.1l16.2.4c-5.6-8.1-6-18.5-5.6-28.3.9-25.2 5.8-50.6 1.3-75.4-.5-3-1.3-6-3.1-8.4-2.4-3.1-6.3-4.7-10.2-5.6s-7.8-1.3-11.4-2.9c-3-1.4-5.8-3.6-9-4.3-2.4-.4-4.8-.4-7.2.1-2.9.4-5.8.9-8.7 1.5l-.7.1-.5.1h-.1l-.4.1h-.2l-.4.1h-.2l-.4.1-.2.1-.3.1-.2.1-.3.1-.2.1-.3.1-.2.1-.3.1-.2.1-.3.1h-.8l-.2.1-.2.2-.2.2-.2.2-.2.2c-.1.1-.2.1-.2.2l-.2.2c-.1.1-.2.2-.2.3 0 0-.1.1-.1.2s-.2.3-.3.4v.1c-.2.4-.4.8-.5 1.2-.1.2-.1.4-.2.6-.1.4-.2.9-.2 1.3v2c0 .8.1 1.5.3 2.2-11.6 6.8-15.4 21.8-8.6 33.4 1.9 3.1 4.4 5.8 7.4 7.9 0 .4.1.8.1 1.2v.3c-.1 1.4-.2 2.8-.4 4.2-4-.8-8-1.1-12-1.1-2.4 0-4.8.2-7.2.4-2.6-3.1-5-6.4-7.2-9.8l-5.3-7.8c-1.8-2.6-3.5-5.2-5-8-1.3-2.5-2.3-5.2-3.8-7.7-3-5.1-7.9-9.4-8.5-15.3l-1.4.3c-.8-1.3-1.7-2.6-2.1-3.3-1.9-4.2-3.4-8.5-4.4-13-.5-2.3-.9-4.7-2.1-6.7-.9-1.2-1.9-2.4-3.1-3.3-1.9-1.8-4.2-3.2-6.7-4.2-2.2-.8-4.7-.7-6.8.4-.3-.2-.7-.3-1-.4-2.5-1-5.3-.6-7.6.9-2.1 1.6-3 4.4-3.3 7-.6 3.6.1 7.4 1.8 10.6 2 3.6 5.6 6 8.5 8.8 2.1 2 3.9 4.2 5.4 6.7.5 5.4.3 10.8-.4 16.2-.4 2.3-1 4.6-1.2 6.9-.7 8.4 3.6 16.8 2.1 25-.5 2.5.6 5.1 2.8 6.5 2.2 1.2 4.9 1.4 7.3 2 4.8 1.2 9 4.3 13.9 5.5 2.3.5 4.6.6 6.8 1.2l.3.1c-1.7 2-3 4.3-3.6 6.8-1 4.2-.1 8.7-1.1 12.9-.8 3.5-2.9 6.5-4.9 9.4-3.9 5.7-7.8 11.3-11.7 17-2.6 4-5.5 7.8-8.7 11.4-5.4 5.9-14.7 10.6-17.4 17.6-.1-.2-.1-.3-.2-.5-3.9 2.8-5.3 8.2-8.4 11.8-1.5 1.8-3.4 3.2-5 4.9-2 2.1-3.9 4.4-5.5 6.9-4.6 6.4-9.2 12.8-12.5 19.9-1.7 3.7-3 7.6-4.4 11.4-5.4 15.2-14.2 29.6-17.8 45.3-.9 3.8-3.2 7.3-3.6 11.2-.4 4.2 1.5 8.2 3.5 11.9 3 5.6 6.3 11.1 9 16.9 1.6 3.4 2.9 6.9 4.7 10.2 1.9 3.6 4.3 6.9 6.3 10.5 4.4 9 7.2 19.1 9.8 29zm66.1-286.5l-.5-.2c-1.8-.8-3.4-1.9-4.8-3.2-4.3-4.6-6.2-11.5-7.5-17.7-.2-.7-.3-1.5-.4-2.2 5.2 7.3 10.1 15 13.2 23.3z" fill="url(#SVGID_1_)"/><path class="st13" d="M771.7 314.4c-.5-2.3-.8-4.7-2.1-6.7-.9-1.2-1.9-2.3-3.1-3.3-1.9-1.8-4.2-3.2-6.7-4.2-2.5-.9-5.3-.6-7.6.9-2.1 1.6-3 4.3-3.3 7-.6 3.6.1 7.3 1.8 10.5 2 3.6 5.6 5.9 8.6 8.8 2.2 2.1 4 4.4 5.6 7 .7 1.3 1.6 2.6 2.5 3.7 1 1.1 2.5 1.7 4 1.6 1.2-.3 2.4-1 3.3-1.9 1.2-1.1 4.5-3 4.6-4.7.1-1.4-2.5-4.5-3.1-5.8-2-4-3.5-8.4-4.5-12.9z"/><path class="st5" d="M771.7 314.4c-.5-2.3-.8-4.7-2.1-6.7-.9-1.2-1.9-2.3-3.1-3.3-1.9-1.8-4.2-3.2-6.7-4.2-2.5-.9-5.3-.6-7.6.9-2.1 1.6-3 4.3-3.3 7-.6 3.6.1 7.3 1.8 10.5 2 3.6 5.6 5.9 8.6 8.8 2.2 2.1 4 4.4 5.6 7 .7 1.3 1.6 2.6 2.5 3.7 1 1.1 2.5 1.7 4 1.6 1.2-.3 2.4-1 3.3-1.9 1.2-1.1 4.5-3 4.6-4.7.1-1.4-2.5-4.5-3.1-5.8-2-4-3.5-8.4-4.5-12.9z"/><path d="M840.8 380.2c-5.3-1.4-10.7-2.1-16.2-2-9.1.1-18.5 2.3-27.2-.5-2.2-.8-4.4-1.7-6.5-2.8-1.8-.8-3.4-1.8-4.9-3.2-4.3-4.6-6.2-11.5-7.5-17.6-1.2-6.2-1.9-12.4-2-18.7-2.3 1-4.6 2.1-7.1 1.9s-5-2.1-5-4.6c.4 5.8.6 11.7-.3 17.5-.4 2.3-1 4.5-1.2 6.8-.7 8.3 3.6 16.6 2.1 24.9-.5 2.5.6 5.1 2.8 6.4 2.2 1.2 4.9 1.4 7.3 2 4.8 1.2 9 4.3 13.9 5.5 2.3.5 4.6.6 6.8 1.2 3.2.9 6.1 2.7 9.4 3.3 2.4.4 5 .1 7.4.4 2.2.2 4.3.7 6.4.8 5.3.1 10.3-2.9 13.8-6.8s5.8-9.7 8-14.5z" fill="#f86d70"/><path d="M840.8 380.2c-5.3-1.4-10.7-2.1-16.2-2-9.1.1-18.5 2.3-27.2-.5-2.2-.8-4.4-1.7-6.5-2.8-1.8-.8-3.4-1.8-4.9-3.2-4.3-4.6-6.2-11.5-7.5-17.6-1.2-6.2-1.9-12.4-2-18.7-2.3 1-4.6 2.1-7.1 1.9s-5-2.1-5-4.6c.4 5.8.6 11.7-.3 17.5-.4 2.3-1 4.5-1.2 6.8-.7 8.3 3.6 16.6 2.1 24.9-.5 2.5.6 5.1 2.8 6.4 2.2 1.2 4.9 1.4 7.3 2 4.8 1.2 9 4.3 13.9 5.5 2.3.5 4.6.6 6.8 1.2 3.2.9 6.1 2.7 9.4 3.3 2.4.4 5 .1 7.4.4 2.2.2 4.3.7 6.4.8 5.3.1 10.3-2.9 13.8-6.8s5.8-9.7 8-14.5z" fill="#30b7a0"/><path class="st13" d="M855.3 637.7c1.6.2 3.2.7 4.7 1.5 1.9 1.4 3.3 3.3 4.1 5.5 2.2 5.4 2.6 11.3 2.7 17.1.1 4.7-.1 9.5-1.8 13.9-.5 1.4-1.3 2.6-2.3 3.6-.9.7-2 1.3-3.2 1.5-2.5.7-5.4.7-7.5-.9-2.3-1.8-2.8-4.9-3.3-7.8-.7-3.8-1.6-7.9-4.4-10.6-2.1-2-5.2-3-6.7-5.4-1.8-2.9-.9-6.7.3-10 1-2.8 2.5-8.5 5.5-9.9s8.9.9 11.9 1.5zM747 651.5c.9 3.1 2.4 6 4.6 8.5 1.3 1.5 2.9 3.3 2.3 5.2-.3.6-.7 1.2-1.2 1.7-9.7 9.4-23.2 14-36.6 15.7-.2.1-.4.1-.7 0-.4-.2-.5-.7-.5-1.1-.2-1.4-.2-2.8 0-4.2.7-3.3 3.5-5.6 6.3-7.4s5.9-3.5 7.4-6.5c2-3.7 1.1-8.4 3.5-11.9 1.9-2.8 5.4-4 8.7-4.5 1.2-.2 3.6-1.4 4.6-.9s1.3 4.2 1.6 5.4z"/><path class="st3" d="M856.6 637.3c0-.7.5-1.2 1.2-1.3.6-.1 1.3 0 1.9.2 1.5.4 3 .7 4.6.8 1.9.1 3.7.3 5.5.7s3.4 1.6 4.3 3.3c.4 1 .5 2 .5 3.1 0 4-.4 8.1-1.4 12-.1.3-.2.7-.5.8s-.5 0-.7.1-.4.3-.4.5c-1 2.6-1.5 5.3-1.7 8-.4 4-1 8.1-1.7 12.1-.4 2.3-.9 4.8-2.4 6.6-1.7 2-4.4 2.8-6.9 3.2-5.4.7-10.9-.4-16.3-1.5-1-.1-2-.5-2.8-1.2-.5-.6-.7-1.4-.7-2.2.1-2.7 2.6-4.6 4.8-6.1l3.1-2.1c.2-.1.4-.3.5-.5.2-.3.2-.7.2-1l-.2-4c4.2.1 8 2.4 9.9 6.1.4.8.8 1.8 1.7 2.2 1.2.3 2.4-.4 2.7-1.6.3-1.1.2-2.3-.1-3.5-1.8-9.7-1.4-19.6-2.5-29.4-.1-1.1-.4-2.2-1-3.1-.5-.6-1.5-1.3-1.6-2.2z"/><path class="st6" d="M756.8 329.4h-22c-5.9 0-10.7-4.8-10.7-10.6 0-5.9 4.8-10.6 10.7-10.6h22c5.9 0 10.7 4.8 10.7 10.6-.1 5.8-4.8 10.6-10.7 10.6z"/><circle class="st7" cx="746.1" cy="318.7" r="6.7"/><path class="st3" d="M722.1 674.8c-.5.8-1.2 1.3-1.6 2.1-.5.8-.3 1.8.3 2.3.4.2 1 .2 1.4.1 9.7-1.2 18.7-5.3 26-11.8 1.2-1 2.3-2.2 3.2-3.5.8-1.3 1.6-2.9 3-3.4.9 3.8 1.3 7.6 1.3 11.5 0 2.5-.4 5.4-2.4 6.9-.8.5-1.7.9-2.7 1.1l-4.5 1.3c-.8.3-1.7.4-2.5.2-.5-.1-1-.5-1.5-.6-.6-.1-1.2 0-1.8.2l-3.9 1.1c-1.3.3-2.6.8-3.9 1.3-1.1.5-2.2 1.2-3.2 1.8-1.8.9-3.7 1.7-5.7 2.3l-6.9 2.4c-1.9.7-3.8 1.2-5.8 1.5-1.4.1-2.8 0-4.2.2-1 .2-2 .6-3.1.6-1.7.1-3.4-.5-4.9-1.4-.6-.3-1-.7-1.4-1.3-1-1.5-.1-3.5.8-5.1 1.7-2.9 4.1-5.4 7-7.2 1.2-.7 2.5-1.1 3.7-1.7 3.5-1.7 6.2-4.5 9.5-6.5 3.3-1.5 5.3 3.2 3.8 5.6z"/><path class="st13" d="M818.7 397.9c3.6 2.5 7.8 4.1 12.2 4.7 2.3.3 4.6.4 6.9.4 9.6 0 19.2-.8 28.6-2.4-3.8-4.1-7.6-8.6-9-14-.7-2.9-.9-5.8-.4-8.8.6-3.7 1.5-7.4 2.7-11-4 .2-8.1.1-12.1-.3-2.3-.2-7.9-2.3-9.9-.7s-.5 6.7-.4 9.1v.3c-.1 3.6-.9 7.2-2.3 10.6-3 6.4-9.2 11.7-16.3 12.1z"/><path class="st5" d="M837.2 374.8c5.8 3.8 13 4.9 19.8 3 .6-3.7 1.5-7.4 2.7-11-4 .2-8.1.1-12.1-.3-2.3-.2-7.9-2.3-9.9-.7s-.5 6.7-.5 9z"/><circle class="st13" cx="850.4" cy="353.5" r="24.1"/><path class="st3" d="M748.1 475.5c0 4 2 7.6 5.4 9.7 1.9 1 3.8 1.7 5.9 2.1 11 2.7 22.3 4.8 33.7 4.2 2.5 0 4.9-.5 7.1-1.5 2.3-1 3.9-3.1 4.4-5.5 0-.6.1-1.2.3-1.8.4-.6 1-1.1 1.7-1.5 2.1-1.6 3.1-4.2 2.6-6.8 1.4.6 2.8-.8 3.5-2.1s1.2-3 2.5-3.6c.9-.4 2-.2 3-.4 1.6-.4 2.6-2 3.7-3.2 2.3-2.4 5.5-3.7 8.5-5.2 8.9-4.5 16.1-11.6 23.2-18.5 3.7-3.4 7-7.1 10-11.2.8-1.2 1.5-2.4 2.2-3.6 2.1-4.1 4-8.4 5.5-12.7.9-2.3 1.8-4.8 1.4-7.3 0-.2-.1-.4-.1-.7-.5-1.6-1.2-3.1-2.2-4.4-2.5-3.6-5.7-7-9.9-8.1s-8.4.2-12.7 1.1c-1.4.3-2.9.5-4.3.7-4.5.3-9-.9-13.4-2.1l-4.8-1.3c-2.4-.7-3.6-3.5-6-4.1-1.1-.2-2.2-.1-3.3.2-4.9.9-9.9 2.1-14.2 4.6-1 .6-1.9 1.2-2.8 1.9-3.1 2.3-5.4 5.7-6.4 9.5-1 4.2-.1 8.6-1.1 12.8-.8 3.4-2.9 6.4-4.9 9.3L775 442.8c-2.6 4-5.5 7.7-8.7 11.3-6.3 6.9-18 12.1-18.2 21.4z"/><path class="st13" d="M779.5 314.4c-.5-2.3-.8-4.7-2.1-6.7-.9-1.2-1.9-2.3-3.1-3.3-1.9-1.8-4.2-3.2-6.7-4.2-2.5-.9-5.3-.6-7.6.9-2.1 1.6-3 4.3-3.3 7-.6 3.6.1 7.3 1.8 10.5 2 3.6 5.6 5.9 8.6 8.8 2.2 2.1 4 4.4 5.6 7 .7 1.3 1.6 2.6 2.5 3.7 1 1.1 2.5 1.7 4 1.6 1.2-.3 2.4-1 3.3-1.9 1.2-1.1 4.5-3 4.6-4.7.1-1.4-2.5-4.5-3.1-5.8-2-4-3.5-8.4-4.5-12.9z"/><path class="st16" d="M694.8 593.6c3 5.6 6.3 11 9 16.8 1.6 3.4 2.9 6.8 4.7 10.1 1.9 3.6 4.3 6.9 6.3 10.4 5 8.9 7.8 18.9 10.4 28.8 7.2-1.1 14.2-3.5 20.5-7.2.4-.2.8-.5 1.2-.8 1.7-1.2 3.1-2.8 4.1-4.6-2.4-9-4.8-18.2-9.7-26.2-1.6-2.6-3.4-5-5-7.6-4.7-7.5-5.7-16.8-11.1-23.8-1.1-1.4-1.1-3.4 0-4.8.6-.8 1.6-1.6 1.4-2.6-.1-.7-.9-1.4-.6-2.1.1-.3.5-.5.7-.8.9-.8.8-2.3.9-3.5.2-3.2 2.1-5.9 3.9-8.5.4-.6.9-1.1 1.4-1.5.5-.3 1.1-.4 1.6-.7 1.7-1.1 1.6-3.6 2.4-5.5 1.1-2.5 3.8-3.7 5.6-5.7 2.3-2.5 2.8-6.1 5.2-8.3.2-.2.5-.4.8-.6-1 3.8-1.5 7.7-1.4 11.6-.2 13.4 3.1 27.3 1.6 40.7-1.2 10.6 5.3 21.1 14.5 26.4 3.6 1.9 7.4 3.5 11.3 4.8 5.8 2 11.6 4.2 17.2 6.5 4 1.7 8 3.5 11.9 5.4 4.8 2.3 9.5 4.9 14 7.8 5.6 3.5 11.2 7.1 15.1 12.4 3.8-.1 7.3-2.4 9.8-5.4s3.9-6.6 5.3-10.1c1.2-3.1 2.5-6.2 2.5-9.5 0-.7-.4-1.4-1.1-1.7l-26.5-14-5-2.6c-10.8-5.8-22-11.1-32.9-16.8-.7.2-1.3-.6-1.5-1.3s-.4-1.6-1-1.9c-.3-.2-.8-.2-1-.4-.2-.3-.2-.6-.2-.9.3-5.2 4.1-10.1 3.4-15.3-.3-2.2-1.5-4.4-1-6.6.3-1.5 1.4-2.7 2-4.2 1.3-3.2 0-7 1.4-10.2.9-2.1 1.6-4.2 1.9-6.5.7-4.5 2-8.8 4-12.8 1-2.1 2.2-4 3.7-5.6.8-.8 1.7-1.6 2.4-2.5 2.3-2.7 3.2-6.4 3.8-9.9 1.2-6.4 2-13 .5-19.3-.5-2.2-1.3-4.3-1.2-6.5 0-2.9 1.3-6.3-.7-8.4-.9-.8-1.9-1.3-3-1.5-4.7-1.3-9.5-2.2-14.3-2.7l-22.1-2.9c-2.5-.2-5-.8-7.3-1.9-3-1.7-5-4.7-6.2-7.9-3.9 2.8-5.3 8.1-8.4 11.8-1.5 1.8-3.4 3.2-5 4.9-2 2.1-3.9 4.4-5.5 6.8-4.6 6.3-9.3 12.7-12.5 19.8-1.7 3.7-3 7.5-4.4 11.4-5.4 15.1-14.2 29.4-17.8 44.9-.9 3.8-3.2 7.2-3.6 11.1-.3 4.1 1.6 8.1 3.6 11.7z"/><path class="st5" d="M810.5 468.5c.5 1 .8 2.1.8 3.3-.5-2.4-3.8-3.8-4.1-6.2-.1-1.1.1-1.1.8-.5 1.1.9 1.6 2.5 2.5 3.4zm-10.2 7.4c.7.6 1.2 1.4 1.5 2.3.6 1.2.7 2.6.3 3.9-.5-.2-.7-.8-.8-1.4-.2-.8-.6-1.6-1-2.3-.4-.6-2.2-2.1-2.2-2.8 0-1 1.7 0 2.2.3zm-1.2-81.5c1.6 1.3 3.3 2.5 5.1 3.4 4.8 2.4 10.1 3.7 14.9 6 2.4 1.2 4.7 2.5 6.9 4 4.8 3 9.5 6 14.3 9.1 1.1.7 2.2 1.5 3.2 2.4 1.7 1.8 1.7 5 3.3 7 1.8 2 4.3 3.2 6.9 3.2 2.6 0 5.2-.4 7.7-1.3 1.5-.4 3-1 4.4-1.6 1.5-.6 2.9-1.4 4.2-2.4 2.6-1.9 4.4-4.7 5-7.9.2-2.2-.1-4.4-.8-6.4-.4-1.3-.9-2.7-1.5-3.9-.4-.7-.8-1.4-1.2-2-3.3-4.6-9.1-6.8-14.7-7.9-3-.6-6-.9-8.9-1.4-1.4.3-2.9.5-4.3.7-4.5.3-9-.9-13.4-2.1l-4.8-1.3c-2.4-.7-3.6-3.5-6-4.1-1.1-.2-2.2-.1-3.3.2-4.9.9-9.9 2.1-14.2 4.6-1 .3-1.9.9-2.8 1.7z"/><path d="M787.5 330.4c.6 5.8 5.5 10.1 8.5 15.1 1.5 2.5 2.5 5.1 3.8 7.7 1.5 2.8 3.2 5.4 5 8l5.3 7.8c3.2 4.6 6.3 9.2 10.3 13 7 1.2 12.9 6.4 19.5 8.9 5.3 2 11.1 2.3 16.7 3.4s11.4 3.3 14.7 7.9c1.2 1.8 2.2 3.9 2.7 6 .7 2.1 1 4.3.8 6.4-.6 3.2-2.3 6-5 7.9-2.6 1.8-5.6 3.2-8.7 4-2.5.9-5.1 1.3-7.7 1.3-2.7 0-5.2-1.2-6.9-3.2-1.6-2-1.5-5.2-3.3-7-.9-.9-2-1.7-3.2-2.4l-14.3-9c-2.2-1.5-4.5-2.8-6.9-4-4.8-2.4-10.1-3.6-14.9-6s-9.2-6.4-10.2-11.7c-2.9-16.2-14.1-29.8-23.7-43.2.3-.1.2-.8.3-1.1 1.4-3.1 3.9-5.7 7-7.1 3.5-1.6 6.9-2 10.2-2.7z" fill="#3aceb8"/><path class="st16" d="M838 330.5c-.2-1.8.2-3.5 1-5.1 1.6-2.6 4.9-3.6 7.9-4.2s5.8-1.1 8.7-1.5c2.4-.5 4.8-.5 7.2-.1 3.3.7 6 2.9 9 4.3 3.6 1.6 7.6 2 11.4 2.9s7.8 2.4 10.2 5.5c1.8 2.4 2.6 5.4 3.1 8.4 4.6 24.6-.3 49.9-1.3 74.9-.4 9.7.1 20.2 5.6 28.2l-16.2-.4c-4.2-.1-8.6-.3-11.9-2.9-2.9-2.3-4.2-5.9-5.5-9.3-1.1-2.7-1.8-5.5-2.1-8.3-.3-5.9 3.1-11.7 2-17.4-.8-4.3-4-7.8-7.3-10.6s-7.1-5.3-9.8-8.8c-4.8-6.1-5.8-14.5-5.2-22.4.4-4.6 1.2-9.3.8-13.9-.2-3.6-1.5-7-3.7-9.8-2.3-3.2-3.7-5.2-3.9-9.5z"/><path class="st5" d="M839 325.4c1.6-2.6 4.8-3.5 7.8-4.1-1.6.6-2.9 1.6-3.8 3-.8 1.6-1.2 3.3-1 5.1.2 4.4 1.6 6.3 4.2 9.4 2.2 2.8 3.5 6.2 3.7 9.8.4 4.6-.4 9.3-.8 13.9-.6 7.8.3 16.2 5.2 22.4 2.7 3.5 6.5 5.9 9.8 8.8s6.5 6.3 7.3 10.6c1.1 5.8-2.3 11.6-2 17.4.3 2.9 1 5.7 2.1 8.3 1.2 3.4 2.6 7.1 5.5 9.3 3.3 2.6 7.7 2.8 11.9 2.9l11.5.3c.3.4.5.8.8 1.3l-16.2-.4c-4.2-.1-8.6-.3-11.9-2.9-2.9-2.3-4.2-5.9-5.5-9.3-1.1-2.7-1.8-5.5-2.1-8.3-.3-5.9 3.1-11.7 2-17.4-.8-4.3-4-7.8-7.3-10.6s-7.1-5.3-9.8-8.8c-4.8-6.1-5.8-14.5-5.2-22.4.4-4.6 1.2-9.3.8-13.9-.2-3.6-1.5-7-3.7-9.8-2.6-3.1-3.9-5-4.2-9.4-.3-1.9.1-3.7.9-5.2zM717.2 579.2l29.8 72.6c1.7-1.2 3.1-2.8 4.1-4.6-2.4-9-4.8-18.2-9.7-26.2-1.6-2.6-3.4-5-5-7.6-4.7-7.5-5.7-16.8-11.1-23.8-1.1-1.4-1.1-3.4 0-4.8.6-.8 1.6-1.6 1.4-2.6-.1-.7-.9-1.4-.6-2.1.1-.3.5-.5.7-.8.9-.8.8-2.3.9-3.5.2-3.2 2.1-5.9 3.9-8.5.4-.6.9-1.1 1.4-1.5.5-.3 1.1-.4 1.6-.7 1.7-1.1 1.6-3.6 2.4-5.5 1.1-2.5 3.8-3.7 5.6-5.7 2.3-2.5 2.8-6.1 5.2-8.3l.2-.5-2.3-14-28.5 48.1z"/><ellipse class="st3" cx="977" cy="659.3" rx="34" ry="6.5"/><ellipse class="st2" cx="977.6" cy="656.6" rx="4" ry="5.2"/><ellipse class="st2" cx="977.6" cy="650.3" rx="4" ry="5.2"/><ellipse class="st2" cx="977.6" cy="643.9" rx="4" ry="5.2"/><ellipse class="st2" cx="977.6" cy="637.6" rx="4" ry="5.2"/><ellipse class="st2" cx="977.6" cy="631.3" rx="4" ry="5.2"/><ellipse class="st2" cx="977.6" cy="625" rx="4" ry="5.2"/><ellipse class="st2" cx="977.6" cy="618.6" rx="4" ry="5.2"/><path class="st3" d="M962.8 575.3c-.5-.7-1-1.4-1.5-2.2l10.4-1.7-11.2.1c-2.2-4.7-2.3-10.2-.4-15l15.1 7.8-13.9-10.2c5.2-9.1 16.8-12.2 25.9-7 9.1 5.2 12.2 16.8 7 25.9-.5.8-1 1.6-1.6 2.4.8 1.1 1.6 2.2 2.2 3.5l-13.5 7 14.4-4.8c.7 2 1 4 1 6.1 0 4.2-1.4 8.4-4.1 11.7 6.5 8.2 5 20.1-3.2 26.6s-20.1 5-26.6-3.2c-5.4-6.9-5.4-16.5 0-23.4-5.4-7-5.4-16.7 0-23.6z"/><path class="st5" d="M996.6 587c0 4.2-1.4 8.4-4.1 11.7 6.5 8.2 5 20.1-3.2 26.6s-20.1 5-26.6-3.2c-5.4-6.9-5.4-16.5 0-23.4-2.4-3.2 33.9-13.8 33.9-11.7z"/><ellipse class="st3" cx="1043.2" cy="586.8" rx="22.8" ry="4.4"/><ellipse class="st2" cx="1043.6" cy="585" rx="2.7" ry="3.5"/><ellipse class="st2" cx="1043.6" cy="580.7" rx="2.7" ry="3.5"/><ellipse class="st2" cx="1043.6" cy="576.5" rx="2.7" ry="3.5"/><ellipse class="st2" cx="1043.6" cy="572.2" rx="2.7" ry="3.5"/><ellipse class="st2" cx="1043.6" cy="568" rx="2.7" ry="3.5"/><ellipse class="st2" cx="1043.6" cy="563.7" rx="2.7" ry="3.5"/><ellipse class="st2" cx="1043.6" cy="559.5" rx="2.7" ry="3.5"/><path class="st3" d="M1033.6 530.4c-.4-.5-.7-.9-1-1.5l7-1.2-7.6.1c-.8-1.7-1.2-3.5-1.2-5.3 0-1.6.3-3.3.9-4.8l10.1 5.3-9.3-6.9c3.5-6.1 11.2-8.3 17.4-4.8s8.3 11.2 4.8 17.4c-.3.6-.7 1.2-1.1 1.7.6.7 1.1 1.5 1.4 2.3l-9.1 4.7 9.7-3.3c1.4 4.1.6 8.6-2.1 12 4.4 5.5 3.4 13.5-2.1 17.9s-13.5 3.4-17.9-2.1c-3.7-4.6-3.7-11.2 0-15.8-3.5-4.6-3.5-11.1.1-15.7z"/><path class="st5" d="M1056.3 538.2c0 2.9-1 5.6-2.7 7.9 4.4 5.5 3.4 13.5-2.1 17.9s-13.5 3.4-17.9-2.1c-3.7-4.6-3.7-11.2 0-15.8-1.7-2.2 22.7-9.3 22.7-7.9z"/></svg>