<svg version="1.1" id="a7414020-5bea-4f71-b338-a76fc53f6834" xmlns="http://www.w3.org/2000/svg" x="0" y="0" viewBox="0 0 1081.4 821.1" xml:space="preserve"><style>.st0{opacity:4.000000e-02;fill:#e6e6e6}.st3{opacity:.7}.st4{fill:#ff6584}.st5{opacity:.1;fill:#6c63ff;enable-background:new}.st6{fill:#41d6c3}.st7{fill:#c0e0ff}.st8{fill:#dcefff}.st10{fill:#a1616a}.st11{opacity:.1;enable-background:new}.st12{fill:#5a5773}.st16{fill:#5596e6}.st17{fill:#ffd037}.st18{fill:#a8a8a8}.st19{opacity:.2;enable-background:new}</style><path class="st0" d="M1002.8 583.4c-3.4 3-6.8 5.8-10.3 8.6-.6.5-1.2 1-1.8 1.4-12.6 9.8-25.8 18.7-39.5 26.7-15.8 9.3-32.2 17.8-48.9 25.8-25.1 12.1-50.8 23-76.9 32.5l-1.2.4c-11.5 4.1-23.2 7.9-35 11.4l-.2.1c-8.2 2.4-16.5 4.6-24.8 6.7l-1.1.3c-12.3 3-24.7 5.5-37.2 7.5l-2.9.5c-9.1 1.4-18.4 2.6-27.6 3.5-52.1 5-104.9.9-156.7-6.1-104.6-14.2-207.8-40.8-302-82.5-35.9-15.8-70.6-34.1-103.9-54.8-4.7-2.9-9.4-5.9-14.1-9-.7-.5-1.5-1-2.2-1.5-46-30.7-87.5-68.1-106.8-115.3-21.5-52.7-7.8-119.5 45.6-150.7 18.4-10.7 39.7-16.5 61.2-21.3l2.2-.5c3.6-.8 7.3-1.6 10.9-2.3 12.7-2.7 25.4-5.4 38.1-8.4 23.5-5.5 46.6-12.1 68.1-21.8 1.6-.7 3.2-1.4 4.7-2.2 16.8-8 35.1-19.6 49-33.6 11.9-12.1 20.5-25.9 22-40.8.4-4.2.2-8.5-.6-12.6-1.5-7.9-2.9-15.6-4-23.2-2-14.2-2.6-27.7.1-40.8 2.8-13.3 9.1-26.1 21.1-38.5 1.8-1.9 3.8-3.8 5.9-5.6 9.7-8.5 20.7-15.5 32.5-20.6 1.5-.7 3-1.3 4.4-1.9C403.9 1.4 443.6-1.3 480.6.5c34.6 1.8 69 6.6 102.8 14.3 2.7.6 5.4 1.2 8 1.9 28.8 7 57.1 15.7 84.7 26.2 81.4 30.6 157.5 74.7 227.9 122.5l3.4 2.3c1.6 1.1 3.3 2.3 4.9 3.4 3.4 2.3 6.7 4.7 10.1 7 2.5 1.7 5 3.5 7.4 5.2l5.3 3.8 3.3 2.4c18 13 35.7 26.5 52.1 40.9l1.8 1.6c20 17.8 38.1 37.1 52.6 58.6 61.6 91.2 43.4 217.6-42.1 292.8z"/><path d="M992.4 14.8V592c-.6.5-1.2 1-1.8 1.4-12.6 9.8-25.8 18.7-39.5 26.7H236.7c-35.9-15.8-70.7-34.1-104-54.8-4.7-2.9-9.4-5.9-14.1-9-.7-.5-1.5-1-2.2-1.5v-540h876z" opacity=".03"/><path d="M990.7 16.7v576.8c-12.6 9.8-25.8 18.7-39.5 26.7H236.7c-35.9-15.8-70.7-34.1-104-54.8-4.7-2.9-9.4-5.9-14.1-9V16.7h872.1z" fill="#3f3d56"/><g class="st3"><path class="st4" d="M781.1 233.9c-11.6 0-21 9.4-21 21s9.4 21 21 21 21-9.4 21-21-9.4-21-21-21zm0 38c-9.4 0-17-7.6-17-17 0-1.9.3-3.8 1-5.6 3.1-8.9 12.7-13.6 21.6-10.5 8.9 3.1 13.6 12.7 10.5 21.6-2.4 6.9-8.9 11.5-16.1 11.5z"/><path class="st4" d="M787.5 264l2.6-2.6c.5-.5.5-1.2 0-1.7l-4.8-4.8 4.8-4.8c.5-.5.5-1.2 0-1.7l-2.6-2.6c-.5-.5-1.2-.5-1.7 0l-4.8 4.8-4.8-4.8c-.5-.5-1.2-.5-1.7 0l-2.6 2.7c-.5.5-.5 1.2 0 1.7l4.8 4.8-4.8 4.8c-.5.5-.5 1.2 0 1.7l2.7 2.6c.5.5 1.2.5 1.7 0l4.8-4.8 4.8 4.8c.4.4 1.2.4 1.6-.1z"/></g><path class="st5" d="M739.1 402.9c-1-5.5-4.3-10.4-8.9-13.5-4.7-3.1-10.5-4.3-16-3.1l-.6.1c-1.1.3-2.2.6-3.3 1.1-10.7 4.6-15.6 17-11 27.7 2.1 5 6.1 8.9 11.1 11.1l.6.2c10.8 4.2 23-1.1 27.2-11.9 1-2.4 1.4-5 1.4-7.7-.1-1.4-.2-2.7-.5-4zm-3.8 6.5v.3c-1.6 9.3-10.3 15.5-19.6 13.9-1.5-.3-2.9-.7-4.3-1.3l-.6-.3c-1.1-.6-2.2-1.3-3.1-2.1-7.2-6-8.1-16.8-2.1-24 1.2-1.5 2.7-2.7 4.3-3.7 1.1-.6 2.2-1.1 3.4-1.5l.6-.2c9-2.5 18.4 2.7 21 11.8.4 1.5.6 3 .6 4.5 0 .9-.1 1.7-.2 2.6z"/><path class="st5" d="M724.9 415.9l2.7-2.6c.5-.5.5-1.2 0-1.7l-4.8-4.8 4.8-4.8c.5-.5.5-1.2 0-1.7l-2.7-2.6c-.5-.5-1.2-.5-1.7 0l-4.8 4.8-4.8-4.8c-.5-.5-1.2-.5-1.7 0l-2.7 2.6c-.5.5-.5 1.2 0 1.7l4.8 4.8-4.8 4.8c-.5.5-.5 1.2 0 1.7l2.7 2.6c.5.5 1.2.5 1.7 0l4.8-4.8 4.8 4.8c.5.5 1.2.5 1.7 0 0 .1 0 0 0 0z"/><path class="st6" d="M677 95.9l-1.9-1.9c-.4-.4-1-.4-1.4 0l-12 11.9-5.1-5.1c-.4-.4-1-.4-1.4 0l-1.9 1.9c-.4.4-.4 1 0 1.4l7.7 7.8c.4.4 1 .4 1.4 0L677 97.3c.4-.3.4-1 0-1.4zm0 0l-1.9-1.9c-.4-.4-1-.4-1.4 0l-12 11.9-5.1-5.1c-.4-.4-1-.4-1.4 0l-1.9 1.9c-.4.4-.4 1 0 1.4l7.7 7.8c.4.4 1 .4 1.4 0L677 97.3c.4-.3.4-1 0-1.4zm0 0l-1.9-1.9c-.4-.4-1-.4-1.4 0l-12 11.9-5.1-5.1c-.4-.4-1-.4-1.4 0l-1.9 1.9c-.4.4-.4 1 0 1.4l7.7 7.8c.4.4 1 .4 1.4 0L677 97.3c.4-.3.4-1 0-1.4zm0 0l-1.9-1.9c-.4-.4-1-.4-1.4 0l-12 11.9-5.1-5.1c-.4-.4-1-.4-1.4 0l-1.9 1.9c-.4.4-.4 1 0 1.4l7.7 7.8c.4.4 1 .4 1.4 0L677 97.3c.4-.3.4-1 0-1.4zm-11.9-15.1c-11.6 0-21 9.4-21 21s9.4 21 21 21 21-9.4 21-21-9.4-21-21-21zm0 38c-9.4 0-17-7.6-17-17s7.6-17 17-17 17 7.6 17 17c0 9.3-7.5 16.9-17 17 .1 0 .1 0 0 0zM677 95.9l-1.9-1.9c-.4-.4-1-.4-1.4 0l-12 11.9-5.1-5.1c-.4-.4-1-.4-1.4 0l-1.9 1.9c-.4.4-.4 1 0 1.4l7.7 7.8c.4.4 1 .4 1.4 0L677 97.4c.4-.4.4-1 0-1.5.1 0 0 0 0 0zm0 0l-1.9-1.9c-.4-.4-1-.4-1.4 0l-12 11.9-5.1-5.1c-.4-.4-1-.4-1.4 0l-1.9 1.9c-.4.4-.4 1 0 1.4l7.7 7.8c.4.4 1 .4 1.4 0L677 97.4c.4-.4.4-1 0-1.5.1 0 0 0 0 0zm0 0l-1.9-1.9c-.4-.4-1-.4-1.4 0l-12 11.9-5.1-5.1c-.4-.4-1-.4-1.4 0l-1.9 1.9c-.4.4-.4 1 0 1.4l7.7 7.8c.4.4 1 .4 1.4 0L677 97.4c.4-.4.4-1 0-1.5.1 0 0 0 0 0zm0 0l-1.9-1.9c-.4-.4-1-.4-1.4 0l-12 11.9-5.1-5.1c-.4-.4-1-.4-1.4 0l-1.9 1.9c-.4.4-.4 1 0 1.4l7.7 7.8c.4.4 1 .4 1.4 0L677 97.4c.4-.4.4-1 0-1.5.1 0 0 0 0 0zm0 0l-1.9-1.9c-.4-.4-1-.4-1.4 0l-12 11.9-5.1-5.1c-.4-.4-1-.4-1.4 0l-1.9 1.9c-.4.4-.4 1 0 1.4l7.7 7.8c.4.4 1 .4 1.4 0L677 97.4c.4-.4.4-1 0-1.5.1 0 0 0 0 0z"/><path class="st5" d="M714.2 249l-1.9-1.9c-.4-.4-1-.4-1.4 0l-12 11.9-5.1-5.1c-.4-.4-1-.4-1.4 0l-1.9 1.9c-.4.4-.4 1 0 1.4l7.7 7.8c.4.4 1 .4 1.4 0l14.6-14.5c.4-.4.4-1 0-1.5 0 .1 0 0 0 0zm0 0l-1.9-1.9c-.4-.4-1-.4-1.4 0l-12 11.9-5.1-5.1c-.4-.4-1-.4-1.4 0l-1.9 1.9c-.4.4-.4 1 0 1.4l7.7 7.8c.4.4 1 .4 1.4 0l14.6-14.5c.4-.4.4-1 0-1.5 0 .1 0 0 0 0zm0 0l-1.9-1.9c-.4-.4-1-.4-1.4 0l-12 11.9-5.1-5.1c-.4-.4-1-.4-1.4 0l-1.9 1.9c-.4.4-.4 1 0 1.4l7.7 7.8c.4.4 1 .4 1.4 0l14.6-14.5c.4-.4.4-1 0-1.5 0 .1 0 0 0 0zm0 0l-1.9-1.9c-.4-.4-1-.4-1.4 0l-12 11.9-5.1-5.1c-.4-.4-1-.4-1.4 0l-1.9 1.9c-.4.4-.4 1 0 1.4l7.7 7.8c.4.4 1 .4 1.4 0l14.6-14.5c.4-.4.4-1 0-1.5 0 .1 0 0 0 0zm-11.9-15.1c-11.6 0-21 9.4-21 21s9.4 21 21 21 21-9.4 21-21-9.4-21-21-21zm0 38c-9.4 0-17-7.6-17-17s7.6-17 17-17 17 7.6 17 17c.1 9.4-7.5 17-17 17 .1 0 .1 0 0 0zm11.9-22.8l-1.9-1.9c-.4-.4-1-.4-1.4 0l-12 11.9-5.1-5.1c-.4-.4-1-.4-1.4 0l-1.9 1.9c-.4.4-.4 1 0 1.4l7.7 7.8c.4.4 1 .4 1.4 0l14.6-14.5c.4-.5.4-1.1 0-1.5.1 0 0 0 0 0zm0 0l-1.9-1.9c-.4-.4-1-.4-1.4 0l-12 11.9-5.1-5.1c-.4-.4-1-.4-1.4 0l-1.9 1.9c-.4.4-.4 1 0 1.4l7.7 7.8c.4.4 1 .4 1.4 0l14.6-14.5c.4-.5.4-1.1 0-1.5.1 0 0 0 0 0zm0 0l-1.9-1.9c-.4-.4-1-.4-1.4 0l-12 11.9-5.1-5.1c-.4-.4-1-.4-1.4 0l-1.9 1.9c-.4.4-.4 1 0 1.4l7.7 7.8c.4.4 1 .4 1.4 0l14.6-14.5c.4-.5.4-1.1 0-1.5.1 0 0 0 0 0zm0 0l-1.9-1.9c-.4-.4-1-.4-1.4 0l-12 11.9-5.1-5.1c-.4-.4-1-.4-1.4 0l-1.9 1.9c-.4.4-.4 1 0 1.4l7.7 7.8c.4.4 1 .4 1.4 0l14.6-14.5c.4-.5.4-1.1 0-1.5.1 0 0 0 0 0zm0 0l-1.9-1.9c-.4-.4-1-.4-1.4 0l-12 11.9-5.1-5.1c-.4-.4-1-.4-1.4 0l-1.9 1.9c-.4.4-.4 1 0 1.4l7.7 7.8c.4.4 1 .4 1.4 0l14.6-14.5c.4-.5.4-1.1 0-1.5.1 0 0 0 0 0z"/><path class="st6" d="M651.4 402.2l-1.9-1.9c-.4-.4-1-.4-1.4 0l-12 11.9-5.1-5.1c-.4-.4-1-.4-1.4 0l-1.9 1.9c-.4.4-.4 1 0 1.4l7.7 7.8c.4.4 1 .4 1.4 0l14.6-14.5c.3-.5.4-1.1 0-1.5zm0 0l-1.9-1.9c-.4-.4-1-.4-1.4 0l-12 11.9-5.1-5.1c-.4-.4-1-.4-1.4 0l-1.9 1.9c-.4.4-.4 1 0 1.4l7.7 7.8c.4.4 1 .4 1.4 0l14.6-14.5c.3-.5.4-1.1 0-1.5zm0 0l-1.9-1.9c-.4-.4-1-.4-1.4 0l-12 11.9-5.1-5.1c-.4-.4-1-.4-1.4 0l-1.9 1.9c-.4.4-.4 1 0 1.4l7.7 7.8c.4.4 1 .4 1.4 0l14.6-14.5c.3-.5.4-1.1 0-1.5zm0 0l-1.9-1.9c-.4-.4-1-.4-1.4 0l-12 11.9-5.1-5.1c-.4-.4-1-.4-1.4 0l-1.9 1.9c-.4.4-.4 1 0 1.4l7.7 7.8c.4.4 1 .4 1.4 0l14.6-14.5c.3-.5.4-1.1 0-1.5zm-11.9-15.1c-11.6 0-21 9.4-21 21s9.4 21 21 21 21-9.4 21-21-9.4-21-21-21zm0 38c-9.4 0-17-7.6-17-17s7.6-17 17-17 17 7.6 17 17-7.5 17-17 17zm11.9-22.9l-1.9-1.9c-.4-.4-1-.4-1.4 0l-12 11.9-5.1-5.1c-.4-.4-1-.4-1.4 0l-1.9 1.9c-.4.4-.4 1 0 1.4l7.7 7.8c.4.4 1 .4 1.4 0l14.6-14.5c.3-.4.4-1.1 0-1.5zm0 0l-1.9-1.9c-.4-.4-1-.4-1.4 0l-12 11.9-5.1-5.1c-.4-.4-1-.4-1.4 0l-1.9 1.9c-.4.4-.4 1 0 1.4l7.7 7.8c.4.4 1 .4 1.4 0l14.6-14.5c.3-.4.4-1.1 0-1.5zm0 0l-1.9-1.9c-.4-.4-1-.4-1.4 0l-12 11.9-5.1-5.1c-.4-.4-1-.4-1.4 0l-1.9 1.9c-.4.4-.4 1 0 1.4l7.7 7.8c.4.4 1 .4 1.4 0l14.6-14.5c.3-.4.4-1.1 0-1.5zm0 0l-1.9-1.9c-.4-.4-1-.4-1.4 0l-12 11.9-5.1-5.1c-.4-.4-1-.4-1.4 0l-1.9 1.9c-.4.4-.4 1 0 1.4l7.7 7.8c.4.4 1 .4 1.4 0l14.6-14.5c.3-.4.4-1.1 0-1.5zm0 0l-1.9-1.9c-.4-.4-1-.4-1.4 0l-12 11.9-5.1-5.1c-.4-.4-1-.4-1.4 0l-1.9 1.9c-.4.4-.4 1 0 1.4l7.7 7.8c.4.4 1 .4 1.4 0l14.6-14.5c.3-.4.4-1.1 0-1.5zM611 555.3l-1.9-1.9c-.4-.4-1-.4-1.4 0l-12 11.9-5.1-5.1c-.4-.4-1-.4-1.4 0l-1.9 1.9c-.4.4-.4 1 0 1.4l7.7 7.8c.4.4 1 .4 1.4 0l14.6-14.5c.4-.4.5-1 0-1.5.1 0 .1 0 0 0zm0 0l-1.9-1.9c-.4-.4-1-.4-1.4 0l-12 11.9-5.1-5.1c-.4-.4-1-.4-1.4 0l-1.9 1.9c-.4.4-.4 1 0 1.4l7.7 7.8c.4.4 1 .4 1.4 0l14.6-14.5c.4-.4.5-1 0-1.5.1 0 .1 0 0 0zm0 0l-1.9-1.9c-.4-.4-1-.4-1.4 0l-12 11.9-5.1-5.1c-.4-.4-1-.4-1.4 0l-1.9 1.9c-.4.4-.4 1 0 1.4l7.7 7.8c.4.4 1 .4 1.4 0l14.6-14.5c.4-.4.5-1 0-1.5.1 0 .1 0 0 0zm0 0l-1.9-1.9c-.4-.4-1-.4-1.4 0l-12 11.9-5.1-5.1c-.4-.4-1-.4-1.4 0l-1.9 1.9c-.4.4-.4 1 0 1.4l7.7 7.8c.4.4 1 .4 1.4 0l14.6-14.5c.4-.4.5-1 0-1.5.1 0 .1 0 0 0zm-11.9-15.1c-11.6 0-21 9.4-21 21s9.4 21 21 21 21-9.4 21-21-9.4-21-21-21zm0 38c-9.4 0-17-7.6-17-17s7.6-17 17-17 17 7.6 17 17-7.6 17-17 17zm11.9-22.9l-1.9-1.9c-.4-.4-1-.4-1.4 0l-12 11.9-5.1-5.1c-.4-.4-1-.4-1.4 0l-1.9 1.9c-.4.4-.4 1 0 1.4l7.7 7.8c.4.4 1 .4 1.4 0l14.6-14.5c.4-.4.5-1 0-1.5.1.1.1 0 0 0zm0 0l-1.9-1.9c-.4-.4-1-.4-1.4 0l-12 11.9-5.1-5.1c-.4-.4-1-.4-1.4 0l-1.9 1.9c-.4.4-.4 1 0 1.4l7.7 7.8c.4.4 1 .4 1.4 0l14.6-14.5c.4-.4.5-1 0-1.5.1.1.1 0 0 0zm0 0l-1.9-1.9c-.4-.4-1-.4-1.4 0l-12 11.9-5.1-5.1c-.4-.4-1-.4-1.4 0l-1.9 1.9c-.4.4-.4 1 0 1.4l7.7 7.8c.4.4 1 .4 1.4 0l14.6-14.5c.4-.4.5-1 0-1.5.1.1.1 0 0 0zm0 0l-1.9-1.9c-.4-.4-1-.4-1.4 0l-12 11.9-5.1-5.1c-.4-.4-1-.4-1.4 0l-1.9 1.9c-.4.4-.4 1 0 1.4l7.7 7.8c.4.4 1 .4 1.4 0l14.6-14.5c.4-.4.5-1 0-1.5.1.1.1 0 0 0zm0 0l-1.9-1.9c-.4-.4-1-.4-1.4 0l-12 11.9-5.1-5.1c-.4-.4-1-.4-1.4 0l-1.9 1.9c-.4.4-.4 1 0 1.4l7.7 7.8c.4.4 1 .4 1.4 0l14.6-14.5c.4-.4.5-1 0-1.5.1.1.1 0 0 0zm242.8-382.8l-1.9-1.9c-.4-.4-1-.4-1.4 0l-6.2 6.2-2.3 2.2-.2.2-1.2 1.2-2.1 2.1-5.1-5.1c-.4-.4-1-.4-1.4 0l-1.9 1.9c-.4.4-.4 1 0 1.4l7.3 7.3.4.4c.2.2.4.3.6.3.3 0 .6-.1.8-.3l6.1-6 2-2 6.6-6.5c.4-.4.4-1-.1-1.4.1 0 .1 0 0 0zm0 0l-1.9-1.9c-.4-.4-1-.4-1.4 0l-6.2 6.2-2.3 2.2-.2.2-1.2 1.2-2.1 2.1-5.1-5.1c-.4-.4-1-.4-1.4 0l-1.9 1.9c-.4.4-.4 1 0 1.4l7.3 7.3.4.4c.2.2.4.3.6.3.3 0 .6-.1.8-.3l6.1-6 2-2 6.6-6.5c.4-.4.4-1-.1-1.4.1 0 .1 0 0 0zm0 0l-1.9-1.9c-.4-.4-1-.4-1.4 0l-6.2 6.2-2.3 2.2-.2.2-1.2 1.2-2.1 2.1-5.1-5.1c-.4-.4-1-.4-1.4 0l-1.9 1.9c-.4.4-.4 1 0 1.4l7.3 7.3.4.4c.2.2.4.3.6.3.3 0 .6-.1.8-.3l6.1-6 2-2 6.6-6.5c.4-.4.4-1-.1-1.4.1 0 .1 0 0 0zm0 0l-1.9-1.9c-.4-.4-1-.4-1.4 0l-6.2 6.2-2.3 2.2-.2.2-1.2 1.2-2.1 2.1-5.1-5.1c-.4-.4-1-.4-1.4 0l-1.9 1.9c-.4.4-.4 1 0 1.4l7.3 7.3.4.4c.2.2.4.3.6.3.3 0 .6-.1.8-.3l6.1-6 2-2 6.6-6.5c.4-.4.4-1-.1-1.4.1 0 .1 0 0 0zM842 157.4c-11.6-.1-21.1 9.2-21.2 20.8-.1 9.1 5.7 17.2 14.3 20.1.2.1.4.2.7.2 4.6 1.4 9.5 1.3 14-.5 1-.4 2-.9 3-1.5 10-5.9 13.3-18.8 7.5-28.7-3.9-6.5-10.9-10.5-18.3-10.4zm7.4 36.2c-.7.3-1.4.6-2.2.9-3.2 1-6.6 1.1-9.8.2-.5-.1-.9-.3-1.3-.4-8.8-3.3-13.3-13-10.1-21.8 3.3-8.8 13-13.3 21.8-10.1 8.8 3.3 13.3 13 10.1 21.8-1.5 4.1-4.6 7.5-8.5 9.4zm4.4-21.1l-1.9-1.9c-.4-.4-1-.4-1.4 0l-6.2 6.2-2.3 2.2-.2.2-1.2 1.2-2.1 2.1-5.1-5.1c-.4-.4-1-.4-1.4 0l-1.9 1.9c-.4.4-.4 1 0 1.4l7.3 7.3.4.4c.2.2.4.3.6.3.3 0 .6-.1.8-.3l6.1-6 2-2 6.6-6.5c.4-.4.4-1-.1-1.4.1 0 .1 0 0 0zm0 0l-1.9-1.9c-.4-.4-1-.4-1.4 0l-6.2 6.2-2.3 2.2-.2.2-1.2 1.2-2.1 2.1-5.1-5.1c-.4-.4-1-.4-1.4 0l-1.9 1.9c-.4.4-.4 1 0 1.4l7.3 7.3.4.4c.2.2.4.3.6.3.3 0 .6-.1.8-.3l6.1-6 2-2 6.6-6.5c.4-.4.4-1-.1-1.4.1 0 .1 0 0 0zm0 0l-1.9-1.9c-.4-.4-1-.4-1.4 0l-6.2 6.2-2.3 2.2-.2.2-1.2 1.2-2.1 2.1-5.1-5.1c-.4-.4-1-.4-1.4 0l-1.9 1.9c-.4.4-.4 1 0 1.4l7.3 7.3.4.4c.2.2.4.3.6.3.3 0 .6-.1.8-.3l6.1-6 2-2 6.6-6.5c.4-.4.4-1-.1-1.4.1 0 .1 0 0 0zm0 0l-1.9-1.9c-.4-.4-1-.4-1.4 0l-6.2 6.2-2.3 2.2-.2.2-1.2 1.2-2.1 2.1-5.1-5.1c-.4-.4-1-.4-1.4 0l-1.9 1.9c-.4.4-.4 1 0 1.4l7.3 7.3.4.4c.2.2.4.3.6.3.3 0 .6-.1.8-.3l6.1-6 2-2 6.6-6.5c.4-.4.4-1-.1-1.4.1 0 .1 0 0 0zm0 0l-1.9-1.9c-.4-.4-1-.4-1.4 0l-6.2 6.2-2.3 2.2-.2.2-1.2 1.2-2.1 2.1-5.1-5.1c-.4-.4-1-.4-1.4 0l-1.9 1.9c-.4.4-.4 1 0 1.4l7.3 7.3.4.4c.2.2.4.3.6.3.3 0 .6-.1.8-.3l6.1-6 2-2 6.6-6.5c.4-.4.4-1-.1-1.4.1 0 .1 0 0 0z"/><path class="st7" d="M188 81.4h398.3c11.3 0 20.4 9.1 20.4 20.4 0 11.3-9.1 20.4-20.4 20.4H188c-11.3 0-20.4-9.1-20.4-20.4 0-11.2 9.1-20.4 20.4-20.4zm0 76.6h576c11.3 0 20.4 9.1 20.4 20.4 0 11.3-9.1 20.4-20.4 20.4H188c-11.3 0-20.4-9.1-20.4-20.4 0-11.3 9.1-20.4 20.4-20.4z"/><path class="st8" d="M188 234.6h435.8c11.3 0 20.4 9.1 20.4 20.4 0 11.3-9.1 20.4-20.4 20.4H188c-11.3 0-20.4-9.1-20.4-20.4 0-11.3 9.1-20.4 20.4-20.4zm0 76.5h576c11.3 0 20.4 9.1 20.4 20.4 0 11.3-9.1 20.4-20.4 20.4H188c-11.3 0-20.4-9.1-20.4-20.4 0-11.2 9.1-20.4 20.4-20.4z"/><path class="st7" d="M188 387.7h374.6c11.3 0 20.4 9.1 20.4 20.4 0 11.3-9.1 20.4-20.4 20.4H188c-11.3 0-20.4-9.1-20.4-20.4 0-11.3 9.1-20.4 20.4-20.4z"/><path class="st8" d="M188 464.3h576c11.3 0 20.4 9.1 20.4 20.4 0 11.3-9.1 20.4-20.4 20.4H188c-11.3 0-20.4-9.1-20.4-20.4 0-11.3 9.1-20.4 20.4-20.4zm0 76.6h332.3c11.3 0 20.4 9.1 20.4 20.4 0 11.3-9.1 20.4-20.4 20.4H188c-11.3 0-20.4-9.1-20.4-20.4 0-11.3 9.1-20.4 20.4-20.4z"/><path class="st5" d="M744.4 80.8c-11.6 0-21 9.4-21 21s9.4 21 21 21 21-9.4 21-21-9.4-21-21-21zm0 38c-9.4 0-17-7.6-17-17s7.6-17 17-17 17 7.6 17 17c0 9.3-7.6 16.9-17 17z"/><path class="st5" d="M750.8 110.9l2.7-2.6c.5-.5.5-1.2 0-1.7l-4.8-4.8 4.8-4.8c.5-.5.5-1.2 0-1.7l-2.7-2.6c-.5-.5-1.2-.5-1.7 0l-4.8 4.8-4.8-4.8c-.5-.5-1.2-.5-1.7 0l-2.6 2.6c-.5.5-.5 1.2 0 1.7l4.8 4.8-4.8 4.8c-.5.5-.5 1.2 0 1.7l2.6 2.6c.5.5 1.2.5 1.7 0l4.8-4.8 4.8 4.8c.5.4 1.3.4 1.7 0zm169.9 46.5c-11.6 0-21 9.4-21 21s9.4 21 21 21 21-9.4 21-21-9.3-21-21-21c.1-.1 0-.1 0 0zm0 38c-9.4 0-17-7.6-17-17s7.6-17 17-17 17 7.6 17 17c0 3.1-.8 6.1-2.4 8.8-3.1 5-8.7 8.1-14.6 8.2z"/><path class="st5" d="M927.1 187.5l2.7-2.6c.5-.5.5-1.2 0-1.7l-4.8-4.8 4.8-4.8c.5-.5.5-1.2 0-1.7l-2.7-2.6c-.5-.5-1.2-.5-1.7 0l-4.8 4.8-4.8-4.8c-.5-.5-1.2-.5-1.7 0l-2.7 2.6c-.5.5-.5 1.2 0 1.7l4.8 4.8-4.8 4.8c-.5.5-.5 1.2 0 1.7l2.7 2.6c.4.5 1.2.5 1.6 0l4.8-4.8 4.8 4.8c.6.4 1.4.4 1.8 0z"/><g class="st3"><path class="st4" d="M677.3 540.2c-11.6 0-21 9.4-21 21s9.4 21 21 21 21-9.4 21-21-9.4-21-21-21zm0 38c-9.4 0-17-7.6-17-17s7.6-17 17-17 17 7.6 17 17-7.5 17-17 17c.1 0 .1 0 0 0z"/><path class="st4" d="M683.8 570.3l2.6-2.6c.5-.5.5-1.2 0-1.7l-4.8-4.8 4.8-4.8c.5-.5.5-1.2 0-1.7l-2.6-2.7c-.5-.5-1.2-.5-1.7 0l-4.8 4.8-4.8-4.8c-.5-.5-1.2-.5-1.7 0l-2.7 2.7c-.5.5-.5 1.2 0 1.7l4.8 4.8-4.8 4.8c-.5.5-.5 1.2 0 1.7l2.7 2.6c.4.5 1.2.5 1.6 0l4.8-4.8 4.8 4.8c.6.5 1.3.5 1.8 0z"/></g><ellipse class="st0" cx="766.5" cy="809.3" rx="118.9" ry="5.8"/><linearGradient id="SVGID_1_" gradientUnits="userSpaceOnUse" x1="852.761" y1="532.53" x2="852.761" y2="-105.828" gradientTransform="translate(-59.31 282.57)"><stop offset="0" stop-color="gray" stop-opacity=".25"/><stop offset=".54" stop-color="gray" stop-opacity=".12"/><stop offset="1" stop-color="gray" stop-opacity=".1"/></linearGradient><path d="M869.4 398.6s-28.1-51.4-23.4-59.7 8.2-20.5 8.2-20.5 10.4-7.1 10.4-10 8.2-9.6 12.5-12.5 2.2-16.7 0-18.4-5.6-7.5-5.6-7.5 3-8.4 0-10.9.4-5 0-7.5 0-11.7 0-11.7c-3.5-4.9-7.4-7.2-11.1-8l-.3-1.3-1.8-7.8s9-17.3-5.6-26.3c-1-.6-2.1-1.2-3.2-1.7 0 0 0-.4-.1-1.1-.2-2.6-.8-9-2.1-13.2-.8-2.4-1.8-4.1-3-3.7-.3.1-.6.3-.8.5-.6.5-1.1 1.2-1.5 1.8 0 0 0 .1-.1.1-1.7 3-2.8 6.2-3.4 9.5-.4 2-.8 4-1 6-.6 1.2-1.2 2.4-1.7 3.7-1.8 4.6-3.8 12.5-.1 18.4 3.2 5 7.5 11.9 10.6 16.9l.1.2.2.3-.3.2v.8l.3 4.2 2.5 36.4c-.7-.2-1.5-.4-2.2-.5-1.1-.2-2.1-.2-3.2-.2-2.1-8.3-7.9-16-9-24.7-.1-.9-.2-1.7-.2-2.6.1-5.5 1.5-10.9 1.3-16.4 0-1 0-2-.1-3 0-.3 0-.5-.1-.8-1.1-8-6.1-15-13.4-18.6-2.5-1.3-5.2-2.1-7.7-3.5-5.6-3.2-9.3-8.9-14.4-12.8-3.8-2.9-9.5-4.5-13.8-3-2.3.3-4.5.8-6.7 1.4-5.4 1.4-10.5 3.5-15.3 6.4-.7.4-1.3.8-1.9 1.3-1.4.9-2.4 2.1-3.1 3.6-.4 1.2-.6 2.6-.5 3.9 0 1 0 1.9.1 2.9-.3 16-17.5 28.4-18.9 44 0 .4-.1.7-.1 1.1v2.9c.3 6.9 3.8 13.2 4.5 20 .1.6.1 1.2.1 1.8-.1 3.1-.7 6.2-1.8 9.2-2.2.6-4.3 1.4-6.2 2.5-5.2 3.4-14.7 9.2-18.2 20.3-.9 2.9-1.3 5.9-1.3 8.9-.1 10.7-1 21.3-2.9 31.9-.4 2.6-1.1 5.3-1.8 7.8-.1.2-.1.5-.1.8l-2.1 27-.4 4.8-.5 6.8s.2.4.4 1.1c.3 1 .6 2.1.8 3.1.6 2.3.7 4.7.3 7-.2 1-.7 1.9-1.5 2.6l-.2.2c-.6.8-1.1 3.3-1.6 6.9-.2 1.4-.3 3-.5 4.7-1 10.6-1.6 26.6-2 39.8-.4 13-.5 23.3-.5 23.3 1.7 1.1 3.5 2 5.4 2.7-.1.3-.3.7-.4 1.1-1.7 4.4-2.8 9-3.3 13.7-.8 9.8 1.9 20.8 15.6 26.4.9.4 1.8.7 2.7.9 3 .8 5.2.6 6.8-.4 0 .6.1 1.2.1 1.7.1 2.4.3 4.7.3 6.5.4 11.7 3.3 32.2 3.3 32.2s1 8.4.1 10.9 0 12.5 0 12.5 3 5 0 7.5-3.9 15-3 16.7v.2c.7 4.2-3.1 65.8-3.1 65.8s-3.5 9.4-6.3 19.2c-2.7 9.5-4.8 19.4-2.3 21.3 1.3.9 4.2 1.6 7.9 2.1 0 .4-.1.8-.1 1.2-.4 4.4-.9 9.2-1.8 10.4-1.2 1.7-2.4 14.9-3 22l-.1.8c-1.3 3-2.4 6.2-3.2 9.3 0 0-9.6 24-6.3 30.2.3.6.7 1.1 1.2 1.5l.3.3c4.6 3.7 16.2 4.5 20.3 4.6l-.2 5.9v.2h5.5v-.2c0-.8.1-4.2.3-8.8 0-.8.1-1.7.1-2.6 0-.7.1-1.4.1-2.1 1.6-4.3 2.4-8.8 2.4-13.3 0-5.2.7-10.4 2.1-15.5.7-2.6 1.6-5.1 2.8-7.5 0 0 1.7-9-.7-15.4-.5-1.3-1.1-2.4-2-3.5v-1.9c-.1-4.3.4-8.6 1.3-12.8v-.2c.1-.3.2-.7.3-1l.1-.2 1.8.1c5.4.2 9.4.2 9.4.2s4.3-22.1 3.9-31.7v-1.3c-.2-9.5 2.6-22.5 2.6-22.5l3.5-33.8s-1.7-5.9 0-10c1.1-2.6 3.3-7.4 4.8-10.7.7-1.5 1.3-2.7 1.5-3.3l.1-.3c-.5-.2-1.1-.4-1.5-.8-1.4-.9-2.7-2.8 1.5-5.5 6.5-4.2 4.3-14.6 4.3-14.6s-1.9-3.8.3-7.1 0-15.9 0-15.9c1.8-3.3 3.3-6.8 4.4-10.5 1.6-5 5.7-29.5 7.6-41.2.6-3.9 1-6.4 1-6.4l.1.6.1.7.5 5.6.1.7 1 10.5s2 27.7.8 38.5v.2c-.1 1.1-.3 2.2-.7 3.3-2.3 5.2-1.9 25.9-1.8 30.4v.9c0 .2-1.6 4.1-1.2 7.1.1.8.4 1.5.8 2.1.6 1 .9 2.1.8 3.3v.1c0 .5-.1 1-.1 1.4-.3 1.9-.8 3.8-1.5 5.7 0 0-2.3 6.1-1.4 9.3.1.4.3.8.6 1.1.2.4.3.8.3 1.2v.1c.8 6.7-1.3 36.4-2.5 52.7-.5 6.4-.9 10.7-.9 10.7l-3.4 35.5.3.2c.4.3 1.1.8 2.1 1.3v.1l-.2 1.1c-.5 3.4-1.2 7.4-1.9 10.4-.1.2-.1.5-.2.7-1.3.2-2.6.7-3.7 1.5-7.3 12.9-4.1 23.2 0 26.2 1.2.8 1.9 3.2 2.5 6.1l1 12.9v1.5c0 .4.1.8.2 1.2l.3 3.9.4 5.4h3.3v-6.6h.2c5.2.2 13.7.4 17.4.1h.1c.4 0 .7-.1 1-.1.2 0 .4-.1.6-.2 2-.9 6.8-14.7 2.4-17.8s-5.3-12-5.3-12c-.4-1.2-.8-2.3-1.2-3.3v-.7c-.1-4.3-.1-8.9.5-11.5.7-2.8 1-8.6 1.1-13.7V742c.8-.2 1.5-.4 2.2-.7l.2-.1c1.3-.6 2.6-1.3 3.7-2.2l12.1-54.3 1.3-6.3 7.3-35.8s-2.6-12.5 0-14.6c1-.8 1.2-4 1.2-7.8-.1-6.6-1.2-14.8-1.2-14.8s3.5-5.4 5.2-8.8 0-12.1 0-12.1l3.5-20s3.9-24 13.4-44c7-14.8 2.5-54.6-2-75.8-.1-.5-.2-1.1-.4-1.6v-.1c2.1-1.1 4.8-2.3 7.6-3.7l1.1-.5c3.5-1.7 7.3-3.4 10.7-4.8l.2-.1c2.4-1.1 4.9-2 7.4-2.8.7-.2 1.5-.4 2.3-.5 6.5-.3-11.7-32-11.7-32zm-135.3 68h1.8l-.6 1.2c-.1.2-.2.5-.3.7-.7 1.4-1.3 2.8-1.8 4.1.2-1.5.5-3.1.7-4.8.1-.5.1-.9.2-1.2zm-4.9 26v-.1l-.2-.5c-.1-.3-.2-.6-.3-1 .6-.2 1.3-.4 1.9-.6h.1v.3c0 .5-.1.9-.2 1.4v.2c0 .4-.1.7-.1 1.1l-.3 2.1c-.2-.6-.4-1.3-.6-1.9-.1-.3-.2-.7-.3-1z" fill="url(#SVGID_1_)"/><path class="st10" d="M859 238.3l-10.8 3.8-3.9-6.5c-3-5-7.2-11.8-10.2-16.8-5.4-8.8 1.7-22.1 1.7-22.1s1.2-13.3 5.8-17.5 5.8 17.5 5.8 17.5c18.3 8.3 8.5 27.9 8.5 27.9l1.8 7.8 1.3 5.9z"/><path class="st11" d="M859 238.3l-10.8 3.8-3.9-6.5v-.6s6.2-4.3 13.4-2.6l1.3 5.9z"/><path class="st12" d="M841.6 282.1l5.4-4.5-2.7-41.2s14-9.6 24.4 5.4c0 0-.4 9.2 0 11.7s-2.9 5 0 7.5 0 10.8 0 10.8 3.3 5.8 5.4 7.5 4.2 15.4 0 18.3-12.1 9.6-12.1 12.5-10 10-10 10l-8.8-11.7-1.6-26.3z"/><path class="st10" d="M724.6 532.3c-20.2-8.6-15.7-29.5-11.9-40 .8-2.1 1.7-4.2 2.7-6.2l11.3-6.9s2.3 5.9 4.8 13.8c5.7 18.4 12.3 47.5-6.9 39.3zm27.7 190.8c-1.4 2.7-2.4 5.5-3 8.4-1 4.7-1.4 9.5-1.3 14.3.1 3.3.4 5.5.4 5.5L726 766.9s.1-1.8.3-4.5c.6-7.1 1.8-20.2 2.9-21.9.8-1.2 1.3-5.9 1.7-10.3s.5-8.3.5-8.3 27-10.2 20.9 1.2zm53.1 11.1s0 4.3-.2 9.3-.5 10.9-1.1 13.7c-.6 2.5-.6 7.2-.5 11.4.2 5 .5 9.5.5 9.5s-23-21.7-20.6-23.4c.6-.5 1.3-2.3 1.8-4.8.7-3 1.3-7 1.8-10.4.6-4 .9-7.3.9-7.3l17.4 2z"/><path class="st11" d="M752.3 723.1c-1.4 2.7-2.4 5.5-3 8.4-6.2-.2-12.3-.6-18.4-1.4.3-4.3.5-8.3.5-8.3s27-10.1 20.9 1.3zm53.1 11.1s0 4.3-.2 9.3c-7.2 1.8-14.5-1.8-18.1-4 .6-4 .9-7.3.9-7.3l17.4 2z"/><path d="M852.4 521.6c-9.2 20-12.9 43.7-12.9 43.7l-3.3 20s1.7 8.7 0 12.1-5 8.7-5 8.7 2.5 20.4 0 22.5 0 14.6 0 14.6l-8.3 42-11.7 54.1c-11.2 9.2-26.2-2.5-26.2-2.5l3.3-35.4s5-62 2.9-64.5.8-10.4.8-10.4 2.9-7.5.8-10.4.4-9.2.4-9.2-.8-25.4 1.7-31.2 0-41.9 0-41.9l-1-11.2-.6-6.2-.1-.6s-.4 2.5-1 6.4c-1.8 11.8-5.8 36.1-7.3 41.1-1.1 3.6-2.5 7.1-4.3 10.4 0 0 2.2 12.5 0 15.8s-.3 7.1-.3 7.1 2.1 10.4-4.2 14.6 0 6.2 0 6.2-4.6 10-6.2 14.2 0 10 0 10l-3.3 33.7s-2.9 14.2-2.5 23.7-3.8 31.7-3.8 31.7-32.1 0-37-3.8 8.3-40.4 8.3-40.4 3.8-64.1 2.9-65.8 0-14.2 2.9-16.7 0-7.5 0-7.5-.8-10 0-12.5-.1-10.8-.1-10.8-2.8-20.4-3.2-32.1-2.5-37.9-2.5-37.9 2.2-16.2 2.5-23.9c.1-2.8 1.4-6.4 3-9.7 1.8-3.8 3.9-7.4 6.2-10.9 0 0 98.7-29.1 102.8-26.2 1.1.8 2.7 6 4.3 13.6 4.4 21 8.7 60.7 2 75.5z" fill="#605d82"/><circle class="st10" cx="791.6" cy="238.3" r="28.7"/><path class="st11" d="M850.4 446c-3.3 1.7-5.5 2.9-5.5 2.9S798.3 471 785 469.7c-10.3-1-36.5-.4-47.9-.1 1.8-3.8 3.9-7.4 6.2-10.9 0 0 98.7-29.1 102.8-26.2 1.2.7 2.8 5.9 4.3 13.5z"/><path class="st12" d="M771.6 284.2s-26.7 4.2-32.9 8.3-18.7 12.1-18.7 29.2-2.9 34.5-4.6 39.5 26.3 45.4 26.3 45.4l-10 61.2s40-1.2 53.3 0 59.9-20.8 59.9-20.8 27.5-14.6 33.3-15-11.7-32.1-11.7-32.1-27.1-51.2-22.5-59.5 8-20.4 8-20.4l-5-42.5s-7.5-2.5-13.7 2.1-27.5 2.1-27.5 2.1l-34.2 2.5z"/><path class="st11" d="M726.5 358.3l-10.4 2.9-2.9 39.1s3.8 10.4 0 13.7-4.6 74.5-4.6 74.5 12.1 8.8 26.2 2.1c0 0-2.1-7.9 4.2-36.6s6.2-43.3 6.2-43.3 0-35.8 2.9-41.6 0-20.4 0-20.4-5.8-7.9-5.4-10.8-16.2 20.4-16.2 20.4z"/><path class="st11" d="M731.5 493c-6.1 2.1-12.8 1.8-18.8-.7.8-2.1 1.7-4.2 2.7-6.2l11.3-6.9c0 .1 2.3 5.9 4.8 13.8z"/><path class="st12" d="M725.8 358.3l-10.4 2.9-2.9 39.1s3.8 10.4 0 13.7-4.6 74.5-4.6 74.5 12.1 8.8 26.2 2.1c0 0-2.1-7.9 4.2-36.6s6.3-43.3 6.3-43.3 0-35.8 2.9-41.6 0-20.4 0-20.4-5.8-7.9-5.4-10.8-16.3 20.4-16.3 20.4z"/><path class="st11" d="M832.4 364.6s-5.4 46.6-21.2 55.4c0-.1 35.4-10.1 21.2-55.4zm-79.5 4.1s19.6 9.6 15 16.2-15-16.2-15-16.2zm0 19.2s12.5 12.9 10 17.5-10-17.5-10-17.5zm100.8-107s4.9 8.3 5.4 13.7-5.4-13.7-5.4-13.7zm0-11.3s2.5-2.1 8.7 0-8.7 0-8.7 0zM829.6 513c-10.3 1.5-20.8.1-30.5-3.9l-5.3 13.4-.6-6.2c.8-5.2 2.5-10.8 5.8-12.2.2 0 11.7 9.2 30.6 8.9zm-85.4 17.5s25.6 5.3 32.8 4.4l-32.8-4.4zm2.7 6.7s10.9-.5 16.4 1.7l-16.4-1.7zm1.2 4.5c5 1.1 10 1.7 15.1 2l-15.1-2zm-.6 57.3c.5-.3 21.9-5.3 24.5-1.7l-24.5 1.7zm0 6.6s18.6-2.2 19 0-19 0-19 0zm0 5.9s19.8-4.1 22.2-3.1-22.2 3.1-22.2 3.1zm.9 139.9l-22.5 15.5s.1-1.8.3-4.5c5-12.3 11.5-18.8 11.5-18.8 5.1-1.3 8.3-.1 10.3 2.3.1 3.3.4 5.5.4 5.5z"/><path class="st12" d="M750.6 765.3c-3.2 7.2-4.8 15.1-4.7 23 .1 6.5-1.5 12.9-4.8 18.5-.5.8-1 1.5-1.6 2.3 0 0-15.6-.1-21.1-4.7-.6-.5-1.1-1.1-1.5-1.7-3.1-6.2 6.1-30.1 6.1-30.1 4.8-18.4 14.7-28.3 14.7-28.3 17.6-4.6 12.9 21 12.9 21z"/><path class="st11" d="M741.2 806.8c-.5.8-1 1.5-1.6 2.3 0 0-15.6-.1-21.1-4.7 2.7-8.9 11.3-35.8 15.3-31.3 3.8 4.3 6.4 25 7.4 33.7z"/><path class="st12" d="M739 774.8l-1.1 40.3h5.2s.8-35.4 3.2-40.3-7.3 0-7.3 0z"/><path class="st11" d="M804.2 778.1s-23-21.7-20.6-23.4c.6-.5 1.3-2.3 1.8-4.8 4.4-.8 12 1.1 18.3 18.7.1 5 .5 9.5.5 9.5z"/><path class="st12" d="M807.6 802.3c-.2.1-.4.1-.5.2-2.7.5-12.7.2-18.2 0-2.1-.1-3.8-1.8-3.8-3.9 0-1.5 0-3.3-.1-5.3-.3-6.2-1-13.5-3.2-15.1-3.9-3-7-13.2 0-26.1 0 0 13.4-10.2 23.1 20.6 0 0 .9 8.8 5.2 11.9s-.6 16.8-2.5 17.7z"/><path class="st11" d="M807 802.4c-2.7.5-12.7.2-18.2 0-2.1-.1-3.8-1.8-3.8-3.9 0-1.5 0-3.3-.1-5.3 1.7-7.5 4.1-15.1 7.3-16.9-.1 0 9.4-1 14.8 26.1z"/><path class="st12" d="M783.4 775.4l2.5 33.6h3.2v-36.4z"/><path class="st11" d="M791.2 192.6c-9.1.7-17.9 3.5-25.6 8.2-2 1.2-4 2.7-4.8 4.8-.7 1.9-.4 4-.4 6 .3 17.2-18.9 30.3-18.3 47.5.2 6.8 3.7 13.2 4.3 20 1 11.4-5.7 21.8-12.1 31.2 6.6.4 13.2-1.8 18.3-6 6.8 22.7 7.7 46.7 2.6 69.8h9.2c.9-.1 1.8.1 2.7.3.8.4 1.5.9 2.1 1.6 8.6 8.6 14.4 21.2 11.1 32.9l19.6-7.4c4.7-1.8 9.5-3.5 13.5-6.5s7.5-7.1 8.4-12c.5-3 .4-6.6 2.8-8.3 1.2-.7 2.5-1.1 3.9-1.4 5.4-1.9 7.8-8.1 8.9-13.7 1.3-6.9 1.8-13.9 1.3-20.9-.9-11.7-4.3-23.6-1.5-35 1.6-6.4 5.2-12.4 5.5-19 .5-10.9-8.1-20.3-9.3-31.2-.9-7.6 1.8-15.2 1-22.8-1-7.9-5.8-14.9-12.9-18.6-2.4-1.2-5-2.1-7.4-3.4-5.4-3.1-8.9-8.8-13.8-12.7s-13.1-5.4-16.8-.3l7.7-3.1z"/><path d="M791.2 191.3c-9.1.7-17.9 3.5-25.6 8.3-2 1.2-4 2.7-4.8 4.9-.7 1.9-.4 4-.4 6 .3 17.2-18.9 30.3-18.3 47.5.2 6.8 3.7 13.2 4.3 20 1 11.4-5.7 21.8-12.1 31.2 6.6.4 13.2-1.8 18.3-6 6.8 22.7 7.7 46.7 2.6 69.8h9.2c.9-.1 1.8.1 2.7.3.8.4 1.5.9 2.1 1.6 8.6 8.6 14.4 21.2 11.1 32.9l19.6-7.4c4.7-1.8 9.5-3.5 13.5-6.5s7.5-7.1 8.4-12c.5-3 .4-6.6 2.8-8.3 1.2-.7 2.5-1.1 3.9-1.4 5.4-1.9 7.8-8.1 8.9-13.7 1.3-6.9 1.8-13.9 1.3-20.9-.9-11.7-4.3-23.6-1.5-35 1.6-6.4 5.2-12.4 5.5-19 .5-10.9-8.1-20.3-9.3-31.2-.9-7.6 1.8-15.2 1-22.8-1-7.9-5.8-14.9-12.9-18.6-2.4-1.2-5-2.1-7.4-3.4-5.4-3.1-8.9-8.8-13.8-12.7s-13.1-5.4-16.8-.3l7.7-3.3z" fill="#4a4347"/><path d="M760.3 206.2c0 .4-.1.8-.1 1.2.1-.4.1-.8.1-1.2zm72.8 40c.4-5.3 1.5-10.6 1.1-15.9-.4 5.3-1.6 10.7-1.1 15.9zm-86.8 26.4c-.6-6.2-3.5-12-4.2-18.2-.1 1.1-.2 2.3-.2 3.4.2 6.8 3.6 13.1 4.3 19.8.3-1.7.3-3.4.1-5zm90.7 24.6c-.9 4.1-1.3 8.3-1 12.4.1-2.4.4-4.8 1-7.2 1.6-6.4 5.2-12.4 5.5-19 0-1.2 0-2.4-.2-3.5-.7 6-3.8 11.5-5.3 17.3zm-84.5.6c-4.2 3.5-9.3 5.6-14.8 6-1.1 1.8-2.3 3.5-3.5 5.2 6.6.4 13.2-1.8 18.3-6 3.6 12.1 5.6 24.7 5.8 37.4.3-14.5-1.7-28.8-5.8-42.6zm84.7 55.2c-1.1 5.6-3.5 11.8-8.9 13.7-1.3.3-2.6.8-3.9 1.4-2.5 1.8-2.3 5.4-2.8 8.3-.9 4.9-4.3 9.1-8.4 12s-8.8 4.7-13.5 6.5l-18.7 7c-.1 1.9-.4 3.7-.9 5.6l19.6-7.4c4.7-1.8 9.5-3.5 13.5-6.5s7.5-7.1 8.4-12c.5-3 .3-6.6 2.8-8.3 1.2-.7 2.5-1.1 3.9-1.4 5.4-1.9 7.8-8.1 8.9-13.7 1.1-5.8 1.6-11.8 1.4-17.7-.1 4.3-.6 8.4-1.4 12.5zm-68.1 16.4c-.6-.7-1.3-1.2-2.1-1.6-.9-.3-1.8-.4-2.7-.3h-8.2c-.3 1.8-.7 3.5-1 5.2h9.2c.9-.1 1.8.1 2.7.3.8.4 1.5.9 2.1 1.6 6.3 6.3 11.1 14.7 11.9 23.4 1-10.4-4.3-21-11.9-28.6z" opacity=".1"/><path class="st11" d="M723.4 403.5s7.4-3.1 9.1 0-9.1 0-9.1 0zm2.6 5.3s7.4-3.1 9.1 0-9.1 0-9.1 0z"/><path class="st16" d="M1002.9 747.5s5.5 7.2-2.5 18-14.7 20-12 26.8c0 0 12.1-20.2 22-20.4s3.3-12.3-7.5-24.4z"/><path class="st11" d="M1002.9 747.5c.5.7.9 1.5 1.1 2.3 9.6 11.3 14.8 21.8 5.5 22.1-8.6.3-18.9 15.7-21.4 19.5l.3.9s12.1-20.2 22-20.4 3.3-12.3-7.5-24.4z"/><path class="st17" d="M1013.1 756.6c0 2.5-.3 4.6-.6 4.6s-.6-2-.6-4.6.3-1.3.7-1.3.5-1.2.5 1.3z"/><path class="st17" d="M1016.6 759.7c-2.2 1.2-4.2 1.9-4.3 1.6s1.5-1.5 3.7-2.8 1.3-.3 1.5 0 1.3 0-.9 1.2z"/><path class="st16" d="M973.8 747.5s-5.5 7.2 2.5 18 14.7 20 12 26.8c0 0-12.1-20.2-22-20.4s-3.3-12.3 7.5-24.4z"/><path class="st11" d="M973.8 747.5c-.5.7-.9 1.5-1.1 2.3-9.6 11.3-14.7 21.8-5.5 22.1 8.6.3 19 15.7 21.4 19.5l-.3.9s-12.1-20.2-22-20.4-3.3-12.3 7.5-24.4z"/><path class="st17" d="M963.6 756.6c0 2.5.3 4.6.6 4.6s.6-2 .6-4.6-.3-1.3-.7-1.3-.5-1.2-.5 1.3z"/><path class="st17" d="M960.1 759.7c2.2 1.2 4.2 1.9 4.3 1.6s-1.5-1.5-3.7-2.8-1.3-.3-1.5 0-1.3 0 .9 1.2z"/><path class="st18" d="M965.4 791.3s15.4-.5 20-3.8 23.6-7.2 24.8-2 23.1 26.3 5.8 26.4c-17.3.1-40.3-2.7-44.9-5.5s-5.7-15.1-5.7-15.1z"/><path class="st19" d="M1016.2 810.2c-17.3.1-40.3-2.7-44.9-5.5-3.5-2.2-4.9-9.8-5.4-13.4h-.5s1 12.4 5.6 15.2 27.6 5.7 44.9 5.5c5 0 6.7-1.8 6.6-4.5-.7 1.7-2.6 2.7-6.3 2.7z"/><path fill="#2b2b3d" d="M118.6 16.7h872v26.2h-872z"/><circle class="st7" cx="136.1" cy="29.8" r="5.6"/><circle class="st7" cx="153.1" cy="29.8" r="5.6"/><circle class="st7" cx="170.1" cy="29.8" r="5.6"/><path class="st6" d="M459.1 778.8s-42.3-2.5-37.3 27.1c0 0-1 5.2 3.8 7.6 0 0 .1-2.2 4.3-1.5 1.5.3 3.1.3 4.6.2 2.1-.1 4-1 5.6-2.3 0 0 11.9-4.9 16.5-24.3 0 0 3.4-4.2 3.3-5.3l-7.1 3s2.4 5.1.5 9.4c0 0-.2-9.2-1.6-9-.3 0-3.7 1.8-3.7 1.8s4.2 9 1 15.5c0 0 1.2-11-2.3-14.8l-5 2.9s4.9 9.3 1.6 16.8c0 0 .9-11.6-2.6-16.1l-4.5 3.5s4.6 9.1 1.8 15.4c0 0-.4-13.5-2.8-14.5 0 0-4 3.5-4.6 5 0 0 3.1 6.6 1.2 10.1 0 0-1.2-9-2.2-9 0 0-4 6-4.4 10 0 0 .2-6.1 3.4-10.6-2.3.4-4.4 1.5-6.1 3.1 0 0 .6-4.2 7-4.6 0 0 3.3-4.5 4.1-4.8 0 0-6.4-.5-10.3 1.2 0 0 3.4-4 11.5-2.2l4.5-3.7s-8.4-1.2-12 .1c0 0 4.1-3.5 13.2-1l4.9-2.9s-7.2-1.5-11.5-1c0 0 4.5-2.4 12.9.2l3.5-1.6s-5.3-1-6.8-1.2-1.6-.6-1.6-.6c3.3-.6 6.8-.2 9.9 1.1 0 .2 7.5-2.5 7.3-3z"/><ellipse class="st0" cx="430" cy="816.1" rx="29.9" ry="5.1"/><path class="st6" d="M385.1 780.4s-23.8-1.4-21 15.3c-.3 1.7.6 3.5 2.1 4.3 0 0 0-1.2 2.4-.8.9.1 1.7.2 2.6.1 1.2-.1 2.3-.5 3.2-1.3 0 0 6.7-2.8 9.3-13.7 0 0 1.9-2.4 1.9-3l-4 1.7s1.4 2.9.3 5.3c0 0-.1-5.2-.9-5.1-.1 0-2.1 1-2.1 1s2.4 5.1.6 8.7c0 0 .7-6.2-1.3-8.4l-2.8 1.7s2.8 5.2.9 9.5c0 0 .5-6.5-1.5-9.1l-2.6 2s2.6 5.1 1 8.7c0 0-.2-7.6-1.6-8.2-1 .8-1.8 1.8-2.6 2.8 0 0 1.8 3.7.7 5.7 0 0-.7-5.1-1.2-5.1 0 0-2.2 3.4-2.5 5.7.1-2.1.8-4.2 1.9-6-1.3.2-2.5.9-3.4 1.8 0 0 .3-2.4 4-2.6 0 0 1.9-2.5 2.4-2.7 0 0-3.6-.3-5.8.7 0 0 1.9-2.2 6.5-1.2l2.5-2.1s-4.8-.7-6.8.1c0 0 2.3-2 7.5-.5l2.8-1.7c-2.1-.5-4.3-.7-6.5-.6 0 0 2.5-1.4 7.3.1l2-.9s-3-.6-3.8-.7-.9-.3-.9-.3c1.9-.3 3.8-.1 5.6.6-.3 0 3.8-1.5 3.8-1.8z"/><ellipse class="st0" cx="368.6" cy="801.4" rx="16.9" ry="2.8"/><path class="st6" d="M430.4 745s-28.8-1.7-25.4 18.4c-.4 2.1.7 4.2 2.5 5.2 0 0 0-1.5 3-1 1 .2 2.1.2 3.1.2 1.4-.1 2.8-.6 3.8-1.6 0 0 8.1-3.3 11.2-16.6 0 0 2.3-2.9 2.2-3.6l-4.9 2.1s1.7 3.5.4 6.4c0 0-.2-6.3-1.1-6.1-.2 0-2.5 1.2-2.5 1.2s2.9 6.1.7 10.5c0 0 .8-7.5-1.6-10.1l-3.4 2s3.3 6.3 1.1 11.5c0 0 .6-7.9-1.8-11l-3.1 2.4s3.1 6.2 1.2 10.5c0 0-.3-9.2-1.9-9.9 0 0-2.7 2.4-3.1 3.4 0 0 2.1 4.5.8 6.9 0 0-.8-6.1-1.5-6.2 0 0-2.7 4.1-3 6.8.1-2.6.9-5.1 2.3-7.2-1.6.3-3 1-4.1 2.2 0 0 .4-2.9 4.8-3.1 0 0 2.2-3.1 2.8-3.3 0 0-4.4-.4-7 .8 0 0 2.3-2.7 7.8-1.5l3.1-2.5s-5.7-.8-8.2.1c0 0 2.8-2.4 9-.6l3.3-2s-4.9-1-7.8-.7c0 0 3.1-1.7 8.8.1l2.4-1.1s-3.6-.7-4.6-.8-1.1-.4-1.1-.4c2.3-.4 4.6-.1 6.7.7.1 0 5.2-1.8 5.1-2.1z"/><ellipse class="st0" cx="410.6" cy="770.3" rx="20.4" ry="3.4"/><ellipse class="st0" cx="620.5" cy="771.8" rx="29.9" ry="5.1"/><path class="st18" d="M600.5 748.3s17.1-.5 22.2-4.2 26.3-8 27.5-2.2 25.7 29.2 6.4 29.4-44.8-3-49.9-6.1-6.2-16.9-6.2-16.9z"/><path class="st19" d="M656.9 769.2c-19.3.2-44.8-3-49.9-6.1-3.9-2.4-5.5-10.9-6-14.9h-.6s1.1 13.8 6.2 16.9 30.6 6.3 49.9 6.1c5.6 0 7.5-2 7.4-5-.7 1.9-2.8 3-7 3z"/></svg>