<svg version="1.1" id="ecd5be80-3d6a-430c-932f-46c231ffbb64" xmlns="http://www.w3.org/2000/svg" x="0" y="0" viewBox="0 0 1144 673.9" xml:space="preserve"><style>.st0{opacity:4.000000e-02;fill:#e6e6e6;enable-background:new}.st4{fill:#3f3d56}.st5{opacity:.1;enable-background:new}.st6{fill:#5596e6}.st7{fill:#fff}.st8{fill:#434175}.st12{fill:#6c63ff}.st15{fill:#407ebc}.st18{fill:#4c4981}.st19{fill:#ae6e79}.st20{fill:#444053}</style><ellipse class="st0" cx="241" cy="658.4" rx="147.7" ry="10.5"/><path d="M1144 396.2c.1 33.1-9 65.6-26.1 93.9 0 34.6-16.1 66-42.3 88.9-6.6 5.7-13.6 10.8-21.1 15.3-.3.2-.6.4-.9.5-.6.3-1.1.7-1.7 1l-.5.3c-24.8 13.8-52.7 21-81.1 20.8H217.2c-6 0-11.9-.2-17.8-.7-20.9-1.6-41.5-6.4-61.1-14.1-3.8-1.5-7.6-3.1-11.2-4.9-1.7-.8-3.5-1.7-5.2-2.5-1.1-.5-2.1-1.1-3.2-1.7-12.3-6.5-23.9-14.3-34.5-23.4-34-29.2-55.1-69.6-55.1-114.2C10 426.1-.1 391.8 0 356.7c0-99.1 79.2-179.5 177-179.5 3 0 6 .1 9 .3.4 0 .9 0 1.3.1 16.5-28.1 38.5-53.9 65-76.6C324.5 39 430.1 0 547.7 0c98.9 0 189.2 27.5 258.4 73 26.2-14.8 55.8-22.6 85.9-22.5 97.7 0 177 80.4 177 179.5 0 6.3-.3 12.5-1 18.8 47.8 33.9 76.2 88.9 76 147.4z" opacity=".04" fill="#e6e6e6"/><path d="M958 119.3v479.2c0 10.2-8.2 18.4-18.4 18.4H204.4c-1.7 0-3.4-.2-5.1-.7-7.9-2.3-13.4-9.5-13.3-17.7v-421c.4 0 .9 0 1.3.1 16.5-28.1 38.5-53.9 65-76.6h687.3c10.2-.1 18.4 8.2 18.4 18.3z" fill="#2d2c3f"/><path d="M260 240.9h652M260 361.4h652M260 481.9h652M260 605.4h652" opacity=".7" fill="none" stroke="#3f3d56" stroke-linecap="round" stroke-miterlimit="10"/><ellipse class="st0" cx="963" cy="663.4" rx="147.7" ry="10.5"/><path class="st4" d="M532.6 163.1h101.9c9.9 0 18 8 18 18 0 9.9-8 18-18 18H532.6c-9.9 0-18-8-18-18 .1-9.9 8.1-18 18-18z"/><path class="st5" d="M535.6 169.2h95.9c6.6 0 12 5.4 12 12s-5.4 12-12 12h-95.9c-6.6 0-12-5.4-12-12 .1-6.7 5.4-12 12-12z"/><path class="st6" d="M607.9 170.5h22c5.9 0 10.7 4.8 10.7 10.6 0 5.9-4.8 10.6-10.7 10.6h-22c-5.9 0-10.7-4.8-10.7-10.6 0-5.9 4.8-10.6 10.7-10.6z"/><circle class="st7" cx="618.5" cy="181.1" r="6.7"/><path class="st4" d="M532.6 400.2h101.9c9.9 0 18 8 18 18 0 9.9-8 18-18 18H532.6c-9.9 0-18-8-18-18 .1-10 8.1-18 18-18z"/><path class="st5" d="M535.6 406.2h95.9c6.6 0 12 5.4 12 12s-5.4 12-12 12h-95.9c-6.6 0-12-5.4-12-12 .1-6.6 5.4-12 12-12z"/><path class="st6" d="M607.9 407.5h22c5.9 0 10.7 4.8 10.7 10.6 0 5.9-4.8 10.6-10.7 10.6h-22c-5.9 0-10.7-4.8-10.7-10.6s4.8-10.6 10.7-10.6z"/><circle class="st7" cx="618.5" cy="418.2" r="6.7"/><path class="st4" d="M532.6 518.7h101.9c9.9 0 18 8 18 18 0 9.9-8 18-18 18H532.6c-9.9 0-18-8-18-18 .1-9.9 8.1-18 18-18z"/><path class="st5" d="M535.6 524.7h95.9c6.6 0 12 5.4 12 12s-5.4 12-12 12h-95.9c-6.6 0-12-5.4-12-12 .1-6.6 5.4-12 12-12z"/><path class="st6" d="M607.9 526h22c5.9 0 10.7 4.8 10.7 10.7 0 5.9-4.8 10.7-10.7 10.7h-22c-5.9 0-10.7-4.8-10.7-10.7 0-5.9 4.8-10.7 10.7-10.7z"/><circle class="st7" cx="618.5" cy="536.7" r="6.7"/><path class="st4" d="M532.6 281.7h101.9c9.9 0 18 8 18 18 0 9.9-8 18-18 18H532.6c-9.9 0-18-8-18-18 .1-10 8.1-18 18-18z"/><path class="st5" d="M535.6 287.7h95.9c6.6 0 12 5.4 12 12s-5.4 12-12 12h-95.9c-6.6 0-12-5.4-12-12 .1-6.7 5.4-12 12-12z"/><path class="st6" d="M559.3 310.3h-22c-5.9 0-10.7-4.8-10.7-10.6 0-5.9 4.8-10.6 10.7-10.6h22c5.9 0 10.7 4.8 10.7 10.6-.1 5.9-4.8 10.6-10.7 10.6z"/><circle class="st7" cx="548.6" cy="299.7" r="6.7"/><path class="st8" d="M379.5 181c0 16.6-8.7 31.9-22.9 40.4l-.6.4-1.2.7-1.1.6-.2.1c-.5.2-1 .5-1.5.7-1.6.7-3.2 1.4-4.9 1.9-1.1.4-2.2.7-3.3.9-2.3.6-4.6.9-6.9 1.1-1.4.1-2.9.2-4.3.2-1.7 0-3.5-.1-5.2-.3h-.3c-.6-.1-1.2-.1-1.8-.2-1.9-.3-3.7-.7-5.6-1.2l-.9-.3-.8-.3-.3-.1c-1.6-.5-3.2-1.2-4.8-1.9-2.7-1.2-5.2-2.7-7.6-4.4l-.1-.1-.1-.1-.9-.6-.6-.5c-1.3-1-2.5-2-3.6-3.2-1.1-1-2.1-2.1-3.1-3.3-16.9-19.7-14.7-49.4 5-66.3s49.4-14.7 66.3 5c7.3 8.6 11.3 19.5 11.3 30.8z"/><linearGradient id="SVGID_1_" gradientUnits="userSpaceOnUse" x1="353.471" y1="167.02" x2="353.471" y2="100.106" gradientTransform="translate(-28 60.96)"><stop offset="0" stop-color="gray" stop-opacity=".25"/><stop offset=".54" stop-color="gray" stop-opacity=".12"/><stop offset="1" stop-color="gray" stop-opacity=".1"/></linearGradient><path d="M354.7 222.2l-1.2.4c-.7 0-1.3-.2-1.8-.6l-.4-.4c-.2-.3-.6-.5-.9-.5h-.6c-.1-.1-.2-.2-.2-.4-.2-.9-.4-1.8-.5-2.7-.1-1-.1-2 0-3v-2.4c.1-.9.2-1.8.2-2.7 0-1 0-1.9-.3-2.9-.1-.5-.3-1-.6-1.5-.2-1.4-.4-2.7-.5-4-.1-1-.3-2-.5-3 0-.2.1-.3.1-.5.2-1.7-.4-3.3-1.7-4.4-.4-.3-.8-.6-1.3-.8-.4-.2-.8-.3-1.2-.4l-6.3-2c-.6-.9-1.1-1.8-1.7-2.7-.5-.8-.9-1.7-1.3-2.5 4.2-3.2 5.4-9.1 2.6-13.6-.1-.2-.2-.3-.3-.5 0-.8 0-1.6-.3-2.3v-.1c-.1-.6-.4-1.2-.9-1.7l-.2-.2-.3-.3c-.4-.4-.9-.8-1.4-1.2-2.1-1.6-4.9-3.5-7.4-4.1-1.3-.3-2.6-.3-3.8 0l-.2-.1-.4-.1.3.1c-1.3-.3-2.7-.3-4.1.1-1.6.5-2.2 1.9-2.9 3.3-1.1 2.4-2.8 4.4-5 5.9-1.4.9-3 1.8-3.7 3.3s-.2 3.1-.1 4.7c.4 4.3-1.4 8.5-4.8 11.3-1.9 1.5-4.4 2.8-4.8 5.1-.3 1.7.6 3.4 1.4 4.9 1.5 3.3 2 7.4.3 10.6-.2.3-.4.6-.5.9 1 1.2 2 2.3 3 3.3 1.1 1.1 2.3 2.2 3.6 3.2l.6.5.9.6.1.1.1.1c2.4 1.7 4.9 3.2 7.5 4.5 0-.1 0-.1.1-.2v.2c1.5.7 3.1 1.4 4.7 1.9l.3.1.8.3.9.3c1.8.5 3.6.9 5.5 1.2.6.1 1.2.2 1.8.2h.3c1.7.2 3.4.3 5.1.3 1.4 0 2.8-.1 4.2-.2 2.3-.2 4.6-.6 6.8-1.2.3-.1.5-.1.8-.2.8-.2 1.6-.5 2.4-.7 1.6-.5 3.3-1.2 4.8-1.9.5-.2 1-.5 1.5-.7l.2-.1 1.2-.6c0 .1 0 .1 0 0zm-40-1.3v-1.1c0-.2.1-.3.2-.4v.5c-.1.3-.1.6-.2 1z" fill="url(#SVGID_1_)"/><path class="st6" d="M354.7 222.3l-1.2.4c-.7 0-1.3-.2-1.9-.6l-.4-.4c-.2-.3-.6-.5-.9-.5h-.6c-.1-.1-.2-.2-.2-.4-.2-.9-.4-1.8-.5-2.7-.1-1-.1-2 0-3v-2.4c.1-.9.2-1.8.2-2.7s0-1.9-.3-2.8c-.1-.5-.3-1-.6-1.5-.2-1.3-.4-2.7-.5-4-.1-1-.3-2-.5-3 0-.2.1-.3.1-.5.2-1.6-.4-3.3-1.8-4.3-.4-.3-.8-.6-1.3-.8-.4-.2-.8-.3-1.2-.4l-6.4-2c-.6-.9-1.2-1.7-1.7-2.6-.5-.8-1-1.6-1.3-2.5 4.3-3.1 5.5-9 2.6-13.5-.1-.2-.2-.3-.3-.5 0-.8 0-1.6-.3-2.3v-.1c0-.2-.1-.5-.2-.7-.2-.3-.4-.7-.6-1l-.2-.2-.3-.3c-.4-.4-.9-.8-1.4-1.1-2.1-1.5-4.9-3.4-7.5-4-1.3-.3-2.6-.3-3.9 0l-.2-.1-.4-.1.3.1c-1.4-.3-2.8-.3-4.1.1-1.7.5-2.3 1.8-3 3.3-1.1 2.3-2.9 4.4-5 5.8-1.4.9-3 1.7-3.7 3.3s-.2 3.1-.1 4.6c.4 4.3-1.5 8.4-4.8 11.1-1.9 1.5-4.4 2.7-4.8 5.1-.3 1.7.7 3.3 1.4 4.9 1.5 3.3 2 7.3.3 10.5-.2.3-.4.6-.5.9 1 1.1 2 2.2 3.1 3.3 1.2 1.1 2.4 2.2 3.6 3.2l.6.5.9.6.1.1.1.1c2.4 1.7 5 3.2 7.6 4.4 0-.1 0-.1.1-.2.1-.2.1-.4.2-.5.4-.6.7-1.3.9-2v-1.1c0-.2.1-.3.2-.4.1-.2.3-.4.4-.6.1-.1.1-.2.2-.3.1.1.2.3.3.5.4.5.7 1.1 1.1 1.7.3.4.5.8.5 1.3-.1.3-.1.6 0 .8.1.4.6.6.5 1-.2.4-.2.8 0 1.2.1.2.3.4.4.6l.3.1.8.3.9.3c1.8.5 3.7.9 5.6 1.2.6.1 1.2.2 1.8.2h.3c1.7.2 3.4.3 5.2.3 1.5 0 2.9-.1 4.3-.2 2.3-.2 4.7-.6 6.9-1.1.3-.1.5-.1.8-.2.8-.2 1.6-.5 2.5-.7 1.7-.5 3.3-1.2 4.9-1.9.5-.2 1-.4 1.5-.7l.2-.1.9-.8z"/><path class="st8" d="M378.5 300c0 7.9-2 15.6-5.8 22.6-.8 1.5-1.7 2.9-2.6 4.2-.9 1.4-2 2.7-3.1 4-.1.1-.1.2-.2.2-.4.5-.9 1-1.3 1.5l-.5.5c-.5.5-1 1-1.6 1.5l-.2.2c-.3.2-.5.5-.8.7-1.4 1.2-2.9 2.4-4.4 3.4-.8.5-1.6 1.1-2.4 1.5l-.6.4-1.2.7-.8.4-.3.2-.2.1c-.3.2-.7.3-1 .5-.2.1-.3.2-.5.2l-1 .4c-.9.4-1.8.7-2.7 1.1l-1.2.4h-.1c-.1 0-.2.1-.3.1l-.2.1-.7.2-.2.1-.3.1-.4.1c-.1 0-.2.1-.3.1l-.7.2c-.5.1-1 .3-1.6.4-1.8.4-3.6.6-5.4.8-1.4.1-2.7.2-4.1.2h-.3c-1.3 0-2.6-.1-3.9-.2l-1.1-.1h-.7l-1.6-.2-1.3-.2-.3-.1c-.6-.1-1.2-.2-1.8-.4h-.1c-.7-.1-1.4-.3-2.1-.5l-.9-.3-.8-.3-.3-.1c-1.6-.5-3.2-1.2-4.8-1.9-1.1-.5-2.1-1-3.1-1.6l-.5-.3-.7-.4-.4-.2c-1-.6-2-1.3-3-2l-.1-.1-.1-.1-.9-.6-.6-.5c-1.3-1-2.5-2-3.6-3.2-1.1-1-2.1-2.1-3.1-3.3-16.9-19.7-14.7-49.4 5-66.3s49.4-14.7 66.3 5c7.5 8.7 11.5 19.5 11.5 30.8z"/><linearGradient id="SVGID_2_" gradientUnits="userSpaceOnUse" x1="356.606" y1="285.96" x2="356.606" y2="224.955" gradientTransform="translate(-28 60.96)"><stop offset="0" stop-color="gray" stop-opacity=".25"/><stop offset=".54" stop-color="gray" stop-opacity=".12"/><stop offset="1" stop-color="gray" stop-opacity=".1"/></linearGradient><path d="M351 341.8l-.3-.3-.2-.2c-.7-.5-1-1.4-.9-2.2v-.3c-.3-1-.7-2-1.2-3-.3-.5-.6-1.3-.8-2.1-.4-1-.6-1.9-.6-1.9v-.3c-.1-.6-.5-2.4-.7-4.1v-.3c-.4-2.1-3.9-7.8-3.9-7.8 0-.1-.1-.1-.1-.2-.8-.4-3.5-1.9-3.5-1.9-2-2.5-3.9-3.1-5.2-3.2h-.9c-.2 0-.3.1-.5.1l-.2.1c-.1 0-.2.1-.3.1l-.1.5c-.1-1.2 0-2.4.3-3.6l.1-.3h.6c5.4-.1 9.7-4.5 9.7-9.9 0-.9-.1-1.7-.4-2.6v-.1l.3-.1c1.2-.5 2.7.3 3.7-.5.4-.4.6-.8.7-1.3.3-.7.4-1.3.5-2v-.7c0-.5-.2-.9-.5-1.3-.6-.8-1.7-.9-2.5-1.5-.7-.5-1.2-1.2-1.6-1.9-.4-.7-.9-1.4-1.5-1.9-.6-.6-1.5-.7-2.3-.4-.2.2-.5.3-.8.4-.3 0-.6-.1-.8-.2-2.8-1.3-6-1.1-9-.7-1.2.1-2.4.4-3.5.9s-2 1.5-2.4 2.6c-.3.9-.1 2-.4 2.9-.2.6-.6 1.2-.8 1.8-.1.3-.2.7-.2 1v-.1.7c.2 1.2.4 2.4.7 3.6.4 2 .2 4.1 1 5.9l.3.6c-.3.6-.6 1.3-.9 1.9-.2 0-.3-.1-.5-.1h-.8c-.1 0-.2.1-.3.1l-.1.1h-.1l-.1.1v.1c-.1.1-.1.2-.1.4v.1c0 .2 0 .4-.1.6s0 .3 0 .4v.4c0 .1 0 .3-.1.4l-.1.5-.1.1c-.1.1-.1.3-.2.4l-.3.4c-.1.1-.2.2-.2.4l-.1.1c-.1 0-.1 0-.2.1-.1-.2-.4-.2-1.2.9-1.2 1.2-2.5 2.3-4 3.1 0 0-5.9 4.2-6.2 6.1s-2.2 10.3-1.2 13.1c.1.4.4.9.7 1.6v.1s.3 1.1.8 2.8c.1.1.2.2.4.2l.7.4.5.3c1 .6 2.1 1.1 3.1 1.6 1.6.7 3.1 1.3 4.8 1.9l.3.1.8.3.9.3c.7.2 1.4.4 2.1.5h.1c.6.1 1.2.3 1.8.4l.3.1 1.3.2 1.6.2h.5l1.1.1c1.3.1 2.6.2 3.9.2h.3c1.4 0 2.8-.1 4.1-.2 1.8-.2 3.6-.4 5.4-.8.5-.1 1.1-.2 1.6-.4l.7-.2c.1 0 .2 0 .3-.1l.4-.1.3-.1.2-.1.7-.2.2-.1c.1 0 .2-.1.3-.1h.1l1.2-.4c.9-.3 1.8-.7 2.7-1.1l1-.4c.2-.1.3-.1.5-.3-.3-.3-.4-.5-.6-.7zm-19.4-26.5z" fill="url(#SVGID_2_)"/><path class="st6" d="M351 341.8l-.3-.3-.2-.2c-.7-.5-1-1.3-.9-2.2v-.3c-.3-1-.7-2-1.2-2.9-.3-.5-.6-1.3-.8-2.1-.4-1-.6-1.9-.6-1.9v-.3c-.1-.6-.5-2.4-.7-4v-.3c-.4-2.1-3.9-7.7-3.9-7.7 0-.1-.1-.1-.1-.2-.8-.4-3.5-1.9-3.5-1.9-2-2.5-3.9-3.1-5.2-3.1h-.9c-.2 0-.3.1-.5.1l-.2.1c-.1 0-.2.1-.3.1l-.1.5c-.1-1.2 0-2.4.3-3.6 0-.1.1-.2.1-.3h.6c5.3 0 9.7-4.3 9.7-9.7 0-.9-.1-1.8-.4-2.7v.1h.2c1.2-.4 2.7.3 3.7-.5.4-.4.6-.8.7-1.3.3-.6.4-1.3.5-2v-.7c0-.5-.2-.9-.5-1.3-.6-.8-1.7-.9-2.5-1.5-.7-.5-1.2-1.2-1.6-1.9-.4-.7-.9-1.4-1.5-1.9s-1.5-.7-2.3-.4c-.2.2-.5.3-.8.4-.3 0-.6-.1-.8-.2-2.8-1.3-6-1.1-9-.7-1.2.1-2.4.4-3.5.9s-2 1.4-2.4 2.6c-.3.9-.1 1.9-.4 2.9-.2.6-.6 1.2-.8 1.8-.1.3-.2.7-.2 1v-.1.7c.2 1.2.4 2.4.7 3.6.4 1.9.2 4 1 5.8l.3.6-.9 1.8c-.2 0-.3-.1-.5-.1h-.9c-.1 0-.2.1-.2.1l-.1.1h-.1l-.1.1v.1c-.1.1-.1.2-.1.4v.1c0 .2 0 .4-.1.6s0 .3 0 .4v.4c0 .1 0 .3-.1.4l-.1.5-.1.1c-.1.1-.1.3-.2.4-.1.1-.1.1-.2.1-.1.1-.2.2-.2.4l-.1.1c-.1 0-.1 0-.2.1-.1-.1-.4-.1-1.2.9-1.2 1.2-2.5 2.3-4 3.1 0 0-5.9 4.1-6.2 6s-2.2 10.1-1.2 12.9c.1.4.4.9.7 1.6v.1s.3 1.1.8 2.7l.4.2.7.4.5.3c1 .6 2.1 1.1 3.1 1.6 1.6.7 3.1 1.3 4.8 1.9l.3.1.8.3.9.3c.7.2 1.4.4 2.1.5h.1c.6.1 1.2.3 1.8.4l.3.1 1.3.2 1.6.2h.5l1.1.1c1.3.1 2.6.2 3.9.2h.3c1.4 0 2.8-.1 4.1-.2 1.8-.2 3.6-.4 5.4-.8.5-.1 1.1-.2 1.6-.4l.7-.2c.1 0 .2 0 .3-.1l.4-.1.3-.1.2-.1.7-.2.2-.1c.1 0 .2-.1.3-.1h.1l1.2-.4c.9-.3 1.8-.7 2.7-1.1l1-.4c.2-.1.3-.1.5-.2-.3-.4-.4-.5-.6-.7zm-19.4-26.1z"/><path class="st8" d="M379.5 418c0 7.9-2 15.6-5.8 22.6-.8 1.5-1.7 2.9-2.6 4.2-.9 1.4-2 2.7-3.1 4-.1.1-.1.2-.2.2-.4.5-.9 1-1.3 1.5l-.5.5c-.5.5-1 1-1.6 1.5l-.2.2c-.3.2-.5.5-.8.7-1.4 1.2-2.9 2.4-4.4 3.4-.8.5-1.6 1.1-2.4 1.5l-.6.4-1.2.7-.6.3h-.1l-.2.1-.3.2-.2.1-1 .5-.5.2-1 .4-1.4.6-.8.3-.5.2-1.2.4h-.1l-.3.1-.2.1-.7.2-.2.1h-.3l-.4.1c-.1 0-.2.1-.3.1l-.7.2c-.5.1-1 .3-1.6.3-.9.2-1.7.3-2.6.5s-1.8.3-2.8.3c-1.4.1-2.7.2-4.1.2h-.3c-1.3 0-2.6-.1-3.9-.2l-1.1-.1h-.6c-.5 0-1-.1-1.4-.2h-.1l-1.3-.2-.3-.1c-.6-.1-1.2-.2-1.8-.4h-.1c-.7-.2-1.4-.3-2.1-.5l-.9-.3-.8-.3-.3-.1-.7-.3-.5-.2c-.4-.1-.7-.3-1.1-.4l-.4-.2-.5-.2c-.5-.2-1-.4-1.5-.7-1.1-.5-2.1-1-3.1-1.6l-.5-.3-.7-.4-.4-.2c-.5-.3-1-.6-1.5-1-.5-.3-1-.7-1.5-1l-.1-.1-.1-.1-.9-.6-.6-.5c-1.3-1-2.5-2-3.6-3.2-1.1-1-2.1-2.1-3.1-3.3-17-19.6-14.9-49.3 4.8-66.3 19.6-17 49.3-14.9 66.3 4.8 7.5 8.9 11.5 19.9 11.5 31.3z"/><g opacity=".3"><path class="st12" d="M345.3 463.2v-.1.1z"/><path d="M352.8 457.3c-.1 0-.2-.1-.3-.2.2-.3.5-.4.9-.5.3-.1.5-.5.4-1 0-.4-.1-.9-.4-1.3-.1-.1-.2-.2-.2-.3.2-.4.4-.7.6-1.1.1-.1.1-.2 0-.3.3-.7-1-.6-1-.6v-6.6s-.1-.5-.2-1.5-.3-2.5-.5-4.4c-.4-3.8-1.9-4.2-1.9-4.2-.8-.2-1.6-.5-2.3-.9-.8-.4-1.6-.7-2.4-.9-1.1 0-2.1-.2-3.2-.4-.7-.2-1.4-.4-2.1-.5l-.2-.1c-1.7-.9-3.1-2.3-3.9-4 .3-.4.6-.7.9-1.2v.8c1-1.8 4-2.2 4.3-4.3v-1.1c0-.5-.2-1-.3-1.5v-.1c0-.2 0-.3.1-.5v-.1c0-.2.1-.3.1-.5.4-1.1 1.2-2.2 1.6-3.3.1-.3.2-.5.2-.8v-.1c0-.3.1-.5.1-.8v-.5.1-.7c0-1.7-.8-3.3-2-4.4-1-.9-2.4-1.5-3.1-2.6-.3-.5-.5-1.2-.9-1.7-.8-.9-1.9-1.5-3.1-1.5s-2.4-.2-3.5-.5c-.8-.3-1.5-.7-2.3-1-1.8-.5-3.7.2-4.8 1.7-.3.7-.8 1.3-1.3 1.9-1.2 1-3.2.6-4.2 1.7-.5.6-.7 1.4-.6 2.2v1.6c0 .3.1.5.1.8.1.4.1.9.1 1.3v.2c-.1 2-.6 4-1.5 5.8-1 1.9-2.4 3.7-2.7 5.8v.9-.1 1.3l.1.5v.3l.1.6v.1c.3 1 .6 2.1.9 3.1.1.4.1.7.2 1.1v.1c0 .3 0 .6.1.9v.3c-.5.2-1 .3-1.5.5-.9.1-3.5 2.5-3.4 3v.5c-.3 1.5-.7 2.9-1.2 4.3l-2.1 14.6c.5.3 1 .6 1.5 1l.4.2.7.4.5.3c1 .6 2.1 1.1 3.1 1.6.5.2 1 .5 1.5.7l.5.2.4.2c.2.2.4.3.6.4h.9l.5.2.7.3.3.1.8.3.9.3c.7.2 1.4.4 2.1.5h.1c.6.2 1.2.3 1.8.4l.3.1 1.3.2h.1c.5.1 1 .1 1.4.2h.5l1.1.1c1.3.1 2.6.2 3.9.2h.3c1.4 0 2.8-.1 4.1-.2.9-.1 1.8-.2 2.8-.3s1.7-.3 2.6-.5c.5-.1 1.1-.2 1.6-.3l.7-.2c.1 0 .2 0 .3-.1l.4-.1h.1c0-.7-.1-1.3-.1-1.7.1.2.3.4.4.5s.1.1.1.2c-.2.3-.3.7-.4 1h.1l.2-.1.7-.2.2-.1.3-.1h.1l1.2-.4.5-.2.8-.3 1.4-.6 1-.4.5-.2 1-.5.2-.1.3-.2.2-.1h.1v-1.1c.1-.6-.5-1.2-1.3-1.5zM314.9 434z" fill="#2f91f4"/><path class="st12" d="M308.4 461.6l-.2-.1c.1 0 .1.1.2.1z"/></g><path class="st8" d="M379.5 537c0 7.9-2 15.6-5.8 22.6-.8 1.5-1.7 2.9-2.6 4.2-.9 1.4-2 2.7-3.1 4l-.2.2c-.4.5-.9 1-1.3 1.5l-.1.2-.4.4c-.5.5-1 1-1.6 1.5l-.2.2c-.3.2-.5.5-.8.7-1 .9-2.1 1.8-3.3 2.6l-.2.1-.4.3c-.2.1-.4.3-.5.4-.8.5-1.6 1.1-2.4 1.5l-.4.2-.3.2-1.2.7-.6.3h-.1l-.2.1-.3.2-.2.1-1 .5-.5.2-1 .4-1.4.6-.8.3-.5.2-.2.1-1 .3h-.1l-.3.1-.2.1-.3.1-.4.1-.2.1h-.3l-.4.1c-.1 0-.2.1-.3.1l-.7.2c-.5.1-1 .3-1.6.3-.9.2-1.7.3-2.6.5-.5.1-1 .1-1.6.2h-.2l-1 .1c-1.4.1-2.7.2-4.1.2h-1.1c-1 0-2.1-.1-3.1-.2h-.3l-.8-.1h-.5l-1-.1-.5-.1h-.1l-1.3-.2-.3-.1-.8-.2-.4-.1-.6-.1h-.1c-.7-.2-1.4-.3-2.1-.5l-.4-.1h-.1l-.4-.1-.4-.1-.4-.1-.3-.1-.7-.3-.5-.2-.4-.3-.6-.2-.4-.2-.5-.2c-.5-.2-1-.4-1.5-.7-.8-.4-1.6-.7-2.3-1.2-.3-.1-.5-.3-.8-.4l-.2-.1-.2-.1-.7-.4-.4-.2c-.5-.3-1-.6-1.5-1-.5-.3-1-.7-1.5-1l-.1-.1-.1-.1-.4-.3-.5-.3-.1-.1c-.2-.2-.4-.3-.6-.4-1.3-1-2.5-2-3.6-3.2-1.1-1-2.1-2.1-3.1-3.3-17-19.6-14.9-49.3 4.7-66.3s49.3-14.9 66.3 4.7c7.6 8.7 11.6 19.7 11.6 31.1z"/><path class="st6" d="M362.8 558c-.4-.8-1.3-1.1-2.1-.7l-13.7 7c0-.2-.1-.4-.2-.5 0-.4-.2-.8-.6-1l-.3-.3v-.3c0-.2 0-.5-.2-.7 0-.5-.3-1-.8-1.3v-.3c0-.2-.1-.4-.2-.6 0-.7-.5-1.3-1.5-2.1-.4-.4-.6-.8-.8-1.3v-.1c-.2-.7-.3-1.4-.6-2.1-.1-.4-.2-.8-.4-1.2-.7-1.9-1.5-1.7-1.9-2s-2.5-.8-3.6-1.3c-.9-.5-4 0-4.9.2v-.2c4.6-1.4 7.4-6.1 6.4-10.8l-.1-.2c.5 0 1-.1 1.4-.3.4-.3.6-.7.6-1.2.3-.9.3-1.8.2-2.7 0-.1-.1-.2-.1-.3s0-.2-.1-.2v-.2c-.1-.3-.2-.6-.3-.8v.1c-.7-1.1-1.5-2.1-2.3-3.1-.8-1.2-1.3-2.7-2.5-3.5-1.3-.7-2.8-.7-4.1-.2-.6.2-1.3.4-1.9.5-1.1 0-2.2 0-3.3-.2-1.6-.1-3.1.3-4.4 1.2-.3.2-.5.4-.7.7-.2.4-.3.9-.3 1.3-.1.8-.4 1.6-.9 2.4-.3.6-.8 1.1-1.1 1.7-.3.6-.4 1.3-.3 1.9.1.3.3.6.4 1 0 .8-.2 1.6-.7 2.3-.3.7-.5 1.4-.5 2.2 0 .6.3 1.1.6 1.6.1.1.1.3.2.4v.1c.1.1.1.2.2.3l.1.1.2.2c.6.4 1.3.6 2 .6.1.1.1.2.2.3v.4c-.1 0-2.1.3-2.7 1.1-.7.6-1.5.9-2.4 1 0 0-2 .7-1.9.8s-.6.4-1.8.7-3.3 1.5-3.3 1.8-3.2 3.5-3.2 3.8c-.6 1.1-.9 2.4-.9 3.7.1 2.2.3 4.9-.2 5.3s0 2.2 0 2.2c.3.4.3.9 0 1.3-.4.7.1 3.8.1 3.8v3.2c.1.5.2.9.2 1.4l.1.1.5.3.4.3.1.1.1.1c.5.3 1 .7 1.5 1 .5.3 1 .6 1.5 1l.4.2.7.4.2.1.2.1c.3.2.5.3.8.4.8.4 1.5.8 2.3 1.2.5.2 1 .5 1.5.7l.5.2.4.2.6.2.5.2.5.2.7.3.3.1.4.1.4.1.4.1h.1l.4.1c.7.2 1.4.4 2.1.5h.1l.6.1.4.1.8.2.3.1 1.3.2h.1l.5.1 1 .1h.5l.8.1h.3c1 .1 2 .1 3.1.2h1.1c1.4 0 2.8-.1 4.1-.2l1-.1h.2c.5-.1 1-.1 1.6-.2.9-.1 1.7-.3 2.6-.5.5-.1 1.1-.2 1.6-.3l.7-.2c.1 0 .2 0 .3-.1l.4-.1h.3l.2-.1.4-.1.3-.1.2-.1.3-.1h.1l1-.3.2-.1.5-.2.8-.3 1.4-.6 1-.4.5-.2 1-.5.2-.1.3-.2.2-.1h.1l.6-.3 1.2-.7.3-.2.4-.2 2.4-1.5c.2-.1.4-.3.5-.4h.2l.2-.3.2-.1c1.1-.8 2.2-1.7 3.3-2.6.3-.2.5-.5.8-.7l.2-.2c.5-.5 1.1-1 1.6-1.5l.4-.4.1-.2c.5-.5.9-1 1.3-1.5l-4.7-10.4zM340 573.6l-.3.1c0-.1 0-.1.1-.2 0 0-1.5.1-3.1.2 0-.3 0-.5.1-.8.4-1.1.6-2.2.8-3.4l2.7 4.1h-.3zm.5 7.8v-.4l.2-.2c0-.4-.1-.9-.1-1.3h.2l2.8-.4s.4 0 1-.1l.2.5c-1.3.4-2.5.9-3.6 1.6-.1 0-.3.1-.7.3z"/><path d="M858.9 166.8l-4-4c-.8-.8-2.2-.8-3 0L827 187.5l-10.5-10.6c-.8-.8-2.1-.8-3 0l-4 4c-.8.8-.8 2.2 0 3l16 16.1c.8.8 2.2.8 3 0l30.3-30.1c.9-.8.9-2.2.1-3.1 0 .1 0 0 0 0zm0 117.2l-4-4c-.8-.8-2.2-.8-3 0l-24.8 24.7-10.5-10.6c-.8-.8-2.1-.8-3 0l-4 4c-.8.8-.8 2.2 0 3l16 16.1c.8.8 2.2.8 3 0l30.3-30.2c.8-.9.8-2.2 0-3zm0 236.4l-4-4c-.8-.8-2.2-.8-3 0L827 541l-10.5-10.6c-.8-.8-2.2-.8-3 0l-4 4c-.8.8-.8 2.2 0 3l16 16.1c.8.8 2.2.8 3 0l30.3-30.1c.9-.8.9-2.1.1-3z" fill="#41d6c3"/><ellipse transform="rotate(-37.18 144.235 84.118)" class="st12" cx="144.2" cy="84.1" rx="13.5" ry="27.1"/><ellipse transform="rotate(-37.18 144.235 84.118)" class="st15" cx="144.2" cy="84.1" rx="13.5" ry="27.1"/><ellipse transform="rotate(-37.18 144.194 84.087)" class="st6" cx="144.2" cy="84.1" rx="12.4" ry="26.4"/><path class="st15" d="M128.1 63.4c5.1 10.2 11.6 19.6 19.3 27.9 1.5 1.6 3 3.1 4.4 4.6l8.4 8.6"/><ellipse transform="rotate(-37.18 108.233 39.114)" class="st12" cx="108.2" cy="39.1" rx="13.5" ry="27.1"/><ellipse transform="rotate(-37.18 108.233 39.114)" class="st15" cx="108.2" cy="39.1" rx="13.5" ry="27.1"/><ellipse transform="rotate(-37.18 108.194 39.088)" class="st6" cx="108.2" cy="39.1" rx="12.4" ry="26.4"/><path class="st15" d="M92.1 18.4c5.1 10.2 11.6 19.6 19.3 27.9 1.5 1.6 3 3.1 4.4 4.6l8.4 8.6"/><ellipse transform="rotate(-37.193 144.076 47.092)" class="st12" cx="144.1" cy="47.1" rx="23.1" ry="11.5"/><ellipse transform="rotate(-37.193 144.076 47.092)" class="st15" cx="144.1" cy="47.1" rx="23.1" ry="11.5"/><ellipse transform="rotate(-37.193 144.022 47.115)" class="st6" cx="144" cy="47.1" rx="22.5" ry="10.6"/><path class="st15" d="M161.7 33.3c-8.7 4.3-16.7 9.9-23.8 16.4-1.4 1.3-2.7 2.5-4 3.8l-7.3 7.1"/><ellipse transform="rotate(-29.9 107.596 73.807)" class="st12" cx="107.6" cy="73.8" rx="23.1" ry="11.5"/><ellipse transform="rotate(-29.9 107.596 73.807)" class="st15" cx="107.6" cy="73.8" rx="23.1" ry="11.5"/><ellipse transform="rotate(-29.9 107.62 73.781)" class="st6" cx="107.6" cy="73.8" rx="22.5" ry="10.6"/><path class="st15" d="M88.1 84.7c7.4-6.3 15.6-11.5 24.4-15.6 1.7-.8 3.4-1.5 5-2.2l9.4-4"/><ellipse transform="rotate(-37.721 119.6 54.081)" class="st12" cx="119.6" cy="54.1" rx="5" ry="10"/><ellipse transform="rotate(-37.721 119.6 54.081)" class="st15" cx="119.6" cy="54.1" rx="5" ry="10"/><ellipse transform="rotate(-37.721 119.61 54.09)" class="st6" cx="119.6" cy="54.1" rx="4.6" ry="9.7"/><path class="st15" d="M113.8 46.4c3.1 2.8 5.8 6 8.1 9.5.4.7.8 1.3 1.2 2l2.3 3.8"/><ellipse transform="rotate(-37.721 132.004 70.086)" class="st12" cx="132" cy="70.1" rx="5" ry="10"/><ellipse transform="rotate(-37.721 132.004 70.086)" class="st15" cx="132" cy="70.1" rx="5" ry="10"/><ellipse transform="rotate(-37.721 132.025 70.1)" class="st6" cx="132" cy="70.1" rx="4.6" ry="9.7"/><path class="st15" d="M126.2 62.4c3.1 2.8 5.8 6 8.1 9.5.4.7.8 1.3 1.2 2l2.3 3.8"/><circle class="st12" cx="125.8" cy="62.2" r="2"/><circle class="st15" cx="125.8" cy="62.2" r="2"/><path class="st6" d="M962.7 663.1c-.3-1.4-6.5-34.4 12.3-78 7.4-17.1 6.8-31.8-1.8-43.7-3.9-5.4-9.1-9.8-15-12.9l2.2-4.9c6.8 3.4 12.7 8.5 17.2 14.7 6.7 9.3 12.5 25.4 2.4 49-18.2 42.1-12 74.5-12 74.8l-5.3 1z"/><path class="st12" d="M990.7 581.8c7.6-.7 13.9-1.4 14.1 1s-5.8 6.9-13.3 7.5-13.9-.7-14.1-3.1 5.7-4.8 13.3-5.4z"/><path class="st15" d="M990.7 581.8c7.6-.7 13.9-1.4 14.1 1s-5.8 6.9-13.3 7.5-13.9-.7-14.1-3.1 5.7-4.8 13.3-5.4z"/><path class="st6" d="M990.7 581.8c7.4-.6 13.5-1.6 13.7.4s-5.7 6.2-13 6.9-13.5-.5-13.7-2.5 5.6-4.2 13-4.8z"/><path class="st15" d="M977.8 586.7c5.7.1 11.5-.2 17.2-1 1.1-.2 2.2-.3 3.2-.5 2-.3 4-2.7 6-3"/><path class="st12" d="M977.4 625.8c7.6-.6 13.9-1.3 14.1 1s-5.8 6.9-13.3 7.5-13.9-.7-14.1-3.1 5.7-4.7 13.3-5.4z"/><path class="st15" d="M977.4 625.8c7.6-.6 13.9-1.3 14.1 1s-5.8 6.9-13.3 7.5-13.9-.7-14.1-3.1 5.7-4.7 13.3-5.4z"/><path class="st6" d="M977.5 625.8c7.4-.6 13.5-1.6 13.7.4s-5.7 6.2-13 6.9-13.5-.5-13.7-2.5 5.6-4.1 13-4.8z"/><path class="st15" d="M964.5 630.7c5.7.1 11.5-.2 17.2-1 1.1-.2 2.2-.3 3.2-.5 2-.3 4-2.7 6-3"/><path class="st12" d="M966.1 577.9c-7.1-2.8-12.9-5.2-13.8-3s3.6 8.2 10.7 11 13.5 3.2 14.4 1-4.3-6.2-11.3-9z"/><path class="st15" d="M966.1 577.9c-7.1-2.8-12.9-5.2-13.8-3s3.6 8.2 10.7 11 13.5 3.2 14.4 1-4.3-6.2-11.3-9z"/><path class="st6" d="M966 578c-6.9-2.7-12.5-5.3-13.2-3.5s3.7 7.6 10.6 10.3 13.1 3.3 13.8 1.5-4.3-5.7-11.2-8.3z"/><path class="st15" d="M977.1 586.2c-5.6-1.5-11-3.4-16.2-5.8-1-.5-2-.9-3-1.4-1.8-.9-3.1-3.7-4.9-4.6"/><path class="st12" d="M954.2 622c-7.1-2.8-12.9-5.2-13.8-3s3.6 8.2 10.7 11 13.5 3.2 14.4 1-4.2-6.2-11.3-9z"/><path class="st15" d="M954.2 622c-7.1-2.8-12.9-5.2-13.8-3s3.6 8.2 10.7 11 13.5 3.2 14.4 1-4.2-6.2-11.3-9z"/><path class="st6" d="M954.2 622c-6.9-2.7-12.5-5.3-13.2-3.5s3.7 7.6 10.6 10.3 13.1 3.3 13.8 1.5-4.3-5.6-11.2-8.3z"/><path class="st15" d="M965.3 630.4c-5.6-1.5-11-3.5-16.3-5.8-1-.5-2-.9-3-1.4-1.8-.9-3.1-3.7-4.9-4.6"/><path class="st12" d="M951.6 631.2c-7.2 2.4-13.3 4.2-12.6 6.5s8 4.1 15.2 1.7 12.5-6.1 11.8-8.4-7.2-2.2-14.4.2z"/><path class="st15" d="M951.6 631.2c-7.2 2.4-13.3 4.2-12.6 6.5s8 4.1 15.2 1.7 12.5-6.1 11.8-8.4-7.2-2.2-14.4.2z"/><path class="st6" d="M951.5 631.2c-7 2.3-13 3.8-12.4 5.7s7.7 3.5 14.7 1.2 12.2-5.7 11.6-7.7-6.8-1.4-13.9.8z"/><path class="st15" d="M965.3 630.6c-5.2 2.4-10.7 4.3-16.2 5.8l-3.2.8c-2 .5-4.7-.9-6.7-.4"/><ellipse transform="rotate(-76.338 986.21 529.506)" class="st12" cx="986.2" cy="529.5" rx="10.6" ry="21.3"/><ellipse transform="rotate(-76.338 986.21 529.506)" class="st15" cx="986.2" cy="529.5" rx="10.6" ry="21.3"/><ellipse transform="rotate(-76.338 986.244 529.557)" class="st6" cx="986.2" cy="529.6" rx="9.8" ry="20.8"/><path class="st15" d="M966 524.8c8.2 3.7 16.8 6.2 25.7 7.5 1.7.2 3.4.4 5 .6l9.4 1.1"/><ellipse transform="rotate(-77.238 965.222 501.965)" class="st12" cx="965.2" cy="502" rx="21.3" ry="10.6"/><ellipse transform="rotate(-77.238 965.222 501.965)" class="st15" cx="965.2" cy="502" rx="21.3" ry="10.6"/><ellipse transform="rotate(-77.238 965.272 501.93)" class="st6" cx="965.3" cy="501.9" rx="20.8" ry="9.8"/><path class="st15" d="M960.9 522.1c3.6-8.2 5.9-16.9 7.1-25.8.2-1.7.4-3.4.6-5l1-9.4"/><ellipse transform="rotate(-77.238 954.619 548.297)" class="st12" cx="954.6" cy="548.3" rx="21.3" ry="10.6"/><ellipse transform="rotate(-77.238 954.619 548.297)" class="st15" cx="954.6" cy="548.3" rx="21.3" ry="10.6"/><ellipse transform="rotate(-77.238 954.645 548.357)" class="st6" cx="954.6" cy="548.4" rx="20.8" ry="9.8"/><path class="st15" d="M950.3 568.5c3.5-8.2 5.9-16.9 7.1-25.8.2-1.7.4-3.4.6-5l1-9.4"/><ellipse transform="rotate(-76.338 934.38 518.406)" class="st12" cx="934.4" cy="518.4" rx="10.6" ry="21.3"/><ellipse transform="rotate(-76.338 934.38 518.406)" class="st15" cx="934.4" cy="518.4" rx="10.6" ry="21.3"/><ellipse transform="rotate(-76.338 934.308 518.441)" class="st6" cx="934.3" cy="518.4" rx="9.8" ry="20.8"/><path class="st15" d="M914.1 513.7c8.2 3.7 16.8 6.2 25.7 7.5 1.7.2 3.3.4 5 .6l9.4 1.1"/><ellipse transform="rotate(-37.18 971.569 539.516)" class="st12" cx="971.5" cy="539.5" rx="9.1" ry="18.3"/><ellipse transform="rotate(-37.18 971.569 539.516)" class="st15" cx="971.5" cy="539.5" rx="9.1" ry="18.3"/><ellipse transform="rotate(-37.18 971.524 539.635)" class="st6" cx="971.5" cy="539.6" rx="8.4" ry="17.8"/><path class="st15" d="M960.7 525.6c3.4 6.8 7.8 13.2 13 18.8 1 1.1 2 2.1 3 3.1l5.6 5.8"/><ellipse transform="rotate(-37 947.778 515.414)" class="st12" cx="947.8" cy="515.4" rx="9.1" ry="18.3"/><ellipse transform="rotate(-37 947.778 515.414)" class="st15" cx="947.8" cy="515.4" rx="9.1" ry="18.3"/><ellipse transform="rotate(-37.18 947.273 509.213)" class="st6" cx="947.2" cy="509.2" rx="8.4" ry="17.8"/><path class="st15" d="M936.4 495.2c3.4 6.8 7.8 13.2 13 18.8 1 1.1 2 2.1 3 3.1l5.6 5.8"/><ellipse transform="rotate(-37.193 971.507 514.628)" class="st12" cx="971.5" cy="514.6" rx="15.6" ry="7.8"/><ellipse transform="rotate(-37.193 971.507 514.628)" class="st15" cx="971.5" cy="514.6" rx="15.6" ry="7.8"/><ellipse transform="rotate(-37.193 971.46 514.524)" class="st6" cx="971.5" cy="514.5" rx="15.2" ry="7.1"/><path class="st15" d="M983.3 505.3c-5.8 2.9-11.3 6.7-16.1 11.1-.9.8-1.8 1.7-2.7 2.5l-5 4.8"/><ellipse transform="rotate(-29.9 946.888 532.57)" class="st12" cx="946.9" cy="532.6" rx="15.6" ry="7.8"/><ellipse transform="rotate(-29.9 946.888 532.57)" class="st15" cx="946.9" cy="532.6" rx="15.6" ry="7.8"/><ellipse transform="rotate(-29.9 946.903 532.556)" class="st6" cx="946.9" cy="532.6" rx="15.2" ry="7.1"/><path class="st15" d="M933.7 539.9c5-4.2 10.5-7.8 16.5-10.5 1.1-.5 2.3-1 3.4-1.5l6.4-2.7"/><ellipse transform="rotate(-37.721 954.913 519.329)" class="st12" cx="954.9" cy="519.3" rx="3.3" ry="6.7"/><ellipse transform="rotate(-37.721 954.913 519.329)" class="st15" cx="954.9" cy="519.3" rx="3.3" ry="6.7"/><ellipse transform="rotate(-37.721 955.002 519.277)" class="st6" cx="955" cy="519.3" rx="3.1" ry="6.5"/><path class="st15" d="M951 514.1c2.1 1.9 3.9 4 5.4 6.4.3.5.6.9.8 1.4l1.5 2.5"/><ellipse transform="rotate(-37.721 963.261 530.03)" class="st12" cx="963.3" cy="530" rx="3.3" ry="6.7"/><ellipse transform="rotate(-37.721 963.261 530.03)" class="st15" cx="963.3" cy="530" rx="3.3" ry="6.7"/><ellipse transform="rotate(-37.721 963.27 530.031)" class="st6" cx="963.3" cy="530" rx="3.1" ry="6.5"/><path class="st15" d="M959.4 524.9c2.1 1.9 3.9 4 5.4 6.4.3.5.5.9.8 1.4l1.5 2.5"/><circle class="st12" cx="959.2" cy="524.7" r="1.4"/><circle class="st15" cx="959.2" cy="524.7" r="1.4"/><linearGradient id="SVGID_3_" gradientUnits="userSpaceOnUse" x1="1483.29" y1="601.191" x2="1483.29" y2="264.757" gradientTransform="matrix(-1 0 0 1 1730 60.96)"><stop offset="0" stop-color="gray" stop-opacity=".25"/><stop offset=".54" stop-color="gray" stop-opacity=".12"/><stop offset="1" stop-color="gray" stop-opacity=".1"/></linearGradient><path d="M163.7 448.1c1.8 2.7 3.6 8.8 3.5 9.8s5 6.7 6.4 8.5c1.2 1.6 2.2 3.4 3.1 5.2l4.7 8.8c2.9-1 5.8-2.3 8.5-3.8l1.7.2c1.3-.1 2.6-.3 3.9-.6 0 .2-.1.4-.1.7-.8 6.6-1.4 12-1.4 12s1.6 5.8 3.8 4l.1-.1c.1.3.1.6.2 1 .9 4.5 1.2 9.1 1.1 13.7-.4 6.8 1 17.1 1 17.1s3.1-.3 7.7-.5c.1.3.3.7.4 1 .4 1.1.9 2.4 1.4 3.7l.1.2c.1.2.1.3.2.5l.1.3.2.4.2.5.1.3.3.7c0 .1.1.1.1.2.1.2.1.4.2.5l.1.2.2.5.1.2c.3.7.6 1.4.9 1.9v.1l.3.5v.1l.3.4c.1.2.2.3.2.4 2 3.1 3.5 8.6 3.5 8.6l1.9 11.3s.4 2.8.6 5.2c.1.9.1 1.8.1 2.4 0 .2 0 .6.1 1.1v.2c.2 2.1.6 6 1.1 10.6.1.9.2 1.9.3 2.8-.3 5.7-.2 11.5.3 17.2 0 0-1.3 21.4-1 23.4.2 1.2-.8 3.8-1.6 6l-.3-.2s-4.8 5-4.7 10.8.5 13.5.5 13.5.4 3.2-.5 4 0 5.3 0 5.3 8.4 7.7 15.4-.6c0 0 1.4-4.8.8-7.8 0-.3-.1-.6-.2-1-.1-3.3-.4-6.6-.8-9.9l-.8-6c.9-.1 2.2-4.8 1.6-6s.5-6 .5-6l2.1-6.5c.1.2.2.4.3.7v.1c0 .1.1.2.1.3v.1l.4 1 .1.3v.1c.1.4.3.7.4 1.1l.1.3v.1c.1.4.2.7.3 1v.1l.1.3v1.9c-.3 2.3-.1 4.7.6 6.9v.1c0 .1.1.2.1.3s0 .1.1.2c0 .1.1.2.2.4s.2.4.4.6l-.3 23s3.3 5.1 10.9 4 6.5-9.3 5.4-10.7-1.6-7.1-1.6-7.1-1.3-9.5-2.2-12.9c-.2-1.3-1-2.4-2.1-3-.3-1.1-.8-2.1-.9-2.2-.8-1.5-1.4-3-1.9-4.6-.2-.5-.2-1.1-.1-1.7v-2.1c-.2-5.8-1.6-21.7-2.3-29.9 1.2-6.1 1.9-10.8 1.8-11.5-.5-1.6.7-13.1.7-13.1s1.4-11.7 3.4-15.4c1.3-2.4 3.9-11.6 5.4-17.6.1-.4.2-.7.3-1.1 1.7-.1 3.3-.4 4.8-1.2 0 0-1.2-10.2 1.7-15.5 2-3.6 3.3-19.7 3.4-30.2v-1.5c2.4 2 4 4.7 4.6 4.5 5.8-3 11.4-6.5 16.7-10.3 6.5-5.3-11.7-34.9-13.7-37.2S263 405 263 405c.6.8 1.5 1.4 2.5 1.8 1.3.3 3.8 2.1 6.6 4.4s15.4 0 15.4 0c9.2.4 10.9-7.4 10.9-7.4s4.5-10.6 4.7-14.3 7-19 7-19c-1.5-2.4-3.6-4.3-6.1-5.5.5-1.6 1.2-3 2.2-3.5 2.9-1.2 34.6-13 23.4-17s-28.5 9-28.5 9-.9.3-2.3 3.2c-.8 1.5-1.7 4.1-2.5 6.3-.1.2-.2.4-.2.6h-.5s-4.1 8.9-4.1 11-5 12.2-5 12.2-2.5 2.6-1.6 4.6-2 1.6-2 1.6l-3.9-3.1s-3.4-2.2-5-2.5-4.4-3.3-4.4-3.3-3.2-2.1-2.9-2.5-1.8-2-2.9-2.5-1.7-1.7-2.9-3.8-3-.5-3.8-.9-12 1-13.1 1.3-5.1.4-7.1-1.1c-1.4-.8-3-1-4.5-.5-.4-.9-.8-1.8-1-2.7-.1-.2-.1-.3-.1-.5 7-3 11.6-9.9 11.6-17.6 0-4.6-1.7-9.1-4.8-12.6-.3-.3-.5-.6-.8-.9 1.1-.5 2.6-1.6 2.7-2.9 0-.5-.2-1-.5-1.3-.4-.5-1-.7-1.4-1.1-.4-.5-.6-1.1-.6-1.8 0-.8.2-1.7.2-2.5 0-.3 0-.7-.1-1-.5-1.4-1.8-2.4-3.3-2.6v.1c-.6-.1-1.2-.1-1.8-.1-2.1.2-4 1.1-6 1.4-3.2.4-6.3-1-9.4-1.8s-6.9-.8-9 1.5-2 6.4-4.7 8.1c-1.2.8-2.8.9-4.1 1.5-1.5.7-2.7 1.9-3.5 3.3-2.1 3.3-3 7.1-2.6 11 .2 2.1.8 4.1 1.1 6.2.3 2.2.1 4.4-.4 6.5-.6 2.2-1.8 4.5-4 5.2-.5.1-1 .3-1.5.5-1.3.8-1.1 2.6-.8 4l1.3 5.9c-1.3.9-3.2.5-4.4 1.5-.5.4-.8 1-1 1.6-1.1 3.1-.3 6.6 2 8.9 0 .1-.1.2-.1.3s-.1.5-.2.8c-1.1 5.1-.7 5.7-1.4 6.6-1.3 2.3-2.8 4.5-4.4 6.6-1 1.2-1.5 2.7-1.6 4.2 0 0-5.4 7.8-7 8.7s-4.3 6.9-4.3 6.9-4.2 2.7-4.2 5.8c-.1 2.6-.3 5.1-.8 7.7-.3.4.4 5.8 2.2 8.6zm15.3-4.8c.8-1.2 0-3.6 0-3.6s5.3-6.9 6-10.8 5.5-6.6 5.5-6.6 2.5-1 2.7 0 .6 3.1.6 3.1-.4 5.1 1.4 7.1 2.2 10.6 2.2 10.6 3 8.5 1.6 11.1c-.5.9-1.3 5.5-2.1 11.1-.7-.1-1.4-.2-2-.2-.6-.5-4.2-3.8-6.1-4.5-2.1-.7-4-6.5-4.1-7.8s-1.9-5.7-3.7-6.5-2.8-1.7-2-3z" fill="url(#SVGID_3_)"/><path class="st18" d="M310 371c-3-4.9-8.7-7.6-14.4-6.8v10.3h6.2l4.9-1.3 3.3-2.2z"/><path class="st5" d="M310 371c-3-4.9-8.7-7.6-14.4-6.8v10.3h6.2l4.9-1.3 3.3-2.2z"/><path class="st19" d="M295.2 366.9l7.6 5.4s.1-1.1.3-2.5c.4-2.8 1.2-6.9 3.1-7.7 2.8-1.2 34.1-13 23-17s-28.1 9-28.1 9-.9.3-2.3 3.2c-.7 1.5-1.7 4.1-2.4 6.2-.7 1.9-1.2 3.4-1.2 3.4z"/><path class="st18" d="M234.1 375.1l-.9-.4-2.4 2.8 2 4.3 3.4-1.4-.8-3.4z"/><path class="st20" d="M245.6 624.6s2.2-.3 3.1 3.2 2.2 12.9 2.2 12.9.5 5.8 1.6 7.1 2.1 9.6-5.4 10.6-10.7-4-10.7-4l.3-23 8.9-6.8zm-26 1s-4.7 5-4.6 10.7.5 13.5.5 13.5.4 3.2-.5 4 0 5.3 0 5.3 8.3 7.7 15.2-.7c0 0 1.4-4.7.8-7.8s-2.1-16.8-2.1-16.8l-9.3-8.2z"/><path class="st19" d="M208 520.6s4.8 13.3 6.8 16.3 3.4 8.6 3.4 8.6l1.8 11.3c.4 2.5.6 5.1.6 7.7-.1 2.5 4.6 39.7 4.6 39.7l7.4 9.4s3.3 6.6 2.7 9.3.4 7.1 1.4 8.4c0 0 .2 8.6.4 10.5s-1 7.4 0 8.3 13.9.5 14.2-1-1.6-9.2-1.6-9.2l-1.1-7.4s-2.3-4-1.8-5.4-1-4.4-1-4.7-2.5-4.6-2-6.2-2.7-37.1-2.7-37.1l-9-63.5-24.1 5z"/><path class="st5" d="M208 520.6s.7 2 1.7 4.6c1.6 4.1 3.8 9.8 5.1 11.7 2 3.1 3.4 8.6 3.4 8.6l1.8 11.3c.4 2.5.6 5.1.6 7.6 0 1 .7 7.4 1.5 14.8 1.3 11.3 3 24.9 3 24.9l7.4 9.4s.4.8.8 1.8c.9 2.2 2.2 5.7 1.9 7.5-.5 2.7.4 7.1 1.4 8.4 0 0 .2 8.6.4 10.5s-1 7.4 0 8.3 13.9.5 14.2-1-1.6-9.2-1.6-9.2l-1.1-7.4s-2.3-4-1.8-5.4-1-4.4-1-4.7-2.5-4.6-2-6.2c.3-1.3-1.4-22.1-2.3-31.9-.3-3.1-.5-5.1-.5-5.1l-7.8-54.6-.6-4.4-.6-4.5-23.9 5z"/><path class="st19" d="M215.9 652.7c-.1 1 12.4 2.4 14.2 1.3s0-14.1 0-14.1l-.8-6c.9-.1 2.2-4.8 1.6-6s.5-6 .5-6l2.1-6.5 1.3-4c2-4.5 5-17.5 6.9-27.1 1.2-6.1 1.9-10.8 1.7-11.4-.4-1.6.7-13.1.7-13.1s1.4-11.7 3.3-15.4c1.3-2.4 3.8-11.6 5.3-17.5.8-3 1.3-5.2 1.3-5.2s-13.3-1.1-21.3-1.5c-3.7-.2-6.3-.2-6 .1s.4 1.9.4 4.2c0 6-.9 16.6-1.8 19.5-1.2 4-2.5 15.8-1.9 17s.4 8.8.4 8.8c-.9 3.1-1.4 6.3-1.5 9.5-.3 5.7-.2 11.5.3 17.2 0 0-1.3 21.3-1 23.4s-2.8 8.3-2.8 9.6-.9 9.6-.9 9.6-1.9 12.6-2 13.6zm-7-256.6l1.5 1.6 1 1.1 5.8 6.2 14.8 1.7 7.9-2.1 2-.5s0-4-.4-8.7c-.5-6.1-1.7-13.5-4.6-15.5-1.4-1.1-2.6-2.6-3.4-4.2-.6-1.1-1-2.3-1.4-3.5-.1-.2-.1-.3-.1-.5-.6-2.1-1.1-4.3-1.4-6.5 0 0-1.9-1-4.5-2.3-6.9-3.2-18.8-7.6-14.6 2.3.6 1.4 1.1 2.9 1.6 4.5.1.2.1.4.2.7 1.4 5.5.5 8.9-.6 10.7l-.6.9c-.3.4-.6.7-1 1l-1.7 10.9-.1.9-.4 1.3z"/><path class="st5" d="M211.5 365.6c.8 1.8-.4-1.6 0 0 3.1 2.2 10.5 8.6 14.6 8.6 2.8 0 3.6-.5 6-1.6-.7-2.3-1.2-4.6-1.5-7 0-.1-24.8-13.7-19.1 0z"/><path class="st19" d="M205.2 354c0 9.8 7.4 18 17.1 19 .7.1 1.3.1 2 .1 10.6 0 19.2-8.6 19.2-19.1 0-10.6-8.6-19.2-19.1-19.2s-19.2 8.6-19.2 19.2z"/><path class="st5" d="M202.4 439l2.7 7.1s2.2.1 5.7.2c11.7.4 37.4.8 38.6-2.1.3-.8.4-1.6.4-2.4.1-4.6-2-11.6-2-11.6s-1.2-14-1.2-14.7 1.1-10.6 1.1-10.6l-2.1-7.9-5.9-4.1s-2.6 4-4.2 4.4c-1.4.5-2.6 1.3-3.7 2.3 0 0-5.2 3.2-6.9 1.4s-14.7-9.5-14.7-9.5l-6.9 7.6-.9 39.9z"/><path class="st7" d="M202.4 440l2.7 7.1s2.2.1 5.7.2h.3c1.5 0 3.2.1 5 .1 9.3.2 22.1.3 28.8-.7 2.5-.4 4.1-.9 4.4-1.6.2-.4.3-.9.3-1.3 0-.3.1-.7.1-1 .1-4.6-2-11.6-2-11.6s-1.2-14.1-1.2-14.7 1-10.5 1-10.5l-2.1-7.9-4-2.8-1.8-1.3c-.6.9-1.3 1.8-2 2.6-.6.8-1.3 1.4-2.2 1.7-1.4.5-2.6 1.3-3.7 2.3 0 0-5.2 3.2-6.9 1.4-1.3-1.3-9.2-6.2-12.8-8.4l-1.8-1.1-.9 1-5.9 6.5-1 40z"/><path class="st5" d="M295.2 366.9l7.6 5.4s.1-1.1.3-2.5c-2.8-1.4-5.2-3.5-6.7-6.3-.7 1.9-1.2 3.4-1.2 3.4z"/><path class="st4" d="M268.3 385.1l1.7-.4s2.7 2.9 4.3 3.3 4.9 2.5 4.9 2.5l3.9 3.1s2.9.4 2-1.6 1.6-4.6 1.6-4.6 4.9-10.1 4.9-12.2 4-11 4-11 5.1 9.9 14.4 6.8c0 0-6.8 15.2-6.9 19s-4.7 14.3-4.7 14.3-1.7 7.8-10.7 7.4c0 0-12.5 2.3-15.2 0s-5.2-4.2-6.5-4.4c-1-.3-1.8-.9-2.5-1.8V395l4.8-9.9z"/><path class="st5" d="M283.9 395s-2.2 8.2-.8 9l.8-9zm-73.1 52.3c11.7.4 37.4.8 38.6-2.1.3-.8.4-1.6.4-2.4l-38.2 2-.8 2.5zm-2.8 73.3s.7 2 1.7 4.6c4.9-.3 11.3-.6 17.4-.7 2.2 0 4.3 0 6.3.1 3.4 0 6.9.4 10.2 1.1 3 .9 6 1.3 9.1 1.2.8-3 1.3-5.2 1.3-5.2s-13.3-1.1-21.3-1.5l-.6-4.5-24.1 4.9z"/><path d="M197.7 488.4l1.5 3.2s.2.9.5 2.4c.9 4.5 1.2 9.1 1.1 13.6-.4 6.8 1 17 1 17s32.3-2.7 41.8 0 14.1 0 14.1 0-1.1-10.2 1.7-15.5c1.9-3.6 3.3-19.6 3.3-30.2 0-4.9-.3-8.5-.9-9.3-1.9-2.4-10.2-26.1-10.2-26.1l-1.9.1-5 .3-28.6 1.5-4.5.2-.5 1.5-13.4 41.3z" fill="#65617d"/><path class="st18" d="M183.5 477.9l-.3 2.8s14.1-4.6 13.4-10.3 0-5 0-5l-11.4 1-1.7 11.5z"/><path class="st5" d="M183.5 477.9l-.3 2.8s14.1-4.6 13.4-10.3 0-5 0-5l-11.4 1-1.7 11.5zm91-80.6c-1.4 1.2-3.2 2.1-5 2.6.5-.1 1-.3 1.5-.7 1-.7 2-1.5 3-2.3.8-.8 1.7-1.4 2.7-1.9-.7.8-1.4 1.6-2.2 2.3zm-.2 3.7c-.5.5-.8 1.1-1.1 1.7-.2.7-.3 1.5-.3 2.3-.1 1.1 0 2.2.4 3.2l2.3-5.5c.4-.9.8-1.9 1.3-2.8.2-.4 1.5-2 1.4-2.3-.5-.9-3.6 2.8-4 3.4zM211 431.3c-1.6-.2-3-.9-4.1-1.9 2.3.3 4.6 1.2 6.9 1.7 2.1.5 4.4.3 6.4-.6-2.8 1.2-6.4 1.3-9.2.8zm6.6-16.1c.4.1.8 0 1.2-.3 1.8-1 3.5-2 5.2-3.1 1.8-1 3.5-2.2 5.1-3.5-3.6 3.1-6.8 5.8-11.5 6.9zm-4.9 18.6c-.9 0-1.8 0-2.7-.2s-1.7-.7-2.3-1.5c.3-.1.7 0 .9.2 2.8 1.2 5.8 1.5 8.8 1-1.5.5-3.1.7-4.7.5zm16.6 40.8c1.8.6 3.7.9 5.6 1.1 1.5.1 3 0 4.4-.1l7.2-.5 3.6-.2c.4 0 2.2 0 1.3-.8-.4-.4-2.8-.2-3.5-.2-1.2 0-2.4-.1-3.6-.1-2.4 0-4.8 0-7.1.2-2.6.1-5.2.3-7.9.6zm8.3 3.5c1.2 0 2.8.7 4 .8 1.4.2 2.8.2 4.2.2 2.8-.1 5.6-.6 8.2-1.7-5.4.4-10.9.6-16.4.7zM253 482c-.5.1-1 .3-1.6.4-3 .9-6.3.1-9.3-.7.9 1.1 2.2 1.8 3.5 2 2.3.6 4.6.7 6.9.3.7-.1 2.5-.4 2.9-1.2.6-1.2-1.7-1-2.4-.8zm-17 5.6c-.9.2-1.8.4-2.7.7-3.4.8-6.9-.3-10.4-1.1-4.1-.9-8.3-1.3-12.6-1.2.9.2 1.8.5 2.7.9 1 .3 1.9.6 2.9.8 1.9.5 3.9.9 5.9 1.1 4 .6 8 .8 12 .5 1.8-.1 5 .1 6.6-.8-1.3-.8-2.8-1.1-4.4-.9zm-1.2-108.3s-.2 8.1 1.1 11.8c.4 1.1 1.1 3.3 1.8 5.6.8 2.6 1.6 5.6 2.3 7.9l1.1 3.9s3 24.2 3.7 35.7v.6c0 .7.1 1.3.2 2 1.7 11.4 11.6 29.1 14.9 30.5 1 .5 2 1.1 2.8 1.9 0-4.9-.3-8.5-.9-9.3-1.9-2.4-10.2-26.1-10.2-26.1l-1.9.1c0-.3.1-.7.1-1 .1-4.6-2-11.6-2-11.6s-1.2-14.1-1.2-14.7 1-10.5 1-10.5l-2.1-7.9-4-2.8c-.5-6.1-1.7-13.5-4.6-15.5-1.4-1.1-2.6-2.6-3.4-4.2-.6.1.5-.4.5-.4l.8 4z"/><path class="st4" d="M233.2 374.7c1.5-.5 3.1-.3 4.5.5 2 1.4 6 1.3 7 1.1s12-1.7 12.9-1.3 2.6-1.2 3.8.9 1.7 3.3 2.8 3.8 3.2 2.2 2.9 2.5 2.9 2.5 2.9 2.5l-6.4 20.8s4.1 26.3 6.1 28.6 19.9 31.9 13.5 37.2c-5.1 4-10.4 7.6-16.1 10.8-.7.3-3.3-4.4-6.8-5.9s-14.4-21.3-15.1-32.5-3.8-36.3-3.8-36.3-3.8-13.7-5.1-17.4-1.1-11.8-1.1-11.8l-2-3.5z"/><path class="st5" d="M197.7 488.4l1.5 3.2s.2.9.5 2.4c.3 0 .5-.1.8-.3 2.2-1.8 15.1-15 15.7-26.8.4-8.7.2-16.2.1-19.5 0-1-.1-1.7-.1-1.8 0 0-10-12.1-8.9-16.4s3.7-27.3 3.7-27.3l.4-3 .7-5.1 1.6-12.3-1.6.4c-.3.4-.6.7-1 1l-1.7 10.9-5.9 6.5-1 39.8 2.7 7.1s2.2.1 5.7.2h.3l-13.5 41z"/><path class="st4" d="M192.1 422.7s2.5-1 2.6 0 .6 3.1.6 3.1-.4 5.1 1.4 7.1 2.2 10.5 2.2 10.5 3 8.4 1.6 11.1c-.5 1-1.3 5.8-2.1 11.5-.5 3.6-1 7.5-1.4 11.1-.8 6.5-1.4 12-1.4 12s1.6 5.8 3.8 4 15.1-15 15.7-26.8c.4-8.3.3-15.5.1-19-.1-1.5-.1-2.3-.1-2.3s-10-12.1-8.9-16.4 3.7-27.3 3.7-27.3l.5-3.6.5-3.8.1-.8 1.6-12.2c-.3.1-10.1 2.3-11.4 3.6s-9.3 3.2-9.3 3.2c-2.5.7-4.4 2.6-5 5.1-.1.3-.1.5-.2.8-1.1 5.1-.7 5.7-1.4 6.6s6.8 22.5 6.8 22.5z"/><path class="st5" d="M197 477.2c3.6-.7 8.9-2.4 8.8-6-.1-3.4-4.2-4.7-7.4-5.1-.5 3.5-1 7.5-1.4 11.1z"/><path class="st19" d="M185.8 475.4c.1.3.7.6 1.5.8 1.9.5 3.9.8 5.9 1 0 0 12.2-1 12-6.5-.1-4-5.6-5-8.7-5.3-1.2-.1-2.1-.1-2.1-.1s-9.1 8.9-8.6 10.1z"/><path class="st5" d="M185.8 475.4c.1.3.7.6 1.5.8 3.2-4.3 7.6-9.7 9.8-10.2 0 0-.3-.3-.7-.6-1.2-.1-2.1-.1-2.1-.1s-9 8.9-8.5 10.1z"/><path class="st4" d="M188.9 399.6l-3.6.5c-1.3 2.3-2.7 4.5-4.3 6.6-1 1.2-1.5 2.7-1.6 4.2 0 0-5.3 7.8-6.9 8.7s-4.2 6.8-4.2 6.8-4.1 2.7-4.1 5.8c-.1 2.6-.3 5.1-.8 7.6-.1.4.6 5.9 2.4 8.6s3.5 8.8 3.4 9.8 4.9 6.7 6.3 8.4c1.2 1.6 2.2 3.4 3.1 5.2l4.7 8.8s9.8-14.5 13.4-15.3c0 0-4-3.9-6.1-4.6s-4-6.5-4-7.8-1.9-5.7-3.7-6.5-2.8-1.6-2-2.8 0-3.6 0-3.6 5.2-6.8 5.9-10.8 5.4-6.6 5.4-6.6l2.7-6.7-6-16.3z"/><path class="st5" d="M175.8 432.4c-2-1.7-4.5-2.6-7.1-2.7 1.7.1 3.3.8 4.6 1.8.5.5.9 1.1 1.3 1.6.4.6 3.8 4.9 4.4 4.2.8-1-2.5-4.3-3.2-4.9zm8-4.2c-1.1-.1-2.1-.8-2.5-1.8s-.7-2-.8-3.1c-.3-1.8-.6-3.6-1.1-5.3-.1-.4-.2-.7-.2-1.1s.2-.7.3-1.1c.2-.6.4-1.1.8-1.6.6.7.8 2.4 1.1 3.3l.9 3.6c.2.6 1.4 7.1 1.5 7.1zm3.1-35.5c.4.5.8.9 1.2 1.3 1.4 1.1 3.3 2.1 3.5 3.9 0 .6 0 1.2.2 1.7.5.8 1.6.7 2.5.6.8-.1 1.5-.3 2.1-.8.9-.8 1-2.2 1.8-3.3.9-1.1 2.2-1.6 3.6-1.6 1.3 0 2.7.3 4 .3.9 0 1.7 0 2.6-.2.3 0 .6-.1.8-.2l1.8-.6c.3-.1.6-.2.9-.4.9-.5 1.7-1 2.5-1.7 1.4-1.1 2.3-2.8 2.3-4.7-.2-1.1-.4-2.1-.8-3.2-.5-3.1 1.5-6 3.8-8.3.9-.9 1.8-1.7 2.7-2.6 1.4-1.3 2.5-2.8 3.2-4.6.6-1.8.8-3.8.6-5.7-.2-2-.3-3.9-.2-5.9.7-7 6.6-12.3 12.6-15.2l.3-.1c-6.9-8-19-8.9-27-1.9-8 6.9-8.9 19-1.9 27 .9 1.1 2 2.1 3.2 2.9.1.2.1.4.2.7 1.4 5.5.5 8.9-.6 10.7-.3.1-10.1 2.3-11.4 3.6s-9.3 3.2-9.3 3.2c-2.7.7-4.6 2.6-5.2 5.1z"/><path class="st20" d="M240.1 336.4c-.4-.5-1-.7-1.4-1.1-1.3-1.4 0-3.5-.5-5.3-.5-2-2.9-2.8-4.9-2.6s-3.9 1.1-5.9 1.4c-3.1.4-6.2-1-9.3-1.8s-6.8-.8-8.9 1.5-2 6.4-4.6 8c-1.2.8-2.7.9-4.1 1.5-1.4.7-2.6 1.9-3.4 3.3-2.1 3.3-3 7.1-2.6 11 .2 2.1.8 4.1 1.1 6.2.3 2.2.1 4.4-.4 6.5-.6 2.2-1.8 4.5-3.9 5.2-.5.1-1 .3-1.5.5-1.2.8-1.1 2.6-.8 4l1.3 5.9c-1.2.9-3.1.5-4.3 1.5-.5.4-.8 1-1 1.6-1.2 3.4-.2 7.2 2.6 9.5 1.4 1.1 3.3 2.1 3.5 3.9-.1.6 0 1.2.2 1.7.5.8 1.6.7 2.5.6.8-.1 1.5-.3 2.1-.8 1-.8 1-2.2 1.8-3.3.9-1 2.2-1.6 3.6-1.6s2.7.3 4 .3c3.1.1 6.2-1 8.5-3.1 1.4-1.1 2.3-2.8 2.3-4.7-.2-1.1-.4-2.1-.8-3.2-.5-3.1 1.5-6 3.8-8.3s4.9-4.3 5.9-7.2c1.4-3.7 0-7.7.4-11.6.7-7 6.6-12.3 12.6-15.3 1.4-.7 3.6-2.4 2.1-4.2z"/><path class="st5" d="M193.1 396.7c1-.8 1-2.2 1.8-3.3.9-1 2.2-1.6 3.6-1.6s2.7.3 4 .3c3.1.1 6.2-1 8.5-3.1 1.4-1.1 2.3-2.8 2.3-4.7-.2-1.1-.4-2.1-.8-3.2-.5-3.1 1.5-6 3.8-8.3s4.9-4.3 5.9-7.2c1.4-3.6 0-7.7.4-11.6.7-7 6.6-12.3 12.6-15.3 1.4-.7 3.6-2.4 2.1-4.2-.4-.5-1-.7-1.4-1.1-1.2-1.4 0-3.6-.5-5.3-.1-.4-.2-.7-.5-1 1.5.1 2.8 1.1 3.2 2.6.4 1.8-.8 4 .5 5.3.4.4 1 .7 1.4 1.1 1.5 1.8-.7 3.5-2.1 4.2-6 2.9-11.9 8.3-12.6 15.3-.4 3.9.9 8-.4 11.6-1.1 3-3.7 5-5.9 7.2s-4.3 5.2-3.8 8.3c.3 1 .6 2.1.8 3.2 0 1.8-.9 3.5-2.3 4.7-2.3 2.1-5.4 3.2-8.5 3.1-1.4-.1-2.7-.4-4-.3-1.4 0-2.7.5-3.6 1.6-.7 1-.8 2.5-1.8 3.3-.6.4-1.3.7-2.1.8-.9.2-2 .2-2.5-.6-.2-.3-.2-.7-.2-1 .9-.1 1.5-.4 2.1-.8z"/></svg>