<svg version="1.1" id="abd2d575-db47-4a01-ab9c-7ced98725eec" xmlns="http://www.w3.org/2000/svg" x="0" y="0" viewBox="0 0 1162 716.9" xml:space="preserve"><style>.st0{opacity:.1;fill:#6c63ff;enable-background:new}.st1{fill:#3f3d56}.st2{fill:#41d6c3}.st3{opacity:.1;enable-background:new}.st4{fill:#a1616a}.st5{fill:#5596e6}.st6{fill:#454b69}.st9{opacity:.5;fill:#6c63ff;enable-background:new}</style><path class="st0" d="M0 716.9h1123s98.4-127.4-17.4-258.4c-43-48.6-46.3-108.6-33.4-165C1107 141.1 967.7 6.3 816.5 45.9c-2.9.8-5.8 1.5-8.7 2.3-227.9 62.2-414.5-.3-486.3-31.2C292.8 4.6 261.8-1.1 230.7.2 150.1 3.8 28 34.8 141.4 205.8 301.3 446.9 0 716.9 0 716.9z"/><ellipse class="st1" cx="270.5" cy="666.4" rx="22.5" ry="29.5"/><ellipse class="st1" cx="270.5" cy="630.4" rx="22.5" ry="29.5"/><ellipse class="st1" cx="270.5" cy="594.4" rx="22.5" ry="29.5"/><ellipse class="st1" cx="270.5" cy="558.4" rx="22.5" ry="29.5"/><ellipse class="st1" cx="270.5" cy="522.4" rx="22.5" ry="29.5"/><ellipse class="st1" cx="270.5" cy="486.4" rx="22.5" ry="29.5"/><ellipse class="st1" cx="270.5" cy="450.4" rx="22.5" ry="29.5"/><ellipse class="st1" cx="457.5" cy="675.4" rx="12.5" ry="16.4"/><ellipse class="st1" cx="457.5" cy="655.4" rx="12.5" ry="16.4"/><ellipse class="st1" cx="457.5" cy="635.4" rx="12.5" ry="16.4"/><ellipse class="st1" cx="457.5" cy="615.4" rx="12.5" ry="16.4"/><ellipse class="st1" cx="457.5" cy="595.4" rx="12.5" ry="16.4"/><ellipse class="st1" cx="457.5" cy="575.4" rx="12.5" ry="16.4"/><ellipse class="st1" cx="457.5" cy="555.4" rx="12.5" ry="16.4"/><path class="st2" d="M354.7 204.1c3.1-3.9 5.9-8 8.4-12.3L304 182l63.9.5c12.4-27 13.1-57.9 2.1-85.4l-85.8 44.5 79.1-58.2C333.5 31.9 267.6 14.3 216 44.2s-69.1 95.8-39.3 147.3c2.6 4.4 5.4 8.6 8.6 12.6-4.8 6.1-8.9 12.7-12.3 19.7l76.7 39.9-81.8-27.5c-11.7 34.5-5.1 72.6 17.4 101.2-36.8 46.8-28.7 114.5 18.1 151.3s114.5 28.7 151.3-18.1c30.7-39.1 30.7-94.2 0-133.2 30.8-39.2 30.8-94.2 0-133.3z"/><path class="st3" d="M162.2 270.7c0 24.2 8.1 47.7 23.1 66.6-36.8 46.8-28.7 114.5 18.1 151.3s114.5 28.7 151.3-18.1c30.7-39.1 30.7-94.2 0-133.2 14.5-18.3-192.5-78.7-192.5-66.6z"/><path class="st2" d="M401.3 374c-2.1-2.6-3.9-5.4-5.6-8.2l39.4-6.5-42.6.3c-8.3-18-8.8-38.6-1.4-56.9l57.2 29.7-52.7-38.8c19.9-34.3 63.9-46 98.2-26.1 34.3 19.9 46 63.9 26.1 98.2-1.7 2.9-3.6 5.7-5.6 8.3 3.2 4.1 5.9 8.5 8.2 13.1l-51.2 26.6 54.6-18.3c7.8 23 3.4 48.4-11.6 67.5 24.5 31.2 19.1 76.4-12.1 100.9-31.2 24.5-76.4 19.1-100.9-12.1a71.797 71.797 0 010-88.8c-20.6-26.1-20.6-62.8 0-88.9z"/><path class="st3" d="M529.6 418.4c0 16.1-5.4 31.8-15.4 44.4 24.5 31.2 19.1 76.4-12.1 100.9-31.2 24.5-76.4 19.1-100.9-12.1a71.797 71.797 0 010-88.8c-9.6-12.1 128.4-52.4 128.4-44.4z"/><path class="st1" d="M0 716.9s120.5-117 162.2-77.6 217.9 49.8 234.1 47.5 111.3-7 164.6-1.2 542.3-16.2 562 31.3H0z"/><path class="st0" d="M781.1 144.4h-54.2c1.3-1.6 2-3.7 2-5.8 0-1.2-.2-2.4-.7-3.5h25c5.1 0 9.3-4.2 9.3-9.3 0-5.1-4.1-9.3-9.3-9.3H603.8c-5.1 0-9.3 4.2-9.3 9.3 0 1.2.2 2.4.7 3.5h-25c-5.1.2-9.1 4.5-9 9.6.2 4.9 4.1 8.8 9 9h54.2c-1.3 1.6-2 3.7-2 5.8 0 5.1 4.2 9.3 9.3 9.3h149.4c5.1 0 9.3-4.2 9.3-9.3s-4.2-9.3-9.3-9.3zm244.5 133.3h-54.2c1.3-1.6 2-3.7 2-5.8 0-1.2-.2-2.4-.7-3.5h25c5.1 0 9.3-4.2 9.3-9.3 0-5.1-4.2-9.3-9.3-9.3H848.3c-5.1 0-9.3 4.2-9.3 9.3 0 1.2.2 2.4.7 3.5h-25c-5.1.2-9.1 4.5-9 9.6.2 4.9 4.1 8.8 9 9h54.2c-1.3 1.6-2 3.7-2 5.8 0 5.1 4.2 9.3 9.3 9.3h149.4c5.1 0 9.3-4.2 9.3-9.3 0-5.2-4.2-9.3-9.3-9.3zm-488.7-56.4h-31.8c.8-1 1.2-2.2 1.2-3.4 0-.7-.1-1.4-.4-2h14.7c3 0 5.4-2.4 5.4-5.4 0-3-2.4-5.4-5.4-5.4H433c-3 0-5.4 2.4-5.4 5.4 0 .7.1 1.4.4 2h-14.6c-3 0-5.4 2.4-5.4 5.4s2.4 5.4 5.4 5.4h31.8c-.8 1-1.2 2.2-1.2 3.4 0 3 2.4 5.4 5.4 5.4H537c3-.1 5.3-2.7 5.2-5.7-.2-2.7-2.5-5-5.3-5.1z"/><path class="st4" d="M689.5 664c-.3 2.1-.9 4.1-1.7 6 3.4 1.3 7 2.1 10.6 2.5.2 0 .5 0 .7-.1.3-.2.2-.6.2-1-.1-2 .3-3.9 1.1-5.8 2-5.6 4-11.1 5.9-16.7-3.5-1.6-10.6-.6-13.5 2-2.8 2.4-2.7 9.7-3.3 13.1zm49.6 9.3c-.1.2-.2.5-.2.7 0 .9 1.2 1.2 2.1 1.3 4.3.4 8.5 1.3 12.6 2.6.5-1.5-.2-3.1-.2-4.6 0-2.2 1.3-4.1 2.1-6.1 1.4-3.5 1.3-7.5 1.2-11.3-3.4.2-11.6-1.3-13.5 2.2-1.1 2-1 5-1.5 7.2-.7 2.8-1.6 5.4-2.6 8z"/><path class="st1" d="M718.8 519.6l-9 .5c-.6 0-1.2.1-1.6.5-.4.4-.6 1-.6 1.6-1.2 9 .9 18.2-.2 27.2-.5 3.5-1.4 7-2.1 10.5-1.2 5.8-1.9 11.7-2.6 17.6-.4 2.9-.6 5.9-.3 8.8.3 2.5 1 4.9 1.1 7.4 0 2.9-.5 5.9-1.5 8.6-1.5 4.8-3.4 9.4-5.6 13.9-1.9 3.9-4.1 7.6-5.3 11.8-1.9 6.6-1 13.8-3.2 20.3-.5 1.6-1.3 3.3-1 4.9.4 2.2 2.5 3.7 4.6 4.1 2.2.3 4.4.1 6.5-.5 3.5-.8 7.2-1.6 9.7-4.2 1.4-1.7 2.5-3.7 3.2-5.8 1.6-4 3.3-8.1 4.7-12.1.6-1.9 1.4-3.8 2.3-5.7.8-1.6 1.8-3 2.7-4.6 1.4-2.7 2.6-5.5 3.5-8.4 6.4-19.7 8.4-41 18.1-59.3.5-.9.5-2 1-2.8.9 3 1.4 6.1 1.3 9.2.2 7.1 0 14.2-.5 21.3-.4 5.2-1 10.3-1.1 15.5v9c.1 3.4.2 6.7.5 10.1 1.4 13.8-3 27.3-1.4 41.1 0 .5.2 1 .5 1.4.7.7 1.9.3 2.8-.1 3-1.3 6.2-2.1 9.5-2.4 1 0 2-.2 2.9-.6 1.4-.9 1.8-2.7 2.1-4.4 2.2-13.5 4.4-26.9 6.5-40.4.6-3.2 1-6.5 1.2-9.7.3-4.2-.1-8.5.3-12.7.6-6 3-11.7 4.8-17.4.9-3 1.9-6 2.8-9s1.7-6.1 2.3-9.2c1.2-5.4 2.1-10.9 1.3-16.3s-3.7-10.8-8.5-13.4c-3.5-1.9-7.7-2.2-11.7-2.7-11.4-1.3-22.7-4-34.2-3-1.9.3-3.8-.7-5.8-.6zm-25.3 183.6c.6-.9 1.1-1.9 1.4-3l3.7-10c1.2-3 2.2-6 3-9.1.9-3.7 1.3-7.5 1.2-11.3-3.8 0-7.5-.5-11.1-1.6-1.4-.5-2.8-.8-4.2-.9-4.1.1-7.2 3.5-7.1 7.5v.2c.1.6.2 1.2.2 1.8-.1.6-.3 1.2-.5 1.8l-3.9 9.6c-1.1 2.3-1.8 4.8-2 7.4-.4 9 13.6 15.7 19.3 7.6zm38-.9c-.2 1.5-.2 3 0 4.5.8 4.2 4.9 7.4 9.2 7.7 4.4.1 8.6-1.9 11.1-5.5.8-1.1 1.4-2.3 1.8-3.5.3-1.2.5-2.5.6-3.8l1.6-16.8c.2-2.4 1.2-5.8 0-8-1-1.9-3.4-2.5-5.3-3.2-3.1-1.3-6.5-1.8-9.8-1.5-5.8.5-5.8 6.4-6.7 11.2-1.1 6.3-1.9 12.6-2.5 18.9zm1.7-341.8c-2.7 3.8-6.6 6.5-9.3 10.4-2.4 3.5-3.6 7.6-3.4 11.9.1 2.2.5 4.4 0 6.5-.5 1.6-1.4 3.1-2.6 4.3-4.4 5.1-10 8.9-16.4 10.9-.8.2-1.7.8-1.5 1.5.1.3.4.6.7.8l13 9.3c7.6 5.5 15.3 11 23.7 15.1 15.1 7.3 31.9 10 48.5 7.6-2.1-3.3-3.4-7.1-3.8-11-.5-4.7.3-9.4.3-14.2-.1-4.8-1.1-9.6-3-14-1.1-2.6-2.5-5-3.4-7.7-.9-3.3-1.4-6.6-1.4-10l-.7-11.2c0-2.1-.3-4.1-.9-6.1-.6-1.5-1.4-2.9-2.4-4.2-4.8-6.2-12-8.9-19.6-9.5-3.3-.3-7.4-.5-10.4.9-3.7 1.7-5.2 5.6-7.4 8.7z"/><path class="st4" d="M732 400.9c-.8 2.1-2.5 3.7-4.7 4.4-2.1.7-4.3 1-6.5 1l-4.8.2c-.5 0-1.1.1-1.5.4-.3.3-.4.7-.4 1.1-.3 2.5 1.2 4.9 2.7 7 4.7 6.6 10.4 13 17.8 16.3 11.6 5.3 25.3 2.5 33.9-6.8.5-.4.8-1 .9-1.7 0-1-.6-1.9-1.4-2.3-1.6-1.2-3.4-1.9-5-3.1-2.7-2-4.6-4.9-5.4-8.2-.8-3.3-1-6.6-.5-10-5.9-1.7-12.4-.4-18.3-2-1.4-.4-4-1.8-5.5-1s-.8 3.2-1.3 4.7z"/><path class="st3" d="M732 400.9c-.8 2.1-2.5 3.7-4.7 4.4-2.1.7-4.3 1-6.5 1l-4.8.2c-.5 0-1.1.1-1.5.4-.3.3-.4.7-.4 1.1-.3 2.5 1.2 4.9 2.7 7 4.7 6.6 10.4 13 17.8 16.3 11.6 5.3 25.3 2.5 33.9-6.8.5-.4.8-1 .9-1.7 0-1-.6-1.9-1.4-2.3-1.6-1.2-3.4-1.9-5-3.1-2.7-2-4.6-4.9-5.4-8.2-.8-3.3-1-6.6-.5-10-5.9-1.7-12.4-.4-18.3-2-1.4-.4-4-1.8-5.5-1s-.8 3.2-1.3 4.7z"/><circle class="st4" cx="747.1" cy="390.8" r="20"/><path class="st5" d="M761.6 411.1c-3.7 1.6-7.5 2.8-11.5 3.7-4 .9-8.1.7-11.9-.6-2.6-1.1-5.1-2.6-7.4-4.2-4.1-2.6-8.7-5-13.6-5.5-2.3-.2-4.8 0-6.6 1.4-1.7 1.6-2.7 3.7-2.9 6-.7 4.8.5 9.6 1.5 14.3 3.8 17.8 6 36.5 1.7 54.3-2.3 9.4.2 19.2.5 28.9 0 3.3.4 6.6 1.3 9.8 1 3.2 3.2 6.1 6.2 7.4 2.8 1.2 6.1.8 9.2.6 3.7-.3 7.5-.3 10.8 1.2 2.4 1.1 4.6 3 7.2 2.8 1.3-.1 2.5-.8 3.8-1 2.6-.4 5.2 1 7.5 2.2 5.9 2.9 12.4 4.6 19 4.8 3.4-7.9 1.6-16.8 2-25.5.2-3.2.6-6.4.8-9.6.2-3.9.1-7.8-.2-11.7l-1.2-26.2c-.3-7.1 3.3-14.1 3-21.2-.2-3.3-.7-6.6-1.4-9.9-.2-1.1-.5-2.2-.8-3.3-2.2-7.5-8.5-13-14.6-17.9-.4-.6-1.4-1-2.4-.8z"/><path class="st6" d="M728.2 528.1c.1 7-2.4 13.8-4.9 20.3-.8 2-1.7 4.2-3.6 5.2s-4.1.3-6-.4c-1.8-.7-3.5-1.5-5.1-2.4-1.7-1-3.7-2.1-5.6-1.4-2.3.8-3 3.6-3.3 6-3.1 0-6.3-.1-9.3-.6-.3 0-.6-.1-.8-.3-.3-.3-.5-.7-.5-1.1-.3-1.7-.7-3.3-1-5-.1-.5-.5-1.2-1-1 .4-6.5-.9-12.9-1.4-19.4-.3-3.3-.2-6.6.1-9.8.5-3.3 1.1-6.5 1.9-9.7 1.5-6.9 4.5-13.8 4.7-20.8 0-1.4-.1-2.8-.3-4.2-1.4-8.7-2.8-17.5-4.2-26.2-.4-2.2-.7-4.4-1.2-6.5-.4-1.6-.7-3.2-1.2-4.7-.3-.9-.5-1.9-.8-2.8 2.7-7.3 5.3-14.7 8-22 .6-1.8 1.3-3.6 2.2-5.3 2-3.8 5.1-6.8 9-8.7 1.1-.4 2.2-1.1 3-2 .4-.5.6-1.1 1-1.7 1.4-2 4.3-2.2 6.7-1.7 2.2.4 4.5 1.2 5.8 3 .5.8 1 1.7 1.3 2.6 1.6 3.9 3.2 7.8 4.8 11.6 1.4.7 2 2.5 2 4 0 2.9-.4 5.8-.3 8.6 0 .2 0 .4.1.6.4 2.6 2.2 4.8 2.8 7.4 2.4 10-1.1 20.2-3.1 30.3-.1.4-.2.8-.2 1.2-1.1 5.8-1.6 11.8-1.6 17.7 0 2.5.2 4.9.5 7.4.3 2.2.9 4.3 1.1 6.4.2 3 .2 6 0 9.1-.5 5.4.4 10.8.4 16.3z"/><path class="st6" d="M736.5 442.4c.7 1.2 1.1 2.6 1.1 4 0 .6-.2 1.2-.6 1.7-.6.6-1.5.8-2.3.6-.8-.2-1.6-.5-2.2-1-.9-.5-1.6-1.2-2.1-2.1-.2-.4-.3-.9-.3-1.3l-.5-3.4c-.2-.7-.2-1.3 0-2 .5-1.4 2.5-3.8 4-2.7s2.1 4.6 2.9 6.2zm58.5 5.5c-.6-1.5-2.3-2.2-3.8-3-3-1.7-5.1-4.6-6.7-7.6s-2.8-6.3-4.5-9.2c-.3-.5-.7-1-1.1-1.4-.5-.3-1.2-.3-1.7.1-.2.3-.3.6-.4 1-.4 2.2.3 4.4.6 6.7 1.1 7.6-1.2 15.3-6.3 21-2.1 2.3-4.6 4.3-5.8 7.2-.7 2.3-.9 4.7-.6 7l.7 12.8c.6 13-.8 26-4.3 38.5-2 7.2-5.4 14.5-4 21.8.5 2.8 1.7 5.6 1.2 8.4-.2.5-.2 1.1 0 1.6.2.4.6.7 1 .9l6.7 4.3 6-17.8c.6-1.5 1-3.1 1.3-4.7.3-1.8.4-3.6.4-5.5.4-16 2.5-31.9 6.2-47.4.5-2.2 1.1-4.4 2-6.6 1.7-3.9 4.6-7.1 7.5-10.3.1-1.5-.1-2.9 0-4.4 0-2.6.4-5.1 1.1-7.6.8-2.4 2.2-4.7 4.5-5.8z"/><path class="st6" d="M784.9 464.5c-.2 4.2-.2 8.4.2 12.6l1 16.7c0 2.2.4 4.5 1 6.6.8 2.3 2.3 4.3 3 6.6.3.8.4 1.6.7 2.4.3 1 .8 1.9 1.2 2.8 2.7 6.1 3.4 12.9 3.6 19.6s-.2 13.4.5 20c-1.7.5-3.5.6-5.3.3-.7-.2-1.3-.3-2-.3-.6.1-1.1.2-1.7.5-4.8 1.7-10.1 1.3-14.5-1.3-1.3-.8-2.5-1.7-3.7-2.7-1-.8-1.8-1.7-2.5-2.7-.8-1.5-1.2-3.2-1.2-4.9-.2-6.8 2-13.4 3.5-20 1.3-6.4 2.3-12.9 3-19.4 1.1-9.5.8-19.3 3-28.7.2-1.4.8-2.6 1.6-3.7.7-.7 1.6-1.3 2.6-1.7l6-2.7z"/><path class="st3" d="M795 447.9c-.6-1.5-2.3-2.2-3.8-3-3-1.7-5.1-4.6-6.7-7.6s-2.8-6.3-4.5-9.2c-.3-.5-.7-1-1.1-1.4-.5-.3-1.2-.3-1.7.1-.2.3-.3.6-.4 1-.4 2.2.3 4.4.6 6.7 1.1 7.6-1.2 15.3-6.3 21-2.1 2.3-4.6 4.3-5.8 7.2-.7 2.3-.9 4.7-.6 7l.7 12.8c.6 13-.8 26-4.3 38.5-2 7.2-5.4 14.5-4 21.8.5 2.8 1.7 5.6 1.2 8.4-.2.5-.2 1.1 0 1.6.2.4.6.7 1 .9l6.7 4.3 6-17.8c.6-1.5 1-3.1 1.3-4.7.3-1.8.4-3.6.4-5.5.4-16 2.5-31.9 6.2-47.4.5-2.2 1.1-4.4 2-6.6 1.7-3.9 4.6-7.1 7.5-10.3.1-1.5-.1-2.9 0-4.4 0-2.6.4-5.1 1.1-7.6.8-2.4 2.2-4.7 4.5-5.8z"/><path class="st4" d="M787.6 553c-.2.8-.7 1.4-1.3 1.9-.7.4-1.8.1-1.8-.7-1.1-.2-2 1.2-3.1 1.3s-2.1-1-3.1-.8c-.7.2-1.3.9-1.9.6-.3-.1-.4-.4-.7-.5-.4-.1-.8.3-1.3.4-.9.2-1.6-.9-1.6-1.9s.3-2-.2-2.8c-.1-.1-.2-.3-.3-.3-.3-.1-.6.1-.8.4-.7 1-1 2.4-1.7 3.4s-2.5 1.5-3.2.5c-.3-.6-.3-1.2-.1-1.8.5-2.6 1.5-5.3 3.8-6.5 2-1 4.4-.6 6.6-.2 3.1.7 6.1 1.4 9.2 2.1.8.2 2.8.3 3.1 1.2s-1.3 2.9-1.6 3.7z"/><path class="st1" d="M751.6 376.7c1 5.4 4.1 10.1 6.5 15s4.4 10.5 3.1 15.8c-.6 1.8-1.2 3.6-2 5.4-1 3.1-1.7 6.3-2.1 9.6-.7 4.4-1.3 8.9-.8 13.3s2.4 8.9 6 11.6l-.3-2c1.5.8 2.9 1.8 4.2 2.9 1.4-2.5 2.4-5.3 3-8.2l6.8 5.3c3 2.3 6.4 4.7 10.1 4.3l-3-6.9c-.8-1.9-1.7-3.8-2.6-5.7-.7-1.1-1.2-2.3-1.6-3.5-.3-1-.4-2.1-.4-3.2-1.2-17.7-4.5-35.1-9.8-52-1.1-3.9-2.7-7.6-4.7-11-1-1.6-2.4-3-3.9-4.1-2.5-1.6-5.5-1.9-8.5-2.2-2.1-.3-4.1-.3-6.2-.1-2.1.3-4.1 1-6 2.1-5.9 3-10.8 7.8-13.8 13.7-2.3 4.3-3.3 9.1-3.1 13.9.4 5.1 5.3 2.8 8.5 1.5 8-3.1 15.8-8 20.6-15.5z"/><path class="st3" d="M736.5 442.4c.7 1.2 1.1 2.6 1.1 4 0 .6-.2 1.2-.6 1.7-.6.6-1.5.8-2.3.6-.8-.2-1.6-.5-2.2-1-.9-.5-1.6-1.2-2.1-2.1-.2-.4-.3-.9-.3-1.3l-.5-3.4c-.2-.7-.2-1.3 0-2 .5-1.4 2.5-3.8 4-2.7s2.1 4.6 2.9 6.2z"/><path class="st6" d="M742.7 407.4l-3.7 28.1 16.4-1 5.4-27.1z"/><circle cx="750.8" cy="415.8" r="1.3" fill="#fff"/><path d="M761.7 404.2c.2-.5.3-1 .5-1.5 1.3-5.3-.6-10.9-3.1-15.8s-5.5-9.6-6.5-15c-4.8 7.5-12.5 12.4-20.7 15.6-3.3 1.3-8.2 3.6-8.5-1.5-.1-1.1-.1-2.3 0-3.4-.8 2.6-1.1 5.4-.9 8.1.4 5.1 5.3 2.8 8.5 1.5 8.1-3.1 15.9-8.1 20.7-15.5 1 5.4 4.1 10.1 6.5 15 1.9 3.8 3.5 8.2 3.5 12.5zm15.3 36.4c-2.3-1.7-4.5-3.5-6.8-5.3-.5 2.9-1.6 5.6-3 8.2-1.3-1.1-2.7-2.1-4.2-2.9l.3 2c-3.6-2.7-5.5-7.2-6-11.6s.1-8.9.8-13.4c.1-.5.2-1 .2-1.4-.5 2-.8 4.1-1.1 6.2-.7 4.4-1.3 8.9-.8 13.3s2.4 8.9 6 11.6l-.3-2c1.5.8 2.9 1.8 4.2 2.9 1.4-2.5 2.4-5.3 3-8.2 2.3 1.8 4.5 3.5 6.8 5.3 3 2.3 6.4 4.7 10.1 4.3l-2.2-5c-2.5-.6-4.9-2.3-7-4z" opacity=".1"/><path class="st4" d="M733.7 422.3c1.6-2.1 3.4-3.9 5.6-5.3.3-.2.7-.4 1.2-.3.3.1.6.3.9.4.4 0 .8-.1 1.1-.3l4.6-2.2c.7-.4 1.4-.6 2.2-.6.8 0 1.5.6 1.6 1.4 0 .9-.8 1.4-1.6 1.9-2.3 1.3-4.5 2.8-6.5 4.5-1 .9-2.1 2.4-1.4 3.5.7.7 1.6 1 2.5.8 1.7.1 3.4 0 5-.4 1.3-.3 2.6-.9 3.9-1.2 1.2-.2 2.5-.4 3.7-.4.7-.1 1.5 0 2.1.5.5.5.5 1.6-.2 1.7 1 1.3.1 3.3-1.2 4.3s-3 1.4-4.4 2.3c1.6-.6 3.5-1.1 4.9-.2.2.1.4.3.5.6.1.5-.4.8-.8 1-6.6 3.1-14.3 2-21.2 4.3-2.9 1-5.6 2.5-7.9 4.5 1.1-1-5.5-8-5-10 .5-1.6 3.8-3.7 5-5 1.9-1.9 3.7-3.8 5.4-5.8z"/><path class="st3" d="M733.4 454.1c-.1.9 0 1.8.3 2.7.5 2.3-.3 4.6-1.3 6.7-1.3 2.3-2.8 4.5-4.7 6.4-2.2 2.3-4.6 4.4-7.1 6.3-4.9 3.9-10.1 7.4-15.4 10.6-1.3.9-2.9 1.6-4.5 2-1.2.2-2.5.1-3.7-.1-1.7-.1-3.3-.5-4.9-1 0-1.4-.1-2.8-.3-4.2-1.4-8.7-2.8-17.5-4.2-26.2-.4-2.2-.7-4.4-1.2-6.5-.4-1.6-.7-3.2-1.2-4.7v-.1c1-2.5 3.9-4.1 4.2-6.8 4.2-.4 8.2-.9 12.4-1.3.6 4 .3 8-.8 11.8.7.1 1.3-.3 1.5-1 .3-.6.4-1.2.7-1.8 1-2.3 3.9-2.8 6-4.1 3.6-2.3 5.2-7.2 9.1-8.9.3-.2.6-.2.9-.2.9.2 1 1.7 1.9 1.7.3-.1.5-.2.7-.4 1.6-1.5 3.6-2.7 5.2-4.1.2.4.4.9.6 1.3 2.2 4.5 4.5 9 6.7 13.5.9 1.8 1.8 3.6 3.6 4.6-.4 2-3.9 1.8-4.5 3.8z"/><path class="st6" d="M688.4 437c-.3 2.7-3.2 4.3-4.2 6.8-.4 1.3-.6 2.7-.5 4.1-.1 4-1 7.8-1.5 11.7s-.6 8 .8 11.7c.9 2.2 2.2 4.2 2.8 6.4.4 1.5.4 3.2 1.1 4.6 1.5 3 5.5 3.8 8.9 4.2 1.2.2 2.5.2 3.7.1 1.6-.4 3.1-1 4.5-2 5.3-3.2 10.5-6.8 15.4-10.6 4.6-3.6 9-7.5 11.7-12.7 1.1-2.1 1.9-4.4 1.3-6.7-.4-.8-.5-1.8-.3-2.7.6-2 4.1-1.8 4.9-3.8-1.7-.9-2.7-2.8-3.6-4.5l-7.3-14.8c-1.6 1.5-3.6 2.7-5.2 4.1-.2.2-.5.4-.8.4-.9.1-1.1-1.5-1.9-1.7-.3 0-.6 0-.9.2-3.9 1.7-5.5 6.6-9.1 8.9-2.1 1.3-5 1.9-6 4.1-.3.6-.4 1.3-.7 1.8-.2.6-.9 1-1.5 1 1.1-3.8 1.4-7.9.8-11.8-4.2.4-8.2.9-12.4 1.2zm98.8 115.3c.3-.1.5-.2.8-.3 1-.9 1.4-2.3.9-3.6-.3-.9-2.3-1-3.1-1.2-3.1-.7-6.1-1.4-9.2-2.1-2.2-.5-4.6-.9-6.6.2-.7.4-1.3 1.7-1.8 2.3l.8.7c.8.7 1.7 1.4 2.6 2 .2-.2.4-.3.7-.2l.3.3c.1.2.2.4.2.6 4.3 2.6 9.6 3 14.4 1.3z"/><path class="st1" d="M1138 368.3v85.4c0 2.5-4.8 4.6-10.7 4.6H901.8c-5.9 0-10.7-2.1-10.7-4.6v-85.4c0-2.5 4.8-5.1 10.7-5.1h225.5c6-.1 10.7 2.5 10.7 5.1z"/><path class="st5" d="M999.5 393.6H1117v4.1H999.5z"/><path class="st9" d="M999.5 403.8H1117v4.1H999.5zm0 10.1H1117v4.1H999.5zm0 10.1H1117v4.1H999.5z"/><path class="st5" d="M940 384.5c-15.4 0-27.9 12.5-27.9 27.8 0 9.4 4.7 18.1 12.5 23.3v-4.7c0-3.2 2.4-5.9 5.6-6.3 2.9 5.4 9.5 7.4 14.9 4.5 1.9-1 3.5-2.6 4.5-4.5 3.2.4 5.6 3.1 5.6 6.3v4.8c12.9-8.4 16.6-25.6 8.2-38.5-5.1-7.9-13.9-12.7-23.4-12.7zm12.3 34c-.1.2-.2.3-.4.5s-.5.3-.8.3h-.6c-1.7 5.9-7.9 9.2-13.7 7.5-4.7-1.4-7.9-5.7-7.9-10.6 0-1.9.5-3.8 1.4-5.4l-.1-.1c-1.4-1.1-1-4.1.4-5.1.7-.4 1.5-.7 2.3-.8 2.4-.7 4.5-2.3 5.8-4.4 0 .6 0 1.1-.1 1.7.9-1 2.5-1.1 3.5-.2.3.4.6.8 1 1.1.4.2.8.3 1.2.4l2.8.4c1.9-.2 3.7 1.1 4.2 3 .8 1.9 1.4 3.9 1.8 5.9.5 1.9.2 4-.8 5.8z"/><path class="st1" d="M1138 128.6V214c0 2.5-4.8 4.6-10.7 4.6H901.8c-5.9 0-10.7-2.1-10.7-4.6v-85.5c0-2.5 4.8-5.1 10.7-5.1h225.5c6 0 10.7 2.6 10.7 5.2z"/><path class="st5" d="M999.5 154H1117v4.1H999.5z"/><path class="st9" d="M999.5 164.1H1117v4.1H999.5zm0 10.1H1117v4.1H999.5zm0 10.1H1117v4.1H999.5z"/><path class="st5" d="M940 144.9c-15.4 0-27.9 12.5-27.9 27.8 0 9.4 4.7 18.1 12.5 23.3v-4.7c0-3.2 2.4-5.9 5.6-6.3 2.9 5.4 9.5 7.4 14.9 4.5 1.9-1 3.5-2.6 4.5-4.5 3.2.4 5.6 3.1 5.6 6.3v4.8c12.9-8.4 16.6-25.6 8.2-38.5-5.1-8-13.9-12.7-23.4-12.7zm12.3 34c-.1.2-.2.3-.4.5s-.5.3-.8.3h-.6c-1.7 5.9-7.9 9.2-13.7 7.5-4.7-1.4-7.9-5.7-7.9-10.6 0-1.9.5-3.8 1.4-5.4l-.1-.1c-1.4-1.2-1-4.1.4-5.1.7-.4 1.5-.7 2.3-.8 2.4-.7 4.5-2.3 5.8-4.4 0 .6 0 1.1-.1 1.7.9-1 2.5-1.1 3.5-.2.3.4.6.8 1 1.1.4.2.8.3 1.2.4l2.8.4c1.1 0 2.3.4 3.2 1.1.5.5.8 1.2 1 1.9.8 1.9 1.4 3.9 1.8 5.9.4 1.8.1 3.9-.8 5.8z"/><path class="st1" d="M1026 247.9v85.4c0 2.5-4.8 4.6-10.7 4.6H789.8c-5.9 0-10.7-2.1-10.7-4.6v-85.4c0-2.5 4.8-5.1 10.7-5.1h225.6c5.8 0 10.6 2.6 10.6 5.1z"/><path class="st5" d="M887.4 273.3h117.5v4.1H887.4zm-59.4-9.1c-15.4 0-27.9 12.5-27.9 27.9 0 9.4 4.7 18.1 12.5 23.2v-1.9c0-3.2 2.4-5.9 5.6-6.3 2.9 5.4 9.7 7.3 15 4.4 1.8-1 3.4-2.5 4.4-4.4 3.2.4 5.6 3.1 5.6 6.3v2c12.9-8.3 16.6-25.6 8.3-38.5-5.2-7.9-14-12.7-23.5-12.7zm10.9 35.3c0 6.1-4.9 11-11 11s-11-4.9-11-11c-2.8-6.1-.1-13.3 6-16 .1-.1.2-.1.3-.1-1.1-1.7-.6-4 1.1-5.1.6-.4 1.3-.6 2-.6h.3c-2 .1-3.5 1.9-3.4 3.9 0 .6.2 1.1.5 1.6h.1c0-.2-.1-.5-.1-.7 0-.8.2-1.5.7-2.1.5-1.5 1.9-2.6 3.5-2.6h.3c-1.1.1-2.2.7-2.8 1.6 1.7-1.1 4-.7 5.1 1 .4.6.6 1.3.6 2v.4c6.5 1.7 10.3 8.4 8.6 14.8-.2.7-.4 1.3-.8 1.9z"/><path class="st9" d="M887.4 283.4h117.5v4.1H887.4zm0 10.1h117.5v4.1H887.4zm0 10.1h117.5v4.1H887.4z"/></svg>