<svg version="1.1" id="bf6b072d-b0c7-410f-9e86-e550d19ff3f5" xmlns="http://www.w3.org/2000/svg" x="0" y="0" viewBox="0 0 1002.5 516.2" xml:space="preserve"><style>.st0{fill:#d0cde1}.st1{fill:#3f3d56}.st2{fill:#fff}</style><path class="st0" d="M50.3 482.3L93.4 414l-43.1 75.8v7.8c-3.1 0-6.1-.2-9.1-.4l3.5-100.1v-.8l.1-.1.3-9.5L0 311.8l45.1 67.8.1 2 2.7-75.6-38.7-77.4 39 64.2L50 136.1v-.5.5l.9 123.5 37-49.4-37 60.1-.2 67.7L85 272.6l-34.3 75.3-.1 37.6 49.9-91-50 104.1-.2 83.7z"/><path class="st1" d="M642.9 193.8H655v86h-12.1z"/><path transform="rotate(-67.908 428.634 107.33)" class="st1" d="M422.6-134.5h12.1v483.7h-12.1z"/><path class="st0" d="M1002.5 493.7C983.7 525-1 522.4.5 493.7c18.8-31.3 1003.5-28.7 1002 0z"/><path class="st1" d="M773.6 366.9H879v41.2H773.6z"/><path class="st1" d="M349.8 403.3h519.5v46H349.8z"/><path class="st0" d="M783.9 426.3H659.2V269.5h93.3l31.4 79.1z"/><path class="st2" d="M678.6 279.1h53.3v53.3h-53.3zm93.2 53.9h-33.9v-53.2h14.6z"/><path class="st1" d="M681 362.7h12.1v23H681zm67.2-49h.6c6.4 0 11.5 5.2 11.5 11.5 0 6.4-5.2 11.5-11.5 11.5h-.6v-23zm-450.5 89.6h.6c6.4 0 11.5 5.2 11.5 11.5 0 6.4-5.2 11.5-11.5 11.5h-.6v-23z"/><path class="st0" d="M832.4 403.1c18.5 0 35.1 8.9 46.6 23.2h23.7l-23-64.1-107.2-21.1 3 85.2h10.3c11.5-14.3 28.1-23.2 46.6-23.2z"/><circle class="st1" cx="833.6" cy="441.4" r="52.7"/><circle class="st0" cx="833.6" cy="441.4" r="27.7"/><circle class="st1" cx="357.6" cy="447.5" r="46"/><circle class="st0" cx="357.6" cy="447.5" r="24.2"/><path class="st1" d="M637.4 247.7h25.4v183.5h-25.4z"/><path class="st1" d="M297.1 397.8h365.7v10.9H297.1z"/><path transform="rotate(-15.219 302.255 388.856)" class="st1" d="M95.6 383.4H509v10.9H95.6z"/><path transform="rotate(-36.312 490.547 373.579)" class="st1" d="M486.3 338.2h8.5v70.9h-8.5z"/><path class="st1" d="M743.4 335.5h12.1v4.8h-12.1zm-94.5 36.3H490.3c-.7 0-1.2-.5-1.2-1.2 0-.5.4-1 .9-1.2l155-46c.6-.2 1.3.2 1.5.8v.2l3.6 46c.1.8-.4 1.3-1.2 1.4.1 0 0 0 0 0zm-150.3-2.4h149l-3.4-43.2-145.6 43.2zm-279.3-50.9l-34.8-.3c-.7 0-1.2-.6-1.2-1.2v-.1l18.1-157.6c.1-.6.6-1.1 1.2-1.1s1.1.5 1.2 1.1l16.7 157.9c.1.7-.4 1.3-1.1 1.3h-.1zm-33.4-2.7l32.1.3-15.4-145.7-16.7 145.4zm701.6 68.8l-.6.2c-5.9 2.2-12.6-.7-14.8-6.7-2.2-5.9.7-12.6 6.7-14.8l.6-.2 8.1 21.5z"/><path transform="rotate(-15.635 134.769 399.182)" class="st1" d="M117.2 396.3h35.1v5.6h-35.1z"/><path d="M395.5 324.7l-6.5 3.6-264.9 74.1-3.9-4.9c-6.8-8.4-11.2-18.5-12.6-29.1-1-8-.3-16.4 5.3-21.5l-10.1-81.6L249.3 224l69.5 29.9s26.6-8 46.2 6.1c6.2 4.4 11.7 11.1 15.4 20.9l3.2 9.3 11.9 34.5z" fill="#5596e6"/><circle class="st1" cx="336.9" cy="339.6" r="34"/><circle class="st0" cx="336.9" cy="339.6" r="17.9"/><circle class="st1" cx="175.5" cy="384.8" r="34"/><circle class="st0" cx="175.5" cy="384.8" r="17.9"/><path class="st2" d="M294.7 254.9l-105.1 29.4-8.8-31.6 67-18.8z"/><path transform="rotate(-15.635 151.446 277.981)" class="st2" d="M129.7 261.5h43.4v32.9h-43.4z"/><path transform="rotate(-15.635 200.374 312.286)" class="st1" d="M197.6 306.9h5.6v10.6h-5.6z"/><path transform="rotate(-15.635 281.723 271.297)" class="st1" d="M276.4 268.5H287v5.6h-10.6z"/><path class="st1" d="M274 248.9l.6-.2c6.2-1.7 12.6 1.9 14.3 8.1 1.7 6.2-1.9 12.6-8.1 14.3l-.6.2-6.2-22.4zm109.6 41.3c-9.2 3.7-19.7-.8-23.4-10-2.8-7-.9-15.1 4.8-20.1 6.2 4.4 11.7 11.1 15.4 20.9l3.2 9.2zM196 10.9h12.1v176.8H196z"/><circle class="st1" cx="202" cy="17" r="17"/><circle class="st1" cx="648.9" cy="196.2" r="17"/></svg>