<svg version="1.1" id="Calque_1" xmlns="http://www.w3.org/2000/svg" x="0" y="0" viewBox="0 0 612 612" xml:space="preserve"><style>.st2{fill:#41d6c3}</style><path d="M313.9 419.5c0-5.6.3-11.2.9-16.7H101.7c-24.4 0-44.2-19.8-44.3-44.3v-297c-22.8 2.1-40.2 21.2-40.2 44.1v293.2c0 24.4 19.8 44.2 44.3 44.3h254.3c-1.3-7.7-1.9-15.6-1.9-23.6z" fill="#d4e1f4"/><path d="M471.8 106.6v163c-3-.2-6-.3-9-.3-3.2 0-6.4.1-9.6.3V171H18.7v227c0 24.3 19.7 44 44 44h252.7c.8 4.9 1.8 9.8 3.1 14.7.3 1.3.7 2.7 1.1 4h-257C28.1 460.7 0 432.7 0 398V106.6C0 72 28.1 44 62.6 44h346.6c34.6.1 62.6 28.1 62.6 62.6zm-18.6 45.8v-45.8c0-24.3-19.7-44-44-44H62.6c-24.3 0-44 19.7-44 44v45.8h434.6z" fill="#5596e6"/><path class="st2" d="M462.8 568c80.6 0 146.7-64.1 149.1-144.8 2.4-80.6-59.6-148.6-140.1-153.5-3-.2-6-.3-9-.3-3.2 0-6.4.1-9.6.3-44.5 3-85.4 25.6-111.4 61.8-26.1 36.2-34.6 82.1-23.3 125.3.3 1.3.7 2.7 1.1 4 18.6 63.5 77 107.1 143.2 107.2zM335.9 449.5c-9.4-38.9-.5-79.9 24.2-111.4s62.4-49.9 102.5-50h.3c67.8 0 124.3 51.9 130.1 119.4s-41 128.3-107.8 139.9C418.3 559 353.8 517.5 336.5 452c-.2-.8-.4-1.6-.6-2.5z"/><path class="st2" d="M498.7 461.4c3.3 3.9 9.2 4.4 13.2 1l43.6-37.1c2.1-1.8 3.3-4.4 3.3-7.1s-1.2-5.3-3.3-7.1L511.9 374c-3.9-3.3-9.8-2.9-13.2 1-3.3 3.9-2.9 9.8 1 13.2l35.3 30-35.3 30c-3.8 3.3-4.3 9.3-1 13.2zm-53.3 30.9c.6.1 1.3.2 1.9.2 4.4 0 8.2-3.1 9.1-7.4l27.2-129c.7-3.3-.4-6.7-2.9-8.9s-6-3-9.2-1.9-5.5 3.7-6.2 7l-27.2 129c-.5 2.4 0 4.9 1.3 7 1.5 2.1 3.6 3.5 6 4zm-25.6-27.6c3.9 0 7.4-2.4 8.8-6.1 1.4-3.7.3-7.8-2.7-10.3l-35.3-30 35.3-30c2.6-2.1 3.9-5.5 3.3-8.8s-2.9-6.1-6.1-7.2-6.7-.4-9.3 1.8l-43.6 37.1c-2.1 1.8-3.3 4.4-3.3 7.1s1.2 5.3 3.3 7.1l43.6 37.1c1.6 1.4 3.8 2.2 6 2.2zM208.9 134.3c14.5 0 26.2-11.6 26.2-26s-11.6-26.1-26-26.1h-.1c-14.4 0-26.1 11.6-26.1 26s11.6 26.1 26 26.1zm-5.1-31.4c1.4-1.4 3.3-2.2 5.2-2.2 4.1 0 7.4 3.3 7.4 7.4 0 4.1-3.3 7.4-7.4 7.4-3 0-5.7-1.8-6.8-4.6-1.2-2.6-.5-5.8 1.6-8zm-70.1 31.2c14.4 0 26.1-11.6 26.2-26 0-14.4-11.6-26.1-26-26.2h-.1c-14.4 0-26.1 11.6-26.1 26-.1 14.4 11.6 26.2 26 26.2zm-5.1-31.3c1.4-1.4 3.3-2.2 5.2-2.2 4.1 0 7.4 3.3 7.4 7.4 0 4.1-3.3 7.4-7.4 7.4-3 0-5.7-1.8-6.8-4.6-1.2-2.7-.6-6 1.6-8zm-70.1 31c10.6 0 20.1-6.3 24.2-16.1 4-9.7 1.8-20.9-5.6-28.4-4.9-4.9-11.5-7.7-18.4-7.7h-.1c-14.4 0-26.1 11.6-26.1 26-.1 14.5 11.6 26.2 26 26.2zm-5.2-31.4c1.4-1.4 3.3-2.1 5.2-2.1 4.1 0 7.4 3.3 7.4 7.4 0 4.1-3.3 7.4-7.4 7.4-4.1 0-7.4-3.4-7.4-7.5 0-1.8.8-3.8 2.2-5.2z"/></svg>