<svg xmlns="http://www.w3.org/2000/svg" viewBox="0 0 612 612"><path d="M73.7 113.2v-9.5c0-23.9 18.4-43.3 41-43.3h-23c-22.6 0-41 19.4-41 43.3v362.4c6.1-7.3 14-12.8 23-16.1V113.2z" fill="#d4e1f4"/><path d="M568.1 128.8l-396.5-.7V53.5c0-3.8-3.1-6.9-6.9-6.9H91.8c-29.7 0-54 24.8-54.8 55.6v406.1c0 31.5 24.6 57.1 54.8 57.1h476.3c3.8 0 6.9-3.1 6.9-6.9V135.7c0-3.8-3.1-6.9-6.9-6.9zM50.8 113.2v-9.5c0-23.9 18.4-43.3 41-43.3h66v386.5h-66c-15.9.1-30.9 7.1-41 19.3v-353zm510.4 438.4H91.8c-22.6 0-41-19.4-41-43.3v-4.4c0-23.9 18.4-43.3 41-43.3h72.9c3.8 0 6.9-3.1 6.9-6.9V141.9l389.6.7v409z" fill="#5596e6"/><path d="M212.4 282.2c.1.7.3 1.4.6 2 0 0 0 .1.1.1.1.3.3.5.5.8 0 .1.1.1.1.2.2.2.4.5.6.7 0 0 .1 0 .1.1.2.2.4.4.7.6.1 0 .1.1.2.1.3.2.5.3.8.5 0 0 .1 0 .1.1.3.1.6.2.8.3h.1c.3.1.6.2.9.2h.2c.3 0 .6.1.9.1h283.2c.3 0 .6 0 .9-.1h.2c.3-.1.6-.1.9-.2h.1c.3-.1.6-.2.8-.3 0 0 .1 0 .1-.1.3-.1.5-.3.8-.5.1 0 .1-.1.2-.1.2-.2.5-.4.7-.6 0 0 .1 0 .1-.1.2-.2.4-.5.6-.7 0-.1.1-.1.1-.2.2-.3.3-.5.5-.8 0 0 0-.1.1-.1.5-.9.7-2 .7-3v-89.8c0-.9-.2-1.9-.6-2.7 0-.1-.1-.1-.1-.2-.1-.1-.1-.3-.2-.4s-.1-.2-.2-.3-.1-.2-.2-.3-.2-.2-.2-.3c-.1-.1-.1-.2-.2-.2l-.3-.3-.2-.2c-.1-.1-.2-.1-.2-.2-.1-.1-.2-.2-.3-.2l-.2-.2c-.1-.1-.2-.2-.3-.2 0 0-.1-.1-.2-.1-.1-.1-.3-.2-.4-.2 0 0-.1 0-.1-.1-.2-.1-.3-.2-.5-.2h-.1c-.2-.1-.4-.1-.5-.2h-.1c-.2 0-.4-.1-.5-.1h-.2c-.1 0-.3 0-.4-.1s-.3 0-.4 0H218.4c-.2 0-.4 0-.5.1-.1 0-.2 0-.3.1-.1 0-.2.1-.3.1s-.2.1-.4.1c-.1 0-.2.1-.3.1-.1.1-.2.1-.4.2-.1 0-.2.1-.2.1-.1.1-.2.1-.3.2s-.2.1-.3.2-.2.1-.3.2-.2.1-.3.2l-.2.2-.3.3-.2.2-.3.3c-.1.1-.1.1-.1.2l-.3.3c-.1.1-.1.2-.2.3-.1.1-.1.2-.2.3-.1.1-.1.3-.2.4 0 .1-.1.1-.1.2-.4.9-.6 1.8-.6 2.7v89.8c.3 0 .3.3.3.7zm283-10.4l-111.9-35.5 111.9-35.5v71zm-37.6 2.5h-194l97-30.8 97 30.8zm-97-45.2l-97-30.8h194.1l-97.1 30.8zm-22.8 7.2l-111.9 35.5v-70.9L338 236.3zm171.2 89.8v-.2c0-.4-.1-.8-.1-1.2v-.1c-.1-.4-.2-.8-.4-1.2v-.1c-.2-.4-.4-.8-.6-1.1 0 0 0-.1-.1-.1-.2-.3-.5-.7-.8-1h-.1c-.3-.3-.6-.5-1-.8l-.1-.1c-.3-.2-.7-.4-1.1-.5l-.2-.1c-.4-.1-.7-.2-1.1-.3h-.2c-.4-.1-.7-.1-1.1-.1H350.4c-.4 0-.7 0-1.1.1h-.2c-.4.1-.8.2-1.1.3l-.2.1c-.4.1-.7.3-1.1.5l-.1.1c-.4.2-.7.5-1 .8h-.1c-.3.3-.6.6-.8 1 0 0 0 .1-.1.1-.2.4-.4.7-.6 1.1v.1c-.2.4-.3.8-.4 1.2v.1c-.1.4-.1.8-.1 1.2v159.2c0 .4.1.8.1 1.2v.1c.1.4.2.8.4 1.2v.1c.2.4.4.8.6 1.1 0 0 0 .1.1.1.2.3.5.7.8 1l.1.1c.3.3.6.5 1 .7l.1.1c.3.2.7.4 1 .5 0 0 .1 0 .1.1.4.1.7.2 1.1.3h.1c.4.1.8.1 1.2.1h151.9c.4 0 .8 0 1.2-.1h.1c.4-.1.8-.2 1.1-.3h.1c.4-.1.7-.3 1-.5l.1-.1c.3-.2.7-.5 1-.8l.1-.1c.3-.3.6-.6.8-1 0 0 0-.1.1-.1.2-.4.4-.7.6-1.1v-.1c.2-.4.3-.8.4-1.2v-.1c.1-.4.1-.8.1-1.2v-.2l.4-158.8zm-92.4 79.3l-59.5 62.2V343.2l59.5 62.2zm-50.3-72.5h119.7l-59.8 62.5-59.9-62.5zm59.9 82.5l59.8 62.5H366.5l59.9-62.5zm9.5-10l59.5-62.2v124.5l-59.5-62.3zM217 491.3c.2.1.3.1.5.2.1 0 .2 0 .3.1.2 0 .3.1.5.1h85.1c.2 0 .3-.1.5-.1.1 0 .2 0 .3-.1.2 0 .3-.1.5-.2.1 0 .1-.1.2-.1l.6-.3h.1c.1-.1.3-.2.4-.2s.1-.1.2-.1c.1-.1.2-.1.3-.2s.2-.1.3-.2l.1-.1c1.1-1 1.9-2.3 2.3-3.7v-.1c0-.1 0-.2.1-.3 0-.1 0-.2.1-.4V325.4c0-.1 0-.2-.1-.4 0-.1 0-.2-.1-.3v-.1c-.3-1.4-1.1-2.7-2.3-3.7l-.1-.1c-.1-.1-.2-.1-.3-.2-.1-.1-.2-.1-.3-.2-.1 0-.1-.1-.2-.1-.1-.1-.3-.2-.4-.2 0 0-.1 0-.1-.1-.1-.1-.3-.1-.4-.2-.1 0-.2-.1-.2-.1-.1 0-.3-.1-.4-.1s-.2-.1-.3-.1c-.1 0-.2-.1-.3-.1-.1 0-.3 0-.4-.1H219c-.1 0-.3 0-.4.1-.1 0-.2 0-.3.1-.1 0-.2.1-.3.1s-.3.1-.4.1c-.1 0-.2.1-.3.1-.2.1-.3.1-.4.2 0 0-.1 0-.1.1-.1.1-.3.2-.4.2-.1 0-.1.1-.2.1-.1.1-.2.1-.3.2s-.2.1-.3.2l-.1.1c-1.1 1-1.9 2.3-2.3 3.7v.1c0 .1 0 .2-.1.3 0 .1 0 .2-.1.4v160.3c0 .1 0 .2.1.4 0 .1 0 .2.1.3v.1c.3 1.4 1.1 2.7 2.3 3.7l.1.1c.1.1.2.1.3.2s.2.1.3.2c.1 0 .1.1.2.1.1.1.3.2.4.2h.1l.6.3h-.5zm51.4-85.9l26.8-51.3v102.6l-26.8-51.3zm22.3 72.6h-60.1l30.1-57.6 30 57.6zm-30-87.4L230.6 333h60.1l-30 57.6zm-7.8 14.8l-26.8 51.3V354.1l26.8 51.3z" fill="#41d6c3"/></svg>