<svg xmlns="http://www.w3.org/2000/svg" viewBox="0 0 612 612"><path d="M206.9 483.5c-35.8-35.8-55.5-84.1-55.5-135.8s19.7-100 55.6-135.9L324.5 94.3 306 76 170.1 211.8c-35.8 35.8-55.6 84.1-55.6 135.9s19.7 100 55.5 135.8c36.6 35.7 85.7 55.6 136.9 55.6 6.2 0 12.3-.3 18.4-.9-44.5-4.2-86.3-23.5-118.4-54.7z" fill="#d4e1f4"/><path d="M159.8 494c39.4 38.4 92.2 59.8 147.2 59.8 54.5.3 106.8-21.3 145.3-59.9 38.6-38.6 59.9-90.6 59.9-146.3S490.9 240 452.3 201.4L311.2 60.3c-2.9-2.9-7.5-2.9-10.4 0L159.7 201.4C121.1 240 99.9 292 99.9 347.7s21.2 107.7 59.9 146.3zm10.3-282.2L306 76l135.9 135.9c35.8 35.8 55.6 84.1 55.6 135.9s-19.7 100-55.6 135.9c-35.7 35.8-84.3 55.8-134.9 55.6-51.1 0-100.2-19.9-136.9-55.6-35.8-35.8-55.5-84.1-55.5-135.8s19.7-100.3 55.5-136.1z" fill="#5596e6"/><path d="M355.2 486.6c.9 0 1.9-.2 2.8-.5 44.4-17.9 76-58 83-105.4.6-4-2.1-7.8-6.1-8.4s-7.8 2.1-8.4 6.1v.1c-6.2 42.2-34.4 78-74 94-3.8 1.5-5.6 5.8-4.1 9.6 1.1 2.7 3.8 4.5 6.8 4.5z" fill="#41d6c3"/></svg>