<svg version="1.1" id="Calque_1" xmlns="http://www.w3.org/2000/svg" x="0" y="0" viewBox="0 0 612 612" xml:space="preserve"><style>.st2{fill:#41d6c3}</style><path d="M120.3 140h-23c-14.7 0-26.6 11.9-26.6 26.6V401h22.9V166.6c0-14.7 11.9-26.6 26.7-26.6zM93.6 438.3v-23.7H70.8v23.7c0 14.7 11.9 26.6 26.6 26.6h22.9c-14.8 0-26.7-11.9-26.7-26.6z" fill="#d4e1f4"/><path d="M514.5 126.3H391.4c-3.8 0-6.9 3.1-6.9 6.9 0 3.8 3.1 6.9 6.9 6.9h123.2c14.7 0 26.6 11.9 26.6 26.6v234.4H70.8V166.6c0-14.7 11.9-26.6 26.6-26.6h123.2c3.8 0 6.9-3.1 6.9-6.9 0-3.8-3.1-6.9-6.9-6.9H97.3c-22.2 0-40.3 18.1-40.3 40.3v271.7c0 22.2 18.1 40.3 40.3 40.3h137.8v82.1h-31.9c-3.8 0-6.9 3.1-6.9 6.9s3.1 6.9 6.9 6.9h211.6c3.8 0 6.9-3.1 6.9-6.9s-3.1-6.9-6.9-6.9h-38v-82.1h137.8c22.2 0 40.3-18.1 40.3-40.3V166.6c0-22.2-18.1-40.3-40.4-40.3zM363.1 560.8H248.8v-82.1H363l.1 82.1zm151.4-95.9H97.3c-14.7 0-26.6-11.9-26.6-26.6v-23.7H541v23.7c.2 14.7-11.7 26.6-26.5 26.6z" fill="#5596e6"/><path class="st2" d="M450.5 39.1c-15.8-.1-29.6 10.8-33.1 26.2H340V44.5c0-3.8-3.1-6.9-6.9-6.9H278c-3.8 0-6.9 3.1-6.9 6.9v20.8h-78c-3-15.6-16.6-26.8-32.4-27-18.3 0-33.1 15.2-33.1 33.8s14.9 33.8 33.1 33.8c15.8-.2 29.4-11.4 32.4-27h63c-29.4 17.5-47.4 49.2-47.3 83.4 0 3.8 3.1 6.9 6.9 6.9 3.8 0 6.9-3.1 6.9-6.9-.1-32.6 18.9-62.2 48.5-75.8v13.2c0 3.8 3.1 6.9 6.9 6.9h55.3c3.8 0 6.9-3.1 6.9-6.9V86.2c30.1 13.4 49.4 43.2 49.3 76.1 0 3.8 3.1 6.9 6.9 6.9s6.9-3.1 6.9-6.9c.1-21-6.7-41.4-19.3-58.1-7.6-10.2-17.2-18.8-28.1-25.3h61.7c3.5 15.4 17.3 26.4 33.1 26.2 18.7 0 33.8-14.9 33.8-33.1s-15.3-32.9-34-32.9zM160.6 92.3c-10.7 0-19.4-9-19.4-20.1s8.7-20.1 19.4-20.1 19.4 9 19.4 20.1c.1 11.1-8.7 20.1-19.4 20.1zm124.3.7V78.7c.5-1.4.5-2.9 0-4.3v-23h41.5v22.5c0 .1-.1.2-.1.3-.4 1.4-.4 3 .1 4.4V93h-41.5zm165.6-1.4c-11.1 0-20.1-8.7-20.1-19.4s9-19.4 20.1-19.4 20.1 8.7 20.1 19.4-9 19.4-20.1 19.4zM231.6 200.4c-3.1-6.2-5.5-12.7-7-19.4-.9-3.7-4.6-5.9-8.3-5-3.6.9-5.8 4.4-5.1 8 1.8 7.9 4.5 15.5 8.2 22.6 1.7 3.4 5.8 4.8 9.2 3.1 3.4-1.7 4.8-5.8 3.1-9.2.1 0-.1 0-.1-.1zm162.8-18.2c-3.6-1.1-7.5.9-8.6 4.6-2 6.6-4.9 12.9-8.4 18.9-2 3.2-.9 7.5 2.3 9.4 3.2 2 7.5.9 9.4-2.3 4.2-6.9 7.5-14.3 9.8-22 1.1-3.6-.9-7.4-4.5-8.6z"/><path class="st2" d="M366.5 238.4c2.7-2.1 5.2-4.4 7.6-6.7 2.7-2.6 2.8-7 .2-9.7-2.6-2.7-7-2.8-9.7-.2l-.1.1c-1.8 1.8-3.8 3.5-5.8 5.2l-47.8-69.4c-2.1-3.1-6.4-3.9-9.5-1.8-.7.5-1.3 1.1-1.8 1.8L253.2 227c-3.6-2.9-6.9-6.1-9.9-9.5-2.5-2.8-6.8-3.1-9.7-.6-2.8 2.5-3.1 6.8-.6 9.7 3.8 4.3 8 8.3 12.5 11.9l-13.7 20.6c-1.3 2-1.5 4.6-.5 6.7l32.1 68.4c-1.9 1.3-3 3.4-2.9 5.7l.4 36.3c0 3.8 3.1 6.8 6.9 6.8l78.6-.5c3.8 0 6.8-3.1 6.8-6.9l-.4-36.3c0-2.3-1.2-4.4-3.2-5.7l31.2-68.7c1-2.2.8-4.7-.6-6.7l-13.7-19.8zm-60.6 24.8c7.8 0 14 6.3 14 14.1 0 7.6-6.2 13.8-13.8 13.9h-.1c-7.7 0-14-6.3-13.9-14.1 0-7.6 6.2-13.8 13.8-13.9zm-31.4 106l-.3-22.3c.6 0 1.1-.1 1.6-.3l61.3-.4c.6.2 1.3.3 1.9.3l.3 22.2-64.8.5zm60.5-36.7l-57.1.4-32.6-69.4 53.2-79.5.4 66.4c-14.8 3.9-23.7 19-19.8 33.8 3.2 12.2 14.2 20.7 26.8 20.7h.2c15.3-.1 27.6-12.6 27.5-27.9-.1-12.7-8.7-23.7-21-26.7l-.4-66.4 39.2 56.9 15.2 22-31.6 69.7z"/></svg>