<svg version="1.1" id="Calque_1" xmlns="http://www.w3.org/2000/svg" x="0" y="0" viewBox="0 0 612 612" xml:space="preserve"><style>.st1{fill:#5596e6}</style><path d="M111.5 62.6h22.7v171h-22.7v-171zm22.8 225.9v-41.3h-22.7v41.3c0 25.4 20.6 46 46 46h22.7c-25.4.2-46-20.5-46-46zm92.8 46.2h-22.7c32.9 0 59.6 26.7 59.7 59.7v74.4h22.7v-74.4c-.1-33.1-26.8-59.7-59.7-59.7zm59.7 172.8v-25.1H264v25.1c0 23 18.7 41.7 41.7 41.8h.1c3.8 0 7.7-.5 11.4-1.6-18-5.2-30.4-21.5-30.4-40.2z" fill="#d4e1f4"/><path class="st1" d="M422.3 369c-3.8 0-6.8 3.1-6.8 6.8v25.8c0 3.8 3.1 6.8 6.8 6.8 3.8 0 6.8-3.1 6.8-6.8v-25.8c0-3.8-3-6.8-6.8-6.8zm50.2 9.7c-3.8 0-6.8 3.1-6.8 6.8V447c0 3.8 3.1 6.8 6.8 6.8s6.8-3.1 6.8-6.8v-61.4c0-3.8-3-6.9-6.8-6.9z"/><path d="M507.3 158.8c-3.8 0-6.8 3.1-6.8 6.8 0 5.8-4.7 10.5-10.5 10.5s-10.5-4.7-10.5-10.5v-34.7c.1-14-11.2-25.4-25.1-25.5-14-.1-25.4 11.2-25.5 25.1v147.6c.1 7.2-5.7 13.1-12.9 13.2-7.2.1-13.1-5.7-13.2-12.9V106.2c0-13.9-11.2-25.1-25.1-25.1s-25.1 11.2-25.1 25.1V122c0 6.3-5.1 11.5-11.5 11.5h-1.2c-6.3 0-11.5-5.1-11.5-11.5V55.8c0-3.8-3.1-6.8-6.8-6.8-3.8 0-6.8 3.1-6.8 6.8V122c0 13.9 11.2 25.1 25.1 25.1h1.2c13.9 0 25.1-11.3 25.1-25.1v-15.8c0-6.3 5.1-11.5 11.5-11.5 6.3 0 11.5 5.1 11.5 11.5v172c-.1 14.7 11.8 26.8 26.5 26.9s26.8-11.8 26.9-26.5V130.9c-.1-6.4 5.1-11.7 11.5-11.8s11.7 5.1 11.8 11.5v34.9c0 13.3 10.8 24.1 24.1 24.1s24.1-10.8 24.1-24.1c0-3.6-3-6.7-6.8-6.7z" fill="#41d6c3"/><path class="st1" d="M507.3 49.1H261.7c-2.6 0-5 1.5-6.1 3.9l-34.9 72.2-24.5-71.4c-.9-2.8-3.5-4.6-6.5-4.6h-85c-3.8 0-6.8 3.1-6.8 6.8v232.8c0 32.9 26.7 59.6 59.7 59.7h46.8c25.4 0 46 20.6 46 46v113.1c0 30.6 24.8 55.3 55.4 55.4h.1c30.6 0 55.3-24.8 55.4-55.3l.2-113.4c.1-25.4 20.7-45.8 46-45.9h46.9c32.9 0 59.6-26.7 59.7-59.7V55.8c0-3.7-3-6.7-6.8-6.7zM305.8 549.3c-23.1-.1-41.8-18.8-41.8-41.8v-25.1h83.6v25.2c0 22.9-18.7 41.7-41.8 41.7zm194.7-260.8c0 25.4-20.6 46-46 46h-46.9c-32.9.1-59.5 26.6-59.7 59.5l-.1 74.5H264v-74.4c0-32.9-26.7-59.6-59.7-59.7h-46.8c-25.4 0-46-20.6-46-46v-41.3h278.8v-13.6H111.5v-171H126v90.9c0 3.8 3.1 6.8 6.8 6.8 3.8 0 6.8-3.1 6.8-6.8V62.6h45.1l28.3 82.5c1.2 3.6 5.1 5.5 8.7 4.2 1.7-.6 3.1-1.8 3.9-3.5l40.2-83.3h234.5v171h-59v13.6h59v41.4h.2z"/></svg>