<svg version="1.1" id="Calque_1" xmlns="http://www.w3.org/2000/svg" x="0" y="0" viewBox="0 0 612 612" xml:space="preserve"><style>.st1{fill:#5596e6}</style><path d="M239.1 347.4c-54.2-49.7-57.8-133.9-8-188.1 1.4-1.5 2.9-3.1 4.4-4.5 22-22 51.1-35.4 82.1-38.1-3.4-.3-6.8-.5-10.3-.5-73.5-.7-133.7 58.4-134.4 131.9-.4 37.7 15.3 73.8 43.1 99.3 19.9 18.5 32 43.9 33.7 71.1h23.2c-1.7-27.2-13.8-52.6-33.8-71.1zm34 100.9v-15.9h-23.2v46.7h23.2v-30.8zm0 47V493h-23.2v2.3c0 8.1 6.5 14.6 14.6 14.6h23.2c-8.1 0-14.6-6.5-14.6-14.6z" fill="#d4e1f4"/><path class="st1" d="M424.9 323.8c3.3 1.9 7.6.7 9.5-2.7 39.6-71 14.1-160.6-56.9-200.2-21.4-11.9-45.5-18.3-70.1-18.6H306c-81.2 0-147 65.8-147 147 0 41.2 17.3 80.5 47.6 108.3 18.8 17.5 29.5 42.1 29.4 67.8v69.9c0 15.7 12.8 28.5 28.5 28.5h66.7c3.8 0 7-3.1 7-7s-3.1-7-7-7h-66.7c-8.1 0-14.6-6.5-14.6-14.6V493h68.6c3.8 0 7-3.1 7-7 0-3.8-3.1-7-7-7h-68.6v-16.9h17.8c3.8 0 7-3.1 7-7 0-3.8-3.1-7-7-7h-17.8v-15.9H317c3.8 0 7-3.1 7-7s-3.1-7-7-7h-67.3c-1.7-27.1-13.8-52.6-33.7-71.1-54.1-49.7-57.7-133.9-8-188.1s133.9-57.7 188.1-8c45.4 41.7 56.2 109.1 26.1 162.9-1.9 3.8-.7 8 2.7 9.9z"/><path d="M290 448.3c-3.8 0-7 3.1-7 7 0 3.8 3.1 7 7 7h46c3.8 0 7-3.1 7-7 0-3.8-3.1-7-7-7h-46z" fill="#0062ff"/><path class="st1" d="M311.1 78c3.8 0 7-3.1 7-7V28c0-3.8-3.1-7-7-7s-7 3.1-7 7v43c.1 3.9 3.2 7 7 7zm200.3 148.4h-43.1c-3.8 0-7 3.1-7 7s3.1 7 7 7h43.1c3.8 0 7-3.1 7-7s-3.2-7-7-7zm-410.8 13.9h43.1c3.8 0 7-3.1 7-7s-3.1-7-7-7h-43.1c-3.8 0-7 3.1-7 7s3.2 7 7 7zM462.5 76.9c-2.7-2.7-7.1-2.7-9.8 0L419 110.5c-2.8 2.7-2.8 7.1-.1 9.8 2.7 2.8 7.1 2.8 9.8.1l.1-.1 33.6-33.6c2.8-2.7 2.8-7.1.1-9.8zM193 120.3c2.7-2.7 2.7-7.1 0-9.8l-33.6-33.6c-2.7-2.7-7.1-2.8-9.8-.1s-2.8 7.1-.1 9.8l.1.1 33.6 33.6c2.7 2.8 7.1 2.8 9.8 0z"/><path d="M338 547.4c-1.3 1.3-2 3.1-2 5l.4 31.7c0 3.8 3.1 6.9 7 6.9l68.8-.4c3.8 0 6.9-3.2 6.9-7l-.4-31.7c0-2-.9-4-2.5-5.3l27-59.4c1-2.2.8-4.8-.6-6.8l-21.2-30.8c34.4-24.9 42.1-73 17.2-107.5-4.7-6.5-10.4-12.3-16.9-17h25.1c3.5 13.6 15.7 23 29.7 23 16.9 0 30.6-13.4 30.6-29.9s-13.7-29.9-30.6-29.9c-14-.1-26.3 9.4-29.7 23h-39v-17.2c0-3.8-3.1-7-7-7h-48.4c-3.8 0-7 3.1-7 7v17.2h-39.6c-3-13.7-15.1-23.5-29.1-23.6-16.5 0-29.9 13.7-29.9 30.6s13.4 30.6 29.9 30.6c14-.1 26.1-9.9 29.1-23.6h25c-34.3 25.1-41.8 73.2-16.7 107.5 5 6.8 11 12.7 17.8 17.5l-20.7 31c-1.4 2-1.6 4.6-.5 6.8l27.8 59.2c-.3-.1-.4 0-.5.1zm12.2 29.7l-.2-17.7c.2 0 .4-.1.6-.2l53.4-.3c.3.1.6.1.9.2l.2 17.6-54.9.4zm126.2-275c9.2 0 16.7 7.2 16.7 16s-7.5 16-16.7 16-16.7-7.2-16.7-16 7.5-16 16.7-16zm-117.2-1.2h34.5v34.5h-34.5v-34.5zm-82.6 33.9c-8.8 0-16-7.5-16-16.7s7.2-16.7 16-16.7 16 7.5 16 16.7-7.2 16.7-16 16.7zm36.4 52.4c0-22.8 12.4-43.9 32.3-55.1v10.2c0 3.8 3.1 7 7 7h48.4c3.8 0 7-3.1 7-7v-9.7c30.2 17.4 40.6 56 23.2 86.1-4.4 7.6-10.3 14.2-17.4 19.4L382 392.4c-1.3-1.9-3.5-3-5.8-3s-4.4 1.2-5.7 3.1l-30.9 46.1c-16.7-11.9-26.5-31-26.6-51.4zm63.7 99c6.3 0 11.4 5 11.4 11.3 0 6.2-5 11.3-11.3 11.3h-.1c-6.2 0-11.3-5-11.3-11.3 0-6.3 5.1-11.3 11.3-11.3zm-7.3-67.2l.3 54.3c-13.4 3.9-21 17.9-17.1 31.3 3.1 10.7 13 18.1 24.2 18.1h.2c13.9-.1 25.1-11.4 25-25.3-.1-11.2-7.6-21.1-18.4-24.1l-.3-54.4 45.5 66.1-27.3 60-48.7.3-28-59.7 44.6-66.6z" fill="#41d6c3"/></svg>