<svg xmlns="http://www.w3.org/2000/svg" viewBox="0 0 612 612"><path d="M244.4 398.1c.1-71.2 54.4-130.6 125.3-137.1-4.1-.4-8.2-.6-12.4-.6-76.1 0-137.7 61.7-137.7 137.7s61.7 137.7 137.7 137.7c4.2 0 8.3-.2 12.4-.6-70.9-6.5-125.2-65.9-125.3-137.1z" fill="#d4e1f4"/><path d="M27.9 426.7h185.8c4.1 0 7.4-3.3 7.4-7.4s-3.3-7.4-7.4-7.4H40.9L233.2 83.6l102 174c2.1 3.5 6.6 4.7 10.2 2.7.7-.4 1.3-.9 1.8-1.5 3.2 2.6 7.9 2.2 10.5-.9 1.1-1.3 1.7-3 1.7-4.8v-58.6h217.4v217.4H501c-4.1 0-7.4 3.3-7.4 7.4 0 4.1 3.3 7.4 7.4 7.4h83.2c4.1 0 7.4-3.3 7.4-7.4V187c0-4.1-3.3-7.4-7.4-7.4H351.9c-4.1 0-7.4 3.3-7.4 7.4v57L239.6 65c-2.1-3.5-6.6-4.7-10.2-2.7-1.1.6-2 1.6-2.7 2.7L21.4 415.4c-2.1 3.5-.9 8.1 2.7 10.2 1.1.7 2.4 1.1 3.8 1.1z" fill="#5596e6"/><path d="M357.3 550.7c84.3 0 152.6-68.3 152.6-152.6s-68.3-152.6-152.6-152.6-152.6 68.3-152.6 152.6c.1 84.2 68.4 152.5 152.6 152.6zm0-290.3c76.1 0 137.7 61.7 137.7 137.7s-61.7 137.7-137.7 137.7-137.7-61.7-137.7-137.7c.1-76 61.7-137.7 137.7-137.7z" fill="#41d6c3"/></svg>