<svg version="1.1" id="Calque_1" xmlns="http://www.w3.org/2000/svg" x="0" y="0" viewBox="0 0 612 612" xml:space="preserve"><style>.st1{fill:#5596e6}</style><path d="M387.3 384.1l-12.2-12.2-10.2 43.9 15.8-3.7 6.6-28zm6.3-14.4l96.8-96.6 29.5 29.5-41.7-41.6-96.8 96.6 41.8 41.8-29.6-29.7zm107.1-106.8l11.4-11.3c1.7-1.7 4.5-1.7 6.2 0l-12.2-12.2c-1.7-1.7-4.5-1.7-6.2 0l-11.4 11.3 41.6 41.6-29.4-29.4z" fill="#d4e1f4"/><path class="st1" d="M116.7 562.3h260.1c.3 0 .7 0 1-.1 1 0 2 .1 3.1.1 36 0 65.1-29.2 65.2-65.2V394.2c0-4-3.3-7.3-7.3-7.3s-7.3 3.3-7.3 7.3v102.9c0 27.9-22.6 50.5-50.5 50.5s-50.5-22.6-50.5-50.5v-37.4c0-4-3.3-7.3-7.3-7.3H137.4l2-355c.2-18.4 15.2-33.3 33.6-33.1h273.3c-9.5 9.4-14.9 22.3-14.9 35.7v190c0 4 3.3 7.3 7.3 7.3s7.3-3.3 7.3-7.3V175.9h78.7c4 0 7.3-3.3 7.3-7.3V100c0-27.8-22.5-50.3-50.3-50.3H173c-26.6 0-48.3 21.4-48.3 47.7l-2 355H62c-4 0-7.3 3.3-7.3 7.3v37.4c0 34.1 26.4 62.5 60.5 65 .4.1 1 .2 1.5.2zM517.4 100v61.3H446V100c0-19.7 16-35.7 35.7-35.7s35.7 16 35.7 35.7zM69.3 497.1V467h246.5v30.1c0 19.6 8.9 38.2 24.1 50.5h-220c-28 0-50.6-22.6-50.6-50.5z"/><path class="st1" d="M195.6 149.8h79.3c4 0 7.3-3.3 7.3-7.3s-3.3-7.3-7.3-7.3h-79.3c-4 0-7.3 3.3-7.3 7.3s3.2 7.3 7.3 7.3zm171.5 46.8H195.6c-4 0-7.3 3.3-7.3 7.3s3.3 7.3 7.3 7.3h171.5c4 0 7.3-3.3 7.3-7.3s-3.3-7.3-7.3-7.3zm0 61.3H195.6c-4 0-7.3 3.3-7.3 7.3s3.3 7.3 7.3 7.3h171.5c4 0 7.3-3.3 7.3-7.3s-3.3-7.3-7.3-7.3zm7.3 68.5c0-4-3.3-7.3-7.3-7.3H195.6c-4 0-7.3 3.3-7.3 7.3s3.3 7.3 7.3 7.3h171.5c4 0 7.3-3.2 7.3-7.3zm-178.8 54c-4 0-7.3 3.3-7.3 7.3s3.3 7.3 7.3 7.3h128.9c4 0 7.3-3.3 7.3-7.3s-3.3-7.3-7.3-7.3H195.6z"/><path d="M516.4 229c-7.4-7.4-19.4-7.4-26.8 0L366.9 351.4c-1.7 1.7-3 3.9-3.5 6.3L348.1 424c-.9 3.9 1.5 7.9 5.5 8.8 1.1.3 2.2.3 3.3 0l66.2-15.3c2.4-.6 4.6-1.8 6.3-3.5l122.4-122.6c7.4-7.4 7.4-19.4 0-26.8L516.4 229zM375.1 371.9l33.8 33.8-43.9 10.2 10.1-44zm48.1 27.5l-41.8-41.8 96.8-96.6 41.6 41.6-96.6 96.8zm118.3-118.5l-11.3 11.4-41.6-41.6 11.4-11.3c1.7-1.7 4.5-1.7 6.2 0l35.4 35.4c1.6 1.6 1.6 4.4-.1 6.1z" fill="#41d6c3"/></svg>