<svg version="1.1" id="Calque_1" xmlns="http://www.w3.org/2000/svg" x="0" y="0" viewBox="0 0 612 612" xml:space="preserve"><style>.st2{fill:#41d6c3}</style><path d="M114.9 398.8c-24.8 0-45-20.2-45-45V55.7c0-1.3.1-2.6.2-3.9C46.9 53.9 29 73.3 29 96.6v298.1c0 24.8 20.2 45 45 45h317.2l-13.6-40.9H114.9z" fill="#d4e1f4"/><path d="M492.7 97.2v157.1c-3.1-.2-6.1-.4-9.2-.4-3.3 0-6.6.1-9.8.4v-91.2H29v232.2c0 24.8 20.2 45 45 45h315.6c5.6 7.1 12 13.5 19.1 19.1H74c-35.4 0-64.1-28.7-64.1-64.1V97.2c0-35.4 28.7-64 64.1-64.1h354.6c35.4.1 64 28.7 64.1 64.1zM473.6 144V97.2c0-24.8-20.2-45-45-45H74c-24.8 0-45 20.2-45 45V144h444.6z" fill="#5596e6"/><path class="st2" d="M417.7 360.6l31.4 22.2-12 35.8c-1.3 3.9.1 8.2 3.4 10.7s7.8 2.5 11.2.1l31.7-22.4 31.7 22.4c3.4 2.4 7.9 2.3 11.2-.1 3.3-2.5 4.7-6.8 3.4-10.7l-12-35.8 31.4-22.2c3.4-2.4 4.8-6.7 3.6-10.7-1.3-4-4.9-6.6-9.1-6.7h-39.1l-12-36c-1.3-3.9-5-6.5-9.1-6.5s-7.8 2.6-9.1 6.5l-12 36h-39.1c-4.2 0-7.8 2.7-9.1 6.7-1.2 4 .3 8.3 3.6 10.7zm51.5 1.7c4.1 0 7.8-2.6 9-6.5l5.2-15.4 5.2 15.4c1.3 3.9 5 6.5 9.1 6.5h15.9l-12.7 9c-3.4 2.4-4.9 6.8-3.5 10.8l5 14.9-13.4-9.5a9.63 9.63 0 00-11 0l-13.4 9.5 5-14.9c1.3-4-.1-8.4-3.5-10.8l-12.7-9h15.8z"/><path class="st2" d="M408.7 459.4c1.2 1 2.5 2 3.8 2.9v107c0 3.8 2.2 7.2 5.7 8.7 3.4 1.5 7.5.9 10.3-1.6l55-49.4 55 49.4c2.8 2.5 6.8 3.2 10.3 1.6 3.4-1.5 5.6-4.9 5.6-8.7v-107c29-21.1 47.7-54.8 47.7-92.7 0-60.8-48.3-110.7-109.4-115.4-3.1-.2-6.1-.4-9.2-.4-3.3 0-6.6.1-9.8.4-60.8 4.9-108.8 54.7-108.8 115.3 0 25.7 8.8 50.6 24.8 70.7 5.5 7.2 11.9 13.6 19 19.2zm126.5 88.5l-45.4-40.8c-3.6-3.3-9.1-3.3-12.7 0l-45.5 40.8v-74.3c32.8 15.5 70.8 15.5 103.6 0v74.3zM383.9 369.6c0-53.2 44.5-96.5 99.2-96.6h.3c54.9 0 99.5 43.3 99.5 96.6s-44.6 96.6-99.5 96.6c-23.9.1-47.1-8.4-65.3-23.8-21.6-18-34.1-44.6-34.2-72.8zM223.7 125.5c10.9 0 20.6-6.5 24.7-16.4 4.1-9.9 1.9-21.4-5.7-29.1-5-5-11.8-7.9-18.8-7.9h-.1c-14.7 0-26.7 11.9-26.7 26.6-.1 14.8 11.9 26.8 26.6 26.8zm-5.3-32.1c1.4-1.4 3.4-2.2 5.4-2.2 4.2 0 7.6 3.4 7.6 7.6 0 4.2-3.4 7.6-7.6 7.6-3.1 0-5.8-1.9-7-4.7-1.2-2.9-.6-6.1 1.6-8.3zm-71.7 31.9c14.8 0 26.8-11.9 26.8-26.6 0-14.7-11.9-26.7-26.6-26.7h-.1c-14.7 0-26.7 11.9-26.7 26.6 0 14.7 11.9 26.6 26.6 26.7zm-5.2-32.1c1.4-1.4 3.3-2.2 5.3-2.2 4.2 0 7.6 3.4 7.6 7.6 0 4.2-3.4 7.6-7.6 7.6-3.1 0-5.8-1.9-7-4.7-1.2-2.9-.5-6.1 1.7-8.3zM69.8 125c14.8 0 26.8-11.9 26.8-26.6 0-14.7-11.9-26.7-26.6-26.7h-.1c-14.7 0-26.7 11.9-26.7 26.6C43.1 113 55 125 69.8 125zm-5.3-32.1c1.4-1.4 3.3-2.2 5.3-2.2 4.2 0 7.6 3.4 7.6 7.6 0 4.2-3.4 7.6-7.6 7.6-4.2 0-7.6-3.4-7.6-7.6 0-2 .9-3.9 2.3-5.4z"/></svg>