<svg version="1.1" id="Calque_1" xmlns="http://www.w3.org/2000/svg" x="0" y="0" viewBox="0 0 612 612" xml:space="preserve"><style>.st1{fill:#5596e6}</style><path d="M119.5 99.7c0-22.1 18-40.1 40.1-40.1h-35.4c-22.1 0-40.1 18-40.1 40.1v16.5h35.4V99.7zm-35.4 30.6h35.4v337.2H84.1zm35.4 382v-30.7H84.1v30.7c0 22.1 18 40.1 40.1 40.1h35.4c-22.1 0-40.1-17.9-40.1-40.1z" fill="#d4e1f4"/><path class="st1" d="M123.9 566.6h188.7c30 0 54.4-24.2 54.5-54.2V457H353v10.6H84.1V130.3H276c3.9 0 7.1-3.2 7.1-7.1s-3.2-7.1-7.1-7.1H84.1V99.6c-.1-22 17.6-40 39.7-40.1h188.8c22.2 0 40.2 17.9 40.4 40.1v16.5h-16.8c-3.9 0-7.1 3.2-7.1 7.1s3.2 7.1 7.1 7.1H353v31.8h14.1V99.6c-.2-30-24.5-54.2-54.5-54.2H123.9c-29.9.1-54 24.3-53.9 54.2v412.8c-.1 29.8 24 54.1 53.9 54.2zm-39.8-84.9H353v30.7c-.2 22.2-18.2 40.1-40.4 40.1H123.9c-22 0-39.8-17.9-39.8-40v-30.8z"/><path class="st1" d="M299.3 116.2c-3.9 0-7.1 3.2-7.1 7.1s3.2 7.1 7.1 7.1h13.1c3.9 0 7.1-3.2 7.1-7.1s-3.2-7.1-7.1-7.1h-13.1zm-81 425.6c13.7 0 24.8-11.1 24.8-24.8s-11.1-24.8-24.8-24.8-24.8 11.1-24.8 24.8 11.1 24.8 24.8 24.8zm0-35.4c5.9 0 10.6 4.8 10.6 10.6s-4.8 10.6-10.6 10.6c-5.9 0-10.6-4.8-10.6-10.6s4.7-10.5 10.6-10.6z"/><path d="M467.6 414.8c26.2-28.6 40.7-65.9 40.7-104.7 0-85.6-69.7-155.3-155.3-155.3s-155.3 69.7-155.3 155.3S267.3 465.5 353 465.5c38.7 0 76.1-14.5 104.7-40.7l72.2 72.2c2.7 2.8 7.2 2.9 10 .1 2.8-2.7 2.9-7.2.1-10l-.1-.1-72.3-72.2zM211.8 310.2c0-78 63.2-141.2 141.2-141.2s141.2 63.2 141.2 141.2S430.9 451.4 353 451.4c-78-.1-141.1-63.3-141.2-141.2z" fill="#41d6c3"/></svg>