<svg version="1.1" id="Calque_1" xmlns="http://www.w3.org/2000/svg" x="0" y="0" viewBox="0 0 612 612" xml:space="preserve"><style>.st1{fill:#5596e6}</style><path d="M112.7 256.9c0-106.7 86.7-193.5 193.3-193.5 8.1 0 16.1.5 24.1 1.5-22-8.4-45.3-12.7-68.8-12.7C154.7 52.3 68 139.1 68 245.8c0 98.5 73.9 180.1 169.2 192-72.7-27.8-124.5-98.4-124.5-180.9z" fill="#d4e1f4"/><path class="st1" d="M257.9 37.6c-114.5 0-207.7 93.3-207.7 207.9s93.2 207.9 207.7 207.9c19.2 0 38.4-2.6 56.9-7.9l-4.3-15c-17.1 4.9-34.8 7.3-52.6 7.3-105.9 0-192.1-86.2-192.1-192.3S152 53.2 257.9 53.2 450 139.5 450 245.5c0 2.3 0 4.6-.1 6.9h-1.1l15.6.7h1c.1-2.5.1-5.1.1-7.6.1-114.6-93.1-207.9-207.6-207.9z"/><path class="st1" d="M368.7 232.4l-114.3 10.4-52.4-52.5c-3.1-3.1-8-3.1-11.1 0s-3.1 8 0 11.1l55 55.1c1.5 1.5 3.5 2.3 5.5 2.3h.7l118-10.8c4.3-.4 7.4-4.3 7-8.6-.5-4.2-4.2-7.3-8.4-7z"/><linearGradient id="SVGID_1_" gradientUnits="userSpaceOnUse" x1="446.65" y1="371.449" x2="446.65" y2="371.507" gradientTransform="matrix(1 0 0 -1 0 616)"><stop offset=".322" stop-color="#a163f5"/><stop offset=".466" stop-color="#b074ee"/><stop offset=".752" stop-color="#d8a1dd"/><stop offset=".898" stop-color="#efbad3"/></linearGradient><path d="M448.4 244.5H447c-1.2 0-2.5 0-3.7.1h6.7c-.6-.1-1.1-.1-1.6-.1z" fill="url(#SVGID_1_)"/><path d="M535.8 454.4c.9-9.6 9.5-32.6 13-41.1 18.4-35.3 17.3-77.5-2.8-111.9-17.1-29.6-46.6-50-80.4-55.4v-.4h-34.5c-59.2 7.7-104.6 56.5-107.9 116.1-.1 2-.2 16.8-.2 23.1L305 432l-4.3 17.1c1.2 6.1 6.5 10.4 12.7 10.4h26.4v20c-13 .2-23.4 11-23.1 24 .2 13 11 23.4 24 23.1h.3l46.6-.7c2.2 0 4.3-1 5.8-2.7 5 0 10.3 0 14.9-.1 4.1 0 7.6 2.8 8.6 6.7l9.7 38.7c.9 3.5 4 5.9 7.6 5.9h108.2c4.3 0 7.8-3.5 7.8-7.8 0-.7-.1-1.4-.3-2-.2-.7-18-68.1-14.1-110.2zm-78.9-74.3c14.9 0 27 12 27.2 26.8l.1 4.4c.2 15-11.8 27.4-26.8 27.6h-.4c-14.9 0-27-12-27.2-26.8l-.1-4.4c-.2-15 11.8-27.4 26.8-27.6h.4zM340.7 510.9c-4.4 0-8-3.5-8-7.9 0-4.3 3.4-7.9 7.7-8h38.8l.2 15.3-38.7.6zm54.2-16.6l-.1-7.2c-.1-4.3-3.5-7.7-7.8-7.7h-31.5v-27.8c0-4.3-3.5-7.8-7.8-7.8h-30.4l20.9-54.8c.3-.9.5-1.8.5-2.8 0-10.4.1-22.2.2-23.7 3-57.5 50.6-102.5 108.2-102.4h1.8v105.1c-20.4 3.9-35 21.9-34.7 42.6l.1 4.4c.3 19.9 14.3 37.1 33.8 41.3l.1 9.2c.2 17.2-13.7 31.3-30.9 31.5l-22.4.1zM534.4 407c-1.3 3.3-12.9 32.2-14.2 45.9-3.3 35.3 7.1 84.9 12.1 105.8h-92.1L432 526c-1.8-7.2-6.7-13.1-13.4-16.2 25.4-.9 45.4-21.8 45.2-47.2l-.1-8.6c21.1-3.3 36.5-21.6 36.2-42.9l-.1-4.4c-.3-20.5-15.1-38-35.3-41.6V261.6c28.6 5 53.5 22.5 68 47.6 17.5 29.8 18.3 66.5 2.3 97.1-.2.3-.3.5-.4.7z" fill="#41d6c3"/></svg>