<svg version="1.1" id="Calque_1" xmlns="http://www.w3.org/2000/svg" x="0" y="0" viewBox="0 0 612 612" xml:space="preserve"><style>.st1{fill:#5596e6}</style><path d="M211.2 556.1V244.6h-24v311.5c0 9.3 7.5 16.8 16.8 16.8h24c-9.3 0-16.8-7.5-16.8-16.8z" fill="#d4e1f4"/><path class="st1" d="M424.1 384.5c-4 0-7.2 3.2-7.2 7.2v88.9c0 4 3.2 7.2 7.2 7.2s7.2-3.2 7.2-7.2v-88.9c0-4-3.3-7.2-7.2-7.2zm0-55.6c-4 0-7.2 3.2-7.2 7.2v19.7c0 4 3.2 7.2 7.2 7.2s7.2-3.2 7.2-7.2v-19.7c0-4-3.3-7.2-7.2-7.2z"/><path d="M374.3 63c-5.3-13.1-15-23.1-28.9-29.9-9.9-4.7-20.6-7.5-31.5-8.3-11.1-.8-14.2.8-16.1 4-1.4 2.4-1.3 5.4.2 7.7.5.8 1.1 1.5 1.8 2.2 2.1 2.4 6.1 6.8 5.8 11.5-.3 4.4-3.4 9.7-6.5 14.8-1.9 3.1-3.6 6.2-5.2 9.5-5 11.1-4.1 23.9 2.4 33.3 9.5 14 27.1 16.6 38.7 16.6 1.3 0 2.6 0 3.7-.1 13.7-.5 26.2-7.8 33.3-19.5 7.8-12.2 8.6-27.5 2.3-41.8zm-14.4 34.3c-4.7 7.6-12.8 12.3-21.8 12.6-14.3.7-24.9-3-29.9-10.2-3.7-5.4-4.1-12.8-1.1-19.5 1.3-2.7 2.7-5.4 4.3-7.9 3.7-6.3 8-13.4 8.5-21.3.2-3.9-.5-7.7-2.1-11.3 13.6 2 35.1 8.7 43.1 28.7 0 .1.1.1.1.2 4.4 10 4 20.5-1.1 28.7zm-24 33.2c-.3 0-.6-.1-.9-.1h-.2c-8.5-.9-17 1.6-23.6 7-7 5.7-11.4 14-12 23.1l-5 76.5 14.4.9 5-76.4c.4-5.1 2.8-9.7 6.7-12.9 3.7-3 8.5-4.4 13.2-3.8.3 0 .6.1.9.1h.1c9.1 1.4 15.4 9.9 14 19 0 .2-.1.5-.1.7l-20 71 13.9 3.9 20-71.2c0-.1.1-.3.1-.4 3.6-16.8-7.2-33.3-24-36.8-.8-.4-1.7-.5-2.5-.6zm137.6-58c-9.4-6-12.9-6-16-4.1-2.4 1.5-3.7 4.2-3.4 6.9.1.9.3 1.9.5 2.8.8 3.1 2.1 8.8-.3 12.8-2.3 3.7-7.6 6.9-12.7 10-3.1 1.8-6.2 3.8-9 6-9.6 7.4-14.9 19.1-13.6 30.5 2 18.7 19.4 29.7 29.7 34.6 5.6 2.7 11.8 4.1 18.1 4.2 7.2 0 14.3-1.9 20.5-5.6 12.6-7.3 20.5-20.4 21.7-35.9 1.5-14-2.3-27.5-11.4-40-6.7-8.8-14.8-16.3-24.1-22.2zm20.9 60.7v.2c-.8 10.8-6.1 19.8-14.5 24.7-7.7 4.5-17.2 4.8-25.2.9-13-6.2-20.6-14.4-21.5-23.1-.7-6.5 2.4-13.2 8.2-17.7 2.4-1.8 4.9-3.5 7.6-5 6.3-3.8 13.4-8.1 17.5-14.8 2-3.3 3.2-7.1 3.5-10.9 11.1 8.3 26.8 24.3 24.4 45.7zM443.1 176c-.2-.2-.5-.3-.8-.5l-.1-.1c-7-4.8-15.8-6.6-24.1-5-8.9 1.7-16.6 7-21.5 14.7-2.3 3.7-4.3 6.9-6 9.7-10.2 16.4-12.4 19.8-23.1 39.7l12.7 6.8c10.5-19.5 12.3-22.4 22.6-38.9 1.8-2.8 3.7-6 6-9.6 2.7-4.3 7.1-7.3 12-8.2 4.7-.9 9.6.1 13.5 2.8.2.2.5.3.8.5h.1c7.4 5.5 8.9 15.9 3.4 23.3-.2.3-.4.5-.6.8-9 10.9-13.4 16.6-17.4 22l11.5 8.6c3.9-5.2 8.2-10.8 17-21.4 11.1-13.1 9.4-32.7-3.8-43.8-.8-.4-1.5-.9-2.2-1.4zm-207.5-64.9c-17.2 0-31.2 14-31.2 31.2v96h14.4v-64.8h33.6v64.8h14.4v-96c0-17.2-14-31.2-31.2-31.2zm-16.8 48v-16.8c0-9.3 7.5-16.8 16.8-16.8s16.8 7.5 16.8 16.8v16.8h-33.6z" fill="#41d6c3"/><path class="st1" d="M475.2 556.1V237.4c0-4-3.2-7.2-7.2-7.2H180c-4 0-7.2 3.2-7.2 7.2v77.8h-19.4c-48.9 0-88.6 39.7-88.6 88.6s39.7 88.6 88.6 88.6h19.4v63.8c0 17.2 14 31.2 31.2 31.2h240c17.2-.1 31.2-14 31.2-31.3zm-321.9-78.2c-41 0-74.2-33.2-74.2-74.2s33.2-74.2 74.2-74.2h19.4v148.3h-19.4v.1zm33.9 78.2V244.6h273.6v311.5c0 9.3-7.5 16.8-16.8 16.8H204c-9.3 0-16.8-7.5-16.8-16.8z"/></svg>