<svg xmlns="http://www.w3.org/2000/svg" viewBox="0 0 115 157"><ellipse cx="70.5" cy="153.5" rx="32.4" ry="3.5" opacity=".12" fill="#18222d"/><path d="M34.3 96.8c-5-3.5-8.6-8-11.4-13.1 3.2-1.2 6.3-3 8-6.2 1.1-2 2-5.9-.4-7.5-2.1-1.4-5.1 0-6.6 1.6-2.2 2.2-2.8 5.1-2.9 8.1-1.5-3.4-2.7-6.9-3.7-10.5 3.4-1.4 6.6-3.4 8.1-6.9.9-2.1 1.4-5.5-.7-7-2.3-1.7-5.3 0-6.7 1.9-1.3 1.8-1.9 4-2.2 6.2-.8-3.4-1.5-6.9-2.1-10.3 3.2-1.4 13.1-8.7 7.3-12.4-4.4-2.9-6.8 2.2-8.1 6.8-.1-.6-.2-1.2-.2-1.9-.3-2.9-.5-5.9-.6-8.8.1 0 .2-.1.3-.2 3.2-3 4.5-7.4 3.9-11.8-.4-3.2-2.5-7.3-6.4-6.5-3.7.8-4.9 5.5-4.7 8.7.2 3.8 1.9 7.6 5.1 9.7.2 3.7.6 7.4 1.1 11C8.9 43 4.5 37.6 1 41.9c-2 2.5-.3 5.7 1.6 7.6 2.6 2.6 6 4 9.6 3.8.6 3.9 1.4 7.7 2.3 11.5-3.9-4.1-10.4-8.7-13.4-2.8-1.3 2.7-.1 5.7 2.2 7.3 3.6 2.6 8.4 1.5 12.3.1.9 3.3 2 6.6 3.3 9.8-1.9-1.5-4-2.7-6.2-3.1-2.3-.4-5 .6-5.5 3.2-.5 2.7 1.5 4.7 3.7 5.6 3.3 1.3 7.1.7 10.1-1 3 5.7 6.9 10.7 12.4 14.2.9.5 1.7-.8.9-1.3zm20.2 0c5-3.5 8.6-8 11.4-13.1-3.2-1.2-6.3-3-8-6.2-1.1-2-2-5.9.4-7.5 2.1-1.4 5.1 0 6.6 1.6 2.2 2.2 2.8 5.1 2.9 8.1 1.5-3.4 2.7-6.9 3.7-10.5-3.4-1.4-6.6-3.4-8.1-6.9-.9-2.1-1.4-5.5.7-7 2.3-1.7 5.3 0 6.7 1.9 1.3 1.8 1.9 4 2.2 6.2.8-3.4 1.5-6.9 2.1-10.3-3.2-1.4-13.1-8.7-7.3-12.4 4.4-2.9 6.8 2.2 8.1 6.8.1-.6.2-1.2.2-1.9.3-2.9.5-5.9.6-8.8-.1 0-.2-.1-.3-.2-3.2-3-4.5-7.4-3.9-11.8.4-3.2 2.5-7.3 6.4-6.5 3.7.8 4.9 5.5 4.7 8.7-.2 3.8-1.9 7.6-5.1 9.7-.2 3.7-.6 7.4-1.1 11 2.5-4.7 6.9-10.1 10.4-5.8 2 2.5.3 5.7-1.6 7.6-2.6 2.6-6 4-9.6 3.8-.6 3.9-1.4 7.7-2.3 11.5 3.8-4.2 10.3-8.9 13.3-2.9 1.3 2.7.1 5.7-2.2 7.3-3.6 2.6-8.4 1.5-12.3.1-.9 3.3-2 6.6-3.3 9.8 1.9-1.5 4-2.7 6.2-3.1 2.3-.4 5 .6 5.5 3.2s-1.5 4.6-3.7 5.5c-3.3 1.3-7.1.7-10.1-1-3 5.7-6.9 10.7-12.4 14.2-.8.7-1.5-.6-.8-1.1z" fill="#0a6159"/><path d="M48.7 59.9c-1.6-2.1-4.7-1.8-6.7-.5-2.3 1.5-3.4 3.9-4.3 6.3 0-3.7-.2-7.5-.5-11.1 0-.2 0-.5-.1-.7 3.5-1.2 7.2-2.5 9.4-5.6 1.3-1.8 2.4-5 .8-6.9-1.6-2-5-1.4-6.9-.3-2 1.1-3.1 3.3-3.8 5.7-.2-3.1-.3-6.2-.3-9.3 3.9-.5 7.5-2.1 10.2-5 1.9-2 4.3-5.5 2.3-8.1-1.7-2.2-5.6-1.6-7.6-.3-2.3 1.5-3.7 4.6-4.7 7.6.3-4.1.9-8.2 2-12.2 4.2-1.1 8-3.6 10.4-7.3C51 9 52.2 3.9 48.6 1.1c-3.3-2.5-7.3-.1-9.4 2.8-3.1 4.4-4.5 10.4-2.5 15.5-.7 2.3-1.2 4.7-1.5 7.2-.5-1.2-1.1-2.3-1.9-3.3-2-2.5-5.3-3.7-7.7-1-5.4 6.1 2.4 14.7 8.9 14.8 0 3.3.2 6.5.5 9.7.1 1 .2 2.1.2 3.1-2.7-4.9-8.3-13.3-11.7-6.6-3 6 6.7 12.1 12 10.6.3 4.3.6 8.6.6 12.8-.9-3.1-2.3-6.1-5-7.8-2.1-1.4-5-1.4-6.5.8-1.6 2.4-.6 5.8 1 7.8 2.4 3.2 6.5 4.3 10.3 4-.2 3.1-.6 6.2-1.4 9.2 0-1.9-.5-3.7-1.5-5.2-1.5-2-4.2-3.2-6.4-1.6-5.2 3.7.4 12.7 5.5 13.9-1.1 2.3-2.4 4.6-4.1 6.7-.8 1 .6 2.1 1.4 1.1 1.9-2.4 3.3-5 4.5-7.7 3.9.8 8.1 1.2 11.4-1.2 2.3-1.7 4-5.1 2.5-7.9-3-5.7-8.7-.4-12.2 4 1-3.6 1.6-7.4 1.9-11.2 4.5-.4 16.1-5.4 11.2-11.7zm41.6 23.3c-.2-2.1-2.4-3.2-4.3-3.1-2.1 0-3.9 1.2-5.6 2.5 1.6-2.5 3-5.1 4.3-7.7.1-.2.2-.3.3-.5 2.8.7 5.9 1.3 8.7.1 1.6-.7 3.7-2.4 3.4-4.4-.2-2-2.8-3-4.5-3.1-1.8 0-3.5 1-4.9 2.2 1.2-2.2 2.4-4.4 3.6-6.4 2.9 1.3 5.9 1.7 9 .9 2.1-.5 5.2-1.9 4.9-4.6-.2-2.2-3.1-3.4-5-3.4-2.2.1-4.5 1.5-6.3 3.2 1.9-2.7 4-5.2 6.4-7.4 3.3 1 6.9.9 10.1-.6 2.8-1.3 5.7-4.3 4.4-7.6-1.2-3.1-4.9-3.2-7.5-2.1-3.9 1.7-7.4 5.2-8.2 9.5-1.4 1.3-2.8 2.7-4 4.2.2-1 .2-2 .1-3-.3-2.5-2.1-4.8-4.8-3.9-6.1 1.9-4.4 11-.1 13.8-1.3 2.2-2.6 4.5-3.7 6.7-.4.7-.8 1.5-1.1 2.2.2-4.5-.1-12.4-5.1-9.3-4.5 2.8-.5 11 3.7 12.2-1.6 3-3.2 6-5 8.9.7-2.5 1-5.1-.1-7.4-.8-1.8-2.7-3-4.7-2.2-2.1.9-2.8 3.6-2.6 5.7.3 3.2 2.6 5.6 5.3 7-1.4 2-3 3.9-4.8 5.6.7-1.3 1.2-2.7 1.1-4.1-.1-2-1.5-3.9-3.7-3.8-5.1.4-5.1 8.7-2.1 11.7-1.7 1.1-3.5 2.1-5.6 2.8-1 .4-.5 1.7.5 1.3 2.3-.9 4.3-2 6.2-3.3 2.3 2.1 5 4.2 8.2 4 2.3-.2 4.8-1.7 5-4.2.3-5.1-5.7-3.9-9.9-2.4 2.2-2 4.2-4.3 5.9-6.8C81 88 91 89.5 90.3 83.2z" fill="#047a69"/><path d="M62.3 54.3c-2.8 1.3-4.9 3.2-6.5 5.6.6-2.2 1.1-4.2 1.6-6.2.6-2.4 1.2-4.9 1.7-7.5 4.2-.3 8.4-1.4 11.1-4.8 1.7-2.2 2.9-6 .8-8.3-2-2.2-5-1.2-7.1.3-1.7 1.3-2.9 3-3.9 4.9.2-3.4 0-6.7-.8-9.9.1 0 .1-.1.2-.2 1.9-3.8 1.9-8.3-.1-12-1.5-2.9-4.2-5.5-7.5-3.8-3.5 1.8-3.6 6.2-2.6 9.5 1.3 3.9 4.7 5.9 8.4 7.1.9 4.3.8 8.6.2 13-1.3-5.6-4.4-14.1-9.5-9.4-5.8 5.3 3.4 12.6 8.8 13.7-.7 3.5-1.6 6.9-2.5 10.4-.3-2.2-.9-4.3-2.2-6.1-1.6-2.2-4.2-3.7-6.5-1.5-2.5 2.3-1.3 7.1-.1 9.7 1.4 3.1 3.7 5.1 6.9 6-.1.7-.3 1.4-.4 2.1-.4 2.4-.9 5-1.3 7.8-.6-2.6-1.4-5-3.1-6.7-1.7-1.7-4.8-2.7-6.5-.4-1.7 2.3-.8 6.7.3 9 1.7 3.7 4.8 6 8.5 7-.1 2.4.1 4.8.4 7.1-3.3-4.8-8.6-10.4-11.8-4.4-3.7 6.8 7.9 10.9 13.5 10.6 1.3 3 3.2 5.6 6 7.7.7.5 1.6-.6 1-1.2-1.9-1.9-3.3-4.1-4.4-6.4 3.7-.3 7.3-2 9.9-4.7 2-2.1 3.6-5.5 1.1-7.9-1.9-1.9-5.2-1.3-7.3-.1-2.9 1.7-4.5 4.6-5.5 7.7-.6-2.6-1-5.4-1-8.2 4.5 0 9.2-1 12.8-4 2.6-2.2 5.2-6.4 2.5-9.6-5.4-6.2-12 2.6-15.1 8.7.3-4.6 1.2-9.3 2.3-13.8 4.7 1.4 9.8.8 13.7-2.2 2.4-1.8 5-5.5 2.8-8.5-2-2.6-6.3-1.3-8.8-.1z" fill="#2abcaa"/><path d="M89 105.7c-.2 1.2-1.1 2-2.3 2.1-1 .1-2.3.2-3.8.3l-1.8 8.3-2.6 11.9-4 18.4-.3 1.3c-1 4.8-5 8.3-9.8 8.9-.5.1-.9.1-1.4.1H39.1c-5.2-.2-9.6-3.8-10.8-8.9v-.1l-4.1-18.9-2.9-13.1-1.7-7.7c-1.3-.1-2.6-.2-3.9-.4-1.1-.1-2-1-2.2-2.1-.4-3-.9-9.1-.1-14.2.2-1.2 1.2-2.1 2.4-2.1h70.7c1.2 0 2.3.9 2.4 2.1.5 2.9.9 8.4.1 14.1z" fill="#f47856"/><path d="M80.5 107.7c-9.1-1.7-19.3-.6-28.5-.6-10-.1-20.1-.5-30.2-.2-1.1 0-1 1.5 0 1.6 10 1 20.1 1.1 30.2 1.3 9.2.2 19.5 1.3 28.5-.5.8-.2.8-1.5 0-1.6z" fill="#dd6043"/><path d="M33 121.6c0 2.7-1.5 5.3-3.8 6.6-1.5.9-3.3 1.1-5 .8l-2.9-13.1c.2-.2.4-.3.6-.4 1-.5 2.2-.9 3.4-.9h.5c.3 0 .9.1.9.1.1 0 .7.1 1 .1 3 .9 5.2 3.7 5.3 6.8zm24.6 10.8c-.4-1-.8-1.6-1.6-2.4-1.4-1.4-3.4-2.2-5.3-2.1-2.5.1-4.6 1.4-6 3.5-.7 1.1-1.3 2.9-1.1 4.2 0 .8.1 1.5.5 2.2.2.7.6 1.3 1.2 1.9.1 0 .1.1.2.1.5.6 1.1 1.2 1.8 1.6 1 .6 2.5 1 3.6 1 1.3-.1 2.5-.3 3.6-1 .6-.3 1.2-.8 1.6-1.3.9-.9 1.5-2 1.8-3.2l.2-1.7v-.2c.1-1.2-.1-1.7-.5-2.6zm23.5-16l-2.6 11.9c-.4.1-.9.1-1.3.2-.5-.1-1-.1-1.5-.2-1.1-.4-1.4-.5-2.1-1.1-.8-.6-1-.7-1.6-1.8 0 0 0-.1-.1-.1-.2-.2-.4-.5-.6-.8-.8-1.3-.9-2.8-.6-4.3.3-1.3 1.2-2.3 2.3-3.1.8-.8 1.7-1.3 2.8-1.7.5-.2 1.2-.2 1.8-.3 1.1 0 2.5.5 3.5 1.3zm-41.2 38.2c-.1 1.1 0 .7-.5 1.7-.1.2-.2.5-.3.7-5.2-.2-9.6-3.8-10.8-8.9.4-.3.8-.6 1.1-.8.7-.5 1.5-.7 2.4-.8.6-.2 1.1-.2 1.7 0 .9 0 1.7.3 2.4.8.2.2.5.4.7.6.4.3.9.6 1.2 1l.2.2c0 .1.1.1.2.2.1.2.3.3.4.5.1.1.2.3.3.4v.1s0 .1.1.1c.5.9.7 1.6.8 2.6.2.9.2.5.1 1.6zm34.6-8l-.3 1.3c-1 4.8-5 8.3-9.8 8.9v-.1c-.3-.5-.6-1.2-.8-1.7 0-.1-.1-.2-.1-.4-.1-.5-.2-1.3-.2-1.8 0-.3.1-.8.1-1 .1-.4.1-.8.2-1.1.2-.6.5-1.2.8-1.7s.7-1.1 1.1-1.4c1.9-1.8 4.6-2.5 7.1-1.8.4.1 1.3.5 1.6.7 0 0 .1 0 .1.1h.2z" fill="#ffd8cf"/></svg>