<svg xmlns="http://www.w3.org/2000/svg" viewBox="0 0 115 157"><ellipse cx="43.4" cy="152.2" rx="38" ry="3.5" opacity=".12" fill="#18222d"/><path d="M31.1 66.3c-1-10.8-.2-22.2 5.3-31.6 5.5-9.4 16.7-16 27.3-13.5 6.3 1.5 11.6 6 15 11.5 3.4 5.5 5.1 11.9 5.8 18.3 1 8.2.5 16.6-1.9 24.6-2.5 8.3-7.2 16.2-14.3 21.2-7.3 5.1-19.3 8.3-25.5.5-7.1-9.3-10.7-19.4-11.7-31z" fill="#0a8778"/><path d="M54.9 26.3c-.4.3-.8.7-1.1 1.1-.2.2-.3.4-.5.7V28c-.2-.3-.4-.6-.6-.8-.3-.5-.6-1-1.1-1.3-.5-.3-1.1.1-1.1.6 0 .8.4 1.5.8 2.2.3.6.8 1.5 1.5 1.7.8.2 1.2-.4 1.7-.9.6-.7 1.3-1.3 1.7-2.1.2-.7-.6-1.6-1.3-1.1zm13.3 1.9c-.4.3-.8.7-1.1 1.1-.2.2-.3.4-.5.7v-.1c-.2-.3-.4-.6-.6-.8-.3-.5-.6-1-1.1-1.3-.5-.3-1.1.1-1.1.6 0 .8.4 1.5.8 2.2.3.6.8 1.5 1.5 1.7.8.2 1.2-.4 1.7-.9.6-.7 1.3-1.3 1.7-2.1.2-.7-.6-1.6-1.3-1.1zm-24.9 8c-.7.4-1.3 1.1-1.9 1.8-.5-.6-1-1.3-1.6-1.8-.6-.4-1.3 0-1.2.7.3 1.3 1.2 2.4 2 3.4.3.4 1.1.4 1.5 0 .8-1 2-2 2.4-3.2.4-.7-.6-1.2-1.2-.9zm17.1 1.6c-.5.3-.8.7-1.1 1.1l-.6.9s-.2.2-.3.4l-.3-.3-.6-.6c-.4-.4-.7-.7-1.2-.9-.3-.1-.6.2-.6.4 0 .8.5 1.5.9 2.2.4.7.8 1.5 1.7 1.5.8.1 1.3-.6 1.7-1.2.6-.8 1.3-1.5 1.5-2.5.3-.8-.5-1.5-1.1-1zm13.1-.1c-.5.1-.9.5-1.2.9-.1.1-.3.3-.4.5-.1-.2-.3-.3-.4-.4-.3-.3-.5-.6-.9-.8-.5-.2-1.1 0-1.1.6 0 .7.4 1.2.8 1.7s.8 1.2 1.5 1.3c.8.1 1.2-.5 1.6-1 .5-.6 1-1.1 1.1-2 .1-.5-.6-.9-1-.8zm4.3 11.2c-.8.5-1.4 1.2-2 1.9-.1-.1-.2-.3-.3-.4l-1.2-1.2c-.4-.4-1 .1-.8.6.2.5.4 1.1.6 1.6.3.5.5 1 .8 1.5.3.6 1.1.6 1.6.2.9-.9 2-1.9 2.5-3 .4-.8-.4-1.7-1.2-1.2zm-25.4.1c-1.2.1-2.5 1.2-3.6 2.2-.7-.8-1.3-1.5-2-2.3-.3-.3-.7 0-.7.4.2 1.5.8 2.6 1.7 3.9.4.6 1 .6 1.6.2.7-.6 1.4-1.1 2.1-1.7.6-.5 1.2-.8 1.6-1.5.2-.5-.1-1.3-.7-1.2zM42.1 60.6c-.7.7-1.5 1.4-2.2 2.1-.5-.6-1.1-1.2-1.5-1.9-.4-.6-1.3-.1-1 .6.6 1 1 2.1 1.6 3.1.3.5 1 .6 1.5.2 1-.9 2-1.8 2.9-2.7.9-1-.4-2.3-1.3-1.4zm16.7 2.2c-.5.3-.8.8-1.2 1.3-.2.2-.3.4-.5.6l-.2.2s-.1-.1-.1-.2c-.2-.3-.3-.6-.5-.8-.3-.5-.6-.9-1-1.2-.3-.2-.7.1-.8.4-.1.9.4 1.8.7 2.6.3.7.6 1.5 1.5 1.5.8 0 1.3-.6 1.8-1.1.6-.7 1.3-1.4 1.6-2.2.2-.8-.7-1.5-1.3-1.1zm20.8-1c-1 .4-1.8 1.4-2.5 2.4l-.4-.4c-.3-.4-.5-.8-1.1-1-.3-.1-.6.1-.7.4-.3 1.1 1 2.6 1.6 3.4.4.5 1.3.3 1.6-.2.4-.6.8-1.2 1.3-1.8.5-.5.9-1 1.2-1.6.4-.7-.4-1.4-1-1.2zM42.3 73.5c-.4.4-.8.7-1.2 1.1-.2.2-.4.5-.6.7-.2-.4-.5-.9-.6-1.2-.3-.5-.6-.9-1-1.4-.4-.4-.9.1-.9.5.1.8.4 1.5.7 2.2.3.6.6 1.4 1.2 1.7.7.4 1.3-.1 1.8-.6.7-.6 1.3-1.2 1.8-1.9.7-.8-.3-1.8-1.2-1.1zm29.5-.5c-.6.4-1 1.1-1.4 1.7-.2.2-.3.4-.5.6-.2-.3-.4-.5-.5-.8-.3-.5-.8-.9-1.1-1.4-.3-.5-1.2-.2-1 .4.2.7.3 1.3.6 2s.7 1.3 1.1 1.9c.3.5 1.1.7 1.6.2.9-1.1 2.1-2.3 2.7-3.5.5-.9-.6-1.8-1.5-1.1zm-14 5.4c-1.1.1-1.7 1-2.4 1.8l-.2.2c-.1-.2-.3-.4-.5-.6-.4-.5-.7-1-1.2-1.4-.4-.3-1 0-.9.5.2.8.6 1.6 1 2.3.4.7.8 1.3 1.7 1.3.7 0 1.2-.5 1.6-1 .5-.5 1-1 1.6-1.5.5-.5.2-1.7-.7-1.6zM46.7 89.5c-1 .3-1.6 1.2-2.4 1.8l-.1-.1c-.2-.2-.4-.4-.6-.7-.4-.4-.8-.7-1.2-1.1-.5-.3-.9.3-.7.7.3.8.9 1.5 1.4 2.1.3.4.6.9 1.2.9s1.2-.7 1.6-1c.6-.5 1.3-.9 1.6-1.6.3-.4-.1-1.2-.8-1zM70 88.2c-1.1.5-1.8 1.6-2.7 2.3-.4-.3-.7-1-1.1-1.2-.1-.1-.3 0-.4.1-.6 1 .3 3.2 1.6 3.3.8 0 1.5-.8 2-1.3.7-.6 1.4-1.3 1.8-2.2.3-.8-.6-1.2-1.2-1zm-12.6 7.3c-.5.1-.8.3-1.2.6-.3.2-1.1.7-1.3 1-.1-.1-.2-.3-.3-.4-.2-.4-.4-.7-.7-1-.4-.5-1 0-1.1.5-.1 1 .6 2.9 1.7 3.1.8.2 1.4-.4 2-.9.6-.5 1.4-.9 1.8-1.6.4-.7-.1-1.4-.9-1.3zM39.6 49.1c-1 .7-1.8 1.8-2.6 2.9-.6-1.1-1.2-2.2-2-3-.2-.2-.6 0-.5.3.4 1.4 1.3 2.7 2 4.1.2.3.7.4.9.1 1-1.1 2.3-2.3 2.9-3.7.1-.4-.3-1-.7-.7zm27.6 0c-1 .7-1.8 1.8-2.6 2.9-.6-1.1-1.2-2.2-2-3-.2-.2-.6 0-.5.3.4 1.4 1.3 2.7 2 4.1.2.3.7.4.9.1 1-1.1 2.3-2.3 2.9-3.7.1-.4-.3-1-.7-.7z" fill="#2abcaa"/><path d="M93.3 105.8c-.1.7-.7 1.3-1.4 1.4l-2.8.6c-.8.2-1.3.8-1.4 1.6-.3 3.9-1.4 16.2-3.1 28-.1.8-.2 1.6-.4 2.3-.7 4.5-1.5 8.8-2.5 12.5-.2.6-.6 1.1-1.3 1.2-1.7.4-5.3 1.2-10.8 1.6-1.2.1-2.6.2-4 .3-5 .3-11 .2-18-.3l-3.6-.3c-3-.3-6.2-.7-9.5-1.3-.7-.1-1.3-.7-1.4-1.5-.3-2.2-1-7-1.7-13.2-.1-.9-.2-1.9-.3-2.8-.9-8-1.9-17.8-2.4-27 0-.8-.6-1.5-1.4-1.6l-3.7-.6c-.7-.1-1.3-.7-1.4-1.4-.4-2.4-1.2-8.5-1.3-18.6 0-1 .8-1.7 1.7-1.7h70.1c.9 0 1.7.7 1.7 1.6 0 3.1.2 10.3-1.1 19.2z" fill="#ff996c"/><path d="M86 107.2c-9.4.8-18.5 1.8-28 1.5-9.4-.3-18.8-1.8-28.2-1.6-.9 0-1.1 1.4-.2 1.6 9.2 2 19 2.4 28.4 2.8 9.3.3 19.3.4 28.3-1.9 1.3-.3 1.1-2.5-.3-2.4z" fill="#f47856"/><path d="M84.6 137.4c-.1.8-.2 1.6-.4 2.3-7.7-.1-12.3 7.7-14.5 15.4-1.2.1-2.6.2-4 .3-.6-9.3-3-20.9-11.4-15.1-4.6 3.2-5.9 9-6.6 14.8l-3.6-.3c-.1-5.3-.9-10.6-3.6-14.8-2.9-4.5-6.3-3.6-9.1-1.2-.1-.9-.2-1.9-.3-2.8 1.7-1.1 3.6-1.5 5.7-1.1 4.5.8 6.7 5.8 7.9 9.7.7 2.4 1.2 4.9 1.4 7.5 1.5-7.6 4.1-15.1 12-15.7 4.7-.4 6.8 3.6 8 7.5.9 3.1 1.5 6.3 1.8 9.6 2.7-8.5 8-16.4 16.7-16.1z" fill="#ffd8cf"/></svg>